<?xml version="1.0" standalone="no"?>
 <!DOCTYPE svg PUBLIC "-//W3C//DTD SVG 1.1//EN" 
 "http://www.w3.org/Graphics/SVG/1.1/DTD/svg11.dtd"> 
<svg xmlns="http://www.w3.org/2000/svg" version="1.1" 
    width="29.7002cm" height="21.0007cm" viewBox="0 0 116930 82680 ">
<title>SVG Picture created as FrogINT_PCBProto_V1811062154-B.Mask.svg date 2019/03/12 09:17:33 </title>
  <desc>Picture generated by PCBNEW </desc>
<g style="fill:#000000; fill-opacity:1;stroke:#000000; stroke-opacity:1;
stroke-linecap:round; stroke-linejoin:round; "
 transform="translate(0 0) scale(1 1)">
</g>
<g style="fill:#000000; fill-opacity:0.0; 
stroke:#000000; stroke-width:-0.000393701; stroke-opacity:1; 
stroke-linecap:round; stroke-linejoin:round;">
</g>
<g style="fill:#000000; fill-opacity:1.0; 
stroke:#000000; stroke-width:0; stroke-opacity:1; 
stroke-linecap:round; stroke-linejoin:round;">
<polyline style="fill-rule:evenodd;"
points="55382,51830
55430,51845
55447,51850
55507,51882
55507,51882
55507,51882
55560,51925
55603,51977
55624,52017
55635,52037
55641,52059
55654,52102
55659,52153
55659,52324
55654,52375
55641,52418
55635,52440
55624,52460
55603,52500
55560,52552
55507,52595
55467,52617
55447,52627
55426,52634
55382,52647
55315,52654
55247,52647
55204,52634
55182,52627
55162,52617
55123,52595
55070,52552
55070,52552
55070,52552
55057,52536
55027,52500
55004,52456
54995,52440
54988,52418
54975,52375
54970,52324
54970,52153
54975,52102
54995,52037
54995,52037
55027,51977
55027,51977
55027,51977
55070,51925
55123,51882
55162,51860
55182,51850
55204,51843
55247,51830
55315,51823
55382,51830
" /> 
<polyline style="fill-rule:evenodd;"
points="57532,51830
57580,51845
57597,51850
57657,51882
57657,51882
57657,51882
57709,51925
57752,51977
57774,52017
57784,52037
57791,52059
57804,52102
57809,52153
57809,52324
57804,52375
57791,52418
57784,52440
57774,52460
57752,52500
57709,52552
57657,52595
57617,52617
57597,52627
57575,52634
57532,52647
57464,52654
57397,52647
57354,52634
57332,52627
57312,52617
57272,52595
57220,52552
57220,52552
57220,52552
57206,52536
57177,52500
57153,52456
57145,52440
57138,52418
57125,52375
57120,52324
57120,52153
57125,52102
57145,52037
57145,52037
57177,51977
57177,51977
57177,51977
57220,51925
57272,51882
57312,51860
57332,51850
57354,51843
57397,51830
57464,51823
57532,51830
" /> 
<polyline style="fill-rule:evenodd;"
points="57400,50688
57456,50705
57507,50732
57552,50769
57589,50814
57617,50865
57633,50921
57638,50964
57638,51151
57633,51194
57617,51250
57589,51301
57552,51346
57507,51383
57456,51410
57400,51427
57342,51433
57285,51427
57229,51410
57178,51383
57133,51346
57096,51301
57068,51250
57051,51194
57047,51151
57047,50964
57051,50921
57068,50865
57096,50814
57133,50769
57178,50732
57229,50705
57285,50688
57342,50682
57400,50688
" /> 
<polyline style="fill-rule:evenodd;"
points="55495,50688
55550,50705
55602,50732
55647,50769
55684,50814
55711,50865
55728,50921
55732,50964
55732,51151
55728,51194
55711,51250
55684,51301
55647,51346
55602,51383
55550,51410
55495,51427
55437,51433
55379,51427
55323,51410
55272,51383
55227,51346
55190,51301
55163,51250
55146,51194
55142,51151
55142,50964
55146,50921
55163,50865
55190,50814
55227,50769
55272,50732
55323,50705
55379,50688
55437,50682
55495,50688
" /> 
<polyline style="fill-rule:evenodd;"
points="60904,48229
60959,48240
61027,48268
61088,48309
61140,48361
61181,48422
61209,48490
61224,48563
61224,48636
61209,48709
61181,48777
61140,48838
61088,48890
61027,48931
60959,48959
60904,48970
60886,48974
60813,48974
60795,48970
60740,48959
60672,48931
60611,48890
60559,48838
60518,48777
60490,48709
60475,48636
60475,48563
60490,48490
60518,48422
60559,48361
60611,48309
60672,48268
60740,48240
60795,48229
60813,48225
60886,48225
60904,48229
" /> 
<polyline style="fill-rule:evenodd;"
points="58983,48229
59037,48240
59105,48268
59167,48309
59219,48361
59260,48422
59288,48490
59302,48563
59302,48636
59288,48709
59260,48777
59219,48838
59167,48890
59105,48931
59037,48959
58983,48970
58965,48974
58891,48974
58873,48970
58819,48959
58751,48931
58690,48890
58638,48838
58597,48777
58569,48709
58554,48636
58554,48563
58569,48490
58597,48422
58638,48361
58690,48309
58751,48268
58819,48240
58873,48229
58891,48225
58965,48225
58983,48229
" /> 
<polyline style="fill-rule:evenodd;"
points="59400,39889
59431,39892
59482,39908
59508,39916
59580,39954
59643,40006
59695,40069
59733,40141
59733,40141
59757,40218
59765,40300
59757,40381
59741,40432
59733,40458
59695,40530
59643,40593
59580,40645
59508,40683
59482,40691
59431,40707
59400,40710
59370,40713
59329,40713
59299,40710
59268,40707
59217,40691
59191,40683
59119,40645
59056,40593
59004,40530
58966,40458
58958,40432
58942,40381
58934,40300
58942,40218
58966,40141
58966,40141
59004,40069
59056,40006
59119,39954
59191,39916
59217,39908
59268,39892
59299,39889
59329,39886
59370,39886
59400,39889
" /> 
<polyline style="fill-rule:evenodd;"
points="61400,39889
61431,39892
61482,39908
61508,39916
61580,39954
61643,40006
61695,40069
61733,40141
61733,40141
61757,40218
61765,40300
61757,40381
61741,40432
61733,40458
61695,40530
61643,40593
61580,40645
61508,40683
61482,40691
61431,40707
61400,40710
61370,40713
61329,40713
61299,40710
61268,40707
61217,40691
61191,40683
61119,40645
61056,40593
61004,40530
60966,40458
60958,40432
60942,40381
60934,40300
60942,40218
60966,40141
60966,40141
61004,40069
61056,40006
61119,39954
61191,39916
61217,39908
61268,39892
61299,39889
61329,39886
61370,39886
61400,39889
" /> 
<polyline style="fill-rule:evenodd;"
points="60400,39889
60431,39892
60482,39908
60508,39916
60580,39954
60643,40006
60695,40069
60733,40141
60733,40141
60757,40218
60765,40300
60757,40381
60741,40432
60733,40458
60695,40530
60643,40593
60580,40645
60508,40683
60482,40691
60431,40707
60400,40710
60370,40713
60329,40713
60299,40710
60268,40707
60217,40691
60191,40683
60119,40645
60056,40593
60004,40530
59966,40458
59958,40432
59942,40381
59934,40300
59942,40218
59966,40141
59966,40141
60004,40069
60056,40006
60119,39954
60191,39916
60217,39908
60268,39892
60299,39889
60329,39886
60370,39886
60400,39889
" /> 
<polyline style="fill-rule:evenodd;"
points="58763,40713
57936,40713
57936,39886
58763,39886
58763,40713
" /> 
<polyline style="fill-rule:evenodd;"
points="62400,39889
62431,39892
62482,39908
62508,39916
62580,39954
62643,40006
62695,40069
62733,40141
62733,40141
62757,40218
62765,40300
62757,40381
62741,40432
62733,40458
62695,40530
62643,40593
62580,40645
62508,40683
62482,40691
62431,40707
62400,40710
62370,40713
62329,40713
62299,40710
62268,40707
62217,40691
62191,40683
62119,40645
62056,40593
62004,40530
61966,40458
61958,40432
61942,40381
61934,40300
61942,40218
61966,40141
61966,40141
62004,40069
62056,40006
62119,39954
62191,39916
62217,39908
62268,39892
62299,39889
62329,39886
62370,39886
62400,39889
" /> 
<polyline style="fill-rule:evenodd;"
points="62400,38889
62431,38892
62482,38908
62508,38916
62580,38954
62643,39006
62695,39069
62733,39141
62733,39141
62757,39218
62765,39300
62757,39381
62741,39432
62733,39458
62695,39530
62643,39593
62580,39645
62508,39683
62482,39691
62431,39707
62400,39710
62370,39713
62329,39713
62299,39710
62268,39707
62217,39691
62191,39683
62119,39645
62056,39593
62004,39530
61966,39458
61958,39432
61942,39381
61934,39300
61942,39218
61966,39141
61966,39141
62004,39069
62056,39006
62119,38954
62191,38916
62217,38908
62268,38892
62299,38889
62329,38886
62370,38886
62400,38889
" /> 
<polyline style="fill-rule:evenodd;"
points="61400,38889
61431,38892
61482,38908
61508,38916
61580,38954
61643,39006
61695,39069
61733,39141
61733,39141
61757,39218
61765,39300
61757,39381
61741,39432
61733,39458
61695,39530
61643,39593
61580,39645
61508,39683
61482,39691
61431,39707
61400,39710
61370,39713
61329,39713
61299,39710
61268,39707
61217,39691
61191,39683
61119,39645
61056,39593
61004,39530
60966,39458
60958,39432
60942,39381
60934,39300
60942,39218
60966,39141
60966,39141
61004,39069
61056,39006
61119,38954
61191,38916
61217,38908
61268,38892
61299,38889
61329,38886
61370,38886
61400,38889
" /> 
<polyline style="fill-rule:evenodd;"
points="60400,38889
60431,38892
60482,38908
60508,38916
60580,38954
60643,39006
60695,39069
60733,39141
60733,39141
60757,39218
60765,39300
60757,39381
60741,39432
60733,39458
60695,39530
60643,39593
60580,39645
60508,39683
60482,39691
60431,39707
60400,39710
60370,39713
60329,39713
60299,39710
60268,39707
60217,39691
60191,39683
60119,39645
60056,39593
60004,39530
59966,39458
59958,39432
59942,39381
59934,39300
59942,39218
59966,39141
59966,39141
60004,39069
60056,39006
60119,38954
60191,38916
60217,38908
60268,38892
60299,38889
60329,38886
60370,38886
60400,38889
" /> 
<polyline style="fill-rule:evenodd;"
points="58400,38889
58431,38892
58482,38908
58508,38916
58580,38954
58643,39006
58695,39069
58733,39141
58733,39141
58757,39218
58765,39300
58757,39381
58741,39432
58733,39458
58695,39530
58643,39593
58580,39645
58508,39683
58482,39691
58431,39707
58400,39710
58370,39713
58329,39713
58299,39710
58268,39707
58217,39691
58191,39683
58119,39645
58056,39593
58004,39530
57966,39458
57958,39432
57942,39381
57934,39300
57942,39218
57966,39141
57966,39141
58004,39069
58056,39006
58119,38954
58191,38916
58217,38908
58268,38892
58299,38889
58329,38886
58370,38886
58400,38889
" /> 
<polyline style="fill-rule:evenodd;"
points="59400,38889
59431,38892
59482,38908
59508,38916
59580,38954
59643,39006
59695,39069
59733,39141
59733,39141
59757,39218
59765,39300
59757,39381
59741,39432
59733,39458
59695,39530
59643,39593
59580,39645
59508,39683
59482,39691
59431,39707
59400,39710
59370,39713
59329,39713
59299,39710
59268,39707
59217,39691
59191,39683
59119,39645
59056,39593
59004,39530
58966,39458
58958,39432
58942,39381
58934,39300
58942,39218
58966,39141
58966,39141
59004,39069
59056,39006
59119,38954
59191,38916
59217,38908
59268,38892
59299,38889
59329,38886
59370,38886
59400,38889
" /> 
<polyline style="fill-rule:evenodd;"
points="50815,33055
50947,33081
51319,33235
51655,33459
51940,33744
52164,34080
52318,34452
52397,34848
52397,35251
52318,35647
52164,36019
51940,36355
51655,36640
51319,36864
50947,37018
50815,37044
50551,37097
50148,37097
49884,37044
49752,37018
49380,36864
49044,36640
48759,36355
48535,36019
48381,35647
48302,35251
48302,34848
48381,34452
48535,34080
48759,33744
49044,33459
49380,33235
49752,33081
49884,33055
50148,33002
50551,33002
50815,33055
" /> 
</g> 
</svg>
