<?xml version="1.0" standalone="no"?>
 <!DOCTYPE svg PUBLIC "-//W3C//DTD SVG 1.1//EN" 
 "http://www.w3.org/Graphics/SVG/1.1/DTD/svg11.dtd"> 
<svg xmlns="http://www.w3.org/2000/svg" version="1.1" 
    width="29.7002cm" height="21.0007cm" viewBox="0 0 116930 82680 ">
<title>SVG Picture created as FrogINT_PCBProto_V1811062154-F.SilkS.svg date 2019/03/12 09:17:33 </title>
  <desc>Picture generated by PCBNEW </desc>
<g style="fill:#000000; fill-opacity:1;stroke:#000000; stroke-opacity:1;
stroke-linecap:round; stroke-linejoin:round; "
 transform="translate(0 0) scale(1 1)">
</g>
<g style="fill:#000000; fill-opacity:0.0; 
stroke:#000000; stroke-width:-0.000393701; stroke-opacity:1; 
stroke-linecap:round; stroke-linejoin:round;">
</g>
<g style="fill:#000000; fill-opacity:0.0; 
stroke:#000000; stroke-width:118.11; stroke-opacity:1; 
stroke-linecap:round; stroke-linejoin:round;">
<path d="M59011 36976
L59011 37398
L58982 37482
L58926 37539
L58842 37567
L58786 37567
" />
<path d="M59207 36976
L59545 36976
" />
<path d="M59376 37567
L59376 36976
" />
<path d="M59714 37398
L59995 37398
" />
<path d="M59657 37567
L59854 36976
L60051 37567
" />
<path d="M60557 37004
L60501 36976
L60417 36976
L60332 37004
L60276 37060
L60248 37117
L60220 37229
L60220 37314
L60248 37426
L60276 37482
L60332 37539
L60417 37567
L60473 37567
L60557 37539
L60585 37510
L60585 37314
L60473 37314
" />
</g>
<g style="fill:#000000; fill-opacity:0.0; 
stroke:#000000; stroke-width:78.7402; stroke-opacity:1; 
stroke-linecap:round; stroke-linejoin:round;">
<path d="M53277.6 42081.1 A39.3701 39.3701 0.0 0 0 53356.3 42081.1 " />
<path d="M53356.3 42081.1 A39.3701 39.3701 0.0 0 0 53277.6 42081.1 " />
<path d="M53356 42081
L53356 42081
" />
<path d="M53277 42081
L53277 42081
" />
</g>
<g style="fill:#000000; fill-opacity:0.0; 
stroke:#000000; stroke-width:39.3701; stroke-opacity:1; 
stroke-linecap:round; stroke-linejoin:round;">
<path d="M54379 41726
L54379 40083
" />
<path d="M53120 41726
L53120 40083
" />
<path d="M50820 41776
L50820 40133
" />
<path d="M52079 41776
L52079 40133
" />
</g>
<g style="fill:#000000; fill-opacity:0.0; 
stroke:#000000; stroke-width:78.7402; stroke-opacity:1; 
stroke-linecap:round; stroke-linejoin:round;">
<path d="M50977 42131
L50977 42131
" />
<path d="M51056 42131
L51056 42131
" />
<path d="M51056.3 42131.1 A39.3701 39.3701 0.0 0 0 50977.6 42131.1 " />
<path d="M50977.6 42131.1 A39.3701 39.3701 0.0 0 0 51056.3 42131.1 " />
</g>
<g style="fill:#000000; fill-opacity:0.0; 
stroke:#000000; stroke-width:47.2441; stroke-opacity:1; 
stroke-linecap:round; stroke-linejoin:round;">
<path d="M55059 50023
L55059 48956
" />
<path d="M54440 50023
L55059 50023
" />
<path d="M54440 48956
L54440 50023
" />
<path d="M55390 46726
L55390 47793
" />
<path d="M56009 46726
L55390 46726
" />
<path d="M56009 47793
L56009 46726
" />
<path d="M51259 49173
L51259 48106
" />
<path d="M50640 49173
L51259 49173
" />
<path d="M50640 48106
L50640 49173
" />
<path d="M50790 43876
L50790 44943
" />
<path d="M51409 43876
L50790 43876
" />
<path d="M51409 44943
L51409 43876
" />
<path d="M60526 47409
L61593 47409
" />
<path d="M60526 46790
L60526 47409
" />
<path d="M61593 46790
L60526 46790
" />
<path d="M60273 46790
L59206 46790
" />
<path d="M60273 47409
L60273 46790
" />
<path d="M59206 47409
L60273 47409
" />
<path d="M63609 46423
L63609 45356
" />
<path d="M62990 46423
L63609 46423
" />
<path d="M62990 45356
L62990 46423
" />
<path d="M51690 43876
L51690 44943
" />
<path d="M52309 43876
L51690 43876
" />
<path d="M52309 44943
L52309 43876
" />
<path d="M50609 45223
L50609 44156
" />
<path d="M49990 45223
L50609 45223
" />
<path d="M49990 44156
L49990 45223
" />
<path d="M49140 43876
L49140 44943
" />
<path d="M49759 43876
L49140 43876
" />
<path d="M49759 44943
L49759 43876
" />
<path d="M48209 40123
L48209 39056
" />
<path d="M47590 40123
L48209 40123
" />
<path d="M47590 39056
L47590 40123
" />
<path d="M49509 42073
L49509 41006
" />
<path d="M48890 42073
L49509 42073
" />
<path d="M48890 41006
L48890 42073
" />
<path d="M57332 37812
L56879 37812
" />
<path d="M57332 40687
L57332 37812
" />
<path d="M55167 40687
L55167 37812
" />
<path d="M57332 40762
L56879 40762
" />
<path d="M57332 43637
L57332 40762
" />
<path d="M55167 43637
L55167 40762
" />
<path d="M57332 43762
L56879 43762
" />
<path d="M57332 46637
L57332 43762
" />
<path d="M55167 46637
L55167 43762
" />
<path d="M55341 48912
L55341 49387
" />
<path d="M56058 48912
L56058 49387
" />
<path d="M55878 50672
L55720 50494
" />
<path d="M55720 50494
L56035 50494
" />
<path d="M56035 50494
L55878 50672
" />
<path d="M57905 52876
L57905 51774
" />
<path d="M57905 51774
L58024 51774
" />
<path d="M58024 51774
L58024 51164
" />
<path d="M54874 52876
L54874 51774
" />
<path d="M54756 51774
L54874 51774
" />
<path d="M54756 51774
L54756 51164
" />
<path d="M57826 40823
L57826 40300
" />
<path d="M58350 40823
L57826 40823
" />
<path d="M57826 39800
L57826 38776
" />
<path d="M58850 39800
L57826 39800
" />
<path d="M58850 40823
L58850 39800
" />
<path d="M57826 38776
L62873 38776
" />
<path d="M58850 40823
L62873 40823
" />
<path d="M62873 40823
L62873 38776
" />
<path d="M52916 46245
L52916 47210
" />
<path d="M54183 46954
L54183 46245
" />
<path d="M49916 46245
L49916 47210
" />
<path d="M51183 46954
L51183 46245
" />
<path d="M57950 46864
L57950 46735
" />
<path d="M57549 46864
L57549 46735
" />
<path d="M56949 49385
L56949 49514
" />
<path d="M57350 49385
L57350 49514
" />
<path d="M56299 49385
L56299 49514
" />
<path d="M56700 49385
L56700 49514
" />
<path d="M49600 46814
L49600 46685
" />
<path d="M49199 46814
L49199 46685
" />
<path d="M55050 47514
L55050 47385
" />
<path d="M54649 47514
L54649 47385
" />
<path d="M57100 48123
L57100 47995
" />
<path d="M56699 48123
L56699 47995
" />
</g>
<g style="fill:#000000; fill-opacity:0.0; 
stroke:#000000; stroke-width:393.701; stroke-opacity:1; 
stroke-linecap:round; stroke-linejoin:round;">
<circle cx="50350" cy="35050" r="1181.1" /> 
</g>
<g style="fill:#000000; fill-opacity:0.0; 
stroke:#000000; stroke-width:196.85; stroke-opacity:1; 
stroke-linecap:round; stroke-linejoin:round;">
<circle cx="50350" cy="35050" r="2061.55" /> 
</g>
<g style="fill:#000000; fill-opacity:0.0; 
stroke:#000000; stroke-width:393.701; stroke-opacity:1; 
stroke-linecap:round; stroke-linejoin:round;">
<circle cx="50350" cy="35050" r="2549.51" /> 
</g>
<g style="fill:#000000; fill-opacity:0.0; 
stroke:#000000; stroke-width:47.2441; stroke-opacity:1; 
stroke-linecap:round; stroke-linejoin:round;">
<path d="M54242 47885
L54242 50251
" />
<path d="M51557 48771
L51557 50251
" />
<path d="M54242 50251
L53746 50251
" />
<path d="M51557 50251
L52053 50251
" />
<path d="M51416 46245
L51416 47210
" />
<path d="M52683 46954
L52683 46245
" />
</g>
<g style="fill:#000000; fill-opacity:0.0; 
stroke:#000000; stroke-width:59.0551; stroke-opacity:1; 
stroke-linecap:round; stroke-linejoin:round;">
<path d="M58212 42288
L57710 42288
" />
<path d="M62287 42062
L62021 42062
" />
<path d="M62287 46137
L62021 46137
" />
<path d="M58212 46137
L58478 46137
" />
<path d="M58212 42062
L58478 42062
" />
<path d="M58212 46137
L58212 45871
" />
<path d="M62287 46137
L62287 45871
" />
<path d="M62287 42062
L62287 42328
" />
<path d="M58212 42062
L58212 42288
" />
</g>
<g style="fill:#000000; fill-opacity:0.0; 
stroke:#000000; stroke-width:47.2441; stroke-opacity:1; 
stroke-linecap:round; stroke-linejoin:round;">
<path d="M58659.1 47605.9 A994.094 994.094 0.0 0 0 58659.1 49594.1 " />
<path d="M61119.7 49594.1 A994.094 994.094 0.0 0 0 61119.7 47605.9 " />
<path d="M61119 47605
L58659 47605
" />
<path d="M61119 49594
L58659 49594
" />
</g>
<g style="fill:#000000; fill-opacity:0.0; 
stroke:#000000; stroke-width:78.7402; stroke-opacity:1; 
stroke-linecap:round; stroke-linejoin:round;">
<path d="M49779 38951
L49779 39463
" />
<path d="M48579 39601
L49720 39601
" />
<path d="M48579 39798
L48579 39601
" />
<path d="M49720 39798
L48579 39798
" />
<path d="M49720 39601
L49720 39798
" />
</g>
<g style="fill:#000000; fill-opacity:0.0; 
stroke:#000000; stroke-width:47.2441; stroke-opacity:1; 
stroke-linecap:round; stroke-linejoin:round;">
<circle cx="50100" cy="48600" r="275.591" /> 
</g>
<g style="fill:#000000; fill-opacity:0.0; 
stroke:#000000; stroke-width:100; stroke-opacity:1; 
stroke-linecap:round; stroke-linejoin:round;">
<path d="M53952 41379
L53976 41307
L53976 41188
L53952 41141
L53928 41117
L53880 41093
L53833 41093
L53785 41117
L53761 41141
L53738 41188
L53714 41284
L53690 41331
L53666 41355
L53619 41379
L53571 41379
L53523 41355
L53500 41331
L53476 41284
L53476 41165
L53500 41093
" />
<path d="M53976 40617
L53976 40903
" />
<path d="M53976 40760
L53476 40760
L53547 40807
L53595 40855
L53619 40903
" />
<path d="M51652 41429
L51676 41357
L51676 41238
L51652 41191
L51628 41167
L51580 41143
L51533 41143
L51485 41167
L51461 41191
L51438 41238
L51414 41334
L51390 41381
L51366 41405
L51319 41429
L51271 41429
L51223 41405
L51200 41381
L51176 41334
L51176 41215
L51200 41143
" />
<path d="M51223 40953
L51200 40929
L51176 40881
L51176 40762
L51200 40715
L51223 40691
L51271 40667
L51319 40667
L51390 40691
L51676 40976
L51676 40667
" />
</g>
<g style="fill:#000000; fill-opacity:0.0; 
stroke:#000000; stroke-width:59.0551; stroke-opacity:1; 
stroke-linecap:round; stroke-linejoin:round;">
<path d="M54684 50490
L54665 50509
L54609 50528
L54571 50528
L54515 50509
L54478 50471
L54459 50434
L54440 50359
L54440 50303
L54459 50228
L54478 50190
L54515 50153
L54571 50134
L54609 50134
L54665 50153
L54684 50171
" />
<path d="M55059 50528
L54834 50528
" />
<path d="M54946 50528
L54946 50134
L54909 50190
L54871 50228
L54834 50246
" />
<path d="M56534 47370
L56515 47389
L56459 47408
L56421 47408
L56365 47389
L56328 47351
L56309 47314
L56290 47239
L56290 47183
L56309 47108
L56328 47070
L56365 47033
L56421 47014
L56459 47014
L56515 47033
L56534 47051
" />
<path d="M56684 47051
L56703 47033
L56740 47014
L56834 47014
L56871 47033
L56890 47051
L56909 47089
L56909 47126
L56890 47183
L56665 47408
L56909 47408
" />
<path d="M50884 49710
L50865 49729
L50809 49748
L50771 49748
L50715 49729
L50678 49691
L50659 49654
L50640 49579
L50640 49523
L50659 49448
L50678 49410
L50715 49373
L50771 49354
L50809 49354
L50865 49373
L50884 49391
" />
<path d="M51015 49354
L51259 49354
L51128 49504
L51184 49504
L51221 49523
L51240 49541
L51259 49579
L51259 49673
L51240 49710
L51221 49729
L51184 49748
L51071 49748
L51034 49729
L51015 49710
" />
<path d="M51034 43690
L51015 43709
L50959 43728
L50921 43728
L50865 43709
L50828 43671
L50809 43634
L50790 43559
L50790 43503
L50809 43428
L50828 43390
L50865 43353
L50921 43334
L50959 43334
L51015 43353
L51034 43371
" />
<path d="M51371 43465
L51371 43728
" />
<path d="M51278 43315
L51184 43596
L51428 43596
" />
<path d="M62424 47300
L62405 47319
L62349 47338
L62311 47338
L62255 47319
L62218 47281
L62199 47244
L62180 47169
L62180 47113
L62199 47038
L62218 47000
L62255 46963
L62311 46944
L62349 46944
L62405 46963
L62424 46981
" />
<path d="M62780 46944
L62593 46944
L62574 47131
L62593 47113
L62630 47094
L62724 47094
L62761 47113
L62780 47131
L62799 47169
L62799 47263
L62780 47300
L62761 47319
L62724 47338
L62630 47338
L62593 47319
L62574 47300
" />
<path d="M59024 47920
L59005 47939
L58949 47958
L58911 47958
L58855 47939
L58818 47901
L58799 47864
L58780 47789
L58780 47733
L58799 47658
L58818 47620
L58855 47583
L58911 47564
L58949 47564
L59005 47583
L59024 47601
" />
<path d="M59361 47564
L59286 47564
L59249 47583
L59230 47601
L59193 47658
L59174 47733
L59174 47883
L59193 47920
L59211 47939
L59249 47958
L59324 47958
L59361 47939
L59380 47920
L59399 47883
L59399 47789
L59380 47751
L59361 47733
L59324 47714
L59249 47714
L59211 47733
L59193 47751
L59174 47789
" />
<path d="M63234 47060
L63215 47079
L63159 47098
L63121 47098
L63065 47079
L63028 47041
L63009 47004
L62990 46929
L62990 46873
L63009 46798
L63028 46760
L63065 46723
L63121 46704
L63159 46704
L63215 46723
L63234 46741
" />
<path d="M63365 46704
L63628 46704
L63459 47098
" />
<path d="M52074 43650
L52055 43669
L51999 43688
L51961 43688
L51905 43669
L51868 43631
L51849 43594
L51830 43519
L51830 43463
L51849 43388
L51868 43350
L51905 43313
L51961 43294
L51999 43294
L52055 43313
L52074 43331
" />
<path d="M52299 43463
L52261 43444
L52243 43425
L52224 43388
L52224 43369
L52243 43331
L52261 43313
L52299 43294
L52374 43294
L52411 43313
L52430 43331
L52449 43369
L52449 43388
L52430 43425
L52411 43444
L52374 43463
L52299 43463
L52261 43481
L52243 43500
L52224 43538
L52224 43613
L52243 43650
L52261 43669
L52299 43688
L52374 43688
L52411 43669
L52430 43650
L52449 43613
L52449 43538
L52430 43500
L52411 43481
L52374 43463
" />
<path d="M50234 43690
L50215 43709
L50159 43728
L50121 43728
L50065 43709
L50028 43671
L50009 43634
L49990 43559
L49990 43503
L50009 43428
L50028 43390
L50065 43353
L50121 43334
L50159 43334
L50215 43353
L50234 43371
" />
<path d="M50421 43728
L50496 43728
L50534 43709
L50553 43690
L50590 43634
L50609 43559
L50609 43409
L50590 43371
L50571 43353
L50534 43334
L50459 43334
L50421 43353
L50403 43371
L50384 43409
L50384 43503
L50403 43540
L50421 43559
L50459 43578
L50534 43578
L50571 43559
L50590 43540
L50609 43503
" />
<path d="M49096 43650
L49078 43669
L49021 43688
L48984 43688
L48928 43669
L48890 43631
L48871 43594
L48853 43519
L48853 43463
L48871 43388
L48890 43350
L48928 43313
L48984 43294
L49021 43294
L49078 43313
L49096 43331
" />
<path d="M49471 43688
L49246 43688
" />
<path d="M49359 43688
L49359 43294
L49321 43350
L49284 43388
L49246 43406
" />
<path d="M49715 43294
L49753 43294
L49790 43313
L49809 43331
L49828 43369
L49846 43444
L49846 43538
L49828 43613
L49809 43650
L49790 43669
L49753 43688
L49715 43688
L49678 43669
L49659 43650
L49640 43613
L49621 43538
L49621 43444
L49640 43369
L49659 43331
L49678 43313
L49715 43294
" />
<path d="M46726 39630
L46708 39649
L46651 39668
L46614 39668
L46558 39649
L46520 39611
L46501 39574
L46483 39499
L46483 39443
L46501 39368
L46520 39330
L46558 39293
L46614 39274
L46651 39274
L46708 39293
L46726 39311
" />
<path d="M47101 39668
L46876 39668
" />
<path d="M46989 39668
L46989 39274
L46951 39330
L46914 39368
L46876 39386
" />
<path d="M47476 39668
L47251 39668
" />
<path d="M47364 39668
L47364 39274
L47326 39330
L47289 39368
L47251 39386
" />
<path d="M49186 42600
L49168 42619
L49111 42638
L49074 42638
L49018 42619
L48980 42581
L48961 42544
L48943 42469
L48943 42413
L48961 42338
L48980 42300
L49018 42263
L49074 42244
L49111 42244
L49168 42263
L49186 42281
" />
<path d="M49561 42638
L49336 42638
" />
<path d="M49449 42638
L49449 42244
L49411 42300
L49374 42338
L49336 42356
" />
<path d="M49711 42281
L49730 42263
L49768 42244
L49861 42244
L49899 42263
L49918 42281
L49936 42319
L49936 42356
L49918 42413
L49693 42638
L49936 42638
" />
<path d="M54369 39658
L54369 39264
L54463 39264
L54519 39283
L54556 39320
L54575 39358
L54594 39433
L54594 39489
L54575 39564
L54556 39601
L54519 39639
L54463 39658
L54369 39658
" />
<path d="M54969 39658
L54744 39658
" />
<path d="M54856 39658
L54856 39264
L54819 39320
L54781 39358
L54744 39376
" />
<path d="M55798 40771
L55798 40996
" />
<path d="M55798 40883
L55404 40883
L55460 40921
L55498 40958
L55516 40996
" />
<path d="M54329 42268
L54329 41874
L54423 41874
L54479 41893
L54516 41930
L54535 41968
L54554 42043
L54554 42099
L54535 42174
L54516 42211
L54479 42249
L54423 42268
L54329 42268
" />
<path d="M54704 41911
L54723 41893
L54760 41874
L54854 41874
L54891 41893
L54910 41911
L54929 41949
L54929 41986
L54910 42043
L54685 42268
L54929 42268
" />
<path d="M55798 43721
L55798 43946
" />
<path d="M55798 43833
L55404 43833
L55460 43871
L55498 43908
L55516 43946
" />
<path d="M54199 45218
L54199 44824
L54293 44824
L54349 44843
L54386 44880
L54405 44918
L54424 44993
L54424 45049
L54405 45124
L54386 45161
L54349 45199
L54293 45218
L54199 45218
" />
<path d="M54555 44824
L54799 44824
L54668 44974
L54724 44974
L54761 44993
L54780 45011
L54799 45049
L54799 45143
L54780 45180
L54761 45199
L54724 45218
L54611 45218
L54574 45199
L54555 45180
" />
<path d="M55798 46721
L55798 46946
" />
<path d="M55798 46833
L55404 46833
L55460 46871
L55498 46908
L55516 46946
" />
<path d="M55568 50321
L55437 50321
" />
<path d="M55437 50528
L55437 50134
L55625 50134
" />
<path d="M55981 50528
L55756 50528
" />
<path d="M55868 50528
L55868 50134
L55831 50190
L55793 50228
L55756 50246
" />
<path d="M58268 51484
L58268 51765
L58250 51821
L58212 51859
L58156 51878
L58118 51878
" />
<path d="M58662 51878
L58437 51878
" />
<path d="M58549 51878
L58549 51484
L58512 51540
L58474 51578
L58437 51596
" />
<path d="M60278 37944
L60278 38225
L60260 38281
L60222 38319
L60166 38338
L60128 38338
" />
<path d="M60428 37944
L60672 37944
L60541 38094
L60597 38094
L60634 38113
L60653 38131
L60672 38169
L60672 38263
L60653 38300
L60634 38319
L60597 38338
L60484 38338
L60447 38319
L60428 38300
" />
<path d="M53462 45695
L53425 45676
L53387 45639
L53331 45583
L53293 45564
L53256 45564
" />
<path d="M53275 45658
L53237 45639
L53200 45601
L53181 45526
L53181 45395
L53200 45320
L53237 45283
L53275 45264
L53350 45264
L53387 45283
L53425 45320
L53443 45395
L53443 45526
L53425 45601
L53387 45639
L53350 45658
L53275 45658
" />
<path d="M53818 45658
L53593 45658
" />
<path d="M53706 45658
L53706 45264
L53668 45320
L53631 45358
L53593 45376
" />
<path d="M49982 45745
L49945 45726
L49907 45689
L49851 45633
L49813 45614
L49776 45614
" />
<path d="M49795 45708
L49757 45689
L49720 45651
L49701 45576
L49701 45445
L49720 45370
L49757 45333
L49795 45314
L49870 45314
L49907 45333
L49945 45370
L49963 45445
L49963 45576
L49945 45651
L49907 45689
L49870 45708
L49795 45708
" />
<path d="M50113 45351
L50132 45333
L50169 45314
L50263 45314
L50301 45333
L50319 45351
L50338 45389
L50338 45426
L50319 45483
L50094 45708
L50338 45708
" />
<path d="M57244 46088
L57113 45900
" />
<path d="M57019 46088
L57019 45694
L57169 45694
L57206 45713
L57225 45731
L57244 45769
L57244 45825
L57225 45863
L57206 45881
L57169 45900
L57019 45900
" />
<path d="M57619 46088
L57394 46088
" />
<path d="M57506 46088
L57506 45694
L57469 45750
L57431 45788
L57394 45806
" />
<path d="M57084 50528
L56953 50340
" />
<path d="M56859 50528
L56859 50134
L57009 50134
L57046 50153
L57065 50171
L57084 50209
L57084 50265
L57065 50303
L57046 50321
L57009 50340
L56859 50340
" />
<path d="M57234 50171
L57253 50153
L57290 50134
L57384 50134
L57421 50153
L57440 50171
L57459 50209
L57459 50246
L57440 50303
L57215 50528
L57459 50528
" />
<path d="M56384 50528
L56253 50340
" />
<path d="M56159 50528
L56159 50134
L56309 50134
L56346 50153
L56365 50171
L56384 50209
L56384 50265
L56365 50303
L56346 50321
L56309 50340
L56159 50340
" />
<path d="M56515 50134
L56759 50134
L56628 50284
L56684 50284
L56721 50303
L56740 50321
L56759 50359
L56759 50453
L56740 50490
L56721 50509
L56684 50528
L56571 50528
L56534 50509
L56515 50490
" />
<path d="M49334 45978
L49203 45790
" />
<path d="M49109 45978
L49109 45584
L49259 45584
L49296 45603
L49315 45621
L49334 45659
L49334 45715
L49315 45753
L49296 45771
L49259 45790
L49109 45790
" />
<path d="M49671 45715
L49671 45978
" />
<path d="M49578 45565
L49484 45846
L49728 45846
" />
<path d="M54794 46588
L54663 46400
" />
<path d="M54569 46588
L54569 46194
L54719 46194
L54756 46213
L54775 46231
L54794 46269
L54794 46325
L54775 46363
L54756 46381
L54719 46400
L54569 46400
" />
<path d="M55150 46194
L54963 46194
L54944 46381
L54963 46363
L55000 46344
L55094 46344
L55131 46363
L55150 46381
L55169 46419
L55169 46513
L55150 46550
L55131 46569
L55094 46588
L55000 46588
L54963 46569
L54944 46550
" />
<path d="M56184 48227
L56053 48040
" />
<path d="M55959 48227
L55959 47834
L56109 47834
L56146 47852
L56165 47871
L56184 47909
L56184 47965
L56165 48002
L56146 48021
L56109 48040
L55959 48040
" />
<path d="M56521 47834
L56446 47834
L56409 47852
L56390 47871
L56353 47927
L56334 48002
L56334 48152
L56353 48190
L56371 48209
L56409 48227
L56484 48227
L56521 48209
L56540 48190
L56559 48152
L56559 48059
L56540 48021
L56521 48002
L56484 47984
L56409 47984
L56371 48002
L56353 48021
L56334 48059
" />
<path d="M49928 35021
L49796 35021
" />
<path d="M49796 35228
L49796 34834
L49984 34834
" />
<path d="M50134 35228
L50134 34965
" />
<path d="M50134 35040
L50153 35003
L50171 34984
L50209 34965
L50246 34965
" />
<path d="M50434 35228
L50396 35209
L50378 35190
L50359 35153
L50359 35040
L50378 35003
L50396 34984
L50434 34965
L50490 34965
L50528 34984
L50546 35003
L50565 35040
L50565 35153
L50546 35190
L50528 35209
L50490 35228
L50434 35228
" />
<path d="M50903 34965
L50903 35284
L50884 35321
L50865 35340
L50828 35359
L50771 35359
L50734 35340
" />
<path d="M50903 35209
L50865 35228
L50790 35228
L50753 35209
L50734 35190
L50715 35153
L50715 35040
L50734 35003
L50753 34984
L50790 34965
L50865 34965
L50903 34984
" />
<path d="M50730 49634
L50730 49953
L50748 49990
L50767 50009
L50805 50028
L50880 50028
L50917 50009
L50936 49990
L50955 49953
L50955 49634
" />
<path d="M51348 50028
L51123 50028
" />
<path d="M51236 50028
L51236 49634
L51198 49690
L51161 49728
L51123 49746
" />
<path d="M51730 45344
L51730 45663
L51748 45700
L51767 45719
L51805 45738
L51880 45738
L51917 45719
L51936 45700
L51955 45663
L51955 45344
" />
<path d="M52123 45381
L52142 45363
L52179 45344
L52273 45344
L52311 45363
L52329 45381
L52348 45419
L52348 45456
L52329 45513
L52104 45738
L52348 45738
" />
<path d="M63180 43524
L63180 43843
L63198 43880
L63217 43899
L63255 43918
L63330 43918
L63367 43899
L63386 43880
L63405 43843
L63405 43524
" />
<path d="M63554 43524
L63798 43524
L63667 43674
L63723 43674
L63761 43693
L63779 43711
L63798 43749
L63798 43843
L63779 43880
L63761 43899
L63723 43918
L63611 43918
L63573 43899
L63554 43880
" />
<path d="M59701 49978
L59701 50165
" />
<path d="M59570 49772
L59701 49978
L59833 49772
" />
<path d="M60170 50165
L59945 50165
" />
<path d="M60058 50165
L60058 49772
L60020 49828
L59983 49865
L59945 49884
" />
</g>
<g style="fill:#000000; fill-opacity:0.0; 
stroke:#000000; stroke-width:100; stroke-opacity:1; 
stroke-linecap:round; stroke-linejoin:round;">
<path d="M50041 38766
L50041 38266
" />
<path d="M50565 38718
L50541 38742
L50470 38766
L50422 38766
L50351 38742
L50303 38694
L50280 38647
L50256 38551
L50256 38480
L50280 38385
L50303 38337
L50351 38290
L50422 38266
L50470 38266
L50541 38290
L50565 38313
" />
<path d="M51041 38766
L50756 38766
" />
<path d="M50899 38766
L50899 38266
L50851 38337
L50803 38385
L50756 38409
" />
</g>
<g style="fill:#000000; fill-opacity:0.0; 
stroke:#000000; stroke-width:59.0551; stroke-opacity:1; 
stroke-linecap:round; stroke-linejoin:round;">
<path d="M50018 49034
L50018 49315
L50000 49371
L49962 49409
L49906 49428
L49868 49428
" />
<path d="M50187 49071
L50206 49053
L50243 49034
L50337 49034
L50374 49053
L50393 49071
L50412 49109
L50412 49146
L50393 49203
L50168 49428
L50412 49428
" />
</g> 
</svg>
