  0
SECTION
  2
HEADER
  9
$ANGBASE
  50
0.0
  9
$ANGDIR
  70
  1
  9
$MEASUREMENT
  70
0
  0
ENDSEC
  0
SECTION
  2
TABLES
  0
TABLE
  2
LTYPE
  70
4
  0
LTYPE
  5
40F
  2
CONTINUOUS
  70
0
  3
Solid line
  72
65
  73
0
  40
0.0
  0
LTYPE
  5
410
  2
DASHDOT
 70
0
  3
Dash Dot ____ _ ____ _
 72
65
 73
4
 40
2.0
 49
1.25
 49
-0.25
 49
0.25
 49
-0.25
  0
LTYPE
  5
411
  2
DASHED
 70
0
  3
Dashed __ __ __ __ __
 72
65
 73
2
 40
0.75
 49
0.5
 49
-0.25
  0
LTYPE
  5
43B
  2
DOTTED
 70
0
  3
Dotted .  .  .  .
 72
65
 73
2
 40
0.2
 49
0.0
 49
-0.2
  0
ENDTAB
  0
TABLE
  2
STYLE
  70
4
  0
STYLE
  2
KICAD
  70
0
  40
0
  41
1
  42
1
  50
0
  71
0
  3
isocp.shx
  0
STYLE
  2
KICADB
  70
0
  40
0
  41
1
  42
1
  50
0
  71
0
  3
isocp.shx
  0
STYLE
  2
KICADI
  70
0
  40
0
  41
1
  42
1
  50
15
  71
0
  3
isocp.shx
  0
STYLE
  2
KICADBI
  70
0
  40
0
  41
1
  42
1
  50
15
  71
0
  3
isocp.shx
  0
ENDTAB
  0
TABLE
  2
LAYER
  70
30
  0
LAYER
  2
BLACK
  70
0
  62
7
  6
CONTINUOUS
  0
LAYER
  2
GRAY1
  70
0
  62
251
  6
CONTINUOUS
  0
LAYER
  2
GRAY2
  70
0
  62
8
  6
CONTINUOUS
  0
LAYER
  2
GRAY3
  70
0
  62
9
  6
CONTINUOUS
  0
LAYER
  2
WHITE
  70
0
  62
7
  6
CONTINUOUS
  0
LAYER
  2
LYELLOW
  70
0
  62
51
  6
CONTINUOUS
  0
LAYER
  2
BLUE1
  70
0
  62
178
  6
CONTINUOUS
  0
LAYER
  2
GREEN1
  70
0
  62
98
  6
CONTINUOUS
  0
LAYER
  2
CYAN1
  70
0
  62
138
  6
CONTINUOUS
  0
LAYER
  2
RED1
  70
0
  62
18
  6
CONTINUOUS
  0
LAYER
  2
MAGENTA1
  70
0
  62
228
  6
CONTINUOUS
  0
LAYER
  2
BROWN1
  70
0
  62
58
  6
CONTINUOUS
  0
LAYER
  2
BLUE2
  70
0
  62
5
  6
CONTINUOUS
  0
LAYER
  2
GREEN2
  70
0
  62
3
  6
CONTINUOUS
  0
LAYER
  2
CYAN2
  70
0
  62
4
  6
CONTINUOUS
  0
LAYER
  2
RED2
  70
0
  62
1
  6
CONTINUOUS
  0
LAYER
  2
MAGENTA2
  70
0
  62
6
  6
CONTINUOUS
  0
LAYER
  2
BROWN2
  70
0
  62
54
  6
CONTINUOUS
  0
LAYER
  2
BLUE3
  70
0
  62
171
  6
CONTINUOUS
  0
LAYER
  2
GREEN3
  70
0
  62
91
  6
CONTINUOUS
  0
LAYER
  2
CYAN3
  70
0
  62
131
  6
CONTINUOUS
  0
LAYER
  2
RED3
  70
0
  62
11
  6
CONTINUOUS
  0
LAYER
  2
MAGENTA3
  70
0
  62
221
  6
CONTINUOUS
  0
LAYER
  2
YELLOW3
  70
0
  62
2
  6
CONTINUOUS
  0
LAYER
  2
BLUE4
  70
0
  62
5
  6
CONTINUOUS
  0
LAYER
  2
GREEN4
  70
0
  62
3
  6
CONTINUOUS
  0
LAYER
  2
CYAN4
  70
0
  62
4
  6
CONTINUOUS
  0
LAYER
  2
RED4
  70
0
  62
1
  6
CONTINUOUS
  0
LAYER
  2
MAGENTA4
  70
0
  62
6
  6
CONTINUOUS
  0
LAYER
  2
YELLOW4
  70
0
  62
2
  6
CONTINUOUS
  0
ENDTAB
  0
ENDSEC
  0
SECTION
  2
ENTITIES
0
LINE
8
BLACK
6
CONTINUOUS
10
177.002
20
-166.007
11
177.002
21
-198.007
0
LINE
8
BLACK
6
CONTINUOUS
10
177.002
20
-198.007
11
285.002
21
-198.007
0
LINE
8
BLACK
6
CONTINUOUS
10
285.002
20
-198.007
11
285.002
21
-166.007
0
LINE
8
BLACK
6
CONTINUOUS
10
285.002
20
-166.007
11
177.002
21
-166.007
0
LINE
8
BLACK
6
CONTINUOUS
10
10
20
-10
11
10
21
-200.007
0
LINE
8
BLACK
6
CONTINUOUS
10
10
20
-200.007
11
287.002
21
-200.007
0
LINE
8
BLACK
6
CONTINUOUS
10
287.002
20
-200.007
11
287.002
21
-10
0
LINE
8
BLACK
6
CONTINUOUS
10
287.002
20
-10
11
10
21
-10
0
LINE
8
BLACK
6
CONTINUOUS
10
12
20
-12
11
12
21
-198.007
0
LINE
8
BLACK
6
CONTINUOUS
10
12
20
-198.007
11
285.002
21
-198.007
0
LINE
8
BLACK
6
CONTINUOUS
10
285.002
20
-198.007
11
285.002
21
-12
0
LINE
8
BLACK
6
CONTINUOUS
10
285.002
20
-12
11
12
21
-12
0
LINE
8
BLACK
6
CONTINUOUS
10
60
20
-12
11
60
21
-10
0
LINE
8
BLACK
6
CONTINUOUS
10
110
20
-12
11
110
21
-10
0
LINE
8
BLACK
6
CONTINUOUS
10
160
20
-12
11
160
21
-10
0
LINE
8
BLACK
6
CONTINUOUS
10
210
20
-12
11
210
21
-10
0
LINE
8
BLACK
6
CONTINUOUS
10
260
20
-12
11
260
21
-10
0
LINE
8
BLACK
6
CONTINUOUS
10
36.0655
20
-11.5881
11
35.3226
21
-11.5881
0
LINE
8
BLACK
6
CONTINUOUS
10
35.694
20
-11.5881
11
35.694
21
-10.2881
0
LINE
8
BLACK
6
CONTINUOUS
10
35.694
20
-10.2881
11
35.5702
21
-10.4738
0
LINE
8
BLACK
6
CONTINUOUS
10
35.5702
20
-10.4738
11
35.4464
21
-10.5976
0
LINE
8
BLACK
6
CONTINUOUS
10
35.4464
20
-10.5976
11
35.3226
21
-10.6595
0
LINE
8
BLACK
6
CONTINUOUS
10
85.3226
20
-10.4119
11
85.3845
21
-10.35
0
LINE
8
BLACK
6
CONTINUOUS
10
85.3845
20
-10.35
11
85.5083
21
-10.2881
0
LINE
8
BLACK
6
CONTINUOUS
10
85.5083
20
-10.2881
11
85.8179
21
-10.2881
0
LINE
8
BLACK
6
CONTINUOUS
10
85.8179
20
-10.2881
11
85.9417
21
-10.35
0
LINE
8
BLACK
6
CONTINUOUS
10
85.9417
20
-10.35
11
86.0036
21
-10.4119
0
LINE
8
BLACK
6
CONTINUOUS
10
86.0036
20
-10.4119
11
86.0655
21
-10.5357
0
LINE
8
BLACK
6
CONTINUOUS
10
86.0655
20
-10.5357
11
86.0655
21
-10.6595
0
LINE
8
BLACK
6
CONTINUOUS
10
86.0655
20
-10.6595
11
86.0036
21
-10.8452
0
LINE
8
BLACK
6
CONTINUOUS
10
86.0036
20
-10.8452
11
85.2607
21
-11.5881
0
LINE
8
BLACK
6
CONTINUOUS
10
85.2607
20
-11.5881
11
86.0655
21
-11.5881
0
LINE
8
BLACK
6
CONTINUOUS
10
135.261
20
-10.2881
11
136.065
21
-10.2881
0
LINE
8
BLACK
6
CONTINUOUS
10
136.065
20
-10.2881
11
135.632
21
-10.7833
0
LINE
8
BLACK
6
CONTINUOUS
10
135.632
20
-10.7833
11
135.818
21
-10.7833
0
LINE
8
BLACK
6
CONTINUOUS
10
135.818
20
-10.7833
11
135.942
21
-10.8452
0
LINE
8
BLACK
6
CONTINUOUS
10
135.942
20
-10.8452
11
136.004
21
-10.9071
0
LINE
8
BLACK
6
CONTINUOUS
10
136.004
20
-10.9071
11
136.065
21
-11.031
0
LINE
8
BLACK
6
CONTINUOUS
10
136.065
20
-11.031
11
136.065
21
-11.3405
0
LINE
8
BLACK
6
CONTINUOUS
10
136.065
20
-11.3405
11
136.004
21
-11.4643
0
LINE
8
BLACK
6
CONTINUOUS
10
136.004
20
-11.4643
11
135.942
21
-11.5262
0
LINE
8
BLACK
6
CONTINUOUS
10
135.942
20
-11.5262
11
135.818
21
-11.5881
0
LINE
8
BLACK
6
CONTINUOUS
10
135.818
20
-11.5881
11
135.446
21
-11.5881
0
LINE
8
BLACK
6
CONTINUOUS
10
135.446
20
-11.5881
11
135.323
21
-11.5262
0
LINE
8
BLACK
6
CONTINUOUS
10
135.323
20
-11.5262
11
135.261
21
-11.4643
0
LINE
8
BLACK
6
CONTINUOUS
10
185.942
20
-10.7214
11
185.942
21
-11.5881
0
LINE
8
BLACK
6
CONTINUOUS
10
185.632
20
-10.2262
11
185.323
21
-11.1548
0
LINE
8
BLACK
6
CONTINUOUS
10
185.323
20
-11.1548
11
186.127
21
-11.1548
0
LINE
8
BLACK
6
CONTINUOUS
10
236.004
20
-10.2881
11
235.385
21
-10.2881
0
LINE
8
BLACK
6
CONTINUOUS
10
235.385
20
-10.2881
11
235.323
21
-10.9071
0
LINE
8
BLACK
6
CONTINUOUS
10
235.323
20
-10.9071
11
235.385
21
-10.8452
0
LINE
8
BLACK
6
CONTINUOUS
10
235.385
20
-10.8452
11
235.508
21
-10.7833
0
LINE
8
BLACK
6
CONTINUOUS
10
235.508
20
-10.7833
11
235.818
21
-10.7833
0
LINE
8
BLACK
6
CONTINUOUS
10
235.818
20
-10.7833
11
235.942
21
-10.8452
0
LINE
8
BLACK
6
CONTINUOUS
10
235.942
20
-10.8452
11
236.004
21
-10.9071
0
LINE
8
BLACK
6
CONTINUOUS
10
236.004
20
-10.9071
11
236.065
21
-11.031
0
LINE
8
BLACK
6
CONTINUOUS
10
236.065
20
-11.031
11
236.065
21
-11.3405
0
LINE
8
BLACK
6
CONTINUOUS
10
236.065
20
-11.3405
11
236.004
21
-11.4643
0
LINE
8
BLACK
6
CONTINUOUS
10
236.004
20
-11.4643
11
235.942
21
-11.5262
0
LINE
8
BLACK
6
CONTINUOUS
10
235.942
20
-11.5262
11
235.818
21
-11.5881
0
LINE
8
BLACK
6
CONTINUOUS
10
235.818
20
-11.5881
11
235.508
21
-11.5881
0
LINE
8
BLACK
6
CONTINUOUS
10
235.508
20
-11.5881
11
235.385
21
-11.5262
0
LINE
8
BLACK
6
CONTINUOUS
10
235.385
20
-11.5262
11
235.323
21
-11.4643
0
LINE
8
BLACK
6
CONTINUOUS
10
285.942
20
-10.2881
11
285.694
21
-10.2881
0
LINE
8
BLACK
6
CONTINUOUS
10
285.694
20
-10.2881
11
285.57
21
-10.35
0
LINE
8
BLACK
6
CONTINUOUS
10
285.57
20
-10.35
11
285.508
21
-10.4119
0
LINE
8
BLACK
6
CONTINUOUS
10
285.508
20
-10.4119
11
285.385
21
-10.5976
0
LINE
8
BLACK
6
CONTINUOUS
10
285.385
20
-10.5976
11
285.323
21
-10.8452
0
LINE
8
BLACK
6
CONTINUOUS
10
285.323
20
-10.8452
11
285.323
21
-11.3405
0
LINE
8
BLACK
6
CONTINUOUS
10
285.323
20
-11.3405
11
285.385
21
-11.4643
0
LINE
8
BLACK
6
CONTINUOUS
10
285.385
20
-11.4643
11
285.446
21
-11.5262
0
LINE
8
BLACK
6
CONTINUOUS
10
285.446
20
-11.5262
11
285.57
21
-11.5881
0
LINE
8
BLACK
6
CONTINUOUS
10
285.57
20
-11.5881
11
285.818
21
-11.5881
0
LINE
8
BLACK
6
CONTINUOUS
10
285.818
20
-11.5881
11
285.942
21
-11.5262
0
LINE
8
BLACK
6
CONTINUOUS
10
285.942
20
-11.5262
11
286.004
21
-11.4643
0
LINE
8
BLACK
6
CONTINUOUS
10
286.004
20
-11.4643
11
286.065
21
-11.3405
0
LINE
8
BLACK
6
CONTINUOUS
10
286.065
20
-11.3405
11
286.065
21
-11.031
0
LINE
8
BLACK
6
CONTINUOUS
10
286.065
20
-11.031
11
286.004
21
-10.9071
0
LINE
8
BLACK
6
CONTINUOUS
10
286.004
20
-10.9071
11
285.942
21
-10.8452
0
LINE
8
BLACK
6
CONTINUOUS
10
285.942
20
-10.8452
11
285.818
21
-10.7833
0
LINE
8
BLACK
6
CONTINUOUS
10
285.818
20
-10.7833
11
285.57
21
-10.7833
0
LINE
8
BLACK
6
CONTINUOUS
10
285.57
20
-10.7833
11
285.446
21
-10.8452
0
LINE
8
BLACK
6
CONTINUOUS
10
285.446
20
-10.8452
11
285.385
21
-10.9071
0
LINE
8
BLACK
6
CONTINUOUS
10
285.385
20
-10.9071
11
285.323
21
-11.031
0
LINE
8
BLACK
6
CONTINUOUS
10
60
20
-198.007
11
60
21
-200.007
0
LINE
8
BLACK
6
CONTINUOUS
10
110
20
-198.007
11
110
21
-200.007
0
LINE
8
BLACK
6
CONTINUOUS
10
160
20
-198.007
11
160
21
-200.007
0
LINE
8
BLACK
6
CONTINUOUS
10
210
20
-198.007
11
210
21
-200.007
0
LINE
8
BLACK
6
CONTINUOUS
10
260
20
-198.007
11
260
21
-200.007
0
LINE
8
BLACK
6
CONTINUOUS
10
36.0655
20
-199.595
11
35.3226
21
-199.595
0
LINE
8
BLACK
6
CONTINUOUS
10
35.694
20
-199.595
11
35.694
21
-198.295
0
LINE
8
BLACK
6
CONTINUOUS
10
35.694
20
-198.295
11
35.5702
21
-198.481
0
LINE
8
BLACK
6
CONTINUOUS
10
35.5702
20
-198.481
11
35.4464
21
-198.605
0
LINE
8
BLACK
6
CONTINUOUS
10
35.4464
20
-198.605
11
35.3226
21
-198.667
0
LINE
8
BLACK
6
CONTINUOUS
10
85.3226
20
-198.419
11
85.3845
21
-198.357
0
LINE
8
BLACK
6
CONTINUOUS
10
85.3845
20
-198.357
11
85.5083
21
-198.295
0
LINE
8
BLACK
6
CONTINUOUS
10
85.5083
20
-198.295
11
85.8179
21
-198.295
0
LINE
8
BLACK
6
CONTINUOUS
10
85.8179
20
-198.295
11
85.9417
21
-198.357
0
LINE
8
BLACK
6
CONTINUOUS
10
85.9417
20
-198.357
11
86.0036
21
-198.419
0
LINE
8
BLACK
6
CONTINUOUS
10
86.0036
20
-198.419
11
86.0655
21
-198.543
0
LINE
8
BLACK
6
CONTINUOUS
10
86.0655
20
-198.543
11
86.0655
21
-198.667
0
LINE
8
BLACK
6
CONTINUOUS
10
86.0655
20
-198.667
11
86.0036
21
-198.852
0
LINE
8
BLACK
6
CONTINUOUS
10
86.0036
20
-198.852
11
85.2607
21
-199.595
0
LINE
8
BLACK
6
CONTINUOUS
10
85.2607
20
-199.595
11
86.0655
21
-199.595
0
LINE
8
BLACK
6
CONTINUOUS
10
135.261
20
-198.295
11
136.065
21
-198.295
0
LINE
8
BLACK
6
CONTINUOUS
10
136.065
20
-198.295
11
135.632
21
-198.791
0
LINE
8
BLACK
6
CONTINUOUS
10
135.632
20
-198.791
11
135.818
21
-198.791
0
LINE
8
BLACK
6
CONTINUOUS
10
135.818
20
-198.791
11
135.942
21
-198.852
0
LINE
8
BLACK
6
CONTINUOUS
10
135.942
20
-198.852
11
136.004
21
-198.914
0
LINE
8
BLACK
6
CONTINUOUS
10
136.004
20
-198.914
11
136.065
21
-199.038
0
LINE
8
BLACK
6
CONTINUOUS
10
136.065
20
-199.038
11
136.065
21
-199.348
0
LINE
8
BLACK
6
CONTINUOUS
10
136.065
20
-199.348
11
136.004
21
-199.471
0
LINE
8
BLACK
6
CONTINUOUS
10
136.004
20
-199.471
11
135.942
21
-199.533
0
LINE
8
BLACK
6
CONTINUOUS
10
135.942
20
-199.533
11
135.818
21
-199.595
0
LINE
8
BLACK
6
CONTINUOUS
10
135.818
20
-199.595
11
135.446
21
-199.595
0
LINE
8
BLACK
6
CONTINUOUS
10
135.446
20
-199.595
11
135.323
21
-199.533
0
LINE
8
BLACK
6
CONTINUOUS
10
135.323
20
-199.533
11
135.261
21
-199.471
0
LINE
8
BLACK
6
CONTINUOUS
10
185.942
20
-198.729
11
185.942
21
-199.595
0
LINE
8
BLACK
6
CONTINUOUS
10
185.632
20
-198.233
11
185.323
21
-199.162
0
LINE
8
BLACK
6
CONTINUOUS
10
185.323
20
-199.162
11
186.127
21
-199.162
0
LINE
8
BLACK
6
CONTINUOUS
10
236.004
20
-198.295
11
235.385
21
-198.295
0
LINE
8
BLACK
6
CONTINUOUS
10
235.385
20
-198.295
11
235.323
21
-198.914
0
LINE
8
BLACK
6
CONTINUOUS
10
235.323
20
-198.914
11
235.385
21
-198.852
0
LINE
8
BLACK
6
CONTINUOUS
10
235.385
20
-198.852
11
235.508
21
-198.791
0
LINE
8
BLACK
6
CONTINUOUS
10
235.508
20
-198.791
11
235.818
21
-198.791
0
LINE
8
BLACK
6
CONTINUOUS
10
235.818
20
-198.791
11
235.942
21
-198.852
0
LINE
8
BLACK
6
CONTINUOUS
10
235.942
20
-198.852
11
236.004
21
-198.914
0
LINE
8
BLACK
6
CONTINUOUS
10
236.004
20
-198.914
11
236.065
21
-199.038
0
LINE
8
BLACK
6
CONTINUOUS
10
236.065
20
-199.038
11
236.065
21
-199.348
0
LINE
8
BLACK
6
CONTINUOUS
10
236.065
20
-199.348
11
236.004
21
-199.471
0
LINE
8
BLACK
6
CONTINUOUS
10
236.004
20
-199.471
11
235.942
21
-199.533
0
LINE
8
BLACK
6
CONTINUOUS
10
235.942
20
-199.533
11
235.818
21
-199.595
0
LINE
8
BLACK
6
CONTINUOUS
10
235.818
20
-199.595
11
235.508
21
-199.595
0
LINE
8
BLACK
6
CONTINUOUS
10
235.508
20
-199.595
11
235.385
21
-199.533
0
LINE
8
BLACK
6
CONTINUOUS
10
235.385
20
-199.533
11
235.323
21
-199.471
0
LINE
8
BLACK
6
CONTINUOUS
10
285.942
20
-198.295
11
285.694
21
-198.295
0
LINE
8
BLACK
6
CONTINUOUS
10
285.694
20
-198.295
11
285.57
21
-198.357
0
LINE
8
BLACK
6
CONTINUOUS
10
285.57
20
-198.357
11
285.508
21
-198.419
0
LINE
8
BLACK
6
CONTINUOUS
10
285.508
20
-198.419
11
285.385
21
-198.605
0
LINE
8
BLACK
6
CONTINUOUS
10
285.385
20
-198.605
11
285.323
21
-198.852
0
LINE
8
BLACK
6
CONTINUOUS
10
285.323
20
-198.852
11
285.323
21
-199.348
0
LINE
8
BLACK
6
CONTINUOUS
10
285.323
20
-199.348
11
285.385
21
-199.471
0
LINE
8
BLACK
6
CONTINUOUS
10
285.385
20
-199.471
11
285.446
21
-199.533
0
LINE
8
BLACK
6
CONTINUOUS
10
285.446
20
-199.533
11
285.57
21
-199.595
0
LINE
8
BLACK
6
CONTINUOUS
10
285.57
20
-199.595
11
285.818
21
-199.595
0
LINE
8
BLACK
6
CONTINUOUS
10
285.818
20
-199.595
11
285.942
21
-199.533
0
LINE
8
BLACK
6
CONTINUOUS
10
285.942
20
-199.533
11
286.004
21
-199.471
0
LINE
8
BLACK
6
CONTINUOUS
10
286.004
20
-199.471
11
286.065
21
-199.348
0
LINE
8
BLACK
6
CONTINUOUS
10
286.065
20
-199.348
11
286.065
21
-199.038
0
LINE
8
BLACK
6
CONTINUOUS
10
286.065
20
-199.038
11
286.004
21
-198.914
0
LINE
8
BLACK
6
CONTINUOUS
10
286.004
20
-198.914
11
285.942
21
-198.852
0
LINE
8
BLACK
6
CONTINUOUS
10
285.942
20
-198.852
11
285.818
21
-198.791
0
LINE
8
BLACK
6
CONTINUOUS
10
285.818
20
-198.791
11
285.57
21
-198.791
0
LINE
8
BLACK
6
CONTINUOUS
10
285.57
20
-198.791
11
285.446
21
-198.852
0
LINE
8
BLACK
6
CONTINUOUS
10
285.446
20
-198.852
11
285.385
21
-198.914
0
LINE
8
BLACK
6
CONTINUOUS
10
285.385
20
-198.914
11
285.323
21
-199.038
0
LINE
8
BLACK
6
CONTINUOUS
10
10
20
-60
11
12
21
-60
0
LINE
8
BLACK
6
CONTINUOUS
10
10
20
-110
11
12
21
-110
0
LINE
8
BLACK
6
CONTINUOUS
10
10
20
-160
11
12
21
-160
0
LINE
8
BLACK
6
CONTINUOUS
10
10.6905
20
-35.2167
11
11.3095
21
-35.2167
0
LINE
8
BLACK
6
CONTINUOUS
10
10.5667
20
-35.5881
11
11
21
-34.2881
0
LINE
8
BLACK
6
CONTINUOUS
10
11
20
-34.2881
11
11.4333
21
-35.5881
0
LINE
8
BLACK
6
CONTINUOUS
10
11.0929
20
-84.9071
11
11.2786
21
-84.969
0
LINE
8
BLACK
6
CONTINUOUS
10
11.2786
20
-84.969
11
11.3405
21
-85.031
0
LINE
8
BLACK
6
CONTINUOUS
10
11.3405
20
-85.031
11
11.4024
21
-85.1548
0
LINE
8
BLACK
6
CONTINUOUS
10
11.4024
20
-85.1548
11
11.4024
21
-85.3405
0
LINE
8
BLACK
6
CONTINUOUS
10
11.4024
20
-85.3405
11
11.3405
21
-85.4643
0
LINE
8
BLACK
6
CONTINUOUS
10
11.3405
20
-85.4643
11
11.2786
21
-85.5262
0
LINE
8
BLACK
6
CONTINUOUS
10
11.2786
20
-85.5262
11
11.1548
21
-85.5881
0
LINE
8
BLACK
6
CONTINUOUS
10
11.1548
20
-85.5881
11
10.6595
21
-85.5881
0
LINE
8
BLACK
6
CONTINUOUS
10
10.6595
20
-85.5881
11
10.6595
21
-84.2881
0
LINE
8
BLACK
6
CONTINUOUS
10
10.6595
20
-84.2881
11
11.0929
21
-84.2881
0
LINE
8
BLACK
6
CONTINUOUS
10
11.0929
20
-84.2881
11
11.2167
21
-84.35
0
LINE
8
BLACK
6
CONTINUOUS
10
11.2167
20
-84.35
11
11.2786
21
-84.4119
0
LINE
8
BLACK
6
CONTINUOUS
10
11.2786
20
-84.4119
11
11.3405
21
-84.5357
0
LINE
8
BLACK
6
CONTINUOUS
10
11.3405
20
-84.5357
11
11.3405
21
-84.6595
0
LINE
8
BLACK
6
CONTINUOUS
10
11.3405
20
-84.6595
11
11.2786
21
-84.7833
0
LINE
8
BLACK
6
CONTINUOUS
10
11.2786
20
-84.7833
11
11.2167
21
-84.8452
0
LINE
8
BLACK
6
CONTINUOUS
10
11.2167
20
-84.8452
11
11.0929
21
-84.9071
0
LINE
8
BLACK
6
CONTINUOUS
10
11.0929
20
-84.9071
11
10.6595
21
-84.9071
0
LINE
8
BLACK
6
CONTINUOUS
10
11.4024
20
-135.464
11
11.3405
21
-135.526
0
LINE
8
BLACK
6
CONTINUOUS
10
11.3405
20
-135.526
11
11.1548
21
-135.588
0
LINE
8
BLACK
6
CONTINUOUS
10
11.1548
20
-135.588
11
11.031
21
-135.588
0
LINE
8
BLACK
6
CONTINUOUS
10
11.031
20
-135.588
11
10.8452
21
-135.526
0
LINE
8
BLACK
6
CONTINUOUS
10
10.8452
20
-135.526
11
10.7214
21
-135.402
0
LINE
8
BLACK
6
CONTINUOUS
10
10.7214
20
-135.402
11
10.6595
21
-135.279
0
LINE
8
BLACK
6
CONTINUOUS
10
10.6595
20
-135.279
11
10.5976
21
-135.031
0
LINE
8
BLACK
6
CONTINUOUS
10
10.5976
20
-135.031
11
10.5976
21
-134.845
0
LINE
8
BLACK
6
CONTINUOUS
10
10.5976
20
-134.845
11
10.6595
21
-134.598
0
LINE
8
BLACK
6
CONTINUOUS
10
10.6595
20
-134.598
11
10.7214
21
-134.474
0
LINE
8
BLACK
6
CONTINUOUS
10
10.7214
20
-134.474
11
10.8452
21
-134.35
0
LINE
8
BLACK
6
CONTINUOUS
10
10.8452
20
-134.35
11
11.031
21
-134.288
0
LINE
8
BLACK
6
CONTINUOUS
10
11.031
20
-134.288
11
11.1548
21
-134.288
0
LINE
8
BLACK
6
CONTINUOUS
10
11.1548
20
-134.288
11
11.3405
21
-134.35
0
LINE
8
BLACK
6
CONTINUOUS
10
11.3405
20
-134.35
11
11.4024
21
-134.412
0
LINE
8
BLACK
6
CONTINUOUS
10
10.6595
20
-185.588
11
10.6595
21
-184.288
0
LINE
8
BLACK
6
CONTINUOUS
10
10.6595
20
-184.288
11
10.969
21
-184.288
0
LINE
8
BLACK
6
CONTINUOUS
10
10.969
20
-184.288
11
11.1548
21
-184.35
0
LINE
8
BLACK
6
CONTINUOUS
10
11.1548
20
-184.35
11
11.2786
21
-184.474
0
LINE
8
BLACK
6
CONTINUOUS
10
11.2786
20
-184.474
11
11.3405
21
-184.598
0
LINE
8
BLACK
6
CONTINUOUS
10
11.3405
20
-184.598
11
11.4024
21
-184.845
0
LINE
8
BLACK
6
CONTINUOUS
10
11.4024
20
-184.845
11
11.4024
21
-185.031
0
LINE
8
BLACK
6
CONTINUOUS
10
11.4024
20
-185.031
11
11.3405
21
-185.279
0
LINE
8
BLACK
6
CONTINUOUS
10
11.3405
20
-185.279
11
11.2786
21
-185.402
0
LINE
8
BLACK
6
CONTINUOUS
10
11.2786
20
-185.402
11
11.1548
21
-185.526
0
LINE
8
BLACK
6
CONTINUOUS
10
11.1548
20
-185.526
11
10.969
21
-185.588
0
LINE
8
BLACK
6
CONTINUOUS
10
10.969
20
-185.588
11
10.6595
21
-185.588
0
LINE
8
BLACK
6
CONTINUOUS
10
287.002
20
-60
11
285.002
21
-60
0
LINE
8
BLACK
6
CONTINUOUS
10
287.002
20
-110
11
285.002
21
-110
0
LINE
8
BLACK
6
CONTINUOUS
10
287.002
20
-160
11
285.002
21
-160
0
LINE
8
BLACK
6
CONTINUOUS
10
285.693
20
-35.2167
11
286.312
21
-35.2167
0
LINE
8
BLACK
6
CONTINUOUS
10
285.569
20
-35.5881
11
286.002
21
-34.2881
0
LINE
8
BLACK
6
CONTINUOUS
10
286.002
20
-34.2881
11
286.436
21
-35.5881
0
LINE
8
BLACK
6
CONTINUOUS
10
286.095
20
-84.9071
11
286.281
21
-84.969
0
LINE
8
BLACK
6
CONTINUOUS
10
286.281
20
-84.969
11
286.343
21
-85.031
0
LINE
8
BLACK
6
CONTINUOUS
10
286.343
20
-85.031
11
286.405
21
-85.1548
0
LINE
8
BLACK
6
CONTINUOUS
10
286.405
20
-85.1548
11
286.405
21
-85.3405
0
LINE
8
BLACK
6
CONTINUOUS
10
286.405
20
-85.3405
11
286.343
21
-85.4643
0
LINE
8
BLACK
6
CONTINUOUS
10
286.343
20
-85.4643
11
286.281
21
-85.5262
0
LINE
8
BLACK
6
CONTINUOUS
10
286.281
20
-85.5262
11
286.157
21
-85.5881
0
LINE
8
BLACK
6
CONTINUOUS
10
286.157
20
-85.5881
11
285.662
21
-85.5881
0
LINE
8
BLACK
6
CONTINUOUS
10
285.662
20
-85.5881
11
285.662
21
-84.2881
0
LINE
8
BLACK
6
CONTINUOUS
10
285.662
20
-84.2881
11
286.095
21
-84.2881
0
LINE
8
BLACK
6
CONTINUOUS
10
286.095
20
-84.2881
11
286.219
21
-84.35
0
LINE
8
BLACK
6
CONTINUOUS
10
286.219
20
-84.35
11
286.281
21
-84.4119
0
LINE
8
BLACK
6
CONTINUOUS
10
286.281
20
-84.4119
11
286.343
21
-84.5357
0
LINE
8
BLACK
6
CONTINUOUS
10
286.343
20
-84.5357
11
286.343
21
-84.6595
0
LINE
8
BLACK
6
CONTINUOUS
10
286.343
20
-84.6595
11
286.281
21
-84.7833
0
LINE
8
BLACK
6
CONTINUOUS
10
286.281
20
-84.7833
11
286.219
21
-84.8452
0
LINE
8
BLACK
6
CONTINUOUS
10
286.219
20
-84.8452
11
286.095
21
-84.9071
0
LINE
8
BLACK
6
CONTINUOUS
10
286.095
20
-84.9071
11
285.662
21
-84.9071
0
LINE
8
BLACK
6
CONTINUOUS
10
286.405
20
-135.464
11
286.343
21
-135.526
0
LINE
8
BLACK
6
CONTINUOUS
10
286.343
20
-135.526
11
286.157
21
-135.588
0
LINE
8
BLACK
6
CONTINUOUS
10
286.157
20
-135.588
11
286.033
21
-135.588
0
LINE
8
BLACK
6
CONTINUOUS
10
286.033
20
-135.588
11
285.847
21
-135.526
0
LINE
8
BLACK
6
CONTINUOUS
10
285.847
20
-135.526
11
285.724
21
-135.402
0
LINE
8
BLACK
6
CONTINUOUS
10
285.724
20
-135.402
11
285.662
21
-135.279
0
LINE
8
BLACK
6
CONTINUOUS
10
285.662
20
-135.279
11
285.6
21
-135.031
0
LINE
8
BLACK
6
CONTINUOUS
10
285.6
20
-135.031
11
285.6
21
-134.845
0
LINE
8
BLACK
6
CONTINUOUS
10
285.6
20
-134.845
11
285.662
21
-134.598
0
LINE
8
BLACK
6
CONTINUOUS
10
285.662
20
-134.598
11
285.724
21
-134.474
0
LINE
8
BLACK
6
CONTINUOUS
10
285.724
20
-134.474
11
285.847
21
-134.35
0
LINE
8
BLACK
6
CONTINUOUS
10
285.847
20
-134.35
11
286.033
21
-134.288
0
LINE
8
BLACK
6
CONTINUOUS
10
286.033
20
-134.288
11
286.157
21
-134.288
0
LINE
8
BLACK
6
CONTINUOUS
10
286.157
20
-134.288
11
286.343
21
-134.35
0
LINE
8
BLACK
6
CONTINUOUS
10
286.343
20
-134.35
11
286.405
21
-134.412
0
LINE
8
BLACK
6
CONTINUOUS
10
285.662
20
-185.588
11
285.662
21
-184.288
0
LINE
8
BLACK
6
CONTINUOUS
10
285.662
20
-184.288
11
285.971
21
-184.288
0
LINE
8
BLACK
6
CONTINUOUS
10
285.971
20
-184.288
11
286.157
21
-184.35
0
LINE
8
BLACK
6
CONTINUOUS
10
286.157
20
-184.35
11
286.281
21
-184.474
0
LINE
8
BLACK
6
CONTINUOUS
10
286.281
20
-184.474
11
286.343
21
-184.598
0
LINE
8
BLACK
6
CONTINUOUS
10
286.343
20
-184.598
11
286.405
21
-184.845
0
LINE
8
BLACK
6
CONTINUOUS
10
286.405
20
-184.845
11
286.405
21
-185.031
0
LINE
8
BLACK
6
CONTINUOUS
10
286.405
20
-185.031
11
286.343
21
-185.279
0
LINE
8
BLACK
6
CONTINUOUS
10
286.343
20
-185.279
11
286.281
21
-185.402
0
LINE
8
BLACK
6
CONTINUOUS
10
286.281
20
-185.402
11
286.157
21
-185.526
0
LINE
8
BLACK
6
CONTINUOUS
10
286.157
20
-185.526
11
285.971
21
-185.588
0
LINE
8
BLACK
6
CONTINUOUS
10
285.971
20
-185.588
11
285.662
21
-185.588
0
LINE
8
BLACK
6
CONTINUOUS
10
200.434
20
-193.786
11
200.434
21
-192.286
0
LINE
8
BLACK
6
CONTINUOUS
10
200.434
20
-192.286
11
200.791
21
-192.286
0
LINE
8
BLACK
6
CONTINUOUS
10
200.791
20
-192.286
11
201.006
21
-192.357
0
LINE
8
BLACK
6
CONTINUOUS
10
201.006
20
-192.357
11
201.149
21
-192.5
0
LINE
8
BLACK
6
CONTINUOUS
10
201.149
20
-192.5
11
201.22
21
-192.643
0
LINE
8
BLACK
6
CONTINUOUS
10
201.22
20
-192.643
11
201.291
21
-192.929
0
LINE
8
BLACK
6
CONTINUOUS
10
201.291
20
-192.929
11
201.291
21
-193.143
0
LINE
8
BLACK
6
CONTINUOUS
10
201.291
20
-193.143
11
201.22
21
-193.429
0
LINE
8
BLACK
6
CONTINUOUS
10
201.22
20
-193.429
11
201.149
21
-193.571
0
LINE
8
BLACK
6
CONTINUOUS
10
201.149
20
-193.571
11
201.006
21
-193.714
0
LINE
8
BLACK
6
CONTINUOUS
10
201.006
20
-193.714
11
200.791
21
-193.786
0
LINE
8
BLACK
6
CONTINUOUS
10
200.791
20
-193.786
11
200.434
21
-193.786
0
LINE
8
BLACK
6
CONTINUOUS
10
202.577
20
-193.786
11
202.577
21
-193
0
LINE
8
BLACK
6
CONTINUOUS
10
202.577
20
-193
11
202.506
21
-192.857
0
LINE
8
BLACK
6
CONTINUOUS
10
202.506
20
-192.857
11
202.363
21
-192.786
0
LINE
8
BLACK
6
CONTINUOUS
10
202.363
20
-192.786
11
202.077
21
-192.786
0
LINE
8
BLACK
6
CONTINUOUS
10
202.077
20
-192.786
11
201.934
21
-192.857
0
LINE
8
BLACK
6
CONTINUOUS
10
202.577
20
-193.714
11
202.434
21
-193.786
0
LINE
8
BLACK
6
CONTINUOUS
10
202.434
20
-193.786
11
202.077
21
-193.786
0
LINE
8
BLACK
6
CONTINUOUS
10
202.077
20
-193.786
11
201.934
21
-193.714
0
LINE
8
BLACK
6
CONTINUOUS
10
201.934
20
-193.714
11
201.863
21
-193.571
0
LINE
8
BLACK
6
CONTINUOUS
10
201.863
20
-193.571
11
201.863
21
-193.429
0
LINE
8
BLACK
6
CONTINUOUS
10
201.863
20
-193.429
11
201.934
21
-193.286
0
LINE
8
BLACK
6
CONTINUOUS
10
201.934
20
-193.286
11
202.077
21
-193.214
0
LINE
8
BLACK
6
CONTINUOUS
10
202.077
20
-193.214
11
202.434
21
-193.214
0
LINE
8
BLACK
6
CONTINUOUS
10
202.434
20
-193.214
11
202.577
21
-193.143
0
LINE
8
BLACK
6
CONTINUOUS
10
203.077
20
-192.786
11
203.649
21
-192.786
0
LINE
8
BLACK
6
CONTINUOUS
10
203.291
20
-192.286
11
203.291
21
-193.571
0
LINE
8
BLACK
6
CONTINUOUS
10
203.291
20
-193.571
11
203.363
21
-193.714
0
LINE
8
BLACK
6
CONTINUOUS
10
203.363
20
-193.714
11
203.506
21
-193.786
0
LINE
8
BLACK
6
CONTINUOUS
10
203.506
20
-193.786
11
203.649
21
-193.786
0
LINE
8
BLACK
6
CONTINUOUS
10
204.72
20
-193.714
11
204.577
21
-193.786
0
LINE
8
BLACK
6
CONTINUOUS
10
204.577
20
-193.786
11
204.291
21
-193.786
0
LINE
8
BLACK
6
CONTINUOUS
10
204.291
20
-193.786
11
204.149
21
-193.714
0
LINE
8
BLACK
6
CONTINUOUS
10
204.149
20
-193.714
11
204.077
21
-193.571
0
LINE
8
BLACK
6
CONTINUOUS
10
204.077
20
-193.571
11
204.077
21
-193
0
LINE
8
BLACK
6
CONTINUOUS
10
204.077
20
-193
11
204.149
21
-192.857
0
LINE
8
BLACK
6
CONTINUOUS
10
204.149
20
-192.857
11
204.291
21
-192.786
0
LINE
8
BLACK
6
CONTINUOUS
10
204.291
20
-192.786
11
204.577
21
-192.786
0
LINE
8
BLACK
6
CONTINUOUS
10
204.577
20
-192.786
11
204.72
21
-192.857
0
LINE
8
BLACK
6
CONTINUOUS
10
204.72
20
-192.857
11
204.791
21
-193
0
LINE
8
BLACK
6
CONTINUOUS
10
204.791
20
-193
11
204.791
21
-193.143
0
LINE
8
BLACK
6
CONTINUOUS
10
204.791
20
-193.143
11
204.077
21
-193.286
0
LINE
8
BLACK
6
CONTINUOUS
10
205.434
20
-193.643
11
205.506
21
-193.714
0
LINE
8
BLACK
6
CONTINUOUS
10
205.506
20
-193.714
11
205.434
21
-193.786
0
LINE
8
BLACK
6
CONTINUOUS
10
205.434
20
-193.786
11
205.363
21
-193.714
0
LINE
8
BLACK
6
CONTINUOUS
10
205.363
20
-193.714
11
205.434
21
-193.643
0
LINE
8
BLACK
6
CONTINUOUS
10
205.434
20
-193.643
11
205.434
21
-193.786
0
LINE
8
BLACK
6
CONTINUOUS
10
205.434
20
-192.857
11
205.506
21
-192.929
0
LINE
8
BLACK
6
CONTINUOUS
10
205.506
20
-192.929
11
205.434
21
-193
0
LINE
8
BLACK
6
CONTINUOUS
10
205.434
20
-193
11
205.363
21
-192.929
0
LINE
8
BLACK
6
CONTINUOUS
10
205.363
20
-192.929
11
205.434
21
-192.857
0
LINE
8
BLACK
6
CONTINUOUS
10
205.434
20
-192.857
11
205.434
21
-193
0
LINE
8
BLACK
6
CONTINUOUS
10
177.002
20
-194.507
11
285.002
21
-194.507
0
LINE
8
BLACK
6
CONTINUOUS
10
178.434
20
-196.586
11
178.434
21
-195.086
0
LINE
8
BLACK
6
CONTINUOUS
10
179.291
20
-196.586
11
178.649
21
-195.729
0
LINE
8
BLACK
6
CONTINUOUS
10
179.291
20
-195.086
11
178.434
21
-195.943
0
LINE
8
BLACK
6
CONTINUOUS
10
179.934
20
-196.586
11
179.934
21
-195.586
0
LINE
8
BLACK
6
CONTINUOUS
10
179.934
20
-195.086
11
179.863
21
-195.157
0
LINE
8
BLACK
6
CONTINUOUS
10
179.863
20
-195.157
11
179.934
21
-195.229
0
LINE
8
BLACK
6
CONTINUOUS
10
179.934
20
-195.229
11
180.006
21
-195.157
0
LINE
8
BLACK
6
CONTINUOUS
10
180.006
20
-195.157
11
179.934
21
-195.086
0
LINE
8
BLACK
6
CONTINUOUS
10
179.934
20
-195.086
11
179.934
21
-195.229
0
LINE
8
BLACK
6
CONTINUOUS
10
181.506
20
-196.443
11
181.434
21
-196.514
0
LINE
8
BLACK
6
CONTINUOUS
10
181.434
20
-196.514
11
181.22
21
-196.586
0
LINE
8
BLACK
6
CONTINUOUS
10
181.22
20
-196.586
11
181.077
21
-196.586
0
LINE
8
BLACK
6
CONTINUOUS
10
181.077
20
-196.586
11
180.863
21
-196.514
0
LINE
8
BLACK
6
CONTINUOUS
10
180.863
20
-196.514
11
180.72
21
-196.371
0
LINE
8
BLACK
6
CONTINUOUS
10
180.72
20
-196.371
11
180.649
21
-196.229
0
LINE
8
BLACK
6
CONTINUOUS
10
180.649
20
-196.229
11
180.577
21
-195.943
0
LINE
8
BLACK
6
CONTINUOUS
10
180.577
20
-195.943
11
180.577
21
-195.729
0
LINE
8
BLACK
6
CONTINUOUS
10
180.577
20
-195.729
11
180.649
21
-195.443
0
LINE
8
BLACK
6
CONTINUOUS
10
180.649
20
-195.443
11
180.72
21
-195.3
0
LINE
8
BLACK
6
CONTINUOUS
10
180.72
20
-195.3
11
180.863
21
-195.157
0
LINE
8
BLACK
6
CONTINUOUS
10
180.863
20
-195.157
11
181.077
21
-195.086
0
LINE
8
BLACK
6
CONTINUOUS
10
181.077
20
-195.086
11
181.22
21
-195.086
0
LINE
8
BLACK
6
CONTINUOUS
10
181.22
20
-195.086
11
181.434
21
-195.157
0
LINE
8
BLACK
6
CONTINUOUS
10
181.434
20
-195.157
11
181.506
21
-195.229
0
LINE
8
BLACK
6
CONTINUOUS
10
182.791
20
-196.586
11
182.791
21
-195.8
0
LINE
8
BLACK
6
CONTINUOUS
10
182.791
20
-195.8
11
182.72
21
-195.657
0
LINE
8
BLACK
6
CONTINUOUS
10
182.72
20
-195.657
11
182.577
21
-195.586
0
LINE
8
BLACK
6
CONTINUOUS
10
182.577
20
-195.586
11
182.291
21
-195.586
0
LINE
8
BLACK
6
CONTINUOUS
10
182.291
20
-195.586
11
182.149
21
-195.657
0
LINE
8
BLACK
6
CONTINUOUS
10
182.791
20
-196.514
11
182.649
21
-196.586
0
LINE
8
BLACK
6
CONTINUOUS
10
182.649
20
-196.586
11
182.291
21
-196.586
0
LINE
8
BLACK
6
CONTINUOUS
10
182.291
20
-196.586
11
182.149
21
-196.514
0
LINE
8
BLACK
6
CONTINUOUS
10
182.149
20
-196.514
11
182.077
21
-196.371
0
LINE
8
BLACK
6
CONTINUOUS
10
182.077
20
-196.371
11
182.077
21
-196.229
0
LINE
8
BLACK
6
CONTINUOUS
10
182.077
20
-196.229
11
182.149
21
-196.086
0
LINE
8
BLACK
6
CONTINUOUS
10
182.149
20
-196.086
11
182.291
21
-196.014
0
LINE
8
BLACK
6
CONTINUOUS
10
182.291
20
-196.014
11
182.649
21
-196.014
0
LINE
8
BLACK
6
CONTINUOUS
10
182.649
20
-196.014
11
182.791
21
-195.943
0
LINE
8
BLACK
6
CONTINUOUS
10
184.149
20
-196.586
11
184.149
21
-195.086
0
LINE
8
BLACK
6
CONTINUOUS
10
184.149
20
-196.514
11
184.006
21
-196.586
0
LINE
8
BLACK
6
CONTINUOUS
10
184.006
20
-196.586
11
183.72
21
-196.586
0
LINE
8
BLACK
6
CONTINUOUS
10
183.72
20
-196.586
11
183.577
21
-196.514
0
LINE
8
BLACK
6
CONTINUOUS
10
183.577
20
-196.514
11
183.506
21
-196.443
0
LINE
8
BLACK
6
CONTINUOUS
10
183.506
20
-196.443
11
183.434
21
-196.3
0
LINE
8
BLACK
6
CONTINUOUS
10
183.434
20
-196.3
11
183.434
21
-195.871
0
LINE
8
BLACK
6
CONTINUOUS
10
183.434
20
-195.871
11
183.506
21
-195.729
0
LINE
8
BLACK
6
CONTINUOUS
10
183.506
20
-195.729
11
183.577
21
-195.657
0
LINE
8
BLACK
6
CONTINUOUS
10
183.577
20
-195.657
11
183.72
21
-195.586
0
LINE
8
BLACK
6
CONTINUOUS
10
183.72
20
-195.586
11
184.006
21
-195.586
0
LINE
8
BLACK
6
CONTINUOUS
10
184.006
20
-195.586
11
184.149
21
-195.657
0
LINE
8
BLACK
6
CONTINUOUS
10
186.006
20
-195.8
11
186.506
21
-195.8
0
LINE
8
BLACK
6
CONTINUOUS
10
186.72
20
-196.586
11
186.006
21
-196.586
0
LINE
8
BLACK
6
CONTINUOUS
10
186.006
20
-196.586
11
186.006
21
-195.086
0
LINE
8
BLACK
6
CONTINUOUS
10
186.006
20
-195.086
11
186.72
21
-195.086
0
LINE
8
BLACK
6
CONTINUOUS
10
187.363
20
-196.443
11
187.434
21
-196.514
0
LINE
8
BLACK
6
CONTINUOUS
10
187.434
20
-196.514
11
187.363
21
-196.586
0
LINE
8
BLACK
6
CONTINUOUS
10
187.363
20
-196.586
11
187.291
21
-196.514
0
LINE
8
BLACK
6
CONTINUOUS
10
187.291
20
-196.514
11
187.363
21
-196.443
0
LINE
8
BLACK
6
CONTINUOUS
10
187.363
20
-196.443
11
187.363
21
-196.586
0
LINE
8
BLACK
6
CONTINUOUS
10
188.077
20
-196.586
11
188.077
21
-195.086
0
LINE
8
BLACK
6
CONTINUOUS
10
188.077
20
-195.086
11
188.434
21
-195.086
0
LINE
8
BLACK
6
CONTINUOUS
10
188.434
20
-195.086
11
188.649
21
-195.157
0
LINE
8
BLACK
6
CONTINUOUS
10
188.649
20
-195.157
11
188.791
21
-195.3
0
LINE
8
BLACK
6
CONTINUOUS
10
188.791
20
-195.3
11
188.863
21
-195.443
0
LINE
8
BLACK
6
CONTINUOUS
10
188.863
20
-195.443
11
188.934
21
-195.729
0
LINE
8
BLACK
6
CONTINUOUS
10
188.934
20
-195.729
11
188.934
21
-195.943
0
LINE
8
BLACK
6
CONTINUOUS
10
188.934
20
-195.943
11
188.863
21
-196.229
0
LINE
8
BLACK
6
CONTINUOUS
10
188.863
20
-196.229
11
188.791
21
-196.371
0
LINE
8
BLACK
6
CONTINUOUS
10
188.791
20
-196.371
11
188.649
21
-196.514
0
LINE
8
BLACK
6
CONTINUOUS
10
188.649
20
-196.514
11
188.434
21
-196.586
0
LINE
8
BLACK
6
CONTINUOUS
10
188.434
20
-196.586
11
188.077
21
-196.586
0
LINE
8
BLACK
6
CONTINUOUS
10
189.577
20
-196.443
11
189.649
21
-196.514
0
LINE
8
BLACK
6
CONTINUOUS
10
189.649
20
-196.514
11
189.577
21
-196.586
0
LINE
8
BLACK
6
CONTINUOUS
10
189.577
20
-196.586
11
189.506
21
-196.514
0
LINE
8
BLACK
6
CONTINUOUS
10
189.506
20
-196.514
11
189.577
21
-196.443
0
LINE
8
BLACK
6
CONTINUOUS
10
189.577
20
-196.443
11
189.577
21
-196.586
0
LINE
8
BLACK
6
CONTINUOUS
10
190.22
20
-196.157
11
190.934
21
-196.157
0
LINE
8
BLACK
6
CONTINUOUS
10
190.077
20
-196.586
11
190.577
21
-195.086
0
LINE
8
BLACK
6
CONTINUOUS
10
190.577
20
-195.086
11
191.077
21
-196.586
0
LINE
8
BLACK
6
CONTINUOUS
10
191.577
20
-196.443
11
191.649
21
-196.514
0
LINE
8
BLACK
6
CONTINUOUS
10
191.649
20
-196.514
11
191.577
21
-196.586
0
LINE
8
BLACK
6
CONTINUOUS
10
191.577
20
-196.586
11
191.506
21
-196.514
0
LINE
8
BLACK
6
CONTINUOUS
10
191.506
20
-196.514
11
191.577
21
-196.443
0
LINE
8
BLACK
6
CONTINUOUS
10
191.577
20
-196.443
11
191.577
21
-196.586
0
LINE
8
BLACK
6
CONTINUOUS
10
194.577
20
-196.586
11
194.577
21
-195.086
0
LINE
8
BLACK
6
CONTINUOUS
10
194.72
20
-196.014
11
195.149
21
-196.586
0
LINE
8
BLACK
6
CONTINUOUS
10
195.149
20
-195.586
11
194.577
21
-196.157
0
LINE
8
BLACK
6
CONTINUOUS
10
195.791
20
-196.586
11
195.791
21
-195.586
0
LINE
8
BLACK
6
CONTINUOUS
10
195.791
20
-195.086
11
195.72
21
-195.157
0
LINE
8
BLACK
6
CONTINUOUS
10
195.72
20
-195.157
11
195.791
21
-195.229
0
LINE
8
BLACK
6
CONTINUOUS
10
195.791
20
-195.229
11
195.863
21
-195.157
0
LINE
8
BLACK
6
CONTINUOUS
10
195.863
20
-195.157
11
195.791
21
-195.086
0
LINE
8
BLACK
6
CONTINUOUS
10
195.791
20
-195.086
11
195.791
21
-195.229
0
LINE
8
BLACK
6
CONTINUOUS
10
197.149
20
-196.514
11
197.006
21
-196.586
0
LINE
8
BLACK
6
CONTINUOUS
10
197.006
20
-196.586
11
196.72
21
-196.586
0
LINE
8
BLACK
6
CONTINUOUS
10
196.72
20
-196.586
11
196.577
21
-196.514
0
LINE
8
BLACK
6
CONTINUOUS
10
196.577
20
-196.514
11
196.506
21
-196.443
0
LINE
8
BLACK
6
CONTINUOUS
10
196.506
20
-196.443
11
196.434
21
-196.3
0
LINE
8
BLACK
6
CONTINUOUS
10
196.434
20
-196.3
11
196.434
21
-195.871
0
LINE
8
BLACK
6
CONTINUOUS
10
196.434
20
-195.871
11
196.506
21
-195.729
0
LINE
8
BLACK
6
CONTINUOUS
10
196.506
20
-195.729
11
196.577
21
-195.657
0
LINE
8
BLACK
6
CONTINUOUS
10
196.577
20
-195.657
11
196.72
21
-195.586
0
LINE
8
BLACK
6
CONTINUOUS
10
196.72
20
-195.586
11
197.006
21
-195.586
0
LINE
8
BLACK
6
CONTINUOUS
10
197.006
20
-195.586
11
197.149
21
-195.657
0
LINE
8
BLACK
6
CONTINUOUS
10
198.434
20
-196.586
11
198.434
21
-195.8
0
LINE
8
BLACK
6
CONTINUOUS
10
198.434
20
-195.8
11
198.363
21
-195.657
0
LINE
8
BLACK
6
CONTINUOUS
10
198.363
20
-195.657
11
198.22
21
-195.586
0
LINE
8
BLACK
6
CONTINUOUS
10
198.22
20
-195.586
11
197.934
21
-195.586
0
LINE
8
BLACK
6
CONTINUOUS
10
197.934
20
-195.586
11
197.791
21
-195.657
0
LINE
8
BLACK
6
CONTINUOUS
10
198.434
20
-196.514
11
198.291
21
-196.586
0
LINE
8
BLACK
6
CONTINUOUS
10
198.291
20
-196.586
11
197.934
21
-196.586
0
LINE
8
BLACK
6
CONTINUOUS
10
197.934
20
-196.586
11
197.791
21
-196.514
0
LINE
8
BLACK
6
CONTINUOUS
10
197.791
20
-196.514
11
197.72
21
-196.371
0
LINE
8
BLACK
6
CONTINUOUS
10
197.72
20
-196.371
11
197.72
21
-196.229
0
LINE
8
BLACK
6
CONTINUOUS
10
197.72
20
-196.229
11
197.791
21
-196.086
0
LINE
8
BLACK
6
CONTINUOUS
10
197.791
20
-196.086
11
197.934
21
-196.014
0
LINE
8
BLACK
6
CONTINUOUS
10
197.934
20
-196.014
11
198.291
21
-196.014
0
LINE
8
BLACK
6
CONTINUOUS
10
198.291
20
-196.014
11
198.434
21
-195.943
0
LINE
8
BLACK
6
CONTINUOUS
10
199.791
20
-196.586
11
199.791
21
-195.086
0
LINE
8
BLACK
6
CONTINUOUS
10
199.791
20
-196.514
11
199.649
21
-196.586
0
LINE
8
BLACK
6
CONTINUOUS
10
199.649
20
-196.586
11
199.363
21
-196.586
0
LINE
8
BLACK
6
CONTINUOUS
10
199.363
20
-196.586
11
199.22
21
-196.514
0
LINE
8
BLACK
6
CONTINUOUS
10
199.22
20
-196.514
11
199.149
21
-196.443
0
LINE
8
BLACK
6
CONTINUOUS
10
199.149
20
-196.443
11
199.077
21
-196.3
0
LINE
8
BLACK
6
CONTINUOUS
10
199.077
20
-196.3
11
199.077
21
-195.871
0
LINE
8
BLACK
6
CONTINUOUS
10
199.077
20
-195.871
11
199.149
21
-195.729
0
LINE
8
BLACK
6
CONTINUOUS
10
199.149
20
-195.729
11
199.22
21
-195.657
0
LINE
8
BLACK
6
CONTINUOUS
10
199.22
20
-195.657
11
199.363
21
-195.586
0
LINE
8
BLACK
6
CONTINUOUS
10
199.363
20
-195.586
11
199.649
21
-195.586
0
LINE
8
BLACK
6
CONTINUOUS
10
199.649
20
-195.586
11
199.791
21
-195.657
0
LINE
8
BLACK
6
CONTINUOUS
10
202.077
20
-197.157
11
202.006
21
-197.086
0
LINE
8
BLACK
6
CONTINUOUS
10
202.006
20
-197.086
11
201.863
21
-196.871
0
LINE
8
BLACK
6
CONTINUOUS
10
201.863
20
-196.871
11
201.791
21
-196.729
0
LINE
8
BLACK
6
CONTINUOUS
10
201.791
20
-196.729
11
201.72
21
-196.514
0
LINE
8
BLACK
6
CONTINUOUS
10
201.72
20
-196.514
11
201.649
21
-196.157
0
LINE
8
BLACK
6
CONTINUOUS
10
201.649
20
-196.157
11
201.649
21
-195.871
0
LINE
8
BLACK
6
CONTINUOUS
10
201.649
20
-195.871
11
201.72
21
-195.514
0
LINE
8
BLACK
6
CONTINUOUS
10
201.72
20
-195.514
11
201.791
21
-195.3
0
LINE
8
BLACK
6
CONTINUOUS
10
201.791
20
-195.3
11
201.863
21
-195.157
0
LINE
8
BLACK
6
CONTINUOUS
10
201.863
20
-195.157
11
202.006
21
-194.943
0
LINE
8
BLACK
6
CONTINUOUS
10
202.006
20
-194.943
11
202.077
21
-194.871
0
LINE
8
BLACK
6
CONTINUOUS
10
203.363
20
-195.086
11
202.649
21
-195.086
0
LINE
8
BLACK
6
CONTINUOUS
10
202.649
20
-195.086
11
202.577
21
-195.8
0
LINE
8
BLACK
6
CONTINUOUS
10
202.577
20
-195.8
11
202.649
21
-195.729
0
LINE
8
BLACK
6
CONTINUOUS
10
202.649
20
-195.729
11
202.791
21
-195.657
0
LINE
8
BLACK
6
CONTINUOUS
10
202.791
20
-195.657
11
203.149
21
-195.657
0
LINE
8
BLACK
6
CONTINUOUS
10
203.149
20
-195.657
11
203.291
21
-195.729
0
LINE
8
BLACK
6
CONTINUOUS
10
203.291
20
-195.729
11
203.363
21
-195.8
0
LINE
8
BLACK
6
CONTINUOUS
10
203.363
20
-195.8
11
203.434
21
-195.943
0
LINE
8
BLACK
6
CONTINUOUS
10
203.434
20
-195.943
11
203.434
21
-196.3
0
LINE
8
BLACK
6
CONTINUOUS
10
203.434
20
-196.3
11
203.363
21
-196.443
0
LINE
8
BLACK
6
CONTINUOUS
10
203.363
20
-196.443
11
203.291
21
-196.514
0
LINE
8
BLACK
6
CONTINUOUS
10
203.291
20
-196.514
11
203.149
21
-196.586
0
LINE
8
BLACK
6
CONTINUOUS
10
203.149
20
-196.586
11
202.791
21
-196.586
0
LINE
8
BLACK
6
CONTINUOUS
10
202.791
20
-196.586
11
202.649
21
-196.514
0
LINE
8
BLACK
6
CONTINUOUS
10
202.649
20
-196.514
11
202.577
21
-196.443
0
LINE
8
BLACK
6
CONTINUOUS
10
204.077
20
-196.443
11
204.149
21
-196.514
0
LINE
8
BLACK
6
CONTINUOUS
10
204.149
20
-196.514
11
204.077
21
-196.586
0
LINE
8
BLACK
6
CONTINUOUS
10
204.077
20
-196.586
11
204.006
21
-196.514
0
LINE
8
BLACK
6
CONTINUOUS
10
204.006
20
-196.514
11
204.077
21
-196.443
0
LINE
8
BLACK
6
CONTINUOUS
10
204.077
20
-196.443
11
204.077
21
-196.586
0
LINE
8
BLACK
6
CONTINUOUS
10
205.077
20
-195.086
11
205.22
21
-195.086
0
LINE
8
BLACK
6
CONTINUOUS
10
205.22
20
-195.086
11
205.363
21
-195.157
0
LINE
8
BLACK
6
CONTINUOUS
10
205.363
20
-195.157
11
205.434
21
-195.229
0
LINE
8
BLACK
6
CONTINUOUS
10
205.434
20
-195.229
11
205.506
21
-195.371
0
LINE
8
BLACK
6
CONTINUOUS
10
205.506
20
-195.371
11
205.577
21
-195.657
0
LINE
8
BLACK
6
CONTINUOUS
10
205.577
20
-195.657
11
205.577
21
-196.014
0
LINE
8
BLACK
6
CONTINUOUS
10
205.577
20
-196.014
11
205.506
21
-196.3
0
LINE
8
BLACK
6
CONTINUOUS
10
205.506
20
-196.3
11
205.434
21
-196.443
0
LINE
8
BLACK
6
CONTINUOUS
10
205.434
20
-196.443
11
205.363
21
-196.514
0
LINE
8
BLACK
6
CONTINUOUS
10
205.363
20
-196.514
11
205.22
21
-196.586
0
LINE
8
BLACK
6
CONTINUOUS
10
205.22
20
-196.586
11
205.077
21
-196.586
0
LINE
8
BLACK
6
CONTINUOUS
10
205.077
20
-196.586
11
204.934
21
-196.514
0
LINE
8
BLACK
6
CONTINUOUS
10
204.934
20
-196.514
11
204.863
21
-196.443
0
LINE
8
BLACK
6
CONTINUOUS
10
204.863
20
-196.443
11
204.791
21
-196.3
0
LINE
8
BLACK
6
CONTINUOUS
10
204.791
20
-196.3
11
204.72
21
-196.014
0
LINE
8
BLACK
6
CONTINUOUS
10
204.72
20
-196.014
11
204.72
21
-195.657
0
LINE
8
BLACK
6
CONTINUOUS
10
204.72
20
-195.657
11
204.791
21
-195.371
0
LINE
8
BLACK
6
CONTINUOUS
10
204.791
20
-195.371
11
204.863
21
-195.229
0
LINE
8
BLACK
6
CONTINUOUS
10
204.863
20
-195.229
11
204.934
21
-195.157
0
LINE
8
BLACK
6
CONTINUOUS
10
204.934
20
-195.157
11
205.077
21
-195.086
0
LINE
8
BLACK
6
CONTINUOUS
10
206.22
20
-196.443
11
206.291
21
-196.514
0
LINE
8
BLACK
6
CONTINUOUS
10
206.291
20
-196.514
11
206.22
21
-196.586
0
LINE
8
BLACK
6
CONTINUOUS
10
206.22
20
-196.586
11
206.149
21
-196.514
0
LINE
8
BLACK
6
CONTINUOUS
10
206.149
20
-196.514
11
206.22
21
-196.443
0
LINE
8
BLACK
6
CONTINUOUS
10
206.22
20
-196.443
11
206.22
21
-196.586
0
LINE
8
BLACK
6
CONTINUOUS
10
206.863
20
-195.229
11
206.934
21
-195.157
0
LINE
8
BLACK
6
CONTINUOUS
10
206.934
20
-195.157
11
207.077
21
-195.086
0
LINE
8
BLACK
6
CONTINUOUS
10
207.077
20
-195.086
11
207.434
21
-195.086
0
LINE
8
BLACK
6
CONTINUOUS
10
207.434
20
-195.086
11
207.577
21
-195.157
0
LINE
8
BLACK
6
CONTINUOUS
10
207.577
20
-195.157
11
207.649
21
-195.229
0
LINE
8
BLACK
6
CONTINUOUS
10
207.649
20
-195.229
11
207.72
21
-195.371
0
LINE
8
BLACK
6
CONTINUOUS
10
207.72
20
-195.371
11
207.72
21
-195.514
0
LINE
8
BLACK
6
CONTINUOUS
10
207.72
20
-195.514
11
207.649
21
-195.729
0
LINE
8
BLACK
6
CONTINUOUS
10
207.649
20
-195.729
11
206.791
21
-196.586
0
LINE
8
BLACK
6
CONTINUOUS
10
206.791
20
-196.586
11
207.72
21
-196.586
0
LINE
8
BLACK
6
CONTINUOUS
10
208.22
20
-197.157
11
208.291
21
-197.086
0
LINE
8
BLACK
6
CONTINUOUS
10
208.291
20
-197.086
11
208.434
21
-196.871
0
LINE
8
BLACK
6
CONTINUOUS
10
208.434
20
-196.871
11
208.506
21
-196.729
0
LINE
8
BLACK
6
CONTINUOUS
10
208.506
20
-196.729
11
208.577
21
-196.514
0
LINE
8
BLACK
6
CONTINUOUS
10
208.577
20
-196.514
11
208.649
21
-196.157
0
LINE
8
BLACK
6
CONTINUOUS
10
208.649
20
-196.157
11
208.649
21
-195.871
0
LINE
8
BLACK
6
CONTINUOUS
10
208.649
20
-195.871
11
208.577
21
-195.514
0
LINE
8
BLACK
6
CONTINUOUS
10
208.577
20
-195.514
11
208.506
21
-195.3
0
LINE
8
BLACK
6
CONTINUOUS
10
208.506
20
-195.3
11
208.434
21
-195.157
0
LINE
8
BLACK
6
CONTINUOUS
10
208.434
20
-195.157
11
208.291
21
-194.943
0
LINE
8
BLACK
6
CONTINUOUS
10
208.291
20
-194.943
11
208.22
21
-194.871
0
LINE
8
BLACK
6
CONTINUOUS
10
209.363
20
-196.014
11
210.506
21
-196.014
0
LINE
8
BLACK
6
CONTINUOUS
10
212.006
20
-196.586
11
211.149
21
-196.586
0
LINE
8
BLACK
6
CONTINUOUS
10
211.577
20
-196.586
11
211.577
21
-195.086
0
LINE
8
BLACK
6
CONTINUOUS
10
211.577
20
-195.086
11
211.434
21
-195.3
0
LINE
8
BLACK
6
CONTINUOUS
10
211.434
20
-195.3
11
211.291
21
-195.443
0
LINE
8
BLACK
6
CONTINUOUS
10
211.291
20
-195.443
11
211.149
21
-195.514
0
LINE
8
BLACK
6
CONTINUOUS
10
177.002
20
-191.507
11
285.002
21
-191.507
0
LINE
8
BLACK
6
CONTINUOUS
10
264.411
20
-193.786
11
263.911
21
-193.071
0
LINE
8
BLACK
6
CONTINUOUS
10
263.554
20
-193.786
11
263.554
21
-192.286
0
LINE
8
BLACK
6
CONTINUOUS
10
263.554
20
-192.286
11
264.126
21
-192.286
0
LINE
8
BLACK
6
CONTINUOUS
10
264.126
20
-192.286
11
264.269
21
-192.357
0
LINE
8
BLACK
6
CONTINUOUS
10
264.269
20
-192.357
11
264.34
21
-192.429
0
LINE
8
BLACK
6
CONTINUOUS
10
264.34
20
-192.429
11
264.411
21
-192.571
0
LINE
8
BLACK
6
CONTINUOUS
10
264.411
20
-192.571
11
264.411
21
-192.786
0
LINE
8
BLACK
6
CONTINUOUS
10
264.411
20
-192.786
11
264.34
21
-192.929
0
LINE
8
BLACK
6
CONTINUOUS
10
264.34
20
-192.929
11
264.269
21
-193
0
LINE
8
BLACK
6
CONTINUOUS
10
264.269
20
-193
11
264.126
21
-193.071
0
LINE
8
BLACK
6
CONTINUOUS
10
264.126
20
-193.071
11
263.554
21
-193.071
0
LINE
8
BLACK
6
CONTINUOUS
10
265.626
20
-193.714
11
265.483
21
-193.786
0
LINE
8
BLACK
6
CONTINUOUS
10
265.483
20
-193.786
11
265.197
21
-193.786
0
LINE
8
BLACK
6
CONTINUOUS
10
265.197
20
-193.786
11
265.054
21
-193.714
0
LINE
8
BLACK
6
CONTINUOUS
10
265.054
20
-193.714
11
264.983
21
-193.571
0
LINE
8
BLACK
6
CONTINUOUS
10
264.983
20
-193.571
11
264.983
21
-193
0
LINE
8
BLACK
6
CONTINUOUS
10
264.983
20
-193
11
265.054
21
-192.857
0
LINE
8
BLACK
6
CONTINUOUS
10
265.054
20
-192.857
11
265.197
21
-192.786
0
LINE
8
BLACK
6
CONTINUOUS
10
265.197
20
-192.786
11
265.483
21
-192.786
0
LINE
8
BLACK
6
CONTINUOUS
10
265.483
20
-192.786
11
265.626
21
-192.857
0
LINE
8
BLACK
6
CONTINUOUS
10
265.626
20
-192.857
11
265.697
21
-193
0
LINE
8
BLACK
6
CONTINUOUS
10
265.697
20
-193
11
265.697
21
-193.143
0
LINE
8
BLACK
6
CONTINUOUS
10
265.697
20
-193.143
11
264.983
21
-193.286
0
LINE
8
BLACK
6
CONTINUOUS
10
266.197
20
-192.786
11
266.554
21
-193.786
0
LINE
8
BLACK
6
CONTINUOUS
10
266.554
20
-193.786
11
266.911
21
-192.786
0
LINE
8
BLACK
6
CONTINUOUS
10
267.483
20
-193.643
11
267.554
21
-193.714
0
LINE
8
BLACK
6
CONTINUOUS
10
267.554
20
-193.714
11
267.483
21
-193.786
0
LINE
8
BLACK
6
CONTINUOUS
10
267.483
20
-193.786
11
267.411
21
-193.714
0
LINE
8
BLACK
6
CONTINUOUS
10
267.411
20
-193.714
11
267.483
21
-193.643
0
LINE
8
BLACK
6
CONTINUOUS
10
267.483
20
-193.643
11
267.483
21
-193.786
0
LINE
8
BLACK
6
CONTINUOUS
10
267.483
20
-192.857
11
267.554
21
-192.929
0
LINE
8
BLACK
6
CONTINUOUS
10
267.554
20
-192.929
11
267.483
21
-193
0
LINE
8
BLACK
6
CONTINUOUS
10
267.483
20
-193
11
267.411
21
-192.929
0
LINE
8
BLACK
6
CONTINUOUS
10
267.411
20
-192.929
11
267.483
21
-192.857
0
LINE
8
BLACK
6
CONTINUOUS
10
267.483
20
-192.857
11
267.483
21
-193
0
LINE
8
BLACK
6
CONTINUOUS
10
178.363
20
-193.714
11
178.577
21
-193.786
0
LINE
8
BLACK
6
CONTINUOUS
10
178.577
20
-193.786
11
178.934
21
-193.786
0
LINE
8
BLACK
6
CONTINUOUS
10
178.934
20
-193.786
11
179.077
21
-193.714
0
LINE
8
BLACK
6
CONTINUOUS
10
179.077
20
-193.714
11
179.149
21
-193.643
0
LINE
8
BLACK
6
CONTINUOUS
10
179.149
20
-193.643
11
179.22
21
-193.5
0
LINE
8
BLACK
6
CONTINUOUS
10
179.22
20
-193.5
11
179.22
21
-193.357
0
LINE
8
BLACK
6
CONTINUOUS
10
179.22
20
-193.357
11
179.149
21
-193.214
0
LINE
8
BLACK
6
CONTINUOUS
10
179.149
20
-193.214
11
179.077
21
-193.143
0
LINE
8
BLACK
6
CONTINUOUS
10
179.077
20
-193.143
11
178.934
21
-193.071
0
LINE
8
BLACK
6
CONTINUOUS
10
178.934
20
-193.071
11
178.649
21
-193
0
LINE
8
BLACK
6
CONTINUOUS
10
178.649
20
-193
11
178.506
21
-192.929
0
LINE
8
BLACK
6
CONTINUOUS
10
178.506
20
-192.929
11
178.434
21
-192.857
0
LINE
8
BLACK
6
CONTINUOUS
10
178.434
20
-192.857
11
178.363
21
-192.714
0
LINE
8
BLACK
6
CONTINUOUS
10
178.363
20
-192.714
11
178.363
21
-192.571
0
LINE
8
BLACK
6
CONTINUOUS
10
178.363
20
-192.571
11
178.434
21
-192.429
0
LINE
8
BLACK
6
CONTINUOUS
10
178.434
20
-192.429
11
178.506
21
-192.357
0
LINE
8
BLACK
6
CONTINUOUS
10
178.506
20
-192.357
11
178.649
21
-192.286
0
LINE
8
BLACK
6
CONTINUOUS
10
178.649
20
-192.286
11
179.006
21
-192.286
0
LINE
8
BLACK
6
CONTINUOUS
10
179.006
20
-192.286
11
179.22
21
-192.357
0
LINE
8
BLACK
6
CONTINUOUS
10
179.863
20
-193.786
11
179.863
21
-192.786
0
LINE
8
BLACK
6
CONTINUOUS
10
179.863
20
-192.286
11
179.791
21
-192.357
0
LINE
8
BLACK
6
CONTINUOUS
10
179.791
20
-192.357
11
179.863
21
-192.429
0
LINE
8
BLACK
6
CONTINUOUS
10
179.863
20
-192.429
11
179.934
21
-192.357
0
LINE
8
BLACK
6
CONTINUOUS
10
179.934
20
-192.357
11
179.863
21
-192.286
0
LINE
8
BLACK
6
CONTINUOUS
10
179.863
20
-192.286
11
179.863
21
-192.429
0
LINE
8
BLACK
6
CONTINUOUS
10
180.434
20
-192.786
11
181.22
21
-192.786
0
LINE
8
BLACK
6
CONTINUOUS
10
181.22
20
-192.786
11
180.434
21
-193.786
0
LINE
8
BLACK
6
CONTINUOUS
10
180.434
20
-193.786
11
181.22
21
-193.786
0
LINE
8
BLACK
6
CONTINUOUS
10
182.363
20
-193.714
11
182.22
21
-193.786
0
LINE
8
BLACK
6
CONTINUOUS
10
182.22
20
-193.786
11
181.934
21
-193.786
0
LINE
8
BLACK
6
CONTINUOUS
10
181.934
20
-193.786
11
181.791
21
-193.714
0
LINE
8
BLACK
6
CONTINUOUS
10
181.791
20
-193.714
11
181.72
21
-193.571
0
LINE
8
BLACK
6
CONTINUOUS
10
181.72
20
-193.571
11
181.72
21
-193
0
LINE
8
BLACK
6
CONTINUOUS
10
181.72
20
-193
11
181.791
21
-192.857
0
LINE
8
BLACK
6
CONTINUOUS
10
181.791
20
-192.857
11
181.934
21
-192.786
0
LINE
8
BLACK
6
CONTINUOUS
10
181.934
20
-192.786
11
182.22
21
-192.786
0
LINE
8
BLACK
6
CONTINUOUS
10
182.22
20
-192.786
11
182.363
21
-192.857
0
LINE
8
BLACK
6
CONTINUOUS
10
182.363
20
-192.857
11
182.434
21
-193
0
LINE
8
BLACK
6
CONTINUOUS
10
182.434
20
-193
11
182.434
21
-193.143
0
LINE
8
BLACK
6
CONTINUOUS
10
182.434
20
-193.143
11
181.72
21
-193.286
0
LINE
8
BLACK
6
CONTINUOUS
10
183.077
20
-193.643
11
183.149
21
-193.714
0
LINE
8
BLACK
6
CONTINUOUS
10
183.149
20
-193.714
11
183.077
21
-193.786
0
LINE
8
BLACK
6
CONTINUOUS
10
183.077
20
-193.786
11
183.006
21
-193.714
0
LINE
8
BLACK
6
CONTINUOUS
10
183.006
20
-193.714
11
183.077
21
-193.643
0
LINE
8
BLACK
6
CONTINUOUS
10
183.077
20
-193.643
11
183.077
21
-193.786
0
LINE
8
BLACK
6
CONTINUOUS
10
183.077
20
-192.857
11
183.149
21
-192.929
0
LINE
8
BLACK
6
CONTINUOUS
10
183.149
20
-192.929
11
183.077
21
-193
0
LINE
8
BLACK
6
CONTINUOUS
10
183.077
20
-193
11
183.006
21
-192.929
0
LINE
8
BLACK
6
CONTINUOUS
10
183.006
20
-192.929
11
183.077
21
-192.857
0
LINE
8
BLACK
6
CONTINUOUS
10
183.077
20
-192.857
11
183.077
21
-193
0
LINE
8
BLACK
6
CONTINUOUS
10
184.863
20
-193.357
11
185.577
21
-193.357
0
LINE
8
BLACK
6
CONTINUOUS
10
184.72
20
-193.786
11
185.22
21
-192.286
0
LINE
8
BLACK
6
CONTINUOUS
10
185.22
20
-192.286
11
185.72
21
-193.786
0
LINE
8
BLACK
6
CONTINUOUS
10
186.863
20
-192.786
11
186.863
21
-193.786
0
LINE
8
BLACK
6
CONTINUOUS
10
186.506
20
-192.214
11
186.149
21
-193.286
0
LINE
8
BLACK
6
CONTINUOUS
10
186.149
20
-193.286
11
187.077
21
-193.286
0
LINE
8
BLACK
6
CONTINUOUS
10
263.434
20
-196.586
11
263.434
21
-195.086
0
LINE
8
BLACK
6
CONTINUOUS
10
264.791
20
-196.586
11
264.791
21
-195.086
0
LINE
8
BLACK
6
CONTINUOUS
10
264.791
20
-196.514
11
264.649
21
-196.586
0
LINE
8
BLACK
6
CONTINUOUS
10
264.649
20
-196.586
11
264.363
21
-196.586
0
LINE
8
BLACK
6
CONTINUOUS
10
264.363
20
-196.586
11
264.22
21
-196.514
0
LINE
8
BLACK
6
CONTINUOUS
10
264.22
20
-196.514
11
264.149
21
-196.443
0
LINE
8
BLACK
6
CONTINUOUS
10
264.149
20
-196.443
11
264.077
21
-196.3
0
LINE
8
BLACK
6
CONTINUOUS
10
264.077
20
-196.3
11
264.077
21
-195.871
0
LINE
8
BLACK
6
CONTINUOUS
10
264.077
20
-195.871
11
264.149
21
-195.729
0
LINE
8
BLACK
6
CONTINUOUS
10
264.149
20
-195.729
11
264.22
21
-195.657
0
LINE
8
BLACK
6
CONTINUOUS
10
264.22
20
-195.657
11
264.363
21
-195.586
0
LINE
8
BLACK
6
CONTINUOUS
10
264.363
20
-195.586
11
264.649
21
-195.586
0
LINE
8
BLACK
6
CONTINUOUS
10
264.649
20
-195.586
11
264.791
21
-195.657
0
LINE
8
BLACK
6
CONTINUOUS
10
265.506
20
-196.443
11
265.577
21
-196.514
0
LINE
8
BLACK
6
CONTINUOUS
10
265.577
20
-196.514
11
265.506
21
-196.586
0
LINE
8
BLACK
6
CONTINUOUS
10
265.506
20
-196.586
11
265.434
21
-196.514
0
LINE
8
BLACK
6
CONTINUOUS
10
265.434
20
-196.514
11
265.506
21
-196.443
0
LINE
8
BLACK
6
CONTINUOUS
10
265.506
20
-196.443
11
265.506
21
-196.586
0
LINE
8
BLACK
6
CONTINUOUS
10
265.506
20
-195.657
11
265.577
21
-195.729
0
LINE
8
BLACK
6
CONTINUOUS
10
265.577
20
-195.729
11
265.506
21
-195.8
0
LINE
8
BLACK
6
CONTINUOUS
10
265.506
20
-195.8
11
265.434
21
-195.729
0
LINE
8
BLACK
6
CONTINUOUS
10
265.434
20
-195.729
11
265.506
21
-195.657
0
LINE
8
BLACK
6
CONTINUOUS
10
265.506
20
-195.657
11
265.506
21
-195.8
0
LINE
8
BLACK
6
CONTINUOUS
10
268.149
20
-196.586
11
267.291
21
-196.586
0
LINE
8
BLACK
6
CONTINUOUS
10
267.72
20
-196.586
11
267.72
21
-195.086
0
LINE
8
BLACK
6
CONTINUOUS
10
267.72
20
-195.086
11
267.577
21
-195.3
0
LINE
8
BLACK
6
CONTINUOUS
10
267.577
20
-195.3
11
267.434
21
-195.443
0
LINE
8
BLACK
6
CONTINUOUS
10
267.434
20
-195.443
11
267.291
21
-195.514
0
LINE
8
BLACK
6
CONTINUOUS
10
269.863
20
-195.014
11
268.577
21
-196.943
0
LINE
8
BLACK
6
CONTINUOUS
10
271.149
20
-196.586
11
270.291
21
-196.586
0
LINE
8
BLACK
6
CONTINUOUS
10
270.72
20
-196.586
11
270.72
21
-195.086
0
LINE
8
BLACK
6
CONTINUOUS
10
270.72
20
-195.086
11
270.577
21
-195.3
0
LINE
8
BLACK
6
CONTINUOUS
10
270.577
20
-195.3
11
270.434
21
-195.443
0
LINE
8
BLACK
6
CONTINUOUS
10
270.434
20
-195.443
11
270.291
21
-195.514
0
LINE
8
BLACK
6
CONTINUOUS
10
177.002
20
-187.507
11
285.002
21
-187.507
0
LINE
8
BLACK
6
CONTINUOUS
10
178.715
20
-188.212
11
179.857
21
-188.212
0
LINE
8
BLACK
6
CONTINUOUS
10
179.036
20
-190.212
11
179.286
21
-188.212
0
LINE
8
BLACK
6
CONTINUOUS
10
180.274
20
-190.212
11
180.441
21
-188.879
0
LINE
8
BLACK
6
CONTINUOUS
10
180.524
20
-188.212
11
180.417
21
-188.307
0
LINE
8
BLACK
6
CONTINUOUS
10
180.417
20
-188.307
11
180.5
21
-188.402
0
LINE
8
BLACK
6
CONTINUOUS
10
180.5
20
-188.402
11
180.607
21
-188.307
0
LINE
8
BLACK
6
CONTINUOUS
10
180.607
20
-188.307
11
180.524
21
-188.212
0
LINE
8
BLACK
6
CONTINUOUS
10
180.524
20
-188.212
11
180.5
21
-188.402
0
LINE
8
BLACK
6
CONTINUOUS
10
181.107
20
-188.879
11
181.869
21
-188.879
0
LINE
8
BLACK
6
CONTINUOUS
10
181.476
20
-188.212
11
181.262
21
-189.926
0
LINE
8
BLACK
6
CONTINUOUS
10
181.262
20
-189.926
11
181.334
21
-190.117
0
LINE
8
BLACK
6
CONTINUOUS
10
181.334
20
-190.117
11
181.512
21
-190.212
0
LINE
8
BLACK
6
CONTINUOUS
10
181.512
20
-190.212
11
181.703
21
-190.212
0
LINE
8
BLACK
6
CONTINUOUS
10
182.655
20
-190.212
11
182.476
21
-190.117
0
LINE
8
BLACK
6
CONTINUOUS
10
182.476
20
-190.117
11
182.405
21
-189.926
0
LINE
8
BLACK
6
CONTINUOUS
10
182.405
20
-189.926
11
182.619
21
-188.212
0
LINE
8
BLACK
6
CONTINUOUS
10
184.191
20
-190.117
11
183.988
21
-190.212
0
LINE
8
BLACK
6
CONTINUOUS
10
183.988
20
-190.212
11
183.607
21
-190.212
0
LINE
8
BLACK
6
CONTINUOUS
10
183.607
20
-190.212
11
183.429
21
-190.117
0
LINE
8
BLACK
6
CONTINUOUS
10
183.429
20
-190.117
11
183.357
21
-189.926
0
LINE
8
BLACK
6
CONTINUOUS
10
183.357
20
-189.926
11
183.453
21
-189.164
0
LINE
8
BLACK
6
CONTINUOUS
10
183.453
20
-189.164
11
183.572
21
-188.974
0
LINE
8
BLACK
6
CONTINUOUS
10
183.572
20
-188.974
11
183.774
21
-188.879
0
LINE
8
BLACK
6
CONTINUOUS
10
183.774
20
-188.879
11
184.155
21
-188.879
0
LINE
8
BLACK
6
CONTINUOUS
10
184.155
20
-188.879
11
184.334
21
-188.974
0
LINE
8
BLACK
6
CONTINUOUS
10
184.334
20
-188.974
11
184.405
21
-189.164
0
LINE
8
BLACK
6
CONTINUOUS
10
184.405
20
-189.164
11
184.381
21
-189.355
0
LINE
8
BLACK
6
CONTINUOUS
10
184.381
20
-189.355
11
183.405
21
-189.545
0
LINE
8
BLACK
6
CONTINUOUS
10
185.155
20
-190.021
11
185.238
21
-190.117
0
LINE
8
BLACK
6
CONTINUOUS
10
185.238
20
-190.117
11
185.131
21
-190.212
0
LINE
8
BLACK
6
CONTINUOUS
10
185.131
20
-190.212
11
185.048
21
-190.117
0
LINE
8
BLACK
6
CONTINUOUS
10
185.048
20
-190.117
11
185.155
21
-190.021
0
LINE
8
BLACK
6
CONTINUOUS
10
185.155
20
-190.021
11
185.131
21
-190.212
0
LINE
8
BLACK
6
CONTINUOUS
10
185.286
20
-188.974
11
185.369
21
-189.069
0
LINE
8
BLACK
6
CONTINUOUS
10
185.369
20
-189.069
11
185.262
21
-189.164
0
LINE
8
BLACK
6
CONTINUOUS
10
185.262
20
-189.164
11
185.179
21
-189.069
0
LINE
8
BLACK
6
CONTINUOUS
10
185.179
20
-189.069
11
185.286
21
-188.974
0
LINE
8
BLACK
6
CONTINUOUS
10
185.286
20
-188.974
11
185.262
21
-189.164
0
LINE
8
BLACK
6
CONTINUOUS
10
178.934
20
-185.6
11
178.434
21
-185.6
0
LINE
8
BLACK
6
CONTINUOUS
10
178.434
20
-186.386
11
178.434
21
-184.886
0
LINE
8
BLACK
6
CONTINUOUS
10
178.434
20
-184.886
11
179.149
21
-184.886
0
LINE
8
BLACK
6
CONTINUOUS
10
179.72
20
-186.386
11
179.72
21
-185.386
0
LINE
8
BLACK
6
CONTINUOUS
10
179.72
20
-184.886
11
179.649
21
-184.957
0
LINE
8
BLACK
6
CONTINUOUS
10
179.649
20
-184.957
11
179.72
21
-185.029
0
LINE
8
BLACK
6
CONTINUOUS
10
179.72
20
-185.029
11
179.791
21
-184.957
0
LINE
8
BLACK
6
CONTINUOUS
10
179.791
20
-184.957
11
179.72
21
-184.886
0
LINE
8
BLACK
6
CONTINUOUS
10
179.72
20
-184.886
11
179.72
21
-185.029
0
LINE
8
BLACK
6
CONTINUOUS
10
180.649
20
-186.386
11
180.506
21
-186.314
0
LINE
8
BLACK
6
CONTINUOUS
10
180.506
20
-186.314
11
180.434
21
-186.171
0
LINE
8
BLACK
6
CONTINUOUS
10
180.434
20
-186.171
11
180.434
21
-184.886
0
LINE
8
BLACK
6
CONTINUOUS
10
181.791
20
-186.314
11
181.649
21
-186.386
0
LINE
8
BLACK
6
CONTINUOUS
10
181.649
20
-186.386
11
181.363
21
-186.386
0
LINE
8
BLACK
6
CONTINUOUS
10
181.363
20
-186.386
11
181.22
21
-186.314
0
LINE
8
BLACK
6
CONTINUOUS
10
181.22
20
-186.314
11
181.149
21
-186.171
0
LINE
8
BLACK
6
CONTINUOUS
10
181.149
20
-186.171
11
181.149
21
-185.6
0
LINE
8
BLACK
6
CONTINUOUS
10
181.149
20
-185.6
11
181.22
21
-185.457
0
LINE
8
BLACK
6
CONTINUOUS
10
181.22
20
-185.457
11
181.363
21
-185.386
0
LINE
8
BLACK
6
CONTINUOUS
10
181.363
20
-185.386
11
181.649
21
-185.386
0
LINE
8
BLACK
6
CONTINUOUS
10
181.649
20
-185.386
11
181.791
21
-185.457
0
LINE
8
BLACK
6
CONTINUOUS
10
181.791
20
-185.457
11
181.863
21
-185.6
0
LINE
8
BLACK
6
CONTINUOUS
10
181.863
20
-185.6
11
181.863
21
-185.743
0
LINE
8
BLACK
6
CONTINUOUS
10
181.863
20
-185.743
11
181.149
21
-185.886
0
LINE
8
BLACK
6
CONTINUOUS
10
182.506
20
-186.243
11
182.577
21
-186.314
0
LINE
8
BLACK
6
CONTINUOUS
10
182.577
20
-186.314
11
182.506
21
-186.386
0
LINE
8
BLACK
6
CONTINUOUS
10
182.506
20
-186.386
11
182.434
21
-186.314
0
LINE
8
BLACK
6
CONTINUOUS
10
182.434
20
-186.314
11
182.506
21
-186.243
0
LINE
8
BLACK
6
CONTINUOUS
10
182.506
20
-186.243
11
182.506
21
-186.386
0
LINE
8
BLACK
6
CONTINUOUS
10
182.506
20
-185.457
11
182.577
21
-185.529
0
LINE
8
BLACK
6
CONTINUOUS
10
182.577
20
-185.529
11
182.506
21
-185.6
0
LINE
8
BLACK
6
CONTINUOUS
10
182.506
20
-185.6
11
182.434
21
-185.529
0
LINE
8
BLACK
6
CONTINUOUS
10
182.434
20
-185.529
11
182.506
21
-185.457
0
LINE
8
BLACK
6
CONTINUOUS
10
182.506
20
-185.457
11
182.506
21
-185.6
0
LINE
8
BLACK
6
CONTINUOUS
10
184.863
20
-185.6
11
184.363
21
-185.6
0
LINE
8
BLACK
6
CONTINUOUS
10
184.363
20
-186.386
11
184.363
21
-184.886
0
LINE
8
BLACK
6
CONTINUOUS
10
184.363
20
-184.886
11
185.077
21
-184.886
0
LINE
8
BLACK
6
CONTINUOUS
10
185.649
20
-186.386
11
185.649
21
-185.386
0
LINE
8
BLACK
6
CONTINUOUS
10
185.649
20
-185.671
11
185.72
21
-185.529
0
LINE
8
BLACK
6
CONTINUOUS
10
185.72
20
-185.529
11
185.791
21
-185.457
0
LINE
8
BLACK
6
CONTINUOUS
10
185.791
20
-185.457
11
185.934
21
-185.386
0
LINE
8
BLACK
6
CONTINUOUS
10
185.934
20
-185.386
11
186.077
21
-185.386
0
LINE
8
BLACK
6
CONTINUOUS
10
186.791
20
-186.386
11
186.649
21
-186.314
0
LINE
8
BLACK
6
CONTINUOUS
10
186.649
20
-186.314
11
186.577
21
-186.243
0
LINE
8
BLACK
6
CONTINUOUS
10
186.577
20
-186.243
11
186.506
21
-186.1
0
LINE
8
BLACK
6
CONTINUOUS
10
186.506
20
-186.1
11
186.506
21
-185.671
0
LINE
8
BLACK
6
CONTINUOUS
10
186.506
20
-185.671
11
186.577
21
-185.529
0
LINE
8
BLACK
6
CONTINUOUS
10
186.577
20
-185.529
11
186.649
21
-185.457
0
LINE
8
BLACK
6
CONTINUOUS
10
186.649
20
-185.457
11
186.791
21
-185.386
0
LINE
8
BLACK
6
CONTINUOUS
10
186.791
20
-185.386
11
187.006
21
-185.386
0
LINE
8
BLACK
6
CONTINUOUS
10
187.006
20
-185.386
11
187.149
21
-185.457
0
LINE
8
BLACK
6
CONTINUOUS
10
187.149
20
-185.457
11
187.22
21
-185.529
0
LINE
8
BLACK
6
CONTINUOUS
10
187.22
20
-185.529
11
187.291
21
-185.671
0
LINE
8
BLACK
6
CONTINUOUS
10
187.291
20
-185.671
11
187.291
21
-186.1
0
LINE
8
BLACK
6
CONTINUOUS
10
187.291
20
-186.1
11
187.22
21
-186.243
0
LINE
8
BLACK
6
CONTINUOUS
10
187.22
20
-186.243
11
187.149
21
-186.314
0
LINE
8
BLACK
6
CONTINUOUS
10
187.149
20
-186.314
11
187.006
21
-186.386
0
LINE
8
BLACK
6
CONTINUOUS
10
187.006
20
-186.386
11
186.791
21
-186.386
0
LINE
8
BLACK
6
CONTINUOUS
10
188.577
20
-185.386
11
188.577
21
-186.6
0
LINE
8
BLACK
6
CONTINUOUS
10
188.577
20
-186.6
11
188.506
21
-186.743
0
LINE
8
BLACK
6
CONTINUOUS
10
188.506
20
-186.743
11
188.434
21
-186.814
0
LINE
8
BLACK
6
CONTINUOUS
10
188.434
20
-186.814
11
188.291
21
-186.886
0
LINE
8
BLACK
6
CONTINUOUS
10
188.291
20
-186.886
11
188.077
21
-186.886
0
LINE
8
BLACK
6
CONTINUOUS
10
188.077
20
-186.886
11
187.934
21
-186.814
0
LINE
8
BLACK
6
CONTINUOUS
10
188.577
20
-186.314
11
188.434
21
-186.386
0
LINE
8
BLACK
6
CONTINUOUS
10
188.434
20
-186.386
11
188.149
21
-186.386
0
LINE
8
BLACK
6
CONTINUOUS
10
188.149
20
-186.386
11
188.006
21
-186.314
0
LINE
8
BLACK
6
CONTINUOUS
10
188.006
20
-186.314
11
187.934
21
-186.243
0
LINE
8
BLACK
6
CONTINUOUS
10
187.934
20
-186.243
11
187.863
21
-186.1
0
LINE
8
BLACK
6
CONTINUOUS
10
187.863
20
-186.1
11
187.863
21
-185.671
0
LINE
8
BLACK
6
CONTINUOUS
10
187.863
20
-185.671
11
187.934
21
-185.529
0
LINE
8
BLACK
6
CONTINUOUS
10
187.934
20
-185.529
11
188.006
21
-185.457
0
LINE
8
BLACK
6
CONTINUOUS
10
188.006
20
-185.457
11
188.149
21
-185.386
0
LINE
8
BLACK
6
CONTINUOUS
10
188.149
20
-185.386
11
188.434
21
-185.386
0
LINE
8
BLACK
6
CONTINUOUS
10
188.434
20
-185.386
11
188.577
21
-185.457
0
LINE
8
BLACK
6
CONTINUOUS
10
189.291
20
-186.386
11
189.291
21
-184.886
0
LINE
8
BLACK
6
CONTINUOUS
10
190.006
20
-186.386
11
190.006
21
-184.886
0
LINE
8
BLACK
6
CONTINUOUS
10
190.006
20
-184.886
11
190.863
21
-186.386
0
LINE
8
BLACK
6
CONTINUOUS
10
190.863
20
-186.386
11
190.863
21
-184.886
0
LINE
8
BLACK
6
CONTINUOUS
10
191.363
20
-184.886
11
192.22
21
-184.886
0
LINE
8
BLACK
6
CONTINUOUS
10
191.791
20
-186.386
11
191.791
21
-184.886
0
LINE
8
BLACK
6
CONTINUOUS
10
192.363
20
-186.529
11
193.506
21
-186.529
0
LINE
8
BLACK
6
CONTINUOUS
10
193.863
20
-186.386
11
193.863
21
-184.886
0
LINE
8
BLACK
6
CONTINUOUS
10
193.863
20
-184.886
11
194.434
21
-184.886
0
LINE
8
BLACK
6
CONTINUOUS
10
194.434
20
-184.886
11
194.577
21
-184.957
0
LINE
8
BLACK
6
CONTINUOUS
10
194.577
20
-184.957
11
194.649
21
-185.029
0
LINE
8
BLACK
6
CONTINUOUS
10
194.649
20
-185.029
11
194.72
21
-185.171
0
LINE
8
BLACK
6
CONTINUOUS
10
194.72
20
-185.171
11
194.72
21
-185.386
0
LINE
8
BLACK
6
CONTINUOUS
10
194.72
20
-185.386
11
194.649
21
-185.529
0
LINE
8
BLACK
6
CONTINUOUS
10
194.649
20
-185.529
11
194.577
21
-185.6
0
LINE
8
BLACK
6
CONTINUOUS
10
194.577
20
-185.6
11
194.434
21
-185.671
0
LINE
8
BLACK
6
CONTINUOUS
10
194.434
20
-185.671
11
193.863
21
-185.671
0
LINE
8
BLACK
6
CONTINUOUS
10
196.22
20
-186.243
11
196.149
21
-186.314
0
LINE
8
BLACK
6
CONTINUOUS
10
196.149
20
-186.314
11
195.934
21
-186.386
0
LINE
8
BLACK
6
CONTINUOUS
10
195.934
20
-186.386
11
195.791
21
-186.386
0
LINE
8
BLACK
6
CONTINUOUS
10
195.791
20
-186.386
11
195.577
21
-186.314
0
LINE
8
BLACK
6
CONTINUOUS
10
195.577
20
-186.314
11
195.434
21
-186.171
0
LINE
8
BLACK
6
CONTINUOUS
10
195.434
20
-186.171
11
195.363
21
-186.029
0
LINE
8
BLACK
6
CONTINUOUS
10
195.363
20
-186.029
11
195.291
21
-185.743
0
LINE
8
BLACK
6
CONTINUOUS
10
195.291
20
-185.743
11
195.291
21
-185.529
0
LINE
8
BLACK
6
CONTINUOUS
10
195.291
20
-185.529
11
195.363
21
-185.243
0
LINE
8
BLACK
6
CONTINUOUS
10
195.363
20
-185.243
11
195.434
21
-185.1
0
LINE
8
BLACK
6
CONTINUOUS
10
195.434
20
-185.1
11
195.577
21
-184.957
0
LINE
8
BLACK
6
CONTINUOUS
10
195.577
20
-184.957
11
195.791
21
-184.886
0
LINE
8
BLACK
6
CONTINUOUS
10
195.791
20
-184.886
11
195.934
21
-184.886
0
LINE
8
BLACK
6
CONTINUOUS
10
195.934
20
-184.886
11
196.149
21
-184.957
0
LINE
8
BLACK
6
CONTINUOUS
10
196.149
20
-184.957
11
196.22
21
-185.029
0
LINE
8
BLACK
6
CONTINUOUS
10
197.363
20
-185.6
11
197.577
21
-185.671
0
LINE
8
BLACK
6
CONTINUOUS
10
197.577
20
-185.671
11
197.649
21
-185.743
0
LINE
8
BLACK
6
CONTINUOUS
10
197.649
20
-185.743
11
197.72
21
-185.886
0
LINE
8
BLACK
6
CONTINUOUS
10
197.72
20
-185.886
11
197.72
21
-186.1
0
LINE
8
BLACK
6
CONTINUOUS
10
197.72
20
-186.1
11
197.649
21
-186.243
0
LINE
8
BLACK
6
CONTINUOUS
10
197.649
20
-186.243
11
197.577
21
-186.314
0
LINE
8
BLACK
6
CONTINUOUS
10
197.577
20
-186.314
11
197.434
21
-186.386
0
LINE
8
BLACK
6
CONTINUOUS
10
197.434
20
-186.386
11
196.863
21
-186.386
0
LINE
8
BLACK
6
CONTINUOUS
10
196.863
20
-186.386
11
196.863
21
-184.886
0
LINE
8
BLACK
6
CONTINUOUS
10
196.863
20
-184.886
11
197.363
21
-184.886
0
LINE
8
BLACK
6
CONTINUOUS
10
197.363
20
-184.886
11
197.506
21
-184.957
0
LINE
8
BLACK
6
CONTINUOUS
10
197.506
20
-184.957
11
197.577
21
-185.029
0
LINE
8
BLACK
6
CONTINUOUS
10
197.577
20
-185.029
11
197.649
21
-185.171
0
LINE
8
BLACK
6
CONTINUOUS
10
197.649
20
-185.171
11
197.649
21
-185.314
0
LINE
8
BLACK
6
CONTINUOUS
10
197.649
20
-185.314
11
197.577
21
-185.457
0
LINE
8
BLACK
6
CONTINUOUS
10
197.577
20
-185.457
11
197.506
21
-185.529
0
LINE
8
BLACK
6
CONTINUOUS
10
197.506
20
-185.529
11
197.363
21
-185.6
0
LINE
8
BLACK
6
CONTINUOUS
10
197.363
20
-185.6
11
196.863
21
-185.6
0
LINE
8
BLACK
6
CONTINUOUS
10
198.363
20
-186.386
11
198.363
21
-184.886
0
LINE
8
BLACK
6
CONTINUOUS
10
198.363
20
-184.886
11
198.934
21
-184.886
0
LINE
8
BLACK
6
CONTINUOUS
10
198.934
20
-184.886
11
199.077
21
-184.957
0
LINE
8
BLACK
6
CONTINUOUS
10
199.077
20
-184.957
11
199.149
21
-185.029
0
LINE
8
BLACK
6
CONTINUOUS
10
199.149
20
-185.029
11
199.22
21
-185.171
0
LINE
8
BLACK
6
CONTINUOUS
10
199.22
20
-185.171
11
199.22
21
-185.386
0
LINE
8
BLACK
6
CONTINUOUS
10
199.22
20
-185.386
11
199.149
21
-185.529
0
LINE
8
BLACK
6
CONTINUOUS
10
199.149
20
-185.529
11
199.077
21
-185.6
0
LINE
8
BLACK
6
CONTINUOUS
10
199.077
20
-185.6
11
198.934
21
-185.671
0
LINE
8
BLACK
6
CONTINUOUS
10
198.934
20
-185.671
11
198.363
21
-185.671
0
LINE
8
BLACK
6
CONTINUOUS
10
199.863
20
-186.386
11
199.863
21
-185.386
0
LINE
8
BLACK
6
CONTINUOUS
10
199.863
20
-185.671
11
199.934
21
-185.529
0
LINE
8
BLACK
6
CONTINUOUS
10
199.934
20
-185.529
11
200.006
21
-185.457
0
LINE
8
BLACK
6
CONTINUOUS
10
200.006
20
-185.457
11
200.149
21
-185.386
0
LINE
8
BLACK
6
CONTINUOUS
10
200.149
20
-185.386
11
200.291
21
-185.386
0
LINE
8
BLACK
6
CONTINUOUS
10
201.006
20
-186.386
11
200.863
21
-186.314
0
LINE
8
BLACK
6
CONTINUOUS
10
200.863
20
-186.314
11
200.791
21
-186.243
0
LINE
8
BLACK
6
CONTINUOUS
10
200.791
20
-186.243
11
200.72
21
-186.1
0
LINE
8
BLACK
6
CONTINUOUS
10
200.72
20
-186.1
11
200.72
21
-185.671
0
LINE
8
BLACK
6
CONTINUOUS
10
200.72
20
-185.671
11
200.791
21
-185.529
0
LINE
8
BLACK
6
CONTINUOUS
10
200.791
20
-185.529
11
200.863
21
-185.457
0
LINE
8
BLACK
6
CONTINUOUS
10
200.863
20
-185.457
11
201.006
21
-185.386
0
LINE
8
BLACK
6
CONTINUOUS
10
201.006
20
-185.386
11
201.22
21
-185.386
0
LINE
8
BLACK
6
CONTINUOUS
10
201.22
20
-185.386
11
201.363
21
-185.457
0
LINE
8
BLACK
6
CONTINUOUS
10
201.363
20
-185.457
11
201.434
21
-185.529
0
LINE
8
BLACK
6
CONTINUOUS
10
201.434
20
-185.529
11
201.506
21
-185.671
0
LINE
8
BLACK
6
CONTINUOUS
10
201.506
20
-185.671
11
201.506
21
-186.1
0
LINE
8
BLACK
6
CONTINUOUS
10
201.506
20
-186.1
11
201.434
21
-186.243
0
LINE
8
BLACK
6
CONTINUOUS
10
201.434
20
-186.243
11
201.363
21
-186.314
0
LINE
8
BLACK
6
CONTINUOUS
10
201.363
20
-186.314
11
201.22
21
-186.386
0
LINE
8
BLACK
6
CONTINUOUS
10
201.22
20
-186.386
11
201.006
21
-186.386
0
LINE
8
BLACK
6
CONTINUOUS
10
201.934
20
-185.386
11
202.506
21
-185.386
0
LINE
8
BLACK
6
CONTINUOUS
10
202.149
20
-184.886
11
202.149
21
-186.171
0
LINE
8
BLACK
6
CONTINUOUS
10
202.149
20
-186.171
11
202.22
21
-186.314
0
LINE
8
BLACK
6
CONTINUOUS
10
202.22
20
-186.314
11
202.363
21
-186.386
0
LINE
8
BLACK
6
CONTINUOUS
10
202.363
20
-186.386
11
202.506
21
-186.386
0
LINE
8
BLACK
6
CONTINUOUS
10
203.22
20
-186.386
11
203.077
21
-186.314
0
LINE
8
BLACK
6
CONTINUOUS
10
203.077
20
-186.314
11
203.006
21
-186.243
0
LINE
8
BLACK
6
CONTINUOUS
10
203.006
20
-186.243
11
202.934
21
-186.1
0
LINE
8
BLACK
6
CONTINUOUS
10
202.934
20
-186.1
11
202.934
21
-185.671
0
LINE
8
BLACK
6
CONTINUOUS
10
202.934
20
-185.671
11
203.006
21
-185.529
0
LINE
8
BLACK
6
CONTINUOUS
10
203.006
20
-185.529
11
203.077
21
-185.457
0
LINE
8
BLACK
6
CONTINUOUS
10
203.077
20
-185.457
11
203.22
21
-185.386
0
LINE
8
BLACK
6
CONTINUOUS
10
203.22
20
-185.386
11
203.434
21
-185.386
0
LINE
8
BLACK
6
CONTINUOUS
10
203.434
20
-185.386
11
203.577
21
-185.457
0
LINE
8
BLACK
6
CONTINUOUS
10
203.577
20
-185.457
11
203.649
21
-185.529
0
LINE
8
BLACK
6
CONTINUOUS
10
203.649
20
-185.529
11
203.72
21
-185.671
0
LINE
8
BLACK
6
CONTINUOUS
10
203.72
20
-185.671
11
203.72
21
-186.1
0
LINE
8
BLACK
6
CONTINUOUS
10
203.72
20
-186.1
11
203.649
21
-186.243
0
LINE
8
BLACK
6
CONTINUOUS
10
203.649
20
-186.243
11
203.577
21
-186.314
0
LINE
8
BLACK
6
CONTINUOUS
10
203.577
20
-186.314
11
203.434
21
-186.386
0
LINE
8
BLACK
6
CONTINUOUS
10
203.434
20
-186.386
11
203.22
21
-186.386
0
LINE
8
BLACK
6
CONTINUOUS
10
204.006
20
-186.529
11
205.149
21
-186.529
0
LINE
8
BLACK
6
CONTINUOUS
10
205.291
20
-184.886
11
205.791
21
-186.386
0
LINE
8
BLACK
6
CONTINUOUS
10
205.791
20
-186.386
11
206.291
21
-184.886
0
LINE
8
BLACK
6
CONTINUOUS
10
207.577
20
-186.386
11
206.72
21
-186.386
0
LINE
8
BLACK
6
CONTINUOUS
10
207.149
20
-186.386
11
207.149
21
-184.886
0
LINE
8
BLACK
6
CONTINUOUS
10
207.149
20
-184.886
11
207.006
21
-185.1
0
LINE
8
BLACK
6
CONTINUOUS
10
207.006
20
-185.1
11
206.863
21
-185.243
0
LINE
8
BLACK
6
CONTINUOUS
10
206.863
20
-185.243
11
206.72
21
-185.314
0
LINE
8
BLACK
6
CONTINUOUS
10
208.434
20
-185.529
11
208.291
21
-185.457
0
LINE
8
BLACK
6
CONTINUOUS
10
208.291
20
-185.457
11
208.22
21
-185.386
0
LINE
8
BLACK
6
CONTINUOUS
10
208.22
20
-185.386
11
208.149
21
-185.243
0
LINE
8
BLACK
6
CONTINUOUS
10
208.149
20
-185.243
11
208.149
21
-185.171
0
LINE
8
BLACK
6
CONTINUOUS
10
208.149
20
-185.171
11
208.22
21
-185.029
0
LINE
8
BLACK
6
CONTINUOUS
10
208.22
20
-185.029
11
208.291
21
-184.957
0
LINE
8
BLACK
6
CONTINUOUS
10
208.291
20
-184.957
11
208.434
21
-184.886
0
LINE
8
BLACK
6
CONTINUOUS
10
208.434
20
-184.886
11
208.72
21
-184.886
0
LINE
8
BLACK
6
CONTINUOUS
10
208.72
20
-184.886
11
208.863
21
-184.957
0
LINE
8
BLACK
6
CONTINUOUS
10
208.863
20
-184.957
11
208.934
21
-185.029
0
LINE
8
BLACK
6
CONTINUOUS
10
208.934
20
-185.029
11
209.006
21
-185.171
0
LINE
8
BLACK
6
CONTINUOUS
10
209.006
20
-185.171
11
209.006
21
-185.243
0
LINE
8
BLACK
6
CONTINUOUS
10
209.006
20
-185.243
11
208.934
21
-185.386
0
LINE
8
BLACK
6
CONTINUOUS
10
208.934
20
-185.386
11
208.863
21
-185.457
0
LINE
8
BLACK
6
CONTINUOUS
10
208.863
20
-185.457
11
208.72
21
-185.529
0
LINE
8
BLACK
6
CONTINUOUS
10
208.72
20
-185.529
11
208.434
21
-185.529
0
LINE
8
BLACK
6
CONTINUOUS
10
208.434
20
-185.529
11
208.291
21
-185.6
0
LINE
8
BLACK
6
CONTINUOUS
10
208.291
20
-185.6
11
208.22
21
-185.671
0
LINE
8
BLACK
6
CONTINUOUS
10
208.22
20
-185.671
11
208.149
21
-185.814
0
LINE
8
BLACK
6
CONTINUOUS
10
208.149
20
-185.814
11
208.149
21
-186.1
0
LINE
8
BLACK
6
CONTINUOUS
10
208.149
20
-186.1
11
208.22
21
-186.243
0
LINE
8
BLACK
6
CONTINUOUS
10
208.22
20
-186.243
11
208.291
21
-186.314
0
LINE
8
BLACK
6
CONTINUOUS
10
208.291
20
-186.314
11
208.434
21
-186.386
0
LINE
8
BLACK
6
CONTINUOUS
10
208.434
20
-186.386
11
208.72
21
-186.386
0
LINE
8
BLACK
6
CONTINUOUS
10
208.72
20
-186.386
11
208.863
21
-186.314
0
LINE
8
BLACK
6
CONTINUOUS
10
208.863
20
-186.314
11
208.934
21
-186.243
0
LINE
8
BLACK
6
CONTINUOUS
10
208.934
20
-186.243
11
209.006
21
-186.1
0
LINE
8
BLACK
6
CONTINUOUS
10
209.006
20
-186.1
11
209.006
21
-185.814
0
LINE
8
BLACK
6
CONTINUOUS
10
209.006
20
-185.814
11
208.934
21
-185.671
0
LINE
8
BLACK
6
CONTINUOUS
10
208.934
20
-185.671
11
208.863
21
-185.6
0
LINE
8
BLACK
6
CONTINUOUS
10
208.863
20
-185.6
11
208.72
21
-185.529
0
LINE
8
BLACK
6
CONTINUOUS
10
210.434
20
-186.386
11
209.577
21
-186.386
0
LINE
8
BLACK
6
CONTINUOUS
10
210.006
20
-186.386
11
210.006
21
-184.886
0
LINE
8
BLACK
6
CONTINUOUS
10
210.006
20
-184.886
11
209.863
21
-185.1
0
LINE
8
BLACK
6
CONTINUOUS
10
209.863
20
-185.1
11
209.72
21
-185.243
0
LINE
8
BLACK
6
CONTINUOUS
10
209.72
20
-185.243
11
209.577
21
-185.314
0
LINE
8
BLACK
6
CONTINUOUS
10
211.863
20
-186.386
11
211.006
21
-186.386
0
LINE
8
BLACK
6
CONTINUOUS
10
211.434
20
-186.386
11
211.434
21
-184.886
0
LINE
8
BLACK
6
CONTINUOUS
10
211.434
20
-184.886
11
211.291
21
-185.1
0
LINE
8
BLACK
6
CONTINUOUS
10
211.291
20
-185.1
11
211.149
21
-185.243
0
LINE
8
BLACK
6
CONTINUOUS
10
211.149
20
-185.243
11
211.006
21
-185.314
0
LINE
8
BLACK
6
CONTINUOUS
10
212.791
20
-184.886
11
212.934
21
-184.886
0
LINE
8
BLACK
6
CONTINUOUS
10
212.934
20
-184.886
11
213.077
21
-184.957
0
LINE
8
BLACK
6
CONTINUOUS
10
213.077
20
-184.957
11
213.149
21
-185.029
0
LINE
8
BLACK
6
CONTINUOUS
10
213.149
20
-185.029
11
213.22
21
-185.171
0
LINE
8
BLACK
6
CONTINUOUS
10
213.22
20
-185.171
11
213.291
21
-185.457
0
LINE
8
BLACK
6
CONTINUOUS
10
213.291
20
-185.457
11
213.291
21
-185.814
0
LINE
8
BLACK
6
CONTINUOUS
10
213.291
20
-185.814
11
213.22
21
-186.1
0
LINE
8
BLACK
6
CONTINUOUS
10
213.22
20
-186.1
11
213.149
21
-186.243
0
LINE
8
BLACK
6
CONTINUOUS
10
213.149
20
-186.243
11
213.077
21
-186.314
0
LINE
8
BLACK
6
CONTINUOUS
10
213.077
20
-186.314
11
212.934
21
-186.386
0
LINE
8
BLACK
6
CONTINUOUS
10
212.934
20
-186.386
11
212.791
21
-186.386
0
LINE
8
BLACK
6
CONTINUOUS
10
212.791
20
-186.386
11
212.649
21
-186.314
0
LINE
8
BLACK
6
CONTINUOUS
10
212.649
20
-186.314
11
212.577
21
-186.243
0
LINE
8
BLACK
6
CONTINUOUS
10
212.577
20
-186.243
11
212.506
21
-186.1
0
LINE
8
BLACK
6
CONTINUOUS
10
212.506
20
-186.1
11
212.434
21
-185.814
0
LINE
8
BLACK
6
CONTINUOUS
10
212.434
20
-185.814
11
212.434
21
-185.457
0
LINE
8
BLACK
6
CONTINUOUS
10
212.434
20
-185.457
11
212.506
21
-185.171
0
LINE
8
BLACK
6
CONTINUOUS
10
212.506
20
-185.171
11
212.577
21
-185.029
0
LINE
8
BLACK
6
CONTINUOUS
10
212.577
20
-185.029
11
212.649
21
-184.957
0
LINE
8
BLACK
6
CONTINUOUS
10
212.649
20
-184.957
11
212.791
21
-184.886
0
LINE
8
BLACK
6
CONTINUOUS
10
214.577
20
-184.886
11
214.291
21
-184.886
0
LINE
8
BLACK
6
CONTINUOUS
10
214.291
20
-184.886
11
214.149
21
-184.957
0
LINE
8
BLACK
6
CONTINUOUS
10
214.149
20
-184.957
11
214.077
21
-185.029
0
LINE
8
BLACK
6
CONTINUOUS
10
214.077
20
-185.029
11
213.934
21
-185.243
0
LINE
8
BLACK
6
CONTINUOUS
10
213.934
20
-185.243
11
213.863
21
-185.529
0
LINE
8
BLACK
6
CONTINUOUS
10
213.863
20
-185.529
11
213.863
21
-186.1
0
LINE
8
BLACK
6
CONTINUOUS
10
213.863
20
-186.1
11
213.934
21
-186.243
0
LINE
8
BLACK
6
CONTINUOUS
10
213.934
20
-186.243
11
214.006
21
-186.314
0
LINE
8
BLACK
6
CONTINUOUS
10
214.006
20
-186.314
11
214.149
21
-186.386
0
LINE
8
BLACK
6
CONTINUOUS
10
214.149
20
-186.386
11
214.434
21
-186.386
0
LINE
8
BLACK
6
CONTINUOUS
10
214.434
20
-186.386
11
214.577
21
-186.314
0
LINE
8
BLACK
6
CONTINUOUS
10
214.577
20
-186.314
11
214.649
21
-186.243
0
LINE
8
BLACK
6
CONTINUOUS
10
214.649
20
-186.243
11
214.72
21
-186.1
0
LINE
8
BLACK
6
CONTINUOUS
10
214.72
20
-186.1
11
214.72
21
-185.743
0
LINE
8
BLACK
6
CONTINUOUS
10
214.72
20
-185.743
11
214.649
21
-185.6
0
LINE
8
BLACK
6
CONTINUOUS
10
214.649
20
-185.6
11
214.577
21
-185.529
0
LINE
8
BLACK
6
CONTINUOUS
10
214.577
20
-185.529
11
214.434
21
-185.457
0
LINE
8
BLACK
6
CONTINUOUS
10
214.434
20
-185.457
11
214.149
21
-185.457
0
LINE
8
BLACK
6
CONTINUOUS
10
214.149
20
-185.457
11
214.006
21
-185.529
0
LINE
8
BLACK
6
CONTINUOUS
10
214.006
20
-185.529
11
213.934
21
-185.6
0
LINE
8
BLACK
6
CONTINUOUS
10
213.934
20
-185.6
11
213.863
21
-185.743
0
LINE
8
BLACK
6
CONTINUOUS
10
215.291
20
-185.029
11
215.363
21
-184.957
0
LINE
8
BLACK
6
CONTINUOUS
10
215.363
20
-184.957
11
215.506
21
-184.886
0
LINE
8
BLACK
6
CONTINUOUS
10
215.506
20
-184.886
11
215.863
21
-184.886
0
LINE
8
BLACK
6
CONTINUOUS
10
215.863
20
-184.886
11
216.006
21
-184.957
0
LINE
8
BLACK
6
CONTINUOUS
10
216.006
20
-184.957
11
216.077
21
-185.029
0
LINE
8
BLACK
6
CONTINUOUS
10
216.077
20
-185.029
11
216.149
21
-185.171
0
LINE
8
BLACK
6
CONTINUOUS
10
216.149
20
-185.171
11
216.149
21
-185.314
0
LINE
8
BLACK
6
CONTINUOUS
10
216.149
20
-185.314
11
216.077
21
-185.529
0
LINE
8
BLACK
6
CONTINUOUS
10
216.077
20
-185.529
11
215.22
21
-186.386
0
LINE
8
BLACK
6
CONTINUOUS
10
215.22
20
-186.386
11
216.149
21
-186.386
0
LINE
8
BLACK
6
CONTINUOUS
10
217.577
20
-186.386
11
216.72
21
-186.386
0
LINE
8
BLACK
6
CONTINUOUS
10
217.149
20
-186.386
11
217.149
21
-184.886
0
LINE
8
BLACK
6
CONTINUOUS
10
217.149
20
-184.886
11
217.006
21
-185.1
0
LINE
8
BLACK
6
CONTINUOUS
10
217.006
20
-185.1
11
216.863
21
-185.243
0
LINE
8
BLACK
6
CONTINUOUS
10
216.863
20
-185.243
11
216.72
21
-185.314
0
LINE
8
BLACK
6
CONTINUOUS
10
218.934
20
-184.886
11
218.22
21
-184.886
0
LINE
8
BLACK
6
CONTINUOUS
10
218.22
20
-184.886
11
218.149
21
-185.6
0
LINE
8
BLACK
6
CONTINUOUS
10
218.149
20
-185.6
11
218.22
21
-185.529
0
LINE
8
BLACK
6
CONTINUOUS
10
218.22
20
-185.529
11
218.363
21
-185.457
0
LINE
8
BLACK
6
CONTINUOUS
10
218.363
20
-185.457
11
218.72
21
-185.457
0
LINE
8
BLACK
6
CONTINUOUS
10
218.72
20
-185.457
11
218.863
21
-185.529
0
LINE
8
BLACK
6
CONTINUOUS
10
218.863
20
-185.529
11
218.934
21
-185.6
0
LINE
8
BLACK
6
CONTINUOUS
10
218.934
20
-185.6
11
219.006
21
-185.743
0
LINE
8
BLACK
6
CONTINUOUS
10
219.006
20
-185.743
11
219.006
21
-186.1
0
LINE
8
BLACK
6
CONTINUOUS
10
219.006
20
-186.1
11
218.934
21
-186.243
0
LINE
8
BLACK
6
CONTINUOUS
10
218.934
20
-186.243
11
218.863
21
-186.314
0
LINE
8
BLACK
6
CONTINUOUS
10
218.863
20
-186.314
11
218.72
21
-186.386
0
LINE
8
BLACK
6
CONTINUOUS
10
218.72
20
-186.386
11
218.363
21
-186.386
0
LINE
8
BLACK
6
CONTINUOUS
10
218.363
20
-186.386
11
218.22
21
-186.314
0
LINE
8
BLACK
6
CONTINUOUS
10
218.22
20
-186.314
11
218.149
21
-186.243
0
LINE
8
BLACK
6
CONTINUOUS
10
220.291
20
-185.386
11
220.291
21
-186.386
0
LINE
8
BLACK
6
CONTINUOUS
10
219.934
20
-184.814
11
219.577
21
-185.886
0
LINE
8
BLACK
6
CONTINUOUS
10
219.577
20
-185.886
11
220.506
21
-185.886
0
LINE
8
BLACK
6
CONTINUOUS
10
221.077
20
-186.243
11
221.149
21
-186.314
0
LINE
8
BLACK
6
CONTINUOUS
10
221.149
20
-186.314
11
221.077
21
-186.386
0
LINE
8
BLACK
6
CONTINUOUS
10
221.077
20
-186.386
11
221.006
21
-186.314
0
LINE
8
BLACK
6
CONTINUOUS
10
221.006
20
-186.314
11
221.077
21
-186.243
0
LINE
8
BLACK
6
CONTINUOUS
10
221.077
20
-186.243
11
221.077
21
-186.386
0
LINE
8
BLACK
6
CONTINUOUS
10
221.791
20
-186.386
11
221.791
21
-184.886
0
LINE
8
BLACK
6
CONTINUOUS
10
221.934
20
-185.814
11
222.363
21
-186.386
0
LINE
8
BLACK
6
CONTINUOUS
10
222.363
20
-185.386
11
221.791
21
-185.957
0
LINE
8
BLACK
6
CONTINUOUS
10
223.006
20
-186.386
11
223.006
21
-185.386
0
LINE
8
BLACK
6
CONTINUOUS
10
223.006
20
-184.886
11
222.934
21
-184.957
0
LINE
8
BLACK
6
CONTINUOUS
10
222.934
20
-184.957
11
223.006
21
-185.029
0
LINE
8
BLACK
6
CONTINUOUS
10
223.006
20
-185.029
11
223.077
21
-184.957
0
LINE
8
BLACK
6
CONTINUOUS
10
223.077
20
-184.957
11
223.006
21
-184.886
0
LINE
8
BLACK
6
CONTINUOUS
10
223.006
20
-184.886
11
223.006
21
-185.029
0
LINE
8
BLACK
6
CONTINUOUS
10
224.363
20
-186.314
11
224.22
21
-186.386
0
LINE
8
BLACK
6
CONTINUOUS
10
224.22
20
-186.386
11
223.934
21
-186.386
0
LINE
8
BLACK
6
CONTINUOUS
10
223.934
20
-186.386
11
223.791
21
-186.314
0
LINE
8
BLACK
6
CONTINUOUS
10
223.791
20
-186.314
11
223.72
21
-186.243
0
LINE
8
BLACK
6
CONTINUOUS
10
223.72
20
-186.243
11
223.649
21
-186.1
0
LINE
8
BLACK
6
CONTINUOUS
10
223.649
20
-186.1
11
223.649
21
-185.671
0
LINE
8
BLACK
6
CONTINUOUS
10
223.649
20
-185.671
11
223.72
21
-185.529
0
LINE
8
BLACK
6
CONTINUOUS
10
223.72
20
-185.529
11
223.791
21
-185.457
0
LINE
8
BLACK
6
CONTINUOUS
10
223.791
20
-185.457
11
223.934
21
-185.386
0
LINE
8
BLACK
6
CONTINUOUS
10
223.934
20
-185.386
11
224.22
21
-185.386
0
LINE
8
BLACK
6
CONTINUOUS
10
224.22
20
-185.386
11
224.363
21
-185.457
0
LINE
8
BLACK
6
CONTINUOUS
10
225.649
20
-186.386
11
225.649
21
-185.6
0
LINE
8
BLACK
6
CONTINUOUS
10
225.649
20
-185.6
11
225.577
21
-185.457
0
LINE
8
BLACK
6
CONTINUOUS
10
225.577
20
-185.457
11
225.434
21
-185.386
0
LINE
8
BLACK
6
CONTINUOUS
10
225.434
20
-185.386
11
225.149
21
-185.386
0
LINE
8
BLACK
6
CONTINUOUS
10
225.149
20
-185.386
11
225.006
21
-185.457
0
LINE
8
BLACK
6
CONTINUOUS
10
225.649
20
-186.314
11
225.506
21
-186.386
0
LINE
8
BLACK
6
CONTINUOUS
10
225.506
20
-186.386
11
225.149
21
-186.386
0
LINE
8
BLACK
6
CONTINUOUS
10
225.149
20
-186.386
11
225.006
21
-186.314
0
LINE
8
BLACK
6
CONTINUOUS
10
225.006
20
-186.314
11
224.934
21
-186.171
0
LINE
8
BLACK
6
CONTINUOUS
10
224.934
20
-186.171
11
224.934
21
-186.029
0
LINE
8
BLACK
6
CONTINUOUS
10
224.934
20
-186.029
11
225.006
21
-185.886
0
LINE
8
BLACK
6
CONTINUOUS
10
225.006
20
-185.886
11
225.149
21
-185.814
0
LINE
8
BLACK
6
CONTINUOUS
10
225.149
20
-185.814
11
225.506
21
-185.814
0
LINE
8
BLACK
6
CONTINUOUS
10
225.506
20
-185.814
11
225.649
21
-185.743
0
LINE
8
BLACK
6
CONTINUOUS
10
227.006
20
-186.386
11
227.006
21
-184.886
0
LINE
8
BLACK
6
CONTINUOUS
10
227.006
20
-186.314
11
226.863
21
-186.386
0
LINE
8
BLACK
6
CONTINUOUS
10
226.863
20
-186.386
11
226.577
21
-186.386
0
LINE
8
BLACK
6
CONTINUOUS
10
226.577
20
-186.386
11
226.434
21
-186.314
0
LINE
8
BLACK
6
CONTINUOUS
10
226.434
20
-186.314
11
226.363
21
-186.243
0
LINE
8
BLACK
6
CONTINUOUS
10
226.363
20
-186.243
11
226.291
21
-186.1
0
LINE
8
BLACK
6
CONTINUOUS
10
226.291
20
-186.1
11
226.291
21
-185.671
0
LINE
8
BLACK
6
CONTINUOUS
10
226.291
20
-185.671
11
226.363
21
-185.529
0
LINE
8
BLACK
6
CONTINUOUS
10
226.363
20
-185.529
11
226.434
21
-185.457
0
LINE
8
BLACK
6
CONTINUOUS
10
226.434
20
-185.457
11
226.577
21
-185.386
0
LINE
8
BLACK
6
CONTINUOUS
10
226.577
20
-185.386
11
226.863
21
-185.386
0
LINE
8
BLACK
6
CONTINUOUS
10
226.863
20
-185.386
11
227.006
21
-185.457
0
LINE
8
BLACK
6
CONTINUOUS
10
227.363
20
-186.529
11
228.506
21
-186.529
0
LINE
8
BLACK
6
CONTINUOUS
10
228.863
20
-185.386
11
228.863
21
-186.886
0
LINE
8
BLACK
6
CONTINUOUS
10
228.863
20
-185.457
11
229.006
21
-185.386
0
LINE
8
BLACK
6
CONTINUOUS
10
229.006
20
-185.386
11
229.291
21
-185.386
0
LINE
8
BLACK
6
CONTINUOUS
10
229.291
20
-185.386
11
229.434
21
-185.457
0
LINE
8
BLACK
6
CONTINUOUS
10
229.434
20
-185.457
11
229.506
21
-185.529
0
LINE
8
BLACK
6
CONTINUOUS
10
229.506
20
-185.529
11
229.577
21
-185.671
0
LINE
8
BLACK
6
CONTINUOUS
10
229.577
20
-185.671
11
229.577
21
-186.1
0
LINE
8
BLACK
6
CONTINUOUS
10
229.577
20
-186.1
11
229.506
21
-186.243
0
LINE
8
BLACK
6
CONTINUOUS
10
229.506
20
-186.243
11
229.434
21
-186.314
0
LINE
8
BLACK
6
CONTINUOUS
10
229.434
20
-186.314
11
229.291
21
-186.386
0
LINE
8
BLACK
6
CONTINUOUS
10
229.291
20
-186.386
11
229.006
21
-186.386
0
LINE
8
BLACK
6
CONTINUOUS
10
229.006
20
-186.386
11
228.863
21
-186.314
0
LINE
8
BLACK
6
CONTINUOUS
10
230.863
20
-186.314
11
230.72
21
-186.386
0
LINE
8
BLACK
6
CONTINUOUS
10
230.72
20
-186.386
11
230.434
21
-186.386
0
LINE
8
BLACK
6
CONTINUOUS
10
230.434
20
-186.386
11
230.291
21
-186.314
0
LINE
8
BLACK
6
CONTINUOUS
10
230.291
20
-186.314
11
230.22
21
-186.243
0
LINE
8
BLACK
6
CONTINUOUS
10
230.22
20
-186.243
11
230.149
21
-186.1
0
LINE
8
BLACK
6
CONTINUOUS
10
230.149
20
-186.1
11
230.149
21
-185.671
0
LINE
8
BLACK
6
CONTINUOUS
10
230.149
20
-185.671
11
230.22
21
-185.529
0
LINE
8
BLACK
6
CONTINUOUS
10
230.22
20
-185.529
11
230.291
21
-185.457
0
LINE
8
BLACK
6
CONTINUOUS
10
230.291
20
-185.457
11
230.434
21
-185.386
0
LINE
8
BLACK
6
CONTINUOUS
10
230.434
20
-185.386
11
230.72
21
-185.386
0
LINE
8
BLACK
6
CONTINUOUS
10
230.72
20
-185.386
11
230.863
21
-185.457
0
LINE
8
BLACK
6
CONTINUOUS
10
231.506
20
-186.386
11
231.506
21
-184.886
0
LINE
8
BLACK
6
CONTINUOUS
10
231.506
20
-185.457
11
231.649
21
-185.386
0
LINE
8
BLACK
6
CONTINUOUS
10
231.649
20
-185.386
11
231.934
21
-185.386
0
LINE
8
BLACK
6
CONTINUOUS
10
231.934
20
-185.386
11
232.077
21
-185.457
0
LINE
8
BLACK
6
CONTINUOUS
10
232.077
20
-185.457
11
232.149
21
-185.529
0
LINE
8
BLACK
6
CONTINUOUS
10
232.149
20
-185.529
11
232.22
21
-185.671
0
LINE
8
BLACK
6
CONTINUOUS
10
232.22
20
-185.671
11
232.22
21
-186.1
0
LINE
8
BLACK
6
CONTINUOUS
10
232.22
20
-186.1
11
232.149
21
-186.243
0
LINE
8
BLACK
6
CONTINUOUS
10
232.149
20
-186.243
11
232.077
21
-186.314
0
LINE
8
BLACK
6
CONTINUOUS
10
232.077
20
-186.314
11
231.934
21
-186.386
0
LINE
8
BLACK
6
CONTINUOUS
10
231.934
20
-186.386
11
231.649
21
-186.386
0
LINE
8
BLACK
6
CONTINUOUS
10
231.649
20
-186.386
11
231.506
21
-186.314
0
LINE
8
BLACK
6
CONTINUOUS
10
177.002
20
-181.507
11
285.002
21
-181.507
0
LINE
8
BLACK
6
CONTINUOUS
10
178.363
20
-183.614
11
178.577
21
-183.686
0
LINE
8
BLACK
6
CONTINUOUS
10
178.577
20
-183.686
11
178.934
21
-183.686
0
LINE
8
BLACK
6
CONTINUOUS
10
178.934
20
-183.686
11
179.077
21
-183.614
0
LINE
8
BLACK
6
CONTINUOUS
10
179.077
20
-183.614
11
179.149
21
-183.543
0
LINE
8
BLACK
6
CONTINUOUS
10
179.149
20
-183.543
11
179.22
21
-183.4
0
LINE
8
BLACK
6
CONTINUOUS
10
179.22
20
-183.4
11
179.22
21
-183.257
0
LINE
8
BLACK
6
CONTINUOUS
10
179.22
20
-183.257
11
179.149
21
-183.114
0
LINE
8
BLACK
6
CONTINUOUS
10
179.149
20
-183.114
11
179.077
21
-183.043
0
LINE
8
BLACK
6
CONTINUOUS
10
179.077
20
-183.043
11
178.934
21
-182.971
0
LINE
8
BLACK
6
CONTINUOUS
10
178.934
20
-182.971
11
178.649
21
-182.9
0
LINE
8
BLACK
6
CONTINUOUS
10
178.649
20
-182.9
11
178.506
21
-182.829
0
LINE
8
BLACK
6
CONTINUOUS
10
178.506
20
-182.829
11
178.434
21
-182.757
0
LINE
8
BLACK
6
CONTINUOUS
10
178.434
20
-182.757
11
178.363
21
-182.614
0
LINE
8
BLACK
6
CONTINUOUS
10
178.363
20
-182.614
11
178.363
21
-182.471
0
LINE
8
BLACK
6
CONTINUOUS
10
178.363
20
-182.471
11
178.434
21
-182.329
0
LINE
8
BLACK
6
CONTINUOUS
10
178.434
20
-182.329
11
178.506
21
-182.257
0
LINE
8
BLACK
6
CONTINUOUS
10
178.506
20
-182.257
11
178.649
21
-182.186
0
LINE
8
BLACK
6
CONTINUOUS
10
178.649
20
-182.186
11
179.006
21
-182.186
0
LINE
8
BLACK
6
CONTINUOUS
10
179.006
20
-182.186
11
179.22
21
-182.257
0
LINE
8
BLACK
6
CONTINUOUS
10
179.863
20
-183.686
11
179.863
21
-182.186
0
LINE
8
BLACK
6
CONTINUOUS
10
180.506
20
-183.686
11
180.506
21
-182.9
0
LINE
8
BLACK
6
CONTINUOUS
10
180.506
20
-182.9
11
180.434
21
-182.757
0
LINE
8
BLACK
6
CONTINUOUS
10
180.434
20
-182.757
11
180.291
21
-182.686
0
LINE
8
BLACK
6
CONTINUOUS
10
180.291
20
-182.686
11
180.077
21
-182.686
0
LINE
8
BLACK
6
CONTINUOUS
10
180.077
20
-182.686
11
179.934
21
-182.757
0
LINE
8
BLACK
6
CONTINUOUS
10
179.934
20
-182.757
11
179.863
21
-182.829
0
LINE
8
BLACK
6
CONTINUOUS
10
181.791
20
-183.614
11
181.649
21
-183.686
0
LINE
8
BLACK
6
CONTINUOUS
10
181.649
20
-183.686
11
181.363
21
-183.686
0
LINE
8
BLACK
6
CONTINUOUS
10
181.363
20
-183.686
11
181.22
21
-183.614
0
LINE
8
BLACK
6
CONTINUOUS
10
181.22
20
-183.614
11
181.149
21
-183.471
0
LINE
8
BLACK
6
CONTINUOUS
10
181.149
20
-183.471
11
181.149
21
-182.9
0
LINE
8
BLACK
6
CONTINUOUS
10
181.149
20
-182.9
11
181.22
21
-182.757
0
LINE
8
BLACK
6
CONTINUOUS
10
181.22
20
-182.757
11
181.363
21
-182.686
0
LINE
8
BLACK
6
CONTINUOUS
10
181.363
20
-182.686
11
181.649
21
-182.686
0
LINE
8
BLACK
6
CONTINUOUS
10
181.649
20
-182.686
11
181.791
21
-182.757
0
LINE
8
BLACK
6
CONTINUOUS
10
181.791
20
-182.757
11
181.863
21
-182.9
0
LINE
8
BLACK
6
CONTINUOUS
10
181.863
20
-182.9
11
181.863
21
-183.043
0
LINE
8
BLACK
6
CONTINUOUS
10
181.863
20
-183.043
11
181.149
21
-183.186
0
LINE
8
BLACK
6
CONTINUOUS
10
183.077
20
-183.614
11
182.934
21
-183.686
0
LINE
8
BLACK
6
CONTINUOUS
10
182.934
20
-183.686
11
182.649
21
-183.686
0
LINE
8
BLACK
6
CONTINUOUS
10
182.649
20
-183.686
11
182.506
21
-183.614
0
LINE
8
BLACK
6
CONTINUOUS
10
182.506
20
-183.614
11
182.434
21
-183.471
0
LINE
8
BLACK
6
CONTINUOUS
10
182.434
20
-183.471
11
182.434
21
-182.9
0
LINE
8
BLACK
6
CONTINUOUS
10
182.434
20
-182.9
11
182.506
21
-182.757
0
LINE
8
BLACK
6
CONTINUOUS
10
182.506
20
-182.757
11
182.649
21
-182.686
0
LINE
8
BLACK
6
CONTINUOUS
10
182.649
20
-182.686
11
182.934
21
-182.686
0
LINE
8
BLACK
6
CONTINUOUS
10
182.934
20
-182.686
11
183.077
21
-182.757
0
LINE
8
BLACK
6
CONTINUOUS
10
183.077
20
-182.757
11
183.149
21
-182.9
0
LINE
8
BLACK
6
CONTINUOUS
10
183.149
20
-182.9
11
183.149
21
-183.043
0
LINE
8
BLACK
6
CONTINUOUS
10
183.149
20
-183.043
11
182.434
21
-183.186
0
LINE
8
BLACK
6
CONTINUOUS
10
183.577
20
-182.686
11
184.149
21
-182.686
0
LINE
8
BLACK
6
CONTINUOUS
10
183.791
20
-182.186
11
183.791
21
-183.471
0
LINE
8
BLACK
6
CONTINUOUS
10
183.791
20
-183.471
11
183.863
21
-183.614
0
LINE
8
BLACK
6
CONTINUOUS
10
183.863
20
-183.614
11
184.006
21
-183.686
0
LINE
8
BLACK
6
CONTINUOUS
10
184.006
20
-183.686
11
184.149
21
-183.686
0
LINE
8
BLACK
6
CONTINUOUS
10
184.649
20
-183.543
11
184.72
21
-183.614
0
LINE
8
BLACK
6
CONTINUOUS
10
184.72
20
-183.614
11
184.649
21
-183.686
0
LINE
8
BLACK
6
CONTINUOUS
10
184.649
20
-183.686
11
184.577
21
-183.614
0
LINE
8
BLACK
6
CONTINUOUS
10
184.577
20
-183.614
11
184.649
21
-183.543
0
LINE
8
BLACK
6
CONTINUOUS
10
184.649
20
-183.543
11
184.649
21
-183.686
0
LINE
8
BLACK
6
CONTINUOUS
10
184.649
20
-182.757
11
184.72
21
-182.829
0
LINE
8
BLACK
6
CONTINUOUS
10
184.72
20
-182.829
11
184.649
21
-182.9
0
LINE
8
BLACK
6
CONTINUOUS
10
184.649
20
-182.9
11
184.577
21
-182.829
0
LINE
8
BLACK
6
CONTINUOUS
10
184.577
20
-182.829
11
184.649
21
-182.757
0
LINE
8
BLACK
6
CONTINUOUS
10
184.649
20
-182.757
11
184.649
21
-182.9
0
LINE
8
BLACK
6
CONTINUOUS
10
197.002
20
-191.507
11
197.002
21
-194.507
0
LINE
8
BLACK
6
CONTINUOUS
10
261.002
20
-191.507
11
261.002
21
-198.007
0
LINE
8
BLACK
6
CONTINUOUS
10
140.673
20
-131.65
11
140.795
21
-131.687
0
LINE
8
BLACK
6
CONTINUOUS
10
140.795
20
-131.687
11
140.837
21
-131.7
0
LINE
8
BLACK
6
CONTINUOUS
10
140.837
20
-131.7
11
140.989
21
-131.781
0
LINE
8
BLACK
6
CONTINUOUS
10
140.989
20
-131.781
11
140.989
21
-131.781
0
LINE
8
BLACK
6
CONTINUOUS
10
140.989
20
-131.781
11
140.989
21
-131.781
0
LINE
8
BLACK
6
CONTINUOUS
10
140.989
20
-131.781
11
141.123
21
-131.89
0
LINE
8
BLACK
6
CONTINUOUS
10
141.123
20
-131.89
11
141.232
21
-132.024
0
LINE
8
BLACK
6
CONTINUOUS
10
141.232
20
-132.024
11
141.286
21
-132.125
0
LINE
8
BLACK
6
CONTINUOUS
10
141.286
20
-132.125
11
141.313
21
-132.176
0
LINE
8
BLACK
6
CONTINUOUS
10
141.313
20
-132.176
11
141.33
21
-132.231
0
LINE
8
BLACK
6
CONTINUOUS
10
141.33
20
-132.231
11
141.363
21
-132.34
0
LINE
8
BLACK
6
CONTINUOUS
10
141.363
20
-132.34
11
141.376
21
-132.469
0
LINE
8
BLACK
6
CONTINUOUS
10
141.376
20
-132.469
11
141.376
21
-132.905
0
LINE
8
BLACK
6
CONTINUOUS
10
141.376
20
-132.905
11
141.363
21
-133.034
0
LINE
8
BLACK
6
CONTINUOUS
10
141.363
20
-133.034
11
141.33
21
-133.143
0
LINE
8
BLACK
6
CONTINUOUS
10
141.33
20
-133.143
11
141.313
21
-133.198
0
LINE
8
BLACK
6
CONTINUOUS
10
141.313
20
-133.198
11
141.286
21
-133.249
0
LINE
8
BLACK
6
CONTINUOUS
10
141.286
20
-133.249
11
141.232
21
-133.35
0
LINE
8
BLACK
6
CONTINUOUS
10
141.232
20
-133.35
11
141.123
21
-133.484
0
LINE
8
BLACK
6
CONTINUOUS
10
141.123
20
-133.484
11
140.989
21
-133.593
0
LINE
8
BLACK
6
CONTINUOUS
10
140.989
20
-133.593
11
140.888
21
-133.647
0
LINE
8
BLACK
6
CONTINUOUS
10
140.888
20
-133.647
11
140.837
21
-133.674
0
LINE
8
BLACK
6
CONTINUOUS
10
140.837
20
-133.674
11
140.782
21
-133.691
0
LINE
8
BLACK
6
CONTINUOUS
10
140.782
20
-133.691
11
140.673
21
-133.724
0
LINE
8
BLACK
6
CONTINUOUS
10
140.673
20
-133.724
11
140.501
21
-133.741
0
LINE
8
BLACK
6
CONTINUOUS
10
140.501
20
-133.741
11
140.329
21
-133.724
0
LINE
8
BLACK
6
CONTINUOUS
10
140.329
20
-133.724
11
140.22
21
-133.691
0
LINE
8
BLACK
6
CONTINUOUS
10
140.22
20
-133.691
11
140.165
21
-133.674
0
LINE
8
BLACK
6
CONTINUOUS
10
140.165
20
-133.674
11
140.114
21
-133.647
0
LINE
8
BLACK
6
CONTINUOUS
10
140.114
20
-133.647
11
140.013
21
-133.593
0
LINE
8
BLACK
6
CONTINUOUS
10
140.013
20
-133.593
11
139.879
21
-133.484
0
LINE
8
BLACK
6
CONTINUOUS
10
139.879
20
-133.484
11
139.879
21
-133.484
0
LINE
8
BLACK
6
CONTINUOUS
10
139.879
20
-133.484
11
139.879
21
-133.484
0
LINE
8
BLACK
6
CONTINUOUS
10
139.879
20
-133.484
11
139.845
21
-133.442
0
LINE
8
BLACK
6
CONTINUOUS
10
139.845
20
-133.442
11
139.77
21
-133.35
0
LINE
8
BLACK
6
CONTINUOUS
10
139.77
20
-133.35
11
139.71
21
-133.239
0
LINE
8
BLACK
6
CONTINUOUS
10
139.71
20
-133.239
11
139.689
21
-133.198
0
LINE
8
BLACK
6
CONTINUOUS
10
139.689
20
-133.198
11
139.672
21
-133.143
0
LINE
8
BLACK
6
CONTINUOUS
10
139.672
20
-133.143
11
139.639
21
-133.034
0
LINE
8
BLACK
6
CONTINUOUS
10
139.639
20
-133.034
11
139.626
21
-132.905
0
LINE
8
BLACK
6
CONTINUOUS
10
139.626
20
-132.905
11
139.626
21
-132.469
0
LINE
8
BLACK
6
CONTINUOUS
10
139.626
20
-132.469
11
139.639
21
-132.34
0
LINE
8
BLACK
6
CONTINUOUS
10
139.639
20
-132.34
11
139.689
21
-132.176
0
LINE
8
BLACK
6
CONTINUOUS
10
139.689
20
-132.176
11
139.689
21
-132.176
0
LINE
8
BLACK
6
CONTINUOUS
10
139.689
20
-132.176
11
139.77
21
-132.024
0
LINE
8
BLACK
6
CONTINUOUS
10
139.77
20
-132.024
11
139.77
21
-132.024
0
LINE
8
BLACK
6
CONTINUOUS
10
139.77
20
-132.024
11
139.77
21
-132.024
0
LINE
8
BLACK
6
CONTINUOUS
10
139.77
20
-132.024
11
139.879
21
-131.89
0
LINE
8
BLACK
6
CONTINUOUS
10
139.879
20
-131.89
11
140.013
21
-131.781
0
LINE
8
BLACK
6
CONTINUOUS
10
140.013
20
-131.781
11
140.114
21
-131.727
0
LINE
8
BLACK
6
CONTINUOUS
10
140.114
20
-131.727
11
140.165
21
-131.7
0
LINE
8
BLACK
6
CONTINUOUS
10
140.165
20
-131.7
11
140.22
21
-131.683
0
LINE
8
BLACK
6
CONTINUOUS
10
140.22
20
-131.683
11
140.329
21
-131.65
0
LINE
8
BLACK
6
CONTINUOUS
10
140.329
20
-131.65
11
140.501
21
-131.633
0
LINE
8
BLACK
6
CONTINUOUS
10
140.501
20
-131.633
11
140.673
21
-131.65
0
LINE
8
BLACK
6
CONTINUOUS
10
146.133
20
-131.65
11
146.255
21
-131.687
0
LINE
8
BLACK
6
CONTINUOUS
10
146.255
20
-131.687
11
146.297
21
-131.7
0
LINE
8
BLACK
6
CONTINUOUS
10
146.297
20
-131.7
11
146.449
21
-131.781
0
LINE
8
BLACK
6
CONTINUOUS
10
146.449
20
-131.781
11
146.449
21
-131.781
0
LINE
8
BLACK
6
CONTINUOUS
10
146.449
20
-131.781
11
146.449
21
-131.781
0
LINE
8
BLACK
6
CONTINUOUS
10
146.449
20
-131.781
11
146.583
21
-131.89
0
LINE
8
BLACK
6
CONTINUOUS
10
146.583
20
-131.89
11
146.692
21
-132.024
0
LINE
8
BLACK
6
CONTINUOUS
10
146.692
20
-132.024
11
146.746
21
-132.125
0
LINE
8
BLACK
6
CONTINUOUS
10
146.746
20
-132.125
11
146.773
21
-132.176
0
LINE
8
BLACK
6
CONTINUOUS
10
146.773
20
-132.176
11
146.79
21
-132.231
0
LINE
8
BLACK
6
CONTINUOUS
10
146.79
20
-132.231
11
146.823
21
-132.34
0
LINE
8
BLACK
6
CONTINUOUS
10
146.823
20
-132.34
11
146.836
21
-132.469
0
LINE
8
BLACK
6
CONTINUOUS
10
146.836
20
-132.469
11
146.836
21
-132.905
0
LINE
8
BLACK
6
CONTINUOUS
10
146.836
20
-132.905
11
146.823
21
-133.034
0
LINE
8
BLACK
6
CONTINUOUS
10
146.823
20
-133.034
11
146.79
21
-133.143
0
LINE
8
BLACK
6
CONTINUOUS
10
146.79
20
-133.143
11
146.773
21
-133.198
0
LINE
8
BLACK
6
CONTINUOUS
10
146.773
20
-133.198
11
146.746
21
-133.249
0
LINE
8
BLACK
6
CONTINUOUS
10
146.746
20
-133.249
11
146.692
21
-133.35
0
LINE
8
BLACK
6
CONTINUOUS
10
146.692
20
-133.35
11
146.583
21
-133.484
0
LINE
8
BLACK
6
CONTINUOUS
10
146.583
20
-133.484
11
146.449
21
-133.593
0
LINE
8
BLACK
6
CONTINUOUS
10
146.449
20
-133.593
11
146.348
21
-133.647
0
LINE
8
BLACK
6
CONTINUOUS
10
146.348
20
-133.647
11
146.297
21
-133.674
0
LINE
8
BLACK
6
CONTINUOUS
10
146.297
20
-133.674
11
146.242
21
-133.691
0
LINE
8
BLACK
6
CONTINUOUS
10
146.242
20
-133.691
11
146.133
21
-133.724
0
LINE
8
BLACK
6
CONTINUOUS
10
146.133
20
-133.724
11
145.961
21
-133.741
0
LINE
8
BLACK
6
CONTINUOUS
10
145.961
20
-133.741
11
145.789
21
-133.724
0
LINE
8
BLACK
6
CONTINUOUS
10
145.789
20
-133.724
11
145.68
21
-133.691
0
LINE
8
BLACK
6
CONTINUOUS
10
145.68
20
-133.691
11
145.625
21
-133.674
0
LINE
8
BLACK
6
CONTINUOUS
10
145.625
20
-133.674
11
145.574
21
-133.647
0
LINE
8
BLACK
6
CONTINUOUS
10
145.574
20
-133.647
11
145.473
21
-133.593
0
LINE
8
BLACK
6
CONTINUOUS
10
145.473
20
-133.593
11
145.339
21
-133.484
0
LINE
8
BLACK
6
CONTINUOUS
10
145.339
20
-133.484
11
145.339
21
-133.484
0
LINE
8
BLACK
6
CONTINUOUS
10
145.339
20
-133.484
11
145.339
21
-133.484
0
LINE
8
BLACK
6
CONTINUOUS
10
145.339
20
-133.484
11
145.305
21
-133.442
0
LINE
8
BLACK
6
CONTINUOUS
10
145.305
20
-133.442
11
145.23
21
-133.35
0
LINE
8
BLACK
6
CONTINUOUS
10
145.23
20
-133.35
11
145.17
21
-133.239
0
LINE
8
BLACK
6
CONTINUOUS
10
145.17
20
-133.239
11
145.149
21
-133.198
0
LINE
8
BLACK
6
CONTINUOUS
10
145.149
20
-133.198
11
145.132
21
-133.143
0
LINE
8
BLACK
6
CONTINUOUS
10
145.132
20
-133.143
11
145.099
21
-133.034
0
LINE
8
BLACK
6
CONTINUOUS
10
145.099
20
-133.034
11
145.086
21
-132.905
0
LINE
8
BLACK
6
CONTINUOUS
10
145.086
20
-132.905
11
145.086
21
-132.469
0
LINE
8
BLACK
6
CONTINUOUS
10
145.086
20
-132.469
11
145.099
21
-132.34
0
LINE
8
BLACK
6
CONTINUOUS
10
145.099
20
-132.34
11
145.149
21
-132.176
0
LINE
8
BLACK
6
CONTINUOUS
10
145.149
20
-132.176
11
145.149
21
-132.176
0
LINE
8
BLACK
6
CONTINUOUS
10
145.149
20
-132.176
11
145.23
21
-132.024
0
LINE
8
BLACK
6
CONTINUOUS
10
145.23
20
-132.024
11
145.23
21
-132.024
0
LINE
8
BLACK
6
CONTINUOUS
10
145.23
20
-132.024
11
145.23
21
-132.024
0
LINE
8
BLACK
6
CONTINUOUS
10
145.23
20
-132.024
11
145.339
21
-131.89
0
LINE
8
BLACK
6
CONTINUOUS
10
145.339
20
-131.89
11
145.473
21
-131.781
0
LINE
8
BLACK
6
CONTINUOUS
10
145.473
20
-131.781
11
145.574
21
-131.727
0
LINE
8
BLACK
6
CONTINUOUS
10
145.574
20
-131.727
11
145.625
21
-131.7
0
LINE
8
BLACK
6
CONTINUOUS
10
145.625
20
-131.7
11
145.68
21
-131.683
0
LINE
8
BLACK
6
CONTINUOUS
10
145.68
20
-131.683
11
145.789
21
-131.65
0
LINE
8
BLACK
6
CONTINUOUS
10
145.789
20
-131.65
11
145.961
21
-131.633
0
LINE
8
BLACK
6
CONTINUOUS
10
145.961
20
-131.633
11
146.133
21
-131.65
0
LINE
8
BLACK
6
CONTINUOUS
10
145.798
20
-128.748
11
145.939
21
-128.791
0
LINE
8
BLACK
6
CONTINUOUS
10
145.939
20
-128.791
11
146.07
21
-128.86
0
LINE
8
BLACK
6
CONTINUOUS
10
146.07
20
-128.86
11
146.184
21
-128.954
0
LINE
8
BLACK
6
CONTINUOUS
10
146.184
20
-128.954
11
146.278
21
-129.068
0
LINE
8
BLACK
6
CONTINUOUS
10
146.278
20
-129.068
11
146.347
21
-129.199
0
LINE
8
BLACK
6
CONTINUOUS
10
146.347
20
-129.199
11
146.39
21
-129.34
0
LINE
8
BLACK
6
CONTINUOUS
10
146.39
20
-129.34
11
146.401
21
-129.45
0
LINE
8
BLACK
6
CONTINUOUS
10
146.401
20
-129.45
11
146.401
21
-129.924
0
LINE
8
BLACK
6
CONTINUOUS
10
146.401
20
-129.924
11
146.39
21
-130.034
0
LINE
8
BLACK
6
CONTINUOUS
10
146.39
20
-130.034
11
146.347
21
-130.175
0
LINE
8
BLACK
6
CONTINUOUS
10
146.347
20
-130.175
11
146.278
21
-130.306
0
LINE
8
BLACK
6
CONTINUOUS
10
146.278
20
-130.306
11
146.184
21
-130.42
0
LINE
8
BLACK
6
CONTINUOUS
10
146.184
20
-130.42
11
146.07
21
-130.514
0
LINE
8
BLACK
6
CONTINUOUS
10
146.07
20
-130.514
11
145.939
21
-130.583
0
LINE
8
BLACK
6
CONTINUOUS
10
145.939
20
-130.583
11
145.798
21
-130.626
0
LINE
8
BLACK
6
CONTINUOUS
10
145.798
20
-130.626
11
145.651
21
-130.641
0
LINE
8
BLACK
6
CONTINUOUS
10
145.651
20
-130.641
11
145.504
21
-130.626
0
LINE
8
BLACK
6
CONTINUOUS
10
145.504
20
-130.626
11
145.363
21
-130.583
0
LINE
8
BLACK
6
CONTINUOUS
10
145.363
20
-130.583
11
145.232
21
-130.514
0
LINE
8
BLACK
6
CONTINUOUS
10
145.232
20
-130.514
11
145.118
21
-130.42
0
LINE
8
BLACK
6
CONTINUOUS
10
145.118
20
-130.42
11
145.024
21
-130.306
0
LINE
8
BLACK
6
CONTINUOUS
10
145.024
20
-130.306
11
144.955
21
-130.175
0
LINE
8
BLACK
6
CONTINUOUS
10
144.955
20
-130.175
11
144.912
21
-130.034
0
LINE
8
BLACK
6
CONTINUOUS
10
144.912
20
-130.034
11
144.901
21
-129.924
0
LINE
8
BLACK
6
CONTINUOUS
10
144.901
20
-129.924
11
144.901
21
-129.45
0
LINE
8
BLACK
6
CONTINUOUS
10
144.901
20
-129.45
11
144.912
21
-129.34
0
LINE
8
BLACK
6
CONTINUOUS
10
144.912
20
-129.34
11
144.955
21
-129.199
0
LINE
8
BLACK
6
CONTINUOUS
10
144.955
20
-129.199
11
145.024
21
-129.068
0
LINE
8
BLACK
6
CONTINUOUS
10
145.024
20
-129.068
11
145.118
21
-128.954
0
LINE
8
BLACK
6
CONTINUOUS
10
145.118
20
-128.954
11
145.232
21
-128.86
0
LINE
8
BLACK
6
CONTINUOUS
10
145.232
20
-128.86
11
145.363
21
-128.791
0
LINE
8
BLACK
6
CONTINUOUS
10
145.363
20
-128.791
11
145.504
21
-128.748
0
LINE
8
BLACK
6
CONTINUOUS
10
145.504
20
-128.748
11
145.651
21
-128.733
0
LINE
8
BLACK
6
CONTINUOUS
10
145.651
20
-128.733
11
145.798
21
-128.748
0
LINE
8
BLACK
6
CONTINUOUS
10
140.958
20
-128.748
11
141.099
21
-128.791
0
LINE
8
BLACK
6
CONTINUOUS
10
141.099
20
-128.791
11
141.23
21
-128.86
0
LINE
8
BLACK
6
CONTINUOUS
10
141.23
20
-128.86
11
141.344
21
-128.954
0
LINE
8
BLACK
6
CONTINUOUS
10
141.344
20
-128.954
11
141.438
21
-129.068
0
LINE
8
BLACK
6
CONTINUOUS
10
141.438
20
-129.068
11
141.507
21
-129.199
0
LINE
8
BLACK
6
CONTINUOUS
10
141.507
20
-129.199
11
141.55
21
-129.34
0
LINE
8
BLACK
6
CONTINUOUS
10
141.55
20
-129.34
11
141.561
21
-129.45
0
LINE
8
BLACK
6
CONTINUOUS
10
141.561
20
-129.45
11
141.561
21
-129.924
0
LINE
8
BLACK
6
CONTINUOUS
10
141.561
20
-129.924
11
141.55
21
-130.034
0
LINE
8
BLACK
6
CONTINUOUS
10
141.55
20
-130.034
11
141.507
21
-130.175
0
LINE
8
BLACK
6
CONTINUOUS
10
141.507
20
-130.175
11
141.438
21
-130.306
0
LINE
8
BLACK
6
CONTINUOUS
10
141.438
20
-130.306
11
141.344
21
-130.42
0
LINE
8
BLACK
6
CONTINUOUS
10
141.344
20
-130.42
11
141.23
21
-130.514
0
LINE
8
BLACK
6
CONTINUOUS
10
141.23
20
-130.514
11
141.099
21
-130.583
0
LINE
8
BLACK
6
CONTINUOUS
10
141.099
20
-130.583
11
140.958
21
-130.626
0
LINE
8
BLACK
6
CONTINUOUS
10
140.958
20
-130.626
11
140.811
21
-130.641
0
LINE
8
BLACK
6
CONTINUOUS
10
140.811
20
-130.641
11
140.664
21
-130.626
0
LINE
8
BLACK
6
CONTINUOUS
10
140.664
20
-130.626
11
140.523
21
-130.583
0
LINE
8
BLACK
6
CONTINUOUS
10
140.523
20
-130.583
11
140.392
21
-130.514
0
LINE
8
BLACK
6
CONTINUOUS
10
140.392
20
-130.514
11
140.278
21
-130.42
0
LINE
8
BLACK
6
CONTINUOUS
10
140.278
20
-130.42
11
140.184
21
-130.306
0
LINE
8
BLACK
6
CONTINUOUS
10
140.184
20
-130.306
11
140.115
21
-130.175
0
LINE
8
BLACK
6
CONTINUOUS
10
140.115
20
-130.175
11
140.072
21
-130.034
0
LINE
8
BLACK
6
CONTINUOUS
10
140.072
20
-130.034
11
140.061
21
-129.924
0
LINE
8
BLACK
6
CONTINUOUS
10
140.061
20
-129.924
11
140.061
21
-129.45
0
LINE
8
BLACK
6
CONTINUOUS
10
140.061
20
-129.45
11
140.072
21
-129.34
0
LINE
8
BLACK
6
CONTINUOUS
10
140.072
20
-129.34
11
140.115
21
-129.199
0
LINE
8
BLACK
6
CONTINUOUS
10
140.115
20
-129.199
11
140.184
21
-129.068
0
LINE
8
BLACK
6
CONTINUOUS
10
140.184
20
-129.068
11
140.278
21
-128.954
0
LINE
8
BLACK
6
CONTINUOUS
10
140.278
20
-128.954
11
140.392
21
-128.86
0
LINE
8
BLACK
6
CONTINUOUS
10
140.392
20
-128.86
11
140.523
21
-128.791
0
LINE
8
BLACK
6
CONTINUOUS
10
140.523
20
-128.791
11
140.664
21
-128.748
0
LINE
8
BLACK
6
CONTINUOUS
10
140.664
20
-128.748
11
140.811
21
-128.733
0
LINE
8
BLACK
6
CONTINUOUS
10
140.811
20
-128.733
11
140.958
21
-128.748
0
LINE
8
BLACK
6
CONTINUOUS
10
154.698
20
-122.503
11
154.836
21
-122.531
0
LINE
8
BLACK
6
CONTINUOUS
10
154.836
20
-122.531
11
155.009
21
-122.602
0
LINE
8
BLACK
6
CONTINUOUS
10
155.009
20
-122.602
11
155.165
21
-122.706
0
LINE
8
BLACK
6
CONTINUOUS
10
155.165
20
-122.706
11
155.297
21
-122.838
0
LINE
8
BLACK
6
CONTINUOUS
10
155.297
20
-122.838
11
155.401
21
-122.994
0
LINE
8
BLACK
6
CONTINUOUS
10
155.401
20
-122.994
11
155.472
21
-123.167
0
LINE
8
BLACK
6
CONTINUOUS
10
155.472
20
-123.167
11
155.509
21
-123.35
0
LINE
8
BLACK
6
CONTINUOUS
10
155.509
20
-123.35
11
155.509
21
-123.538
0
LINE
8
BLACK
6
CONTINUOUS
10
155.509
20
-123.538
11
155.472
21
-123.721
0
LINE
8
BLACK
6
CONTINUOUS
10
155.472
20
-123.721
11
155.401
21
-123.894
0
LINE
8
BLACK
6
CONTINUOUS
10
155.401
20
-123.894
11
155.297
21
-124.05
0
LINE
8
BLACK
6
CONTINUOUS
10
155.297
20
-124.05
11
155.165
21
-124.182
0
LINE
8
BLACK
6
CONTINUOUS
10
155.165
20
-124.182
11
155.009
21
-124.286
0
LINE
8
BLACK
6
CONTINUOUS
10
155.009
20
-124.286
11
154.836
21
-124.357
0
LINE
8
BLACK
6
CONTINUOUS
10
154.836
20
-124.357
11
154.698
21
-124.385
0
LINE
8
BLACK
6
CONTINUOUS
10
154.698
20
-124.385
11
154.653
21
-124.394
0
LINE
8
BLACK
6
CONTINUOUS
10
154.653
20
-124.394
11
154.465
21
-124.394
0
LINE
8
BLACK
6
CONTINUOUS
10
154.465
20
-124.394
11
154.42
21
-124.385
0
LINE
8
BLACK
6
CONTINUOUS
10
154.42
20
-124.385
11
154.282
21
-124.357
0
LINE
8
BLACK
6
CONTINUOUS
10
154.282
20
-124.357
11
154.109
21
-124.286
0
LINE
8
BLACK
6
CONTINUOUS
10
154.109
20
-124.286
11
153.953
21
-124.182
0
LINE
8
BLACK
6
CONTINUOUS
10
153.953
20
-124.182
11
153.821
21
-124.05
0
LINE
8
BLACK
6
CONTINUOUS
10
153.821
20
-124.05
11
153.717
21
-123.894
0
LINE
8
BLACK
6
CONTINUOUS
10
153.717
20
-123.894
11
153.646
21
-123.721
0
LINE
8
BLACK
6
CONTINUOUS
10
153.646
20
-123.721
11
153.609
21
-123.538
0
LINE
8
BLACK
6
CONTINUOUS
10
153.609
20
-123.538
11
153.609
21
-123.35
0
LINE
8
BLACK
6
CONTINUOUS
10
153.609
20
-123.35
11
153.646
21
-123.167
0
LINE
8
BLACK
6
CONTINUOUS
10
153.646
20
-123.167
11
153.717
21
-122.994
0
LINE
8
BLACK
6
CONTINUOUS
10
153.717
20
-122.994
11
153.821
21
-122.838
0
LINE
8
BLACK
6
CONTINUOUS
10
153.821
20
-122.838
11
153.953
21
-122.706
0
LINE
8
BLACK
6
CONTINUOUS
10
153.953
20
-122.706
11
154.109
21
-122.602
0
LINE
8
BLACK
6
CONTINUOUS
10
154.109
20
-122.602
11
154.282
21
-122.531
0
LINE
8
BLACK
6
CONTINUOUS
10
154.282
20
-122.531
11
154.42
21
-122.503
0
LINE
8
BLACK
6
CONTINUOUS
10
154.42
20
-122.503
11
154.465
21
-122.494
0
LINE
8
BLACK
6
CONTINUOUS
10
154.465
20
-122.494
11
154.653
21
-122.494
0
LINE
8
BLACK
6
CONTINUOUS
10
154.653
20
-122.494
11
154.698
21
-122.503
0
LINE
8
BLACK
6
CONTINUOUS
10
149.818
20
-122.503
11
149.956
21
-122.531
0
LINE
8
BLACK
6
CONTINUOUS
10
149.956
20
-122.531
11
150.129
21
-122.602
0
LINE
8
BLACK
6
CONTINUOUS
10
150.129
20
-122.602
11
150.285
21
-122.706
0
LINE
8
BLACK
6
CONTINUOUS
10
150.285
20
-122.706
11
150.417
21
-122.838
0
LINE
8
BLACK
6
CONTINUOUS
10
150.417
20
-122.838
11
150.521
21
-122.994
0
LINE
8
BLACK
6
CONTINUOUS
10
150.521
20
-122.994
11
150.592
21
-123.167
0
LINE
8
BLACK
6
CONTINUOUS
10
150.592
20
-123.167
11
150.629
21
-123.35
0
LINE
8
BLACK
6
CONTINUOUS
10
150.629
20
-123.35
11
150.629
21
-123.538
0
LINE
8
BLACK
6
CONTINUOUS
10
150.629
20
-123.538
11
150.592
21
-123.721
0
LINE
8
BLACK
6
CONTINUOUS
10
150.592
20
-123.721
11
150.521
21
-123.894
0
LINE
8
BLACK
6
CONTINUOUS
10
150.521
20
-123.894
11
150.417
21
-124.05
0
LINE
8
BLACK
6
CONTINUOUS
10
150.417
20
-124.05
11
150.285
21
-124.182
0
LINE
8
BLACK
6
CONTINUOUS
10
150.285
20
-124.182
11
150.129
21
-124.286
0
LINE
8
BLACK
6
CONTINUOUS
10
150.129
20
-124.286
11
149.956
21
-124.357
0
LINE
8
BLACK
6
CONTINUOUS
10
149.956
20
-124.357
11
149.818
21
-124.385
0
LINE
8
BLACK
6
CONTINUOUS
10
149.818
20
-124.385
11
149.773
21
-124.394
0
LINE
8
BLACK
6
CONTINUOUS
10
149.773
20
-124.394
11
149.585
21
-124.394
0
LINE
8
BLACK
6
CONTINUOUS
10
149.585
20
-124.394
11
149.54
21
-124.385
0
LINE
8
BLACK
6
CONTINUOUS
10
149.54
20
-124.385
11
149.402
21
-124.357
0
LINE
8
BLACK
6
CONTINUOUS
10
149.402
20
-124.357
11
149.229
21
-124.286
0
LINE
8
BLACK
6
CONTINUOUS
10
149.229
20
-124.286
11
149.073
21
-124.182
0
LINE
8
BLACK
6
CONTINUOUS
10
149.073
20
-124.182
11
148.941
21
-124.05
0
LINE
8
BLACK
6
CONTINUOUS
10
148.941
20
-124.05
11
148.837
21
-123.894
0
LINE
8
BLACK
6
CONTINUOUS
10
148.837
20
-123.894
11
148.766
21
-123.721
0
LINE
8
BLACK
6
CONTINUOUS
10
148.766
20
-123.721
11
148.729
21
-123.538
0
LINE
8
BLACK
6
CONTINUOUS
10
148.729
20
-123.538
11
148.729
21
-123.35
0
LINE
8
BLACK
6
CONTINUOUS
10
148.729
20
-123.35
11
148.766
21
-123.167
0
LINE
8
BLACK
6
CONTINUOUS
10
148.766
20
-123.167
11
148.837
21
-122.994
0
LINE
8
BLACK
6
CONTINUOUS
10
148.837
20
-122.994
11
148.941
21
-122.838
0
LINE
8
BLACK
6
CONTINUOUS
10
148.941
20
-122.838
11
149.073
21
-122.706
0
LINE
8
BLACK
6
CONTINUOUS
10
149.073
20
-122.706
11
149.229
21
-122.602
0
LINE
8
BLACK
6
CONTINUOUS
10
149.229
20
-122.602
11
149.402
21
-122.531
0
LINE
8
BLACK
6
CONTINUOUS
10
149.402
20
-122.531
11
149.54
21
-122.503
0
LINE
8
BLACK
6
CONTINUOUS
10
149.54
20
-122.503
11
149.585
21
-122.494
0
LINE
8
BLACK
6
CONTINUOUS
10
149.585
20
-122.494
11
149.773
21
-122.494
0
LINE
8
BLACK
6
CONTINUOUS
10
149.773
20
-122.494
11
149.818
21
-122.503
0
LINE
8
BLACK
6
CONTINUOUS
10
150.878
20
-101.32
11
150.955
21
-101.327
0
LINE
8
BLACK
6
CONTINUOUS
10
150.955
20
-101.327
11
151.087
21
-101.367
0
LINE
8
BLACK
6
CONTINUOUS
10
151.087
20
-101.367
11
151.153
21
-101.387
0
LINE
8
BLACK
6
CONTINUOUS
10
151.153
20
-101.387
11
151.335
21
-101.485
0
LINE
8
BLACK
6
CONTINUOUS
10
151.335
20
-101.485
11
151.495
21
-101.616
0
LINE
8
BLACK
6
CONTINUOUS
10
151.495
20
-101.616
11
151.626
21
-101.776
0
LINE
8
BLACK
6
CONTINUOUS
10
151.626
20
-101.776
11
151.724
21
-101.958
0
LINE
8
BLACK
6
CONTINUOUS
10
151.724
20
-101.958
11
151.724
21
-101.958
0
LINE
8
BLACK
6
CONTINUOUS
10
151.724
20
-101.958
11
151.784
21
-102.156
0
LINE
8
BLACK
6
CONTINUOUS
10
151.784
20
-102.156
11
151.804
21
-102.362
0
LINE
8
BLACK
6
CONTINUOUS
10
151.804
20
-102.362
11
151.784
21
-102.568
0
LINE
8
BLACK
6
CONTINUOUS
10
151.784
20
-102.568
11
151.744
21
-102.7
0
LINE
8
BLACK
6
CONTINUOUS
10
151.744
20
-102.7
11
151.724
21
-102.766
0
LINE
8
BLACK
6
CONTINUOUS
10
151.724
20
-102.766
11
151.626
21
-102.948
0
LINE
8
BLACK
6
CONTINUOUS
10
151.626
20
-102.948
11
151.495
21
-103.108
0
LINE
8
BLACK
6
CONTINUOUS
10
151.495
20
-103.108
11
151.335
21
-103.239
0
LINE
8
BLACK
6
CONTINUOUS
10
151.335
20
-103.239
11
151.153
21
-103.337
0
LINE
8
BLACK
6
CONTINUOUS
10
151.153
20
-103.337
11
151.087
21
-103.357
0
LINE
8
BLACK
6
CONTINUOUS
10
151.087
20
-103.357
11
150.955
21
-103.397
0
LINE
8
BLACK
6
CONTINUOUS
10
150.955
20
-103.397
11
150.878
21
-103.404
0
LINE
8
BLACK
6
CONTINUOUS
10
150.878
20
-103.404
11
150.801
21
-103.412
0
LINE
8
BLACK
6
CONTINUOUS
10
150.801
20
-103.412
11
150.697
21
-103.412
0
LINE
8
BLACK
6
CONTINUOUS
10
150.697
20
-103.412
11
150.62
21
-103.404
0
LINE
8
BLACK
6
CONTINUOUS
10
150.62
20
-103.404
11
150.543
21
-103.397
0
LINE
8
BLACK
6
CONTINUOUS
10
150.543
20
-103.397
11
150.411
21
-103.357
0
LINE
8
BLACK
6
CONTINUOUS
10
150.411
20
-103.357
11
150.345
21
-103.337
0
LINE
8
BLACK
6
CONTINUOUS
10
150.345
20
-103.337
11
150.163
21
-103.239
0
LINE
8
BLACK
6
CONTINUOUS
10
150.163
20
-103.239
11
150.003
21
-103.108
0
LINE
8
BLACK
6
CONTINUOUS
10
150.003
20
-103.108
11
149.872
21
-102.948
0
LINE
8
BLACK
6
CONTINUOUS
10
149.872
20
-102.948
11
149.774
21
-102.766
0
LINE
8
BLACK
6
CONTINUOUS
10
149.774
20
-102.766
11
149.754
21
-102.7
0
LINE
8
BLACK
6
CONTINUOUS
10
149.754
20
-102.7
11
149.714
21
-102.568
0
LINE
8
BLACK
6
CONTINUOUS
10
149.714
20
-102.568
11
149.694
21
-102.362
0
LINE
8
BLACK
6
CONTINUOUS
10
149.694
20
-102.362
11
149.714
21
-102.156
0
LINE
8
BLACK
6
CONTINUOUS
10
149.714
20
-102.156
11
149.774
21
-101.958
0
LINE
8
BLACK
6
CONTINUOUS
10
149.774
20
-101.958
11
149.774
21
-101.958
0
LINE
8
BLACK
6
CONTINUOUS
10
149.774
20
-101.958
11
149.872
21
-101.776
0
LINE
8
BLACK
6
CONTINUOUS
10
149.872
20
-101.776
11
150.003
21
-101.616
0
LINE
8
BLACK
6
CONTINUOUS
10
150.003
20
-101.616
11
150.163
21
-101.485
0
LINE
8
BLACK
6
CONTINUOUS
10
150.163
20
-101.485
11
150.345
21
-101.387
0
LINE
8
BLACK
6
CONTINUOUS
10
150.345
20
-101.387
11
150.411
21
-101.367
0
LINE
8
BLACK
6
CONTINUOUS
10
150.411
20
-101.367
11
150.543
21
-101.327
0
LINE
8
BLACK
6
CONTINUOUS
10
150.543
20
-101.327
11
150.62
21
-101.32
0
LINE
8
BLACK
6
CONTINUOUS
10
150.62
20
-101.32
11
150.697
21
-101.312
0
LINE
8
BLACK
6
CONTINUOUS
10
150.697
20
-101.312
11
150.801
21
-101.312
0
LINE
8
BLACK
6
CONTINUOUS
10
150.801
20
-101.312
11
150.878
21
-101.32
0
LINE
8
BLACK
6
CONTINUOUS
10
155.958
20
-101.32
11
156.035
21
-101.327
0
LINE
8
BLACK
6
CONTINUOUS
10
156.035
20
-101.327
11
156.167
21
-101.367
0
LINE
8
BLACK
6
CONTINUOUS
10
156.167
20
-101.367
11
156.233
21
-101.387
0
LINE
8
BLACK
6
CONTINUOUS
10
156.233
20
-101.387
11
156.415
21
-101.485
0
LINE
8
BLACK
6
CONTINUOUS
10
156.415
20
-101.485
11
156.575
21
-101.616
0
LINE
8
BLACK
6
CONTINUOUS
10
156.575
20
-101.616
11
156.706
21
-101.776
0
LINE
8
BLACK
6
CONTINUOUS
10
156.706
20
-101.776
11
156.804
21
-101.958
0
LINE
8
BLACK
6
CONTINUOUS
10
156.804
20
-101.958
11
156.804
21
-101.958
0
LINE
8
BLACK
6
CONTINUOUS
10
156.804
20
-101.958
11
156.864
21
-102.156
0
LINE
8
BLACK
6
CONTINUOUS
10
156.864
20
-102.156
11
156.884
21
-102.362
0
LINE
8
BLACK
6
CONTINUOUS
10
156.884
20
-102.362
11
156.864
21
-102.568
0
LINE
8
BLACK
6
CONTINUOUS
10
156.864
20
-102.568
11
156.824
21
-102.7
0
LINE
8
BLACK
6
CONTINUOUS
10
156.824
20
-102.7
11
156.804
21
-102.766
0
LINE
8
BLACK
6
CONTINUOUS
10
156.804
20
-102.766
11
156.706
21
-102.948
0
LINE
8
BLACK
6
CONTINUOUS
10
156.706
20
-102.948
11
156.575
21
-103.108
0
LINE
8
BLACK
6
CONTINUOUS
10
156.575
20
-103.108
11
156.415
21
-103.239
0
LINE
8
BLACK
6
CONTINUOUS
10
156.415
20
-103.239
11
156.233
21
-103.337
0
LINE
8
BLACK
6
CONTINUOUS
10
156.233
20
-103.337
11
156.167
21
-103.357
0
LINE
8
BLACK
6
CONTINUOUS
10
156.167
20
-103.357
11
156.035
21
-103.397
0
LINE
8
BLACK
6
CONTINUOUS
10
156.035
20
-103.397
11
155.958
21
-103.404
0
LINE
8
BLACK
6
CONTINUOUS
10
155.958
20
-103.404
11
155.881
21
-103.412
0
LINE
8
BLACK
6
CONTINUOUS
10
155.881
20
-103.412
11
155.777
21
-103.412
0
LINE
8
BLACK
6
CONTINUOUS
10
155.777
20
-103.412
11
155.7
21
-103.404
0
LINE
8
BLACK
6
CONTINUOUS
10
155.7
20
-103.404
11
155.623
21
-103.397
0
LINE
8
BLACK
6
CONTINUOUS
10
155.623
20
-103.397
11
155.491
21
-103.357
0
LINE
8
BLACK
6
CONTINUOUS
10
155.491
20
-103.357
11
155.425
21
-103.337
0
LINE
8
BLACK
6
CONTINUOUS
10
155.425
20
-103.337
11
155.243
21
-103.239
0
LINE
8
BLACK
6
CONTINUOUS
10
155.243
20
-103.239
11
155.083
21
-103.108
0
LINE
8
BLACK
6
CONTINUOUS
10
155.083
20
-103.108
11
154.952
21
-102.948
0
LINE
8
BLACK
6
CONTINUOUS
10
154.952
20
-102.948
11
154.854
21
-102.766
0
LINE
8
BLACK
6
CONTINUOUS
10
154.854
20
-102.766
11
154.834
21
-102.7
0
LINE
8
BLACK
6
CONTINUOUS
10
154.834
20
-102.7
11
154.794
21
-102.568
0
LINE
8
BLACK
6
CONTINUOUS
10
154.794
20
-102.568
11
154.774
21
-102.362
0
LINE
8
BLACK
6
CONTINUOUS
10
154.774
20
-102.362
11
154.794
21
-102.156
0
LINE
8
BLACK
6
CONTINUOUS
10
154.794
20
-102.156
11
154.854
21
-101.958
0
LINE
8
BLACK
6
CONTINUOUS
10
154.854
20
-101.958
11
154.854
21
-101.958
0
LINE
8
BLACK
6
CONTINUOUS
10
154.854
20
-101.958
11
154.952
21
-101.776
0
LINE
8
BLACK
6
CONTINUOUS
10
154.952
20
-101.776
11
155.083
21
-101.616
0
LINE
8
BLACK
6
CONTINUOUS
10
155.083
20
-101.616
11
155.243
21
-101.485
0
LINE
8
BLACK
6
CONTINUOUS
10
155.243
20
-101.485
11
155.425
21
-101.387
0
LINE
8
BLACK
6
CONTINUOUS
10
155.425
20
-101.387
11
155.491
21
-101.367
0
LINE
8
BLACK
6
CONTINUOUS
10
155.491
20
-101.367
11
155.623
21
-101.327
0
LINE
8
BLACK
6
CONTINUOUS
10
155.623
20
-101.327
11
155.7
21
-101.32
0
LINE
8
BLACK
6
CONTINUOUS
10
155.7
20
-101.32
11
155.777
21
-101.312
0
LINE
8
BLACK
6
CONTINUOUS
10
155.777
20
-101.312
11
155.881
21
-101.312
0
LINE
8
BLACK
6
CONTINUOUS
10
155.881
20
-101.312
11
155.958
21
-101.32
0
LINE
8
BLACK
6
CONTINUOUS
10
153.418
20
-101.32
11
153.495
21
-101.327
0
LINE
8
BLACK
6
CONTINUOUS
10
153.495
20
-101.327
11
153.627
21
-101.367
0
LINE
8
BLACK
6
CONTINUOUS
10
153.627
20
-101.367
11
153.693
21
-101.387
0
LINE
8
BLACK
6
CONTINUOUS
10
153.693
20
-101.387
11
153.875
21
-101.485
0
LINE
8
BLACK
6
CONTINUOUS
10
153.875
20
-101.485
11
154.035
21
-101.616
0
LINE
8
BLACK
6
CONTINUOUS
10
154.035
20
-101.616
11
154.166
21
-101.776
0
LINE
8
BLACK
6
CONTINUOUS
10
154.166
20
-101.776
11
154.264
21
-101.958
0
LINE
8
BLACK
6
CONTINUOUS
10
154.264
20
-101.958
11
154.264
21
-101.958
0
LINE
8
BLACK
6
CONTINUOUS
10
154.264
20
-101.958
11
154.324
21
-102.156
0
LINE
8
BLACK
6
CONTINUOUS
10
154.324
20
-102.156
11
154.344
21
-102.362
0
LINE
8
BLACK
6
CONTINUOUS
10
154.344
20
-102.362
11
154.324
21
-102.568
0
LINE
8
BLACK
6
CONTINUOUS
10
154.324
20
-102.568
11
154.284
21
-102.7
0
LINE
8
BLACK
6
CONTINUOUS
10
154.284
20
-102.7
11
154.264
21
-102.766
0
LINE
8
BLACK
6
CONTINUOUS
10
154.264
20
-102.766
11
154.166
21
-102.948
0
LINE
8
BLACK
6
CONTINUOUS
10
154.166
20
-102.948
11
154.035
21
-103.108
0
LINE
8
BLACK
6
CONTINUOUS
10
154.035
20
-103.108
11
153.875
21
-103.239
0
LINE
8
BLACK
6
CONTINUOUS
10
153.875
20
-103.239
11
153.693
21
-103.337
0
LINE
8
BLACK
6
CONTINUOUS
10
153.693
20
-103.337
11
153.627
21
-103.357
0
LINE
8
BLACK
6
CONTINUOUS
10
153.627
20
-103.357
11
153.495
21
-103.397
0
LINE
8
BLACK
6
CONTINUOUS
10
153.495
20
-103.397
11
153.418
21
-103.404
0
LINE
8
BLACK
6
CONTINUOUS
10
153.418
20
-103.404
11
153.341
21
-103.412
0
LINE
8
BLACK
6
CONTINUOUS
10
153.341
20
-103.412
11
153.237
21
-103.412
0
LINE
8
BLACK
6
CONTINUOUS
10
153.237
20
-103.412
11
153.16
21
-103.404
0
LINE
8
BLACK
6
CONTINUOUS
10
153.16
20
-103.404
11
153.083
21
-103.397
0
LINE
8
BLACK
6
CONTINUOUS
10
153.083
20
-103.397
11
152.951
21
-103.357
0
LINE
8
BLACK
6
CONTINUOUS
10
152.951
20
-103.357
11
152.885
21
-103.337
0
LINE
8
BLACK
6
CONTINUOUS
10
152.885
20
-103.337
11
152.703
21
-103.239
0
LINE
8
BLACK
6
CONTINUOUS
10
152.703
20
-103.239
11
152.543
21
-103.108
0
LINE
8
BLACK
6
CONTINUOUS
10
152.543
20
-103.108
11
152.412
21
-102.948
0
LINE
8
BLACK
6
CONTINUOUS
10
152.412
20
-102.948
11
152.314
21
-102.766
0
LINE
8
BLACK
6
CONTINUOUS
10
152.314
20
-102.766
11
152.294
21
-102.7
0
LINE
8
BLACK
6
CONTINUOUS
10
152.294
20
-102.7
11
152.254
21
-102.568
0
LINE
8
BLACK
6
CONTINUOUS
10
152.254
20
-102.568
11
152.234
21
-102.362
0
LINE
8
BLACK
6
CONTINUOUS
10
152.234
20
-102.362
11
152.254
21
-102.156
0
LINE
8
BLACK
6
CONTINUOUS
10
152.254
20
-102.156
11
152.314
21
-101.958
0
LINE
8
BLACK
6
CONTINUOUS
10
152.314
20
-101.958
11
152.314
21
-101.958
0
LINE
8
BLACK
6
CONTINUOUS
10
152.314
20
-101.958
11
152.412
21
-101.776
0
LINE
8
BLACK
6
CONTINUOUS
10
152.412
20
-101.776
11
152.543
21
-101.616
0
LINE
8
BLACK
6
CONTINUOUS
10
152.543
20
-101.616
11
152.703
21
-101.485
0
LINE
8
BLACK
6
CONTINUOUS
10
152.703
20
-101.485
11
152.885
21
-101.387
0
LINE
8
BLACK
6
CONTINUOUS
10
152.885
20
-101.387
11
152.951
21
-101.367
0
LINE
8
BLACK
6
CONTINUOUS
10
152.951
20
-101.367
11
153.083
21
-101.327
0
LINE
8
BLACK
6
CONTINUOUS
10
153.083
20
-101.327
11
153.16
21
-101.32
0
LINE
8
BLACK
6
CONTINUOUS
10
153.16
20
-101.32
11
153.237
21
-101.312
0
LINE
8
BLACK
6
CONTINUOUS
10
153.237
20
-101.312
11
153.341
21
-101.312
0
LINE
8
BLACK
6
CONTINUOUS
10
153.341
20
-101.312
11
153.418
21
-101.32
0
LINE
8
BLACK
6
CONTINUOUS
10
149.259
20
-103.412
11
147.159
21
-103.412
0
LINE
8
BLACK
6
CONTINUOUS
10
147.159
20
-103.412
11
147.159
21
-101.312
0
LINE
8
BLACK
6
CONTINUOUS
10
147.159
20
-101.312
11
149.259
21
-101.312
0
LINE
8
BLACK
6
CONTINUOUS
10
149.259
20
-101.312
11
149.259
21
-103.412
0
LINE
8
BLACK
6
CONTINUOUS
10
158.498
20
-101.32
11
158.575
21
-101.327
0
LINE
8
BLACK
6
CONTINUOUS
10
158.575
20
-101.327
11
158.707
21
-101.367
0
LINE
8
BLACK
6
CONTINUOUS
10
158.707
20
-101.367
11
158.773
21
-101.387
0
LINE
8
BLACK
6
CONTINUOUS
10
158.773
20
-101.387
11
158.955
21
-101.485
0
LINE
8
BLACK
6
CONTINUOUS
10
158.955
20
-101.485
11
159.115
21
-101.616
0
LINE
8
BLACK
6
CONTINUOUS
10
159.115
20
-101.616
11
159.246
21
-101.776
0
LINE
8
BLACK
6
CONTINUOUS
10
159.246
20
-101.776
11
159.344
21
-101.958
0
LINE
8
BLACK
6
CONTINUOUS
10
159.344
20
-101.958
11
159.344
21
-101.958
0
LINE
8
BLACK
6
CONTINUOUS
10
159.344
20
-101.958
11
159.404
21
-102.156
0
LINE
8
BLACK
6
CONTINUOUS
10
159.404
20
-102.156
11
159.424
21
-102.362
0
LINE
8
BLACK
6
CONTINUOUS
10
159.424
20
-102.362
11
159.404
21
-102.568
0
LINE
8
BLACK
6
CONTINUOUS
10
159.404
20
-102.568
11
159.364
21
-102.7
0
LINE
8
BLACK
6
CONTINUOUS
10
159.364
20
-102.7
11
159.344
21
-102.766
0
LINE
8
BLACK
6
CONTINUOUS
10
159.344
20
-102.766
11
159.246
21
-102.948
0
LINE
8
BLACK
6
CONTINUOUS
10
159.246
20
-102.948
11
159.115
21
-103.108
0
LINE
8
BLACK
6
CONTINUOUS
10
159.115
20
-103.108
11
158.955
21
-103.239
0
LINE
8
BLACK
6
CONTINUOUS
10
158.955
20
-103.239
11
158.773
21
-103.337
0
LINE
8
BLACK
6
CONTINUOUS
10
158.773
20
-103.337
11
158.707
21
-103.357
0
LINE
8
BLACK
6
CONTINUOUS
10
158.707
20
-103.357
11
158.575
21
-103.397
0
LINE
8
BLACK
6
CONTINUOUS
10
158.575
20
-103.397
11
158.498
21
-103.404
0
LINE
8
BLACK
6
CONTINUOUS
10
158.498
20
-103.404
11
158.421
21
-103.412
0
LINE
8
BLACK
6
CONTINUOUS
10
158.421
20
-103.412
11
158.317
21
-103.412
0
LINE
8
BLACK
6
CONTINUOUS
10
158.317
20
-103.412
11
158.24
21
-103.404
0
LINE
8
BLACK
6
CONTINUOUS
10
158.24
20
-103.404
11
158.163
21
-103.397
0
LINE
8
BLACK
6
CONTINUOUS
10
158.163
20
-103.397
11
158.031
21
-103.357
0
LINE
8
BLACK
6
CONTINUOUS
10
158.031
20
-103.357
11
157.965
21
-103.337
0
LINE
8
BLACK
6
CONTINUOUS
10
157.965
20
-103.337
11
157.783
21
-103.239
0
LINE
8
BLACK
6
CONTINUOUS
10
157.783
20
-103.239
11
157.623
21
-103.108
0
LINE
8
BLACK
6
CONTINUOUS
10
157.623
20
-103.108
11
157.492
21
-102.948
0
LINE
8
BLACK
6
CONTINUOUS
10
157.492
20
-102.948
11
157.394
21
-102.766
0
LINE
8
BLACK
6
CONTINUOUS
10
157.394
20
-102.766
11
157.374
21
-102.7
0
LINE
8
BLACK
6
CONTINUOUS
10
157.374
20
-102.7
11
157.334
21
-102.568
0
LINE
8
BLACK
6
CONTINUOUS
10
157.334
20
-102.568
11
157.314
21
-102.362
0
LINE
8
BLACK
6
CONTINUOUS
10
157.314
20
-102.362
11
157.334
21
-102.156
0
LINE
8
BLACK
6
CONTINUOUS
10
157.334
20
-102.156
11
157.394
21
-101.958
0
LINE
8
BLACK
6
CONTINUOUS
10
157.394
20
-101.958
11
157.394
21
-101.958
0
LINE
8
BLACK
6
CONTINUOUS
10
157.394
20
-101.958
11
157.492
21
-101.776
0
LINE
8
BLACK
6
CONTINUOUS
10
157.492
20
-101.776
11
157.623
21
-101.616
0
LINE
8
BLACK
6
CONTINUOUS
10
157.623
20
-101.616
11
157.783
21
-101.485
0
LINE
8
BLACK
6
CONTINUOUS
10
157.783
20
-101.485
11
157.965
21
-101.387
0
LINE
8
BLACK
6
CONTINUOUS
10
157.965
20
-101.387
11
158.031
21
-101.367
0
LINE
8
BLACK
6
CONTINUOUS
10
158.031
20
-101.367
11
158.163
21
-101.327
0
LINE
8
BLACK
6
CONTINUOUS
10
158.163
20
-101.327
11
158.24
21
-101.32
0
LINE
8
BLACK
6
CONTINUOUS
10
158.24
20
-101.32
11
158.317
21
-101.312
0
LINE
8
BLACK
6
CONTINUOUS
10
158.317
20
-101.312
11
158.421
21
-101.312
0
LINE
8
BLACK
6
CONTINUOUS
10
158.421
20
-101.312
11
158.498
21
-101.32
0
LINE
8
BLACK
6
CONTINUOUS
10
158.498
20
-98.7796
11
158.575
21
-98.7872
0
LINE
8
BLACK
6
CONTINUOUS
10
158.575
20
-98.7872
11
158.707
21
-98.8272
0
LINE
8
BLACK
6
CONTINUOUS
10
158.707
20
-98.8272
11
158.773
21
-98.8472
0
LINE
8
BLACK
6
CONTINUOUS
10
158.773
20
-98.8472
11
158.955
21
-98.9447
0
LINE
8
BLACK
6
CONTINUOUS
10
158.955
20
-98.9447
11
159.115
21
-99.0759
0
LINE
8
BLACK
6
CONTINUOUS
10
159.115
20
-99.0759
11
159.246
21
-99.2358
0
LINE
8
BLACK
6
CONTINUOUS
10
159.246
20
-99.2358
11
159.344
21
-99.4182
0
LINE
8
BLACK
6
CONTINUOUS
10
159.344
20
-99.4182
11
159.344
21
-99.4182
0
LINE
8
BLACK
6
CONTINUOUS
10
159.344
20
-99.4182
11
159.404
21
-99.6162
0
LINE
8
BLACK
6
CONTINUOUS
10
159.404
20
-99.6162
11
159.424
21
-99.822
0
LINE
8
BLACK
6
CONTINUOUS
10
159.424
20
-99.822
11
159.404
21
-100.028
0
LINE
8
BLACK
6
CONTINUOUS
10
159.404
20
-100.028
11
159.364
21
-100.16
0
LINE
8
BLACK
6
CONTINUOUS
10
159.364
20
-100.16
11
159.344
21
-100.226
0
LINE
8
BLACK
6
CONTINUOUS
10
159.344
20
-100.226
11
159.246
21
-100.408
0
LINE
8
BLACK
6
CONTINUOUS
10
159.246
20
-100.408
11
159.115
21
-100.568
0
LINE
8
BLACK
6
CONTINUOUS
10
159.115
20
-100.568
11
158.955
21
-100.699
0
LINE
8
BLACK
6
CONTINUOUS
10
158.955
20
-100.699
11
158.773
21
-100.797
0
LINE
8
BLACK
6
CONTINUOUS
10
158.773
20
-100.797
11
158.707
21
-100.817
0
LINE
8
BLACK
6
CONTINUOUS
10
158.707
20
-100.817
11
158.575
21
-100.857
0
LINE
8
BLACK
6
CONTINUOUS
10
158.575
20
-100.857
11
158.498
21
-100.864
0
LINE
8
BLACK
6
CONTINUOUS
10
158.498
20
-100.864
11
158.421
21
-100.872
0
LINE
8
BLACK
6
CONTINUOUS
10
158.421
20
-100.872
11
158.317
21
-100.872
0
LINE
8
BLACK
6
CONTINUOUS
10
158.317
20
-100.872
11
158.24
21
-100.864
0
LINE
8
BLACK
6
CONTINUOUS
10
158.24
20
-100.864
11
158.163
21
-100.857
0
LINE
8
BLACK
6
CONTINUOUS
10
158.163
20
-100.857
11
158.031
21
-100.817
0
LINE
8
BLACK
6
CONTINUOUS
10
158.031
20
-100.817
11
157.965
21
-100.797
0
LINE
8
BLACK
6
CONTINUOUS
10
157.965
20
-100.797
11
157.783
21
-100.699
0
LINE
8
BLACK
6
CONTINUOUS
10
157.783
20
-100.699
11
157.623
21
-100.568
0
LINE
8
BLACK
6
CONTINUOUS
10
157.623
20
-100.568
11
157.492
21
-100.408
0
LINE
8
BLACK
6
CONTINUOUS
10
157.492
20
-100.408
11
157.394
21
-100.226
0
LINE
8
BLACK
6
CONTINUOUS
10
157.394
20
-100.226
11
157.374
21
-100.16
0
LINE
8
BLACK
6
CONTINUOUS
10
157.374
20
-100.16
11
157.334
21
-100.028
0
LINE
8
BLACK
6
CONTINUOUS
10
157.334
20
-100.028
11
157.314
21
-99.822
0
LINE
8
BLACK
6
CONTINUOUS
10
157.314
20
-99.822
11
157.334
21
-99.6162
0
LINE
8
BLACK
6
CONTINUOUS
10
157.334
20
-99.6162
11
157.394
21
-99.4182
0
LINE
8
BLACK
6
CONTINUOUS
10
157.394
20
-99.4182
11
157.394
21
-99.4182
0
LINE
8
BLACK
6
CONTINUOUS
10
157.394
20
-99.4182
11
157.492
21
-99.2358
0
LINE
8
BLACK
6
CONTINUOUS
10
157.492
20
-99.2358
11
157.623
21
-99.0759
0
LINE
8
BLACK
6
CONTINUOUS
10
157.623
20
-99.0759
11
157.783
21
-98.9447
0
LINE
8
BLACK
6
CONTINUOUS
10
157.783
20
-98.9447
11
157.965
21
-98.8472
0
LINE
8
BLACK
6
CONTINUOUS
10
157.965
20
-98.8472
11
158.031
21
-98.8272
0
LINE
8
BLACK
6
CONTINUOUS
10
158.031
20
-98.8272
11
158.163
21
-98.7872
0
LINE
8
BLACK
6
CONTINUOUS
10
158.163
20
-98.7872
11
158.24
21
-98.7796
0
LINE
8
BLACK
6
CONTINUOUS
10
158.24
20
-98.7796
11
158.317
21
-98.772
0
LINE
8
BLACK
6
CONTINUOUS
10
158.317
20
-98.772
11
158.421
21
-98.772
0
LINE
8
BLACK
6
CONTINUOUS
10
158.421
20
-98.772
11
158.498
21
-98.7796
0
LINE
8
BLACK
6
CONTINUOUS
10
155.958
20
-98.7796
11
156.035
21
-98.7872
0
LINE
8
BLACK
6
CONTINUOUS
10
156.035
20
-98.7872
11
156.167
21
-98.8272
0
LINE
8
BLACK
6
CONTINUOUS
10
156.167
20
-98.8272
11
156.233
21
-98.8472
0
LINE
8
BLACK
6
CONTINUOUS
10
156.233
20
-98.8472
11
156.415
21
-98.9447
0
LINE
8
BLACK
6
CONTINUOUS
10
156.415
20
-98.9447
11
156.575
21
-99.0759
0
LINE
8
BLACK
6
CONTINUOUS
10
156.575
20
-99.0759
11
156.706
21
-99.2358
0
LINE
8
BLACK
6
CONTINUOUS
10
156.706
20
-99.2358
11
156.804
21
-99.4182
0
LINE
8
BLACK
6
CONTINUOUS
10
156.804
20
-99.4182
11
156.804
21
-99.4182
0
LINE
8
BLACK
6
CONTINUOUS
10
156.804
20
-99.4182
11
156.864
21
-99.6162
0
LINE
8
BLACK
6
CONTINUOUS
10
156.864
20
-99.6162
11
156.884
21
-99.822
0
LINE
8
BLACK
6
CONTINUOUS
10
156.884
20
-99.822
11
156.864
21
-100.028
0
LINE
8
BLACK
6
CONTINUOUS
10
156.864
20
-100.028
11
156.824
21
-100.16
0
LINE
8
BLACK
6
CONTINUOUS
10
156.824
20
-100.16
11
156.804
21
-100.226
0
LINE
8
BLACK
6
CONTINUOUS
10
156.804
20
-100.226
11
156.706
21
-100.408
0
LINE
8
BLACK
6
CONTINUOUS
10
156.706
20
-100.408
11
156.575
21
-100.568
0
LINE
8
BLACK
6
CONTINUOUS
10
156.575
20
-100.568
11
156.415
21
-100.699
0
LINE
8
BLACK
6
CONTINUOUS
10
156.415
20
-100.699
11
156.233
21
-100.797
0
LINE
8
BLACK
6
CONTINUOUS
10
156.233
20
-100.797
11
156.167
21
-100.817
0
LINE
8
BLACK
6
CONTINUOUS
10
156.167
20
-100.817
11
156.035
21
-100.857
0
LINE
8
BLACK
6
CONTINUOUS
10
156.035
20
-100.857
11
155.958
21
-100.864
0
LINE
8
BLACK
6
CONTINUOUS
10
155.958
20
-100.864
11
155.881
21
-100.872
0
LINE
8
BLACK
6
CONTINUOUS
10
155.881
20
-100.872
11
155.777
21
-100.872
0
LINE
8
BLACK
6
CONTINUOUS
10
155.777
20
-100.872
11
155.7
21
-100.864
0
LINE
8
BLACK
6
CONTINUOUS
10
155.7
20
-100.864
11
155.623
21
-100.857
0
LINE
8
BLACK
6
CONTINUOUS
10
155.623
20
-100.857
11
155.491
21
-100.817
0
LINE
8
BLACK
6
CONTINUOUS
10
155.491
20
-100.817
11
155.425
21
-100.797
0
LINE
8
BLACK
6
CONTINUOUS
10
155.425
20
-100.797
11
155.243
21
-100.699
0
LINE
8
BLACK
6
CONTINUOUS
10
155.243
20
-100.699
11
155.083
21
-100.568
0
LINE
8
BLACK
6
CONTINUOUS
10
155.083
20
-100.568
11
154.952
21
-100.408
0
LINE
8
BLACK
6
CONTINUOUS
10
154.952
20
-100.408
11
154.854
21
-100.226
0
LINE
8
BLACK
6
CONTINUOUS
10
154.854
20
-100.226
11
154.834
21
-100.16
0
LINE
8
BLACK
6
CONTINUOUS
10
154.834
20
-100.16
11
154.794
21
-100.028
0
LINE
8
BLACK
6
CONTINUOUS
10
154.794
20
-100.028
11
154.774
21
-99.822
0
LINE
8
BLACK
6
CONTINUOUS
10
154.774
20
-99.822
11
154.794
21
-99.6162
0
LINE
8
BLACK
6
CONTINUOUS
10
154.794
20
-99.6162
11
154.854
21
-99.4182
0
LINE
8
BLACK
6
CONTINUOUS
10
154.854
20
-99.4182
11
154.854
21
-99.4182
0
LINE
8
BLACK
6
CONTINUOUS
10
154.854
20
-99.4182
11
154.952
21
-99.2358
0
LINE
8
BLACK
6
CONTINUOUS
10
154.952
20
-99.2358
11
155.083
21
-99.0759
0
LINE
8
BLACK
6
CONTINUOUS
10
155.083
20
-99.0759
11
155.243
21
-98.9447
0
LINE
8
BLACK
6
CONTINUOUS
10
155.243
20
-98.9447
11
155.425
21
-98.8472
0
LINE
8
BLACK
6
CONTINUOUS
10
155.425
20
-98.8472
11
155.491
21
-98.8272
0
LINE
8
BLACK
6
CONTINUOUS
10
155.491
20
-98.8272
11
155.623
21
-98.7872
0
LINE
8
BLACK
6
CONTINUOUS
10
155.623
20
-98.7872
11
155.7
21
-98.7796
0
LINE
8
BLACK
6
CONTINUOUS
10
155.7
20
-98.7796
11
155.777
21
-98.772
0
LINE
8
BLACK
6
CONTINUOUS
10
155.777
20
-98.772
11
155.881
21
-98.772
0
LINE
8
BLACK
6
CONTINUOUS
10
155.881
20
-98.772
11
155.958
21
-98.7796
0
LINE
8
BLACK
6
CONTINUOUS
10
153.418
20
-98.7796
11
153.495
21
-98.7872
0
LINE
8
BLACK
6
CONTINUOUS
10
153.495
20
-98.7872
11
153.627
21
-98.8272
0
LINE
8
BLACK
6
CONTINUOUS
10
153.627
20
-98.8272
11
153.693
21
-98.8472
0
LINE
8
BLACK
6
CONTINUOUS
10
153.693
20
-98.8472
11
153.875
21
-98.9447
0
LINE
8
BLACK
6
CONTINUOUS
10
153.875
20
-98.9447
11
154.035
21
-99.0759
0
LINE
8
BLACK
6
CONTINUOUS
10
154.035
20
-99.0759
11
154.166
21
-99.2358
0
LINE
8
BLACK
6
CONTINUOUS
10
154.166
20
-99.2358
11
154.264
21
-99.4182
0
LINE
8
BLACK
6
CONTINUOUS
10
154.264
20
-99.4182
11
154.264
21
-99.4182
0
LINE
8
BLACK
6
CONTINUOUS
10
154.264
20
-99.4182
11
154.324
21
-99.6162
0
LINE
8
BLACK
6
CONTINUOUS
10
154.324
20
-99.6162
11
154.344
21
-99.822
0
LINE
8
BLACK
6
CONTINUOUS
10
154.344
20
-99.822
11
154.324
21
-100.028
0
LINE
8
BLACK
6
CONTINUOUS
10
154.324
20
-100.028
11
154.284
21
-100.16
0
LINE
8
BLACK
6
CONTINUOUS
10
154.284
20
-100.16
11
154.264
21
-100.226
0
LINE
8
BLACK
6
CONTINUOUS
10
154.264
20
-100.226
11
154.166
21
-100.408
0
LINE
8
BLACK
6
CONTINUOUS
10
154.166
20
-100.408
11
154.035
21
-100.568
0
LINE
8
BLACK
6
CONTINUOUS
10
154.035
20
-100.568
11
153.875
21
-100.699
0
LINE
8
BLACK
6
CONTINUOUS
10
153.875
20
-100.699
11
153.693
21
-100.797
0
LINE
8
BLACK
6
CONTINUOUS
10
153.693
20
-100.797
11
153.627
21
-100.817
0
LINE
8
BLACK
6
CONTINUOUS
10
153.627
20
-100.817
11
153.495
21
-100.857
0
LINE
8
BLACK
6
CONTINUOUS
10
153.495
20
-100.857
11
153.418
21
-100.864
0
LINE
8
BLACK
6
CONTINUOUS
10
153.418
20
-100.864
11
153.341
21
-100.872
0
LINE
8
BLACK
6
CONTINUOUS
10
153.341
20
-100.872
11
153.237
21
-100.872
0
LINE
8
BLACK
6
CONTINUOUS
10
153.237
20
-100.872
11
153.16
21
-100.864
0
LINE
8
BLACK
6
CONTINUOUS
10
153.16
20
-100.864
11
153.083
21
-100.857
0
LINE
8
BLACK
6
CONTINUOUS
10
153.083
20
-100.857
11
152.951
21
-100.817
0
LINE
8
BLACK
6
CONTINUOUS
10
152.951
20
-100.817
11
152.885
21
-100.797
0
LINE
8
BLACK
6
CONTINUOUS
10
152.885
20
-100.797
11
152.703
21
-100.699
0
LINE
8
BLACK
6
CONTINUOUS
10
152.703
20
-100.699
11
152.543
21
-100.568
0
LINE
8
BLACK
6
CONTINUOUS
10
152.543
20
-100.568
11
152.412
21
-100.408
0
LINE
8
BLACK
6
CONTINUOUS
10
152.412
20
-100.408
11
152.314
21
-100.226
0
LINE
8
BLACK
6
CONTINUOUS
10
152.314
20
-100.226
11
152.294
21
-100.16
0
LINE
8
BLACK
6
CONTINUOUS
10
152.294
20
-100.16
11
152.254
21
-100.028
0
LINE
8
BLACK
6
CONTINUOUS
10
152.254
20
-100.028
11
152.234
21
-99.822
0
LINE
8
BLACK
6
CONTINUOUS
10
152.234
20
-99.822
11
152.254
21
-99.6162
0
LINE
8
BLACK
6
CONTINUOUS
10
152.254
20
-99.6162
11
152.314
21
-99.4182
0
LINE
8
BLACK
6
CONTINUOUS
10
152.314
20
-99.4182
11
152.314
21
-99.4182
0
LINE
8
BLACK
6
CONTINUOUS
10
152.314
20
-99.4182
11
152.412
21
-99.2358
0
LINE
8
BLACK
6
CONTINUOUS
10
152.412
20
-99.2358
11
152.543
21
-99.0759
0
LINE
8
BLACK
6
CONTINUOUS
10
152.543
20
-99.0759
11
152.703
21
-98.9447
0
LINE
8
BLACK
6
CONTINUOUS
10
152.703
20
-98.9447
11
152.885
21
-98.8472
0
LINE
8
BLACK
6
CONTINUOUS
10
152.885
20
-98.8472
11
152.951
21
-98.8272
0
LINE
8
BLACK
6
CONTINUOUS
10
152.951
20
-98.8272
11
153.083
21
-98.7872
0
LINE
8
BLACK
6
CONTINUOUS
10
153.083
20
-98.7872
11
153.16
21
-98.7796
0
LINE
8
BLACK
6
CONTINUOUS
10
153.16
20
-98.7796
11
153.237
21
-98.772
0
LINE
8
BLACK
6
CONTINUOUS
10
153.237
20
-98.772
11
153.341
21
-98.772
0
LINE
8
BLACK
6
CONTINUOUS
10
153.341
20
-98.772
11
153.418
21
-98.7796
0
LINE
8
BLACK
6
CONTINUOUS
10
148.338
20
-98.7796
11
148.415
21
-98.7872
0
LINE
8
BLACK
6
CONTINUOUS
10
148.415
20
-98.7872
11
148.547
21
-98.8272
0
LINE
8
BLACK
6
CONTINUOUS
10
148.547
20
-98.8272
11
148.613
21
-98.8472
0
LINE
8
BLACK
6
CONTINUOUS
10
148.613
20
-98.8472
11
148.795
21
-98.9447
0
LINE
8
BLACK
6
CONTINUOUS
10
148.795
20
-98.9447
11
148.955
21
-99.0759
0
LINE
8
BLACK
6
CONTINUOUS
10
148.955
20
-99.0759
11
149.086
21
-99.2358
0
LINE
8
BLACK
6
CONTINUOUS
10
149.086
20
-99.2358
11
149.184
21
-99.4182
0
LINE
8
BLACK
6
CONTINUOUS
10
149.184
20
-99.4182
11
149.184
21
-99.4182
0
LINE
8
BLACK
6
CONTINUOUS
10
149.184
20
-99.4182
11
149.244
21
-99.6162
0
LINE
8
BLACK
6
CONTINUOUS
10
149.244
20
-99.6162
11
149.264
21
-99.822
0
LINE
8
BLACK
6
CONTINUOUS
10
149.264
20
-99.822
11
149.244
21
-100.028
0
LINE
8
BLACK
6
CONTINUOUS
10
149.244
20
-100.028
11
149.204
21
-100.16
0
LINE
8
BLACK
6
CONTINUOUS
10
149.204
20
-100.16
11
149.184
21
-100.226
0
LINE
8
BLACK
6
CONTINUOUS
10
149.184
20
-100.226
11
149.086
21
-100.408
0
LINE
8
BLACK
6
CONTINUOUS
10
149.086
20
-100.408
11
148.955
21
-100.568
0
LINE
8
BLACK
6
CONTINUOUS
10
148.955
20
-100.568
11
148.795
21
-100.699
0
LINE
8
BLACK
6
CONTINUOUS
10
148.795
20
-100.699
11
148.613
21
-100.797
0
LINE
8
BLACK
6
CONTINUOUS
10
148.613
20
-100.797
11
148.547
21
-100.817
0
LINE
8
BLACK
6
CONTINUOUS
10
148.547
20
-100.817
11
148.415
21
-100.857
0
LINE
8
BLACK
6
CONTINUOUS
10
148.415
20
-100.857
11
148.338
21
-100.864
0
LINE
8
BLACK
6
CONTINUOUS
10
148.338
20
-100.864
11
148.261
21
-100.872
0
LINE
8
BLACK
6
CONTINUOUS
10
148.261
20
-100.872
11
148.157
21
-100.872
0
LINE
8
BLACK
6
CONTINUOUS
10
148.157
20
-100.872
11
148.08
21
-100.864
0
LINE
8
BLACK
6
CONTINUOUS
10
148.08
20
-100.864
11
148.003
21
-100.857
0
LINE
8
BLACK
6
CONTINUOUS
10
148.003
20
-100.857
11
147.871
21
-100.817
0
LINE
8
BLACK
6
CONTINUOUS
10
147.871
20
-100.817
11
147.805
21
-100.797
0
LINE
8
BLACK
6
CONTINUOUS
10
147.805
20
-100.797
11
147.623
21
-100.699
0
LINE
8
BLACK
6
CONTINUOUS
10
147.623
20
-100.699
11
147.463
21
-100.568
0
LINE
8
BLACK
6
CONTINUOUS
10
147.463
20
-100.568
11
147.332
21
-100.408
0
LINE
8
BLACK
6
CONTINUOUS
10
147.332
20
-100.408
11
147.234
21
-100.226
0
LINE
8
BLACK
6
CONTINUOUS
10
147.234
20
-100.226
11
147.214
21
-100.16
0
LINE
8
BLACK
6
CONTINUOUS
10
147.214
20
-100.16
11
147.174
21
-100.028
0
LINE
8
BLACK
6
CONTINUOUS
10
147.174
20
-100.028
11
147.154
21
-99.822
0
LINE
8
BLACK
6
CONTINUOUS
10
147.154
20
-99.822
11
147.174
21
-99.6162
0
LINE
8
BLACK
6
CONTINUOUS
10
147.174
20
-99.6162
11
147.234
21
-99.4182
0
LINE
8
BLACK
6
CONTINUOUS
10
147.234
20
-99.4182
11
147.234
21
-99.4182
0
LINE
8
BLACK
6
CONTINUOUS
10
147.234
20
-99.4182
11
147.332
21
-99.2358
0
LINE
8
BLACK
6
CONTINUOUS
10
147.332
20
-99.2358
11
147.463
21
-99.0759
0
LINE
8
BLACK
6
CONTINUOUS
10
147.463
20
-99.0759
11
147.623
21
-98.9447
0
LINE
8
BLACK
6
CONTINUOUS
10
147.623
20
-98.9447
11
147.805
21
-98.8472
0
LINE
8
BLACK
6
CONTINUOUS
10
147.805
20
-98.8472
11
147.871
21
-98.8272
0
LINE
8
BLACK
6
CONTINUOUS
10
147.871
20
-98.8272
11
148.003
21
-98.7872
0
LINE
8
BLACK
6
CONTINUOUS
10
148.003
20
-98.7872
11
148.08
21
-98.7796
0
LINE
8
BLACK
6
CONTINUOUS
10
148.08
20
-98.7796
11
148.157
21
-98.772
0
LINE
8
BLACK
6
CONTINUOUS
10
148.157
20
-98.772
11
148.261
21
-98.772
0
LINE
8
BLACK
6
CONTINUOUS
10
148.261
20
-98.772
11
148.338
21
-98.7796
0
LINE
8
BLACK
6
CONTINUOUS
10
150.878
20
-98.7796
11
150.955
21
-98.7872
0
LINE
8
BLACK
6
CONTINUOUS
10
150.955
20
-98.7872
11
151.087
21
-98.8272
0
LINE
8
BLACK
6
CONTINUOUS
10
151.087
20
-98.8272
11
151.153
21
-98.8472
0
LINE
8
BLACK
6
CONTINUOUS
10
151.153
20
-98.8472
11
151.335
21
-98.9447
0
LINE
8
BLACK
6
CONTINUOUS
10
151.335
20
-98.9447
11
151.495
21
-99.0759
0
LINE
8
BLACK
6
CONTINUOUS
10
151.495
20
-99.0759
11
151.626
21
-99.2358
0
LINE
8
BLACK
6
CONTINUOUS
10
151.626
20
-99.2358
11
151.724
21
-99.4182
0
LINE
8
BLACK
6
CONTINUOUS
10
151.724
20
-99.4182
11
151.724
21
-99.4182
0
LINE
8
BLACK
6
CONTINUOUS
10
151.724
20
-99.4182
11
151.784
21
-99.6162
0
LINE
8
BLACK
6
CONTINUOUS
10
151.784
20
-99.6162
11
151.804
21
-99.822
0
LINE
8
BLACK
6
CONTINUOUS
10
151.804
20
-99.822
11
151.784
21
-100.028
0
LINE
8
BLACK
6
CONTINUOUS
10
151.784
20
-100.028
11
151.744
21
-100.16
0
LINE
8
BLACK
6
CONTINUOUS
10
151.744
20
-100.16
11
151.724
21
-100.226
0
LINE
8
BLACK
6
CONTINUOUS
10
151.724
20
-100.226
11
151.626
21
-100.408
0
LINE
8
BLACK
6
CONTINUOUS
10
151.626
20
-100.408
11
151.495
21
-100.568
0
LINE
8
BLACK
6
CONTINUOUS
10
151.495
20
-100.568
11
151.335
21
-100.699
0
LINE
8
BLACK
6
CONTINUOUS
10
151.335
20
-100.699
11
151.153
21
-100.797
0
LINE
8
BLACK
6
CONTINUOUS
10
151.153
20
-100.797
11
151.087
21
-100.817
0
LINE
8
BLACK
6
CONTINUOUS
10
151.087
20
-100.817
11
150.955
21
-100.857
0
LINE
8
BLACK
6
CONTINUOUS
10
150.955
20
-100.857
11
150.878
21
-100.864
0
LINE
8
BLACK
6
CONTINUOUS
10
150.878
20
-100.864
11
150.801
21
-100.872
0
LINE
8
BLACK
6
CONTINUOUS
10
150.801
20
-100.872
11
150.697
21
-100.872
0
LINE
8
BLACK
6
CONTINUOUS
10
150.697
20
-100.872
11
150.62
21
-100.864
0
LINE
8
BLACK
6
CONTINUOUS
10
150.62
20
-100.864
11
150.543
21
-100.857
0
LINE
8
BLACK
6
CONTINUOUS
10
150.543
20
-100.857
11
150.411
21
-100.817
0
LINE
8
BLACK
6
CONTINUOUS
10
150.411
20
-100.817
11
150.345
21
-100.797
0
LINE
8
BLACK
6
CONTINUOUS
10
150.345
20
-100.797
11
150.163
21
-100.699
0
LINE
8
BLACK
6
CONTINUOUS
10
150.163
20
-100.699
11
150.003
21
-100.568
0
LINE
8
BLACK
6
CONTINUOUS
10
150.003
20
-100.568
11
149.872
21
-100.408
0
LINE
8
BLACK
6
CONTINUOUS
10
149.872
20
-100.408
11
149.774
21
-100.226
0
LINE
8
BLACK
6
CONTINUOUS
10
149.774
20
-100.226
11
149.754
21
-100.16
0
LINE
8
BLACK
6
CONTINUOUS
10
149.754
20
-100.16
11
149.714
21
-100.028
0
LINE
8
BLACK
6
CONTINUOUS
10
149.714
20
-100.028
11
149.694
21
-99.822
0
LINE
8
BLACK
6
CONTINUOUS
10
149.694
20
-99.822
11
149.714
21
-99.6162
0
LINE
8
BLACK
6
CONTINUOUS
10
149.714
20
-99.6162
11
149.774
21
-99.4182
0
LINE
8
BLACK
6
CONTINUOUS
10
149.774
20
-99.4182
11
149.774
21
-99.4182
0
LINE
8
BLACK
6
CONTINUOUS
10
149.774
20
-99.4182
11
149.872
21
-99.2358
0
LINE
8
BLACK
6
CONTINUOUS
10
149.872
20
-99.2358
11
150.003
21
-99.0759
0
LINE
8
BLACK
6
CONTINUOUS
10
150.003
20
-99.0759
11
150.163
21
-98.9447
0
LINE
8
BLACK
6
CONTINUOUS
10
150.163
20
-98.9447
11
150.345
21
-98.8472
0
LINE
8
BLACK
6
CONTINUOUS
10
150.345
20
-98.8472
11
150.411
21
-98.8272
0
LINE
8
BLACK
6
CONTINUOUS
10
150.411
20
-98.8272
11
150.543
21
-98.7872
0
LINE
8
BLACK
6
CONTINUOUS
10
150.543
20
-98.7872
11
150.62
21
-98.7796
0
LINE
8
BLACK
6
CONTINUOUS
10
150.62
20
-98.7796
11
150.697
21
-98.772
0
LINE
8
BLACK
6
CONTINUOUS
10
150.697
20
-98.772
11
150.801
21
-98.772
0
LINE
8
BLACK
6
CONTINUOUS
10
150.801
20
-98.772
11
150.878
21
-98.7796
0
LINE
8
BLACK
6
CONTINUOUS
10
129.071
20
-83.9602
11
129.406
21
-84.0268
0
LINE
8
BLACK
6
CONTINUOUS
10
129.406
20
-84.0268
11
130.352
21
-84.4188
0
LINE
8
BLACK
6
CONTINUOUS
10
130.352
20
-84.4188
11
131.204
21
-84.9879
0
LINE
8
BLACK
6
CONTINUOUS
10
131.204
20
-84.9879
11
131.928
21
-85.7122
0
LINE
8
BLACK
6
CONTINUOUS
10
131.928
20
-85.7122
11
132.497
21
-86.5639
0
LINE
8
BLACK
6
CONTINUOUS
10
132.497
20
-86.5639
11
132.889
21
-87.5102
0
LINE
8
BLACK
6
CONTINUOUS
10
132.889
20
-87.5102
11
133.089
21
-88.5148
0
LINE
8
BLACK
6
CONTINUOUS
10
133.089
20
-88.5148
11
133.089
21
-89.5392
0
LINE
8
BLACK
6
CONTINUOUS
10
133.089
20
-89.5392
11
132.889
21
-90.5438
0
LINE
8
BLACK
6
CONTINUOUS
10
132.889
20
-90.5438
11
132.497
21
-91.4901
0
LINE
8
BLACK
6
CONTINUOUS
10
132.497
20
-91.4901
11
131.928
21
-92.3418
0
LINE
8
BLACK
6
CONTINUOUS
10
131.928
20
-92.3418
11
131.204
21
-93.0661
0
LINE
8
BLACK
6
CONTINUOUS
10
131.204
20
-93.0661
11
130.352
21
-93.6352
0
LINE
8
BLACK
6
CONTINUOUS
10
130.352
20
-93.6352
11
129.406
21
-94.0272
0
LINE
8
BLACK
6
CONTINUOUS
10
129.406
20
-94.0272
11
129.071
21
-94.0938
0
LINE
8
BLACK
6
CONTINUOUS
10
129.071
20
-94.0938
11
128.401
21
-94.227
0
LINE
8
BLACK
6
CONTINUOUS
10
128.401
20
-94.227
11
127.377
21
-94.227
0
LINE
8
BLACK
6
CONTINUOUS
10
127.377
20
-94.227
11
126.707
21
-94.0938
0
LINE
8
BLACK
6
CONTINUOUS
10
126.707
20
-94.0938
11
126.372
21
-94.0272
0
LINE
8
BLACK
6
CONTINUOUS
10
126.372
20
-94.0272
11
125.426
21
-93.6352
0
LINE
8
BLACK
6
CONTINUOUS
10
125.426
20
-93.6352
11
124.574
21
-93.0661
0
LINE
8
BLACK
6
CONTINUOUS
10
124.574
20
-93.0661
11
123.85
21
-92.3418
0
LINE
8
BLACK
6
CONTINUOUS
10
123.85
20
-92.3418
11
123.281
21
-91.4901
0
LINE
8
BLACK
6
CONTINUOUS
10
123.281
20
-91.4901
11
122.889
21
-90.5438
0
LINE
8
BLACK
6
CONTINUOUS
10
122.889
20
-90.5438
11
122.689
21
-89.5392
0
LINE
8
BLACK
6
CONTINUOUS
10
122.689
20
-89.5392
11
122.689
21
-88.5148
0
LINE
8
BLACK
6
CONTINUOUS
10
122.689
20
-88.5148
11
122.889
21
-87.5102
0
LINE
8
BLACK
6
CONTINUOUS
10
122.889
20
-87.5102
11
123.281
21
-86.5639
0
LINE
8
BLACK
6
CONTINUOUS
10
123.281
20
-86.5639
11
123.85
21
-85.7122
0
LINE
8
BLACK
6
CONTINUOUS
10
123.85
20
-85.7122
11
124.574
21
-84.9879
0
LINE
8
BLACK
6
CONTINUOUS
10
124.574
20
-84.9879
11
125.426
21
-84.4188
0
LINE
8
BLACK
6
CONTINUOUS
10
125.426
20
-84.4188
11
126.372
21
-84.0268
0
LINE
8
BLACK
6
CONTINUOUS
10
126.372
20
-84.0268
11
126.707
21
-83.9602
0
LINE
8
BLACK
6
CONTINUOUS
10
126.707
20
-83.9602
11
127.377
21
-83.827
0
LINE
8
BLACK
6
CONTINUOUS
10
127.377
20
-83.827
11
128.401
21
-83.827
0
LINE
8
BLACK
6
CONTINUOUS
10
128.401
20
-83.827
11
129.071
21
-83.9602
  0
ENDSEC
  0
EOF
