  0
SECTION
  2
HEADER
  9
$ANGBASE
  50
0.0
  9
$ANGDIR
  70
  1
  9
$MEASUREMENT
  70
0
  0
ENDSEC
  0
SECTION
  2
TABLES
  0
TABLE
  2
LTYPE
  70
4
  0
LTYPE
  5
40F
  2
CONTINUOUS
  70
0
  3
Solid line
  72
65
  73
0
  40
0.0
  0
LTYPE
  5
410
  2
DASHDOT
 70
0
  3
Dash Dot ____ _ ____ _
 72
65
 73
4
 40
2.0
 49
1.25
 49
-0.25
 49
0.25
 49
-0.25
  0
LTYPE
  5
411
  2
DASHED
 70
0
  3
Dashed __ __ __ __ __
 72
65
 73
2
 40
0.75
 49
0.5
 49
-0.25
  0
LTYPE
  5
43B
  2
DOTTED
 70
0
  3
Dotted .  .  .  .
 72
65
 73
2
 40
0.2
 49
0.0
 49
-0.2
  0
ENDTAB
  0
TABLE
  2
STYLE
  70
4
  0
STYLE
  2
KICAD
  70
0
  40
0
  41
1
  42
1
  50
0
  71
0
  3
isocp.shx
  0
STYLE
  2
KICADB
  70
0
  40
0
  41
1
  42
1
  50
0
  71
0
  3
isocp.shx
  0
STYLE
  2
KICADI
  70
0
  40
0
  41
1
  42
1
  50
15
  71
0
  3
isocp.shx
  0
STYLE
  2
KICADBI
  70
0
  40
0
  41
1
  42
1
  50
15
  71
0
  3
isocp.shx
  0
ENDTAB
  0
TABLE
  2
LAYER
  70
30
  0
LAYER
  2
BLACK
  70
0
  62
7
  6
CONTINUOUS
  0
LAYER
  2
GRAY1
  70
0
  62
251
  6
CONTINUOUS
  0
LAYER
  2
GRAY2
  70
0
  62
8
  6
CONTINUOUS
  0
LAYER
  2
GRAY3
  70
0
  62
9
  6
CONTINUOUS
  0
LAYER
  2
WHITE
  70
0
  62
7
  6
CONTINUOUS
  0
LAYER
  2
LYELLOW
  70
0
  62
51
  6
CONTINUOUS
  0
LAYER
  2
BLUE1
  70
0
  62
178
  6
CONTINUOUS
  0
LAYER
  2
GREEN1
  70
0
  62
98
  6
CONTINUOUS
  0
LAYER
  2
CYAN1
  70
0
  62
138
  6
CONTINUOUS
  0
LAYER
  2
RED1
  70
0
  62
18
  6
CONTINUOUS
  0
LAYER
  2
MAGENTA1
  70
0
  62
228
  6
CONTINUOUS
  0
LAYER
  2
BROWN1
  70
0
  62
58
  6
CONTINUOUS
  0
LAYER
  2
BLUE2
  70
0
  62
5
  6
CONTINUOUS
  0
LAYER
  2
GREEN2
  70
0
  62
3
  6
CONTINUOUS
  0
LAYER
  2
CYAN2
  70
0
  62
4
  6
CONTINUOUS
  0
LAYER
  2
RED2
  70
0
  62
1
  6
CONTINUOUS
  0
LAYER
  2
MAGENTA2
  70
0
  62
6
  6
CONTINUOUS
  0
LAYER
  2
BROWN2
  70
0
  62
54
  6
CONTINUOUS
  0
LAYER
  2
BLUE3
  70
0
  62
171
  6
CONTINUOUS
  0
LAYER
  2
GREEN3
  70
0
  62
91
  6
CONTINUOUS
  0
LAYER
  2
CYAN3
  70
0
  62
131
  6
CONTINUOUS
  0
LAYER
  2
RED3
  70
0
  62
11
  6
CONTINUOUS
  0
LAYER
  2
MAGENTA3
  70
0
  62
221
  6
CONTINUOUS
  0
LAYER
  2
YELLOW3
  70
0
  62
2
  6
CONTINUOUS
  0
LAYER
  2
BLUE4
  70
0
  62
5
  6
CONTINUOUS
  0
LAYER
  2
GREEN4
  70
0
  62
3
  6
CONTINUOUS
  0
LAYER
  2
CYAN4
  70
0
  62
4
  6
CONTINUOUS
  0
LAYER
  2
RED4
  70
0
  62
1
  6
CONTINUOUS
  0
LAYER
  2
MAGENTA4
  70
0
  62
6
  6
CONTINUOUS
  0
LAYER
  2
YELLOW4
  70
0
  62
2
  6
CONTINUOUS
  0
ENDTAB
  0
ENDSEC
  0
SECTION
  2
ENTITIES
0
LINE
8
BLACK
6
CONTINUOUS
10
177.002
20
-166.007
11
177.002
21
-198.007
0
LINE
8
BLACK
6
CONTINUOUS
10
177.002
20
-198.007
11
285.002
21
-198.007
0
LINE
8
BLACK
6
CONTINUOUS
10
285.002
20
-198.007
11
285.002
21
-166.007
0
LINE
8
BLACK
6
CONTINUOUS
10
285.002
20
-166.007
11
177.002
21
-166.007
0
LINE
8
BLACK
6
CONTINUOUS
10
10
20
-10
11
10
21
-200.007
0
LINE
8
BLACK
6
CONTINUOUS
10
10
20
-200.007
11
287.002
21
-200.007
0
LINE
8
BLACK
6
CONTINUOUS
10
287.002
20
-200.007
11
287.002
21
-10
0
LINE
8
BLACK
6
CONTINUOUS
10
287.002
20
-10
11
10
21
-10
0
LINE
8
BLACK
6
CONTINUOUS
10
12
20
-12
11
12
21
-198.007
0
LINE
8
BLACK
6
CONTINUOUS
10
12
20
-198.007
11
285.002
21
-198.007
0
LINE
8
BLACK
6
CONTINUOUS
10
285.002
20
-198.007
11
285.002
21
-12
0
LINE
8
BLACK
6
CONTINUOUS
10
285.002
20
-12
11
12
21
-12
0
LINE
8
BLACK
6
CONTINUOUS
10
60
20
-12
11
60
21
-10
0
LINE
8
BLACK
6
CONTINUOUS
10
110
20
-12
11
110
21
-10
0
LINE
8
BLACK
6
CONTINUOUS
10
160
20
-12
11
160
21
-10
0
LINE
8
BLACK
6
CONTINUOUS
10
210
20
-12
11
210
21
-10
0
LINE
8
BLACK
6
CONTINUOUS
10
260
20
-12
11
260
21
-10
0
LINE
8
BLACK
6
CONTINUOUS
10
36.0655
20
-11.5881
11
35.3226
21
-11.5881
0
LINE
8
BLACK
6
CONTINUOUS
10
35.694
20
-11.5881
11
35.694
21
-10.2881
0
LINE
8
BLACK
6
CONTINUOUS
10
35.694
20
-10.2881
11
35.5702
21
-10.4738
0
LINE
8
BLACK
6
CONTINUOUS
10
35.5702
20
-10.4738
11
35.4464
21
-10.5976
0
LINE
8
BLACK
6
CONTINUOUS
10
35.4464
20
-10.5976
11
35.3226
21
-10.6595
0
LINE
8
BLACK
6
CONTINUOUS
10
85.3226
20
-10.4119
11
85.3845
21
-10.35
0
LINE
8
BLACK
6
CONTINUOUS
10
85.3845
20
-10.35
11
85.5083
21
-10.2881
0
LINE
8
BLACK
6
CONTINUOUS
10
85.5083
20
-10.2881
11
85.8179
21
-10.2881
0
LINE
8
BLACK
6
CONTINUOUS
10
85.8179
20
-10.2881
11
85.9417
21
-10.35
0
LINE
8
BLACK
6
CONTINUOUS
10
85.9417
20
-10.35
11
86.0036
21
-10.4119
0
LINE
8
BLACK
6
CONTINUOUS
10
86.0036
20
-10.4119
11
86.0655
21
-10.5357
0
LINE
8
BLACK
6
CONTINUOUS
10
86.0655
20
-10.5357
11
86.0655
21
-10.6595
0
LINE
8
BLACK
6
CONTINUOUS
10
86.0655
20
-10.6595
11
86.0036
21
-10.8452
0
LINE
8
BLACK
6
CONTINUOUS
10
86.0036
20
-10.8452
11
85.2607
21
-11.5881
0
LINE
8
BLACK
6
CONTINUOUS
10
85.2607
20
-11.5881
11
86.0655
21
-11.5881
0
LINE
8
BLACK
6
CONTINUOUS
10
135.261
20
-10.2881
11
136.065
21
-10.2881
0
LINE
8
BLACK
6
CONTINUOUS
10
136.065
20
-10.2881
11
135.632
21
-10.7833
0
LINE
8
BLACK
6
CONTINUOUS
10
135.632
20
-10.7833
11
135.818
21
-10.7833
0
LINE
8
BLACK
6
CONTINUOUS
10
135.818
20
-10.7833
11
135.942
21
-10.8452
0
LINE
8
BLACK
6
CONTINUOUS
10
135.942
20
-10.8452
11
136.004
21
-10.9071
0
LINE
8
BLACK
6
CONTINUOUS
10
136.004
20
-10.9071
11
136.065
21
-11.031
0
LINE
8
BLACK
6
CONTINUOUS
10
136.065
20
-11.031
11
136.065
21
-11.3405
0
LINE
8
BLACK
6
CONTINUOUS
10
136.065
20
-11.3405
11
136.004
21
-11.4643
0
LINE
8
BLACK
6
CONTINUOUS
10
136.004
20
-11.4643
11
135.942
21
-11.5262
0
LINE
8
BLACK
6
CONTINUOUS
10
135.942
20
-11.5262
11
135.818
21
-11.5881
0
LINE
8
BLACK
6
CONTINUOUS
10
135.818
20
-11.5881
11
135.446
21
-11.5881
0
LINE
8
BLACK
6
CONTINUOUS
10
135.446
20
-11.5881
11
135.323
21
-11.5262
0
LINE
8
BLACK
6
CONTINUOUS
10
135.323
20
-11.5262
11
135.261
21
-11.4643
0
LINE
8
BLACK
6
CONTINUOUS
10
185.942
20
-10.7214
11
185.942
21
-11.5881
0
LINE
8
BLACK
6
CONTINUOUS
10
185.632
20
-10.2262
11
185.323
21
-11.1548
0
LINE
8
BLACK
6
CONTINUOUS
10
185.323
20
-11.1548
11
186.127
21
-11.1548
0
LINE
8
BLACK
6
CONTINUOUS
10
236.004
20
-10.2881
11
235.385
21
-10.2881
0
LINE
8
BLACK
6
CONTINUOUS
10
235.385
20
-10.2881
11
235.323
21
-10.9071
0
LINE
8
BLACK
6
CONTINUOUS
10
235.323
20
-10.9071
11
235.385
21
-10.8452
0
LINE
8
BLACK
6
CONTINUOUS
10
235.385
20
-10.8452
11
235.508
21
-10.7833
0
LINE
8
BLACK
6
CONTINUOUS
10
235.508
20
-10.7833
11
235.818
21
-10.7833
0
LINE
8
BLACK
6
CONTINUOUS
10
235.818
20
-10.7833
11
235.942
21
-10.8452
0
LINE
8
BLACK
6
CONTINUOUS
10
235.942
20
-10.8452
11
236.004
21
-10.9071
0
LINE
8
BLACK
6
CONTINUOUS
10
236.004
20
-10.9071
11
236.065
21
-11.031
0
LINE
8
BLACK
6
CONTINUOUS
10
236.065
20
-11.031
11
236.065
21
-11.3405
0
LINE
8
BLACK
6
CONTINUOUS
10
236.065
20
-11.3405
11
236.004
21
-11.4643
0
LINE
8
BLACK
6
CONTINUOUS
10
236.004
20
-11.4643
11
235.942
21
-11.5262
0
LINE
8
BLACK
6
CONTINUOUS
10
235.942
20
-11.5262
11
235.818
21
-11.5881
0
LINE
8
BLACK
6
CONTINUOUS
10
235.818
20
-11.5881
11
235.508
21
-11.5881
0
LINE
8
BLACK
6
CONTINUOUS
10
235.508
20
-11.5881
11
235.385
21
-11.5262
0
LINE
8
BLACK
6
CONTINUOUS
10
235.385
20
-11.5262
11
235.323
21
-11.4643
0
LINE
8
BLACK
6
CONTINUOUS
10
285.942
20
-10.2881
11
285.694
21
-10.2881
0
LINE
8
BLACK
6
CONTINUOUS
10
285.694
20
-10.2881
11
285.57
21
-10.35
0
LINE
8
BLACK
6
CONTINUOUS
10
285.57
20
-10.35
11
285.508
21
-10.4119
0
LINE
8
BLACK
6
CONTINUOUS
10
285.508
20
-10.4119
11
285.385
21
-10.5976
0
LINE
8
BLACK
6
CONTINUOUS
10
285.385
20
-10.5976
11
285.323
21
-10.8452
0
LINE
8
BLACK
6
CONTINUOUS
10
285.323
20
-10.8452
11
285.323
21
-11.3405
0
LINE
8
BLACK
6
CONTINUOUS
10
285.323
20
-11.3405
11
285.385
21
-11.4643
0
LINE
8
BLACK
6
CONTINUOUS
10
285.385
20
-11.4643
11
285.446
21
-11.5262
0
LINE
8
BLACK
6
CONTINUOUS
10
285.446
20
-11.5262
11
285.57
21
-11.5881
0
LINE
8
BLACK
6
CONTINUOUS
10
285.57
20
-11.5881
11
285.818
21
-11.5881
0
LINE
8
BLACK
6
CONTINUOUS
10
285.818
20
-11.5881
11
285.942
21
-11.5262
0
LINE
8
BLACK
6
CONTINUOUS
10
285.942
20
-11.5262
11
286.004
21
-11.4643
0
LINE
8
BLACK
6
CONTINUOUS
10
286.004
20
-11.4643
11
286.065
21
-11.3405
0
LINE
8
BLACK
6
CONTINUOUS
10
286.065
20
-11.3405
11
286.065
21
-11.031
0
LINE
8
BLACK
6
CONTINUOUS
10
286.065
20
-11.031
11
286.004
21
-10.9071
0
LINE
8
BLACK
6
CONTINUOUS
10
286.004
20
-10.9071
11
285.942
21
-10.8452
0
LINE
8
BLACK
6
CONTINUOUS
10
285.942
20
-10.8452
11
285.818
21
-10.7833
0
LINE
8
BLACK
6
CONTINUOUS
10
285.818
20
-10.7833
11
285.57
21
-10.7833
0
LINE
8
BLACK
6
CONTINUOUS
10
285.57
20
-10.7833
11
285.446
21
-10.8452
0
LINE
8
BLACK
6
CONTINUOUS
10
285.446
20
-10.8452
11
285.385
21
-10.9071
0
LINE
8
BLACK
6
CONTINUOUS
10
285.385
20
-10.9071
11
285.323
21
-11.031
0
LINE
8
BLACK
6
CONTINUOUS
10
60
20
-198.007
11
60
21
-200.007
0
LINE
8
BLACK
6
CONTINUOUS
10
110
20
-198.007
11
110
21
-200.007
0
LINE
8
BLACK
6
CONTINUOUS
10
160
20
-198.007
11
160
21
-200.007
0
LINE
8
BLACK
6
CONTINUOUS
10
210
20
-198.007
11
210
21
-200.007
0
LINE
8
BLACK
6
CONTINUOUS
10
260
20
-198.007
11
260
21
-200.007
0
LINE
8
BLACK
6
CONTINUOUS
10
36.0655
20
-199.595
11
35.3226
21
-199.595
0
LINE
8
BLACK
6
CONTINUOUS
10
35.694
20
-199.595
11
35.694
21
-198.295
0
LINE
8
BLACK
6
CONTINUOUS
10
35.694
20
-198.295
11
35.5702
21
-198.481
0
LINE
8
BLACK
6
CONTINUOUS
10
35.5702
20
-198.481
11
35.4464
21
-198.605
0
LINE
8
BLACK
6
CONTINUOUS
10
35.4464
20
-198.605
11
35.3226
21
-198.667
0
LINE
8
BLACK
6
CONTINUOUS
10
85.3226
20
-198.419
11
85.3845
21
-198.357
0
LINE
8
BLACK
6
CONTINUOUS
10
85.3845
20
-198.357
11
85.5083
21
-198.295
0
LINE
8
BLACK
6
CONTINUOUS
10
85.5083
20
-198.295
11
85.8179
21
-198.295
0
LINE
8
BLACK
6
CONTINUOUS
10
85.8179
20
-198.295
11
85.9417
21
-198.357
0
LINE
8
BLACK
6
CONTINUOUS
10
85.9417
20
-198.357
11
86.0036
21
-198.419
0
LINE
8
BLACK
6
CONTINUOUS
10
86.0036
20
-198.419
11
86.0655
21
-198.543
0
LINE
8
BLACK
6
CONTINUOUS
10
86.0655
20
-198.543
11
86.0655
21
-198.667
0
LINE
8
BLACK
6
CONTINUOUS
10
86.0655
20
-198.667
11
86.0036
21
-198.852
0
LINE
8
BLACK
6
CONTINUOUS
10
86.0036
20
-198.852
11
85.2607
21
-199.595
0
LINE
8
BLACK
6
CONTINUOUS
10
85.2607
20
-199.595
11
86.0655
21
-199.595
0
LINE
8
BLACK
6
CONTINUOUS
10
135.261
20
-198.295
11
136.065
21
-198.295
0
LINE
8
BLACK
6
CONTINUOUS
10
136.065
20
-198.295
11
135.632
21
-198.791
0
LINE
8
BLACK
6
CONTINUOUS
10
135.632
20
-198.791
11
135.818
21
-198.791
0
LINE
8
BLACK
6
CONTINUOUS
10
135.818
20
-198.791
11
135.942
21
-198.852
0
LINE
8
BLACK
6
CONTINUOUS
10
135.942
20
-198.852
11
136.004
21
-198.914
0
LINE
8
BLACK
6
CONTINUOUS
10
136.004
20
-198.914
11
136.065
21
-199.038
0
LINE
8
BLACK
6
CONTINUOUS
10
136.065
20
-199.038
11
136.065
21
-199.348
0
LINE
8
BLACK
6
CONTINUOUS
10
136.065
20
-199.348
11
136.004
21
-199.471
0
LINE
8
BLACK
6
CONTINUOUS
10
136.004
20
-199.471
11
135.942
21
-199.533
0
LINE
8
BLACK
6
CONTINUOUS
10
135.942
20
-199.533
11
135.818
21
-199.595
0
LINE
8
BLACK
6
CONTINUOUS
10
135.818
20
-199.595
11
135.446
21
-199.595
0
LINE
8
BLACK
6
CONTINUOUS
10
135.446
20
-199.595
11
135.323
21
-199.533
0
LINE
8
BLACK
6
CONTINUOUS
10
135.323
20
-199.533
11
135.261
21
-199.471
0
LINE
8
BLACK
6
CONTINUOUS
10
185.942
20
-198.729
11
185.942
21
-199.595
0
LINE
8
BLACK
6
CONTINUOUS
10
185.632
20
-198.233
11
185.323
21
-199.162
0
LINE
8
BLACK
6
CONTINUOUS
10
185.323
20
-199.162
11
186.127
21
-199.162
0
LINE
8
BLACK
6
CONTINUOUS
10
236.004
20
-198.295
11
235.385
21
-198.295
0
LINE
8
BLACK
6
CONTINUOUS
10
235.385
20
-198.295
11
235.323
21
-198.914
0
LINE
8
BLACK
6
CONTINUOUS
10
235.323
20
-198.914
11
235.385
21
-198.852
0
LINE
8
BLACK
6
CONTINUOUS
10
235.385
20
-198.852
11
235.508
21
-198.791
0
LINE
8
BLACK
6
CONTINUOUS
10
235.508
20
-198.791
11
235.818
21
-198.791
0
LINE
8
BLACK
6
CONTINUOUS
10
235.818
20
-198.791
11
235.942
21
-198.852
0
LINE
8
BLACK
6
CONTINUOUS
10
235.942
20
-198.852
11
236.004
21
-198.914
0
LINE
8
BLACK
6
CONTINUOUS
10
236.004
20
-198.914
11
236.065
21
-199.038
0
LINE
8
BLACK
6
CONTINUOUS
10
236.065
20
-199.038
11
236.065
21
-199.348
0
LINE
8
BLACK
6
CONTINUOUS
10
236.065
20
-199.348
11
236.004
21
-199.471
0
LINE
8
BLACK
6
CONTINUOUS
10
236.004
20
-199.471
11
235.942
21
-199.533
0
LINE
8
BLACK
6
CONTINUOUS
10
235.942
20
-199.533
11
235.818
21
-199.595
0
LINE
8
BLACK
6
CONTINUOUS
10
235.818
20
-199.595
11
235.508
21
-199.595
0
LINE
8
BLACK
6
CONTINUOUS
10
235.508
20
-199.595
11
235.385
21
-199.533
0
LINE
8
BLACK
6
CONTINUOUS
10
235.385
20
-199.533
11
235.323
21
-199.471
0
LINE
8
BLACK
6
CONTINUOUS
10
285.942
20
-198.295
11
285.694
21
-198.295
0
LINE
8
BLACK
6
CONTINUOUS
10
285.694
20
-198.295
11
285.57
21
-198.357
0
LINE
8
BLACK
6
CONTINUOUS
10
285.57
20
-198.357
11
285.508
21
-198.419
0
LINE
8
BLACK
6
CONTINUOUS
10
285.508
20
-198.419
11
285.385
21
-198.605
0
LINE
8
BLACK
6
CONTINUOUS
10
285.385
20
-198.605
11
285.323
21
-198.852
0
LINE
8
BLACK
6
CONTINUOUS
10
285.323
20
-198.852
11
285.323
21
-199.348
0
LINE
8
BLACK
6
CONTINUOUS
10
285.323
20
-199.348
11
285.385
21
-199.471
0
LINE
8
BLACK
6
CONTINUOUS
10
285.385
20
-199.471
11
285.446
21
-199.533
0
LINE
8
BLACK
6
CONTINUOUS
10
285.446
20
-199.533
11
285.57
21
-199.595
0
LINE
8
BLACK
6
CONTINUOUS
10
285.57
20
-199.595
11
285.818
21
-199.595
0
LINE
8
BLACK
6
CONTINUOUS
10
285.818
20
-199.595
11
285.942
21
-199.533
0
LINE
8
BLACK
6
CONTINUOUS
10
285.942
20
-199.533
11
286.004
21
-199.471
0
LINE
8
BLACK
6
CONTINUOUS
10
286.004
20
-199.471
11
286.065
21
-199.348
0
LINE
8
BLACK
6
CONTINUOUS
10
286.065
20
-199.348
11
286.065
21
-199.038
0
LINE
8
BLACK
6
CONTINUOUS
10
286.065
20
-199.038
11
286.004
21
-198.914
0
LINE
8
BLACK
6
CONTINUOUS
10
286.004
20
-198.914
11
285.942
21
-198.852
0
LINE
8
BLACK
6
CONTINUOUS
10
285.942
20
-198.852
11
285.818
21
-198.791
0
LINE
8
BLACK
6
CONTINUOUS
10
285.818
20
-198.791
11
285.57
21
-198.791
0
LINE
8
BLACK
6
CONTINUOUS
10
285.57
20
-198.791
11
285.446
21
-198.852
0
LINE
8
BLACK
6
CONTINUOUS
10
285.446
20
-198.852
11
285.385
21
-198.914
0
LINE
8
BLACK
6
CONTINUOUS
10
285.385
20
-198.914
11
285.323
21
-199.038
0
LINE
8
BLACK
6
CONTINUOUS
10
10
20
-60
11
12
21
-60
0
LINE
8
BLACK
6
CONTINUOUS
10
10
20
-110
11
12
21
-110
0
LINE
8
BLACK
6
CONTINUOUS
10
10
20
-160
11
12
21
-160
0
LINE
8
BLACK
6
CONTINUOUS
10
10.6905
20
-35.2167
11
11.3095
21
-35.2167
0
LINE
8
BLACK
6
CONTINUOUS
10
10.5667
20
-35.5881
11
11
21
-34.2881
0
LINE
8
BLACK
6
CONTINUOUS
10
11
20
-34.2881
11
11.4333
21
-35.5881
0
LINE
8
BLACK
6
CONTINUOUS
10
11.0929
20
-84.9071
11
11.2786
21
-84.969
0
LINE
8
BLACK
6
CONTINUOUS
10
11.2786
20
-84.969
11
11.3405
21
-85.031
0
LINE
8
BLACK
6
CONTINUOUS
10
11.3405
20
-85.031
11
11.4024
21
-85.1548
0
LINE
8
BLACK
6
CONTINUOUS
10
11.4024
20
-85.1548
11
11.4024
21
-85.3405
0
LINE
8
BLACK
6
CONTINUOUS
10
11.4024
20
-85.3405
11
11.3405
21
-85.4643
0
LINE
8
BLACK
6
CONTINUOUS
10
11.3405
20
-85.4643
11
11.2786
21
-85.5262
0
LINE
8
BLACK
6
CONTINUOUS
10
11.2786
20
-85.5262
11
11.1548
21
-85.5881
0
LINE
8
BLACK
6
CONTINUOUS
10
11.1548
20
-85.5881
11
10.6595
21
-85.5881
0
LINE
8
BLACK
6
CONTINUOUS
10
10.6595
20
-85.5881
11
10.6595
21
-84.2881
0
LINE
8
BLACK
6
CONTINUOUS
10
10.6595
20
-84.2881
11
11.0929
21
-84.2881
0
LINE
8
BLACK
6
CONTINUOUS
10
11.0929
20
-84.2881
11
11.2167
21
-84.35
0
LINE
8
BLACK
6
CONTINUOUS
10
11.2167
20
-84.35
11
11.2786
21
-84.4119
0
LINE
8
BLACK
6
CONTINUOUS
10
11.2786
20
-84.4119
11
11.3405
21
-84.5357
0
LINE
8
BLACK
6
CONTINUOUS
10
11.3405
20
-84.5357
11
11.3405
21
-84.6595
0
LINE
8
BLACK
6
CONTINUOUS
10
11.3405
20
-84.6595
11
11.2786
21
-84.7833
0
LINE
8
BLACK
6
CONTINUOUS
10
11.2786
20
-84.7833
11
11.2167
21
-84.8452
0
LINE
8
BLACK
6
CONTINUOUS
10
11.2167
20
-84.8452
11
11.0929
21
-84.9071
0
LINE
8
BLACK
6
CONTINUOUS
10
11.0929
20
-84.9071
11
10.6595
21
-84.9071
0
LINE
8
BLACK
6
CONTINUOUS
10
11.4024
20
-135.464
11
11.3405
21
-135.526
0
LINE
8
BLACK
6
CONTINUOUS
10
11.3405
20
-135.526
11
11.1548
21
-135.588
0
LINE
8
BLACK
6
CONTINUOUS
10
11.1548
20
-135.588
11
11.031
21
-135.588
0
LINE
8
BLACK
6
CONTINUOUS
10
11.031
20
-135.588
11
10.8452
21
-135.526
0
LINE
8
BLACK
6
CONTINUOUS
10
10.8452
20
-135.526
11
10.7214
21
-135.402
0
LINE
8
BLACK
6
CONTINUOUS
10
10.7214
20
-135.402
11
10.6595
21
-135.279
0
LINE
8
BLACK
6
CONTINUOUS
10
10.6595
20
-135.279
11
10.5976
21
-135.031
0
LINE
8
BLACK
6
CONTINUOUS
10
10.5976
20
-135.031
11
10.5976
21
-134.845
0
LINE
8
BLACK
6
CONTINUOUS
10
10.5976
20
-134.845
11
10.6595
21
-134.598
0
LINE
8
BLACK
6
CONTINUOUS
10
10.6595
20
-134.598
11
10.7214
21
-134.474
0
LINE
8
BLACK
6
CONTINUOUS
10
10.7214
20
-134.474
11
10.8452
21
-134.35
0
LINE
8
BLACK
6
CONTINUOUS
10
10.8452
20
-134.35
11
11.031
21
-134.288
0
LINE
8
BLACK
6
CONTINUOUS
10
11.031
20
-134.288
11
11.1548
21
-134.288
0
LINE
8
BLACK
6
CONTINUOUS
10
11.1548
20
-134.288
11
11.3405
21
-134.35
0
LINE
8
BLACK
6
CONTINUOUS
10
11.3405
20
-134.35
11
11.4024
21
-134.412
0
LINE
8
BLACK
6
CONTINUOUS
10
10.6595
20
-185.588
11
10.6595
21
-184.288
0
LINE
8
BLACK
6
CONTINUOUS
10
10.6595
20
-184.288
11
10.969
21
-184.288
0
LINE
8
BLACK
6
CONTINUOUS
10
10.969
20
-184.288
11
11.1548
21
-184.35
0
LINE
8
BLACK
6
CONTINUOUS
10
11.1548
20
-184.35
11
11.2786
21
-184.474
0
LINE
8
BLACK
6
CONTINUOUS
10
11.2786
20
-184.474
11
11.3405
21
-184.598
0
LINE
8
BLACK
6
CONTINUOUS
10
11.3405
20
-184.598
11
11.4024
21
-184.845
0
LINE
8
BLACK
6
CONTINUOUS
10
11.4024
20
-184.845
11
11.4024
21
-185.031
0
LINE
8
BLACK
6
CONTINUOUS
10
11.4024
20
-185.031
11
11.3405
21
-185.279
0
LINE
8
BLACK
6
CONTINUOUS
10
11.3405
20
-185.279
11
11.2786
21
-185.402
0
LINE
8
BLACK
6
CONTINUOUS
10
11.2786
20
-185.402
11
11.1548
21
-185.526
0
LINE
8
BLACK
6
CONTINUOUS
10
11.1548
20
-185.526
11
10.969
21
-185.588
0
LINE
8
BLACK
6
CONTINUOUS
10
10.969
20
-185.588
11
10.6595
21
-185.588
0
LINE
8
BLACK
6
CONTINUOUS
10
287.002
20
-60
11
285.002
21
-60
0
LINE
8
BLACK
6
CONTINUOUS
10
287.002
20
-110
11
285.002
21
-110
0
LINE
8
BLACK
6
CONTINUOUS
10
287.002
20
-160
11
285.002
21
-160
0
LINE
8
BLACK
6
CONTINUOUS
10
285.693
20
-35.2167
11
286.312
21
-35.2167
0
LINE
8
BLACK
6
CONTINUOUS
10
285.569
20
-35.5881
11
286.002
21
-34.2881
0
LINE
8
BLACK
6
CONTINUOUS
10
286.002
20
-34.2881
11
286.436
21
-35.5881
0
LINE
8
BLACK
6
CONTINUOUS
10
286.095
20
-84.9071
11
286.281
21
-84.969
0
LINE
8
BLACK
6
CONTINUOUS
10
286.281
20
-84.969
11
286.343
21
-85.031
0
LINE
8
BLACK
6
CONTINUOUS
10
286.343
20
-85.031
11
286.405
21
-85.1548
0
LINE
8
BLACK
6
CONTINUOUS
10
286.405
20
-85.1548
11
286.405
21
-85.3405
0
LINE
8
BLACK
6
CONTINUOUS
10
286.405
20
-85.3405
11
286.343
21
-85.4643
0
LINE
8
BLACK
6
CONTINUOUS
10
286.343
20
-85.4643
11
286.281
21
-85.5262
0
LINE
8
BLACK
6
CONTINUOUS
10
286.281
20
-85.5262
11
286.157
21
-85.5881
0
LINE
8
BLACK
6
CONTINUOUS
10
286.157
20
-85.5881
11
285.662
21
-85.5881
0
LINE
8
BLACK
6
CONTINUOUS
10
285.662
20
-85.5881
11
285.662
21
-84.2881
0
LINE
8
BLACK
6
CONTINUOUS
10
285.662
20
-84.2881
11
286.095
21
-84.2881
0
LINE
8
BLACK
6
CONTINUOUS
10
286.095
20
-84.2881
11
286.219
21
-84.35
0
LINE
8
BLACK
6
CONTINUOUS
10
286.219
20
-84.35
11
286.281
21
-84.4119
0
LINE
8
BLACK
6
CONTINUOUS
10
286.281
20
-84.4119
11
286.343
21
-84.5357
0
LINE
8
BLACK
6
CONTINUOUS
10
286.343
20
-84.5357
11
286.343
21
-84.6595
0
LINE
8
BLACK
6
CONTINUOUS
10
286.343
20
-84.6595
11
286.281
21
-84.7833
0
LINE
8
BLACK
6
CONTINUOUS
10
286.281
20
-84.7833
11
286.219
21
-84.8452
0
LINE
8
BLACK
6
CONTINUOUS
10
286.219
20
-84.8452
11
286.095
21
-84.9071
0
LINE
8
BLACK
6
CONTINUOUS
10
286.095
20
-84.9071
11
285.662
21
-84.9071
0
LINE
8
BLACK
6
CONTINUOUS
10
286.405
20
-135.464
11
286.343
21
-135.526
0
LINE
8
BLACK
6
CONTINUOUS
10
286.343
20
-135.526
11
286.157
21
-135.588
0
LINE
8
BLACK
6
CONTINUOUS
10
286.157
20
-135.588
11
286.033
21
-135.588
0
LINE
8
BLACK
6
CONTINUOUS
10
286.033
20
-135.588
11
285.847
21
-135.526
0
LINE
8
BLACK
6
CONTINUOUS
10
285.847
20
-135.526
11
285.724
21
-135.402
0
LINE
8
BLACK
6
CONTINUOUS
10
285.724
20
-135.402
11
285.662
21
-135.279
0
LINE
8
BLACK
6
CONTINUOUS
10
285.662
20
-135.279
11
285.6
21
-135.031
0
LINE
8
BLACK
6
CONTINUOUS
10
285.6
20
-135.031
11
285.6
21
-134.845
0
LINE
8
BLACK
6
CONTINUOUS
10
285.6
20
-134.845
11
285.662
21
-134.598
0
LINE
8
BLACK
6
CONTINUOUS
10
285.662
20
-134.598
11
285.724
21
-134.474
0
LINE
8
BLACK
6
CONTINUOUS
10
285.724
20
-134.474
11
285.847
21
-134.35
0
LINE
8
BLACK
6
CONTINUOUS
10
285.847
20
-134.35
11
286.033
21
-134.288
0
LINE
8
BLACK
6
CONTINUOUS
10
286.033
20
-134.288
11
286.157
21
-134.288
0
LINE
8
BLACK
6
CONTINUOUS
10
286.157
20
-134.288
11
286.343
21
-134.35
0
LINE
8
BLACK
6
CONTINUOUS
10
286.343
20
-134.35
11
286.405
21
-134.412
0
LINE
8
BLACK
6
CONTINUOUS
10
285.662
20
-185.588
11
285.662
21
-184.288
0
LINE
8
BLACK
6
CONTINUOUS
10
285.662
20
-184.288
11
285.971
21
-184.288
0
LINE
8
BLACK
6
CONTINUOUS
10
285.971
20
-184.288
11
286.157
21
-184.35
0
LINE
8
BLACK
6
CONTINUOUS
10
286.157
20
-184.35
11
286.281
21
-184.474
0
LINE
8
BLACK
6
CONTINUOUS
10
286.281
20
-184.474
11
286.343
21
-184.598
0
LINE
8
BLACK
6
CONTINUOUS
10
286.343
20
-184.598
11
286.405
21
-184.845
0
LINE
8
BLACK
6
CONTINUOUS
10
286.405
20
-184.845
11
286.405
21
-185.031
0
LINE
8
BLACK
6
CONTINUOUS
10
286.405
20
-185.031
11
286.343
21
-185.279
0
LINE
8
BLACK
6
CONTINUOUS
10
286.343
20
-185.279
11
286.281
21
-185.402
0
LINE
8
BLACK
6
CONTINUOUS
10
286.281
20
-185.402
11
286.157
21
-185.526
0
LINE
8
BLACK
6
CONTINUOUS
10
286.157
20
-185.526
11
285.971
21
-185.588
0
LINE
8
BLACK
6
CONTINUOUS
10
285.971
20
-185.588
11
285.662
21
-185.588
0
LINE
8
BLACK
6
CONTINUOUS
10
200.434
20
-193.786
11
200.434
21
-192.286
0
LINE
8
BLACK
6
CONTINUOUS
10
200.434
20
-192.286
11
200.791
21
-192.286
0
LINE
8
BLACK
6
CONTINUOUS
10
200.791
20
-192.286
11
201.006
21
-192.357
0
LINE
8
BLACK
6
CONTINUOUS
10
201.006
20
-192.357
11
201.149
21
-192.5
0
LINE
8
BLACK
6
CONTINUOUS
10
201.149
20
-192.5
11
201.22
21
-192.643
0
LINE
8
BLACK
6
CONTINUOUS
10
201.22
20
-192.643
11
201.291
21
-192.929
0
LINE
8
BLACK
6
CONTINUOUS
10
201.291
20
-192.929
11
201.291
21
-193.143
0
LINE
8
BLACK
6
CONTINUOUS
10
201.291
20
-193.143
11
201.22
21
-193.429
0
LINE
8
BLACK
6
CONTINUOUS
10
201.22
20
-193.429
11
201.149
21
-193.571
0
LINE
8
BLACK
6
CONTINUOUS
10
201.149
20
-193.571
11
201.006
21
-193.714
0
LINE
8
BLACK
6
CONTINUOUS
10
201.006
20
-193.714
11
200.791
21
-193.786
0
LINE
8
BLACK
6
CONTINUOUS
10
200.791
20
-193.786
11
200.434
21
-193.786
0
LINE
8
BLACK
6
CONTINUOUS
10
202.577
20
-193.786
11
202.577
21
-193
0
LINE
8
BLACK
6
CONTINUOUS
10
202.577
20
-193
11
202.506
21
-192.857
0
LINE
8
BLACK
6
CONTINUOUS
10
202.506
20
-192.857
11
202.363
21
-192.786
0
LINE
8
BLACK
6
CONTINUOUS
10
202.363
20
-192.786
11
202.077
21
-192.786
0
LINE
8
BLACK
6
CONTINUOUS
10
202.077
20
-192.786
11
201.934
21
-192.857
0
LINE
8
BLACK
6
CONTINUOUS
10
202.577
20
-193.714
11
202.434
21
-193.786
0
LINE
8
BLACK
6
CONTINUOUS
10
202.434
20
-193.786
11
202.077
21
-193.786
0
LINE
8
BLACK
6
CONTINUOUS
10
202.077
20
-193.786
11
201.934
21
-193.714
0
LINE
8
BLACK
6
CONTINUOUS
10
201.934
20
-193.714
11
201.863
21
-193.571
0
LINE
8
BLACK
6
CONTINUOUS
10
201.863
20
-193.571
11
201.863
21
-193.429
0
LINE
8
BLACK
6
CONTINUOUS
10
201.863
20
-193.429
11
201.934
21
-193.286
0
LINE
8
BLACK
6
CONTINUOUS
10
201.934
20
-193.286
11
202.077
21
-193.214
0
LINE
8
BLACK
6
CONTINUOUS
10
202.077
20
-193.214
11
202.434
21
-193.214
0
LINE
8
BLACK
6
CONTINUOUS
10
202.434
20
-193.214
11
202.577
21
-193.143
0
LINE
8
BLACK
6
CONTINUOUS
10
203.077
20
-192.786
11
203.649
21
-192.786
0
LINE
8
BLACK
6
CONTINUOUS
10
203.291
20
-192.286
11
203.291
21
-193.571
0
LINE
8
BLACK
6
CONTINUOUS
10
203.291
20
-193.571
11
203.363
21
-193.714
0
LINE
8
BLACK
6
CONTINUOUS
10
203.363
20
-193.714
11
203.506
21
-193.786
0
LINE
8
BLACK
6
CONTINUOUS
10
203.506
20
-193.786
11
203.649
21
-193.786
0
LINE
8
BLACK
6
CONTINUOUS
10
204.72
20
-193.714
11
204.577
21
-193.786
0
LINE
8
BLACK
6
CONTINUOUS
10
204.577
20
-193.786
11
204.291
21
-193.786
0
LINE
8
BLACK
6
CONTINUOUS
10
204.291
20
-193.786
11
204.149
21
-193.714
0
LINE
8
BLACK
6
CONTINUOUS
10
204.149
20
-193.714
11
204.077
21
-193.571
0
LINE
8
BLACK
6
CONTINUOUS
10
204.077
20
-193.571
11
204.077
21
-193
0
LINE
8
BLACK
6
CONTINUOUS
10
204.077
20
-193
11
204.149
21
-192.857
0
LINE
8
BLACK
6
CONTINUOUS
10
204.149
20
-192.857
11
204.291
21
-192.786
0
LINE
8
BLACK
6
CONTINUOUS
10
204.291
20
-192.786
11
204.577
21
-192.786
0
LINE
8
BLACK
6
CONTINUOUS
10
204.577
20
-192.786
11
204.72
21
-192.857
0
LINE
8
BLACK
6
CONTINUOUS
10
204.72
20
-192.857
11
204.791
21
-193
0
LINE
8
BLACK
6
CONTINUOUS
10
204.791
20
-193
11
204.791
21
-193.143
0
LINE
8
BLACK
6
CONTINUOUS
10
204.791
20
-193.143
11
204.077
21
-193.286
0
LINE
8
BLACK
6
CONTINUOUS
10
205.434
20
-193.643
11
205.506
21
-193.714
0
LINE
8
BLACK
6
CONTINUOUS
10
205.506
20
-193.714
11
205.434
21
-193.786
0
LINE
8
BLACK
6
CONTINUOUS
10
205.434
20
-193.786
11
205.363
21
-193.714
0
LINE
8
BLACK
6
CONTINUOUS
10
205.363
20
-193.714
11
205.434
21
-193.643
0
LINE
8
BLACK
6
CONTINUOUS
10
205.434
20
-193.643
11
205.434
21
-193.786
0
LINE
8
BLACK
6
CONTINUOUS
10
205.434
20
-192.857
11
205.506
21
-192.929
0
LINE
8
BLACK
6
CONTINUOUS
10
205.506
20
-192.929
11
205.434
21
-193
0
LINE
8
BLACK
6
CONTINUOUS
10
205.434
20
-193
11
205.363
21
-192.929
0
LINE
8
BLACK
6
CONTINUOUS
10
205.363
20
-192.929
11
205.434
21
-192.857
0
LINE
8
BLACK
6
CONTINUOUS
10
205.434
20
-192.857
11
205.434
21
-193
0
LINE
8
BLACK
6
CONTINUOUS
10
177.002
20
-194.507
11
285.002
21
-194.507
0
LINE
8
BLACK
6
CONTINUOUS
10
178.434
20
-196.586
11
178.434
21
-195.086
0
LINE
8
BLACK
6
CONTINUOUS
10
179.291
20
-196.586
11
178.649
21
-195.729
0
LINE
8
BLACK
6
CONTINUOUS
10
179.291
20
-195.086
11
178.434
21
-195.943
0
LINE
8
BLACK
6
CONTINUOUS
10
179.934
20
-196.586
11
179.934
21
-195.586
0
LINE
8
BLACK
6
CONTINUOUS
10
179.934
20
-195.086
11
179.863
21
-195.157
0
LINE
8
BLACK
6
CONTINUOUS
10
179.863
20
-195.157
11
179.934
21
-195.229
0
LINE
8
BLACK
6
CONTINUOUS
10
179.934
20
-195.229
11
180.006
21
-195.157
0
LINE
8
BLACK
6
CONTINUOUS
10
180.006
20
-195.157
11
179.934
21
-195.086
0
LINE
8
BLACK
6
CONTINUOUS
10
179.934
20
-195.086
11
179.934
21
-195.229
0
LINE
8
BLACK
6
CONTINUOUS
10
181.506
20
-196.443
11
181.434
21
-196.514
0
LINE
8
BLACK
6
CONTINUOUS
10
181.434
20
-196.514
11
181.22
21
-196.586
0
LINE
8
BLACK
6
CONTINUOUS
10
181.22
20
-196.586
11
181.077
21
-196.586
0
LINE
8
BLACK
6
CONTINUOUS
10
181.077
20
-196.586
11
180.863
21
-196.514
0
LINE
8
BLACK
6
CONTINUOUS
10
180.863
20
-196.514
11
180.72
21
-196.371
0
LINE
8
BLACK
6
CONTINUOUS
10
180.72
20
-196.371
11
180.649
21
-196.229
0
LINE
8
BLACK
6
CONTINUOUS
10
180.649
20
-196.229
11
180.577
21
-195.943
0
LINE
8
BLACK
6
CONTINUOUS
10
180.577
20
-195.943
11
180.577
21
-195.729
0
LINE
8
BLACK
6
CONTINUOUS
10
180.577
20
-195.729
11
180.649
21
-195.443
0
LINE
8
BLACK
6
CONTINUOUS
10
180.649
20
-195.443
11
180.72
21
-195.3
0
LINE
8
BLACK
6
CONTINUOUS
10
180.72
20
-195.3
11
180.863
21
-195.157
0
LINE
8
BLACK
6
CONTINUOUS
10
180.863
20
-195.157
11
181.077
21
-195.086
0
LINE
8
BLACK
6
CONTINUOUS
10
181.077
20
-195.086
11
181.22
21
-195.086
0
LINE
8
BLACK
6
CONTINUOUS
10
181.22
20
-195.086
11
181.434
21
-195.157
0
LINE
8
BLACK
6
CONTINUOUS
10
181.434
20
-195.157
11
181.506
21
-195.229
0
LINE
8
BLACK
6
CONTINUOUS
10
182.791
20
-196.586
11
182.791
21
-195.8
0
LINE
8
BLACK
6
CONTINUOUS
10
182.791
20
-195.8
11
182.72
21
-195.657
0
LINE
8
BLACK
6
CONTINUOUS
10
182.72
20
-195.657
11
182.577
21
-195.586
0
LINE
8
BLACK
6
CONTINUOUS
10
182.577
20
-195.586
11
182.291
21
-195.586
0
LINE
8
BLACK
6
CONTINUOUS
10
182.291
20
-195.586
11
182.149
21
-195.657
0
LINE
8
BLACK
6
CONTINUOUS
10
182.791
20
-196.514
11
182.649
21
-196.586
0
LINE
8
BLACK
6
CONTINUOUS
10
182.649
20
-196.586
11
182.291
21
-196.586
0
LINE
8
BLACK
6
CONTINUOUS
10
182.291
20
-196.586
11
182.149
21
-196.514
0
LINE
8
BLACK
6
CONTINUOUS
10
182.149
20
-196.514
11
182.077
21
-196.371
0
LINE
8
BLACK
6
CONTINUOUS
10
182.077
20
-196.371
11
182.077
21
-196.229
0
LINE
8
BLACK
6
CONTINUOUS
10
182.077
20
-196.229
11
182.149
21
-196.086
0
LINE
8
BLACK
6
CONTINUOUS
10
182.149
20
-196.086
11
182.291
21
-196.014
0
LINE
8
BLACK
6
CONTINUOUS
10
182.291
20
-196.014
11
182.649
21
-196.014
0
LINE
8
BLACK
6
CONTINUOUS
10
182.649
20
-196.014
11
182.791
21
-195.943
0
LINE
8
BLACK
6
CONTINUOUS
10
184.149
20
-196.586
11
184.149
21
-195.086
0
LINE
8
BLACK
6
CONTINUOUS
10
184.149
20
-196.514
11
184.006
21
-196.586
0
LINE
8
BLACK
6
CONTINUOUS
10
184.006
20
-196.586
11
183.72
21
-196.586
0
LINE
8
BLACK
6
CONTINUOUS
10
183.72
20
-196.586
11
183.577
21
-196.514
0
LINE
8
BLACK
6
CONTINUOUS
10
183.577
20
-196.514
11
183.506
21
-196.443
0
LINE
8
BLACK
6
CONTINUOUS
10
183.506
20
-196.443
11
183.434
21
-196.3
0
LINE
8
BLACK
6
CONTINUOUS
10
183.434
20
-196.3
11
183.434
21
-195.871
0
LINE
8
BLACK
6
CONTINUOUS
10
183.434
20
-195.871
11
183.506
21
-195.729
0
LINE
8
BLACK
6
CONTINUOUS
10
183.506
20
-195.729
11
183.577
21
-195.657
0
LINE
8
BLACK
6
CONTINUOUS
10
183.577
20
-195.657
11
183.72
21
-195.586
0
LINE
8
BLACK
6
CONTINUOUS
10
183.72
20
-195.586
11
184.006
21
-195.586
0
LINE
8
BLACK
6
CONTINUOUS
10
184.006
20
-195.586
11
184.149
21
-195.657
0
LINE
8
BLACK
6
CONTINUOUS
10
186.006
20
-195.8
11
186.506
21
-195.8
0
LINE
8
BLACK
6
CONTINUOUS
10
186.72
20
-196.586
11
186.006
21
-196.586
0
LINE
8
BLACK
6
CONTINUOUS
10
186.006
20
-196.586
11
186.006
21
-195.086
0
LINE
8
BLACK
6
CONTINUOUS
10
186.006
20
-195.086
11
186.72
21
-195.086
0
LINE
8
BLACK
6
CONTINUOUS
10
187.363
20
-196.443
11
187.434
21
-196.514
0
LINE
8
BLACK
6
CONTINUOUS
10
187.434
20
-196.514
11
187.363
21
-196.586
0
LINE
8
BLACK
6
CONTINUOUS
10
187.363
20
-196.586
11
187.291
21
-196.514
0
LINE
8
BLACK
6
CONTINUOUS
10
187.291
20
-196.514
11
187.363
21
-196.443
0
LINE
8
BLACK
6
CONTINUOUS
10
187.363
20
-196.443
11
187.363
21
-196.586
0
LINE
8
BLACK
6
CONTINUOUS
10
188.077
20
-196.586
11
188.077
21
-195.086
0
LINE
8
BLACK
6
CONTINUOUS
10
188.077
20
-195.086
11
188.434
21
-195.086
0
LINE
8
BLACK
6
CONTINUOUS
10
188.434
20
-195.086
11
188.649
21
-195.157
0
LINE
8
BLACK
6
CONTINUOUS
10
188.649
20
-195.157
11
188.791
21
-195.3
0
LINE
8
BLACK
6
CONTINUOUS
10
188.791
20
-195.3
11
188.863
21
-195.443
0
LINE
8
BLACK
6
CONTINUOUS
10
188.863
20
-195.443
11
188.934
21
-195.729
0
LINE
8
BLACK
6
CONTINUOUS
10
188.934
20
-195.729
11
188.934
21
-195.943
0
LINE
8
BLACK
6
CONTINUOUS
10
188.934
20
-195.943
11
188.863
21
-196.229
0
LINE
8
BLACK
6
CONTINUOUS
10
188.863
20
-196.229
11
188.791
21
-196.371
0
LINE
8
BLACK
6
CONTINUOUS
10
188.791
20
-196.371
11
188.649
21
-196.514
0
LINE
8
BLACK
6
CONTINUOUS
10
188.649
20
-196.514
11
188.434
21
-196.586
0
LINE
8
BLACK
6
CONTINUOUS
10
188.434
20
-196.586
11
188.077
21
-196.586
0
LINE
8
BLACK
6
CONTINUOUS
10
189.577
20
-196.443
11
189.649
21
-196.514
0
LINE
8
BLACK
6
CONTINUOUS
10
189.649
20
-196.514
11
189.577
21
-196.586
0
LINE
8
BLACK
6
CONTINUOUS
10
189.577
20
-196.586
11
189.506
21
-196.514
0
LINE
8
BLACK
6
CONTINUOUS
10
189.506
20
-196.514
11
189.577
21
-196.443
0
LINE
8
BLACK
6
CONTINUOUS
10
189.577
20
-196.443
11
189.577
21
-196.586
0
LINE
8
BLACK
6
CONTINUOUS
10
190.22
20
-196.157
11
190.934
21
-196.157
0
LINE
8
BLACK
6
CONTINUOUS
10
190.077
20
-196.586
11
190.577
21
-195.086
0
LINE
8
BLACK
6
CONTINUOUS
10
190.577
20
-195.086
11
191.077
21
-196.586
0
LINE
8
BLACK
6
CONTINUOUS
10
191.577
20
-196.443
11
191.649
21
-196.514
0
LINE
8
BLACK
6
CONTINUOUS
10
191.649
20
-196.514
11
191.577
21
-196.586
0
LINE
8
BLACK
6
CONTINUOUS
10
191.577
20
-196.586
11
191.506
21
-196.514
0
LINE
8
BLACK
6
CONTINUOUS
10
191.506
20
-196.514
11
191.577
21
-196.443
0
LINE
8
BLACK
6
CONTINUOUS
10
191.577
20
-196.443
11
191.577
21
-196.586
0
LINE
8
BLACK
6
CONTINUOUS
10
194.577
20
-196.586
11
194.577
21
-195.086
0
LINE
8
BLACK
6
CONTINUOUS
10
194.72
20
-196.014
11
195.149
21
-196.586
0
LINE
8
BLACK
6
CONTINUOUS
10
195.149
20
-195.586
11
194.577
21
-196.157
0
LINE
8
BLACK
6
CONTINUOUS
10
195.791
20
-196.586
11
195.791
21
-195.586
0
LINE
8
BLACK
6
CONTINUOUS
10
195.791
20
-195.086
11
195.72
21
-195.157
0
LINE
8
BLACK
6
CONTINUOUS
10
195.72
20
-195.157
11
195.791
21
-195.229
0
LINE
8
BLACK
6
CONTINUOUS
10
195.791
20
-195.229
11
195.863
21
-195.157
0
LINE
8
BLACK
6
CONTINUOUS
10
195.863
20
-195.157
11
195.791
21
-195.086
0
LINE
8
BLACK
6
CONTINUOUS
10
195.791
20
-195.086
11
195.791
21
-195.229
0
LINE
8
BLACK
6
CONTINUOUS
10
197.149
20
-196.514
11
197.006
21
-196.586
0
LINE
8
BLACK
6
CONTINUOUS
10
197.006
20
-196.586
11
196.72
21
-196.586
0
LINE
8
BLACK
6
CONTINUOUS
10
196.72
20
-196.586
11
196.577
21
-196.514
0
LINE
8
BLACK
6
CONTINUOUS
10
196.577
20
-196.514
11
196.506
21
-196.443
0
LINE
8
BLACK
6
CONTINUOUS
10
196.506
20
-196.443
11
196.434
21
-196.3
0
LINE
8
BLACK
6
CONTINUOUS
10
196.434
20
-196.3
11
196.434
21
-195.871
0
LINE
8
BLACK
6
CONTINUOUS
10
196.434
20
-195.871
11
196.506
21
-195.729
0
LINE
8
BLACK
6
CONTINUOUS
10
196.506
20
-195.729
11
196.577
21
-195.657
0
LINE
8
BLACK
6
CONTINUOUS
10
196.577
20
-195.657
11
196.72
21
-195.586
0
LINE
8
BLACK
6
CONTINUOUS
10
196.72
20
-195.586
11
197.006
21
-195.586
0
LINE
8
BLACK
6
CONTINUOUS
10
197.006
20
-195.586
11
197.149
21
-195.657
0
LINE
8
BLACK
6
CONTINUOUS
10
198.434
20
-196.586
11
198.434
21
-195.8
0
LINE
8
BLACK
6
CONTINUOUS
10
198.434
20
-195.8
11
198.363
21
-195.657
0
LINE
8
BLACK
6
CONTINUOUS
10
198.363
20
-195.657
11
198.22
21
-195.586
0
LINE
8
BLACK
6
CONTINUOUS
10
198.22
20
-195.586
11
197.934
21
-195.586
0
LINE
8
BLACK
6
CONTINUOUS
10
197.934
20
-195.586
11
197.791
21
-195.657
0
LINE
8
BLACK
6
CONTINUOUS
10
198.434
20
-196.514
11
198.291
21
-196.586
0
LINE
8
BLACK
6
CONTINUOUS
10
198.291
20
-196.586
11
197.934
21
-196.586
0
LINE
8
BLACK
6
CONTINUOUS
10
197.934
20
-196.586
11
197.791
21
-196.514
0
LINE
8
BLACK
6
CONTINUOUS
10
197.791
20
-196.514
11
197.72
21
-196.371
0
LINE
8
BLACK
6
CONTINUOUS
10
197.72
20
-196.371
11
197.72
21
-196.229
0
LINE
8
BLACK
6
CONTINUOUS
10
197.72
20
-196.229
11
197.791
21
-196.086
0
LINE
8
BLACK
6
CONTINUOUS
10
197.791
20
-196.086
11
197.934
21
-196.014
0
LINE
8
BLACK
6
CONTINUOUS
10
197.934
20
-196.014
11
198.291
21
-196.014
0
LINE
8
BLACK
6
CONTINUOUS
10
198.291
20
-196.014
11
198.434
21
-195.943
0
LINE
8
BLACK
6
CONTINUOUS
10
199.791
20
-196.586
11
199.791
21
-195.086
0
LINE
8
BLACK
6
CONTINUOUS
10
199.791
20
-196.514
11
199.649
21
-196.586
0
LINE
8
BLACK
6
CONTINUOUS
10
199.649
20
-196.586
11
199.363
21
-196.586
0
LINE
8
BLACK
6
CONTINUOUS
10
199.363
20
-196.586
11
199.22
21
-196.514
0
LINE
8
BLACK
6
CONTINUOUS
10
199.22
20
-196.514
11
199.149
21
-196.443
0
LINE
8
BLACK
6
CONTINUOUS
10
199.149
20
-196.443
11
199.077
21
-196.3
0
LINE
8
BLACK
6
CONTINUOUS
10
199.077
20
-196.3
11
199.077
21
-195.871
0
LINE
8
BLACK
6
CONTINUOUS
10
199.077
20
-195.871
11
199.149
21
-195.729
0
LINE
8
BLACK
6
CONTINUOUS
10
199.149
20
-195.729
11
199.22
21
-195.657
0
LINE
8
BLACK
6
CONTINUOUS
10
199.22
20
-195.657
11
199.363
21
-195.586
0
LINE
8
BLACK
6
CONTINUOUS
10
199.363
20
-195.586
11
199.649
21
-195.586
0
LINE
8
BLACK
6
CONTINUOUS
10
199.649
20
-195.586
11
199.791
21
-195.657
0
LINE
8
BLACK
6
CONTINUOUS
10
202.077
20
-197.157
11
202.006
21
-197.086
0
LINE
8
BLACK
6
CONTINUOUS
10
202.006
20
-197.086
11
201.863
21
-196.871
0
LINE
8
BLACK
6
CONTINUOUS
10
201.863
20
-196.871
11
201.791
21
-196.729
0
LINE
8
BLACK
6
CONTINUOUS
10
201.791
20
-196.729
11
201.72
21
-196.514
0
LINE
8
BLACK
6
CONTINUOUS
10
201.72
20
-196.514
11
201.649
21
-196.157
0
LINE
8
BLACK
6
CONTINUOUS
10
201.649
20
-196.157
11
201.649
21
-195.871
0
LINE
8
BLACK
6
CONTINUOUS
10
201.649
20
-195.871
11
201.72
21
-195.514
0
LINE
8
BLACK
6
CONTINUOUS
10
201.72
20
-195.514
11
201.791
21
-195.3
0
LINE
8
BLACK
6
CONTINUOUS
10
201.791
20
-195.3
11
201.863
21
-195.157
0
LINE
8
BLACK
6
CONTINUOUS
10
201.863
20
-195.157
11
202.006
21
-194.943
0
LINE
8
BLACK
6
CONTINUOUS
10
202.006
20
-194.943
11
202.077
21
-194.871
0
LINE
8
BLACK
6
CONTINUOUS
10
203.363
20
-195.086
11
202.649
21
-195.086
0
LINE
8
BLACK
6
CONTINUOUS
10
202.649
20
-195.086
11
202.577
21
-195.8
0
LINE
8
BLACK
6
CONTINUOUS
10
202.577
20
-195.8
11
202.649
21
-195.729
0
LINE
8
BLACK
6
CONTINUOUS
10
202.649
20
-195.729
11
202.791
21
-195.657
0
LINE
8
BLACK
6
CONTINUOUS
10
202.791
20
-195.657
11
203.149
21
-195.657
0
LINE
8
BLACK
6
CONTINUOUS
10
203.149
20
-195.657
11
203.291
21
-195.729
0
LINE
8
BLACK
6
CONTINUOUS
10
203.291
20
-195.729
11
203.363
21
-195.8
0
LINE
8
BLACK
6
CONTINUOUS
10
203.363
20
-195.8
11
203.434
21
-195.943
0
LINE
8
BLACK
6
CONTINUOUS
10
203.434
20
-195.943
11
203.434
21
-196.3
0
LINE
8
BLACK
6
CONTINUOUS
10
203.434
20
-196.3
11
203.363
21
-196.443
0
LINE
8
BLACK
6
CONTINUOUS
10
203.363
20
-196.443
11
203.291
21
-196.514
0
LINE
8
BLACK
6
CONTINUOUS
10
203.291
20
-196.514
11
203.149
21
-196.586
0
LINE
8
BLACK
6
CONTINUOUS
10
203.149
20
-196.586
11
202.791
21
-196.586
0
LINE
8
BLACK
6
CONTINUOUS
10
202.791
20
-196.586
11
202.649
21
-196.514
0
LINE
8
BLACK
6
CONTINUOUS
10
202.649
20
-196.514
11
202.577
21
-196.443
0
LINE
8
BLACK
6
CONTINUOUS
10
204.077
20
-196.443
11
204.149
21
-196.514
0
LINE
8
BLACK
6
CONTINUOUS
10
204.149
20
-196.514
11
204.077
21
-196.586
0
LINE
8
BLACK
6
CONTINUOUS
10
204.077
20
-196.586
11
204.006
21
-196.514
0
LINE
8
BLACK
6
CONTINUOUS
10
204.006
20
-196.514
11
204.077
21
-196.443
0
LINE
8
BLACK
6
CONTINUOUS
10
204.077
20
-196.443
11
204.077
21
-196.586
0
LINE
8
BLACK
6
CONTINUOUS
10
205.077
20
-195.086
11
205.22
21
-195.086
0
LINE
8
BLACK
6
CONTINUOUS
10
205.22
20
-195.086
11
205.363
21
-195.157
0
LINE
8
BLACK
6
CONTINUOUS
10
205.363
20
-195.157
11
205.434
21
-195.229
0
LINE
8
BLACK
6
CONTINUOUS
10
205.434
20
-195.229
11
205.506
21
-195.371
0
LINE
8
BLACK
6
CONTINUOUS
10
205.506
20
-195.371
11
205.577
21
-195.657
0
LINE
8
BLACK
6
CONTINUOUS
10
205.577
20
-195.657
11
205.577
21
-196.014
0
LINE
8
BLACK
6
CONTINUOUS
10
205.577
20
-196.014
11
205.506
21
-196.3
0
LINE
8
BLACK
6
CONTINUOUS
10
205.506
20
-196.3
11
205.434
21
-196.443
0
LINE
8
BLACK
6
CONTINUOUS
10
205.434
20
-196.443
11
205.363
21
-196.514
0
LINE
8
BLACK
6
CONTINUOUS
10
205.363
20
-196.514
11
205.22
21
-196.586
0
LINE
8
BLACK
6
CONTINUOUS
10
205.22
20
-196.586
11
205.077
21
-196.586
0
LINE
8
BLACK
6
CONTINUOUS
10
205.077
20
-196.586
11
204.934
21
-196.514
0
LINE
8
BLACK
6
CONTINUOUS
10
204.934
20
-196.514
11
204.863
21
-196.443
0
LINE
8
BLACK
6
CONTINUOUS
10
204.863
20
-196.443
11
204.791
21
-196.3
0
LINE
8
BLACK
6
CONTINUOUS
10
204.791
20
-196.3
11
204.72
21
-196.014
0
LINE
8
BLACK
6
CONTINUOUS
10
204.72
20
-196.014
11
204.72
21
-195.657
0
LINE
8
BLACK
6
CONTINUOUS
10
204.72
20
-195.657
11
204.791
21
-195.371
0
LINE
8
BLACK
6
CONTINUOUS
10
204.791
20
-195.371
11
204.863
21
-195.229
0
LINE
8
BLACK
6
CONTINUOUS
10
204.863
20
-195.229
11
204.934
21
-195.157
0
LINE
8
BLACK
6
CONTINUOUS
10
204.934
20
-195.157
11
205.077
21
-195.086
0
LINE
8
BLACK
6
CONTINUOUS
10
206.22
20
-196.443
11
206.291
21
-196.514
0
LINE
8
BLACK
6
CONTINUOUS
10
206.291
20
-196.514
11
206.22
21
-196.586
0
LINE
8
BLACK
6
CONTINUOUS
10
206.22
20
-196.586
11
206.149
21
-196.514
0
LINE
8
BLACK
6
CONTINUOUS
10
206.149
20
-196.514
11
206.22
21
-196.443
0
LINE
8
BLACK
6
CONTINUOUS
10
206.22
20
-196.443
11
206.22
21
-196.586
0
LINE
8
BLACK
6
CONTINUOUS
10
206.863
20
-195.229
11
206.934
21
-195.157
0
LINE
8
BLACK
6
CONTINUOUS
10
206.934
20
-195.157
11
207.077
21
-195.086
0
LINE
8
BLACK
6
CONTINUOUS
10
207.077
20
-195.086
11
207.434
21
-195.086
0
LINE
8
BLACK
6
CONTINUOUS
10
207.434
20
-195.086
11
207.577
21
-195.157
0
LINE
8
BLACK
6
CONTINUOUS
10
207.577
20
-195.157
11
207.649
21
-195.229
0
LINE
8
BLACK
6
CONTINUOUS
10
207.649
20
-195.229
11
207.72
21
-195.371
0
LINE
8
BLACK
6
CONTINUOUS
10
207.72
20
-195.371
11
207.72
21
-195.514
0
LINE
8
BLACK
6
CONTINUOUS
10
207.72
20
-195.514
11
207.649
21
-195.729
0
LINE
8
BLACK
6
CONTINUOUS
10
207.649
20
-195.729
11
206.791
21
-196.586
0
LINE
8
BLACK
6
CONTINUOUS
10
206.791
20
-196.586
11
207.72
21
-196.586
0
LINE
8
BLACK
6
CONTINUOUS
10
208.22
20
-197.157
11
208.291
21
-197.086
0
LINE
8
BLACK
6
CONTINUOUS
10
208.291
20
-197.086
11
208.434
21
-196.871
0
LINE
8
BLACK
6
CONTINUOUS
10
208.434
20
-196.871
11
208.506
21
-196.729
0
LINE
8
BLACK
6
CONTINUOUS
10
208.506
20
-196.729
11
208.577
21
-196.514
0
LINE
8
BLACK
6
CONTINUOUS
10
208.577
20
-196.514
11
208.649
21
-196.157
0
LINE
8
BLACK
6
CONTINUOUS
10
208.649
20
-196.157
11
208.649
21
-195.871
0
LINE
8
BLACK
6
CONTINUOUS
10
208.649
20
-195.871
11
208.577
21
-195.514
0
LINE
8
BLACK
6
CONTINUOUS
10
208.577
20
-195.514
11
208.506
21
-195.3
0
LINE
8
BLACK
6
CONTINUOUS
10
208.506
20
-195.3
11
208.434
21
-195.157
0
LINE
8
BLACK
6
CONTINUOUS
10
208.434
20
-195.157
11
208.291
21
-194.943
0
LINE
8
BLACK
6
CONTINUOUS
10
208.291
20
-194.943
11
208.22
21
-194.871
0
LINE
8
BLACK
6
CONTINUOUS
10
209.363
20
-196.014
11
210.506
21
-196.014
0
LINE
8
BLACK
6
CONTINUOUS
10
212.006
20
-196.586
11
211.149
21
-196.586
0
LINE
8
BLACK
6
CONTINUOUS
10
211.577
20
-196.586
11
211.577
21
-195.086
0
LINE
8
BLACK
6
CONTINUOUS
10
211.577
20
-195.086
11
211.434
21
-195.3
0
LINE
8
BLACK
6
CONTINUOUS
10
211.434
20
-195.3
11
211.291
21
-195.443
0
LINE
8
BLACK
6
CONTINUOUS
10
211.291
20
-195.443
11
211.149
21
-195.514
0
LINE
8
BLACK
6
CONTINUOUS
10
177.002
20
-191.507
11
285.002
21
-191.507
0
LINE
8
BLACK
6
CONTINUOUS
10
264.411
20
-193.786
11
263.911
21
-193.071
0
LINE
8
BLACK
6
CONTINUOUS
10
263.554
20
-193.786
11
263.554
21
-192.286
0
LINE
8
BLACK
6
CONTINUOUS
10
263.554
20
-192.286
11
264.126
21
-192.286
0
LINE
8
BLACK
6
CONTINUOUS
10
264.126
20
-192.286
11
264.269
21
-192.357
0
LINE
8
BLACK
6
CONTINUOUS
10
264.269
20
-192.357
11
264.34
21
-192.429
0
LINE
8
BLACK
6
CONTINUOUS
10
264.34
20
-192.429
11
264.411
21
-192.571
0
LINE
8
BLACK
6
CONTINUOUS
10
264.411
20
-192.571
11
264.411
21
-192.786
0
LINE
8
BLACK
6
CONTINUOUS
10
264.411
20
-192.786
11
264.34
21
-192.929
0
LINE
8
BLACK
6
CONTINUOUS
10
264.34
20
-192.929
11
264.269
21
-193
0
LINE
8
BLACK
6
CONTINUOUS
10
264.269
20
-193
11
264.126
21
-193.071
0
LINE
8
BLACK
6
CONTINUOUS
10
264.126
20
-193.071
11
263.554
21
-193.071
0
LINE
8
BLACK
6
CONTINUOUS
10
265.626
20
-193.714
11
265.483
21
-193.786
0
LINE
8
BLACK
6
CONTINUOUS
10
265.483
20
-193.786
11
265.197
21
-193.786
0
LINE
8
BLACK
6
CONTINUOUS
10
265.197
20
-193.786
11
265.054
21
-193.714
0
LINE
8
BLACK
6
CONTINUOUS
10
265.054
20
-193.714
11
264.983
21
-193.571
0
LINE
8
BLACK
6
CONTINUOUS
10
264.983
20
-193.571
11
264.983
21
-193
0
LINE
8
BLACK
6
CONTINUOUS
10
264.983
20
-193
11
265.054
21
-192.857
0
LINE
8
BLACK
6
CONTINUOUS
10
265.054
20
-192.857
11
265.197
21
-192.786
0
LINE
8
BLACK
6
CONTINUOUS
10
265.197
20
-192.786
11
265.483
21
-192.786
0
LINE
8
BLACK
6
CONTINUOUS
10
265.483
20
-192.786
11
265.626
21
-192.857
0
LINE
8
BLACK
6
CONTINUOUS
10
265.626
20
-192.857
11
265.697
21
-193
0
LINE
8
BLACK
6
CONTINUOUS
10
265.697
20
-193
11
265.697
21
-193.143
0
LINE
8
BLACK
6
CONTINUOUS
10
265.697
20
-193.143
11
264.983
21
-193.286
0
LINE
8
BLACK
6
CONTINUOUS
10
266.197
20
-192.786
11
266.554
21
-193.786
0
LINE
8
BLACK
6
CONTINUOUS
10
266.554
20
-193.786
11
266.911
21
-192.786
0
LINE
8
BLACK
6
CONTINUOUS
10
267.483
20
-193.643
11
267.554
21
-193.714
0
LINE
8
BLACK
6
CONTINUOUS
10
267.554
20
-193.714
11
267.483
21
-193.786
0
LINE
8
BLACK
6
CONTINUOUS
10
267.483
20
-193.786
11
267.411
21
-193.714
0
LINE
8
BLACK
6
CONTINUOUS
10
267.411
20
-193.714
11
267.483
21
-193.643
0
LINE
8
BLACK
6
CONTINUOUS
10
267.483
20
-193.643
11
267.483
21
-193.786
0
LINE
8
BLACK
6
CONTINUOUS
10
267.483
20
-192.857
11
267.554
21
-192.929
0
LINE
8
BLACK
6
CONTINUOUS
10
267.554
20
-192.929
11
267.483
21
-193
0
LINE
8
BLACK
6
CONTINUOUS
10
267.483
20
-193
11
267.411
21
-192.929
0
LINE
8
BLACK
6
CONTINUOUS
10
267.411
20
-192.929
11
267.483
21
-192.857
0
LINE
8
BLACK
6
CONTINUOUS
10
267.483
20
-192.857
11
267.483
21
-193
0
LINE
8
BLACK
6
CONTINUOUS
10
178.363
20
-193.714
11
178.577
21
-193.786
0
LINE
8
BLACK
6
CONTINUOUS
10
178.577
20
-193.786
11
178.934
21
-193.786
0
LINE
8
BLACK
6
CONTINUOUS
10
178.934
20
-193.786
11
179.077
21
-193.714
0
LINE
8
BLACK
6
CONTINUOUS
10
179.077
20
-193.714
11
179.149
21
-193.643
0
LINE
8
BLACK
6
CONTINUOUS
10
179.149
20
-193.643
11
179.22
21
-193.5
0
LINE
8
BLACK
6
CONTINUOUS
10
179.22
20
-193.5
11
179.22
21
-193.357
0
LINE
8
BLACK
6
CONTINUOUS
10
179.22
20
-193.357
11
179.149
21
-193.214
0
LINE
8
BLACK
6
CONTINUOUS
10
179.149
20
-193.214
11
179.077
21
-193.143
0
LINE
8
BLACK
6
CONTINUOUS
10
179.077
20
-193.143
11
178.934
21
-193.071
0
LINE
8
BLACK
6
CONTINUOUS
10
178.934
20
-193.071
11
178.649
21
-193
0
LINE
8
BLACK
6
CONTINUOUS
10
178.649
20
-193
11
178.506
21
-192.929
0
LINE
8
BLACK
6
CONTINUOUS
10
178.506
20
-192.929
11
178.434
21
-192.857
0
LINE
8
BLACK
6
CONTINUOUS
10
178.434
20
-192.857
11
178.363
21
-192.714
0
LINE
8
BLACK
6
CONTINUOUS
10
178.363
20
-192.714
11
178.363
21
-192.571
0
LINE
8
BLACK
6
CONTINUOUS
10
178.363
20
-192.571
11
178.434
21
-192.429
0
LINE
8
BLACK
6
CONTINUOUS
10
178.434
20
-192.429
11
178.506
21
-192.357
0
LINE
8
BLACK
6
CONTINUOUS
10
178.506
20
-192.357
11
178.649
21
-192.286
0
LINE
8
BLACK
6
CONTINUOUS
10
178.649
20
-192.286
11
179.006
21
-192.286
0
LINE
8
BLACK
6
CONTINUOUS
10
179.006
20
-192.286
11
179.22
21
-192.357
0
LINE
8
BLACK
6
CONTINUOUS
10
179.863
20
-193.786
11
179.863
21
-192.786
0
LINE
8
BLACK
6
CONTINUOUS
10
179.863
20
-192.286
11
179.791
21
-192.357
0
LINE
8
BLACK
6
CONTINUOUS
10
179.791
20
-192.357
11
179.863
21
-192.429
0
LINE
8
BLACK
6
CONTINUOUS
10
179.863
20
-192.429
11
179.934
21
-192.357
0
LINE
8
BLACK
6
CONTINUOUS
10
179.934
20
-192.357
11
179.863
21
-192.286
0
LINE
8
BLACK
6
CONTINUOUS
10
179.863
20
-192.286
11
179.863
21
-192.429
0
LINE
8
BLACK
6
CONTINUOUS
10
180.434
20
-192.786
11
181.22
21
-192.786
0
LINE
8
BLACK
6
CONTINUOUS
10
181.22
20
-192.786
11
180.434
21
-193.786
0
LINE
8
BLACK
6
CONTINUOUS
10
180.434
20
-193.786
11
181.22
21
-193.786
0
LINE
8
BLACK
6
CONTINUOUS
10
182.363
20
-193.714
11
182.22
21
-193.786
0
LINE
8
BLACK
6
CONTINUOUS
10
182.22
20
-193.786
11
181.934
21
-193.786
0
LINE
8
BLACK
6
CONTINUOUS
10
181.934
20
-193.786
11
181.791
21
-193.714
0
LINE
8
BLACK
6
CONTINUOUS
10
181.791
20
-193.714
11
181.72
21
-193.571
0
LINE
8
BLACK
6
CONTINUOUS
10
181.72
20
-193.571
11
181.72
21
-193
0
LINE
8
BLACK
6
CONTINUOUS
10
181.72
20
-193
11
181.791
21
-192.857
0
LINE
8
BLACK
6
CONTINUOUS
10
181.791
20
-192.857
11
181.934
21
-192.786
0
LINE
8
BLACK
6
CONTINUOUS
10
181.934
20
-192.786
11
182.22
21
-192.786
0
LINE
8
BLACK
6
CONTINUOUS
10
182.22
20
-192.786
11
182.363
21
-192.857
0
LINE
8
BLACK
6
CONTINUOUS
10
182.363
20
-192.857
11
182.434
21
-193
0
LINE
8
BLACK
6
CONTINUOUS
10
182.434
20
-193
11
182.434
21
-193.143
0
LINE
8
BLACK
6
CONTINUOUS
10
182.434
20
-193.143
11
181.72
21
-193.286
0
LINE
8
BLACK
6
CONTINUOUS
10
183.077
20
-193.643
11
183.149
21
-193.714
0
LINE
8
BLACK
6
CONTINUOUS
10
183.149
20
-193.714
11
183.077
21
-193.786
0
LINE
8
BLACK
6
CONTINUOUS
10
183.077
20
-193.786
11
183.006
21
-193.714
0
LINE
8
BLACK
6
CONTINUOUS
10
183.006
20
-193.714
11
183.077
21
-193.643
0
LINE
8
BLACK
6
CONTINUOUS
10
183.077
20
-193.643
11
183.077
21
-193.786
0
LINE
8
BLACK
6
CONTINUOUS
10
183.077
20
-192.857
11
183.149
21
-192.929
0
LINE
8
BLACK
6
CONTINUOUS
10
183.149
20
-192.929
11
183.077
21
-193
0
LINE
8
BLACK
6
CONTINUOUS
10
183.077
20
-193
11
183.006
21
-192.929
0
LINE
8
BLACK
6
CONTINUOUS
10
183.006
20
-192.929
11
183.077
21
-192.857
0
LINE
8
BLACK
6
CONTINUOUS
10
183.077
20
-192.857
11
183.077
21
-193
0
LINE
8
BLACK
6
CONTINUOUS
10
184.863
20
-193.357
11
185.577
21
-193.357
0
LINE
8
BLACK
6
CONTINUOUS
10
184.72
20
-193.786
11
185.22
21
-192.286
0
LINE
8
BLACK
6
CONTINUOUS
10
185.22
20
-192.286
11
185.72
21
-193.786
0
LINE
8
BLACK
6
CONTINUOUS
10
186.863
20
-192.786
11
186.863
21
-193.786
0
LINE
8
BLACK
6
CONTINUOUS
10
186.506
20
-192.214
11
186.149
21
-193.286
0
LINE
8
BLACK
6
CONTINUOUS
10
186.149
20
-193.286
11
187.077
21
-193.286
0
LINE
8
BLACK
6
CONTINUOUS
10
263.434
20
-196.586
11
263.434
21
-195.086
0
LINE
8
BLACK
6
CONTINUOUS
10
264.791
20
-196.586
11
264.791
21
-195.086
0
LINE
8
BLACK
6
CONTINUOUS
10
264.791
20
-196.514
11
264.649
21
-196.586
0
LINE
8
BLACK
6
CONTINUOUS
10
264.649
20
-196.586
11
264.363
21
-196.586
0
LINE
8
BLACK
6
CONTINUOUS
10
264.363
20
-196.586
11
264.22
21
-196.514
0
LINE
8
BLACK
6
CONTINUOUS
10
264.22
20
-196.514
11
264.149
21
-196.443
0
LINE
8
BLACK
6
CONTINUOUS
10
264.149
20
-196.443
11
264.077
21
-196.3
0
LINE
8
BLACK
6
CONTINUOUS
10
264.077
20
-196.3
11
264.077
21
-195.871
0
LINE
8
BLACK
6
CONTINUOUS
10
264.077
20
-195.871
11
264.149
21
-195.729
0
LINE
8
BLACK
6
CONTINUOUS
10
264.149
20
-195.729
11
264.22
21
-195.657
0
LINE
8
BLACK
6
CONTINUOUS
10
264.22
20
-195.657
11
264.363
21
-195.586
0
LINE
8
BLACK
6
CONTINUOUS
10
264.363
20
-195.586
11
264.649
21
-195.586
0
LINE
8
BLACK
6
CONTINUOUS
10
264.649
20
-195.586
11
264.791
21
-195.657
0
LINE
8
BLACK
6
CONTINUOUS
10
265.506
20
-196.443
11
265.577
21
-196.514
0
LINE
8
BLACK
6
CONTINUOUS
10
265.577
20
-196.514
11
265.506
21
-196.586
0
LINE
8
BLACK
6
CONTINUOUS
10
265.506
20
-196.586
11
265.434
21
-196.514
0
LINE
8
BLACK
6
CONTINUOUS
10
265.434
20
-196.514
11
265.506
21
-196.443
0
LINE
8
BLACK
6
CONTINUOUS
10
265.506
20
-196.443
11
265.506
21
-196.586
0
LINE
8
BLACK
6
CONTINUOUS
10
265.506
20
-195.657
11
265.577
21
-195.729
0
LINE
8
BLACK
6
CONTINUOUS
10
265.577
20
-195.729
11
265.506
21
-195.8
0
LINE
8
BLACK
6
CONTINUOUS
10
265.506
20
-195.8
11
265.434
21
-195.729
0
LINE
8
BLACK
6
CONTINUOUS
10
265.434
20
-195.729
11
265.506
21
-195.657
0
LINE
8
BLACK
6
CONTINUOUS
10
265.506
20
-195.657
11
265.506
21
-195.8
0
LINE
8
BLACK
6
CONTINUOUS
10
268.149
20
-196.586
11
267.291
21
-196.586
0
LINE
8
BLACK
6
CONTINUOUS
10
267.72
20
-196.586
11
267.72
21
-195.086
0
LINE
8
BLACK
6
CONTINUOUS
10
267.72
20
-195.086
11
267.577
21
-195.3
0
LINE
8
BLACK
6
CONTINUOUS
10
267.577
20
-195.3
11
267.434
21
-195.443
0
LINE
8
BLACK
6
CONTINUOUS
10
267.434
20
-195.443
11
267.291
21
-195.514
0
LINE
8
BLACK
6
CONTINUOUS
10
269.863
20
-195.014
11
268.577
21
-196.943
0
LINE
8
BLACK
6
CONTINUOUS
10
271.149
20
-196.586
11
270.291
21
-196.586
0
LINE
8
BLACK
6
CONTINUOUS
10
270.72
20
-196.586
11
270.72
21
-195.086
0
LINE
8
BLACK
6
CONTINUOUS
10
270.72
20
-195.086
11
270.577
21
-195.3
0
LINE
8
BLACK
6
CONTINUOUS
10
270.577
20
-195.3
11
270.434
21
-195.443
0
LINE
8
BLACK
6
CONTINUOUS
10
270.434
20
-195.443
11
270.291
21
-195.514
0
LINE
8
BLACK
6
CONTINUOUS
10
177.002
20
-187.507
11
285.002
21
-187.507
0
LINE
8
BLACK
6
CONTINUOUS
10
178.715
20
-188.212
11
179.857
21
-188.212
0
LINE
8
BLACK
6
CONTINUOUS
10
179.036
20
-190.212
11
179.286
21
-188.212
0
LINE
8
BLACK
6
CONTINUOUS
10
180.274
20
-190.212
11
180.441
21
-188.879
0
LINE
8
BLACK
6
CONTINUOUS
10
180.524
20
-188.212
11
180.417
21
-188.307
0
LINE
8
BLACK
6
CONTINUOUS
10
180.417
20
-188.307
11
180.5
21
-188.402
0
LINE
8
BLACK
6
CONTINUOUS
10
180.5
20
-188.402
11
180.607
21
-188.307
0
LINE
8
BLACK
6
CONTINUOUS
10
180.607
20
-188.307
11
180.524
21
-188.212
0
LINE
8
BLACK
6
CONTINUOUS
10
180.524
20
-188.212
11
180.5
21
-188.402
0
LINE
8
BLACK
6
CONTINUOUS
10
181.107
20
-188.879
11
181.869
21
-188.879
0
LINE
8
BLACK
6
CONTINUOUS
10
181.476
20
-188.212
11
181.262
21
-189.926
0
LINE
8
BLACK
6
CONTINUOUS
10
181.262
20
-189.926
11
181.334
21
-190.117
0
LINE
8
BLACK
6
CONTINUOUS
10
181.334
20
-190.117
11
181.512
21
-190.212
0
LINE
8
BLACK
6
CONTINUOUS
10
181.512
20
-190.212
11
181.703
21
-190.212
0
LINE
8
BLACK
6
CONTINUOUS
10
182.655
20
-190.212
11
182.476
21
-190.117
0
LINE
8
BLACK
6
CONTINUOUS
10
182.476
20
-190.117
11
182.405
21
-189.926
0
LINE
8
BLACK
6
CONTINUOUS
10
182.405
20
-189.926
11
182.619
21
-188.212
0
LINE
8
BLACK
6
CONTINUOUS
10
184.191
20
-190.117
11
183.988
21
-190.212
0
LINE
8
BLACK
6
CONTINUOUS
10
183.988
20
-190.212
11
183.607
21
-190.212
0
LINE
8
BLACK
6
CONTINUOUS
10
183.607
20
-190.212
11
183.429
21
-190.117
0
LINE
8
BLACK
6
CONTINUOUS
10
183.429
20
-190.117
11
183.357
21
-189.926
0
LINE
8
BLACK
6
CONTINUOUS
10
183.357
20
-189.926
11
183.453
21
-189.164
0
LINE
8
BLACK
6
CONTINUOUS
10
183.453
20
-189.164
11
183.572
21
-188.974
0
LINE
8
BLACK
6
CONTINUOUS
10
183.572
20
-188.974
11
183.774
21
-188.879
0
LINE
8
BLACK
6
CONTINUOUS
10
183.774
20
-188.879
11
184.155
21
-188.879
0
LINE
8
BLACK
6
CONTINUOUS
10
184.155
20
-188.879
11
184.334
21
-188.974
0
LINE
8
BLACK
6
CONTINUOUS
10
184.334
20
-188.974
11
184.405
21
-189.164
0
LINE
8
BLACK
6
CONTINUOUS
10
184.405
20
-189.164
11
184.381
21
-189.355
0
LINE
8
BLACK
6
CONTINUOUS
10
184.381
20
-189.355
11
183.405
21
-189.545
0
LINE
8
BLACK
6
CONTINUOUS
10
185.155
20
-190.021
11
185.238
21
-190.117
0
LINE
8
BLACK
6
CONTINUOUS
10
185.238
20
-190.117
11
185.131
21
-190.212
0
LINE
8
BLACK
6
CONTINUOUS
10
185.131
20
-190.212
11
185.048
21
-190.117
0
LINE
8
BLACK
6
CONTINUOUS
10
185.048
20
-190.117
11
185.155
21
-190.021
0
LINE
8
BLACK
6
CONTINUOUS
10
185.155
20
-190.021
11
185.131
21
-190.212
0
LINE
8
BLACK
6
CONTINUOUS
10
185.286
20
-188.974
11
185.369
21
-189.069
0
LINE
8
BLACK
6
CONTINUOUS
10
185.369
20
-189.069
11
185.262
21
-189.164
0
LINE
8
BLACK
6
CONTINUOUS
10
185.262
20
-189.164
11
185.179
21
-189.069
0
LINE
8
BLACK
6
CONTINUOUS
10
185.179
20
-189.069
11
185.286
21
-188.974
0
LINE
8
BLACK
6
CONTINUOUS
10
185.286
20
-188.974
11
185.262
21
-189.164
0
LINE
8
BLACK
6
CONTINUOUS
10
178.934
20
-185.6
11
178.434
21
-185.6
0
LINE
8
BLACK
6
CONTINUOUS
10
178.434
20
-186.386
11
178.434
21
-184.886
0
LINE
8
BLACK
6
CONTINUOUS
10
178.434
20
-184.886
11
179.149
21
-184.886
0
LINE
8
BLACK
6
CONTINUOUS
10
179.72
20
-186.386
11
179.72
21
-185.386
0
LINE
8
BLACK
6
CONTINUOUS
10
179.72
20
-184.886
11
179.649
21
-184.957
0
LINE
8
BLACK
6
CONTINUOUS
10
179.649
20
-184.957
11
179.72
21
-185.029
0
LINE
8
BLACK
6
CONTINUOUS
10
179.72
20
-185.029
11
179.791
21
-184.957
0
LINE
8
BLACK
6
CONTINUOUS
10
179.791
20
-184.957
11
179.72
21
-184.886
0
LINE
8
BLACK
6
CONTINUOUS
10
179.72
20
-184.886
11
179.72
21
-185.029
0
LINE
8
BLACK
6
CONTINUOUS
10
180.649
20
-186.386
11
180.506
21
-186.314
0
LINE
8
BLACK
6
CONTINUOUS
10
180.506
20
-186.314
11
180.434
21
-186.171
0
LINE
8
BLACK
6
CONTINUOUS
10
180.434
20
-186.171
11
180.434
21
-184.886
0
LINE
8
BLACK
6
CONTINUOUS
10
181.791
20
-186.314
11
181.649
21
-186.386
0
LINE
8
BLACK
6
CONTINUOUS
10
181.649
20
-186.386
11
181.363
21
-186.386
0
LINE
8
BLACK
6
CONTINUOUS
10
181.363
20
-186.386
11
181.22
21
-186.314
0
LINE
8
BLACK
6
CONTINUOUS
10
181.22
20
-186.314
11
181.149
21
-186.171
0
LINE
8
BLACK
6
CONTINUOUS
10
181.149
20
-186.171
11
181.149
21
-185.6
0
LINE
8
BLACK
6
CONTINUOUS
10
181.149
20
-185.6
11
181.22
21
-185.457
0
LINE
8
BLACK
6
CONTINUOUS
10
181.22
20
-185.457
11
181.363
21
-185.386
0
LINE
8
BLACK
6
CONTINUOUS
10
181.363
20
-185.386
11
181.649
21
-185.386
0
LINE
8
BLACK
6
CONTINUOUS
10
181.649
20
-185.386
11
181.791
21
-185.457
0
LINE
8
BLACK
6
CONTINUOUS
10
181.791
20
-185.457
11
181.863
21
-185.6
0
LINE
8
BLACK
6
CONTINUOUS
10
181.863
20
-185.6
11
181.863
21
-185.743
0
LINE
8
BLACK
6
CONTINUOUS
10
181.863
20
-185.743
11
181.149
21
-185.886
0
LINE
8
BLACK
6
CONTINUOUS
10
182.506
20
-186.243
11
182.577
21
-186.314
0
LINE
8
BLACK
6
CONTINUOUS
10
182.577
20
-186.314
11
182.506
21
-186.386
0
LINE
8
BLACK
6
CONTINUOUS
10
182.506
20
-186.386
11
182.434
21
-186.314
0
LINE
8
BLACK
6
CONTINUOUS
10
182.434
20
-186.314
11
182.506
21
-186.243
0
LINE
8
BLACK
6
CONTINUOUS
10
182.506
20
-186.243
11
182.506
21
-186.386
0
LINE
8
BLACK
6
CONTINUOUS
10
182.506
20
-185.457
11
182.577
21
-185.529
0
LINE
8
BLACK
6
CONTINUOUS
10
182.577
20
-185.529
11
182.506
21
-185.6
0
LINE
8
BLACK
6
CONTINUOUS
10
182.506
20
-185.6
11
182.434
21
-185.529
0
LINE
8
BLACK
6
CONTINUOUS
10
182.434
20
-185.529
11
182.506
21
-185.457
0
LINE
8
BLACK
6
CONTINUOUS
10
182.506
20
-185.457
11
182.506
21
-185.6
0
LINE
8
BLACK
6
CONTINUOUS
10
184.863
20
-185.6
11
184.363
21
-185.6
0
LINE
8
BLACK
6
CONTINUOUS
10
184.363
20
-186.386
11
184.363
21
-184.886
0
LINE
8
BLACK
6
CONTINUOUS
10
184.363
20
-184.886
11
185.077
21
-184.886
0
LINE
8
BLACK
6
CONTINUOUS
10
185.649
20
-186.386
11
185.649
21
-185.386
0
LINE
8
BLACK
6
CONTINUOUS
10
185.649
20
-185.671
11
185.72
21
-185.529
0
LINE
8
BLACK
6
CONTINUOUS
10
185.72
20
-185.529
11
185.791
21
-185.457
0
LINE
8
BLACK
6
CONTINUOUS
10
185.791
20
-185.457
11
185.934
21
-185.386
0
LINE
8
BLACK
6
CONTINUOUS
10
185.934
20
-185.386
11
186.077
21
-185.386
0
LINE
8
BLACK
6
CONTINUOUS
10
186.791
20
-186.386
11
186.649
21
-186.314
0
LINE
8
BLACK
6
CONTINUOUS
10
186.649
20
-186.314
11
186.577
21
-186.243
0
LINE
8
BLACK
6
CONTINUOUS
10
186.577
20
-186.243
11
186.506
21
-186.1
0
LINE
8
BLACK
6
CONTINUOUS
10
186.506
20
-186.1
11
186.506
21
-185.671
0
LINE
8
BLACK
6
CONTINUOUS
10
186.506
20
-185.671
11
186.577
21
-185.529
0
LINE
8
BLACK
6
CONTINUOUS
10
186.577
20
-185.529
11
186.649
21
-185.457
0
LINE
8
BLACK
6
CONTINUOUS
10
186.649
20
-185.457
11
186.791
21
-185.386
0
LINE
8
BLACK
6
CONTINUOUS
10
186.791
20
-185.386
11
187.006
21
-185.386
0
LINE
8
BLACK
6
CONTINUOUS
10
187.006
20
-185.386
11
187.149
21
-185.457
0
LINE
8
BLACK
6
CONTINUOUS
10
187.149
20
-185.457
11
187.22
21
-185.529
0
LINE
8
BLACK
6
CONTINUOUS
10
187.22
20
-185.529
11
187.291
21
-185.671
0
LINE
8
BLACK
6
CONTINUOUS
10
187.291
20
-185.671
11
187.291
21
-186.1
0
LINE
8
BLACK
6
CONTINUOUS
10
187.291
20
-186.1
11
187.22
21
-186.243
0
LINE
8
BLACK
6
CONTINUOUS
10
187.22
20
-186.243
11
187.149
21
-186.314
0
LINE
8
BLACK
6
CONTINUOUS
10
187.149
20
-186.314
11
187.006
21
-186.386
0
LINE
8
BLACK
6
CONTINUOUS
10
187.006
20
-186.386
11
186.791
21
-186.386
0
LINE
8
BLACK
6
CONTINUOUS
10
188.577
20
-185.386
11
188.577
21
-186.6
0
LINE
8
BLACK
6
CONTINUOUS
10
188.577
20
-186.6
11
188.506
21
-186.743
0
LINE
8
BLACK
6
CONTINUOUS
10
188.506
20
-186.743
11
188.434
21
-186.814
0
LINE
8
BLACK
6
CONTINUOUS
10
188.434
20
-186.814
11
188.291
21
-186.886
0
LINE
8
BLACK
6
CONTINUOUS
10
188.291
20
-186.886
11
188.077
21
-186.886
0
LINE
8
BLACK
6
CONTINUOUS
10
188.077
20
-186.886
11
187.934
21
-186.814
0
LINE
8
BLACK
6
CONTINUOUS
10
188.577
20
-186.314
11
188.434
21
-186.386
0
LINE
8
BLACK
6
CONTINUOUS
10
188.434
20
-186.386
11
188.149
21
-186.386
0
LINE
8
BLACK
6
CONTINUOUS
10
188.149
20
-186.386
11
188.006
21
-186.314
0
LINE
8
BLACK
6
CONTINUOUS
10
188.006
20
-186.314
11
187.934
21
-186.243
0
LINE
8
BLACK
6
CONTINUOUS
10
187.934
20
-186.243
11
187.863
21
-186.1
0
LINE
8
BLACK
6
CONTINUOUS
10
187.863
20
-186.1
11
187.863
21
-185.671
0
LINE
8
BLACK
6
CONTINUOUS
10
187.863
20
-185.671
11
187.934
21
-185.529
0
LINE
8
BLACK
6
CONTINUOUS
10
187.934
20
-185.529
11
188.006
21
-185.457
0
LINE
8
BLACK
6
CONTINUOUS
10
188.006
20
-185.457
11
188.149
21
-185.386
0
LINE
8
BLACK
6
CONTINUOUS
10
188.149
20
-185.386
11
188.434
21
-185.386
0
LINE
8
BLACK
6
CONTINUOUS
10
188.434
20
-185.386
11
188.577
21
-185.457
0
LINE
8
BLACK
6
CONTINUOUS
10
189.291
20
-186.386
11
189.291
21
-184.886
0
LINE
8
BLACK
6
CONTINUOUS
10
190.006
20
-186.386
11
190.006
21
-184.886
0
LINE
8
BLACK
6
CONTINUOUS
10
190.006
20
-184.886
11
190.863
21
-186.386
0
LINE
8
BLACK
6
CONTINUOUS
10
190.863
20
-186.386
11
190.863
21
-184.886
0
LINE
8
BLACK
6
CONTINUOUS
10
191.363
20
-184.886
11
192.22
21
-184.886
0
LINE
8
BLACK
6
CONTINUOUS
10
191.791
20
-186.386
11
191.791
21
-184.886
0
LINE
8
BLACK
6
CONTINUOUS
10
192.363
20
-186.529
11
193.506
21
-186.529
0
LINE
8
BLACK
6
CONTINUOUS
10
193.863
20
-186.386
11
193.863
21
-184.886
0
LINE
8
BLACK
6
CONTINUOUS
10
193.863
20
-184.886
11
194.434
21
-184.886
0
LINE
8
BLACK
6
CONTINUOUS
10
194.434
20
-184.886
11
194.577
21
-184.957
0
LINE
8
BLACK
6
CONTINUOUS
10
194.577
20
-184.957
11
194.649
21
-185.029
0
LINE
8
BLACK
6
CONTINUOUS
10
194.649
20
-185.029
11
194.72
21
-185.171
0
LINE
8
BLACK
6
CONTINUOUS
10
194.72
20
-185.171
11
194.72
21
-185.386
0
LINE
8
BLACK
6
CONTINUOUS
10
194.72
20
-185.386
11
194.649
21
-185.529
0
LINE
8
BLACK
6
CONTINUOUS
10
194.649
20
-185.529
11
194.577
21
-185.6
0
LINE
8
BLACK
6
CONTINUOUS
10
194.577
20
-185.6
11
194.434
21
-185.671
0
LINE
8
BLACK
6
CONTINUOUS
10
194.434
20
-185.671
11
193.863
21
-185.671
0
LINE
8
BLACK
6
CONTINUOUS
10
196.22
20
-186.243
11
196.149
21
-186.314
0
LINE
8
BLACK
6
CONTINUOUS
10
196.149
20
-186.314
11
195.934
21
-186.386
0
LINE
8
BLACK
6
CONTINUOUS
10
195.934
20
-186.386
11
195.791
21
-186.386
0
LINE
8
BLACK
6
CONTINUOUS
10
195.791
20
-186.386
11
195.577
21
-186.314
0
LINE
8
BLACK
6
CONTINUOUS
10
195.577
20
-186.314
11
195.434
21
-186.171
0
LINE
8
BLACK
6
CONTINUOUS
10
195.434
20
-186.171
11
195.363
21
-186.029
0
LINE
8
BLACK
6
CONTINUOUS
10
195.363
20
-186.029
11
195.291
21
-185.743
0
LINE
8
BLACK
6
CONTINUOUS
10
195.291
20
-185.743
11
195.291
21
-185.529
0
LINE
8
BLACK
6
CONTINUOUS
10
195.291
20
-185.529
11
195.363
21
-185.243
0
LINE
8
BLACK
6
CONTINUOUS
10
195.363
20
-185.243
11
195.434
21
-185.1
0
LINE
8
BLACK
6
CONTINUOUS
10
195.434
20
-185.1
11
195.577
21
-184.957
0
LINE
8
BLACK
6
CONTINUOUS
10
195.577
20
-184.957
11
195.791
21
-184.886
0
LINE
8
BLACK
6
CONTINUOUS
10
195.791
20
-184.886
11
195.934
21
-184.886
0
LINE
8
BLACK
6
CONTINUOUS
10
195.934
20
-184.886
11
196.149
21
-184.957
0
LINE
8
BLACK
6
CONTINUOUS
10
196.149
20
-184.957
11
196.22
21
-185.029
0
LINE
8
BLACK
6
CONTINUOUS
10
197.363
20
-185.6
11
197.577
21
-185.671
0
LINE
8
BLACK
6
CONTINUOUS
10
197.577
20
-185.671
11
197.649
21
-185.743
0
LINE
8
BLACK
6
CONTINUOUS
10
197.649
20
-185.743
11
197.72
21
-185.886
0
LINE
8
BLACK
6
CONTINUOUS
10
197.72
20
-185.886
11
197.72
21
-186.1
0
LINE
8
BLACK
6
CONTINUOUS
10
197.72
20
-186.1
11
197.649
21
-186.243
0
LINE
8
BLACK
6
CONTINUOUS
10
197.649
20
-186.243
11
197.577
21
-186.314
0
LINE
8
BLACK
6
CONTINUOUS
10
197.577
20
-186.314
11
197.434
21
-186.386
0
LINE
8
BLACK
6
CONTINUOUS
10
197.434
20
-186.386
11
196.863
21
-186.386
0
LINE
8
BLACK
6
CONTINUOUS
10
196.863
20
-186.386
11
196.863
21
-184.886
0
LINE
8
BLACK
6
CONTINUOUS
10
196.863
20
-184.886
11
197.363
21
-184.886
0
LINE
8
BLACK
6
CONTINUOUS
10
197.363
20
-184.886
11
197.506
21
-184.957
0
LINE
8
BLACK
6
CONTINUOUS
10
197.506
20
-184.957
11
197.577
21
-185.029
0
LINE
8
BLACK
6
CONTINUOUS
10
197.577
20
-185.029
11
197.649
21
-185.171
0
LINE
8
BLACK
6
CONTINUOUS
10
197.649
20
-185.171
11
197.649
21
-185.314
0
LINE
8
BLACK
6
CONTINUOUS
10
197.649
20
-185.314
11
197.577
21
-185.457
0
LINE
8
BLACK
6
CONTINUOUS
10
197.577
20
-185.457
11
197.506
21
-185.529
0
LINE
8
BLACK
6
CONTINUOUS
10
197.506
20
-185.529
11
197.363
21
-185.6
0
LINE
8
BLACK
6
CONTINUOUS
10
197.363
20
-185.6
11
196.863
21
-185.6
0
LINE
8
BLACK
6
CONTINUOUS
10
198.363
20
-186.386
11
198.363
21
-184.886
0
LINE
8
BLACK
6
CONTINUOUS
10
198.363
20
-184.886
11
198.934
21
-184.886
0
LINE
8
BLACK
6
CONTINUOUS
10
198.934
20
-184.886
11
199.077
21
-184.957
0
LINE
8
BLACK
6
CONTINUOUS
10
199.077
20
-184.957
11
199.149
21
-185.029
0
LINE
8
BLACK
6
CONTINUOUS
10
199.149
20
-185.029
11
199.22
21
-185.171
0
LINE
8
BLACK
6
CONTINUOUS
10
199.22
20
-185.171
11
199.22
21
-185.386
0
LINE
8
BLACK
6
CONTINUOUS
10
199.22
20
-185.386
11
199.149
21
-185.529
0
LINE
8
BLACK
6
CONTINUOUS
10
199.149
20
-185.529
11
199.077
21
-185.6
0
LINE
8
BLACK
6
CONTINUOUS
10
199.077
20
-185.6
11
198.934
21
-185.671
0
LINE
8
BLACK
6
CONTINUOUS
10
198.934
20
-185.671
11
198.363
21
-185.671
0
LINE
8
BLACK
6
CONTINUOUS
10
199.863
20
-186.386
11
199.863
21
-185.386
0
LINE
8
BLACK
6
CONTINUOUS
10
199.863
20
-185.671
11
199.934
21
-185.529
0
LINE
8
BLACK
6
CONTINUOUS
10
199.934
20
-185.529
11
200.006
21
-185.457
0
LINE
8
BLACK
6
CONTINUOUS
10
200.006
20
-185.457
11
200.149
21
-185.386
0
LINE
8
BLACK
6
CONTINUOUS
10
200.149
20
-185.386
11
200.291
21
-185.386
0
LINE
8
BLACK
6
CONTINUOUS
10
201.006
20
-186.386
11
200.863
21
-186.314
0
LINE
8
BLACK
6
CONTINUOUS
10
200.863
20
-186.314
11
200.791
21
-186.243
0
LINE
8
BLACK
6
CONTINUOUS
10
200.791
20
-186.243
11
200.72
21
-186.1
0
LINE
8
BLACK
6
CONTINUOUS
10
200.72
20
-186.1
11
200.72
21
-185.671
0
LINE
8
BLACK
6
CONTINUOUS
10
200.72
20
-185.671
11
200.791
21
-185.529
0
LINE
8
BLACK
6
CONTINUOUS
10
200.791
20
-185.529
11
200.863
21
-185.457
0
LINE
8
BLACK
6
CONTINUOUS
10
200.863
20
-185.457
11
201.006
21
-185.386
0
LINE
8
BLACK
6
CONTINUOUS
10
201.006
20
-185.386
11
201.22
21
-185.386
0
LINE
8
BLACK
6
CONTINUOUS
10
201.22
20
-185.386
11
201.363
21
-185.457
0
LINE
8
BLACK
6
CONTINUOUS
10
201.363
20
-185.457
11
201.434
21
-185.529
0
LINE
8
BLACK
6
CONTINUOUS
10
201.434
20
-185.529
11
201.506
21
-185.671
0
LINE
8
BLACK
6
CONTINUOUS
10
201.506
20
-185.671
11
201.506
21
-186.1
0
LINE
8
BLACK
6
CONTINUOUS
10
201.506
20
-186.1
11
201.434
21
-186.243
0
LINE
8
BLACK
6
CONTINUOUS
10
201.434
20
-186.243
11
201.363
21
-186.314
0
LINE
8
BLACK
6
CONTINUOUS
10
201.363
20
-186.314
11
201.22
21
-186.386
0
LINE
8
BLACK
6
CONTINUOUS
10
201.22
20
-186.386
11
201.006
21
-186.386
0
LINE
8
BLACK
6
CONTINUOUS
10
201.934
20
-185.386
11
202.506
21
-185.386
0
LINE
8
BLACK
6
CONTINUOUS
10
202.149
20
-184.886
11
202.149
21
-186.171
0
LINE
8
BLACK
6
CONTINUOUS
10
202.149
20
-186.171
11
202.22
21
-186.314
0
LINE
8
BLACK
6
CONTINUOUS
10
202.22
20
-186.314
11
202.363
21
-186.386
0
LINE
8
BLACK
6
CONTINUOUS
10
202.363
20
-186.386
11
202.506
21
-186.386
0
LINE
8
BLACK
6
CONTINUOUS
10
203.22
20
-186.386
11
203.077
21
-186.314
0
LINE
8
BLACK
6
CONTINUOUS
10
203.077
20
-186.314
11
203.006
21
-186.243
0
LINE
8
BLACK
6
CONTINUOUS
10
203.006
20
-186.243
11
202.934
21
-186.1
0
LINE
8
BLACK
6
CONTINUOUS
10
202.934
20
-186.1
11
202.934
21
-185.671
0
LINE
8
BLACK
6
CONTINUOUS
10
202.934
20
-185.671
11
203.006
21
-185.529
0
LINE
8
BLACK
6
CONTINUOUS
10
203.006
20
-185.529
11
203.077
21
-185.457
0
LINE
8
BLACK
6
CONTINUOUS
10
203.077
20
-185.457
11
203.22
21
-185.386
0
LINE
8
BLACK
6
CONTINUOUS
10
203.22
20
-185.386
11
203.434
21
-185.386
0
LINE
8
BLACK
6
CONTINUOUS
10
203.434
20
-185.386
11
203.577
21
-185.457
0
LINE
8
BLACK
6
CONTINUOUS
10
203.577
20
-185.457
11
203.649
21
-185.529
0
LINE
8
BLACK
6
CONTINUOUS
10
203.649
20
-185.529
11
203.72
21
-185.671
0
LINE
8
BLACK
6
CONTINUOUS
10
203.72
20
-185.671
11
203.72
21
-186.1
0
LINE
8
BLACK
6
CONTINUOUS
10
203.72
20
-186.1
11
203.649
21
-186.243
0
LINE
8
BLACK
6
CONTINUOUS
10
203.649
20
-186.243
11
203.577
21
-186.314
0
LINE
8
BLACK
6
CONTINUOUS
10
203.577
20
-186.314
11
203.434
21
-186.386
0
LINE
8
BLACK
6
CONTINUOUS
10
203.434
20
-186.386
11
203.22
21
-186.386
0
LINE
8
BLACK
6
CONTINUOUS
10
204.006
20
-186.529
11
205.149
21
-186.529
0
LINE
8
BLACK
6
CONTINUOUS
10
205.291
20
-184.886
11
205.791
21
-186.386
0
LINE
8
BLACK
6
CONTINUOUS
10
205.791
20
-186.386
11
206.291
21
-184.886
0
LINE
8
BLACK
6
CONTINUOUS
10
207.577
20
-186.386
11
206.72
21
-186.386
0
LINE
8
BLACK
6
CONTINUOUS
10
207.149
20
-186.386
11
207.149
21
-184.886
0
LINE
8
BLACK
6
CONTINUOUS
10
207.149
20
-184.886
11
207.006
21
-185.1
0
LINE
8
BLACK
6
CONTINUOUS
10
207.006
20
-185.1
11
206.863
21
-185.243
0
LINE
8
BLACK
6
CONTINUOUS
10
206.863
20
-185.243
11
206.72
21
-185.314
0
LINE
8
BLACK
6
CONTINUOUS
10
208.434
20
-185.529
11
208.291
21
-185.457
0
LINE
8
BLACK
6
CONTINUOUS
10
208.291
20
-185.457
11
208.22
21
-185.386
0
LINE
8
BLACK
6
CONTINUOUS
10
208.22
20
-185.386
11
208.149
21
-185.243
0
LINE
8
BLACK
6
CONTINUOUS
10
208.149
20
-185.243
11
208.149
21
-185.171
0
LINE
8
BLACK
6
CONTINUOUS
10
208.149
20
-185.171
11
208.22
21
-185.029
0
LINE
8
BLACK
6
CONTINUOUS
10
208.22
20
-185.029
11
208.291
21
-184.957
0
LINE
8
BLACK
6
CONTINUOUS
10
208.291
20
-184.957
11
208.434
21
-184.886
0
LINE
8
BLACK
6
CONTINUOUS
10
208.434
20
-184.886
11
208.72
21
-184.886
0
LINE
8
BLACK
6
CONTINUOUS
10
208.72
20
-184.886
11
208.863
21
-184.957
0
LINE
8
BLACK
6
CONTINUOUS
10
208.863
20
-184.957
11
208.934
21
-185.029
0
LINE
8
BLACK
6
CONTINUOUS
10
208.934
20
-185.029
11
209.006
21
-185.171
0
LINE
8
BLACK
6
CONTINUOUS
10
209.006
20
-185.171
11
209.006
21
-185.243
0
LINE
8
BLACK
6
CONTINUOUS
10
209.006
20
-185.243
11
208.934
21
-185.386
0
LINE
8
BLACK
6
CONTINUOUS
10
208.934
20
-185.386
11
208.863
21
-185.457
0
LINE
8
BLACK
6
CONTINUOUS
10
208.863
20
-185.457
11
208.72
21
-185.529
0
LINE
8
BLACK
6
CONTINUOUS
10
208.72
20
-185.529
11
208.434
21
-185.529
0
LINE
8
BLACK
6
CONTINUOUS
10
208.434
20
-185.529
11
208.291
21
-185.6
0
LINE
8
BLACK
6
CONTINUOUS
10
208.291
20
-185.6
11
208.22
21
-185.671
0
LINE
8
BLACK
6
CONTINUOUS
10
208.22
20
-185.671
11
208.149
21
-185.814
0
LINE
8
BLACK
6
CONTINUOUS
10
208.149
20
-185.814
11
208.149
21
-186.1
0
LINE
8
BLACK
6
CONTINUOUS
10
208.149
20
-186.1
11
208.22
21
-186.243
0
LINE
8
BLACK
6
CONTINUOUS
10
208.22
20
-186.243
11
208.291
21
-186.314
0
LINE
8
BLACK
6
CONTINUOUS
10
208.291
20
-186.314
11
208.434
21
-186.386
0
LINE
8
BLACK
6
CONTINUOUS
10
208.434
20
-186.386
11
208.72
21
-186.386
0
LINE
8
BLACK
6
CONTINUOUS
10
208.72
20
-186.386
11
208.863
21
-186.314
0
LINE
8
BLACK
6
CONTINUOUS
10
208.863
20
-186.314
11
208.934
21
-186.243
0
LINE
8
BLACK
6
CONTINUOUS
10
208.934
20
-186.243
11
209.006
21
-186.1
0
LINE
8
BLACK
6
CONTINUOUS
10
209.006
20
-186.1
11
209.006
21
-185.814
0
LINE
8
BLACK
6
CONTINUOUS
10
209.006
20
-185.814
11
208.934
21
-185.671
0
LINE
8
BLACK
6
CONTINUOUS
10
208.934
20
-185.671
11
208.863
21
-185.6
0
LINE
8
BLACK
6
CONTINUOUS
10
208.863
20
-185.6
11
208.72
21
-185.529
0
LINE
8
BLACK
6
CONTINUOUS
10
210.434
20
-186.386
11
209.577
21
-186.386
0
LINE
8
BLACK
6
CONTINUOUS
10
210.006
20
-186.386
11
210.006
21
-184.886
0
LINE
8
BLACK
6
CONTINUOUS
10
210.006
20
-184.886
11
209.863
21
-185.1
0
LINE
8
BLACK
6
CONTINUOUS
10
209.863
20
-185.1
11
209.72
21
-185.243
0
LINE
8
BLACK
6
CONTINUOUS
10
209.72
20
-185.243
11
209.577
21
-185.314
0
LINE
8
BLACK
6
CONTINUOUS
10
211.863
20
-186.386
11
211.006
21
-186.386
0
LINE
8
BLACK
6
CONTINUOUS
10
211.434
20
-186.386
11
211.434
21
-184.886
0
LINE
8
BLACK
6
CONTINUOUS
10
211.434
20
-184.886
11
211.291
21
-185.1
0
LINE
8
BLACK
6
CONTINUOUS
10
211.291
20
-185.1
11
211.149
21
-185.243
0
LINE
8
BLACK
6
CONTINUOUS
10
211.149
20
-185.243
11
211.006
21
-185.314
0
LINE
8
BLACK
6
CONTINUOUS
10
212.791
20
-184.886
11
212.934
21
-184.886
0
LINE
8
BLACK
6
CONTINUOUS
10
212.934
20
-184.886
11
213.077
21
-184.957
0
LINE
8
BLACK
6
CONTINUOUS
10
213.077
20
-184.957
11
213.149
21
-185.029
0
LINE
8
BLACK
6
CONTINUOUS
10
213.149
20
-185.029
11
213.22
21
-185.171
0
LINE
8
BLACK
6
CONTINUOUS
10
213.22
20
-185.171
11
213.291
21
-185.457
0
LINE
8
BLACK
6
CONTINUOUS
10
213.291
20
-185.457
11
213.291
21
-185.814
0
LINE
8
BLACK
6
CONTINUOUS
10
213.291
20
-185.814
11
213.22
21
-186.1
0
LINE
8
BLACK
6
CONTINUOUS
10
213.22
20
-186.1
11
213.149
21
-186.243
0
LINE
8
BLACK
6
CONTINUOUS
10
213.149
20
-186.243
11
213.077
21
-186.314
0
LINE
8
BLACK
6
CONTINUOUS
10
213.077
20
-186.314
11
212.934
21
-186.386
0
LINE
8
BLACK
6
CONTINUOUS
10
212.934
20
-186.386
11
212.791
21
-186.386
0
LINE
8
BLACK
6
CONTINUOUS
10
212.791
20
-186.386
11
212.649
21
-186.314
0
LINE
8
BLACK
6
CONTINUOUS
10
212.649
20
-186.314
11
212.577
21
-186.243
0
LINE
8
BLACK
6
CONTINUOUS
10
212.577
20
-186.243
11
212.506
21
-186.1
0
LINE
8
BLACK
6
CONTINUOUS
10
212.506
20
-186.1
11
212.434
21
-185.814
0
LINE
8
BLACK
6
CONTINUOUS
10
212.434
20
-185.814
11
212.434
21
-185.457
0
LINE
8
BLACK
6
CONTINUOUS
10
212.434
20
-185.457
11
212.506
21
-185.171
0
LINE
8
BLACK
6
CONTINUOUS
10
212.506
20
-185.171
11
212.577
21
-185.029
0
LINE
8
BLACK
6
CONTINUOUS
10
212.577
20
-185.029
11
212.649
21
-184.957
0
LINE
8
BLACK
6
CONTINUOUS
10
212.649
20
-184.957
11
212.791
21
-184.886
0
LINE
8
BLACK
6
CONTINUOUS
10
214.577
20
-184.886
11
214.291
21
-184.886
0
LINE
8
BLACK
6
CONTINUOUS
10
214.291
20
-184.886
11
214.149
21
-184.957
0
LINE
8
BLACK
6
CONTINUOUS
10
214.149
20
-184.957
11
214.077
21
-185.029
0
LINE
8
BLACK
6
CONTINUOUS
10
214.077
20
-185.029
11
213.934
21
-185.243
0
LINE
8
BLACK
6
CONTINUOUS
10
213.934
20
-185.243
11
213.863
21
-185.529
0
LINE
8
BLACK
6
CONTINUOUS
10
213.863
20
-185.529
11
213.863
21
-186.1
0
LINE
8
BLACK
6
CONTINUOUS
10
213.863
20
-186.1
11
213.934
21
-186.243
0
LINE
8
BLACK
6
CONTINUOUS
10
213.934
20
-186.243
11
214.006
21
-186.314
0
LINE
8
BLACK
6
CONTINUOUS
10
214.006
20
-186.314
11
214.149
21
-186.386
0
LINE
8
BLACK
6
CONTINUOUS
10
214.149
20
-186.386
11
214.434
21
-186.386
0
LINE
8
BLACK
6
CONTINUOUS
10
214.434
20
-186.386
11
214.577
21
-186.314
0
LINE
8
BLACK
6
CONTINUOUS
10
214.577
20
-186.314
11
214.649
21
-186.243
0
LINE
8
BLACK
6
CONTINUOUS
10
214.649
20
-186.243
11
214.72
21
-186.1
0
LINE
8
BLACK
6
CONTINUOUS
10
214.72
20
-186.1
11
214.72
21
-185.743
0
LINE
8
BLACK
6
CONTINUOUS
10
214.72
20
-185.743
11
214.649
21
-185.6
0
LINE
8
BLACK
6
CONTINUOUS
10
214.649
20
-185.6
11
214.577
21
-185.529
0
LINE
8
BLACK
6
CONTINUOUS
10
214.577
20
-185.529
11
214.434
21
-185.457
0
LINE
8
BLACK
6
CONTINUOUS
10
214.434
20
-185.457
11
214.149
21
-185.457
0
LINE
8
BLACK
6
CONTINUOUS
10
214.149
20
-185.457
11
214.006
21
-185.529
0
LINE
8
BLACK
6
CONTINUOUS
10
214.006
20
-185.529
11
213.934
21
-185.6
0
LINE
8
BLACK
6
CONTINUOUS
10
213.934
20
-185.6
11
213.863
21
-185.743
0
LINE
8
BLACK
6
CONTINUOUS
10
215.291
20
-185.029
11
215.363
21
-184.957
0
LINE
8
BLACK
6
CONTINUOUS
10
215.363
20
-184.957
11
215.506
21
-184.886
0
LINE
8
BLACK
6
CONTINUOUS
10
215.506
20
-184.886
11
215.863
21
-184.886
0
LINE
8
BLACK
6
CONTINUOUS
10
215.863
20
-184.886
11
216.006
21
-184.957
0
LINE
8
BLACK
6
CONTINUOUS
10
216.006
20
-184.957
11
216.077
21
-185.029
0
LINE
8
BLACK
6
CONTINUOUS
10
216.077
20
-185.029
11
216.149
21
-185.171
0
LINE
8
BLACK
6
CONTINUOUS
10
216.149
20
-185.171
11
216.149
21
-185.314
0
LINE
8
BLACK
6
CONTINUOUS
10
216.149
20
-185.314
11
216.077
21
-185.529
0
LINE
8
BLACK
6
CONTINUOUS
10
216.077
20
-185.529
11
215.22
21
-186.386
0
LINE
8
BLACK
6
CONTINUOUS
10
215.22
20
-186.386
11
216.149
21
-186.386
0
LINE
8
BLACK
6
CONTINUOUS
10
217.577
20
-186.386
11
216.72
21
-186.386
0
LINE
8
BLACK
6
CONTINUOUS
10
217.149
20
-186.386
11
217.149
21
-184.886
0
LINE
8
BLACK
6
CONTINUOUS
10
217.149
20
-184.886
11
217.006
21
-185.1
0
LINE
8
BLACK
6
CONTINUOUS
10
217.006
20
-185.1
11
216.863
21
-185.243
0
LINE
8
BLACK
6
CONTINUOUS
10
216.863
20
-185.243
11
216.72
21
-185.314
0
LINE
8
BLACK
6
CONTINUOUS
10
218.934
20
-184.886
11
218.22
21
-184.886
0
LINE
8
BLACK
6
CONTINUOUS
10
218.22
20
-184.886
11
218.149
21
-185.6
0
LINE
8
BLACK
6
CONTINUOUS
10
218.149
20
-185.6
11
218.22
21
-185.529
0
LINE
8
BLACK
6
CONTINUOUS
10
218.22
20
-185.529
11
218.363
21
-185.457
0
LINE
8
BLACK
6
CONTINUOUS
10
218.363
20
-185.457
11
218.72
21
-185.457
0
LINE
8
BLACK
6
CONTINUOUS
10
218.72
20
-185.457
11
218.863
21
-185.529
0
LINE
8
BLACK
6
CONTINUOUS
10
218.863
20
-185.529
11
218.934
21
-185.6
0
LINE
8
BLACK
6
CONTINUOUS
10
218.934
20
-185.6
11
219.006
21
-185.743
0
LINE
8
BLACK
6
CONTINUOUS
10
219.006
20
-185.743
11
219.006
21
-186.1
0
LINE
8
BLACK
6
CONTINUOUS
10
219.006
20
-186.1
11
218.934
21
-186.243
0
LINE
8
BLACK
6
CONTINUOUS
10
218.934
20
-186.243
11
218.863
21
-186.314
0
LINE
8
BLACK
6
CONTINUOUS
10
218.863
20
-186.314
11
218.72
21
-186.386
0
LINE
8
BLACK
6
CONTINUOUS
10
218.72
20
-186.386
11
218.363
21
-186.386
0
LINE
8
BLACK
6
CONTINUOUS
10
218.363
20
-186.386
11
218.22
21
-186.314
0
LINE
8
BLACK
6
CONTINUOUS
10
218.22
20
-186.314
11
218.149
21
-186.243
0
LINE
8
BLACK
6
CONTINUOUS
10
220.291
20
-185.386
11
220.291
21
-186.386
0
LINE
8
BLACK
6
CONTINUOUS
10
219.934
20
-184.814
11
219.577
21
-185.886
0
LINE
8
BLACK
6
CONTINUOUS
10
219.577
20
-185.886
11
220.506
21
-185.886
0
LINE
8
BLACK
6
CONTINUOUS
10
221.077
20
-186.243
11
221.149
21
-186.314
0
LINE
8
BLACK
6
CONTINUOUS
10
221.149
20
-186.314
11
221.077
21
-186.386
0
LINE
8
BLACK
6
CONTINUOUS
10
221.077
20
-186.386
11
221.006
21
-186.314
0
LINE
8
BLACK
6
CONTINUOUS
10
221.006
20
-186.314
11
221.077
21
-186.243
0
LINE
8
BLACK
6
CONTINUOUS
10
221.077
20
-186.243
11
221.077
21
-186.386
0
LINE
8
BLACK
6
CONTINUOUS
10
221.791
20
-186.386
11
221.791
21
-184.886
0
LINE
8
BLACK
6
CONTINUOUS
10
221.934
20
-185.814
11
222.363
21
-186.386
0
LINE
8
BLACK
6
CONTINUOUS
10
222.363
20
-185.386
11
221.791
21
-185.957
0
LINE
8
BLACK
6
CONTINUOUS
10
223.006
20
-186.386
11
223.006
21
-185.386
0
LINE
8
BLACK
6
CONTINUOUS
10
223.006
20
-184.886
11
222.934
21
-184.957
0
LINE
8
BLACK
6
CONTINUOUS
10
222.934
20
-184.957
11
223.006
21
-185.029
0
LINE
8
BLACK
6
CONTINUOUS
10
223.006
20
-185.029
11
223.077
21
-184.957
0
LINE
8
BLACK
6
CONTINUOUS
10
223.077
20
-184.957
11
223.006
21
-184.886
0
LINE
8
BLACK
6
CONTINUOUS
10
223.006
20
-184.886
11
223.006
21
-185.029
0
LINE
8
BLACK
6
CONTINUOUS
10
224.363
20
-186.314
11
224.22
21
-186.386
0
LINE
8
BLACK
6
CONTINUOUS
10
224.22
20
-186.386
11
223.934
21
-186.386
0
LINE
8
BLACK
6
CONTINUOUS
10
223.934
20
-186.386
11
223.791
21
-186.314
0
LINE
8
BLACK
6
CONTINUOUS
10
223.791
20
-186.314
11
223.72
21
-186.243
0
LINE
8
BLACK
6
CONTINUOUS
10
223.72
20
-186.243
11
223.649
21
-186.1
0
LINE
8
BLACK
6
CONTINUOUS
10
223.649
20
-186.1
11
223.649
21
-185.671
0
LINE
8
BLACK
6
CONTINUOUS
10
223.649
20
-185.671
11
223.72
21
-185.529
0
LINE
8
BLACK
6
CONTINUOUS
10
223.72
20
-185.529
11
223.791
21
-185.457
0
LINE
8
BLACK
6
CONTINUOUS
10
223.791
20
-185.457
11
223.934
21
-185.386
0
LINE
8
BLACK
6
CONTINUOUS
10
223.934
20
-185.386
11
224.22
21
-185.386
0
LINE
8
BLACK
6
CONTINUOUS
10
224.22
20
-185.386
11
224.363
21
-185.457
0
LINE
8
BLACK
6
CONTINUOUS
10
225.649
20
-186.386
11
225.649
21
-185.6
0
LINE
8
BLACK
6
CONTINUOUS
10
225.649
20
-185.6
11
225.577
21
-185.457
0
LINE
8
BLACK
6
CONTINUOUS
10
225.577
20
-185.457
11
225.434
21
-185.386
0
LINE
8
BLACK
6
CONTINUOUS
10
225.434
20
-185.386
11
225.149
21
-185.386
0
LINE
8
BLACK
6
CONTINUOUS
10
225.149
20
-185.386
11
225.006
21
-185.457
0
LINE
8
BLACK
6
CONTINUOUS
10
225.649
20
-186.314
11
225.506
21
-186.386
0
LINE
8
BLACK
6
CONTINUOUS
10
225.506
20
-186.386
11
225.149
21
-186.386
0
LINE
8
BLACK
6
CONTINUOUS
10
225.149
20
-186.386
11
225.006
21
-186.314
0
LINE
8
BLACK
6
CONTINUOUS
10
225.006
20
-186.314
11
224.934
21
-186.171
0
LINE
8
BLACK
6
CONTINUOUS
10
224.934
20
-186.171
11
224.934
21
-186.029
0
LINE
8
BLACK
6
CONTINUOUS
10
224.934
20
-186.029
11
225.006
21
-185.886
0
LINE
8
BLACK
6
CONTINUOUS
10
225.006
20
-185.886
11
225.149
21
-185.814
0
LINE
8
BLACK
6
CONTINUOUS
10
225.149
20
-185.814
11
225.506
21
-185.814
0
LINE
8
BLACK
6
CONTINUOUS
10
225.506
20
-185.814
11
225.649
21
-185.743
0
LINE
8
BLACK
6
CONTINUOUS
10
227.006
20
-186.386
11
227.006
21
-184.886
0
LINE
8
BLACK
6
CONTINUOUS
10
227.006
20
-186.314
11
226.863
21
-186.386
0
LINE
8
BLACK
6
CONTINUOUS
10
226.863
20
-186.386
11
226.577
21
-186.386
0
LINE
8
BLACK
6
CONTINUOUS
10
226.577
20
-186.386
11
226.434
21
-186.314
0
LINE
8
BLACK
6
CONTINUOUS
10
226.434
20
-186.314
11
226.363
21
-186.243
0
LINE
8
BLACK
6
CONTINUOUS
10
226.363
20
-186.243
11
226.291
21
-186.1
0
LINE
8
BLACK
6
CONTINUOUS
10
226.291
20
-186.1
11
226.291
21
-185.671
0
LINE
8
BLACK
6
CONTINUOUS
10
226.291
20
-185.671
11
226.363
21
-185.529
0
LINE
8
BLACK
6
CONTINUOUS
10
226.363
20
-185.529
11
226.434
21
-185.457
0
LINE
8
BLACK
6
CONTINUOUS
10
226.434
20
-185.457
11
226.577
21
-185.386
0
LINE
8
BLACK
6
CONTINUOUS
10
226.577
20
-185.386
11
226.863
21
-185.386
0
LINE
8
BLACK
6
CONTINUOUS
10
226.863
20
-185.386
11
227.006
21
-185.457
0
LINE
8
BLACK
6
CONTINUOUS
10
227.363
20
-186.529
11
228.506
21
-186.529
0
LINE
8
BLACK
6
CONTINUOUS
10
228.863
20
-185.386
11
228.863
21
-186.886
0
LINE
8
BLACK
6
CONTINUOUS
10
228.863
20
-185.457
11
229.006
21
-185.386
0
LINE
8
BLACK
6
CONTINUOUS
10
229.006
20
-185.386
11
229.291
21
-185.386
0
LINE
8
BLACK
6
CONTINUOUS
10
229.291
20
-185.386
11
229.434
21
-185.457
0
LINE
8
BLACK
6
CONTINUOUS
10
229.434
20
-185.457
11
229.506
21
-185.529
0
LINE
8
BLACK
6
CONTINUOUS
10
229.506
20
-185.529
11
229.577
21
-185.671
0
LINE
8
BLACK
6
CONTINUOUS
10
229.577
20
-185.671
11
229.577
21
-186.1
0
LINE
8
BLACK
6
CONTINUOUS
10
229.577
20
-186.1
11
229.506
21
-186.243
0
LINE
8
BLACK
6
CONTINUOUS
10
229.506
20
-186.243
11
229.434
21
-186.314
0
LINE
8
BLACK
6
CONTINUOUS
10
229.434
20
-186.314
11
229.291
21
-186.386
0
LINE
8
BLACK
6
CONTINUOUS
10
229.291
20
-186.386
11
229.006
21
-186.386
0
LINE
8
BLACK
6
CONTINUOUS
10
229.006
20
-186.386
11
228.863
21
-186.314
0
LINE
8
BLACK
6
CONTINUOUS
10
230.863
20
-186.314
11
230.72
21
-186.386
0
LINE
8
BLACK
6
CONTINUOUS
10
230.72
20
-186.386
11
230.434
21
-186.386
0
LINE
8
BLACK
6
CONTINUOUS
10
230.434
20
-186.386
11
230.291
21
-186.314
0
LINE
8
BLACK
6
CONTINUOUS
10
230.291
20
-186.314
11
230.22
21
-186.243
0
LINE
8
BLACK
6
CONTINUOUS
10
230.22
20
-186.243
11
230.149
21
-186.1
0
LINE
8
BLACK
6
CONTINUOUS
10
230.149
20
-186.1
11
230.149
21
-185.671
0
LINE
8
BLACK
6
CONTINUOUS
10
230.149
20
-185.671
11
230.22
21
-185.529
0
LINE
8
BLACK
6
CONTINUOUS
10
230.22
20
-185.529
11
230.291
21
-185.457
0
LINE
8
BLACK
6
CONTINUOUS
10
230.291
20
-185.457
11
230.434
21
-185.386
0
LINE
8
BLACK
6
CONTINUOUS
10
230.434
20
-185.386
11
230.72
21
-185.386
0
LINE
8
BLACK
6
CONTINUOUS
10
230.72
20
-185.386
11
230.863
21
-185.457
0
LINE
8
BLACK
6
CONTINUOUS
10
231.506
20
-186.386
11
231.506
21
-184.886
0
LINE
8
BLACK
6
CONTINUOUS
10
231.506
20
-185.457
11
231.649
21
-185.386
0
LINE
8
BLACK
6
CONTINUOUS
10
231.649
20
-185.386
11
231.934
21
-185.386
0
LINE
8
BLACK
6
CONTINUOUS
10
231.934
20
-185.386
11
232.077
21
-185.457
0
LINE
8
BLACK
6
CONTINUOUS
10
232.077
20
-185.457
11
232.149
21
-185.529
0
LINE
8
BLACK
6
CONTINUOUS
10
232.149
20
-185.529
11
232.22
21
-185.671
0
LINE
8
BLACK
6
CONTINUOUS
10
232.22
20
-185.671
11
232.22
21
-186.1
0
LINE
8
BLACK
6
CONTINUOUS
10
232.22
20
-186.1
11
232.149
21
-186.243
0
LINE
8
BLACK
6
CONTINUOUS
10
232.149
20
-186.243
11
232.077
21
-186.314
0
LINE
8
BLACK
6
CONTINUOUS
10
232.077
20
-186.314
11
231.934
21
-186.386
0
LINE
8
BLACK
6
CONTINUOUS
10
231.934
20
-186.386
11
231.649
21
-186.386
0
LINE
8
BLACK
6
CONTINUOUS
10
231.649
20
-186.386
11
231.506
21
-186.314
0
LINE
8
BLACK
6
CONTINUOUS
10
177.002
20
-181.507
11
285.002
21
-181.507
0
LINE
8
BLACK
6
CONTINUOUS
10
178.363
20
-183.614
11
178.577
21
-183.686
0
LINE
8
BLACK
6
CONTINUOUS
10
178.577
20
-183.686
11
178.934
21
-183.686
0
LINE
8
BLACK
6
CONTINUOUS
10
178.934
20
-183.686
11
179.077
21
-183.614
0
LINE
8
BLACK
6
CONTINUOUS
10
179.077
20
-183.614
11
179.149
21
-183.543
0
LINE
8
BLACK
6
CONTINUOUS
10
179.149
20
-183.543
11
179.22
21
-183.4
0
LINE
8
BLACK
6
CONTINUOUS
10
179.22
20
-183.4
11
179.22
21
-183.257
0
LINE
8
BLACK
6
CONTINUOUS
10
179.22
20
-183.257
11
179.149
21
-183.114
0
LINE
8
BLACK
6
CONTINUOUS
10
179.149
20
-183.114
11
179.077
21
-183.043
0
LINE
8
BLACK
6
CONTINUOUS
10
179.077
20
-183.043
11
178.934
21
-182.971
0
LINE
8
BLACK
6
CONTINUOUS
10
178.934
20
-182.971
11
178.649
21
-182.9
0
LINE
8
BLACK
6
CONTINUOUS
10
178.649
20
-182.9
11
178.506
21
-182.829
0
LINE
8
BLACK
6
CONTINUOUS
10
178.506
20
-182.829
11
178.434
21
-182.757
0
LINE
8
BLACK
6
CONTINUOUS
10
178.434
20
-182.757
11
178.363
21
-182.614
0
LINE
8
BLACK
6
CONTINUOUS
10
178.363
20
-182.614
11
178.363
21
-182.471
0
LINE
8
BLACK
6
CONTINUOUS
10
178.363
20
-182.471
11
178.434
21
-182.329
0
LINE
8
BLACK
6
CONTINUOUS
10
178.434
20
-182.329
11
178.506
21
-182.257
0
LINE
8
BLACK
6
CONTINUOUS
10
178.506
20
-182.257
11
178.649
21
-182.186
0
LINE
8
BLACK
6
CONTINUOUS
10
178.649
20
-182.186
11
179.006
21
-182.186
0
LINE
8
BLACK
6
CONTINUOUS
10
179.006
20
-182.186
11
179.22
21
-182.257
0
LINE
8
BLACK
6
CONTINUOUS
10
179.863
20
-183.686
11
179.863
21
-182.186
0
LINE
8
BLACK
6
CONTINUOUS
10
180.506
20
-183.686
11
180.506
21
-182.9
0
LINE
8
BLACK
6
CONTINUOUS
10
180.506
20
-182.9
11
180.434
21
-182.757
0
LINE
8
BLACK
6
CONTINUOUS
10
180.434
20
-182.757
11
180.291
21
-182.686
0
LINE
8
BLACK
6
CONTINUOUS
10
180.291
20
-182.686
11
180.077
21
-182.686
0
LINE
8
BLACK
6
CONTINUOUS
10
180.077
20
-182.686
11
179.934
21
-182.757
0
LINE
8
BLACK
6
CONTINUOUS
10
179.934
20
-182.757
11
179.863
21
-182.829
0
LINE
8
BLACK
6
CONTINUOUS
10
181.791
20
-183.614
11
181.649
21
-183.686
0
LINE
8
BLACK
6
CONTINUOUS
10
181.649
20
-183.686
11
181.363
21
-183.686
0
LINE
8
BLACK
6
CONTINUOUS
10
181.363
20
-183.686
11
181.22
21
-183.614
0
LINE
8
BLACK
6
CONTINUOUS
10
181.22
20
-183.614
11
181.149
21
-183.471
0
LINE
8
BLACK
6
CONTINUOUS
10
181.149
20
-183.471
11
181.149
21
-182.9
0
LINE
8
BLACK
6
CONTINUOUS
10
181.149
20
-182.9
11
181.22
21
-182.757
0
LINE
8
BLACK
6
CONTINUOUS
10
181.22
20
-182.757
11
181.363
21
-182.686
0
LINE
8
BLACK
6
CONTINUOUS
10
181.363
20
-182.686
11
181.649
21
-182.686
0
LINE
8
BLACK
6
CONTINUOUS
10
181.649
20
-182.686
11
181.791
21
-182.757
0
LINE
8
BLACK
6
CONTINUOUS
10
181.791
20
-182.757
11
181.863
21
-182.9
0
LINE
8
BLACK
6
CONTINUOUS
10
181.863
20
-182.9
11
181.863
21
-183.043
0
LINE
8
BLACK
6
CONTINUOUS
10
181.863
20
-183.043
11
181.149
21
-183.186
0
LINE
8
BLACK
6
CONTINUOUS
10
183.077
20
-183.614
11
182.934
21
-183.686
0
LINE
8
BLACK
6
CONTINUOUS
10
182.934
20
-183.686
11
182.649
21
-183.686
0
LINE
8
BLACK
6
CONTINUOUS
10
182.649
20
-183.686
11
182.506
21
-183.614
0
LINE
8
BLACK
6
CONTINUOUS
10
182.506
20
-183.614
11
182.434
21
-183.471
0
LINE
8
BLACK
6
CONTINUOUS
10
182.434
20
-183.471
11
182.434
21
-182.9
0
LINE
8
BLACK
6
CONTINUOUS
10
182.434
20
-182.9
11
182.506
21
-182.757
0
LINE
8
BLACK
6
CONTINUOUS
10
182.506
20
-182.757
11
182.649
21
-182.686
0
LINE
8
BLACK
6
CONTINUOUS
10
182.649
20
-182.686
11
182.934
21
-182.686
0
LINE
8
BLACK
6
CONTINUOUS
10
182.934
20
-182.686
11
183.077
21
-182.757
0
LINE
8
BLACK
6
CONTINUOUS
10
183.077
20
-182.757
11
183.149
21
-182.9
0
LINE
8
BLACK
6
CONTINUOUS
10
183.149
20
-182.9
11
183.149
21
-183.043
0
LINE
8
BLACK
6
CONTINUOUS
10
183.149
20
-183.043
11
182.434
21
-183.186
0
LINE
8
BLACK
6
CONTINUOUS
10
183.577
20
-182.686
11
184.149
21
-182.686
0
LINE
8
BLACK
6
CONTINUOUS
10
183.791
20
-182.186
11
183.791
21
-183.471
0
LINE
8
BLACK
6
CONTINUOUS
10
183.791
20
-183.471
11
183.863
21
-183.614
0
LINE
8
BLACK
6
CONTINUOUS
10
183.863
20
-183.614
11
184.006
21
-183.686
0
LINE
8
BLACK
6
CONTINUOUS
10
184.006
20
-183.686
11
184.149
21
-183.686
0
LINE
8
BLACK
6
CONTINUOUS
10
184.649
20
-183.543
11
184.72
21
-183.614
0
LINE
8
BLACK
6
CONTINUOUS
10
184.72
20
-183.614
11
184.649
21
-183.686
0
LINE
8
BLACK
6
CONTINUOUS
10
184.649
20
-183.686
11
184.577
21
-183.614
0
LINE
8
BLACK
6
CONTINUOUS
10
184.577
20
-183.614
11
184.649
21
-183.543
0
LINE
8
BLACK
6
CONTINUOUS
10
184.649
20
-183.543
11
184.649
21
-183.686
0
LINE
8
BLACK
6
CONTINUOUS
10
184.649
20
-182.757
11
184.72
21
-182.829
0
LINE
8
BLACK
6
CONTINUOUS
10
184.72
20
-182.829
11
184.649
21
-182.9
0
LINE
8
BLACK
6
CONTINUOUS
10
184.649
20
-182.9
11
184.577
21
-182.829
0
LINE
8
BLACK
6
CONTINUOUS
10
184.577
20
-182.829
11
184.649
21
-182.757
0
LINE
8
BLACK
6
CONTINUOUS
10
184.649
20
-182.757
11
184.649
21
-182.9
0
LINE
8
BLACK
6
CONTINUOUS
10
197.002
20
-191.507
11
197.002
21
-194.507
0
LINE
8
BLACK
6
CONTINUOUS
10
261.002
20
-191.507
11
261.002
21
-198.007
0
LINE
8
BLACK
6
CONTINUOUS
10
135.772
20
-80.799
11
135.781
21
-80.799
0
LINE
8
BLACK
6
CONTINUOUS
10
135.781
20
-80.799
11
135.789
21
-80.802
0
LINE
8
BLACK
6
CONTINUOUS
10
135.789
20
-80.802
11
135.798
21
-80.8036
0
LINE
8
BLACK
6
CONTINUOUS
10
135.798
20
-80.8036
11
135.805
21
-80.808
0
LINE
8
BLACK
6
CONTINUOUS
10
135.805
20
-80.808
11
135.814
21
-80.8111
0
LINE
8
BLACK
6
CONTINUOUS
10
135.814
20
-80.8111
11
135.821
21
-80.8168
0
LINE
8
BLACK
6
CONTINUOUS
10
135.821
20
-80.8168
11
135.828
21
-80.8212
0
LINE
8
BLACK
6
CONTINUOUS
10
135.828
20
-80.8212
11
135.834
21
-80.828
0
LINE
8
BLACK
6
CONTINUOUS
10
135.834
20
-80.828
11
135.841
21
-80.8337
0
LINE
8
BLACK
6
CONTINUOUS
10
135.841
20
-80.8337
11
135.845
21
-80.8414
0
LINE
8
BLACK
6
CONTINUOUS
10
135.845
20
-80.8414
11
135.851
21
-80.8482
0
LINE
8
BLACK
6
CONTINUOUS
10
135.851
20
-80.8482
11
135.854
21
-80.8566
0
LINE
8
BLACK
6
CONTINUOUS
10
135.854
20
-80.8566
11
135.858
21
-80.8643
0
LINE
8
BLACK
6
CONTINUOUS
10
135.858
20
-80.8643
11
135.86
21
-80.873
0
LINE
8
BLACK
6
CONTINUOUS
10
135.86
20
-80.873
11
135.863
21
-80.8814
0
LINE
8
BLACK
6
CONTINUOUS
10
135.863
20
-80.8814
11
135.863
21
-80.8902
0
LINE
8
BLACK
6
CONTINUOUS
10
135.863
20
-80.8902
11
135.863
21
-80.8903
0
LINE
8
BLACK
6
CONTINUOUS
10
135.863
20
-80.8903
11
135.863
21
-97.5394
0
LINE
8
BLACK
6
CONTINUOUS
10
135.863
20
-97.5394
11
137.377
21
-97.0402
0
LINE
8
BLACK
6
CONTINUOUS
10
137.377
20
-97.0402
11
137.383
21
-97.0386
0
LINE
8
BLACK
6
CONTINUOUS
10
137.383
20
-97.0386
11
137.384
21
-97.0382
0
LINE
8
BLACK
6
CONTINUOUS
10
137.384
20
-97.0382
11
137.386
21
-97.0378
0
LINE
8
BLACK
6
CONTINUOUS
10
137.386
20
-97.0378
11
139.074
21
-96.6466
0
LINE
8
BLACK
6
CONTINUOUS
10
139.074
20
-96.6466
11
139.08
21
-96.6455
0
LINE
8
BLACK
6
CONTINUOUS
10
139.08
20
-96.6455
11
139.082
21
-96.6453
0
LINE
8
BLACK
6
CONTINUOUS
10
139.082
20
-96.6453
11
139.083
21
-96.645
0
LINE
8
BLACK
6
CONTINUOUS
10
139.083
20
-96.645
11
140.8
21
-96.4085
0
LINE
8
BLACK
6
CONTINUOUS
10
140.8
20
-96.4085
11
140.805
21
-96.4079
0
LINE
8
BLACK
6
CONTINUOUS
10
140.805
20
-96.4079
11
140.807
21
-96.4078
0
LINE
8
BLACK
6
CONTINUOUS
10
140.807
20
-96.4078
11
140.809
21
-96.4077
0
LINE
8
BLACK
6
CONTINUOUS
10
140.809
20
-96.4077
11
142.54
21
-96.3277
0
LINE
8
BLACK
6
CONTINUOUS
10
142.54
20
-96.3277
11
142.546
21
-96.3276
0
LINE
8
BLACK
6
CONTINUOUS
10
142.546
20
-96.3276
11
142.547
21
-96.3277
0
LINE
8
BLACK
6
CONTINUOUS
10
142.547
20
-96.3277
11
142.549
21
-96.3277
0
LINE
8
BLACK
6
CONTINUOUS
10
142.549
20
-96.3277
11
144.28
21
-96.405
0
LINE
8
BLACK
6
CONTINUOUS
10
144.28
20
-96.405
11
144.286
21
-96.4054
0
LINE
8
BLACK
6
CONTINUOUS
10
144.286
20
-96.4054
11
144.287
21
-96.4056
0
LINE
8
BLACK
6
CONTINUOUS
10
144.287
20
-96.4056
11
144.289
21
-96.4058
0
LINE
8
BLACK
6
CONTINUOUS
10
144.289
20
-96.4058
11
146.006
21
-96.6396
0
LINE
8
BLACK
6
CONTINUOUS
10
146.006
20
-96.6396
11
146.012
21
-96.6405
0
LINE
8
BLACK
6
CONTINUOUS
10
146.012
20
-96.6405
11
146.013
21
-96.641
0
LINE
8
BLACK
6
CONTINUOUS
10
146.013
20
-96.641
11
146.015
21
-96.6413
0
LINE
8
BLACK
6
CONTINUOUS
10
146.015
20
-96.6413
11
147.704
21
-97.0298
0
LINE
8
BLACK
6
CONTINUOUS
10
147.704
20
-97.0298
11
147.709
21
-97.0312
0
LINE
8
BLACK
6
CONTINUOUS
10
147.709
20
-97.0312
11
147.711
21
-97.0317
0
LINE
8
BLACK
6
CONTINUOUS
10
147.711
20
-97.0317
11
147.713
21
-97.0322
0
LINE
8
BLACK
6
CONTINUOUS
10
147.713
20
-97.0322
11
149.359
21
-97.5722
0
LINE
8
BLACK
6
CONTINUOUS
10
149.359
20
-97.5722
11
149.364
21
-97.5741
0
LINE
8
BLACK
6
CONTINUOUS
10
149.364
20
-97.5741
11
149.366
21
-97.5748
0
LINE
8
BLACK
6
CONTINUOUS
10
149.366
20
-97.5748
11
149.368
21
-97.5754
0
LINE
8
BLACK
6
CONTINUOUS
10
149.368
20
-97.5754
11
150.959
21
-98.2623
0
LINE
8
BLACK
6
CONTINUOUS
10
150.959
20
-98.2623
11
150.959
21
-98.2624
0
LINE
8
BLACK
6
CONTINUOUS
10
150.959
20
-98.2624
11
150.959
21
-98.2624
0
LINE
8
BLACK
6
CONTINUOUS
10
150.959
20
-98.2624
11
150.964
21
-98.2647
0
LINE
8
BLACK
6
CONTINUOUS
10
150.964
20
-98.2647
11
150.965
21
-98.2656
0
LINE
8
BLACK
6
CONTINUOUS
10
150.965
20
-98.2656
11
150.967
21
-98.2663
0
LINE
8
BLACK
6
CONTINUOUS
10
150.967
20
-98.2663
11
152.489
21
-99.0947
0
LINE
8
BLACK
6
CONTINUOUS
10
152.489
20
-99.0947
11
152.494
21
-99.0975
0
LINE
8
BLACK
6
CONTINUOUS
10
152.494
20
-99.0975
11
152.495
21
-99.0984
0
LINE
8
BLACK
6
CONTINUOUS
10
152.495
20
-99.0984
11
152.497
21
-99.0993
0
LINE
8
BLACK
6
CONTINUOUS
10
152.497
20
-99.0993
11
153.937
21
-100.062
0
LINE
8
BLACK
6
CONTINUOUS
10
153.937
20
-100.062
11
153.942
21
-100.065
0
LINE
8
BLACK
6
CONTINUOUS
10
153.942
20
-100.065
11
153.943
21
-100.067
0
LINE
8
BLACK
6
CONTINUOUS
10
153.943
20
-100.067
11
153.945
21
-100.068
0
LINE
8
BLACK
6
CONTINUOUS
10
153.945
20
-100.068
11
155.292
21
-101.157
0
LINE
8
BLACK
6
CONTINUOUS
10
155.292
20
-101.157
11
155.296
21
-101.161
0
LINE
8
BLACK
6
CONTINUOUS
10
155.296
20
-101.161
11
155.298
21
-101.162
0
LINE
8
BLACK
6
CONTINUOUS
10
155.298
20
-101.162
11
155.299
21
-101.163
0
LINE
8
BLACK
6
CONTINUOUS
10
155.299
20
-101.163
11
156.542
21
-102.37
0
LINE
8
BLACK
6
CONTINUOUS
10
156.542
20
-102.37
11
156.546
21
-102.374
0
LINE
8
BLACK
6
CONTINUOUS
10
156.546
20
-102.374
11
156.547
21
-102.376
0
LINE
8
BLACK
6
CONTINUOUS
10
156.547
20
-102.376
11
156.548
21
-102.377
0
LINE
8
BLACK
6
CONTINUOUS
10
156.548
20
-102.377
11
157.677
21
-103.692
0
LINE
8
BLACK
6
CONTINUOUS
10
157.677
20
-103.692
11
157.681
21
-103.696
0
LINE
8
BLACK
6
CONTINUOUS
10
157.681
20
-103.696
11
157.682
21
-103.697
0
LINE
8
BLACK
6
CONTINUOUS
10
157.682
20
-103.697
11
157.683
21
-103.699
0
LINE
8
BLACK
6
CONTINUOUS
10
157.683
20
-103.699
11
158.688
21
-105.111
0
LINE
8
BLACK
6
CONTINUOUS
10
158.688
20
-105.111
11
158.691
21
-105.115
0
LINE
8
BLACK
6
CONTINUOUS
10
158.691
20
-105.115
11
158.692
21
-105.117
0
LINE
8
BLACK
6
CONTINUOUS
10
158.692
20
-105.117
11
158.693
21
-105.118
0
LINE
8
BLACK
6
CONTINUOUS
10
158.693
20
-105.118
11
159.565
21
-106.615
0
LINE
8
BLACK
6
CONTINUOUS
10
159.565
20
-106.615
11
159.568
21
-106.62
0
LINE
8
BLACK
6
CONTINUOUS
10
159.568
20
-106.62
11
159.569
21
-106.622
0
LINE
8
BLACK
6
CONTINUOUS
10
159.569
20
-106.622
11
159.57
21
-106.623
0
LINE
8
BLACK
6
CONTINUOUS
10
159.57
20
-106.623
11
160.303
21
-108.193
0
LINE
8
BLACK
6
CONTINUOUS
10
160.303
20
-108.193
11
160.305
21
-108.198
0
LINE
8
BLACK
6
CONTINUOUS
10
160.305
20
-108.198
11
160.306
21
-108.2
0
LINE
8
BLACK
6
CONTINUOUS
10
160.306
20
-108.2
11
160.307
21
-108.202
0
LINE
8
BLACK
6
CONTINUOUS
10
160.307
20
-108.202
11
160.895
21
-109.832
0
LINE
8
BLACK
6
CONTINUOUS
10
160.895
20
-109.832
11
160.897
21
-109.837
0
LINE
8
BLACK
6
CONTINUOUS
10
160.897
20
-109.837
11
160.897
21
-109.839
0
LINE
8
BLACK
6
CONTINUOUS
10
160.897
20
-109.839
11
160.898
21
-109.84
0
LINE
8
BLACK
6
CONTINUOUS
10
160.898
20
-109.84
11
161.336
21
-111.517
0
LINE
8
BLACK
6
CONTINUOUS
10
161.336
20
-111.517
11
161.337
21
-111.522
0
LINE
8
BLACK
6
CONTINUOUS
10
161.337
20
-111.522
11
161.337
21
-111.524
0
LINE
8
BLACK
6
CONTINUOUS
10
161.337
20
-111.524
11
161.338
21
-111.526
0
LINE
8
BLACK
6
CONTINUOUS
10
161.338
20
-111.526
11
161.622
21
-113.235
0
LINE
8
BLACK
6
CONTINUOUS
10
161.622
20
-113.235
11
161.623
21
-113.241
0
LINE
8
BLACK
6
CONTINUOUS
10
161.623
20
-113.241
11
161.623
21
-113.242
0
LINE
8
BLACK
6
CONTINUOUS
10
161.623
20
-113.242
11
161.623
21
-113.244
0
LINE
8
BLACK
6
CONTINUOUS
10
161.623
20
-113.244
11
161.751
21
-114.972
0
LINE
8
BLACK
6
CONTINUOUS
10
161.751
20
-114.972
11
161.751
21
-114.978
0
LINE
8
BLACK
6
CONTINUOUS
10
161.751
20
-114.978
11
161.751
21
-114.979
0
LINE
8
BLACK
6
CONTINUOUS
10
161.751
20
-114.979
11
161.751
21
-114.981
0
LINE
8
BLACK
6
CONTINUOUS
10
161.751
20
-114.981
11
161.723
21
-116.714
0
LINE
8
BLACK
6
CONTINUOUS
10
161.723
20
-116.714
11
161.722
21
-116.719
0
LINE
8
BLACK
6
CONTINUOUS
10
161.722
20
-116.719
11
161.722
21
-116.721
0
LINE
8
BLACK
6
CONTINUOUS
10
161.722
20
-116.721
11
161.722
21
-116.723
0
LINE
8
BLACK
6
CONTINUOUS
10
161.722
20
-116.723
11
161.536
21
-118.446
0
LINE
8
BLACK
6
CONTINUOUS
10
161.536
20
-118.446
11
161.535
21
-118.451
0
LINE
8
BLACK
6
CONTINUOUS
10
161.535
20
-118.451
11
161.535
21
-118.453
0
LINE
8
BLACK
6
CONTINUOUS
10
161.535
20
-118.453
11
161.535
21
-118.455
0
LINE
8
BLACK
6
CONTINUOUS
10
161.535
20
-118.455
11
161.194
21
-120.154
0
LINE
8
BLACK
6
CONTINUOUS
10
161.194
20
-120.154
11
161.192
21
-120.159
0
LINE
8
BLACK
6
CONTINUOUS
10
161.192
20
-120.159
11
161.192
21
-120.161
0
LINE
8
BLACK
6
CONTINUOUS
10
161.192
20
-120.161
11
161.191
21
-120.162
0
LINE
8
BLACK
6
CONTINUOUS
10
161.191
20
-120.162
11
160.698
21
-121.823
0
LINE
8
BLACK
6
CONTINUOUS
10
160.698
20
-121.823
11
160.696
21
-121.829
0
LINE
8
BLACK
6
CONTINUOUS
10
160.696
20
-121.829
11
160.695
21
-121.83
0
LINE
8
BLACK
6
CONTINUOUS
10
160.695
20
-121.83
11
160.695
21
-121.832
0
LINE
8
BLACK
6
CONTINUOUS
10
160.695
20
-121.832
11
160.052
21
-123.441
0
LINE
8
BLACK
6
CONTINUOUS
10
160.052
20
-123.441
11
160.05
21
-123.447
0
LINE
8
BLACK
6
CONTINUOUS
10
160.05
20
-123.447
11
160.049
21
-123.448
0
LINE
8
BLACK
6
CONTINUOUS
10
160.049
20
-123.448
11
160.049
21
-123.45
0
LINE
8
BLACK
6
CONTINUOUS
10
160.049
20
-123.45
11
159.263
21
-124.994
0
LINE
8
BLACK
6
CONTINUOUS
10
159.263
20
-124.994
11
159.26
21
-124.999
0
LINE
8
BLACK
6
CONTINUOUS
10
159.26
20
-124.999
11
159.26
21
-125.001
0
LINE
8
BLACK
6
CONTINUOUS
10
159.26
20
-125.001
11
159.259
21
-125.002
0
LINE
8
BLACK
6
CONTINUOUS
10
159.259
20
-125.002
11
158.336
21
-126.469
0
LINE
8
BLACK
6
CONTINUOUS
10
158.336
20
-126.469
11
158.333
21
-126.474
0
LINE
8
BLACK
6
CONTINUOUS
10
158.333
20
-126.474
11
158.332
21
-126.475
0
LINE
8
BLACK
6
CONTINUOUS
10
158.332
20
-126.475
11
158.331
21
-126.477
0
LINE
8
BLACK
6
CONTINUOUS
10
158.331
20
-126.477
11
157.28
21
-127.854
0
LINE
8
BLACK
6
CONTINUOUS
10
157.28
20
-127.854
11
157.276
21
-127.859
0
LINE
8
BLACK
6
CONTINUOUS
10
157.276
20
-127.859
11
157.275
21
-127.86
0
LINE
8
BLACK
6
CONTINUOUS
10
157.275
20
-127.86
11
157.274
21
-127.861
0
LINE
8
BLACK
6
CONTINUOUS
10
157.274
20
-127.861
11
156.102
21
-129.138
0
LINE
8
BLACK
6
CONTINUOUS
10
156.102
20
-129.138
11
156.098
21
-129.142
0
LINE
8
BLACK
6
CONTINUOUS
10
156.098
20
-129.142
11
156.097
21
-129.143
0
LINE
8
BLACK
6
CONTINUOUS
10
156.097
20
-129.143
11
156.096
21
-129.144
0
LINE
8
BLACK
6
CONTINUOUS
10
156.096
20
-129.144
11
154.813
21
-130.309
0
LINE
8
BLACK
6
CONTINUOUS
10
154.813
20
-130.309
11
154.809
21
-130.313
0
LINE
8
BLACK
6
CONTINUOUS
10
154.809
20
-130.313
11
154.807
21
-130.314
0
LINE
8
BLACK
6
CONTINUOUS
10
154.807
20
-130.314
11
154.806
21
-130.315
0
LINE
8
BLACK
6
CONTINUOUS
10
154.806
20
-130.315
11
153.423
21
-131.359
0
LINE
8
BLACK
6
CONTINUOUS
10
153.423
20
-131.359
11
153.418
21
-131.362
0
LINE
8
BLACK
6
CONTINUOUS
10
153.418
20
-131.362
11
153.417
21
-131.363
0
LINE
8
BLACK
6
CONTINUOUS
10
153.417
20
-131.363
11
153.415
21
-131.364
0
LINE
8
BLACK
6
CONTINUOUS
10
153.415
20
-131.364
11
151.943
21
-132.278
0
LINE
8
BLACK
6
CONTINUOUS
10
151.943
20
-132.278
11
151.938
21
-132.281
0
LINE
8
BLACK
6
CONTINUOUS
10
151.938
20
-132.281
11
151.937
21
-132.282
0
LINE
8
BLACK
6
CONTINUOUS
10
151.937
20
-132.282
11
151.935
21
-132.283
0
LINE
8
BLACK
6
CONTINUOUS
10
151.935
20
-132.283
11
150.386
21
-133.06
0
LINE
8
BLACK
6
CONTINUOUS
10
150.386
20
-133.06
11
150.381
21
-133.062
0
LINE
8
BLACK
6
CONTINUOUS
10
150.381
20
-133.062
11
150.38
21
-133.063
0
LINE
8
BLACK
6
CONTINUOUS
10
150.38
20
-133.063
11
150.378
21
-133.063
0
LINE
8
BLACK
6
CONTINUOUS
10
150.378
20
-133.063
11
148.765
21
-133.697
0
LINE
8
BLACK
6
CONTINUOUS
10
148.765
20
-133.697
11
148.76
21
-133.699
0
LINE
8
BLACK
6
CONTINUOUS
10
148.76
20
-133.699
11
148.758
21
-133.699
0
LINE
8
BLACK
6
CONTINUOUS
10
148.758
20
-133.699
11
148.757
21
-133.7
0
LINE
8
BLACK
6
CONTINUOUS
10
148.757
20
-133.7
11
147.093
21
-134.185
0
LINE
8
BLACK
6
CONTINUOUS
10
147.093
20
-134.185
11
147.088
21
-134.186
0
LINE
8
BLACK
6
CONTINUOUS
10
147.088
20
-134.186
11
147.086
21
-134.186
0
LINE
8
BLACK
6
CONTINUOUS
10
147.086
20
-134.186
11
147.084
21
-134.187
0
LINE
8
BLACK
6
CONTINUOUS
10
147.084
20
-134.187
11
145.383
21
-134.519
0
LINE
8
BLACK
6
CONTINUOUS
10
145.383
20
-134.519
11
145.378
21
-134.52
0
LINE
8
BLACK
6
CONTINUOUS
10
145.378
20
-134.52
11
145.376
21
-134.52
0
LINE
8
BLACK
6
CONTINUOUS
10
145.376
20
-134.52
11
145.374
21
-134.52
0
LINE
8
BLACK
6
CONTINUOUS
10
145.374
20
-134.52
11
143.651
21
-134.696
0
LINE
8
BLACK
6
CONTINUOUS
10
143.651
20
-134.696
11
143.645
21
-134.697
0
LINE
8
BLACK
6
CONTINUOUS
10
143.645
20
-134.697
11
143.643
21
-134.697
0
LINE
8
BLACK
6
CONTINUOUS
10
143.643
20
-134.697
11
143.641
21
-134.697
0
LINE
8
BLACK
6
CONTINUOUS
10
143.641
20
-134.697
11
141.909
21
-134.716
0
LINE
8
BLACK
6
CONTINUOUS
10
141.909
20
-134.716
11
141.903
21
-134.716
0
LINE
8
BLACK
6
CONTINUOUS
10
141.903
20
-134.716
11
141.901
21
-134.716
0
LINE
8
BLACK
6
CONTINUOUS
10
141.901
20
-134.716
11
141.9
21
-134.716
0
LINE
8
BLACK
6
CONTINUOUS
10
141.9
20
-134.716
11
140.172
21
-134.579
0
LINE
8
BLACK
6
CONTINUOUS
10
140.172
20
-134.579
11
140.167
21
-134.578
0
LINE
8
BLACK
6
CONTINUOUS
10
140.167
20
-134.578
11
140.165
21
-134.578
0
LINE
8
BLACK
6
CONTINUOUS
10
140.165
20
-134.578
11
140.163
21
-134.577
0
LINE
8
BLACK
6
CONTINUOUS
10
140.163
20
-134.577
11
138.455
21
-134.284
0
LINE
8
BLACK
6
CONTINUOUS
10
138.455
20
-134.284
11
138.45
21
-134.283
0
LINE
8
BLACK
6
CONTINUOUS
10
138.45
20
-134.283
11
138.448
21
-134.282
0
LINE
8
BLACK
6
CONTINUOUS
10
138.448
20
-134.282
11
138.447
21
-134.282
0
LINE
8
BLACK
6
CONTINUOUS
10
138.447
20
-134.282
11
136.772
21
-133.835
0
LINE
8
BLACK
6
CONTINUOUS
10
136.772
20
-133.835
11
136.767
21
-133.833
0
LINE
8
BLACK
6
CONTINUOUS
10
136.767
20
-133.833
11
136.765
21
-133.832
0
LINE
8
BLACK
6
CONTINUOUS
10
136.765
20
-133.832
11
136.764
21
-133.832
0
LINE
8
BLACK
6
CONTINUOUS
10
136.764
20
-133.832
11
135.137
21
-133.235
0
LINE
8
BLACK
6
CONTINUOUS
10
135.137
20
-133.235
11
135.132
21
-133.233
0
LINE
8
BLACK
6
CONTINUOUS
10
135.132
20
-133.233
11
135.13
21
-133.232
0
LINE
8
BLACK
6
CONTINUOUS
10
135.13
20
-133.232
11
135.129
21
-133.231
0
LINE
8
BLACK
6
CONTINUOUS
10
135.129
20
-133.231
11
133.563
21
-132.489
0
LINE
8
BLACK
6
CONTINUOUS
10
133.563
20
-132.489
11
133.558
21
-132.487
0
LINE
8
BLACK
6
CONTINUOUS
10
133.558
20
-132.487
11
133.556
21
-132.486
0
LINE
8
BLACK
6
CONTINUOUS
10
133.556
20
-132.486
11
133.555
21
-132.485
0
LINE
8
BLACK
6
CONTINUOUS
10
133.555
20
-132.485
11
132.062
21
-131.604
0
LINE
8
BLACK
6
CONTINUOUS
10
132.062
20
-131.604
11
132.058
21
-131.601
0
LINE
8
BLACK
6
CONTINUOUS
10
132.058
20
-131.601
11
132.056
21
-131.6
0
LINE
8
BLACK
6
CONTINUOUS
10
132.056
20
-131.6
11
132.055
21
-131.599
0
LINE
8
BLACK
6
CONTINUOUS
10
132.055
20
-131.599
11
130.649
21
-130.586
0
LINE
8
BLACK
6
CONTINUOUS
10
130.649
20
-130.586
11
130.644
21
-130.583
0
LINE
8
BLACK
6
CONTINUOUS
10
130.644
20
-130.583
11
130.643
21
-130.582
0
LINE
8
BLACK
6
CONTINUOUS
10
130.643
20
-130.582
11
130.642
21
-130.581
0
LINE
8
BLACK
6
CONTINUOUS
10
130.642
20
-130.581
11
129.333
21
-129.445
0
LINE
8
BLACK
6
CONTINUOUS
10
129.333
20
-129.445
11
129.329
21
-129.441
0
LINE
8
BLACK
6
CONTINUOUS
10
129.329
20
-129.441
11
129.327
21
-129.44
0
LINE
8
BLACK
6
CONTINUOUS
10
129.327
20
-129.44
11
129.326
21
-129.439
0
LINE
8
BLACK
6
CONTINUOUS
10
129.326
20
-129.439
11
128.126
21
-128.189
0
LINE
8
BLACK
6
CONTINUOUS
10
128.126
20
-128.189
11
128.122
21
-128.185
0
LINE
8
BLACK
6
CONTINUOUS
10
128.122
20
-128.185
11
128.121
21
-128.183
0
LINE
8
BLACK
6
CONTINUOUS
10
128.121
20
-128.183
11
128.12
21
-128.182
0
LINE
8
BLACK
6
CONTINUOUS
10
128.12
20
-128.182
11
127.038
21
-126.829
0
LINE
8
BLACK
6
CONTINUOUS
10
127.038
20
-126.829
11
127.034
21
-126.824
0
LINE
8
BLACK
6
CONTINUOUS
10
127.034
20
-126.824
11
127.033
21
-126.823
0
LINE
8
BLACK
6
CONTINUOUS
10
127.033
20
-126.823
11
127.032
21
-126.821
0
LINE
8
BLACK
6
CONTINUOUS
10
127.032
20
-126.821
11
126.077
21
-125.375
0
LINE
8
BLACK
6
CONTINUOUS
10
126.077
20
-125.375
11
126.074
21
-125.371
0
LINE
8
BLACK
6
CONTINUOUS
10
126.074
20
-125.371
11
126.074
21
-125.369
0
LINE
8
BLACK
6
CONTINUOUS
10
126.074
20
-125.369
11
126.073
21
-125.368
0
LINE
8
BLACK
6
CONTINUOUS
10
126.073
20
-125.368
11
125.253
21
-123.841
0
LINE
8
BLACK
6
CONTINUOUS
10
125.253
20
-123.841
11
125.25
21
-123.836
0
LINE
8
BLACK
6
CONTINUOUS
10
125.25
20
-123.836
11
125.25
21
-123.835
0
LINE
8
BLACK
6
CONTINUOUS
10
125.25
20
-123.835
11
125.249
21
-123.833
0
LINE
8
BLACK
6
CONTINUOUS
10
125.249
20
-123.833
11
124.57
21
-122.238
0
LINE
8
BLACK
6
CONTINUOUS
10
124.57
20
-122.238
11
124.568
21
-122.233
0
LINE
8
BLACK
6
CONTINUOUS
10
124.568
20
-122.233
11
124.568
21
-122.231
0
LINE
8
BLACK
6
CONTINUOUS
10
124.568
20
-122.231
11
124.567
21
-122.23
0
LINE
8
BLACK
6
CONTINUOUS
10
124.567
20
-122.23
11
124.036
21
-120.58
0
LINE
8
BLACK
6
CONTINUOUS
10
124.036
20
-120.58
11
124.035
21
-120.575
0
LINE
8
BLACK
6
CONTINUOUS
10
124.035
20
-120.575
11
124.034
21
-120.573
0
LINE
8
BLACK
6
CONTINUOUS
10
124.034
20
-120.573
11
124.034
21
-120.572
0
LINE
8
BLACK
6
CONTINUOUS
10
124.034
20
-120.572
11
123.655
21
-118.881
0
LINE
8
BLACK
6
CONTINUOUS
10
123.655
20
-118.881
11
123.654
21
-118.877
0
LINE
8
BLACK
6
CONTINUOUS
10
123.654
20
-118.877
11
123.654
21
-118.876
0
LINE
8
BLACK
6
CONTINUOUS
10
123.654
20
-118.876
11
123.651
21
-118.864
0
LINE
8
BLACK
6
CONTINUOUS
10
123.651
20
-118.864
11
119.943
21
-102.513
0
LINE
8
BLACK
6
CONTINUOUS
10
119.943
20
-102.513
11
119.941
21
-102.511
0
LINE
8
BLACK
6
CONTINUOUS
10
119.941
20
-102.511
11
119.939
21
-102.496
0
LINE
8
BLACK
6
CONTINUOUS
10
119.939
20
-102.496
11
119.937
21
-102.489
0
LINE
8
BLACK
6
CONTINUOUS
10
119.937
20
-102.489
11
119.937
21
-102.487
0
LINE
8
BLACK
6
CONTINUOUS
10
119.937
20
-102.487
11
119.937
21
-102.485
0
LINE
8
BLACK
6
CONTINUOUS
10
119.937
20
-102.485
11
119.937
21
-102.478
0
LINE
8
BLACK
6
CONTINUOUS
10
119.937
20
-102.478
11
119.936
21
-102.463
0
LINE
8
BLACK
6
CONTINUOUS
10
119.936
20
-102.463
11
119.937
21
-102.461
0
LINE
8
BLACK
6
CONTINUOUS
10
119.937
20
-102.461
11
119.937
21
-85.0934
0
LINE
8
BLACK
6
CONTINUOUS
10
119.937
20
-85.0934
11
119.941
21
-85.0674
0
LINE
8
BLACK
6
CONTINUOUS
10
119.941
20
-85.0674
11
119.959
21
-85.0369
0
LINE
8
BLACK
6
CONTINUOUS
10
119.959
20
-85.0369
11
119.973
21
-85.0254
0
LINE
8
BLACK
6
CONTINUOUS
10
119.973
20
-85.0254
11
119.973
21
-85.0254
0
LINE
8
BLACK
6
CONTINUOUS
10
119.973
20
-85.0254
11
119.973
21
-85.0252
0
LINE
8
BLACK
6
CONTINUOUS
10
119.973
20
-85.0252
11
119.986
21
-85.0142
0
LINE
8
BLACK
6
CONTINUOUS
10
119.986
20
-85.0142
11
119.986
21
-85.0142
0
LINE
8
BLACK
6
CONTINUOUS
10
119.986
20
-85.0142
11
121.297
21
-83.9178
0
LINE
8
BLACK
6
CONTINUOUS
10
121.297
20
-83.9178
11
121.302
21
-83.9143
0
LINE
8
BLACK
6
CONTINUOUS
10
121.302
20
-83.9143
11
121.303
21
-83.9134
0
LINE
8
BLACK
6
CONTINUOUS
10
121.303
20
-83.9134
11
121.304
21
-83.9123
0
LINE
8
BLACK
6
CONTINUOUS
10
121.304
20
-83.9123
11
122.724
21
-82.9293
0
LINE
8
BLACK
6
CONTINUOUS
10
122.724
20
-82.9293
11
122.729
21
-82.9262
0
LINE
8
BLACK
6
CONTINUOUS
10
122.729
20
-82.9262
11
122.73
21
-82.9254
0
LINE
8
BLACK
6
CONTINUOUS
10
122.73
20
-82.9254
11
122.732
21
-82.9245
0
LINE
8
BLACK
6
CONTINUOUS
10
122.732
20
-82.9245
11
124.234
21
-82.0742
0
LINE
8
BLACK
6
CONTINUOUS
10
124.234
20
-82.0742
11
124.239
21
-82.0716
0
LINE
8
BLACK
6
CONTINUOUS
10
124.239
20
-82.0716
11
124.241
21
-82.0708
0
LINE
8
BLACK
6
CONTINUOUS
10
124.241
20
-82.0708
11
124.242
21
-82.0701
0
LINE
8
BLACK
6
CONTINUOUS
10
124.242
20
-82.0701
11
125.816
21
-81.3594
0
LINE
8
BLACK
6
CONTINUOUS
10
125.816
20
-81.3594
11
125.821
21
-81.3573
0
LINE
8
BLACK
6
CONTINUOUS
10
125.821
20
-81.3573
11
125.823
21
-81.3568
0
LINE
8
BLACK
6
CONTINUOUS
10
125.823
20
-81.3568
11
125.824
21
-81.3561
0
LINE
8
BLACK
6
CONTINUOUS
10
125.824
20
-81.3561
11
127.402
21
-80.8077
0
LINE
8
BLACK
6
CONTINUOUS
10
127.402
20
-80.8077
11
127.409
21
-80.8036
0
LINE
8
BLACK
6
CONTINUOUS
10
127.409
20
-80.8036
11
127.435
21
-80.799
0
LINE
8
BLACK
6
CONTINUOUS
10
127.435
20
-80.799
11
135.772
21
-80.799
0
LINE
8
BLACK
6
CONTINUOUS
10
135.772
20
-80.799
11
135.772
21
-80.799
0
LINE
8
BLACK
6
CONTINUOUS
10
127.46
20
-80.999
11
125.894
21
-81.5436
0
LINE
8
BLACK
6
CONTINUOUS
10
125.894
20
-81.5436
11
124.329
21
-82.2505
0
LINE
8
BLACK
6
CONTINUOUS
10
124.329
20
-82.2505
11
122.834
21
-83.0963
0
LINE
8
BLACK
6
CONTINUOUS
10
122.834
20
-83.0963
11
121.422
21
-84.0741
0
LINE
8
BLACK
6
CONTINUOUS
10
121.422
20
-84.0741
11
120.137
21
-85.1489
0
LINE
8
BLACK
6
CONTINUOUS
10
120.137
20
-85.1489
11
120.137
21
-102.465
0
LINE
8
BLACK
6
CONTINUOUS
10
120.137
20
-102.465
11
123.849
21
-118.831
0
LINE
8
BLACK
6
CONTINUOUS
10
123.849
20
-118.831
11
123.849
21
-118.833
0
LINE
8
BLACK
6
CONTINUOUS
10
123.849
20
-118.833
11
123.85
21
-118.839
0
LINE
8
BLACK
6
CONTINUOUS
10
123.85
20
-118.839
11
124.228
21
-120.523
0
LINE
8
BLACK
6
CONTINUOUS
10
124.228
20
-120.523
11
124.756
21
-122.164
0
LINE
8
BLACK
6
CONTINUOUS
10
124.756
20
-122.164
11
125.431
21
-123.75
0
LINE
8
BLACK
6
CONTINUOUS
10
125.431
20
-123.75
11
126.247
21
-125.269
0
LINE
8
BLACK
6
CONTINUOUS
10
126.247
20
-125.269
11
127.197
21
-126.707
0
LINE
8
BLACK
6
CONTINUOUS
10
127.197
20
-126.707
11
128.273
21
-128.054
0
LINE
8
BLACK
6
CONTINUOUS
10
128.273
20
-128.054
11
129.467
21
-129.297
0
LINE
8
BLACK
6
CONTINUOUS
10
129.467
20
-129.297
11
130.769
21
-130.427
0
LINE
8
BLACK
6
CONTINUOUS
10
130.769
20
-130.427
11
132.168
21
-131.434
0
LINE
8
BLACK
6
CONTINUOUS
10
132.168
20
-131.434
11
133.652
21
-132.31
0
LINE
8
BLACK
6
CONTINUOUS
10
133.652
20
-132.31
11
135.21
21
-133.049
0
LINE
8
BLACK
6
CONTINUOUS
10
135.21
20
-133.049
11
136.828
21
-133.643
0
LINE
8
BLACK
6
CONTINUOUS
10
136.828
20
-133.643
11
138.494
21
-134.087
0
LINE
8
BLACK
6
CONTINUOUS
10
138.494
20
-134.087
11
140.193
21
-134.38
0
LINE
8
BLACK
6
CONTINUOUS
10
140.193
20
-134.38
11
141.911
21
-134.516
0
LINE
8
BLACK
6
CONTINUOUS
10
141.911
20
-134.516
11
143.635
21
-134.497
0
LINE
8
BLACK
6
CONTINUOUS
10
143.635
20
-134.497
11
145.349
21
-134.322
0
LINE
8
BLACK
6
CONTINUOUS
10
145.349
20
-134.322
11
147.041
21
-133.991
0
LINE
8
BLACK
6
CONTINUOUS
10
147.041
20
-133.991
11
148.696
21
-133.509
0
LINE
8
BLACK
6
CONTINUOUS
10
148.696
20
-133.509
11
150.301
21
-132.879
0
LINE
8
BLACK
6
CONTINUOUS
10
150.301
20
-132.879
11
151.842
21
-132.106
0
LINE
8
BLACK
6
CONTINUOUS
10
151.842
20
-132.106
11
153.306
21
-131.196
0
LINE
8
BLACK
6
CONTINUOUS
10
153.306
20
-131.196
11
154.682
21
-130.158
0
LINE
8
BLACK
6
CONTINUOUS
10
154.682
20
-130.158
11
155.958
21
-128.999
0
LINE
8
BLACK
6
CONTINUOUS
10
155.958
20
-128.999
11
157.124
21
-127.729
0
LINE
8
BLACK
6
CONTINUOUS
10
157.124
20
-127.729
11
158.17
21
-126.359
0
LINE
8
BLACK
6
CONTINUOUS
10
158.17
20
-126.359
11
159.087
21
-124.9
0
LINE
8
BLACK
6
CONTINUOUS
10
159.087
20
-124.9
11
159.868
21
-123.363
0
LINE
8
BLACK
6
CONTINUOUS
10
159.868
20
-123.363
11
160.507
21
-121.762
0
LINE
8
BLACK
6
CONTINUOUS
10
160.507
20
-121.762
11
160.998
21
-120.11
0
LINE
8
BLACK
6
CONTINUOUS
10
160.998
20
-120.11
11
161.338
21
-118.42
0
LINE
8
BLACK
6
CONTINUOUS
10
161.338
20
-118.42
11
161.523
21
-116.706
0
LINE
8
BLACK
6
CONTINUOUS
10
161.523
20
-116.706
11
161.551
21
-114.982
0
LINE
8
BLACK
6
CONTINUOUS
10
161.551
20
-114.982
11
161.424
21
-113.263
0
LINE
8
BLACK
6
CONTINUOUS
10
161.424
20
-113.263
11
161.141
21
-111.563
0
LINE
8
BLACK
6
CONTINUOUS
10
161.141
20
-111.563
11
160.705
21
-109.895
0
LINE
8
BLACK
6
CONTINUOUS
10
160.705
20
-109.895
11
160.12
21
-108.274
0
LINE
8
BLACK
6
CONTINUOUS
10
160.12
20
-108.274
11
159.39
21
-106.712
0
LINE
8
BLACK
6
CONTINUOUS
10
159.39
20
-106.712
11
158.522
21
-105.223
0
LINE
8
BLACK
6
CONTINUOUS
10
158.522
20
-105.223
11
157.522
21
-103.819
0
LINE
8
BLACK
6
CONTINUOUS
10
157.522
20
-103.819
11
156.4
21
-102.511
0
LINE
8
BLACK
6
CONTINUOUS
10
156.4
20
-102.511
11
155.163
21
-101.31
0
LINE
8
BLACK
6
CONTINUOUS
10
155.163
20
-101.31
11
153.822
21
-100.226
0
LINE
8
BLACK
6
CONTINUOUS
10
153.822
20
-100.226
11
152.389
21
-99.2681
0
LINE
8
BLACK
6
CONTINUOUS
10
152.389
20
-99.2681
11
150.875
21
-98.4442
0
LINE
8
BLACK
6
CONTINUOUS
10
150.875
20
-98.4442
11
149.293
21
-97.7608
0
LINE
8
BLACK
6
CONTINUOUS
10
149.293
20
-97.7608
11
147.655
21
-97.2237
0
LINE
8
BLACK
6
CONTINUOUS
10
147.655
20
-97.2237
11
145.975
21
-96.8372
0
LINE
8
BLACK
6
CONTINUOUS
10
145.975
20
-96.8372
11
144.267
21
-96.6046
0
LINE
8
BLACK
6
CONTINUOUS
10
144.267
20
-96.6046
11
142.545
21
-96.5277
0
LINE
8
BLACK
6
CONTINUOUS
10
142.545
20
-96.5277
11
140.823
21
-96.6072
0
LINE
8
BLACK
6
CONTINUOUS
10
140.823
20
-96.6072
11
139.115
21
-96.8425
0
LINE
8
BLACK
6
CONTINUOUS
10
139.115
20
-96.8425
11
137.436
21
-97.2316
0
LINE
8
BLACK
6
CONTINUOUS
10
137.436
20
-97.2316
11
135.796
21
-97.7722
0
LINE
8
BLACK
6
CONTINUOUS
10
135.796
20
-97.7722
11
135.781
21
-97.7777
0
LINE
8
BLACK
6
CONTINUOUS
10
135.781
20
-97.7777
11
135.745
21
-97.7777
0
LINE
8
BLACK
6
CONTINUOUS
10
135.745
20
-97.7777
11
135.712
21
-97.7656
0
LINE
8
BLACK
6
CONTINUOUS
10
135.712
20
-97.7656
11
135.685
21
-97.743
0
LINE
8
BLACK
6
CONTINUOUS
10
135.685
20
-97.743
11
135.668
21
-97.7124
0
LINE
8
BLACK
6
CONTINUOUS
10
135.668
20
-97.7124
11
135.663
21
-97.6864
0
LINE
8
BLACK
6
CONTINUOUS
10
135.663
20
-97.6864
11
135.663
21
-80.999
0
LINE
8
BLACK
6
CONTINUOUS
10
135.663
20
-80.999
11
127.46
21
-80.999
  0
ENDSEC
  0
EOF
