<?xml version="1.0" encoding="UTF-8" standalone="no"?>
<svg
   xmlns:dc="http://purl.org/dc/elements/1.1/"
   xmlns:cc="http://creativecommons.org/ns#"
   xmlns:rdf="http://www.w3.org/1999/02/22-rdf-syntax-ns#"
   xmlns:svg="http://www.w3.org/2000/svg"
   xmlns="http://www.w3.org/2000/svg"
   xmlns:xlink="http://www.w3.org/1999/xlink"
   xmlns:sodipodi="http://sodipodi.sourceforge.net/DTD/sodipodi-0.dtd"
   xmlns:inkscape="http://www.inkscape.org/namespaces/inkscape"
   version="1.1"
   width="29.7002cm"
   height="21.0007cm"
   viewBox="0 0 116930 82680 "
   id="svg212"
   sodipodi:docname="FrogINT_PCBProto_V1811062154-B.Cu_RETOUCHE.svg"
   inkscape:version="0.92.3 (2405546, 2018-03-11)">
  <metadata
     id="metadata218">
    <rdf:RDF>
      <cc:Work
         rdf:about="">
        <dc:format>image/svg+xml</dc:format>
        <dc:type
           rdf:resource="http://purl.org/dc/dcmitype/StillImage" />
      </cc:Work>
    </rdf:RDF>
  </metadata>
  <defs
     id="defs216">
    <linearGradient
       inkscape:collect="always"
       id="linearGradient4736">
      <stop
         style="stop-color:#007900;stop-opacity:1;"
         offset="0"
         id="stop4732" />
      <stop
         style="stop-color:#007900;stop-opacity:0;"
         offset="1"
         id="stop4734" />
    </linearGradient>
    <linearGradient
       inkscape:collect="always"
       xlink:href="#linearGradient4736"
       id="linearGradient4738"
       x1="55220.443"
       y1="51057.5"
       x2="57558.557"
       y2="51057.5"
       gradientUnits="userSpaceOnUse" />
  </defs>
  <sodipodi:namedview
     pagecolor="#ffffff"
     bordercolor="#666666"
     borderopacity="1"
     objecttolerance="10"
     gridtolerance="10"
     guidetolerance="10"
     inkscape:pageopacity="0"
     inkscape:pageshadow="2"
     inkscape:window-width="1920"
     inkscape:window-height="1017"
     id="namedview214"
     showgrid="false"
     inkscape:zoom="8.9491625"
     inkscape:cx="508.97265"
     inkscape:cy="440.4003"
     inkscape:window-x="-8"
     inkscape:window-y="-8"
     inkscape:window-maximized="1"
     inkscape:current-layer="g4730"
     showguides="true"
     inkscape:guide-bbox="true">
    <sodipodi:guide
       position="47546.994,42367.996"
       orientation="1,0"
       id="guide4824"
       inkscape:locked="false" />
  </sodipodi:namedview>
  <title
     id="title2">SVG Picture created as FrogINT_PCBProto_V1811062154-B.Cu.svg date 2019/03/12 09:17:33 </title>
  <desc
     id="desc4">Picture generated by PCBNEW </desc>
  <g
     style="fill:#000000; fill-opacity:1;stroke:#000000; stroke-opacity:1; stroke-linecap:round; stroke-linejoin:round; "
     transform="translate(0 0) scale(1 1)"
     id="g6" />
  <g
     style="fill:#000000; fill-opacity:0.0;  stroke:#000000; stroke-width:-0.000393701; stroke-opacity:1;  stroke-linecap:round; stroke-linejoin:round;"
     id="g8" />
  <g
     style="fill:#000000; fill-opacity:0.0;  stroke:#000000; stroke-width:0; stroke-opacity:1;  stroke-linecap:round; stroke-linejoin:round;"
     id="g42" />
  <g
     style="fill:#000000; fill-opacity:1.0;  stroke:#000000; stroke-width:39.3701; stroke-opacity:1;  stroke-linecap:round; stroke-linejoin:round;"
     id="g50" />
  <g
     style="fill:#000000; fill-opacity:1.0;  stroke:#000000; stroke-width:39.3701; stroke-opacity:1;  stroke-linecap:round; stroke-linejoin:round;"
     id="g56" />
  <g
     style="fill:#000000; fill-opacity:1.0;  stroke:#000000; stroke-width:39.3701; stroke-opacity:1;  stroke-linecap:round; stroke-linejoin:round;"
     id="g62" />
  <g
     style="fill:#000000; fill-opacity:1.0;  stroke:#000000; stroke-width:39.3701; stroke-opacity:1;  stroke-linecap:round; stroke-linejoin:round;"
     id="g68" />
  <g
     style="fill:#000000; fill-opacity:1.0;  stroke:#000000; stroke-width:39.3701; stroke-opacity:1;  stroke-linecap:round; stroke-linejoin:round;"
     id="g74" />
  <g
     style="fill:#000000; fill-opacity:1.0;  stroke:#000000; stroke-width:39.3701; stroke-opacity:1;  stroke-linecap:round; stroke-linejoin:round;"
     id="g80" />
  <g
     style="fill:#000000; fill-opacity:1.0;  stroke:#000000; stroke-width:39.3701; stroke-opacity:1;  stroke-linecap:round; stroke-linejoin:round;"
     id="g86" />
  <g
     style="fill:#000000; fill-opacity:1.0;  stroke:#000000; stroke-width:39.3701; stroke-opacity:1;  stroke-linecap:round; stroke-linejoin:round;"
     id="g92" />
  <g
     style="fill:#000000; fill-opacity:1.0;  stroke:#000000; stroke-width:39.3701; stroke-opacity:1;  stroke-linecap:round; stroke-linejoin:round;"
     id="g98" />
  <g
     style="fill:#000000; fill-opacity:1.0;  stroke:#000000; stroke-width:39.3701; stroke-opacity:1;  stroke-linecap:round; stroke-linejoin:round;"
     id="g104" />
  <g
     style="fill:#000000; fill-opacity:1.0;  stroke:#000000; stroke-width:39.3701; stroke-opacity:1;  stroke-linecap:round; stroke-linejoin:round;"
     id="g110" />
  <g
     style="fill:#000000; fill-opacity:1.0;  stroke:#000000; stroke-width:39.3701; stroke-opacity:1;  stroke-linecap:round; stroke-linejoin:round;"
     id="g116" />
  <g
     style="fill:#000000; fill-opacity:1.0;  stroke:#000000; stroke-width:39.3701; stroke-opacity:1;  stroke-linecap:round; stroke-linejoin:round;"
     id="g122" />
  <g
     style="fill:#000000; fill-opacity:1.0;  stroke:#000000; stroke-width:39.3701; stroke-opacity:1;  stroke-linecap:round; stroke-linejoin:round;"
     id="g128" />
  <g
     style="fill:#000000; fill-opacity:1.0;  stroke:#000000; stroke-width:39.3701; stroke-opacity:1;  stroke-linecap:round; stroke-linejoin:round;"
     id="g134" />
  <g
     style="fill:#000000; fill-opacity:1.0;  stroke:#000000; stroke-width:39.3701; stroke-opacity:1;  stroke-linecap:round; stroke-linejoin:round;"
     id="g140" />
  <g
     style="fill:#000000; fill-opacity:1.0;  stroke:#000000; stroke-width:39.3701; stroke-opacity:1;  stroke-linecap:round; stroke-linejoin:round;"
     id="g146" />
  <g
     style="fill:#000000; fill-opacity:1.0;  stroke:#000000; stroke-width:98.4252; stroke-opacity:1;  stroke-linecap:round; stroke-linejoin:round;"
     id="g148" />
  <g
     inkscape:groupmode="layer"
     id="layer1"
     inkscape:label="PCB"
     style="display:inline">
    <g
       id="g4730"
       style="fill:#00ea00;fill-opacity:1;stroke:#007900;stroke-width:100;stroke-linecap:round;stroke-linejoin:round;stroke-opacity:1">
      <path
         style="fill:#00ea00;fill-opacity:1;fill-rule:evenodd;stroke:#007900;stroke-opacity:1"
         d="m 53160,38484 17,84 64,96 96,64 113,22 112,-22 16,-10 598,-197 639,-148 649,-90 656,-30 655,29 650,89 639,147 623,204 288,124 c 1446.414,748.26 1831.39,1079.248 2660,1966 l 184,215 381,535 330,566 278,594 59,164 -14,-2 -29,6 h -9055 l -3476,-3476 c 0,0 8.779,-24.808 0,-65 -8.779,-40.192 -54.666,-135.77 -75.822,-165.277 C 50196.022,39154.216 0,0 50191,39159 c -50191,-39159 0,0 0,0 0,0 -37.013,-49.154 -74,-74 -36.987,-24.846 -96.95,-52.312 -150,-63 -53.05,-10.688 -108.95,-10.688 -162,0 -53.05,10.688 -105.187,32.897 -150,63 -44.813,30.103 -84.06,69.155 -114,114 -29.94,44.845 -51.475,96.983 -62,150 -10.525,53.017 -10.525,108.983 0,162 10.525,53.017 32.06,105.155 62,150 29.94,44.845 69.155,84.06 114,114 44.845,29.94 112.84,54.623 150,62 37.16,7.377 65,0 65,0 l 3542,3543 17,25 59,39 -1059,1058 h -65 l -150,62 -114,115 -62,150 v 162 l 62,150 114,114 150,62 h 162 l 150,-62 115,-114 62,-150 v -66 l 1260,-1260 h 2762 l -610,611 -25,16 -17,25 v 0 l -50,74 -23,117 6,30 v 3438 l -46,46 -62,150 v 162 l 62,149 115,115 149,62 h 162 l 150,-62 107,-107 h 1590 v 217 l 83,200 153,154 201,83 h 217 l 200,-83 154,-154 83,-200 v -217 h 830 v 217 l 83,200 154,154 200,83 h 217 l 200,-83 154,-154 83,-200 v -217 l -83,-200 -154,-154 -200,-83 h -217 l -200,83 -154,154 -83,200 h -830 l -83,-200 -154,-154 -200,-83 h -217 l -201,83 -153,154 -83,200 h -1590 l 8,-8 62,-149 v -162 l -62,-150 -46,-46 v -3344 l 573,-573 h 65 l 150,-62 114,-115 62,-149 v -68 h 727 l -1246,1246 -25,16 -16,25 v 0 l -50,74 -23,117 6,30 v 2438 l -46,46 -63,150 v 162 l 63,150 114,115 150,62 h 162 l 150,-62 114,-115 62,-150 v -162 l -62,-150 -46,-46 v -2344 l 573,-573 55,56 150,62 h 162 l 150,-62 115,-115 62,-149 v -66 l 403,-403 25,-17 25,-38 4,-6 h 2133 l 46,47 150,62 h 162 l 150,-62 115,-115 62,-150 v -162 l -37,-88 h 445 l 45,109 115,115 149,62 h 163 l 29,-12 55,212 108,647 48,654 -11,656 -70,652 -129,643 -187,629 -243,609 -298,585 -349,555 -398,522 -443,483 -486,441 -523,395 -558,346 -586,294 -610,240 -518,151 35,-106 -59,-82 h -405 v 8 h -100 v -8 h -404 l -59,82 63,191 72,84 -552,56 -655,8 -225,-18 111,-130 63,-191 -59,-82 h -404 v 8 h -100 v -8 h -404 l -59,82 62,191 34,39 -320,-55 -634,-169 -615,-226 -90,-43 h 1563 l 59,81 h 404 v -469 h 100 v 469 h 404 l 59,-81 h 1123 l 59,81 h 404 v -469 h 100 v 469 h 405 l 59,-81 -63,-191 -132,-153 -180,-91 -9,-2 -80,49 h -100 l -79,-49 -10,2 -180,91 -131,153 -63,191 h -1123 l -63,-191 -131,-153 -180,-91 -9,-2 -80,49 h -100 l -80,-49 -9,2 -180,91 -132,153 -62,191 h -1563 l -503,-238 -565,-333 -493,-355 h 3292 l 53,175 116,142 161,87 15,1 72,-49 v -430 h 100 v 430 l 72,49 15,-1 161,-87 116,-142 53,-175 h 972 l 52,175 116,142 161,87 15,1 72,-49 v -430 h 100 v 430 l 72,49 16,-1 161,-87 116,-142 52,-175 -61,-74 h -356 -100 -355 l -61,74 h -972 l -62,-74 h -355 -100 -356 l -61,74 h -3292 l -39,-29 -252,-218 h 3583 l 61,73 h 356 v -429 h 100 v 429 h 355 l 62,-73 h 972 l 61,73 h 355 v -429 h 100 v 429 h 356 l 61,-73 -52,-175 -116,-142 -161,-87 -16,-2 -72,50 h -100 l -72,-50 -15,2 -161,87 -116,142 -52,175 h -972 l -53,-175 -116,-142 -161,-87 -15,-2 -72,50 h -100 l -72,-50 -15,2 -161,87 -116,142 -53,175 h -3583 l -244,-212 -454,-473 -410,-512 -361,-547 -311,-578 -256,-604 -193,-599 h 610 v 163 l 62,149 115,115 149,62 h 163 l 149,-62 115,-115 57,-137 h 3509 l 46,46 150,63 h 162 l 150,-63 47,-47 226,226 -35,35 -62,149 v 163 l 62,149 115,115 150,62 h 162 l 149,-62 115,-115 62,-149 v -163 l -62,-149 -46,-47 v -72 l 6,-29 -6,-30 v 0 l -18,-87 -19,-28 -30,-46 v 0 l -17,-25 -25,-17 -746,-746 -17,-25 -98,-66 -88,-17 v 0 l -29,-6 -30,6 h -1284 l -47,-46 -149,-62 h -163 l -149,62 -115,114 -62,150 v 159 h -1982 l -29,-6 -30,6 v 0 l -87,17 -99,66 -9,14 h -62 l -149,62 -115,115 -62,149 h -610 l -8,-25 -142,-630 v -2 l -1461,-6440 v -3298 -251.711 c 0,0 -57.341,-3247.78 -52.373,-3520.953 0,0 206.553,-56.279 367.254,-128.573 160.701,-72.294 385.245,-224.066 583.56,-325.441 201.592,-103.05 408.256,-196.062 615.559,-287.08 196.759,-86.389 390.469,-182.999 596,-245.721 184.171,-56.204 566,-115.521 566,-115.521 h 2937 v 6345 m -5243.63,-1518.015 c -23.772,67.139 -29.61,149.475 -20.37,211.015 9.24,61.54 31.961,104.122 62,149 30.039,44.878 70.122,84.961 115,115 44.878,30.039 95.983,51.41 149,62 53.017,10.59 109.983,10.59 163,0 53.017,-10.59 104.122,-31.961 149,-62 44.878,-30.039 84.961,-70.122 115,-115 30.039,-44.878 54.577,-111.837 62,-149 7.423,-37.163 -29.556,5.353 0,-66 29.556,-71.353 148.536,-280.67 281,-281 47.377,-0.118 61.548,73.768 101,100 244.908,162.839 526.561,280.561 815,338 288.665,57.484 594.335,57.484 883,0 288.439,-57.439 570.498,-174.552 815,-338 244.547,-163.478 460.522,-379.453 624,-624 163.448,-244.502 280.561,-526.561 338,-815 57.484,-288.665 57.484,-594.335 0,-883 -57.439,-288.439 -174.552,-570.498 -338,-815 -163.478,-244.547 -379.453,-460.522 -624,-624 -244.502,-163.448 -526.561,-280.561 -815,-338 -288.665,-57.484 -594.335,-57.484 -883,0 -288.439,57.439 -570.498,174.552 -815,338 -244.547,163.478 -460.522,379.453 -624,624 -163.448,244.502 -280.561,526.561 -338,815 -57.484,288.665 -57.484,594.335 0,883 57.439,288.439 175.161,570.092 338,815 26.232,39.452 100.118,53.623 100,101 -0.33,132.464 -158.619,230.308 -281,281 -20.325,8.419 -44.643,-5.279 -66,0 -68.326,16.889 -134.125,50.68 -186.83,98.375 -52.705,47.695 -95.027,112.471 -118.8,179.61 z"
         id="polyline4728"
         inkscape:connector-curvature="0"
         sodipodi:nodetypes="cccccccccccccccccccccccccczzzzzzzzzzzzzzcccccccccccccccccccccccccccccccccccccccccccccccccccccccccccccccccccccccccccccccccccccccccccccccccccccccccccccccccccccccccccccccccccccccccccccccccccccccccccccccccccccccccccccccccccccccccccccccccccccccccccccccccccccccccccccccccccccccccccccccccccccccccccccccccccccccccccccccccccccccccccccccccccccccccccccccccccccccccccccccccccccccccccccccccccccccccccccccccccccccccccccccccccccccccccccccccczsssccczzzssssssssssssssssssssssssssszz" />
    </g>
  </g>
  <g
     inkscape:groupmode="layer"
     id="layer2"
     inkscape:label="Piste"
     style="display:none">
    <g
       style="fill:#00fe00;fill-opacity:0.94067796;stroke:#007900;stroke-width:98.42520142;stroke-linecap:round;stroke-linejoin:round;stroke-opacity:1"
       id="g204">
      <path
         d="m 52800,46908 h 1591"
         id="path150"
         style="fill:#00fe00;fill-opacity:0.94067796;stroke:#007900;stroke-opacity:1"
         inkscape:connector-curvature="0" />
      <path
         d="m 54391,46908 788,788"
         id="path152"
         style="fill:#00fe00;fill-opacity:0.94067796;stroke:#007900;stroke-opacity:1"
         inkscape:connector-curvature="0" />
      <path
         d="m 55179,47696 v 378"
         id="path154"
         style="fill:#00fe00;fill-opacity:0.94067796;stroke:#007900;stroke-opacity:1"
         inkscape:connector-curvature="0" />
      <path
         d="m 59169,43657 v -111"
         id="path156"
         style="fill:#00fe00;fill-opacity:0.94067796;stroke:#007900;stroke-opacity:1"
         inkscape:connector-curvature="0" />
      <path
         d="m 59169,43546 -180,-180"
         id="path158"
         style="fill:#00fe00;fill-opacity:0.94067796;stroke:#007900;stroke-opacity:1"
         inkscape:connector-curvature="0" />
      <path
         d="M 58989,43366 H 53989"
         id="path160"
         style="fill:#00fe00;fill-opacity:0.94067796;stroke:#007900;stroke-opacity:1"
         inkscape:connector-curvature="0" />
      <path
         d="m 53989,43366 -1544,1544"
         id="path162"
         style="fill:#00fe00;fill-opacity:0.94067796;stroke:#007900;stroke-opacity:1"
         inkscape:connector-curvature="0" />
      <path
         d="m 58549,44405 620,-620"
         id="path164"
         style="fill:#00fe00;fill-opacity:0.94067796;stroke:#007900;stroke-opacity:1"
         inkscape:connector-curvature="0" />
      <path
         d="m 59169,43785 v -128"
         id="path166"
         style="fill:#00fe00;fill-opacity:0.94067796;stroke:#007900;stroke-opacity:1"
         inkscape:connector-curvature="0" />
      <path
         d="m 59169,43657 h 2655"
         id="path168"
         style="fill:#00fe00;fill-opacity:0.94067796;stroke:#007900;stroke-opacity:1"
         inkscape:connector-curvature="0" />
      <path
         d="m 61350,40300 h -463"
         id="path170"
         style="fill:#00fe00;fill-opacity:0.94067796;stroke:#007900;stroke-opacity:1"
         inkscape:connector-curvature="0" />
      <path
         d="m 59350,39300 h 462"
         id="path172"
         style="fill:#00fe00;fill-opacity:0.94067796;stroke:#007900;stroke-opacity:1"
         inkscape:connector-curvature="0" />
      <path
         d="m 59812,39300 v 144"
         id="path174"
         style="fill:#00fe00;fill-opacity:0.94067796;stroke:#007900;stroke-opacity:1"
         inkscape:connector-curvature="0" />
      <path
         d="m 59812,39444 318,318"
         id="path176"
         style="fill:#00fe00;fill-opacity:0.94067796;stroke:#007900;stroke-opacity:1"
         inkscape:connector-curvature="0" />
      <path
         d="m 60130,39762 h 344"
         id="path178"
         style="fill:#00fe00;fill-opacity:0.94067796;stroke:#007900;stroke-opacity:1"
         inkscape:connector-curvature="0" />
      <path
         d="m 60474,39762 413,413"
         id="path180"
         style="fill:#00fe00;fill-opacity:0.94067796;stroke:#007900;stroke-opacity:1"
         inkscape:connector-curvature="0" />
      <path
         d="m 60887,40175 v 125"
         id="path182"
         style="fill:#00fe00;fill-opacity:0.94067796;stroke:#007900;stroke-opacity:1"
         inkscape:connector-curvature="0" />
      <path
         d="M 54364,47285 H 50381"
         id="path184"
         style="fill:#00fe00;fill-opacity:0.94067796;stroke:#007900;stroke-opacity:1"
         inkscape:connector-curvature="0" />
      <path
         d="m 50381,47285 -206,205"
         id="path186"
         style="fill:#00fe00;fill-opacity:0.94067796;stroke:#007900;stroke-opacity:1"
         inkscape:connector-curvature="0" />
      <path
         d="M 57391,47888 V 45143"
         id="path188"
         style="fill:#00fe00;fill-opacity:0.94067796;stroke:#007900;stroke-opacity:1"
         inkscape:connector-curvature="0" />
      <path
         d="m 57391,45143 1479,-1479"
         id="path190"
         style="fill:#00fe00;fill-opacity:0.94067796;stroke:#007900;stroke-opacity:1"
         inkscape:connector-curvature="0" />
      <path
         d="M 56455,48253 V 44508"
         id="path192"
         style="fill:#00fe00;fill-opacity:0.94067796;stroke:#007900;stroke-opacity:1"
         inkscape:connector-curvature="0" />
      <path
         d="m 56455,44508 857,-856"
         id="path194"
         style="fill:#00fe00;fill-opacity:0.94067796;stroke:#007900;stroke-opacity:1"
         inkscape:connector-curvature="0" />
      <path
         d="m 50350,35050 -2046,2045"
         id="path196"
         style="fill:#00fe00;fill-opacity:0.94067796;stroke:#007900;stroke-opacity:1"
         inkscape:connector-curvature="0" />
      <path
         d="m 63030,43366 -177,-177"
         id="path198"
         style="fill:#00fe00;fill-opacity:0.94067796;stroke:#007900;stroke-opacity:1"
         inkscape:connector-curvature="0" />
      <path
         d="M 62853,43189 H 53645"
         id="path200"
         style="fill:#00fe00;fill-opacity:0.94067796;stroke:#007900;stroke-opacity:1"
         inkscape:connector-curvature="0" />
      <path
         d="M 53645,43189 49886,39430"
         id="path202"
         style="fill:#00fe00;fill-opacity:0.94067796;stroke:#007900;stroke-opacity:1"
         inkscape:connector-curvature="0" />
    </g>
  </g>
  <g
     inkscape:groupmode="layer"
     id="layer3"
     inkscape:label="PAD"
     style="display:none">
    <g
       style="fill:#007900;fill-opacity:1;stroke:#000000;stroke-width:0;stroke-linecap:round;stroke-linejoin:round;stroke-opacity:1"
       id="g84">
      <circle
         cx="58549.602"
         cy="44405.102"
         r="157.48"
         id="circle82"
         style="fill:#007900;fill-opacity:1" />
    </g>
    <g
       style="fill:#007900;fill-opacity:1;stroke:#000000;stroke-width:0;stroke-linecap:round;stroke-linejoin:round;stroke-opacity:1"
       id="g90">
      <circle
         cx="61824.801"
         cy="43657.801"
         r="157.48"
         id="circle88"
         style="fill:#007900;fill-opacity:1" />
    </g>
    <g
       style="fill:#007900;fill-opacity:1;stroke:#000000;stroke-width:0;stroke-linecap:round;stroke-linejoin:round;stroke-opacity:1"
       id="g114">
      <circle
         cx="58870.699"
         cy="43664.301"
         r="157.48"
         id="circle112"
         style="fill:#007900;fill-opacity:1" />
    </g>
    <g
       style="fill:#007900;fill-opacity:1;stroke:#000000;stroke-width:0;stroke-linecap:round;stroke-linejoin:round;stroke-opacity:1"
       id="g120">
      <circle
         cx="57312.398"
         cy="43652.199"
         r="157.48"
         id="circle118"
         style="fill:#007900;fill-opacity:1" />
    </g>
    <g
       style="fill:#007900;fill-opacity:1;stroke:#000000;stroke-width:0;stroke-linecap:round;stroke-linejoin:round;stroke-opacity:1"
       id="g138">
      <circle
         cx="63031"
         cy="43366.602"
         r="157.48"
         id="circle136"
         style="fill:#007900;fill-opacity:1" />
    </g>
    <g
       style="fill:#007900;fill-opacity:1;stroke:#000000;stroke-width:0;stroke-linecap:round;stroke-linejoin:round;stroke-opacity:1"
       id="g66">
      <circle
         cx="52800"
         cy="46908.5"
         r="157.48"
         id="circle64"
         style="fill:#007900;fill-opacity:1" />
    </g>
    <g
       style="fill:#007900;fill-opacity:1;stroke:#000000;stroke-width:0;stroke-linecap:round;stroke-linejoin:round;stroke-opacity:1"
       id="g72">
      <circle
         cx="55179.102"
         cy="48075"
         r="157.48"
         id="circle70"
         style="fill:#007900;fill-opacity:1" />
    </g>
    <g
       style="fill:#007900;fill-opacity:1;stroke:#000000;stroke-width:0;stroke-linecap:round;stroke-linejoin:round;stroke-opacity:1"
       id="g78">
      <circle
         cx="52445.602"
         cy="44910.199"
         r="157.48"
         id="circle76"
         style="fill:#007900;fill-opacity:1" />
    </g>
    <g
       style="fill:#007900;fill-opacity:1;stroke:#007900;stroke-width:0;stroke-linecap:round;stroke-linejoin:round;stroke-opacity:1"
       id="g96">
      <circle
         cx="50176"
         cy="47491"
         r="157.48"
         id="circle94"
         style="fill:#007900;fill-opacity:1;stroke:#007900;stroke-opacity:1" />
    </g>
    <g
       style="fill:#007900;fill-opacity:1;stroke:#000000;stroke-width:0;stroke-linecap:round;stroke-linejoin:round;stroke-opacity:1"
       id="g102">
      <circle
         cx="54364.398"
         cy="47285.602"
         r="157.48"
         id="circle100"
         style="fill:#007900;fill-opacity:1" />
    </g>
    <g
       style="fill:#007900;fill-opacity:1;stroke:#000000;stroke-width:0;stroke-linecap:round;stroke-linejoin:round;stroke-opacity:1"
       id="g132">
      <circle
         cx="48304"
         cy="37096"
         r="157.48"
         id="circle130"
         style="fill:#007900;fill-opacity:1" />
    </g>
    <g
       style="fill:#007900;fill-opacity:1;stroke:#000000;stroke-width:0;stroke-linecap:round;stroke-linejoin:round;stroke-opacity:1"
       id="g144">
      <circle
         cx="49886.5"
         cy="39430.5"
         r="157.48"
         id="circle142"
         style="fill:#007900;fill-opacity:1" />
    </g>
    <g
       style="fill:#005d00;fill-opacity:0.90588235;stroke:#007900;stroke-width:531.49597168;stroke-linecap:round;stroke-linejoin:round;stroke-opacity:1"
       id="g14">
      <path
         d="m 57464,52307 v -137"
         id="path10"
         style="fill:#005d00;fill-opacity:0.90588235;stroke:#007900;stroke-opacity:1"
         inkscape:connector-curvature="0" />
      <path
         d="m 55315,52307 v -137"
         id="path12"
         style="fill:#005d00;fill-opacity:0.90588235;stroke:#007900;stroke-opacity:1"
         inkscape:connector-curvature="0" />
    </g>
    <g
       style="fill:url(#linearGradient4738);fill-opacity:1;stroke:#007900;stroke-width:433.0710144;stroke-linecap:round;stroke-linejoin:round;stroke-opacity:1"
       id="g20">
      <path
         d="m 57342,51136 v -157"
         id="path16"
         style="fill:url(#linearGradient4738);fill-opacity:1;stroke:#007900;stroke-opacity:1"
         inkscape:connector-curvature="0" />
      <path
         d="m 55437,51136 v -157"
         id="path18"
         style="fill:url(#linearGradient4738);fill-opacity:1;stroke:#007900;stroke-opacity:1"
         inkscape:connector-curvature="0" />
    </g>
    <g
       style="fill:#007900;fill-opacity:1;stroke:#000000;stroke-width:0;stroke-linecap:round;stroke-linejoin:round;stroke-opacity:1"
       id="g54">
      <circle
         cx="58928.699"
         cy="48600"
         r="295.276"
         id="circle52"
         style="fill:#007900;fill-opacity:1" />
    </g>
    <g
       style="fill:#007900;fill-opacity:1;stroke:#000000;stroke-width:0;stroke-linecap:round;stroke-linejoin:round;stroke-opacity:0"
       id="g60">
      <circle
         cx="60850"
         cy="48600"
         r="295.276"
         id="circle58"
         style="fill:#007900;fill-opacity:1;stroke:#000000;stroke-opacity:0" />
    </g>
    <g
       style="fill:#007900;fill-opacity:1;stroke:#000000;stroke-width:0;stroke-linecap:round;stroke-linejoin:round;stroke-opacity:1"
       id="g108">
      <circle
         cx="57391.5"
         cy="47888.699"
         r="157.48"
         id="circle106"
         style="fill:#007900;fill-opacity:1" />
    </g>
    <g
       style="fill:#007900;fill-opacity:1;stroke:#000000;stroke-width:0;stroke-linecap:round;stroke-linejoin:round;stroke-opacity:1"
       id="g126">
      <circle
         cx="56455.801"
         cy="48253.102"
         r="157.48"
         id="circle124"
         style="fill:#007900;fill-opacity:1" />
    </g>
    <circle
       style="display:inline;fill:#007900;fill-opacity:1;stroke:#007900;stroke-width:10.41667557;stroke-linecap:round;stroke-linejoin:round;stroke-miterlimit:4;stroke-dasharray:none;stroke-opacity:1"
       id="path4820"
       cx="50349.996"
       cy="35049.996"
       r="1978.5667" />
  </g>
</svg>
