<?xml version="1.0" standalone="no"?>
 <!DOCTYPE svg PUBLIC "-//W3C//DTD SVG 1.1//EN" 
 "http://www.w3.org/Graphics/SVG/1.1/DTD/svg11.dtd"> 
<svg xmlns="http://www.w3.org/2000/svg" version="1.1" 
    width="29.7002cm" height="21.0007cm" viewBox="0 0 116930 82680 ">
<title>SVG Picture created as FrogINT_PCBProto_V1811062154-B.Cu.svg date 2019/03/12 09:17:33 </title>
  <desc>Picture generated by PCBNEW </desc>
<g style="fill:#000000; fill-opacity:1;stroke:#000000; stroke-opacity:1;
stroke-linecap:round; stroke-linejoin:round; "
 transform="translate(0 0) scale(1 1)">
</g>
<g style="fill:#000000; fill-opacity:0.0; 
stroke:#000000; stroke-width:-0.000393701; stroke-opacity:1; 
stroke-linecap:round; stroke-linejoin:round;">
</g>
<g style="fill:#000000; fill-opacity:0.0; 
stroke:#000000; stroke-width:531.496; stroke-opacity:1; 
stroke-linecap:round; stroke-linejoin:round;">
<path d="M57464 52307
L57464 52170
" />
<path d="M55315 52307
L55315 52170
" />
</g>
<g style="fill:#000000; fill-opacity:0.0; 
stroke:#000000; stroke-width:433.071; stroke-opacity:1; 
stroke-linecap:round; stroke-linejoin:round;">
<path d="M57342 51136
L57342 50979
" />
<path d="M55437 51136
L55437 50979
" />
</g>
<g style="fill:#000000; fill-opacity:0.0; 
stroke:#000000; stroke-width:669.291; stroke-opacity:1; 
stroke-linecap:round; stroke-linejoin:round;">
<path d="M62350 39300
L62350 39300
" />
<path d="M62350 40300
L62350 40300
" />
<path d="M61350 39300
L61350 39300
" />
<path d="M61350 40300
L61350 40300
" />
<path d="M60350 39300
L60350 39300
" />
<path d="M60350 40300
L60350 40300
" />
<path d="M59350 39300
L59350 39300
" />
<path d="M59350 40300
L59350 40300
" />
<path d="M58350 39300
L58350 39300
" />
</g>
<g style="fill:#000000; fill-opacity:0.0; 
stroke:#000000; stroke-width:0; stroke-opacity:1; 
stroke-linecap:round; stroke-linejoin:round;">
</g>
<g style="fill:#000000; fill-opacity:1.0; 
stroke:#000000; stroke-width:0; stroke-opacity:1; 
stroke-linecap:round; stroke-linejoin:round;">
<polyline style="fill-rule:evenodd;"
points="58684,40634
58015,40634
58015,39965
58684,39965
58684,40634
" /> 
<circle cx="50350" cy="35050" r="1968.5" /> 
</g>
<g style="fill:#000000; fill-opacity:1.0; 
stroke:#000000; stroke-width:39.3701; stroke-opacity:1; 
stroke-linecap:round; stroke-linejoin:round;">
</g>
<g style="fill:#000000; fill-opacity:1.0; 
stroke:#000000; stroke-width:0; stroke-opacity:1; 
stroke-linecap:round; stroke-linejoin:round;">
<circle cx="58928.7" cy="48600" r="295.276" /> 
</g>
<g style="fill:#000000; fill-opacity:1.0; 
stroke:#000000; stroke-width:39.3701; stroke-opacity:1; 
stroke-linecap:round; stroke-linejoin:round;">
</g>
<g style="fill:#000000; fill-opacity:1.0; 
stroke:#000000; stroke-width:0; stroke-opacity:1; 
stroke-linecap:round; stroke-linejoin:round;">
<circle cx="60850" cy="48600" r="295.276" /> 
</g>
<g style="fill:#000000; fill-opacity:1.0; 
stroke:#000000; stroke-width:39.3701; stroke-opacity:1; 
stroke-linecap:round; stroke-linejoin:round;">
</g>
<g style="fill:#000000; fill-opacity:1.0; 
stroke:#000000; stroke-width:0; stroke-opacity:1; 
stroke-linecap:round; stroke-linejoin:round;">
<circle cx="52800" cy="46908.5" r="157.48" /> 
</g>
<g style="fill:#000000; fill-opacity:1.0; 
stroke:#000000; stroke-width:39.3701; stroke-opacity:1; 
stroke-linecap:round; stroke-linejoin:round;">
</g>
<g style="fill:#000000; fill-opacity:1.0; 
stroke:#000000; stroke-width:0; stroke-opacity:1; 
stroke-linecap:round; stroke-linejoin:round;">
<circle cx="55179.1" cy="48075" r="157.48" /> 
</g>
<g style="fill:#000000; fill-opacity:1.0; 
stroke:#000000; stroke-width:39.3701; stroke-opacity:1; 
stroke-linecap:round; stroke-linejoin:round;">
</g>
<g style="fill:#000000; fill-opacity:1.0; 
stroke:#000000; stroke-width:0; stroke-opacity:1; 
stroke-linecap:round; stroke-linejoin:round;">
<circle cx="52445.6" cy="44910.2" r="157.48" /> 
</g>
<g style="fill:#000000; fill-opacity:1.0; 
stroke:#000000; stroke-width:39.3701; stroke-opacity:1; 
stroke-linecap:round; stroke-linejoin:round;">
</g>
<g style="fill:#000000; fill-opacity:1.0; 
stroke:#000000; stroke-width:0; stroke-opacity:1; 
stroke-linecap:round; stroke-linejoin:round;">
<circle cx="58549.6" cy="44405.1" r="157.48" /> 
</g>
<g style="fill:#000000; fill-opacity:1.0; 
stroke:#000000; stroke-width:39.3701; stroke-opacity:1; 
stroke-linecap:round; stroke-linejoin:round;">
</g>
<g style="fill:#000000; fill-opacity:1.0; 
stroke:#000000; stroke-width:0; stroke-opacity:1; 
stroke-linecap:round; stroke-linejoin:round;">
<circle cx="61824.8" cy="43657.8" r="157.48" /> 
</g>
<g style="fill:#000000; fill-opacity:1.0; 
stroke:#000000; stroke-width:39.3701; stroke-opacity:1; 
stroke-linecap:round; stroke-linejoin:round;">
</g>
<g style="fill:#000000; fill-opacity:1.0; 
stroke:#000000; stroke-width:0; stroke-opacity:1; 
stroke-linecap:round; stroke-linejoin:round;">
<circle cx="50176" cy="47491" r="157.48" /> 
</g>
<g style="fill:#000000; fill-opacity:1.0; 
stroke:#000000; stroke-width:39.3701; stroke-opacity:1; 
stroke-linecap:round; stroke-linejoin:round;">
</g>
<g style="fill:#000000; fill-opacity:1.0; 
stroke:#000000; stroke-width:0; stroke-opacity:1; 
stroke-linecap:round; stroke-linejoin:round;">
<circle cx="54364.4" cy="47285.6" r="157.48" /> 
</g>
<g style="fill:#000000; fill-opacity:1.0; 
stroke:#000000; stroke-width:39.3701; stroke-opacity:1; 
stroke-linecap:round; stroke-linejoin:round;">
</g>
<g style="fill:#000000; fill-opacity:1.0; 
stroke:#000000; stroke-width:0; stroke-opacity:1; 
stroke-linecap:round; stroke-linejoin:round;">
<circle cx="57391.5" cy="47888.7" r="157.48" /> 
</g>
<g style="fill:#000000; fill-opacity:1.0; 
stroke:#000000; stroke-width:39.3701; stroke-opacity:1; 
stroke-linecap:round; stroke-linejoin:round;">
</g>
<g style="fill:#000000; fill-opacity:1.0; 
stroke:#000000; stroke-width:0; stroke-opacity:1; 
stroke-linecap:round; stroke-linejoin:round;">
<circle cx="58870.7" cy="43664.3" r="157.48" /> 
</g>
<g style="fill:#000000; fill-opacity:1.0; 
stroke:#000000; stroke-width:39.3701; stroke-opacity:1; 
stroke-linecap:round; stroke-linejoin:round;">
</g>
<g style="fill:#000000; fill-opacity:1.0; 
stroke:#000000; stroke-width:0; stroke-opacity:1; 
stroke-linecap:round; stroke-linejoin:round;">
<circle cx="57312.4" cy="43652.2" r="157.48" /> 
</g>
<g style="fill:#000000; fill-opacity:1.0; 
stroke:#000000; stroke-width:39.3701; stroke-opacity:1; 
stroke-linecap:round; stroke-linejoin:round;">
</g>
<g style="fill:#000000; fill-opacity:1.0; 
stroke:#000000; stroke-width:0; stroke-opacity:1; 
stroke-linecap:round; stroke-linejoin:round;">
<circle cx="56455.8" cy="48253.1" r="157.48" /> 
</g>
<g style="fill:#000000; fill-opacity:1.0; 
stroke:#000000; stroke-width:39.3701; stroke-opacity:1; 
stroke-linecap:round; stroke-linejoin:round;">
</g>
<g style="fill:#000000; fill-opacity:1.0; 
stroke:#000000; stroke-width:0; stroke-opacity:1; 
stroke-linecap:round; stroke-linejoin:round;">
<circle cx="48304" cy="37096" r="157.48" /> 
</g>
<g style="fill:#000000; fill-opacity:1.0; 
stroke:#000000; stroke-width:39.3701; stroke-opacity:1; 
stroke-linecap:round; stroke-linejoin:round;">
</g>
<g style="fill:#000000; fill-opacity:1.0; 
stroke:#000000; stroke-width:0; stroke-opacity:1; 
stroke-linecap:round; stroke-linejoin:round;">
<circle cx="63031" cy="43366.6" r="157.48" /> 
</g>
<g style="fill:#000000; fill-opacity:1.0; 
stroke:#000000; stroke-width:39.3701; stroke-opacity:1; 
stroke-linecap:round; stroke-linejoin:round;">
</g>
<g style="fill:#000000; fill-opacity:1.0; 
stroke:#000000; stroke-width:0; stroke-opacity:1; 
stroke-linecap:round; stroke-linejoin:round;">
<circle cx="49886.5" cy="39430.5" r="157.48" /> 
</g>
<g style="fill:#000000; fill-opacity:1.0; 
stroke:#000000; stroke-width:39.3701; stroke-opacity:1; 
stroke-linecap:round; stroke-linejoin:round;">
</g>
<g style="fill:#000000; fill-opacity:1.0; 
stroke:#000000; stroke-width:98.4252; stroke-opacity:1; 
stroke-linecap:round; stroke-linejoin:round;">
</g>
<g style="fill:#000000; fill-opacity:0.0; 
stroke:#000000; stroke-width:98.4252; stroke-opacity:1; 
stroke-linecap:round; stroke-linejoin:round;">
<path d="M52800 46908
L54391 46908
" />
<path d="M54391 46908
L55179 47696
" />
<path d="M55179 47696
L55179 48074
" />
<path d="M59169 43657
L59169 43546
" />
<path d="M59169 43546
L58989 43366
" />
<path d="M58989 43366
L53989 43366
" />
<path d="M53989 43366
L52445 44910
" />
<path d="M58549 44405
L59169 43785
" />
<path d="M59169 43785
L59169 43657
" />
<path d="M59169 43657
L61824 43657
" />
<path d="M61350 40300
L60887 40300
" />
<path d="M59350 39300
L59812 39300
" />
<path d="M59812 39300
L59812 39444
" />
<path d="M59812 39444
L60130 39762
" />
<path d="M60130 39762
L60474 39762
" />
<path d="M60474 39762
L60887 40175
" />
<path d="M60887 40175
L60887 40300
" />
<path d="M54364 47285
L50381 47285
" />
<path d="M50381 47285
L50175 47490
" />
<path d="M57391 47888
L57391 45143
" />
<path d="M57391 45143
L58870 43664
" />
<path d="M56455 48253
L56455 44508
" />
<path d="M56455 44508
L57312 43652
" />
<path d="M50350 35050
L48304 37095
" />
<path d="M63030 43366
L62853 43189
" />
<path d="M62853 43189
L53645 43189
" />
<path d="M53645 43189
L49886 39430
" />
</g>
<g style="fill:#000000; fill-opacity:1.0; 
stroke:#000000; stroke-width:100; stroke-opacity:1; 
stroke-linecap:round; stroke-linejoin:round;">
<polyline style="fill-rule:evenodd;"
points="64150,53650
45250,53650
45250,40294
46967,40294
46969,40348
46969,40373
46969,40377
46970,40381
46975,40405
46985,40457
46988,40461
48437,46849
48438,46858
48588,47523
48589,47528
48590,47533
48595,47549
48804,48198
48806,48203
48807,48208
48813,48223
49080,48850
49082,48855
49084,48860
49091,48874
49414,49475
49417,49479
49419,49484
49428,49498
49804,50067
49807,50071
49809,50075
49819,50088
50245,50621
50248,50625
50252,50629
50262,50641
50735,51133
50739,51136
50742,51140
50754,51151
51269,51598
51273,51601
51277,51605
51290,51614
51844,52013
51848,52016
51852,52019
51866,52027
52453,52374
52457,52377
52462,52379
52476,52387
52476,52387
52476,52387
53093,52679
53097,52681
53102,52683
53117,52689
53757,52924
53762,52925
53767,52927
53782,52932
54442,53108
54446,53109
54451,53110
54467,53114
55140,53229
55145,53230
55150,53231
55166,53232
55846,53287
55851,53287
55856,53287
55872,53287
56554,53280
56559,53280
56564,53280
56580,53278
57259,53209
57264,53208
57269,53208
57285,53205
57955,53074
57959,53073
57964,53072
57980,53068
58635,52877
58640,52876
58645,52874
58660,52869
58660,52869
58660,52869
59295,52619
59299,52617
59304,52615
59319,52609
59929,52303
59933,52300
59938,52298
59952,52290
60531,51930
60535,51927
60540,51924
60553,51915
61097,51504
61101,51501
61105,51498
61117,51487
61623,51029
61626,51025
61630,51022
61641,51010
62103,50508
62106,50504
62109,50500
62119,50487
62533,49945
62536,49941
62539,49937
62548,49924
62911,49346
62914,49342
62917,49337
62924,49323
63234,48715
63236,48710
63238,48706
63244,48691
63497,48058
63499,48053
63501,48048
63506,48033
63700,47379
63702,47374
63703,47369
63707,47353
63841,46684
63842,46679
63843,46674
63845,46658
63918,45980
63918,45975
63919,45970
63920,45954
63931,45272
63931,45267
63931,45262
63930,45246
63880,44565
63879,44560
63879,44555
63877,44539
63765,43866
63764,43861
63763,43856
63759,43841
63587,43180
63585,43176
63584,43171
63579,43155
63347,42514
63346,42509
63344,42504
63337,42489
63049,41871
63046,41867
63044,41862
63036,41848
62693,41259
62690,41254
62688,41250
62679,41237
62425,40881
62578,40850
62771,40721
62900,40528
62946,40300
62900,40071
62771,39878
62653,39799
62820,39646
62917,39440
62870,39350
62400,39350
62400,39357
62300,39357
62300,39350
62292,39350
62292,39250
62300,39250
62300,38780
62400,38780
62400,39250
62870,39250
62917,39159
62820,38953
62651,38799
62490,38732
62400,38780
62300,38780
62209,38732
62048,38799
61879,38953
61855,39004
61771,38878
61578,38749
61407,38715
61292,38715
61121,38749
60928,38878
60850,38995
60771,38878
60578,38749
60407,38715
60292,38715
60121,38749
60099,38764
59555,38467
59550,38465
59546,38463
59531,38456
58905,38185
58900,38184
58895,38182
58880,38176
58232,37964
58227,37962
58222,37961
58207,37957
57542,37804
57537,37803
57532,37802
57516,37799
56840,37707
56835,37706
56830,37706
56814,37704
56132,37674
56127,37674
56122,37674
56106,37674
55425,37706
55420,37706
55414,37706
55398,37708
54723,37801
54718,37802
54713,37803
54697,37806
54032,37960
54027,37961
54022,37962
54007,37967
53739,38055
53739,31878
53745,31850
53722,31737
53658,31641
53562,31577
53478,31560
53450,31554
53421,31560
50146,31560
50061,31577
50044,31588
49455,31793
49450,31795
49445,31797
49430,31803
48811,32083
48806,32085
48802,32087
48788,32095
48196,32429
48192,32432
48187,32434
48174,32443
47615,32830
47611,32833
47607,32836
47594,32846
47594,32846
47594,32846
47084,33272
47049,33296
46985,33391
46969,33476
46969,40291
46967,40294
45250,40294
45250,31250
64150,31250
64150,53650
" /> 
<polyline style="fill-rule:evenodd;"
points="53160,38484
53177,38568
53241,38664
53337,38728
53450,38750
53562,38728
53578,38718
54176,38521
54815,38373
55464,38283
56120,38253
56775,38282
57425,38371
58064,38518
58687,38722
58975,38846
58928,38878
58844,39004
58820,38953
58651,38799
58490,38732
58400,38780
58400,39250
58407,39250
58407,39350
58400,39350
58400,39357
58300,39357
58300,39350
57829,39350
57782,39440
57879,39646
57960,39721
57917,39729
57835,39785
57779,39867
57760,39965
57760,40634
57779,40732
57835,40814
57917,40870
58015,40889
58684,40889
58782,40870
58864,40814
58920,40732
58923,40714
58928,40721
59121,40850
59292,40884
59407,40884
59578,40850
59771,40721
59850,40604
59928,40721
60121,40850
60292,40884
60407,40884
60578,40850
60771,40721
60850,40604
60928,40721
61121,40850
61292,40884
61407,40884
61578,40850
61635,40812
61819,41027
62200,41562
62530,42128
62808,42722
62867,42886
62853,42884
62824,42890
53769,42890
50293,39414
50293,39349
50231,39199
50191,39159
57782,39159
57829,39250
58300,39250
58300,38780
58209,38732
58048,38799
57879,38953
57782,39159
50191,39159
50117,39085
49967,39022
49805,39022
49655,39085
49541,39199
49479,39349
49479,39511
49541,39661
49655,39775
49805,39837
49870,39837
53412,43380
53429,43405
53488,43444
52429,44502
52364,44502
52214,44564
52100,44679
52038,44829
52038,44991
52100,45141
52214,45255
52364,45317
52526,45317
52676,45255
52791,45141
52853,44991
52853,44925
54113,43665
56875,43665
56265,44276
56240,44292
56223,44317
56223,44317
56173,44391
56150,44508
56156,44538
56156,47976
56110,48022
56048,48172
56048,48334
56110,48483
56225,48598
56374,48660
56536,48660
56686,48598
56793,48491
58383,48491
58383,48708
58466,48908
58619,49062
58820,49145
59037,49145
59237,49062
59391,48908
59474,48708
59474,48491
60304,48491
60304,48708
60387,48908
60541,49062
60741,49145
60958,49145
61158,49062
61312,48908
61395,48708
61395,48491
61312,48291
61158,48137
60958,48054
60741,48054
60541,48137
60387,48291
60304,48491
59474,48491
59391,48291
59237,48137
59037,48054
58820,48054
58619,48137
58466,48291
58383,48491
56793,48491
56801,48483
56863,48334
56863,48172
56801,48022
56755,47976
56755,44632
57328,44059
57393,44059
57543,43997
57657,43882
57719,43733
57719,43665
58446,43665
57200,44911
57175,44927
57159,44952
57159,44952
57109,45026
57086,45143
57092,45173
57092,47611
57046,47657
56983,47807
56983,47969
57046,48119
57160,48234
57310,48296
57472,48296
57622,48234
57736,48119
57798,47969
57798,47807
57736,47657
57690,47611
57690,45267
58263,44694
58318,44750
58468,44812
58630,44812
58780,44750
58895,44635
58957,44486
58957,44420
59360,44017
59385,44000
59410,43962
59414,43956
61547,43956
61593,44003
61743,44065
61905,44065
62055,44003
62170,43888
62232,43738
62232,43576
62195,43488
62640,43488
62685,43597
62800,43712
62949,43774
63112,43774
63141,43762
63196,43974
63304,44621
63352,45275
63341,45931
63271,46583
63142,47226
62955,47855
62712,48464
62414,49049
62065,49604
61667,50126
61224,50609
60738,51050
60215,51445
59657,51791
59071,52085
58461,52325
57943,52476
57978,52370
57919,52288
57514,52288
57514,52296
57414,52296
57414,52288
57010,52288
56951,52370
57014,52561
57086,52645
56534,52701
55879,52709
55654,52691
55765,52561
55828,52370
55769,52288
55365,52288
55365,52296
55265,52296
55265,52288
54861,52288
54802,52370
54864,52561
54898,52600
54578,52545
53944,52376
53329,52150
53239,52107
54802,52107
54861,52188
55265,52188
55265,51719
55365,51719
55365,52188
55769,52188
55828,52107
56951,52107
57010,52188
57414,52188
57414,51719
57514,51719
57514,52188
57919,52188
57978,52107
57915,51916
57783,51763
57603,51672
57594,51670
57514,51719
57414,51719
57335,51670
57325,51672
57145,51763
57014,51916
56951,52107
55828,52107
55765,51916
55634,51763
55454,51672
55445,51670
55365,51719
55265,51719
55185,51670
55176,51672
54996,51763
54864,51916
54802,52107
53239,52107
52736,51869
52171,51536
51678,51181
54970,51181
55023,51356
55139,51498
55300,51585
55315,51586
55387,51537
55387,51107
55487,51107
55487,51537
55559,51586
55574,51585
55735,51498
55851,51356
55904,51181
56876,51181
56928,51356
57044,51498
57205,51585
57220,51586
57292,51537
57292,51107
57392,51107
57392,51537
57464,51586
57480,51585
57641,51498
57757,51356
57809,51181
57748,51107
57392,51107
57292,51107
56937,51107
56876,51181
55904,51181
55842,51107
55487,51107
55387,51107
55031,51107
54970,51181
51678,51181
51639,51152
51387,50934
54970,50934
55031,51007
55387,51007
55387,50578
55487,50578
55487,51007
55842,51007
55904,50934
56876,50934
56937,51007
57292,51007
57292,50578
57392,50578
57392,51007
57748,51007
57809,50934
57757,50759
57641,50617
57480,50530
57464,50528
57392,50578
57292,50578
57220,50528
57205,50530
57044,50617
56928,50759
56876,50934
55904,50934
55851,50759
55735,50617
55574,50530
55559,50528
55487,50578
55387,50578
55315,50528
55300,50530
55139,50617
55023,50759
54970,50934
51387,50934
51143,50722
50689,50249
50279,49737
49918,49190
49607,48612
49351,48008
49158,47409
49768,47409
49768,47572
49830,47721
49945,47836
50094,47898
50257,47898
50406,47836
50521,47721
50578,47584
54087,47584
54133,47630
54283,47693
54445,47693
54595,47630
54642,47583
54868,47809
54833,47844
54771,47993
54771,48156
54833,48305
54948,48420
55098,48482
55260,48482
55409,48420
55524,48305
55586,48156
55586,47993
55524,47844
55478,47797
55478,47725
55484,47696
55478,47666
55478,47666
55460,47579
55441,47551
55411,47505
55411,47505
55394,47480
55369,47463
54623,46717
54606,46692
54508,46626
54420,46609
54420,46609
54391,46603
54361,46609
53077,46609
53030,46563
52881,46501
52718,46501
52569,46563
52454,46677
52392,46827
52392,46986
50410,46986
50381,46980
50351,46986
50351,46986
50264,47003
50165,47069
50156,47083
50094,47083
49945,47145
49830,47260
49768,47409
49158,47409
49150,47384
49008,46754
49008,46752
47547,40312
47547,37014
47896,37014
47896,37177
47958,37326
48073,37441
48222,37503
48385,37503
48534,37441
48649,37326
48711,37177
48711,37111
48992,36830
49093,36930
49908,37268
50791,37268
51606,36930
52230,36306
52568,35491
52568,34608
52230,33793
51606,33169
50791,32831
49908,32831
49093,33169
48469,33793
48131,34608
48131,35491
48469,36306
48569,36407
48288,36688
48222,36688
48073,36750
47958,36865
47896,37014
47547,37014
47547,33640
47955,33299
48492,32927
49061,32605
49657,32336
50223,32139
53160,32139
53160,38484
" /> 
</g> 
</svg>
