<?xml version="1.0" standalone="no"?>
 <!DOCTYPE svg PUBLIC "-//W3C//DTD SVG 1.1//EN" 
 "http://www.w3.org/Graphics/SVG/1.1/DTD/svg11.dtd"> 
<svg xmlns="http://www.w3.org/2000/svg" version="1.1" 
    width="29.7002cm" height="21.0007cm" viewBox="0 0 116930 82680 ">
<title>SVG Picture created as FrogINT_PCBProto_V1811062154-B.SilkS.svg date 2019/03/12 09:17:33 </title>
  <desc>Picture generated by PCBNEW </desc>
<g style="fill:#000000; fill-opacity:1;stroke:#000000; stroke-opacity:1;
stroke-linecap:round; stroke-linejoin:round; "
 transform="translate(0 0) scale(1 1)">
</g>
<g style="fill:#000000; fill-opacity:0.0; 
stroke:#000000; stroke-width:-0.000393701; stroke-opacity:1; 
stroke-linecap:round; stroke-linejoin:round;">
</g>
<g style="fill:#000000; fill-opacity:0.0; 
stroke:#000000; stroke-width:59.0551; stroke-opacity:1; 
stroke-linecap:round; stroke-linejoin:round;">
<circle cx="50350" cy="35050" r="3000" /> 
</g>
<g style="fill:#000000; fill-opacity:1.0; 
stroke:#000000; stroke-width:3.93701; stroke-opacity:1; 
stroke-linecap:round; stroke-linejoin:round;">
<polyline style="fill-rule:evenodd;"
points="60650,44200
60383,44200
60383,45400
60650,45400
60650,44200
" /> 
<polyline style="fill-rule:evenodd;"
points="57750,44200
57483,44200
57483,45933
57750,45933
57750,44200
" /> 
<polyline style="fill-rule:evenodd;"
points="56778,45845
56829,45823
56860,45768
56872,45733
56894,45667
56934,45549
56988,45391
57052,45203
57123,44996
57147,44923
57216,44721
57277,44540
57326,44391
57362,44282
57381,44223
57383,44215
57353,44205
57280,44200
57252,44200
57122,44200
57041,44441
56961,44683
56404,44683
56320,44441
56236,44200
56110,44200
56029,44203
55985,44212
55983,44215
55993,44252
56020,44336
56058,44449
56066,44474
56105,44588
56160,44749
56212,44900
56465,44900
56676,44900
56790,44901
56851,44909
56872,44928
56868,44964
56864,44975
56829,45087
56788,45213
56746,45335
56710,45436
56685,45501
56679,45515
56664,45491
56634,45416
56595,45303
56565,45213
56465,44900
56212,44900
56225,44939
56295,45144
56343,45283
56536,45850
56684,45850
56778,45845
" /> 
<polyline style="fill-rule:evenodd;"
points="53850,44200
53583,44200
53583,45933
53850,45933
53850,44200
" /> 
<polyline style="fill-rule:evenodd;"
points="51483,45292
51561,45343
51712,45408
51869,45417
52017,45375
52139,45284
52182,45227
52210,45174
52228,45113
52240,45031
52247,44914
52249,44750
52249,44658
52250,44200
52016,44200
52016,44567
52009,44802
51986,44977
51945,45097
51881,45167
51793,45194
51685,45183
51607,45156
51552,45108
51515,45030
51494,44910
51484,44740
51483,44601
51483,44200
51216,44200
51216,45933
51483,45933
51483,45292
" /> 
<polyline style="fill-rule:evenodd;"
points="51183,45733
50683,45733
50683,44200
50416,44200
50416,45733
49950,45733
49950,45933
51183,45933
51183,45733
" /> 
<polyline style="fill-rule:evenodd;"
points="61446,45398
61539,45371
61615,45328
61671,45267
61710,45177
61734,45050
61746,44875
61750,44653
61750,44200
61650,44200
61570,44214
61550,44249
61539,44275
61500,44266
61441,44232
61302,44178
61151,44167
61012,44199
60942,44241
60840,44359
60798,44486
60802,44544
61058,44544
61082,44472
61098,44447
61150,44387
61212,44371
61270,44377
61365,44405
61436,44448
61437,44449
61474,44515
61502,44615
61509,44656
61526,44809
61401,44785
61249,44749
61150,44704
61091,44643
61078,44618
61058,44544
60802,44544
60808,44614
60867,44734
60969,44837
61108,44915
61279,44960
61383,44966
61464,44970
61494,44992
61492,45043
61491,45050
61442,45154
61351,45213
61225,45225
61074,45188
61060,45182
60978,45149
60938,45146
60918,45181
60905,45237
60899,45301
60933,45342
60990,45369
61126,45403
61289,45413
61446,45398
" /> 
<polyline style="fill-rule:evenodd;"
points="55776,45399
55855,45351
55877,45303
55872,45217
55825,45181
55732,45193
55704,45202
55612,45228
55542,45219
55499,45199
55430,45142
55426,45077
55487,45003
55613,44921
55633,44910
55800,44801
55906,44682
55949,44557
55949,44540
55921,44413
55846,44295
55751,44217
55640,44183
55498,44169
55353,44175
55235,44202
55216,44210
55152,44268
55144,44318
55166,44387
55212,44416
55296,44410
55359,44394
55503,44373
55608,44392
55667,44449
55677,44525
55658,44585
55606,44637
55509,44693
55489,44702
55338,44785
55241,44866
55190,44958
55175,45075
55178,45153
55215,45249
55301,45334
55418,45394
55492,45412
55651,45420
55776,45399
" /> 
<polyline style="fill-rule:evenodd;"
points="54737,45389
54885,45313
54987,45189
55041,45020
55049,44908
55050,44733
54650,44733
54481,44732
54367,44729
54299,44721
54264,44708
54251,44686
54250,44667
54271,44602
54324,44519
54347,44492
54407,44430
54464,44399
54542,44389
54638,44390
54757,44395
54856,44402
54900,44406
54952,44397
54975,44337
54976,44328
54972,44263
54928,44223
54880,44203
54703,44168
54515,44171
54341,44212
54262,44249
54129,44365
54040,44517
53995,44693
53996,44877
54020,44972
54259,44972
54270,44949
54311,44938
54395,44934
54531,44933
54681,44937
54778,44948
54816,44966
54816,44968
54795,45041
54745,45126
54686,45190
54590,45226
54480,45212
54375,45158
54295,45070
54267,45008
54259,44972
54020,44972
54041,45056
54133,45216
54227,45312
54314,45374
54397,45405
54506,45415
54546,45415
54737,45389
" /> 
<polyline style="fill-rule:evenodd;"
points="53036,45407
53120,45387
53183,45347
53197,45335
53253,45273
53294,45202
53323,45110
53341,44985
53351,44815
53357,44641
53366,44199
53259,44199
53163,44219
53119,44258
53092,44290
53084,44280
53052,44235
52971,44197
52857,44172
52762,44166
52650,44176
52567,44216
52514,44264
52451,44340
52422,44422
52416,44523
52418,44546
52651,44546
52672,44457
52702,44419
52793,44371
52906,44382
52960,44405
53060,44482
53107,44589
53115,44675
53112,44749
53093,44787
53043,44793
52948,44775
52897,44762
52769,44710
52685,44634
52651,44546
52418,44546
52426,44635
52451,44728
52465,44755
52548,44830
52673,44897
52818,44946
52957,44966
52966,44966
53070,44976
53113,45008
53097,45067
53034,45145
52940,45214
52828,45229
52686,45193
52660,45182
52577,45149
52535,45147
52514,45182
52500,45236
52494,45298
52526,45338
52589,45369
52683,45394
52812,45410
52908,45413
53036,45407
" /> 
<polyline style="fill-rule:evenodd;"
points="61098,47150
61267,47045
61378,46929
61429,46799
61422,46652
61355,46486
61228,46297
61041,46084
60978,46020
60866,45904
60773,45802
60709,45724
60683,45681
60683,45680
60654,45629
60586,45585
60504,45566
60501,45566
60449,45548
60361,45501
60257,45435
60252,45432
60055,45298
60111,45190
60137,45118
60156,45013
60169,44863
60177,44658
60178,44641
60189,44200
59923,44200
59911,44631
59903,44832
59890,44982
59873,45075
59860,45102
59822,45118
59759,45099
59660,45046
59560,44988
59476,44942
59441,44926
59415,44906
59398,44867
59388,44795
59384,44677
59383,44551
59383,44200
59116,44200
59116,44723
58797,44558
58669,44490
58569,44433
58507,44393
58494,44378
58532,44374
58616,44383
58688,44394
58787,44411
58854,44421
58872,44421
58883,44389
58900,44327
58908,44268
58883,44233
58810,44207
58794,44202
58649,44175
58494,44168
58355,44179
58273,44202
58227,44215
58169,44210
58087,44183
57966,44130
57897,44098
57578,43948
57297,43819
57059,43711
56867,43627
56725,43569
56637,43538
56612,43533
56583,43557
56583,43560
56611,43587
56685,43630
56788,43681
56791,43682
56891,43728
57037,43796
57212,43879
57403,43970
57543,44037
58087,44297
58010,44400
57957,44514
57925,44667
57924,44691
58150,44691
58167,44632
58208,44555
58259,44482
58303,44437
58316,44433
58359,44448
58445,44488
58558,44545
58608,44571
58725,44635
58818,44686
58872,44716
58880,44721
58855,44726
58775,44730
58655,44732
58522,44733
58348,44731
58233,44724
58170,44711
58150,44692
58150,44691
57924,44691
57916,44834
57925,44933
58147,44933
58746,44933
58711,45033
58641,45149
58534,45218
58448,45233
58352,45202
58257,45116
58186,45008
58147,44933
57925,44933
57931,44991
57967,45103
58074,45252
58218,45357
58383,45415
58555,45422
58721,45372
58769,45344
58848,45263
58918,45142
58967,45004
58983,44889
58986,44810
59002,44786
59042,44802
59050,44807
59083,44836
59103,44883
59113,44962
59116,45070
59452,45070
59457,45058
59500,45078
59571,45125
59600,45146
59635,45184
59626,45198
59578,45178
59508,45127
59493,45114
59452,45070
59116,45070
59116,45088
59116,45124
59116,45400
59233,45400
59313,45392
59346,45363
59350,45332
59353,45290
59373,45286
59425,45320
59452,45340
59524,45383
59605,45406
59718,45412
59777,45411
59900,45412
59987,45425
60067,45459
60166,45524
60191,45541
60304,45629
60366,45697
60383,45753
60410,45826
60474,45879
60550,45892
60564,45888
60607,45903
60680,45959
60771,46044
60870,46146
60964,46254
61043,46356
61082,46416
61134,46539
61161,46668
61163,46688
61145,46815
61079,46919
60959,47008
60819,47074
60757,47098
60696,47116
60627,47129
60540,47138
60426,47144
60273,47147
60073,47148
59833,47148
59573,47147
59360,47144
59178,47138
59012,47126
58845,47109
58663,47085
58448,47052
58185,47008
58150,47002
58057,46985
57913,46957
57735,46921
57536,46880
57332,46838
57138,46797
56968,46760
56850,46733
56756,46712
56627,46683
56500,46655
56352,46620
56202,46581
56101,46552
55990,46524
55924,46518
55910,46535
55920,46547
55962,46566
56062,46595
56208,46635
56394,46681
56610,46734
56847,46790
57096,46847
57349,46903
57597,46957
57831,47006
58041,47049
58216,47081
58508,47132
58751,47171
58961,47201
59155,47221
59349,47235
59559,47243
59803,47247
60066,47248
60900,47250
61098,47150
" /> 
<polyline style="fill-rule:evenodd;"
points="54209,43438
54216,43400
54232,43351
54289,43334
54318,43333
54384,43328
54411,43300
54412,43230
54410,43208
54400,43083
54175,43075
54055,43072
53988,43077
53958,43095
53950,43131
53950,43150
53932,43216
54050,43216
54057,43172
54063,43166
54083,43191
54283,43191
54289,43142
54308,43154
54316,43166
54344,43222
54349,43241
54324,43265
54316,43266
54290,43238
54283,43191
54083,43191
54084,43192
54095,43216
54096,43259
54082,43266
54053,43239
54050,43216
53932,43216
53932,43217
53900,43233
53859,43204
53850,43150
53846,43105
53824,43080
53770,43069
53668,43066
53633,43066
53416,43066
53413,43150
53616,43150
53633,43133
53650,43150
53633,43166
53616,43150
53413,43150
53412,43175
53408,43283
53387,43183
53366,43083
52974,43075
52816,43075
52691,43079
52609,43088
52583,43099
52588,43150
52916,43150
52933,43133
52950,43150
52933,43166
52916,43150
52588,43150
52592,43190
52617,43293
52649,43387
52682,43451
52702,43466
52739,43452
52747,43401
52727,43303
52718,43274
52702,43201
52715,43171
52748,43166
52805,43196
52814,43216
53150,43216
53157,43172
53163,43166
53184,43192
53195,43216
53196,43259
53182,43266
53153,43239
53150,43216
52814,43216
52829,43247
52841,43284
52864,43307
52911,43320
52994,43326
53127,43327
53181,43328
53332,43327
53430,43322
53486,43312
53513,43292
53525,43261
53526,43255
53537,43204
53542,43219
53545,43258
53551,43294
53573,43317
53625,43328
53719,43332
53829,43333
53967,43334
54052,43341
54098,43356
54120,43382
54126,43400
54155,43454
54180,43466
54209,43438
" /> 
<polyline style="fill-rule:evenodd;"
points="51130,43453
51148,43425
51150,43401
51169,43346
51197,43333
51245,43305
51260,43275
51273,43233
51278,43257
51279,43275
51305,43319
51381,43333
51383,43333
51456,43323
51484,43282
51487,43258
51491,43209
51499,43224
51505,43250
51524,43339
51535,43391
51562,43452
51595,43461
51615,43417
51616,43400
51628,43360
51671,43337
51755,43327
51891,43330
51943,43332
52015,43332
52044,43310
52046,43245
52043,43211
52033,43083
51587,43075
51142,43067
51154,43150
51350,43150
51366,43133
51383,43150
51683,43150
51700,43133
51716,43150
51916,43150
51933,43133
51950,43150
51933,43166
51916,43150
51716,43150
51700,43166
51683,43150
51383,43150
51366,43166
51350,43150
51154,43150
51157,43168
51158,43231
51142,43237
51120,43191
51111,43152
51080,43091
51053,43073
51025,43076
51018,43118
51027,43212
51034,43317
51022,43361
50997,43341
50965,43259
50953,43216
50914,43109
50869,43067
50862,43066
50826,43081
50826,43137
50831,43158
50854,43248
50870,43308
50865,43357
50832,43366
50792,43386
50791,43408
50831,43435
50920,43454
50977,43460
51078,43463
51130,43453
" /> 
<polyline style="fill-rule:evenodd;"
points="50602,43356
50634,43317
50634,43234
50627,43188
50608,43107
50573,43073
50500,43066
50495,43066
50416,43075
50385,43106
50383,43131
50386,43150
50483,43150
50500,43133
50516,43150
50500,43166
50483,43150
50386,43150
50402,43251
50453,43334
50527,43366
50530,43366
50602,43356
" /> 
<polyline style="fill-rule:evenodd;"
points="52514,43449
52499,43395
52438,43300
52375,43216
52285,43113
52213,43049
52166,43030
52150,43058
52170,43098
52221,43171
52290,43259
52365,43348
52431,43421
52476,43462
52486,43466
52514,43449
" /> 
<polyline style="fill-rule:evenodd;"
points="56416,43355
56416,43352
56405,43317
56377,43237
56345,43152
56291,43034
56243,42976
56214,42966
56173,42980
56162,43034
56164,43075
56167,43131
56162,43133
56160,43125
56122,43075
56093,43066
56059,43082
56056,43139
56061,43166
56071,43244
56059,43261
56032,43218
56010,43163
55985,43103
55949,43074
55883,43065
55804,43067
55653,43072
55557,43068
55504,43055
55484,43030
55483,43016
55456,42972
55433,42966
55389,42993
55383,43016
55365,43061
55350,43066
55326,43095
55316,43150
55750,43150
55766,43133
55783,43150
55766,43166
55750,43150
55316,43150
55313,43166
55313,43175
55313,43198
55516,43198
55542,43167
55550,43166
55579,43193
55583,43218
55567,43253
55550,43250
55517,43207
55516,43198
55313,43198
55310,43283
55279,43175
55249,43101
55218,43067
55215,43066
55192,43095
55180,43166
55179,43175
55176,43283
55142,43178
55109,43073
54837,43078
54566,43083
54571,43184
54650,43184
54662,43157
54708,43167
54731,43178
54766,43198
54883,43198
54908,43167
54916,43166
54945,43193
54950,43218
54933,43253
54916,43250
54884,43207
54883,43198
54766,43198
54784,43207
54779,43227
54756,43237
54683,43245
54651,43202
54650,43184
54571,43184
54571,43194
54581,43276
54597,43325
54598,43326
54647,43342
54739,43351
54848,43353
54951,43347
55025,43333
55041,43325
55077,43310
55083,43327
55113,43348
55193,43360
55248,43361
55348,43356
55401,43339
55423,43301
55426,43288
55437,43238
55442,43253
55445,43291
55464,43347
55523,43366
55543,43366
55625,43354
55672,43330
55713,43312
55731,43330
55785,43363
55855,43356
55912,43310
55913,43308
55940,43267
55948,43285
55948,43308
55961,43345
56009,43360
56100,43361
56198,43351
56244,43326
56251,43302
56257,43269
56282,43290
56296,43308
56343,43350
56392,43369
56416,43355
" /> 
<polyline style="fill-rule:evenodd;"
points="61575,43677
61670,43611
61714,43507
61716,43472
61685,43361
61593,43275
61440,43214
61355,43195
61248,43173
61174,43152
61150,43137
61167,43095
61201,43040
61279,42983
61387,42966
61501,42992
61518,43001
61566,43017
61582,42985
61583,42950
61560,42872
61497,42832
61368,42804
61234,42808
61133,42840
61045,42910
60998,43004
60984,43142
60984,43142
61007,43336
61024,43375
61203,43375
61209,43344
61260,43333
61339,43341
61428,43370
61431,43372
61500,43423
61517,43479
61482,43521
61421,43533
61315,43502
61224,43409
61203,43375
61024,43375
61076,43496
61184,43615
61323,43685
61435,43700
61575,43677
" /> 
<polyline style="fill-rule:evenodd;"
points="60905,43692
60963,43664
60971,43613
60963,43586
60920,43548
60825,43533
60799,43533
60694,43523
60621,43485
60569,43430
60481,43293
60457,43167
60488,43068
60529,43014
60587,42990
60685,42985
60691,42985
60791,42980
60842,42960
60861,42925
60847,42870
60784,42829
60690,42805
60583,42800
60480,42819
60433,42840
60350,42904
60303,42990
60285,43116
60284,43166
60310,43359
60388,43514
60511,43626
60673,43688
60789,43699
60905,43692
" /> 
<polyline style="fill-rule:evenodd;"
points="60174,43562
60161,43460
60142,43318
60120,43163
60114,43125
60092,42985
60073,42899
60052,42853
60023,42835
59993,42833
59930,42852
59916,42885
59908,42914
59873,42902
59828,42869
59710,42810
59587,42806
59478,42855
59455,42877
59395,42987
59378,43125
59550,43125
59573,43027
59633,42976
59714,42977
59801,43035
59806,43041
59889,43151
59940,43273
59965,43391
59977,43480
59969,43520
59929,43532
59892,43533
59792,43503
59693,43426
59611,43318
59559,43198
59550,43125
59378,43125
59378,43126
59403,43277
59464,43425
59560,43550
59604,43588
59687,43642
59776,43674
59896,43690
59958,43694
60190,43707
60174,43562
" /> 
<polyline style="fill-rule:evenodd;"
points="58336,44016
58413,43970
58432,43895
58428,43875
58396,43810
58356,43807
58333,43833
58279,43863
58193,43866
58099,43844
58024,43800
58017,43793
57969,43736
57951,43702
57981,43645
58058,43573
58158,43503
58267,43423
58326,43335
58348,43216
58350,43158
58329,43029
58262,42928
58139,42843
58127,42837
58022,42808
57891,42804
57767,42824
57725,42840
57660,42891
57659,42957
57678,42992
57717,43018
57788,43004
57796,43001
57891,42975
57963,42966
58040,42992
58118,43053
58172,43128
58183,43171
58159,43228
58103,43295
58038,43349
57995,43366
57953,43388
57889,43443
57872,43460
57796,43578
57778,43702
57812,43820
57892,43921
58011,43995
58163,44031
58208,44033
58336,44016
" /> 
<polyline style="fill-rule:evenodd;"
points="59141,43677
59216,43633
59264,43545
59284,43417
59277,43271
59242,43127
59216,43065
59115,42936
58974,42845
58814,42805
58745,42806
58616,42818
58595,42659
58579,42563
58556,42516
58513,42501
58479,42500
58410,42505
58383,42517
58389,42555
58406,42645
58430,42774
58461,42929
58463,42942
58482,43041
58670,43041
58674,42987
58677,42984
58729,42967
58814,42971
58898,42991
58918,43001
58981,43060
59043,43157
59093,43268
59116,43366
59116,43375
59093,43471
59033,43523
58951,43528
58863,43484
58807,43425
58761,43344
58719,43240
58687,43132
58670,43041
58482,43041
58497,43117
58530,43286
58556,43428
58572,43516
58594,43618
58623,43671
58668,43692
58679,43694
58751,43686
58786,43661
58819,43634
58855,43658
58930,43693
59035,43699
59141,43677
" /> 
</g>
<g style="fill:#000000; fill-opacity:0.0; 
stroke:#000000; stroke-width:3.93701; stroke-opacity:1; 
stroke-linecap:round; stroke-linejoin:round;">
</g>
<g style="fill:#000000; fill-opacity:0.0; 
stroke:#000000; stroke-width:59.0551; stroke-opacity:1; 
stroke-linecap:round; stroke-linejoin:round;">
<path d="M50867 38754
L50642 38754
" />
<path d="M50754 39148
L50754 38754
" />
<path d="M50529 39129
L50473 39148
L50380 39148
L50342 39129
L50323 39110
L50305 39073
L50305 39035
L50323 38998
L50342 38979
L50380 38960
L50454 38941
L50492 38923
L50511 38904
L50529 38866
L50529 38829
L50511 38791
L50492 38773
L50454 38754
L50361 38754
L50305 38773
" />
<path d="M49930 39148
L50155 39148
" />
<path d="M50042 39148
L50042 38754
L50080 38810
L50117 38848
L50155 38866
" />
</g> 
</svg>
