<?xml version="1.0" standalone="no"?>
 <!DOCTYPE svg PUBLIC "-//W3C//DTD SVG 1.1//EN" 
 "http://www.w3.org/Graphics/SVG/1.1/DTD/svg11.dtd"> 
<svg xmlns="http://www.w3.org/2000/svg" version="1.1" 
    width="29.7002cm" height="21.0007cm" viewBox="0 0 116930 82680 ">
<title>SVG Picture created as FrogINT_PCBProto_V1811062154-F.Cu.svg date 2019/03/12 09:17:33 </title>
  <desc>Picture generated by PCBNEW </desc>
<g style="fill:#000000; fill-opacity:1;stroke:#000000; stroke-opacity:1;
stroke-linecap:round; stroke-linejoin:round; "
 transform="translate(0 0) scale(1 1)">
</g>
<g style="fill:#000000; fill-opacity:0.0; 
stroke:#000000; stroke-width:-0.000393701; stroke-opacity:1; 
stroke-linecap:round; stroke-linejoin:round;">
</g>
<g style="fill:#000000; fill-opacity:0.0; 
stroke:#000000; stroke-width:0; stroke-opacity:1; 
stroke-linecap:round; stroke-linejoin:round;">
</g>
<g style="fill:#000000; fill-opacity:1.0; 
stroke:#000000; stroke-width:0; stroke-opacity:1; 
stroke-linecap:round; stroke-linejoin:round;">
<polyline style="fill-rule:evenodd;"
points="54301,39876
54301,40289
54045,40289
54045,39876
54301,39876
" /> 
<polyline style="fill-rule:evenodd;"
points="54301,41510
54301,41923
54045,41923
54045,41510
54301,41510
" /> 
<polyline style="fill-rule:evenodd;"
points="53454,39876
53454,40289
53198,40289
53198,39876
53454,39876
" /> 
<polyline style="fill-rule:evenodd;"
points="53454,41510
53454,41923
53198,41923
53198,41510
53454,41510
" /> 
<polyline style="fill-rule:evenodd;"
points="51154,41560
51154,41973
50898,41973
50898,41560
51154,41560
" /> 
<polyline style="fill-rule:evenodd;"
points="51154,39926
51154,40339
50898,40339
50898,39926
51154,39926
" /> 
<polyline style="fill-rule:evenodd;"
points="52001,41560
52001,41973
51745,41973
51745,41560
52001,41560
" /> 
<polyline style="fill-rule:evenodd;"
points="52001,39926
52001,40339
51745,40339
51745,39926
52001,39926
" /> 
<polyline style="fill-rule:evenodd;"
points="54867,48779
54877,48781
54886,48783
54895,48786
54904,48790
54912,48795
54920,48801
54927,48807
54934,48815
54940,48822
54945,48831
54949,48839
54952,48848
54954,48858
54956,48867
54956,48877
54956,49123
54956,49133
54954,49142
54952,49152
54949,49161
54945,49170
54940,49178
54934,49186
54927,49193
54920,49199
54912,49205
54904,49210
54895,49214
54886,49217
54877,49220
54867,49221
54858,49222
54641,49222
54632,49221
54622,49220
54613,49217
54604,49214
54595,49210
54587,49205
54579,49199
54572,49193
54565,49186
54559,49178
54554,49170
54550,49161
54547,49152
54545,49142
54543,49133
54543,49123
54543,48877
54543,48867
54545,48858
54547,48848
54550,48839
54554,48831
54559,48822
54565,48815
54572,48807
54579,48801
54587,48795
54595,48790
54604,48786
54613,48783
54622,48781
54632,48779
54641,48779
54858,48779
54867,48779
" /> 
<polyline style="fill-rule:evenodd;"
points="54867,49478
54877,49479
54886,49482
54895,49485
54904,49489
54912,49494
54920,49500
54927,49506
54934,49513
54940,49521
54945,49529
54949,49538
54952,49547
54954,49557
54956,49566
54956,49576
54956,49822
54956,49832
54954,49841
54952,49851
54949,49860
54945,49868
54940,49877
54934,49884
54927,49892
54920,49898
54912,49904
54904,49909
54895,49913
54886,49916
54877,49918
54867,49920
54858,49920
54641,49920
54632,49920
54622,49918
54613,49916
54604,49913
54595,49909
54587,49904
54579,49898
54572,49892
54565,49884
54559,49877
54554,49868
54550,49860
54547,49851
54545,49841
54543,49832
54543,49822
54543,49576
54543,49566
54545,49557
54547,49547
54550,49538
54554,49529
54559,49521
54565,49513
54572,49506
54579,49500
54587,49494
54595,49489
54604,49485
54613,49482
54622,49479
54632,49478
54641,49477
54858,49477
54867,49478
" /> 
<polyline style="fill-rule:evenodd;"
points="55817,47528
55827,47529
55836,47532
55845,47535
55854,47539
55862,47544
55870,47550
55877,47556
55884,47563
55890,47571
55895,47579
55899,47588
55902,47597
55904,47607
55906,47616
55906,47626
55906,47872
55906,47882
55904,47891
55902,47901
55899,47910
55895,47918
55890,47927
55884,47934
55877,47942
55870,47948
55862,47954
55854,47959
55845,47963
55836,47966
55827,47968
55817,47970
55808,47970
55591,47970
55582,47970
55572,47968
55563,47966
55554,47963
55545,47959
55537,47954
55529,47948
55522,47942
55515,47934
55509,47927
55504,47918
55500,47910
55497,47901
55495,47891
55493,47882
55493,47872
55493,47626
55493,47616
55495,47607
55497,47597
55500,47588
55504,47579
55509,47571
55515,47563
55522,47556
55529,47550
55537,47544
55545,47539
55554,47535
55563,47532
55572,47529
55582,47528
55591,47527
55808,47527
55817,47528
" /> 
<polyline style="fill-rule:evenodd;"
points="55817,46829
55827,46831
55836,46833
55845,46836
55854,46840
55862,46845
55870,46851
55877,46857
55884,46865
55890,46872
55895,46881
55899,46889
55902,46898
55904,46908
55906,46917
55906,46927
55906,47173
55906,47183
55904,47192
55902,47202
55899,47211
55895,47220
55890,47228
55884,47236
55877,47243
55870,47249
55862,47255
55854,47260
55845,47264
55836,47267
55827,47270
55817,47271
55808,47272
55591,47272
55582,47271
55572,47270
55563,47267
55554,47264
55545,47260
55537,47255
55529,47249
55522,47243
55515,47236
55509,47228
55504,47220
55500,47211
55497,47202
55495,47192
55493,47183
55493,47173
55493,46927
55493,46917
55495,46908
55497,46898
55500,46889
55504,46881
55509,46872
55515,46865
55522,46857
55529,46851
55537,46845
55545,46840
55554,46836
55563,46833
55572,46831
55582,46829
55591,46829
55808,46829
55817,46829
" /> 
<polyline style="fill-rule:evenodd;"
points="51067,47929
51077,47931
51086,47933
51095,47936
51104,47940
51112,47945
51120,47951
51127,47957
51134,47965
51140,47972
51145,47981
51149,47989
51152,47998
51154,48008
51156,48017
51156,48027
51156,48273
51156,48283
51154,48292
51152,48302
51149,48311
51145,48320
51140,48328
51134,48336
51127,48343
51120,48349
51112,48355
51104,48360
51095,48364
51086,48367
51077,48370
51067,48371
51058,48372
50841,48372
50832,48371
50822,48370
50813,48367
50804,48364
50795,48360
50787,48355
50779,48349
50772,48343
50765,48336
50759,48328
50754,48320
50750,48311
50747,48302
50745,48292
50743,48283
50743,48273
50743,48027
50743,48017
50745,48008
50747,47998
50750,47989
50754,47981
50759,47972
50765,47965
50772,47957
50779,47951
50787,47945
50795,47940
50804,47936
50813,47933
50822,47931
50832,47929
50841,47929
51058,47929
51067,47929
" /> 
<polyline style="fill-rule:evenodd;"
points="51067,48628
51077,48629
51086,48632
51095,48635
51104,48639
51112,48644
51120,48650
51127,48656
51134,48663
51140,48671
51145,48679
51149,48688
51152,48697
51154,48707
51156,48716
51156,48726
51156,48972
51156,48982
51154,48991
51152,49001
51149,49010
51145,49018
51140,49027
51134,49034
51127,49042
51120,49048
51112,49054
51104,49059
51095,49063
51086,49066
51077,49068
51067,49070
51058,49070
50841,49070
50832,49070
50822,49068
50813,49066
50804,49063
50795,49059
50787,49054
50779,49048
50772,49042
50765,49034
50759,49027
50754,49018
50750,49010
50747,49001
50745,48991
50743,48982
50743,48972
50743,48726
50743,48716
50745,48707
50747,48697
50750,48688
50754,48679
50759,48671
50765,48663
50772,48656
50779,48650
50787,48644
50795,48639
50804,48635
50813,48632
50822,48629
50832,48628
50841,48627
51058,48627
51067,48628
" /> 
<polyline style="fill-rule:evenodd;"
points="51217,44678
51227,44679
51236,44682
51245,44685
51254,44689
51262,44694
51270,44700
51277,44706
51284,44713
51290,44721
51295,44729
51299,44738
51302,44747
51304,44757
51306,44766
51306,44776
51306,45022
51306,45032
51304,45041
51302,45051
51299,45060
51295,45068
51290,45077
51284,45084
51277,45092
51270,45098
51262,45104
51254,45109
51245,45113
51236,45116
51227,45118
51217,45120
51208,45120
50991,45120
50982,45120
50972,45118
50963,45116
50954,45113
50945,45109
50937,45104
50929,45098
50922,45092
50915,45084
50909,45077
50904,45068
50900,45060
50897,45051
50895,45041
50893,45032
50893,45022
50893,44776
50893,44766
50895,44757
50897,44747
50900,44738
50904,44729
50909,44721
50915,44713
50922,44706
50929,44700
50937,44694
50945,44689
50954,44685
50963,44682
50972,44679
50982,44678
50991,44677
51208,44677
51217,44678
" /> 
<polyline style="fill-rule:evenodd;"
points="51217,43979
51227,43981
51236,43983
51245,43986
51254,43990
51262,43995
51270,44001
51277,44007
51284,44015
51290,44022
51295,44031
51299,44039
51302,44048
51304,44058
51306,44067
51306,44077
51306,44323
51306,44333
51304,44342
51302,44352
51299,44361
51295,44370
51290,44378
51284,44386
51277,44393
51270,44399
51262,44405
51254,44410
51245,44414
51236,44417
51227,44420
51217,44421
51208,44422
50991,44422
50982,44421
50972,44420
50963,44417
50954,44414
50945,44410
50937,44405
50929,44399
50922,44393
50915,44386
50909,44378
50904,44370
50900,44361
50897,44352
50895,44342
50893,44333
50893,44323
50893,44077
50893,44067
50895,44058
50897,44048
50900,44039
50904,44031
50909,44022
50915,44015
50922,44007
50929,44001
50937,43995
50945,43990
50954,43986
50963,43983
50972,43981
50982,43979
50991,43979
51208,43979
51217,43979
" /> 
<polyline style="fill-rule:evenodd;"
points="61682,46893
61691,46895
61701,46897
61710,46900
61718,46904
61727,46909
61734,46915
61742,46922
61748,46929
61754,46937
61759,46945
61763,46954
61766,46963
61768,46972
61770,46982
61770,46991
61770,47208
61770,47217
61768,47227
61766,47236
61763,47245
61759,47254
61754,47262
61748,47270
61742,47277
61734,47284
61727,47290
61718,47295
61710,47299
61701,47302
61691,47304
61682,47306
61672,47306
61426,47306
61416,47306
61407,47304
61397,47302
61388,47299
61379,47295
61371,47290
61363,47284
61356,47277
61350,47270
61344,47262
61339,47254
61335,47245
61332,47236
61329,47227
61328,47217
61327,47208
61327,46991
61328,46982
61329,46972
61332,46963
61335,46954
61339,46945
61344,46937
61350,46929
61356,46922
61363,46915
61371,46909
61379,46904
61388,46900
61397,46897
61407,46895
61416,46893
61426,46893
61672,46893
61682,46893
" /> 
<polyline style="fill-rule:evenodd;"
points="60983,46893
60992,46895
61002,46897
61011,46900
61020,46904
61028,46909
61036,46915
61043,46922
61049,46929
61055,46937
61060,46945
61064,46954
61067,46963
61070,46972
61071,46982
61072,46991
61072,47208
61071,47217
61070,47227
61067,47236
61064,47245
61060,47254
61055,47262
61049,47270
61043,47277
61036,47284
61028,47290
61020,47295
61011,47299
61002,47302
60992,47304
60983,47306
60973,47306
60727,47306
60717,47306
60708,47304
60698,47302
60689,47299
60681,47295
60672,47290
60665,47284
60657,47277
60651,47270
60645,47262
60640,47254
60636,47245
60633,47236
60631,47227
60629,47217
60629,47208
60629,46991
60629,46982
60631,46972
60633,46963
60636,46954
60640,46945
60645,46937
60651,46929
60657,46922
60665,46915
60672,46909
60681,46904
60689,46900
60698,46897
60708,46895
60717,46893
60727,46893
60973,46893
60983,46893
" /> 
<polyline style="fill-rule:evenodd;"
points="59383,46893
59392,46895
59402,46897
59411,46900
59420,46904
59428,46909
59436,46915
59443,46922
59449,46929
59455,46937
59460,46945
59464,46954
59467,46963
59470,46972
59471,46982
59472,46991
59472,47208
59471,47217
59470,47227
59467,47236
59464,47245
59460,47254
59455,47262
59449,47270
59443,47277
59436,47284
59428,47290
59420,47295
59411,47299
59402,47302
59392,47304
59383,47306
59373,47306
59127,47306
59117,47306
59108,47304
59098,47302
59089,47299
59081,47295
59072,47290
59065,47284
59057,47277
59051,47270
59045,47262
59040,47254
59036,47245
59033,47236
59031,47227
59029,47217
59029,47208
59029,46991
59029,46982
59031,46972
59033,46963
59036,46954
59040,46945
59045,46937
59051,46929
59057,46922
59065,46915
59072,46909
59081,46904
59089,46900
59098,46897
59108,46895
59117,46893
59127,46893
59373,46893
59383,46893
" /> 
<polyline style="fill-rule:evenodd;"
points="60082,46893
60091,46895
60101,46897
60110,46900
60118,46904
60127,46909
60134,46915
60142,46922
60148,46929
60154,46937
60159,46945
60163,46954
60166,46963
60168,46972
60170,46982
60170,46991
60170,47208
60170,47217
60168,47227
60166,47236
60163,47245
60159,47254
60154,47262
60148,47270
60142,47277
60134,47284
60127,47290
60118,47295
60110,47299
60101,47302
60091,47304
60082,47306
60072,47306
59826,47306
59816,47306
59807,47304
59797,47302
59788,47299
59779,47295
59771,47290
59763,47284
59756,47277
59750,47270
59744,47262
59739,47254
59735,47245
59732,47236
59729,47227
59728,47217
59727,47208
59727,46991
59728,46982
59729,46972
59732,46963
59735,46954
59739,46945
59744,46937
59750,46929
59756,46922
59763,46915
59771,46909
59779,46904
59788,46900
59797,46897
59807,46895
59816,46893
59826,46893
60072,46893
60082,46893
" /> 
<polyline style="fill-rule:evenodd;"
points="63417,45179
63427,45181
63436,45183
63445,45186
63454,45190
63462,45195
63470,45201
63477,45207
63484,45215
63490,45222
63495,45231
63499,45239
63502,45248
63504,45258
63506,45267
63506,45277
63506,45523
63506,45533
63504,45542
63502,45552
63499,45561
63495,45570
63490,45578
63484,45586
63477,45593
63470,45599
63462,45605
63454,45610
63445,45614
63436,45617
63427,45620
63417,45621
63408,45622
63191,45622
63182,45621
63172,45620
63163,45617
63154,45614
63145,45610
63137,45605
63129,45599
63122,45593
63115,45586
63109,45578
63104,45570
63100,45561
63097,45552
63095,45542
63093,45533
63093,45523
63093,45277
63093,45267
63095,45258
63097,45248
63100,45239
63104,45231
63109,45222
63115,45215
63122,45207
63129,45201
63137,45195
63145,45190
63154,45186
63163,45183
63172,45181
63182,45179
63191,45179
63408,45179
63417,45179
" /> 
<polyline style="fill-rule:evenodd;"
points="63417,45878
63427,45879
63436,45882
63445,45885
63454,45889
63462,45894
63470,45900
63477,45906
63484,45913
63490,45921
63495,45929
63499,45938
63502,45947
63504,45957
63506,45966
63506,45976
63506,46222
63506,46232
63504,46241
63502,46251
63499,46260
63495,46268
63490,46277
63484,46284
63477,46292
63470,46298
63462,46304
63454,46309
63445,46313
63436,46316
63427,46318
63417,46320
63408,46320
63191,46320
63182,46320
63172,46318
63163,46316
63154,46313
63145,46309
63137,46304
63129,46298
63122,46292
63115,46284
63109,46277
63104,46268
63100,46260
63097,46251
63095,46241
63093,46232
63093,46222
63093,45976
63093,45966
63095,45957
63097,45947
63100,45938
63104,45929
63109,45921
63115,45913
63122,45906
63129,45900
63137,45894
63145,45889
63154,45885
63163,45882
63172,45879
63182,45878
63191,45877
63408,45877
63417,45878
" /> 
<polyline style="fill-rule:evenodd;"
points="52117,44678
52127,44679
52136,44682
52145,44685
52154,44689
52162,44694
52170,44700
52177,44706
52184,44713
52190,44721
52195,44729
52199,44738
52202,44747
52204,44757
52206,44766
52206,44776
52206,45022
52206,45032
52204,45041
52202,45051
52199,45060
52195,45068
52190,45077
52184,45084
52177,45092
52170,45098
52162,45104
52154,45109
52145,45113
52136,45116
52127,45118
52117,45120
52108,45120
51891,45120
51882,45120
51872,45118
51863,45116
51854,45113
51845,45109
51837,45104
51829,45098
51822,45092
51815,45084
51809,45077
51804,45068
51800,45060
51797,45051
51795,45041
51793,45032
51793,45022
51793,44776
51793,44766
51795,44757
51797,44747
51800,44738
51804,44729
51809,44721
51815,44713
51822,44706
51829,44700
51837,44694
51845,44689
51854,44685
51863,44682
51872,44679
51882,44678
51891,44677
52108,44677
52117,44678
" /> 
<polyline style="fill-rule:evenodd;"
points="52117,43979
52127,43981
52136,43983
52145,43986
52154,43990
52162,43995
52170,44001
52177,44007
52184,44015
52190,44022
52195,44031
52199,44039
52202,44048
52204,44058
52206,44067
52206,44077
52206,44323
52206,44333
52204,44342
52202,44352
52199,44361
52195,44370
52190,44378
52184,44386
52177,44393
52170,44399
52162,44405
52154,44410
52145,44414
52136,44417
52127,44420
52117,44421
52108,44422
51891,44422
51882,44421
51872,44420
51863,44417
51854,44414
51845,44410
51837,44405
51829,44399
51822,44393
51815,44386
51809,44378
51804,44370
51800,44361
51797,44352
51795,44342
51793,44333
51793,44323
51793,44077
51793,44067
51795,44058
51797,44048
51800,44039
51804,44031
51809,44022
51815,44015
51822,44007
51829,44001
51837,43995
51845,43990
51854,43986
51863,43983
51872,43981
51882,43979
51891,43979
52108,43979
52117,43979
" /> 
<polyline style="fill-rule:evenodd;"
points="50417,43979
50427,43981
50436,43983
50445,43986
50454,43990
50462,43995
50470,44001
50477,44007
50484,44015
50490,44022
50495,44031
50499,44039
50502,44048
50504,44058
50506,44067
50506,44077
50506,44323
50506,44333
50504,44342
50502,44352
50499,44361
50495,44370
50490,44378
50484,44386
50477,44393
50470,44399
50462,44405
50454,44410
50445,44414
50436,44417
50427,44420
50417,44421
50408,44422
50191,44422
50182,44421
50172,44420
50163,44417
50154,44414
50145,44410
50137,44405
50129,44399
50122,44393
50115,44386
50109,44378
50104,44370
50100,44361
50097,44352
50095,44342
50093,44333
50093,44323
50093,44077
50093,44067
50095,44058
50097,44048
50100,44039
50104,44031
50109,44022
50115,44015
50122,44007
50129,44001
50137,43995
50145,43990
50154,43986
50163,43983
50172,43981
50182,43979
50191,43979
50408,43979
50417,43979
" /> 
<polyline style="fill-rule:evenodd;"
points="50417,44678
50427,44679
50436,44682
50445,44685
50454,44689
50462,44694
50470,44700
50477,44706
50484,44713
50490,44721
50495,44729
50499,44738
50502,44747
50504,44757
50506,44766
50506,44776
50506,45022
50506,45032
50504,45041
50502,45051
50499,45060
50495,45068
50490,45077
50484,45084
50477,45092
50470,45098
50462,45104
50454,45109
50445,45113
50436,45116
50427,45118
50417,45120
50408,45120
50191,45120
50182,45120
50172,45118
50163,45116
50154,45113
50145,45109
50137,45104
50129,45098
50122,45092
50115,45084
50109,45077
50104,45068
50100,45060
50097,45051
50095,45041
50093,45032
50093,45022
50093,44776
50093,44766
50095,44757
50097,44747
50100,44738
50104,44729
50109,44721
50115,44713
50122,44706
50129,44700
50137,44694
50145,44689
50154,44685
50163,44682
50172,44679
50182,44678
50191,44677
50408,44677
50417,44678
" /> 
<polyline style="fill-rule:evenodd;"
points="49567,44678
49577,44679
49586,44682
49595,44685
49604,44689
49612,44694
49620,44700
49627,44706
49634,44713
49640,44721
49645,44729
49649,44738
49652,44747
49654,44757
49656,44766
49656,44776
49656,45022
49656,45032
49654,45041
49652,45051
49649,45060
49645,45068
49640,45077
49634,45084
49627,45092
49620,45098
49612,45104
49604,45109
49595,45113
49586,45116
49577,45118
49567,45120
49558,45120
49341,45120
49332,45120
49322,45118
49313,45116
49304,45113
49295,45109
49287,45104
49279,45098
49272,45092
49265,45084
49259,45077
49254,45068
49250,45060
49247,45051
49245,45041
49243,45032
49243,45022
49243,44776
49243,44766
49245,44757
49247,44747
49250,44738
49254,44729
49259,44721
49265,44713
49272,44706
49279,44700
49287,44694
49295,44689
49304,44685
49313,44682
49322,44679
49332,44678
49341,44677
49558,44677
49567,44678
" /> 
<polyline style="fill-rule:evenodd;"
points="49567,43979
49577,43981
49586,43983
49595,43986
49604,43990
49612,43995
49620,44001
49627,44007
49634,44015
49640,44022
49645,44031
49649,44039
49652,44048
49654,44058
49656,44067
49656,44077
49656,44323
49656,44333
49654,44342
49652,44352
49649,44361
49645,44370
49640,44378
49634,44386
49627,44393
49620,44399
49612,44405
49604,44410
49595,44414
49586,44417
49577,44420
49567,44421
49558,44422
49341,44422
49332,44421
49322,44420
49313,44417
49304,44414
49295,44410
49287,44405
49279,44399
49272,44393
49265,44386
49259,44378
49254,44370
49250,44361
49247,44352
49245,44342
49243,44333
49243,44323
49243,44077
49243,44067
49245,44058
49247,44048
49250,44039
49254,44031
49259,44022
49265,44015
49272,44007
49279,44001
49287,43995
49295,43990
49304,43986
49313,43983
49322,43981
49332,43979
49341,43979
49558,43979
49567,43979
" /> 
<polyline style="fill-rule:evenodd;"
points="48017,38879
48027,38881
48036,38883
48045,38886
48054,38890
48062,38895
48070,38901
48077,38907
48084,38915
48090,38922
48095,38931
48099,38939
48102,38948
48104,38958
48106,38967
48106,38977
48106,39223
48106,39233
48104,39242
48102,39252
48099,39261
48095,39270
48090,39278
48084,39286
48077,39293
48070,39299
48062,39305
48054,39310
48045,39314
48036,39317
48027,39320
48017,39321
48008,39322
47791,39322
47782,39321
47772,39320
47763,39317
47754,39314
47745,39310
47737,39305
47729,39299
47722,39293
47715,39286
47709,39278
47704,39270
47700,39261
47697,39252
47695,39242
47693,39233
47693,39223
47693,38977
47693,38967
47695,38958
47697,38948
47700,38939
47704,38931
47709,38922
47715,38915
47722,38907
47729,38901
47737,38895
47745,38890
47754,38886
47763,38883
47772,38881
47782,38879
47791,38879
48008,38879
48017,38879
" /> 
<polyline style="fill-rule:evenodd;"
points="48017,39578
48027,39579
48036,39582
48045,39585
48054,39589
48062,39594
48070,39600
48077,39606
48084,39613
48090,39621
48095,39629
48099,39638
48102,39647
48104,39657
48106,39666
48106,39676
48106,39922
48106,39932
48104,39941
48102,39951
48099,39960
48095,39968
48090,39977
48084,39984
48077,39992
48070,39998
48062,40004
48054,40009
48045,40013
48036,40016
48027,40018
48017,40020
48008,40020
47791,40020
47782,40020
47772,40018
47763,40016
47754,40013
47745,40009
47737,40004
47729,39998
47722,39992
47715,39984
47709,39977
47704,39968
47700,39960
47697,39951
47695,39941
47693,39932
47693,39922
47693,39676
47693,39666
47695,39657
47697,39647
47700,39638
47704,39629
47709,39621
47715,39613
47722,39606
47729,39600
47737,39594
47745,39589
47754,39585
47763,39582
47772,39579
47782,39578
47791,39577
48008,39577
48017,39578
" /> 
<polyline style="fill-rule:evenodd;"
points="49317,40829
49327,40831
49336,40833
49345,40836
49354,40840
49362,40845
49370,40851
49377,40857
49384,40865
49390,40872
49395,40881
49399,40889
49402,40898
49404,40908
49406,40917
49406,40927
49406,41173
49406,41183
49404,41192
49402,41202
49399,41211
49395,41220
49390,41228
49384,41236
49377,41243
49370,41249
49362,41255
49354,41260
49345,41264
49336,41267
49327,41270
49317,41271
49308,41272
49091,41272
49082,41271
49072,41270
49063,41267
49054,41264
49045,41260
49037,41255
49029,41249
49022,41243
49015,41236
49009,41228
49004,41220
49000,41211
48997,41202
48995,41192
48993,41183
48993,41173
48993,40927
48993,40917
48995,40908
48997,40898
49000,40889
49004,40881
49009,40872
49015,40865
49022,40857
49029,40851
49037,40845
49045,40840
49054,40836
49063,40833
49072,40831
49082,40829
49091,40829
49308,40829
49317,40829
" /> 
<polyline style="fill-rule:evenodd;"
points="49317,41528
49327,41529
49336,41532
49345,41535
49354,41539
49362,41544
49370,41550
49377,41556
49384,41563
49390,41571
49395,41579
49399,41588
49402,41597
49404,41607
49406,41616
49406,41626
49406,41872
49406,41882
49404,41891
49402,41901
49399,41910
49395,41918
49390,41927
49384,41934
49377,41942
49370,41948
49362,41954
49354,41959
49345,41963
49336,41966
49327,41968
49317,41970
49308,41970
49091,41970
49082,41970
49072,41968
49063,41966
49054,41963
49045,41959
49037,41954
49029,41948
49022,41942
49015,41934
49009,41927
49004,41918
49000,41910
48997,41901
48995,41891
48993,41882
48993,41872
48993,41626
48993,41616
48995,41607
48997,41597
49000,41588
49004,41579
49009,41571
49015,41563
49022,41556
49029,41550
49037,41544
49045,41539
49054,41535
49063,41532
49072,41529
49082,41528
49091,41527
49308,41527
49317,41528
" /> 
<polyline style="fill-rule:evenodd;"
points="55816,40509
55423,40509
55423,39919
55816,39919
55816,40509
" /> 
<polyline style="fill-rule:evenodd;"
points="57076,40509
56683,40509
56683,39919
57076,39919
57076,40509
" /> 
<polyline style="fill-rule:evenodd;"
points="55816,38580
55423,38580
55423,37990
55816,37990
55816,38580
" /> 
<polyline style="fill-rule:evenodd;"
points="57076,38580
56683,38580
56683,37990
57076,37990
57076,38580
" /> 
<polyline style="fill-rule:evenodd;"
points="55816,43459
55423,43459
55423,42869
55816,42869
55816,43459
" /> 
<polyline style="fill-rule:evenodd;"
points="57076,43459
56683,43459
56683,42869
57076,42869
57076,43459
" /> 
<polyline style="fill-rule:evenodd;"
points="55816,41530
55423,41530
55423,40940
55816,40940
55816,41530
" /> 
<polyline style="fill-rule:evenodd;"
points="57076,41530
56683,41530
56683,40940
57076,40940
57076,41530
" /> 
<polyline style="fill-rule:evenodd;"
points="55816,46459
55423,46459
55423,45869
55816,45869
55816,46459
" /> 
<polyline style="fill-rule:evenodd;"
points="57076,46459
56683,46459
56683,45869
57076,45869
57076,46459
" /> 
<polyline style="fill-rule:evenodd;"
points="55816,44530
55423,44530
55423,43940
55816,43940
55816,44530
" /> 
<polyline style="fill-rule:evenodd;"
points="57076,44530
56683,44530
56683,43940
57076,43940
57076,44530
" /> 
<polyline style="fill-rule:evenodd;"
points="55955,49455
55965,49457
55974,49459
55983,49462
55992,49466
56000,49471
56008,49477
56015,49483
56022,49491
56027,49498
56032,49507
56036,49515
56040,49524
56042,49534
56044,49543
56044,49553
56044,49848
56044,49858
56042,49868
56040,49877
56036,49886
56032,49895
56027,49903
56022,49911
56015,49918
56008,49924
56000,49930
55992,49935
55983,49939
55974,49943
55965,49945
55955,49946
55946,49947
55453,49947
55444,49946
55434,49945
55425,49943
55416,49939
55407,49935
55399,49930
55391,49924
55384,49918
55377,49911
55372,49903
55367,49895
55363,49886
55359,49877
55357,49868
55355,49858
55355,49848
55355,49553
55355,49543
55357,49534
55359,49524
55363,49515
55367,49507
55372,49498
55377,49491
55384,49483
55391,49477
55399,49471
55407,49466
55416,49462
55425,49459
55434,49457
55444,49455
55453,49455
55946,49455
55955,49455
" /> 
<polyline style="fill-rule:evenodd;"
points="55955,48353
55965,48354
55974,48356
55983,48360
55992,48364
56000,48369
56008,48375
56015,48381
56022,48388
56027,48396
56032,48404
56036,48413
56040,48422
56042,48431
56044,48441
56044,48451
56044,48746
56044,48756
56042,48765
56040,48775
56036,48784
56032,48792
56027,48801
56022,48808
56015,48816
56008,48822
56000,48828
55992,48833
55983,48837
55974,48840
55965,48842
55955,48844
55946,48844
55453,48844
55444,48844
55434,48842
55425,48840
55416,48837
55407,48833
55399,48828
55391,48822
55384,48816
55377,48808
55372,48801
55367,48792
55363,48784
55359,48775
55357,48765
55355,48756
55355,48746
55355,48451
55355,48441
55357,48431
55359,48422
55363,48413
55367,48404
55372,48396
55377,48388
55384,48381
55391,48375
55399,48369
55407,48364
55416,48360
55425,48356
55434,48354
55444,48353
55453,48352
55946,48352
55955,48353
" /> 
<polyline style="fill-rule:evenodd;"
points="57049,52837
56486,52837
56486,51853
57049,51853
57049,52837
" /> 
<polyline style="fill-rule:evenodd;"
points="56293,52837
55730,52837
55730,51853
56293,51853
56293,52837
" /> 
</g>
<g style="fill:#000000; fill-opacity:1.0; 
stroke:#000000; stroke-width:531.496; stroke-opacity:1; 
stroke-linecap:round; stroke-linejoin:round;">
</g>
<g style="fill:#000000; fill-opacity:0.0; 
stroke:#000000; stroke-width:531.496; stroke-opacity:1; 
stroke-linecap:round; stroke-linejoin:round;">
<path d="M57464 52307
L57464 52170
" />
<path d="M55315 52307
L55315 52170
" />
</g>
<g style="fill:#000000; fill-opacity:0.0; 
stroke:#000000; stroke-width:433.071; stroke-opacity:1; 
stroke-linecap:round; stroke-linejoin:round;">
<path d="M57342 51136
L57342 50979
" />
<path d="M55437 51136
L55437 50979
" />
</g>
<g style="fill:#000000; fill-opacity:0.0; 
stroke:#000000; stroke-width:0; stroke-opacity:1; 
stroke-linecap:round; stroke-linejoin:round;">
</g>
<g style="fill:#000000; fill-opacity:1.0; 
stroke:#000000; stroke-width:0; stroke-opacity:1; 
stroke-linecap:round; stroke-linejoin:round;">
<polyline style="fill-rule:evenodd;"
points="56980,51429
56823,51429
56823,50780
56980,50780
56980,51429
" /> 
<polyline style="fill-rule:evenodd;"
points="56724,51429
56567,51429
56567,50780
56724,50780
56724,51429
" /> 
<polyline style="fill-rule:evenodd;"
points="56468,51429
56311,51429
56311,50780
56468,50780
56468,51429
" /> 
<polyline style="fill-rule:evenodd;"
points="56212,51429
56055,51429
56055,50780
56212,50780
56212,51429
" /> 
<polyline style="fill-rule:evenodd;"
points="55957,51429
55799,51429
55799,50780
55957,50780
55957,51429
" /> 
<polyline style="fill-rule:evenodd;"
points="57138,51353
57138,50762
57925,50762
57925,51353
57138,51353
" /> 
<polyline style="fill-rule:evenodd;"
points="54874,51361
54874,50770
55661,50770
55661,51361
54874,51361
" /> 
<polyline style="fill-rule:evenodd;"
points="57212,51715
57212,51439
57930,51439
57930,51715
57212,51715
" /> 
<polyline style="fill-rule:evenodd;"
points="54869,51715
54869,51439
55587,51439
55587,51715
54869,51715
" /> 
<polyline style="fill-rule:evenodd;"
points="55049,52266
55049,51479
55581,51479
55581,52266
55049,52266
" /> 
<polyline style="fill-rule:evenodd;"
points="57207,52266
57207,51479
57738,51479
57738,52266
57207,52266
" /> 
</g>
<g style="fill:#000000; fill-opacity:1.0; 
stroke:#000000; stroke-width:669.291; stroke-opacity:1; 
stroke-linecap:round; stroke-linejoin:round;">
</g>
<g style="fill:#000000; fill-opacity:0.0; 
stroke:#000000; stroke-width:669.291; stroke-opacity:1; 
stroke-linecap:round; stroke-linejoin:round;">
<path d="M62350 39300
L62350 39300
" />
<path d="M62350 40300
L62350 40300
" />
<path d="M61350 39300
L61350 39300
" />
<path d="M61350 40300
L61350 40300
" />
<path d="M60350 39300
L60350 39300
" />
<path d="M60350 40300
L60350 40300
" />
<path d="M59350 39300
L59350 39300
" />
<path d="M59350 40300
L59350 40300
" />
<path d="M58350 39300
L58350 39300
" />
</g>
<g style="fill:#000000; fill-opacity:0.0; 
stroke:#000000; stroke-width:0; stroke-opacity:1; 
stroke-linecap:round; stroke-linejoin:round;">
</g>
<g style="fill:#000000; fill-opacity:1.0; 
stroke:#000000; stroke-width:0; stroke-opacity:1; 
stroke-linecap:round; stroke-linejoin:round;">
<polyline style="fill-rule:evenodd;"
points="58684,40634
58015,40634
58015,39965
58684,39965
58684,40634
" /> 
<polyline style="fill-rule:evenodd;"
points="53677,46375
53422,46375
53422,45958
53677,45958
53677,46375
" /> 
<polyline style="fill-rule:evenodd;"
points="53303,46375
53048,46375
53048,45958
53303,45958
53303,46375
" /> 
<polyline style="fill-rule:evenodd;"
points="54051,46375
53796,46375
53796,45958
54051,45958
54051,46375
" /> 
<polyline style="fill-rule:evenodd;"
points="54051,47241
53796,47241
53796,46824
54051,46824
54051,47241
" /> 
<polyline style="fill-rule:evenodd;"
points="53677,47241
53422,47241
53422,46824
53677,46824
53677,47241
" /> 
<polyline style="fill-rule:evenodd;"
points="53303,47241
53048,47241
53048,46824
53303,46824
53303,47241
" /> 
<polyline style="fill-rule:evenodd;"
points="50677,46375
50422,46375
50422,45958
50677,45958
50677,46375
" /> 
<polyline style="fill-rule:evenodd;"
points="50303,46375
50048,46375
50048,45958
50303,45958
50303,46375
" /> 
<polyline style="fill-rule:evenodd;"
points="51051,46375
50796,46375
50796,45958
51051,45958
51051,46375
" /> 
<polyline style="fill-rule:evenodd;"
points="51051,47241
50796,47241
50796,46824
51051,46824
51051,47241
" /> 
<polyline style="fill-rule:evenodd;"
points="50677,47241
50422,47241
50422,46824
50677,46824
50677,47241
" /> 
<polyline style="fill-rule:evenodd;"
points="50303,47241
50048,47241
50048,46824
50303,46824
50303,47241
" /> 
<polyline style="fill-rule:evenodd;"
points="57859,46318
57867,46319
57875,46321
57883,46324
57891,46327
57898,46332
57905,46337
57911,46342
57917,46349
57922,46355
57926,46363
57930,46370
57933,46378
57935,46387
57936,46395
57937,46403
57937,46576
57936,46584
57935,46592
57933,46601
57930,46609
57926,46616
57922,46623
57917,46630
57911,46636
57905,46642
57898,46647
57891,46652
57883,46655
57875,46658
57867,46660
57859,46661
57850,46662
57649,46662
57640,46661
57632,46660
57624,46658
57616,46655
57608,46652
57601,46647
57594,46642
57588,46636
57582,46630
57577,46623
57573,46616
57569,46609
57566,46601
57564,46592
57563,46584
57562,46576
57562,46403
57563,46395
57564,46387
57566,46378
57569,46370
57573,46363
57577,46355
57582,46349
57588,46342
57594,46337
57601,46332
57608,46327
57616,46324
57624,46321
57632,46319
57640,46318
57649,46317
57850,46317
57859,46318
" /> 
<polyline style="fill-rule:evenodd;"
points="57859,46938
57867,46939
57875,46941
57883,46944
57891,46947
57898,46952
57905,46957
57911,46963
57917,46969
57922,46976
57926,46983
57930,46990
57933,46998
57935,47007
57936,47015
57937,47023
57937,47196
57936,47204
57935,47212
57933,47221
57930,47229
57926,47236
57922,47244
57917,47250
57911,47257
57905,47262
57898,47267
57891,47272
57883,47275
57875,47278
57867,47280
57859,47281
57850,47282
57649,47282
57640,47281
57632,47280
57624,47278
57616,47275
57608,47272
57601,47267
57594,47262
57588,47257
57582,47250
57577,47244
57573,47236
57569,47229
57566,47221
57564,47212
57563,47204
57562,47196
57562,47023
57563,47015
57564,47007
57566,46998
57569,46990
57573,46983
57577,46976
57582,46969
57588,46963
57594,46957
57601,46952
57608,46947
57616,46944
57624,46941
57632,46939
57640,46938
57649,46937
57850,46937
57859,46938
" /> 
<polyline style="fill-rule:evenodd;"
points="57259,49588
57267,49589
57275,49591
57283,49594
57291,49597
57298,49602
57305,49607
57311,49613
57317,49619
57322,49626
57326,49633
57330,49640
57333,49648
57335,49657
57336,49665
57337,49673
57337,49846
57336,49854
57335,49862
57333,49871
57330,49879
57326,49886
57322,49894
57317,49900
57311,49907
57305,49912
57298,49917
57291,49922
57283,49925
57275,49928
57267,49930
57259,49931
57250,49932
57049,49932
57040,49931
57032,49930
57024,49928
57016,49925
57008,49922
57001,49917
56994,49912
56988,49907
56982,49900
56977,49894
56973,49886
56969,49879
56966,49871
56964,49862
56963,49854
56962,49846
56962,49673
56963,49665
56964,49657
56966,49648
56969,49640
56973,49633
56977,49626
56982,49619
56988,49613
56994,49607
57001,49602
57008,49597
57016,49594
57024,49591
57032,49589
57040,49588
57049,49587
57250,49587
57259,49588
" /> 
<polyline style="fill-rule:evenodd;"
points="57259,48968
57267,48969
57275,48971
57283,48974
57291,48977
57298,48982
57305,48987
57311,48992
57317,48999
57322,49005
57326,49013
57330,49020
57333,49028
57335,49037
57336,49045
57337,49053
57337,49226
57336,49234
57335,49242
57333,49251
57330,49259
57326,49266
57322,49273
57317,49280
57311,49286
57305,49292
57298,49297
57291,49302
57283,49305
57275,49308
57267,49310
57259,49311
57250,49312
57049,49312
57040,49311
57032,49310
57024,49308
57016,49305
57008,49302
57001,49297
56994,49292
56988,49286
56982,49280
56977,49273
56973,49266
56969,49259
56966,49251
56964,49242
56963,49234
56962,49226
56962,49053
56963,49045
56964,49037
56966,49028
56969,49020
56973,49013
56977,49005
56982,48999
56988,48992
56994,48987
57001,48982
57008,48977
57016,48974
57024,48971
57032,48969
57040,48968
57049,48967
57250,48967
57259,48968
" /> 
<polyline style="fill-rule:evenodd;"
points="56609,49588
56617,49589
56625,49591
56633,49594
56641,49597
56648,49602
56655,49607
56661,49613
56667,49619
56672,49626
56676,49633
56680,49640
56683,49648
56685,49657
56686,49665
56687,49673
56687,49846
56686,49854
56685,49862
56683,49871
56680,49879
56676,49886
56672,49894
56667,49900
56661,49907
56655,49912
56648,49917
56641,49922
56633,49925
56625,49928
56617,49930
56609,49931
56600,49932
56399,49932
56390,49931
56382,49930
56374,49928
56366,49925
56358,49922
56351,49917
56344,49912
56338,49907
56332,49900
56327,49894
56323,49886
56319,49879
56316,49871
56314,49862
56313,49854
56312,49846
56312,49673
56313,49665
56314,49657
56316,49648
56319,49640
56323,49633
56327,49626
56332,49619
56338,49613
56344,49607
56351,49602
56358,49597
56366,49594
56374,49591
56382,49589
56390,49588
56399,49587
56600,49587
56609,49588
" /> 
<polyline style="fill-rule:evenodd;"
points="56609,48968
56617,48969
56625,48971
56633,48974
56641,48977
56648,48982
56655,48987
56661,48992
56667,48999
56672,49005
56676,49013
56680,49020
56683,49028
56685,49037
56686,49045
56687,49053
56687,49226
56686,49234
56685,49242
56683,49251
56680,49259
56676,49266
56672,49273
56667,49280
56661,49286
56655,49292
56648,49297
56641,49302
56633,49305
56625,49308
56617,49310
56609,49311
56600,49312
56399,49312
56390,49311
56382,49310
56374,49308
56366,49305
56358,49302
56351,49297
56344,49292
56338,49286
56332,49280
56327,49273
56323,49266
56319,49259
56316,49251
56314,49242
56313,49234
56312,49226
56312,49053
56313,49045
56314,49037
56316,49028
56319,49020
56323,49013
56327,49005
56332,48999
56338,48992
56344,48987
56351,48982
56358,48977
56366,48974
56374,48971
56382,48969
56390,48968
56399,48967
56600,48967
56609,48968
" /> 
<polyline style="fill-rule:evenodd;"
points="49509,46268
49517,46269
49525,46271
49533,46274
49541,46277
49548,46282
49555,46287
49561,46292
49567,46299
49572,46305
49576,46313
49580,46320
49583,46328
49585,46337
49586,46345
49587,46353
49587,46526
49586,46534
49585,46542
49583,46551
49580,46559
49576,46566
49572,46573
49567,46580
49561,46586
49555,46592
49548,46597
49541,46602
49533,46605
49525,46608
49517,46610
49509,46611
49500,46612
49299,46612
49290,46611
49282,46610
49274,46608
49266,46605
49258,46602
49251,46597
49244,46592
49238,46586
49232,46580
49227,46573
49223,46566
49219,46559
49216,46551
49214,46542
49213,46534
49212,46526
49212,46353
49213,46345
49214,46337
49216,46328
49219,46320
49223,46313
49227,46305
49232,46299
49238,46292
49244,46287
49251,46282
49258,46277
49266,46274
49274,46271
49282,46269
49290,46268
49299,46267
49500,46267
49509,46268
" /> 
<polyline style="fill-rule:evenodd;"
points="49509,46888
49517,46889
49525,46891
49533,46894
49541,46897
49548,46902
49555,46907
49561,46913
49567,46919
49572,46926
49576,46933
49580,46940
49583,46948
49585,46957
49586,46965
49587,46973
49587,47146
49586,47154
49585,47162
49583,47171
49580,47179
49576,47186
49572,47194
49567,47200
49561,47207
49555,47212
49548,47217
49541,47222
49533,47225
49525,47228
49517,47230
49509,47231
49500,47232
49299,47232
49290,47231
49282,47230
49274,47228
49266,47225
49258,47222
49251,47217
49244,47212
49238,47207
49232,47200
49227,47194
49223,47186
49219,47179
49216,47171
49214,47162
49213,47154
49212,47146
49212,46973
49213,46965
49214,46957
49216,46948
49219,46940
49223,46933
49227,46926
49232,46919
49238,46913
49244,46907
49251,46902
49258,46897
49266,46894
49274,46891
49282,46889
49290,46888
49299,46887
49500,46887
49509,46888
" /> 
<polyline style="fill-rule:evenodd;"
points="54959,46968
54967,46969
54975,46971
54983,46974
54991,46977
54998,46982
55005,46987
55011,46992
55017,46999
55022,47005
55026,47013
55030,47020
55033,47028
55035,47037
55036,47045
55037,47053
55037,47226
55036,47234
55035,47242
55033,47251
55030,47259
55026,47266
55022,47273
55017,47280
55011,47286
55005,47292
54998,47297
54991,47302
54983,47305
54975,47308
54967,47310
54959,47311
54950,47312
54749,47312
54740,47311
54732,47310
54724,47308
54716,47305
54708,47302
54701,47297
54694,47292
54688,47286
54682,47280
54677,47273
54673,47266
54669,47259
54666,47251
54664,47242
54663,47234
54662,47226
54662,47053
54663,47045
54664,47037
54666,47028
54669,47020
54673,47013
54677,47005
54682,46999
54688,46992
54694,46987
54701,46982
54708,46977
54716,46974
54724,46971
54732,46969
54740,46968
54749,46967
54950,46967
54959,46968
" /> 
<polyline style="fill-rule:evenodd;"
points="54959,47588
54967,47589
54975,47591
54983,47594
54991,47597
54998,47602
55005,47607
55011,47613
55017,47619
55022,47626
55026,47633
55030,47640
55033,47648
55035,47657
55036,47665
55037,47673
55037,47846
55036,47854
55035,47862
55033,47871
55030,47879
55026,47886
55022,47894
55017,47900
55011,47907
55005,47912
54998,47917
54991,47922
54983,47925
54975,47928
54967,47930
54959,47931
54950,47932
54749,47932
54740,47931
54732,47930
54724,47928
54716,47925
54708,47922
54701,47917
54694,47912
54688,47907
54682,47900
54677,47894
54673,47886
54669,47879
54666,47871
54664,47862
54663,47854
54662,47846
54662,47673
54663,47665
54664,47657
54666,47648
54669,47640
54673,47633
54677,47626
54682,47619
54688,47613
54694,47607
54701,47602
54708,47597
54716,47594
54724,47591
54732,47589
54740,47588
54749,47587
54950,47587
54959,47588
" /> 
<polyline style="fill-rule:evenodd;"
points="57009,47577
57017,47579
57025,47581
57033,47584
57041,47587
57048,47592
57055,47597
57061,47602
57067,47609
57072,47615
57076,47623
57080,47630
57083,47638
57085,47646
57086,47655
57087,47663
57087,47835
57086,47844
57085,47852
57083,47860
57080,47868
57076,47876
57072,47883
57067,47890
57061,47896
57055,47902
57048,47907
57041,47911
57033,47915
57025,47918
57017,47920
57009,47921
57000,47922
56799,47922
56790,47921
56782,47920
56774,47918
56766,47915
56758,47911
56751,47907
56744,47902
56738,47896
56732,47890
56727,47883
56723,47876
56719,47868
56716,47860
56714,47852
56713,47844
56712,47835
56712,47663
56713,47655
56714,47646
56716,47638
56719,47630
56723,47623
56727,47615
56732,47609
56738,47602
56744,47597
56751,47592
56758,47587
56766,47584
56774,47581
56782,47579
56790,47577
56799,47577
57000,47577
57009,47577
" /> 
<polyline style="fill-rule:evenodd;"
points="57009,48198
57017,48199
57025,48201
57033,48204
57041,48207
57048,48212
57055,48217
57061,48222
57067,48229
57072,48235
57076,48243
57080,48250
57083,48258
57085,48266
57086,48275
57087,48283
57087,48456
57086,48464
57085,48472
57083,48481
57080,48488
57076,48496
57072,48503
57067,48510
57061,48516
57055,48522
57048,48527
57041,48531
57033,48535
57025,48538
57017,48540
57009,48541
57000,48542
56799,48542
56790,48541
56782,48540
56774,48538
56766,48535
56758,48531
56751,48527
56744,48522
56738,48516
56732,48510
56727,48503
56723,48496
56719,48488
56716,48481
56714,48472
56713,48464
56712,48456
56712,48283
56713,48275
56714,48266
56716,48258
56719,48250
56723,48243
56727,48235
56732,48229
56738,48222
56744,48217
56751,48212
56758,48207
56766,48204
56774,48201
56782,48199
56790,48198
56799,48197
57000,48197
57009,48198
" /> 
<polyline style="fill-rule:evenodd;"
points="53510,47866
54100,47866
54100,48653
53510,48653
53510,47866
" /> 
<polyline style="fill-rule:evenodd;"
points="51699,47866
52289,47866
52289,48653
51699,48653
51699,47866
" /> 
<polyline style="fill-rule:evenodd;"
points="52604,47866
53195,47866
53195,48653
52604,48653
52604,47866
" /> 
<polyline style="fill-rule:evenodd;"
points="52151,50346
53648,50346
53648,51133
52151,51133
52151,50346
" /> 
<polyline style="fill-rule:evenodd;"
points="51803,46375
51548,46375
51548,45958
51803,45958
51803,46375
" /> 
<polyline style="fill-rule:evenodd;"
points="52551,46375
52296,46375
52296,45958
52551,45958
52551,46375
" /> 
<polyline style="fill-rule:evenodd;"
points="52551,47241
52296,47241
52296,46824
52551,46824
52551,47241
" /> 
<polyline style="fill-rule:evenodd;"
points="52177,47241
51922,47241
51922,46824
52177,46824
52177,47241
" /> 
<polyline style="fill-rule:evenodd;"
points="51803,47241
51548,47241
51548,46824
51803,46824
51803,47241
" /> 
<polyline style="fill-rule:evenodd;"
points="58783,42151
58566,42151
58566,41560
58783,41560
58783,42151
" /> 
<polyline style="fill-rule:evenodd;"
points="59098,42151
58881,42151
58881,41560
59098,41560
59098,42151
" /> 
<polyline style="fill-rule:evenodd;"
points="59413,42151
59196,42151
59196,41560
59413,41560
59413,42151
" /> 
<polyline style="fill-rule:evenodd;"
points="59728,42151
59511,42151
59511,41560
59728,41560
59728,42151
" /> 
<polyline style="fill-rule:evenodd;"
points="60043,42151
59826,42151
59826,41560
60043,41560
60043,42151
" /> 
<polyline style="fill-rule:evenodd;"
points="60358,42151
60141,42151
60141,41560
60358,41560
60358,42151
" /> 
<polyline style="fill-rule:evenodd;"
points="60673,42151
60456,42151
60456,41560
60673,41560
60673,42151
" /> 
<polyline style="fill-rule:evenodd;"
points="60988,42151
60771,42151
60771,41560
60988,41560
60988,42151
" /> 
<polyline style="fill-rule:evenodd;"
points="61303,42151
61086,42151
61086,41560
61303,41560
61303,42151
" /> 
<polyline style="fill-rule:evenodd;"
points="61618,42151
61401,42151
61401,41560
61618,41560
61618,42151
" /> 
<polyline style="fill-rule:evenodd;"
points="61933,42151
61716,42151
61716,41560
61933,41560
61933,42151
" /> 
<polyline style="fill-rule:evenodd;"
points="62198,42633
62198,42416
62789,42416
62789,42633
62198,42633
" /> 
<polyline style="fill-rule:evenodd;"
points="62198,42948
62198,42731
62789,42731
62789,42948
62198,42948
" /> 
<polyline style="fill-rule:evenodd;"
points="62198,43263
62198,43046
62789,43046
62789,43263
62198,43263
" /> 
<polyline style="fill-rule:evenodd;"
points="62198,43578
62198,43361
62789,43361
62789,43578
62198,43578
" /> 
<polyline style="fill-rule:evenodd;"
points="62198,43893
62198,43676
62789,43676
62789,43893
62198,43893
" /> 
<polyline style="fill-rule:evenodd;"
points="62198,44208
62198,43991
62789,43991
62789,44208
62198,44208
" /> 
<polyline style="fill-rule:evenodd;"
points="62198,44523
62198,44306
62789,44306
62789,44523
62198,44523
" /> 
<polyline style="fill-rule:evenodd;"
points="62198,44838
62198,44621
62789,44621
62789,44838
62198,44838
" /> 
<polyline style="fill-rule:evenodd;"
points="62198,45153
62198,44936
62789,44936
62789,45153
62198,45153
" /> 
<polyline style="fill-rule:evenodd;"
points="62198,45468
62198,45251
62789,45251
62789,45468
62198,45468
" /> 
<polyline style="fill-rule:evenodd;"
points="62198,45783
62198,45566
62789,45566
62789,45783
62198,45783
" /> 
<polyline style="fill-rule:evenodd;"
points="61933,46639
61716,46639
61716,46048
61933,46048
61933,46639
" /> 
<polyline style="fill-rule:evenodd;"
points="61618,46639
61401,46639
61401,46048
61618,46048
61618,46639
" /> 
<polyline style="fill-rule:evenodd;"
points="61303,46639
61086,46639
61086,46048
61303,46048
61303,46639
" /> 
<polyline style="fill-rule:evenodd;"
points="60988,46639
60771,46639
60771,46048
60988,46048
60988,46639
" /> 
<polyline style="fill-rule:evenodd;"
points="60673,46639
60456,46639
60456,46048
60673,46048
60673,46639
" /> 
<polyline style="fill-rule:evenodd;"
points="60358,46639
60141,46639
60141,46048
60358,46048
60358,46639
" /> 
<polyline style="fill-rule:evenodd;"
points="60043,46639
59826,46639
59826,46048
60043,46048
60043,46639
" /> 
<polyline style="fill-rule:evenodd;"
points="59728,46639
59511,46639
59511,46048
59728,46048
59728,46639
" /> 
<polyline style="fill-rule:evenodd;"
points="59413,46639
59196,46639
59196,46048
59413,46048
59413,46639
" /> 
<polyline style="fill-rule:evenodd;"
points="59098,46639
58881,46639
58881,46048
59098,46048
59098,46639
" /> 
<polyline style="fill-rule:evenodd;"
points="58783,46639
58566,46639
58566,46048
58783,46048
58783,46639
" /> 
<polyline style="fill-rule:evenodd;"
points="57710,45783
57710,45566
58301,45566
58301,45783
57710,45783
" /> 
<polyline style="fill-rule:evenodd;"
points="57710,45468
57710,45251
58301,45251
58301,45468
57710,45468
" /> 
<polyline style="fill-rule:evenodd;"
points="57710,45153
57710,44936
58301,44936
58301,45153
57710,45153
" /> 
<polyline style="fill-rule:evenodd;"
points="57710,44838
57710,44621
58301,44621
58301,44838
57710,44838
" /> 
<polyline style="fill-rule:evenodd;"
points="57710,44523
57710,44306
58301,44306
58301,44523
57710,44523
" /> 
<polyline style="fill-rule:evenodd;"
points="57710,44208
57710,43991
58301,43991
58301,44208
57710,44208
" /> 
<polyline style="fill-rule:evenodd;"
points="57710,43893
57710,43676
58301,43676
58301,43893
57710,43893
" /> 
<polyline style="fill-rule:evenodd;"
points="57710,43578
57710,43361
58301,43361
58301,43578
57710,43578
" /> 
<polyline style="fill-rule:evenodd;"
points="57710,43263
57710,43046
58301,43046
58301,43263
57710,43263
" /> 
<polyline style="fill-rule:evenodd;"
points="57710,42948
57710,42731
58301,42731
58301,42948
57710,42948
" /> 
<polyline style="fill-rule:evenodd;"
points="57710,42633
57710,42416
58301,42416
58301,42633
57710,42633
" /> 
<circle cx="58928.7" cy="48600" r="295.276" /> 
</g>
<g style="fill:#000000; fill-opacity:1.0; 
stroke:#000000; stroke-width:39.3701; stroke-opacity:1; 
stroke-linecap:round; stroke-linejoin:round;">
</g>
<g style="fill:#000000; fill-opacity:1.0; 
stroke:#000000; stroke-width:0; stroke-opacity:1; 
stroke-linecap:round; stroke-linejoin:round;">
<circle cx="60850" cy="48600" r="295.276" /> 
</g>
<g style="fill:#000000; fill-opacity:1.0; 
stroke:#000000; stroke-width:39.3701; stroke-opacity:1; 
stroke-linecap:round; stroke-linejoin:round;">
</g>
<g style="fill:#000000; fill-opacity:1.0; 
stroke:#000000; stroke-width:0; stroke-opacity:1; 
stroke-linecap:round; stroke-linejoin:round;">
<polyline style="fill-rule:evenodd;"
points="49405,40448
49405,39936
49642,39936
49642,40448
49405,40448
" /> 
<polyline style="fill-rule:evenodd;"
points="49031,40448
49031,39936
49268,39936
49268,40448
49031,40448
" /> 
<polyline style="fill-rule:evenodd;"
points="48657,40448
48657,39936
48894,39936
48894,40448
48657,40448
" /> 
<polyline style="fill-rule:evenodd;"
points="48657,39463
48657,38951
48894,38951
48894,39463
48657,39463
" /> 
<polyline style="fill-rule:evenodd;"
points="49031,39463
49031,38951
49268,38951
49268,39463
49031,39463
" /> 
<polyline style="fill-rule:evenodd;"
points="49405,39463
49405,38951
49642,38951
49642,39463
49405,39463
" /> 
<circle cx="50100" cy="48600" r="196.85" /> 
</g>
<g style="fill:#000000; fill-opacity:1.0; 
stroke:#000000; stroke-width:39.3701; stroke-opacity:1; 
stroke-linecap:round; stroke-linejoin:round;">
</g>
<g style="fill:#000000; fill-opacity:1.0; 
stroke:#000000; stroke-width:0; stroke-opacity:1; 
stroke-linecap:round; stroke-linejoin:round;">
<circle cx="52800" cy="46908.5" r="157.48" /> 
</g>
<g style="fill:#000000; fill-opacity:1.0; 
stroke:#000000; stroke-width:39.3701; stroke-opacity:1; 
stroke-linecap:round; stroke-linejoin:round;">
</g>
<g style="fill:#000000; fill-opacity:1.0; 
stroke:#000000; stroke-width:0; stroke-opacity:1; 
stroke-linecap:round; stroke-linejoin:round;">
<circle cx="55179.1" cy="48075" r="157.48" /> 
</g>
<g style="fill:#000000; fill-opacity:1.0; 
stroke:#000000; stroke-width:39.3701; stroke-opacity:1; 
stroke-linecap:round; stroke-linejoin:round;">
</g>
<g style="fill:#000000; fill-opacity:1.0; 
stroke:#000000; stroke-width:0; stroke-opacity:1; 
stroke-linecap:round; stroke-linejoin:round;">
<circle cx="52445.6" cy="44910.2" r="157.48" /> 
</g>
<g style="fill:#000000; fill-opacity:1.0; 
stroke:#000000; stroke-width:39.3701; stroke-opacity:1; 
stroke-linecap:round; stroke-linejoin:round;">
</g>
<g style="fill:#000000; fill-opacity:1.0; 
stroke:#000000; stroke-width:0; stroke-opacity:1; 
stroke-linecap:round; stroke-linejoin:round;">
<circle cx="58549.6" cy="44405.1" r="157.48" /> 
</g>
<g style="fill:#000000; fill-opacity:1.0; 
stroke:#000000; stroke-width:39.3701; stroke-opacity:1; 
stroke-linecap:round; stroke-linejoin:round;">
</g>
<g style="fill:#000000; fill-opacity:1.0; 
stroke:#000000; stroke-width:0; stroke-opacity:1; 
stroke-linecap:round; stroke-linejoin:round;">
<circle cx="61824.8" cy="43657.8" r="157.48" /> 
</g>
<g style="fill:#000000; fill-opacity:1.0; 
stroke:#000000; stroke-width:39.3701; stroke-opacity:1; 
stroke-linecap:round; stroke-linejoin:round;">
</g>
<g style="fill:#000000; fill-opacity:1.0; 
stroke:#000000; stroke-width:0; stroke-opacity:1; 
stroke-linecap:round; stroke-linejoin:round;">
<circle cx="50176" cy="47491" r="157.48" /> 
</g>
<g style="fill:#000000; fill-opacity:1.0; 
stroke:#000000; stroke-width:39.3701; stroke-opacity:1; 
stroke-linecap:round; stroke-linejoin:round;">
</g>
<g style="fill:#000000; fill-opacity:1.0; 
stroke:#000000; stroke-width:0; stroke-opacity:1; 
stroke-linecap:round; stroke-linejoin:round;">
<circle cx="54364.4" cy="47285.6" r="157.48" /> 
</g>
<g style="fill:#000000; fill-opacity:1.0; 
stroke:#000000; stroke-width:39.3701; stroke-opacity:1; 
stroke-linecap:round; stroke-linejoin:round;">
</g>
<g style="fill:#000000; fill-opacity:1.0; 
stroke:#000000; stroke-width:0; stroke-opacity:1; 
stroke-linecap:round; stroke-linejoin:round;">
<circle cx="57391.5" cy="47888.7" r="157.48" /> 
</g>
<g style="fill:#000000; fill-opacity:1.0; 
stroke:#000000; stroke-width:39.3701; stroke-opacity:1; 
stroke-linecap:round; stroke-linejoin:round;">
</g>
<g style="fill:#000000; fill-opacity:1.0; 
stroke:#000000; stroke-width:0; stroke-opacity:1; 
stroke-linecap:round; stroke-linejoin:round;">
<circle cx="58870.7" cy="43664.3" r="157.48" /> 
</g>
<g style="fill:#000000; fill-opacity:1.0; 
stroke:#000000; stroke-width:39.3701; stroke-opacity:1; 
stroke-linecap:round; stroke-linejoin:round;">
</g>
<g style="fill:#000000; fill-opacity:1.0; 
stroke:#000000; stroke-width:0; stroke-opacity:1; 
stroke-linecap:round; stroke-linejoin:round;">
<circle cx="57312.4" cy="43652.2" r="157.48" /> 
</g>
<g style="fill:#000000; fill-opacity:1.0; 
stroke:#000000; stroke-width:39.3701; stroke-opacity:1; 
stroke-linecap:round; stroke-linejoin:round;">
</g>
<g style="fill:#000000; fill-opacity:1.0; 
stroke:#000000; stroke-width:0; stroke-opacity:1; 
stroke-linecap:round; stroke-linejoin:round;">
<circle cx="56455.8" cy="48253.1" r="157.48" /> 
</g>
<g style="fill:#000000; fill-opacity:1.0; 
stroke:#000000; stroke-width:39.3701; stroke-opacity:1; 
stroke-linecap:round; stroke-linejoin:round;">
</g>
<g style="fill:#000000; fill-opacity:1.0; 
stroke:#000000; stroke-width:0; stroke-opacity:1; 
stroke-linecap:round; stroke-linejoin:round;">
<circle cx="48304" cy="37096" r="157.48" /> 
</g>
<g style="fill:#000000; fill-opacity:1.0; 
stroke:#000000; stroke-width:39.3701; stroke-opacity:1; 
stroke-linecap:round; stroke-linejoin:round;">
</g>
<g style="fill:#000000; fill-opacity:1.0; 
stroke:#000000; stroke-width:0; stroke-opacity:1; 
stroke-linecap:round; stroke-linejoin:round;">
<circle cx="63031" cy="43366.6" r="157.48" /> 
</g>
<g style="fill:#000000; fill-opacity:1.0; 
stroke:#000000; stroke-width:39.3701; stroke-opacity:1; 
stroke-linecap:round; stroke-linejoin:round;">
</g>
<g style="fill:#000000; fill-opacity:1.0; 
stroke:#000000; stroke-width:0; stroke-opacity:1; 
stroke-linecap:round; stroke-linejoin:round;">
<circle cx="49886.5" cy="39430.5" r="157.48" /> 
</g>
<g style="fill:#000000; fill-opacity:1.0; 
stroke:#000000; stroke-width:39.3701; stroke-opacity:1; 
stroke-linecap:round; stroke-linejoin:round;">
</g>
<g style="fill:#000000; fill-opacity:1.0; 
stroke:#000000; stroke-width:98.4252; stroke-opacity:1; 
stroke-linecap:round; stroke-linejoin:round;">
</g>
<g style="fill:#000000; fill-opacity:0.0; 
stroke:#000000; stroke-width:98.4252; stroke-opacity:1; 
stroke-linecap:round; stroke-linejoin:round;">
<path d="M59157 42279
L59034 42279
" />
<path d="M59034 42279
L58990 42234
" />
<path d="M61509 42279
L59157 42279
" />
<path d="M58792 44148
L59157 43784
" />
<path d="M59157 43784
L59157 42279
" />
<path d="M58792 44148
L59620 44975
" />
<path d="M59620 44975
L59620 45674
" />
<path d="M58429 43785
L58792 44148
" />
<path d="M59620 45965
L59620 45674
" />
<path d="M62494 45674
L59620 45674
" />
<path d="M56879 38708
L56439 38708
" />
<path d="M56439 38708
L55115 40032
" />
<path d="M55115 40032
L55115 44426
" />
<path d="M55115 44426
L55352 44663
" />
<path d="M55352 44663
L55878 44663
" />
<path d="M55878 44663
L56306 44235
" />
<path d="M56306 44235
L56879 44235
" />
<path d="M57471 39300
L56879 38708
" />
<path d="M56879 43812
L57068 43812
" />
<path d="M57068 43812
L57194 43937
" />
<path d="M57194 43937
L57430 43937
" />
<path d="M57430 43937
L57583 43785
" />
<path d="M57583 43785
L58005 43785
" />
<path d="M59620 46344
L59620 45965
" />
<path d="M52017 48849
L50950 48849
" />
<path d="M52050 47369
L52417 47737
" />
<path d="M52417 47737
L52417 48712
" />
<path d="M52417 48712
L52280 48849
" />
<path d="M52280 48849
L52017 48849
" />
<path d="M54398 49931
L54398 50564
" />
<path d="M54398 50564
L53689 51273
" />
<path d="M53689 51273
L52094 51273
" />
<path d="M52094 51273
L52017 51196
" />
<path d="M52017 51196
L52017 48849
" />
<path d="M54750 49000
L54398 49352
" />
<path d="M54398 49352
L54398 49931
" />
<path d="M54398 49931
L55109 50642
" />
<path d="M55109 50642
L55268 50642
" />
<path d="M56879 44235
L56879 43812
" />
<path d="M58217 43785
L58005 43785
" />
<path d="M58217 43785
L58429 43785
" />
<path d="M48894 41749
L48894 45934
" />
<path d="M48894 45934
L49400 46439
" />
<path d="M48775 40192
L48775 41631
" />
<path d="M48775 41631
L48894 41749
" />
<path d="M48894 41749
L49200 41749
" />
<path d="M56879 41235
L57471 40644
" />
<path d="M57471 40644
L57471 39300
" />
<path d="M54228 48259
L54228 47824
" />
<path d="M54228 47824
L54850 47203
" />
<path d="M54850 47203
L54850 47139
" />
<path d="M57531 51057
L57531 48818
" />
<path d="M57531 48818
L59250 47100
" />
<path d="M52050 47033
L52050 47369
" />
<path d="M54750 49000
L54228 48479
" />
<path d="M54228 48479
L54228 48259
" />
<path d="M49400 46439
L49063 46776
" />
<path d="M49063 46776
L49063 47215
" />
<path d="M49063 47215
L49755 47907
" />
<path d="M49755 47907
L49755 48722
" />
<path d="M49755 48722
L49957 48924
" />
<path d="M49957 48924
L50874 48924
" />
<path d="M50874 48924
L50950 48849
" />
<path d="M55268 51065
L55268 50642
" />
<path d="M50721 40576
L50721 42170
" />
<path d="M50721 39729
L50721 40576
" />
<path d="M50721 40576
L49524 40576
" />
<path d="M49524 40192
L49524 40576
" />
<path d="M62599 45674
L62494 45674
" />
<path d="M62599 45674
L62705 45674
" />
<path d="M59620 46767
L59583 46767
" />
<path d="M59583 46767
L59250 47100
" />
<path d="M62705 45674
L62705 46059
" />
<path d="M62705 46059
L61665 47100
" />
<path d="M61665 47100
L61549 47100
" />
<path d="M62705 45674
L62917 45674
" />
<path d="M52000 44200
L51100 44200
" />
<path d="M50300 44200
L51100 44200
" />
<path d="M49450 44200
L50300 44200
" />
<path d="M48775 40096
L48775 40192
" />
<path d="M48775 40096
L48775 40000
" />
<path d="M48775 40000
L48100 40000
" />
<path d="M48100 40000
L47900 39799
" />
<path d="M48775 40000
L48775 39808
" />
<path d="M57887 39300
L57471 39300
" />
<path d="M55268 51065
L55268 51538
" />
<path d="M55268 51538
L55228 51577
" />
<path d="M55959 52238
L55959 52185
" />
<path d="M55959 52185
L56419 51725
" />
<path d="M56419 51725
L56768 51725
" />
<path d="M56012 52345
L55959 52292
" />
<path d="M55959 52292
L55959 52238
" />
<path d="M55315 52238
L55959 52238
" />
<path d="M56768 52345
L56768 51725
" />
<path d="M56901 51105
L56901 51591
" />
<path d="M56901 51591
L56768 51725
" />
<path d="M56901 50878
L56901 51105
" />
<path d="M56901 50878
L56901 50652
" />
<path d="M55315 51872
L55315 52238
" />
<path d="M57531 51057
L57531 51538
" />
<path d="M57531 51538
L57571 51577
" />
<path d="M57531 51057
L57342 51057
" />
<path d="M55268 51065
L55429 51065
" />
<path d="M55429 51065
L55437 51057
" />
<path d="M57342 51057
L57342 50634
" />
<path d="M56901 50652
L57049 50652
" />
<path d="M57049 50652
L57095 50698
" />
<path d="M57095 50698
L57136 50698
" />
<path d="M57136 50698
L57200 50634
" />
<path d="M57200 50634
L57342 50634
" />
<path d="M57571 51577
L57472 51675
" />
<path d="M57472 51675
L57472 51872
" />
<path d="M55228 51577
L55228 51786
" />
<path d="M55228 51786
L55315 51872
" />
<path d="M57472 51872
L57464 51880
" />
<path d="M57464 51880
L57464 52238
" />
<path d="M56879 38285
L56879 38708
" />
<path d="M58350 39300
L57887 39300
" />
<path d="M54850 47139
L55610 47139
" />
<path d="M55610 47139
L55700 47050
" />
<path d="M53805 48259
L54228 48259
" />
<path d="M58990 41855
L58990 42234
" />
<path d="M61509 41855
L61509 42279
" />
<path d="M62917 45674
L62917 45716
" />
<path d="M62917 45716
L63300 46099
" />
<path d="M59620 46344
L59620 46767
" />
<path d="M49524 40192
L49524 39808
" />
<path d="M48775 39808
L48933 39808
" />
<path d="M48933 39808
L49150 39591
" />
<path d="M49150 39591
L49366 39808
" />
<path d="M49366 39808
L49524 39808
" />
<path d="M49150 39207
L49150 39591
" />
<path d="M50721 39729
L50721 39247
" />
<path d="M53021 39834
L53021 39820
" />
<path d="M53021 39820
L52447 39247
" />
<path d="M52447 39247
L50721 39247
" />
<path d="M53021 39834
L53021 39679
" />
<path d="M53021 42120
L53021 39834
" />
<path d="M50721 42170
L50721 42652
" />
<path d="M50721 42652
L51100 43031
" />
<path d="M51100 43031
L51100 44200
" />
<path d="M55700 49701
L54751 49701
" />
<path d="M54751 49701
L54750 49699
" />
<path d="M55878 51105
L55878 49879
" />
<path d="M55878 49879
L55700 49701
" />
<path d="M55179 47760
L55179 48074
" />
<path d="M55179 47760
L55689 47760
" />
<path d="M54850 47760
L55179 47760
" />
<path d="M53175 47033
L53175 46696
" />
<path d="M52800 46908
L52800 46855
" />
<path d="M52800 46855
L52959 46696
" />
<path d="M52959 46696
L53175 46696
" />
<path d="M55689 47760
L55700 47749
" />
<path d="M55700 48598
L55689 48588
" />
<path d="M55689 48588
L55689 47760
" />
<path d="M50950 48150
L51461 48150
" />
<path d="M51461 48150
L51571 48259
" />
<path d="M50924 47033
L50924 48124
" />
<path d="M50924 48124
L50950 48150
" />
<path d="M51994 48259
L51571 48259
" />
<path d="M52445 44910
L52010 44910
" />
<path d="M52010 44910
L52000 44899
" />
<path d="M61824 43657
L61824 45113
" />
<path d="M61824 45113
L62070 45359
" />
<path d="M61824 41855
L61824 43657
" />
<path d="M58549 44405
L58439 44405
" />
<path d="M58439 44405
L58429 44414
" />
<path d="M58906 45522
L59305 45920
" />
<path d="M58429 44414
L58429 45044
" />
<path d="M58429 45044
L58906 45522
" />
<path d="M57750 47110
L58429 46430
" />
<path d="M58429 46430
L58429 45999
" />
<path d="M58429 45999
L58906 45522
" />
<path d="M59350 39300
L58887 39300
" />
<path d="M58887 39300
L58887 39444
" />
<path d="M58887 39444
L58569 39762
" />
<path d="M58569 39762
L58019 39762
" />
<path d="M58019 39762
L57887 39895
" />
<path d="M57887 39895
L57887 40703
" />
<path d="M57887 40703
L58616 41432
" />
<path d="M58616 41432
L58675 41432
" />
<path d="M57582 42840
L57483 42741
" />
<path d="M57483 42741
L55620 42741
" />
<path d="M58005 42840
L57582 42840
" />
<path d="M59305 41855
L59305 41432
" />
<path d="M58675 41855
L58675 41432
" />
<path d="M58675 41432
L59305 41432
" />
<path d="M58429 42840
L58675 42594
" />
<path d="M58675 42594
L58675 41855
" />
<path d="M58005 44414
L58429 44414
" />
<path d="M58173 42840
L58005 42840
" />
<path d="M58173 42840
L58429 42840
" />
<path d="M56900 48369
L56900 48271
" />
<path d="M56900 48271
L56035 47406
" />
<path d="M56035 47406
L56035 46833
" />
<path d="M56035 46833
L55789 46587
" />
<path d="M55789 46587
L55620 46587
" />
<path d="M51675 46166
L51675 46503
" />
<path d="M55620 46511
L55620 46587
" />
<path d="M55620 46164
L55620 46511
" />
<path d="M51675 46503
L55612 46503
" />
<path d="M55612 46503
L55620 46511
" />
<path d="M51675 45223
L51675 46166
" />
<path d="M51675 45223
L52000 44899
" />
<path d="M51675 45223
L51424 45223
" />
<path d="M51424 45223
L51100 44899
" />
<path d="M55620 42741
L55295 42416
" />
<path d="M55295 42416
L55295 40539
" />
<path d="M55295 40539
L55620 40214
" />
<path d="M55620 43164
L55620 42741
" />
<path d="M62494 45359
L62070 45359
" />
<path d="M61350 40300
L61350 40850
" />
<path d="M61350 40850
L61824 41325
" />
<path d="M61824 41325
L61824 41855
" />
<path d="M59305 46344
L59305 45920
" />
<path d="M62494 45359
L63259 45359
" />
<path d="M63259 45359
L63300 45400
" />
<path d="M60250 46344
L60250 46767
" />
<path d="M60250 46767
L60518 46767
" />
<path d="M60518 46767
L60850 47100
" />
<path d="M60850 48600
L60850 48599
" />
<path d="M60850 48599
L60850 47100
" />
<path d="M59935 46344
L59935 47085
" />
<path d="M59935 47085
L59949 47100
" />
<path d="M58928 48600
L59949 47579
" />
<path d="M59949 47579
L59949 47100
" />
<path d="M52900 48259
L52900 47738
" />
<path d="M52424 47033
L52424 47369
" />
<path d="M52424 47369
L52792 47738
" />
<path d="M52792 47738
L52900 47738
" />
<path d="M52424 46864
L52424 47033
" />
<path d="M49918 45090
L49640 45090
" />
<path d="M49640 45090
L49450 44899
" />
<path d="M50300 44899
L50109 45090
" />
<path d="M50109 45090
L49918 45090
" />
<path d="M49918 45090
L49918 46460
" />
<path d="M49918 46460
L50154 46696
" />
<path d="M50154 46696
L50550 46696
" />
<path d="M49200 41050
L49557 41407
" />
<path d="M49557 41407
L49557 42267
" />
<path d="M49557 42267
L49101 42723
" />
<path d="M49101 42723
L49101 44550
" />
<path d="M49101 44550
L49450 44899
" />
<path d="M50550 46696
L51675 46696
" />
<path d="M49150 40192
L49150 41000
" />
<path d="M49150 41000
L49200 41050
" />
<path d="M52900 48259
L53111 48259
" />
<path d="M50550 47033
L50550 46696
" />
<path d="M53924 47033
L53924 47369
" />
<path d="M53111 48259
L53111 48064
" />
<path d="M53111 48064
L53806 47369
" />
<path d="M53806 47369
L53924 47369
" />
<path d="M53111 48259
L53323 48259
" />
<path d="M52900 50740
L53776 50740
" />
<path d="M53776 50740
L53776 49135
" />
<path d="M53776 49135
L53323 48683
" />
<path d="M53323 48683
L53323 48259
" />
<path d="M52424 46864
L52424 46696
" />
<path d="M51675 47033
L51675 46696
" />
<path d="M51675 46696
L52424 46696
" />
<path d="M55620 38708
L54937 39391
" />
<path d="M54937 39391
L54937 44499
" />
<path d="M54937 44499
L55278 44840
" />
<path d="M55278 44840
L55996 44840
" />
<path d="M55996 44840
L56107 44729
" />
<path d="M56107 44729
L58005 44729
" />
<path d="M55620 38285
L55620 38708
" />
<path d="M56879 40214
L56879 40637
" />
<path d="M55620 41235
L55620 40812
" />
<path d="M55620 40812
L56705 40812
" />
<path d="M56705 40812
L56879 40637
" />
<path d="M56879 43164
L56879 43587
" />
<path d="M55620 44235
L55620 43812
" />
<path d="M55620 43812
L55844 43587
" />
<path d="M55844 43587
L56879 43587
" />
<path d="M56500 49760
L56134 50125
" />
<path d="M56134 50125
L56134 51105
" />
<path d="M57150 49760
L56390 50519
" />
<path d="M56390 50519
L56390 51105
" />
<path d="M53550 47033
L53550 46696
" />
<path d="M50100 48600
L50175 48524
" />
<path d="M50175 48524
L50175 47490
" />
<path d="M50175 47369
L50175 47490
" />
<path d="M53550 46696
L54105 46696
" />
<path d="M54105 46696
L54364 46955
" />
<path d="M54364 46955
L54364 47285
" />
<path d="M50175 47033
L50175 47369
" />
<path d="M49400 47060
L49709 47369
" />
<path d="M49709 47369
L50175 47369
" />
<path d="M58350 40300
L58812 40300
" />
<path d="M60250 41855
L60250 41432
" />
<path d="M60250 41432
L59800 41432
" />
<path d="M59800 41432
L58812 40444
" />
<path d="M58812 40444
L58812 40300
" />
<path d="M59350 40300
L59812 40300
" />
<path d="M59812 40300
L59812 40155
" />
<path d="M59812 40155
L60146 39821
" />
<path d="M60146 39821
L60553 39821
" />
<path d="M60553 39821
L60879 40147
" />
<path d="M60879 40147
L60879 41855
" />
<path d="M60350 40300
L60350 40762
" />
<path d="M60564 41855
L60564 40977
" />
<path d="M60564 40977
L60350 40762
" />
<path d="M56900 47602
L56900 47749
" />
<path d="M52178 42652
L54787 45261
" />
<path d="M54787 45261
L55419 45261
" />
<path d="M55419 45261
L56212 46055
" />
<path d="M56212 46055
L56212 46914
" />
<path d="M56212 46914
L56900 47602
" />
<path d="M56900 47602
L58155 47602
" />
<path d="M58155 47602
L58990 46767
" />
<path d="M58990 46344
L58990 46767
" />
<path d="M52178 42170
L52178 42652
" />
<path d="M52178 39729
L52178 42170
" />
<path d="M57750 46489
L57422 46817
" />
<path d="M57422 46817
L57422 47278
" />
<path d="M57422 47278
L57569 47425
" />
<path d="M57569 47425
L58017 47425
" />
<path d="M58017 47425
L58675 46767
" />
<path d="M54478 42120
L54478 44290
" />
<path d="M54478 44290
L55271 45084
" />
<path d="M55271 45084
L56490 45084
" />
<path d="M56490 45084
L57750 46344
" />
<path d="M57750 46344
L57750 46489
" />
<path d="M58675 46344
L58675 46767
" />
<path d="M54478 39679
L54478 42120
" />
<path d="M58005 43470
L58676 43470
" />
<path d="M58676 43470
L58870 43664
" />
<path d="M57150 49139
L57150 48875
" />
<path d="M57150 48875
L57391 48633
" />
<path d="M57391 48633
L57391 47888
" />
<path d="M56500 49139
L56455 49095
" />
<path d="M56455 49095
L56455 48253
" />
<path d="M58005 43155
L57582 43155
" />
<path d="M57312 43652
L57312 43425
" />
<path d="M57312 43425
L57582 43155
" />
<path d="M48304 38705
L48304 37095
" />
<path d="M48304 38705
L48294 38705
" />
<path d="M48294 38705
L47900 39100
" />
<path d="M48775 38705
L48304 38705
" />
<path d="M48775 39207
L48775 38705
" />
<path d="M62917 43470
L62927 43470
" />
<path d="M62927 43470
L63030 43366
" />
<path d="M49524 39591
L49725 39591
" />
<path d="M49725 39591
L49886 39430
" />
<path d="M49524 39207
L49524 39591
" />
<path d="M62494 43470
L62917 43470
" />
</g>
<g style="fill:#000000; fill-opacity:1.0; 
stroke:#000000; stroke-width:100; stroke-opacity:1; 
stroke-linecap:round; stroke-linejoin:round;">
<polyline style="fill-rule:evenodd;"
points="64150,53650
45250,53650
45250,40294
46967,40294
46969,40348
46969,40373
46969,40377
46970,40381
46975,40405
46985,40457
46988,40461
48437,46849
48438,46858
48588,47523
48589,47528
48590,47533
48595,47549
48804,48198
48806,48203
48807,48208
48813,48223
49080,48850
49082,48855
49084,48860
49091,48874
49414,49475
49417,49479
49419,49484
49428,49498
49804,50067
49807,50071
49809,50075
49819,50088
50245,50621
50248,50625
50252,50629
50262,50641
50735,51133
50739,51136
50742,51140
50754,51151
51269,51598
51273,51601
51277,51605
51290,51614
51844,52013
51848,52016
51852,52019
51866,52027
52453,52374
52457,52377
52462,52379
52476,52387
52476,52387
52476,52387
53093,52679
53097,52681
53102,52683
53117,52689
53757,52924
53762,52925
53767,52927
53782,52932
54442,53108
54446,53109
54451,53110
54467,53114
55140,53229
55145,53230
55150,53231
55166,53232
55846,53287
55851,53287
55856,53287
55872,53287
56554,53280
56559,53280
56564,53280
56580,53278
57259,53209
57264,53208
57269,53208
57285,53205
57955,53074
57959,53073
57964,53072
57980,53068
58635,52877
58640,52876
58645,52874
58660,52869
58660,52869
58660,52869
59295,52619
59299,52617
59304,52615
59319,52609
59929,52303
59933,52300
59938,52298
59952,52290
60531,51930
60535,51927
60540,51924
60553,51915
61097,51504
61101,51501
61105,51498
61117,51487
61623,51029
61626,51025
61630,51022
61641,51010
62103,50508
62106,50504
62109,50500
62119,50487
62533,49945
62536,49941
62539,49937
62548,49924
62911,49346
62914,49342
62917,49337
62924,49323
63234,48715
63236,48710
63238,48706
63244,48691
63497,48058
63499,48053
63501,48048
63506,48033
63700,47379
63702,47374
63703,47369
63707,47353
63841,46684
63842,46679
63843,46674
63845,46658
63918,45980
63918,45975
63919,45970
63920,45954
63931,45272
63931,45267
63931,45262
63930,45246
63880,44565
63879,44560
63879,44555
63877,44539
63765,43866
63764,43861
63763,43856
63759,43841
63587,43180
63585,43176
63584,43171
63579,43155
63347,42514
63346,42509
63344,42504
63337,42489
63049,41871
63046,41867
63044,41862
63036,41848
62693,41259
62690,41254
62688,41250
62679,41237
62425,40881
62578,40850
62771,40721
62900,40528
62946,40300
62900,40071
62771,39878
62653,39799
62820,39646
62917,39440
62870,39350
62400,39350
62400,39357
62300,39357
62300,39350
62292,39350
62292,39250
62300,39250
62300,38780
62400,38780
62400,39250
62870,39250
62917,39159
62820,38953
62651,38799
62490,38732
62400,38780
62300,38780
62209,38732
62048,38799
61879,38953
61855,39004
61771,38878
61578,38749
61407,38715
61292,38715
61121,38749
60928,38878
60850,38995
60771,38878
60578,38749
60407,38715
60292,38715
60121,38749
60099,38764
59555,38467
59550,38465
59546,38463
59531,38456
58905,38185
58900,38184
58895,38182
58880,38176
58232,37964
58227,37962
58222,37961
58207,37957
57542,37804
57537,37803
57532,37802
57516,37799
57148,37749
57126,37740
57081,37740
56840,37707
56835,37706
56830,37706
56814,37704
56132,37674
56127,37674
56122,37674
56106,37674
55425,37706
55420,37706
55414,37706
55398,37708
54723,37801
54718,37802
54713,37803
54697,37806
54032,37960
54027,37961
54022,37962
54007,37967
53739,38055
53739,31878
53745,31850
53722,31737
53658,31641
53562,31577
53478,31560
53450,31554
53421,31560
50146,31560
50061,31577
50044,31588
49455,31793
49450,31795
49445,31797
49430,31803
48811,32083
48806,32085
48802,32087
48788,32095
48196,32429
48192,32432
48187,32434
48174,32443
47615,32830
47611,32833
47607,32836
47594,32846
47594,32846
47594,32846
47084,33272
47049,33296
46985,33391
46969,33476
46969,40291
46967,40294
45250,40294
45250,31250
64150,31250
64150,53650
" /> 
<polyline style="fill-rule:evenodd;"
points="54283,47693
54408,47693
54408,47846
54434,47976
54507,48087
54618,48161
54749,48187
54784,48187
54833,48305
54948,48420
55098,48482
55100,48482
55100,48569
55098,48567
55006,48529
54862,48529
54800,48591
54800,48950
55144,48950
55161,48932
55204,48996
55318,49072
55453,49099
55946,49099
56058,49077
56058,49222
55946,49200
55453,49200
55318,49227
55204,49303
55176,49345
55206,49271
55206,49113
55144,49050
54800,49050
54800,49058
54700,49058
54700,49050
54355,49050
54293,49113
54293,49271
54331,49363
54352,49385
54315,49441
54288,49576
54288,49822
54315,49957
54391,50072
54506,50148
54641,50175
54858,50175
54993,50148
55108,50072
55147,50013
55204,50098
55318,50175
55453,50202
55579,50202
55579,50520
55380,50520
55349,50551
55315,50528
55300,50530
55212,50577
55155,50520
54824,50520
54732,50558
54662,50628
54624,50720
54624,50953
54686,51015
55218,51015
55218,51007
55318,51007
55318,51015
55325,51015
55325,51107
55031,51107
55025,51115
54686,51115
54624,51178
54624,51378
54619,51390
54619,51465
54681,51527
54687,51527
54732,51572
54799,51600
54799,51627
54681,51627
54619,51690
54619,51765
54657,51856
54727,51927
54819,51965
54799,51985
54799,52316
54814,52352
54802,52370
54864,52561
54898,52600
54578,52545
53944,52376
53329,52150
52736,51869
52171,51536
51639,51152
51143,50722
50689,50249
50279,49737
49918,49190
49755,48887
49846,48978
50011,49046
50188,49046
50353,48978
50370,48961
50493,48961
50493,49120
50531,49212
50601,49282
50693,49320
50837,49320
50900,49258
50900,48899
51000,48899
51000,49258
51062,49320
51206,49320
51298,49282
51368,49212
51406,49120
51406,48961
51344,48899
51000,48899
50900,48899
50555,48899
50493,48961
50370,48961
50478,48853
50517,48760
50555,48799
50900,48799
50900,48791
51000,48791
51000,48799
51344,48799
51406,48736
51406,48578
51368,48486
51362,48480
51444,48534
51444,48653
51463,48751
51518,48833
51601,48889
51699,48908
52289,48908
52387,48889
52447,48848
52507,48889
52604,48908
53121,48908
53132,48915
53476,49259
53476,50091
52151,50091
52054,50110
51971,50166
51916,50248
51897,50346
51897,51133
51916,51231
51971,51314
52054,51369
52151,51388
53648,51388
53745,51369
53828,51314
53883,51231
53902,51133
53902,51015
53991,50955
54057,50856
54081,50740
54075,50710
54075,49165
54081,49135
54075,49106
54075,49106
54057,49019
53991,48920
53966,48903
54150,48903
54242,48865
54293,48814
54293,48888
54355,48950
54700,48950
54700,48591
54637,48529
54493,48529
54401,48567
54350,48618
54350,48372
54288,48309
53855,48309
53855,48317
53755,48317
53755,48309
53747,48309
53747,48209
53755,48209
53755,48201
53855,48201
53855,48209
54288,48209
54350,48147
54350,47816
54312,47724
54279,47691
54283,47693
" /> 
<polyline style="fill-rule:evenodd;"
points="61525,42315
61525,43380
61479,43426
61417,43576
61417,43738
61479,43888
61525,43934
61525,45084
61519,45113
61542,45230
61574,45277
61609,45329
61634,45346
61838,45550
61855,45575
61954,45641
62031,45657
62101,45703
62198,45723
62551,45723
62551,45724
62544,45724
62544,45970
62606,46033
62839,46033
62874,46018
62905,46049
63250,46049
63250,46041
63329,46041
63317,46157
63250,46157
63250,46149
62905,46149
62843,46211
62843,46370
62881,46462
62951,46532
63043,46570
63187,46570
63249,46508
63249,46570
63272,46570
63271,46583
63142,47226
62955,47855
62712,48464
62414,49049
62065,49604
61667,50126
61224,50609
60738,51050
60215,51445
59657,51791
59071,52085
58461,52325
57943,52476
57978,52370
57970,52359
57988,52316
57988,51985
57968,51965
57980,51965
58072,51927
58142,51856
58180,51765
58180,51690
58118,51627
57988,51627
57988,51597
58067,51565
58104,51527
58118,51527
58180,51465
58180,51390
58175,51378
58175,51170
58113,51107
57474,51107
57474,51007
58113,51007
58175,50945
58175,50712
58137,50620
58067,50550
57975,50512
57644,50512
57581,50575
57581,50585
57480,50530
57464,50528
57447,50540
57419,50512
57088,50512
57038,50533
57030,50530
57003,50530
56941,50592
56941,50605
56926,50620
56923,50627
56905,50600
56822,50544
56812,50542
56801,50531
57146,50187
57250,50187
57381,50161
57492,50087
57565,49976
57591,49846
57591,49673
57565,49543
57503,49450
57565,49356
57591,49226
57591,49053
57565,48923
57549,48898
57582,48866
57607,48849
57673,48750
57690,48663
57690,48663
57696,48633
57690,48604
57690,48165
57736,48119
57798,47969
57798,47901
58125,47901
58155,47907
58184,47901
58184,47901
58271,47884
58370,47818
58387,47793
58792,47388
58817,47448
58887,47518
58979,47556
59138,47556
59200,47494
59200,47150
59192,47150
59192,47050
59200,47050
59200,47042
59300,47042
59300,47050
59308,47050
59308,47150
59300,47150
59300,47494
59363,47556
59521,47556
59568,47537
59046,48058
59037,48054
58820,48054
58619,48137
58466,48291
58383,48491
58383,48708
58466,48908
58619,49062
58820,49145
59037,49145
59237,49062
59391,48908
59474,48708
59474,48491
59470,48481
60140,47811
60165,47795
60195,47749
60231,47696
60237,47664
60248,47608
60248,47608
60254,47579
60248,47549
60248,47507
60322,47458
60398,47343
60400,47337
60401,47343
60477,47458
60551,47507
60551,48133
60541,48137
60387,48291
60304,48491
60304,48708
60387,48908
60541,49062
60741,49145
60958,49145
61158,49062
61312,48908
61395,48708
61395,48491
61312,48291
61158,48137
61149,48133
61149,47507
61164,47497
61186,47518
61278,47556
61436,47556
61499,47494
61499,47150
61599,47150
61599,47494
61661,47556
61820,47556
61912,47518
61982,47448
62020,47356
62020,47212
61958,47150
61599,47150
61499,47150
61491,47150
61491,47050
61499,47050
61499,47042
61599,47042
61599,47050
61958,47050
62020,46987
62020,46876
62030,46874
62113,46819
62168,46736
62187,46639
62187,46048
62184,46033
62381,46033
62444,45970
62444,45724
62011,45724
61948,45787
61948,45797
61933,45793
61716,45793
61667,45803
61618,45793
61401,45793
61352,45803
61303,45793
61086,45793
61037,45803
60988,45793
60771,45793
60722,45803
60673,45793
60456,45793
60407,45803
60358,45793
60141,45793
60092,45803
60043,45793
59826,45793
59785,45802
59778,45798
59732,45798
59695,45835
59646,45868
59620,45908
59602,45881
59586,45804
59558,45761
59537,45730
59537,45730
59520,45705
59495,45688
59138,45331
59122,45306
59097,45289
58728,44920
58728,44772
58780,44750
58895,44635
58957,44486
58957,44324
58895,44174
58792,44071
58951,44071
59101,44009
59216,43895
59278,43745
59278,43583
59216,43433
59101,43318
58951,43256
58893,43256
58892,43254
58793,43188
58705,43170
58705,43170
58676,43165
58646,43170
58556,43170
58556,43115
58644,43055
58661,43030
58865,42826
58890,42809
58957,42710
58974,42623
58974,42623
58980,42594
58974,42564
58974,42315
58990,42291
59016,42331
59065,42364
59102,42401
59148,42401
59155,42397
59196,42406
59413,42406
59462,42396
59511,42406
59728,42406
59777,42396
59826,42406
60043,42406
60092,42396
60141,42406
60358,42406
60407,42396
60456,42406
60673,42406
60722,42396
60771,42406
60988,42406
61037,42396
61086,42406
61303,42406
61344,42397
61351,42401
61397,42401
61434,42364
61483,42331
61509,42291
61525,42315
" /> 
<polyline style="fill-rule:evenodd;"
points="56062,52295
56718,52295
56718,52287
56818,52287
56818,52295
56825,52295
56825,52395
56818,52395
56818,52403
56718,52403
56718,52395
56062,52395
56062,52403
55962,52403
55962,52395
55954,52395
55954,52295
55962,52295
55962,52287
56062,52287
56062,52295
" /> 
<polyline style="fill-rule:evenodd;"
points="55365,52296
55265,52296
55265,52181
55365,52181
55365,52296
" /> 
<polyline style="fill-rule:evenodd;"
points="57514,52188
57522,52188
57522,52288
57514,52288
57514,52296
57422,52296
57422,52181
57514,52181
57514,52188
" /> 
<polyline style="fill-rule:evenodd;"
points="49299,47487
49403,47487
49477,47560
49494,47585
49593,47651
49680,47669
49680,47669
49709,47674
49739,47669
49808,47669
49830,47721
49876,47768
49876,48208
49846,48221
49721,48346
49653,48511
49653,48688
49667,48722
49607,48612
49351,48008
49175,47462
49299,47487
" /> 
<polyline style="fill-rule:evenodd;"
points="51312,47339
51367,47421
51450,47477
51548,47496
51803,47496
51858,47485
51872,47491
51937,47491
52000,47429
52000,47398
52039,47339
52050,47286
52060,47339
52100,47398
52100,47429
52138,47467
52142,47486
52184,47549
52208,47585
52233,47602
52242,47611
51699,47611
51601,47630
51518,47685
51463,47768
51447,47848
51432,47851
51357,47851
51308,47777
51223,47721
51223,47427
51232,47421
51287,47339
51300,47276
51312,47339
" /> 
<polyline style="fill-rule:evenodd;"
points="54900,47089
54907,47089
54907,47189
54900,47189
54900,47197
54800,47197
54800,47189
54792,47189
54792,47089
54800,47089
54800,47082
54900,47082
54900,47089
" /> 
<polyline style="fill-rule:evenodd;"
points="55735,47108
55650,47108
55650,47100
55642,47100
55642,47000
55650,47000
55650,46992
55735,46992
55735,47108
" /> 
<polyline style="fill-rule:evenodd;"
points="49026,46779
49017,46793
49010,46763
49026,46779
" /> 
<polyline style="fill-rule:evenodd;"
points="48402,39463
48422,39561
48477,39644
48560,39699
48571,39701
48516,39724
48445,39794
48407,39886
48407,40079
48470,40142
48725,40142
48725,40134
48776,40134
48776,40448
48796,40545
48825,40589
48825,40635
48850,40660
48850,40671
48841,40677
48765,40792
48738,40927
48738,41173
48765,41308
48802,41364
48781,41386
48743,41478
48743,41636
48805,41699
49150,41699
49150,41691
49250,41691
49250,41699
49257,41699
49257,41799
49250,41799
49250,41807
49150,41807
49150,41799
48805,41799
48743,41861
48743,42020
48781,42112
48851,42182
48943,42220
49087,42220
49149,42158
49149,42220
49181,42220
48910,42491
48885,42508
48819,42607
48801,42694
48801,42694
48796,42723
48801,42753
48801,44521
48796,44550
48819,44667
48861,44729
48885,44766
48910,44782
48988,44860
48988,45022
49015,45157
49091,45272
49206,45348
49341,45375
49543,45375
49611,45389
49611,45389
49619,45390
49619,46017
49512,46017
49450,46080
49450,46389
49457,46389
49457,46489
49450,46489
49450,46497
49350,46497
49350,46489
49025,46489
48963,46552
48887,46217
48962,46217
48962,46327
49025,46389
49350,46389
49350,46080
49287,46017
49163,46017
49071,46055
49001,46126
48962,46217
48887,46217
47547,40312
47547,40304
48407,40304
48407,40497
48445,40589
48516,40659
48608,40698
48663,40698
48725,40635
48725,40242
48470,40242
48407,40304
47547,40304
47547,40229
47551,40232
47643,40270
47787,40270
47850,40208
47850,39849
47950,39849
47950,40208
48012,40270
48156,40270
48248,40232
48318,40162
48356,40070
48356,39911
48294,39849
47950,39849
47850,39849
47842,39849
47842,39749
47850,39749
47850,39741
47950,39741
47950,39749
48294,39749
48356,39686
48356,39528
48318,39436
48297,39414
48334,39358
48361,39223
48361,39062
48402,39020
48402,39463
" /> 
<polyline style="fill-rule:evenodd;"
points="53160,38484
53177,38568
53241,38664
53337,38728
53450,38750
53562,38728
53578,38718
54176,38521
54815,38373
55168,38324
55168,38580
55187,38678
55203,38702
54747,39158
54722,39175
54655,39274
54638,39361
54638,39361
54632,39391
54638,39420
54638,39426
54595,39397
54478,39374
54361,39397
54262,39463
54196,39562
54184,39621
54045,39621
53947,39640
53865,39696
53809,39778
53790,39876
53790,40289
53809,40387
53865,40470
53947,40525
54045,40544
54179,40544
54179,41255
54045,41255
53947,41274
53865,41329
53809,41412
53790,41510
53790,41923
53809,42021
53865,42103
53947,42159
54045,42178
54179,42178
54179,44230
52477,42528
52477,41829
52948,41829
52948,41973
52986,42065
53057,42135
53149,42173
53214,42173
53276,42111
53276,41766
53376,41766
53376,42111
53439,42173
53504,42173
53596,42135
53666,42065
53704,41973
53704,41829
53642,41766
53376,41766
53276,41766
53011,41766
52948,41829
52477,41829
52477,41460
52948,41460
52948,41604
53011,41666
53276,41666
53276,41322
53376,41322
53376,41666
53642,41666
53704,41604
53704,41460
53666,41368
53596,41298
53504,41260
53439,41260
53376,41322
53276,41322
53214,41260
53149,41260
53057,41298
52986,41368
52948,41460
52477,41460
52477,40195
52948,40195
52948,40339
52986,40431
53057,40501
53149,40539
53214,40539
53276,40477
53276,40133
53376,40133
53376,40477
53439,40539
53504,40539
53596,40501
53666,40431
53704,40339
53704,40195
53642,40133
53376,40133
53276,40133
53011,40133
52948,40195
52477,40195
52477,39826
52948,39826
52948,39970
53011,40033
53276,40033
53276,39688
53376,39688
53376,40033
53642,40033
53704,39970
53704,39826
53666,39734
53596,39664
53504,39626
53439,39626
53376,39688
53276,39688
53214,39626
53149,39626
53057,39664
52986,39734
52948,39826
52477,39826
52477,39700
52460,39612
52394,39513
52295,39447
52178,39424
52061,39447
51962,39513
51896,39612
51884,39671
51745,39671
51647,39690
51565,39746
51509,39828
51490,39926
51490,40339
51509,40437
51565,40520
51647,40575
51745,40594
51879,40594
51879,41305
51745,41305
51647,41324
51565,41379
51509,41462
51490,41560
51490,41973
51509,42071
51565,42153
51647,42209
51745,42228
51879,42228
51879,42623
51873,42652
51896,42769
51930,42820
51962,42868
51987,42885
54554,45452
54571,45477
54670,45543
54757,45560
54757,45560
54787,45566
54816,45560
55295,45560
55361,45626
55325,45633
55242,45689
55187,45771
55168,45869
55168,46204
54306,46204
54306,45958
54287,45860
54232,45778
54149,45722
54051,45703
53796,45703
53737,45715
53677,45703
53422,45703
53362,45715
53303,45703
53048,45703
52950,45722
52867,45778
52812,45860
52800,45923
52787,45860
52732,45778
52649,45722
52551,45703
52296,45703
52198,45722
52115,45778
52060,45860
52050,45913
52039,45860
51984,45778
51975,45772
51975,45375
52108,45375
52243,45348
52318,45298
52364,45317
52526,45317
52676,45255
52791,45141
52853,44991
52853,44829
52791,44679
52676,44564
52526,44502
52443,44502
52456,44471
52456,44313
52394,44250
52050,44250
52050,44258
51950,44258
51950,44250
51605,44250
51550,44306
51494,44250
51150,44250
51150,44258
51050,44258
51050,44250
50705,44250
50700,44256
50694,44250
50350,44250
50350,44258
50250,44258
50250,44250
49905,44250
49875,44281
49844,44250
49500,44250
49500,44258
49400,44258
49400,43791
49500,43791
49500,44150
49844,44150
49875,44119
49905,44150
50250,44150
50250,43791
50350,43791
50350,44150
50694,44150
50700,44144
50705,44150
51050,44150
51050,43791
51150,43791
51150,44150
51494,44150
51550,44094
51605,44150
51950,44150
51950,43791
52050,43791
52050,44150
52394,44150
52456,44088
52456,43929
52418,43837
52348,43767
52256,43729
52112,43729
52050,43791
51950,43791
51887,43729
51743,43729
51651,43767
51581,43837
51550,43913
51518,43837
51448,43767
51356,43729
51212,43729
51150,43791
51050,43791
50987,43729
50843,43729
50751,43767
50700,43818
50648,43767
50556,43729
50412,43729
50350,43791
50250,43791
50187,43729
50043,43729
49951,43767
49881,43837
49875,43852
49868,43837
49798,43767
49706,43729
49562,43729
49500,43791
49400,43791
49400,42847
49747,42500
49772,42483
49789,42458
49789,42458
49837,42386
49839,42384
49856,42297
49856,42297
49862,42267
49856,42238
49856,41879
50648,41879
50648,42023
50686,42115
50757,42185
50849,42223
50914,42223
50976,42161
50976,41816
51076,41816
51076,42161
51139,42223
51204,42223
51296,42185
51366,42115
51404,42023
51404,41879
51342,41816
51076,41816
50976,41816
50711,41816
50648,41879
49856,41879
49856,41510
50648,41510
50648,41654
50711,41716
50976,41716
50976,41372
51076,41372
51076,41716
51342,41716
51404,41654
51404,41510
51366,41418
51296,41348
51204,41310
51139,41310
51076,41372
50976,41372
50914,41310
50849,41310
50757,41348
50686,41418
50648,41510
49856,41510
49856,41437
49862,41407
49856,41378
49856,41378
49839,41291
49821,41264
49789,41217
49789,41217
49772,41192
49747,41175
49661,41089
49661,40927
49634,40792
49571,40698
49574,40698
49574,40635
49636,40698
49691,40698
49783,40659
49854,40589
49892,40497
49892,40304
49833,40245
50648,40245
50648,40389
50686,40481
50757,40551
50849,40589
50914,40589
50976,40527
50976,40183
51076,40183
51076,40527
51139,40589
51204,40589
51296,40551
51366,40481
51404,40389
51404,40245
51342,40183
51076,40183
50976,40183
50711,40183
50648,40245
49833,40245
49829,40242
49574,40242
49574,40250
49523,40250
49523,40134
49574,40134
49574,40142
49829,40142
49892,40079
49892,39886
49888,39876
50648,39876
50648,40020
50711,40083
50976,40083
50976,39738
51076,39738
51076,40083
51342,40083
51404,40020
51404,39876
51366,39784
51296,39714
51204,39676
51139,39676
51076,39738
50976,39738
50914,39676
50849,39676
50757,39714
50686,39784
50648,39876
49888,39876
49877,39850
49895,39837
49967,39837
50117,39775
50231,39661
50293,39511
50293,39349
50231,39199
50117,39085
49967,39022
49897,39022
49897,38951
49877,38854
49822,38771
49739,38716
49642,38697
49405,38697
49338,38710
49317,38701
49262,38701
49200,38764
49200,38810
49170,38854
49151,38951
49151,39265
49148,39265
49148,38951
49129,38854
49100,38810
49100,38764
49075,38739
49075,38735
49081,38705
49057,38589
48991,38490
48892,38423
48805,38406
48775,38400
48746,38406
48603,38406
48603,37373
48649,37326
48711,37177
48711,37014
48649,36865
48534,36750
48385,36688
48222,36688
48073,36750
47958,36865
47896,37014
47896,37177
47958,37326
48004,37373
48004,38572
47953,38624
47791,38624
47656,38651
47547,38723
47547,33640
47955,33299
48492,32927
49061,32605
49657,32336
50223,32139
53160,32139
53160,38484
" /> 
<polyline style="fill-rule:evenodd;"
points="56433,43890
56433,44122
56495,44185
56829,44185
56829,44177
56929,44177
56929,44185
57264,44185
57326,44122
57326,44059
57393,44059
57455,44033
57455,44208
57465,44257
57455,44306
57455,44430
57326,44430
57326,44347
57264,44285
56929,44285
56929,44293
56829,44293
56829,44285
56495,44285
56433,44347
56433,44430
56136,44430
56107,44424
56077,44430
56077,44430
56071,44431
56071,43940
56061,43887
56434,43887
56433,43890
" /> 
<polyline style="fill-rule:evenodd;"
points="58505,43847
58497,43835
58500,43835
58505,43847
" /> 
<polyline style="fill-rule:evenodd;"
points="56775,38282
56937,38304
56937,38335
56929,38335
56929,38768
56992,38830
57126,38830
57218,38792
57288,38722
57326,38630
57326,38397
57280,38351
57425,38371
58064,38518
58687,38722
58975,38846
58928,38878
58845,39003
58844,39003
58820,38953
58651,38799
58490,38732
58400,38780
58400,39250
58407,39250
58407,39350
58400,39350
58400,39357
58300,39357
58300,39350
57829,39350
57782,39440
57825,39532
57803,39546
57787,39571
57696,39662
57671,39679
57605,39778
57588,39865
57588,39865
57582,39895
57588,39924
57588,40674
57582,40703
57605,40820
57652,40890
57671,40919
57696,40936
58313,41553
58312,41560
58312,42151
58314,42164
58301,42162
57710,42162
57613,42181
57530,42236
57475,42319
57455,42416
57455,42441
57454,42442
55744,42442
55594,42292
55594,41785
55816,41785
55914,41766
55997,41710
56052,41628
56071,41530
56071,41347
56433,41347
56433,41580
56471,41672
56541,41742
56633,41780
56767,41780
56829,41718
56829,41285
56929,41285
56929,41718
56992,41780
57126,41780
57218,41742
57288,41672
57326,41580
57326,41347
57264,41285
56929,41285
56829,41285
56495,41285
56433,41347
56071,41347
56071,41111
56433,41111
56433,41122
56495,41185
56829,41185
56829,41177
56929,41177
56929,41185
57264,41185
57326,41122
57326,40890
57288,40798
57218,40728
57206,40723
57257,40690
57312,40607
57331,40509
57331,39919
57312,39821
57257,39739
57174,39683
57076,39664
56683,39664
56585,39683
56502,39739
56447,39821
56428,39919
56428,40509
56428,40512
56071,40512
56071,40509
56071,39919
56052,39821
55997,39739
55914,39683
55816,39664
55423,39664
55325,39683
55242,39739
55237,39747
55237,39514
55592,39159
57782,39159
57829,39250
58300,39250
58300,38780
58209,38732
58048,38799
57879,38953
57782,39159
55592,39159
55810,38941
55835,38924
55853,38898
55901,38825
55903,38818
55914,38816
55997,38760
56052,38678
56071,38580
56071,38397
56433,38397
56433,38630
56471,38722
56541,38792
56633,38830
56767,38830
56829,38768
56829,38335
56495,38335
56433,38397
56071,38397
56071,38255
56120,38253
56775,38282
" /> 
<polyline style="fill-rule:evenodd;"
points="48725,39748
48695,39718
48725,39718
48725,39748
" /> 
<polyline style="fill-rule:evenodd;"
points="48825,39748
48825,39718
48856,39718
48825,39748
" /> 
<polyline style="fill-rule:evenodd;"
points="49230,39681
49200,39681
49200,39651
49230,39681
" /> 
<polyline style="fill-rule:evenodd;"
points="49099,39681
49069,39681
49099,39651
49099,39681
" /> 
</g> 
</svg>
