  0
SECTION
  2
HEADER
  9
$ANGBASE
  50
0.0
  9
$ANGDIR
  70
  1
  9
$MEASUREMENT
  70
0
  0
ENDSEC
  0
SECTION
  2
TABLES
  0
TABLE
  2
LTYPE
  70
4
  0
LTYPE
  5
40F
  2
CONTINUOUS
  70
0
  3
Solid line
  72
65
  73
0
  40
0.0
  0
LTYPE
  5
410
  2
DASHDOT
 70
0
  3
Dash Dot ____ _ ____ _
 72
65
 73
4
 40
2.0
 49
1.25
 49
-0.25
 49
0.25
 49
-0.25
  0
LTYPE
  5
411
  2
DASHED
 70
0
  3
Dashed __ __ __ __ __
 72
65
 73
2
 40
0.75
 49
0.5
 49
-0.25
  0
LTYPE
  5
43B
  2
DOTTED
 70
0
  3
Dotted .  .  .  .
 72
65
 73
2
 40
0.2
 49
0.0
 49
-0.2
  0
ENDTAB
  0
TABLE
  2
STYLE
  70
4
  0
STYLE
  2
KICAD
  70
0
  40
0
  41
1
  42
1
  50
0
  71
0
  3
isocp.shx
  0
STYLE
  2
KICADB
  70
0
  40
0
  41
1
  42
1
  50
0
  71
0
  3
isocp.shx
  0
STYLE
  2
KICADI
  70
0
  40
0
  41
1
  42
1
  50
15
  71
0
  3
isocp.shx
  0
STYLE
  2
KICADBI
  70
0
  40
0
  41
1
  42
1
  50
15
  71
0
  3
isocp.shx
  0
ENDTAB
  0
TABLE
  2
LAYER
  70
30
  0
LAYER
  2
BLACK
  70
0
  62
7
  6
CONTINUOUS
  0
LAYER
  2
GRAY1
  70
0
  62
251
  6
CONTINUOUS
  0
LAYER
  2
GRAY2
  70
0
  62
8
  6
CONTINUOUS
  0
LAYER
  2
GRAY3
  70
0
  62
9
  6
CONTINUOUS
  0
LAYER
  2
WHITE
  70
0
  62
7
  6
CONTINUOUS
  0
LAYER
  2
LYELLOW
  70
0
  62
51
  6
CONTINUOUS
  0
LAYER
  2
BLUE1
  70
0
  62
178
  6
CONTINUOUS
  0
LAYER
  2
GREEN1
  70
0
  62
98
  6
CONTINUOUS
  0
LAYER
  2
CYAN1
  70
0
  62
138
  6
CONTINUOUS
  0
LAYER
  2
RED1
  70
0
  62
18
  6
CONTINUOUS
  0
LAYER
  2
MAGENTA1
  70
0
  62
228
  6
CONTINUOUS
  0
LAYER
  2
BROWN1
  70
0
  62
58
  6
CONTINUOUS
  0
LAYER
  2
BLUE2
  70
0
  62
5
  6
CONTINUOUS
  0
LAYER
  2
GREEN2
  70
0
  62
3
  6
CONTINUOUS
  0
LAYER
  2
CYAN2
  70
0
  62
4
  6
CONTINUOUS
  0
LAYER
  2
RED2
  70
0
  62
1
  6
CONTINUOUS
  0
LAYER
  2
MAGENTA2
  70
0
  62
6
  6
CONTINUOUS
  0
LAYER
  2
BROWN2
  70
0
  62
54
  6
CONTINUOUS
  0
LAYER
  2
BLUE3
  70
0
  62
171
  6
CONTINUOUS
  0
LAYER
  2
GREEN3
  70
0
  62
91
  6
CONTINUOUS
  0
LAYER
  2
CYAN3
  70
0
  62
131
  6
CONTINUOUS
  0
LAYER
  2
RED3
  70
0
  62
11
  6
CONTINUOUS
  0
LAYER
  2
MAGENTA3
  70
0
  62
221
  6
CONTINUOUS
  0
LAYER
  2
YELLOW3
  70
0
  62
2
  6
CONTINUOUS
  0
LAYER
  2
BLUE4
  70
0
  62
5
  6
CONTINUOUS
  0
LAYER
  2
GREEN4
  70
0
  62
3
  6
CONTINUOUS
  0
LAYER
  2
CYAN4
  70
0
  62
4
  6
CONTINUOUS
  0
LAYER
  2
RED4
  70
0
  62
1
  6
CONTINUOUS
  0
LAYER
  2
MAGENTA4
  70
0
  62
6
  6
CONTINUOUS
  0
LAYER
  2
YELLOW4
  70
0
  62
2
  6
CONTINUOUS
  0
ENDTAB
  0
ENDSEC
  0
SECTION
  2
ENTITIES
0
LINE
8
BLACK
6
CONTINUOUS
10
177.002
20
-166.007
11
177.002
21
-198.007
0
LINE
8
BLACK
6
CONTINUOUS
10
177.002
20
-198.007
11
285.002
21
-198.007
0
LINE
8
BLACK
6
CONTINUOUS
10
285.002
20
-198.007
11
285.002
21
-166.007
0
LINE
8
BLACK
6
CONTINUOUS
10
285.002
20
-166.007
11
177.002
21
-166.007
0
LINE
8
BLACK
6
CONTINUOUS
10
10
20
-10
11
10
21
-200.007
0
LINE
8
BLACK
6
CONTINUOUS
10
10
20
-200.007
11
287.002
21
-200.007
0
LINE
8
BLACK
6
CONTINUOUS
10
287.002
20
-200.007
11
287.002
21
-10
0
LINE
8
BLACK
6
CONTINUOUS
10
287.002
20
-10
11
10
21
-10
0
LINE
8
BLACK
6
CONTINUOUS
10
12
20
-12
11
12
21
-198.007
0
LINE
8
BLACK
6
CONTINUOUS
10
12
20
-198.007
11
285.002
21
-198.007
0
LINE
8
BLACK
6
CONTINUOUS
10
285.002
20
-198.007
11
285.002
21
-12
0
LINE
8
BLACK
6
CONTINUOUS
10
285.002
20
-12
11
12
21
-12
0
LINE
8
BLACK
6
CONTINUOUS
10
60
20
-12
11
60
21
-10
0
LINE
8
BLACK
6
CONTINUOUS
10
110
20
-12
11
110
21
-10
0
LINE
8
BLACK
6
CONTINUOUS
10
160
20
-12
11
160
21
-10
0
LINE
8
BLACK
6
CONTINUOUS
10
210
20
-12
11
210
21
-10
0
LINE
8
BLACK
6
CONTINUOUS
10
260
20
-12
11
260
21
-10
0
LINE
8
BLACK
6
CONTINUOUS
10
36.0655
20
-11.5881
11
35.3226
21
-11.5881
0
LINE
8
BLACK
6
CONTINUOUS
10
35.694
20
-11.5881
11
35.694
21
-10.2881
0
LINE
8
BLACK
6
CONTINUOUS
10
35.694
20
-10.2881
11
35.5702
21
-10.4738
0
LINE
8
BLACK
6
CONTINUOUS
10
35.5702
20
-10.4738
11
35.4464
21
-10.5976
0
LINE
8
BLACK
6
CONTINUOUS
10
35.4464
20
-10.5976
11
35.3226
21
-10.6595
0
LINE
8
BLACK
6
CONTINUOUS
10
85.3226
20
-10.4119
11
85.3845
21
-10.35
0
LINE
8
BLACK
6
CONTINUOUS
10
85.3845
20
-10.35
11
85.5083
21
-10.2881
0
LINE
8
BLACK
6
CONTINUOUS
10
85.5083
20
-10.2881
11
85.8179
21
-10.2881
0
LINE
8
BLACK
6
CONTINUOUS
10
85.8179
20
-10.2881
11
85.9417
21
-10.35
0
LINE
8
BLACK
6
CONTINUOUS
10
85.9417
20
-10.35
11
86.0036
21
-10.4119
0
LINE
8
BLACK
6
CONTINUOUS
10
86.0036
20
-10.4119
11
86.0655
21
-10.5357
0
LINE
8
BLACK
6
CONTINUOUS
10
86.0655
20
-10.5357
11
86.0655
21
-10.6595
0
LINE
8
BLACK
6
CONTINUOUS
10
86.0655
20
-10.6595
11
86.0036
21
-10.8452
0
LINE
8
BLACK
6
CONTINUOUS
10
86.0036
20
-10.8452
11
85.2607
21
-11.5881
0
LINE
8
BLACK
6
CONTINUOUS
10
85.2607
20
-11.5881
11
86.0655
21
-11.5881
0
LINE
8
BLACK
6
CONTINUOUS
10
135.261
20
-10.2881
11
136.065
21
-10.2881
0
LINE
8
BLACK
6
CONTINUOUS
10
136.065
20
-10.2881
11
135.632
21
-10.7833
0
LINE
8
BLACK
6
CONTINUOUS
10
135.632
20
-10.7833
11
135.818
21
-10.7833
0
LINE
8
BLACK
6
CONTINUOUS
10
135.818
20
-10.7833
11
135.942
21
-10.8452
0
LINE
8
BLACK
6
CONTINUOUS
10
135.942
20
-10.8452
11
136.004
21
-10.9071
0
LINE
8
BLACK
6
CONTINUOUS
10
136.004
20
-10.9071
11
136.065
21
-11.031
0
LINE
8
BLACK
6
CONTINUOUS
10
136.065
20
-11.031
11
136.065
21
-11.3405
0
LINE
8
BLACK
6
CONTINUOUS
10
136.065
20
-11.3405
11
136.004
21
-11.4643
0
LINE
8
BLACK
6
CONTINUOUS
10
136.004
20
-11.4643
11
135.942
21
-11.5262
0
LINE
8
BLACK
6
CONTINUOUS
10
135.942
20
-11.5262
11
135.818
21
-11.5881
0
LINE
8
BLACK
6
CONTINUOUS
10
135.818
20
-11.5881
11
135.446
21
-11.5881
0
LINE
8
BLACK
6
CONTINUOUS
10
135.446
20
-11.5881
11
135.323
21
-11.5262
0
LINE
8
BLACK
6
CONTINUOUS
10
135.323
20
-11.5262
11
135.261
21
-11.4643
0
LINE
8
BLACK
6
CONTINUOUS
10
185.942
20
-10.7214
11
185.942
21
-11.5881
0
LINE
8
BLACK
6
CONTINUOUS
10
185.632
20
-10.2262
11
185.323
21
-11.1548
0
LINE
8
BLACK
6
CONTINUOUS
10
185.323
20
-11.1548
11
186.127
21
-11.1548
0
LINE
8
BLACK
6
CONTINUOUS
10
236.004
20
-10.2881
11
235.385
21
-10.2881
0
LINE
8
BLACK
6
CONTINUOUS
10
235.385
20
-10.2881
11
235.323
21
-10.9071
0
LINE
8
BLACK
6
CONTINUOUS
10
235.323
20
-10.9071
11
235.385
21
-10.8452
0
LINE
8
BLACK
6
CONTINUOUS
10
235.385
20
-10.8452
11
235.508
21
-10.7833
0
LINE
8
BLACK
6
CONTINUOUS
10
235.508
20
-10.7833
11
235.818
21
-10.7833
0
LINE
8
BLACK
6
CONTINUOUS
10
235.818
20
-10.7833
11
235.942
21
-10.8452
0
LINE
8
BLACK
6
CONTINUOUS
10
235.942
20
-10.8452
11
236.004
21
-10.9071
0
LINE
8
BLACK
6
CONTINUOUS
10
236.004
20
-10.9071
11
236.065
21
-11.031
0
LINE
8
BLACK
6
CONTINUOUS
10
236.065
20
-11.031
11
236.065
21
-11.3405
0
LINE
8
BLACK
6
CONTINUOUS
10
236.065
20
-11.3405
11
236.004
21
-11.4643
0
LINE
8
BLACK
6
CONTINUOUS
10
236.004
20
-11.4643
11
235.942
21
-11.5262
0
LINE
8
BLACK
6
CONTINUOUS
10
235.942
20
-11.5262
11
235.818
21
-11.5881
0
LINE
8
BLACK
6
CONTINUOUS
10
235.818
20
-11.5881
11
235.508
21
-11.5881
0
LINE
8
BLACK
6
CONTINUOUS
10
235.508
20
-11.5881
11
235.385
21
-11.5262
0
LINE
8
BLACK
6
CONTINUOUS
10
235.385
20
-11.5262
11
235.323
21
-11.4643
0
LINE
8
BLACK
6
CONTINUOUS
10
285.942
20
-10.2881
11
285.694
21
-10.2881
0
LINE
8
BLACK
6
CONTINUOUS
10
285.694
20
-10.2881
11
285.57
21
-10.35
0
LINE
8
BLACK
6
CONTINUOUS
10
285.57
20
-10.35
11
285.508
21
-10.4119
0
LINE
8
BLACK
6
CONTINUOUS
10
285.508
20
-10.4119
11
285.385
21
-10.5976
0
LINE
8
BLACK
6
CONTINUOUS
10
285.385
20
-10.5976
11
285.323
21
-10.8452
0
LINE
8
BLACK
6
CONTINUOUS
10
285.323
20
-10.8452
11
285.323
21
-11.3405
0
LINE
8
BLACK
6
CONTINUOUS
10
285.323
20
-11.3405
11
285.385
21
-11.4643
0
LINE
8
BLACK
6
CONTINUOUS
10
285.385
20
-11.4643
11
285.446
21
-11.5262
0
LINE
8
BLACK
6
CONTINUOUS
10
285.446
20
-11.5262
11
285.57
21
-11.5881
0
LINE
8
BLACK
6
CONTINUOUS
10
285.57
20
-11.5881
11
285.818
21
-11.5881
0
LINE
8
BLACK
6
CONTINUOUS
10
285.818
20
-11.5881
11
285.942
21
-11.5262
0
LINE
8
BLACK
6
CONTINUOUS
10
285.942
20
-11.5262
11
286.004
21
-11.4643
0
LINE
8
BLACK
6
CONTINUOUS
10
286.004
20
-11.4643
11
286.065
21
-11.3405
0
LINE
8
BLACK
6
CONTINUOUS
10
286.065
20
-11.3405
11
286.065
21
-11.031
0
LINE
8
BLACK
6
CONTINUOUS
10
286.065
20
-11.031
11
286.004
21
-10.9071
0
LINE
8
BLACK
6
CONTINUOUS
10
286.004
20
-10.9071
11
285.942
21
-10.8452
0
LINE
8
BLACK
6
CONTINUOUS
10
285.942
20
-10.8452
11
285.818
21
-10.7833
0
LINE
8
BLACK
6
CONTINUOUS
10
285.818
20
-10.7833
11
285.57
21
-10.7833
0
LINE
8
BLACK
6
CONTINUOUS
10
285.57
20
-10.7833
11
285.446
21
-10.8452
0
LINE
8
BLACK
6
CONTINUOUS
10
285.446
20
-10.8452
11
285.385
21
-10.9071
0
LINE
8
BLACK
6
CONTINUOUS
10
285.385
20
-10.9071
11
285.323
21
-11.031
0
LINE
8
BLACK
6
CONTINUOUS
10
60
20
-198.007
11
60
21
-200.007
0
LINE
8
BLACK
6
CONTINUOUS
10
110
20
-198.007
11
110
21
-200.007
0
LINE
8
BLACK
6
CONTINUOUS
10
160
20
-198.007
11
160
21
-200.007
0
LINE
8
BLACK
6
CONTINUOUS
10
210
20
-198.007
11
210
21
-200.007
0
LINE
8
BLACK
6
CONTINUOUS
10
260
20
-198.007
11
260
21
-200.007
0
LINE
8
BLACK
6
CONTINUOUS
10
36.0655
20
-199.595
11
35.3226
21
-199.595
0
LINE
8
BLACK
6
CONTINUOUS
10
35.694
20
-199.595
11
35.694
21
-198.295
0
LINE
8
BLACK
6
CONTINUOUS
10
35.694
20
-198.295
11
35.5702
21
-198.481
0
LINE
8
BLACK
6
CONTINUOUS
10
35.5702
20
-198.481
11
35.4464
21
-198.605
0
LINE
8
BLACK
6
CONTINUOUS
10
35.4464
20
-198.605
11
35.3226
21
-198.667
0
LINE
8
BLACK
6
CONTINUOUS
10
85.3226
20
-198.419
11
85.3845
21
-198.357
0
LINE
8
BLACK
6
CONTINUOUS
10
85.3845
20
-198.357
11
85.5083
21
-198.295
0
LINE
8
BLACK
6
CONTINUOUS
10
85.5083
20
-198.295
11
85.8179
21
-198.295
0
LINE
8
BLACK
6
CONTINUOUS
10
85.8179
20
-198.295
11
85.9417
21
-198.357
0
LINE
8
BLACK
6
CONTINUOUS
10
85.9417
20
-198.357
11
86.0036
21
-198.419
0
LINE
8
BLACK
6
CONTINUOUS
10
86.0036
20
-198.419
11
86.0655
21
-198.543
0
LINE
8
BLACK
6
CONTINUOUS
10
86.0655
20
-198.543
11
86.0655
21
-198.667
0
LINE
8
BLACK
6
CONTINUOUS
10
86.0655
20
-198.667
11
86.0036
21
-198.852
0
LINE
8
BLACK
6
CONTINUOUS
10
86.0036
20
-198.852
11
85.2607
21
-199.595
0
LINE
8
BLACK
6
CONTINUOUS
10
85.2607
20
-199.595
11
86.0655
21
-199.595
0
LINE
8
BLACK
6
CONTINUOUS
10
135.261
20
-198.295
11
136.065
21
-198.295
0
LINE
8
BLACK
6
CONTINUOUS
10
136.065
20
-198.295
11
135.632
21
-198.791
0
LINE
8
BLACK
6
CONTINUOUS
10
135.632
20
-198.791
11
135.818
21
-198.791
0
LINE
8
BLACK
6
CONTINUOUS
10
135.818
20
-198.791
11
135.942
21
-198.852
0
LINE
8
BLACK
6
CONTINUOUS
10
135.942
20
-198.852
11
136.004
21
-198.914
0
LINE
8
BLACK
6
CONTINUOUS
10
136.004
20
-198.914
11
136.065
21
-199.038
0
LINE
8
BLACK
6
CONTINUOUS
10
136.065
20
-199.038
11
136.065
21
-199.348
0
LINE
8
BLACK
6
CONTINUOUS
10
136.065
20
-199.348
11
136.004
21
-199.471
0
LINE
8
BLACK
6
CONTINUOUS
10
136.004
20
-199.471
11
135.942
21
-199.533
0
LINE
8
BLACK
6
CONTINUOUS
10
135.942
20
-199.533
11
135.818
21
-199.595
0
LINE
8
BLACK
6
CONTINUOUS
10
135.818
20
-199.595
11
135.446
21
-199.595
0
LINE
8
BLACK
6
CONTINUOUS
10
135.446
20
-199.595
11
135.323
21
-199.533
0
LINE
8
BLACK
6
CONTINUOUS
10
135.323
20
-199.533
11
135.261
21
-199.471
0
LINE
8
BLACK
6
CONTINUOUS
10
185.942
20
-198.729
11
185.942
21
-199.595
0
LINE
8
BLACK
6
CONTINUOUS
10
185.632
20
-198.233
11
185.323
21
-199.162
0
LINE
8
BLACK
6
CONTINUOUS
10
185.323
20
-199.162
11
186.127
21
-199.162
0
LINE
8
BLACK
6
CONTINUOUS
10
236.004
20
-198.295
11
235.385
21
-198.295
0
LINE
8
BLACK
6
CONTINUOUS
10
235.385
20
-198.295
11
235.323
21
-198.914
0
LINE
8
BLACK
6
CONTINUOUS
10
235.323
20
-198.914
11
235.385
21
-198.852
0
LINE
8
BLACK
6
CONTINUOUS
10
235.385
20
-198.852
11
235.508
21
-198.791
0
LINE
8
BLACK
6
CONTINUOUS
10
235.508
20
-198.791
11
235.818
21
-198.791
0
LINE
8
BLACK
6
CONTINUOUS
10
235.818
20
-198.791
11
235.942
21
-198.852
0
LINE
8
BLACK
6
CONTINUOUS
10
235.942
20
-198.852
11
236.004
21
-198.914
0
LINE
8
BLACK
6
CONTINUOUS
10
236.004
20
-198.914
11
236.065
21
-199.038
0
LINE
8
BLACK
6
CONTINUOUS
10
236.065
20
-199.038
11
236.065
21
-199.348
0
LINE
8
BLACK
6
CONTINUOUS
10
236.065
20
-199.348
11
236.004
21
-199.471
0
LINE
8
BLACK
6
CONTINUOUS
10
236.004
20
-199.471
11
235.942
21
-199.533
0
LINE
8
BLACK
6
CONTINUOUS
10
235.942
20
-199.533
11
235.818
21
-199.595
0
LINE
8
BLACK
6
CONTINUOUS
10
235.818
20
-199.595
11
235.508
21
-199.595
0
LINE
8
BLACK
6
CONTINUOUS
10
235.508
20
-199.595
11
235.385
21
-199.533
0
LINE
8
BLACK
6
CONTINUOUS
10
235.385
20
-199.533
11
235.323
21
-199.471
0
LINE
8
BLACK
6
CONTINUOUS
10
285.942
20
-198.295
11
285.694
21
-198.295
0
LINE
8
BLACK
6
CONTINUOUS
10
285.694
20
-198.295
11
285.57
21
-198.357
0
LINE
8
BLACK
6
CONTINUOUS
10
285.57
20
-198.357
11
285.508
21
-198.419
0
LINE
8
BLACK
6
CONTINUOUS
10
285.508
20
-198.419
11
285.385
21
-198.605
0
LINE
8
BLACK
6
CONTINUOUS
10
285.385
20
-198.605
11
285.323
21
-198.852
0
LINE
8
BLACK
6
CONTINUOUS
10
285.323
20
-198.852
11
285.323
21
-199.348
0
LINE
8
BLACK
6
CONTINUOUS
10
285.323
20
-199.348
11
285.385
21
-199.471
0
LINE
8
BLACK
6
CONTINUOUS
10
285.385
20
-199.471
11
285.446
21
-199.533
0
LINE
8
BLACK
6
CONTINUOUS
10
285.446
20
-199.533
11
285.57
21
-199.595
0
LINE
8
BLACK
6
CONTINUOUS
10
285.57
20
-199.595
11
285.818
21
-199.595
0
LINE
8
BLACK
6
CONTINUOUS
10
285.818
20
-199.595
11
285.942
21
-199.533
0
LINE
8
BLACK
6
CONTINUOUS
10
285.942
20
-199.533
11
286.004
21
-199.471
0
LINE
8
BLACK
6
CONTINUOUS
10
286.004
20
-199.471
11
286.065
21
-199.348
0
LINE
8
BLACK
6
CONTINUOUS
10
286.065
20
-199.348
11
286.065
21
-199.038
0
LINE
8
BLACK
6
CONTINUOUS
10
286.065
20
-199.038
11
286.004
21
-198.914
0
LINE
8
BLACK
6
CONTINUOUS
10
286.004
20
-198.914
11
285.942
21
-198.852
0
LINE
8
BLACK
6
CONTINUOUS
10
285.942
20
-198.852
11
285.818
21
-198.791
0
LINE
8
BLACK
6
CONTINUOUS
10
285.818
20
-198.791
11
285.57
21
-198.791
0
LINE
8
BLACK
6
CONTINUOUS
10
285.57
20
-198.791
11
285.446
21
-198.852
0
LINE
8
BLACK
6
CONTINUOUS
10
285.446
20
-198.852
11
285.385
21
-198.914
0
LINE
8
BLACK
6
CONTINUOUS
10
285.385
20
-198.914
11
285.323
21
-199.038
0
LINE
8
BLACK
6
CONTINUOUS
10
10
20
-60
11
12
21
-60
0
LINE
8
BLACK
6
CONTINUOUS
10
10
20
-110
11
12
21
-110
0
LINE
8
BLACK
6
CONTINUOUS
10
10
20
-160
11
12
21
-160
0
LINE
8
BLACK
6
CONTINUOUS
10
10.6905
20
-35.2167
11
11.3095
21
-35.2167
0
LINE
8
BLACK
6
CONTINUOUS
10
10.5667
20
-35.5881
11
11
21
-34.2881
0
LINE
8
BLACK
6
CONTINUOUS
10
11
20
-34.2881
11
11.4333
21
-35.5881
0
LINE
8
BLACK
6
CONTINUOUS
10
11.0929
20
-84.9071
11
11.2786
21
-84.969
0
LINE
8
BLACK
6
CONTINUOUS
10
11.2786
20
-84.969
11
11.3405
21
-85.031
0
LINE
8
BLACK
6
CONTINUOUS
10
11.3405
20
-85.031
11
11.4024
21
-85.1548
0
LINE
8
BLACK
6
CONTINUOUS
10
11.4024
20
-85.1548
11
11.4024
21
-85.3405
0
LINE
8
BLACK
6
CONTINUOUS
10
11.4024
20
-85.3405
11
11.3405
21
-85.4643
0
LINE
8
BLACK
6
CONTINUOUS
10
11.3405
20
-85.4643
11
11.2786
21
-85.5262
0
LINE
8
BLACK
6
CONTINUOUS
10
11.2786
20
-85.5262
11
11.1548
21
-85.5881
0
LINE
8
BLACK
6
CONTINUOUS
10
11.1548
20
-85.5881
11
10.6595
21
-85.5881
0
LINE
8
BLACK
6
CONTINUOUS
10
10.6595
20
-85.5881
11
10.6595
21
-84.2881
0
LINE
8
BLACK
6
CONTINUOUS
10
10.6595
20
-84.2881
11
11.0929
21
-84.2881
0
LINE
8
BLACK
6
CONTINUOUS
10
11.0929
20
-84.2881
11
11.2167
21
-84.35
0
LINE
8
BLACK
6
CONTINUOUS
10
11.2167
20
-84.35
11
11.2786
21
-84.4119
0
LINE
8
BLACK
6
CONTINUOUS
10
11.2786
20
-84.4119
11
11.3405
21
-84.5357
0
LINE
8
BLACK
6
CONTINUOUS
10
11.3405
20
-84.5357
11
11.3405
21
-84.6595
0
LINE
8
BLACK
6
CONTINUOUS
10
11.3405
20
-84.6595
11
11.2786
21
-84.7833
0
LINE
8
BLACK
6
CONTINUOUS
10
11.2786
20
-84.7833
11
11.2167
21
-84.8452
0
LINE
8
BLACK
6
CONTINUOUS
10
11.2167
20
-84.8452
11
11.0929
21
-84.9071
0
LINE
8
BLACK
6
CONTINUOUS
10
11.0929
20
-84.9071
11
10.6595
21
-84.9071
0
LINE
8
BLACK
6
CONTINUOUS
10
11.4024
20
-135.464
11
11.3405
21
-135.526
0
LINE
8
BLACK
6
CONTINUOUS
10
11.3405
20
-135.526
11
11.1548
21
-135.588
0
LINE
8
BLACK
6
CONTINUOUS
10
11.1548
20
-135.588
11
11.031
21
-135.588
0
LINE
8
BLACK
6
CONTINUOUS
10
11.031
20
-135.588
11
10.8452
21
-135.526
0
LINE
8
BLACK
6
CONTINUOUS
10
10.8452
20
-135.526
11
10.7214
21
-135.402
0
LINE
8
BLACK
6
CONTINUOUS
10
10.7214
20
-135.402
11
10.6595
21
-135.279
0
LINE
8
BLACK
6
CONTINUOUS
10
10.6595
20
-135.279
11
10.5976
21
-135.031
0
LINE
8
BLACK
6
CONTINUOUS
10
10.5976
20
-135.031
11
10.5976
21
-134.845
0
LINE
8
BLACK
6
CONTINUOUS
10
10.5976
20
-134.845
11
10.6595
21
-134.598
0
LINE
8
BLACK
6
CONTINUOUS
10
10.6595
20
-134.598
11
10.7214
21
-134.474
0
LINE
8
BLACK
6
CONTINUOUS
10
10.7214
20
-134.474
11
10.8452
21
-134.35
0
LINE
8
BLACK
6
CONTINUOUS
10
10.8452
20
-134.35
11
11.031
21
-134.288
0
LINE
8
BLACK
6
CONTINUOUS
10
11.031
20
-134.288
11
11.1548
21
-134.288
0
LINE
8
BLACK
6
CONTINUOUS
10
11.1548
20
-134.288
11
11.3405
21
-134.35
0
LINE
8
BLACK
6
CONTINUOUS
10
11.3405
20
-134.35
11
11.4024
21
-134.412
0
LINE
8
BLACK
6
CONTINUOUS
10
10.6595
20
-185.588
11
10.6595
21
-184.288
0
LINE
8
BLACK
6
CONTINUOUS
10
10.6595
20
-184.288
11
10.969
21
-184.288
0
LINE
8
BLACK
6
CONTINUOUS
10
10.969
20
-184.288
11
11.1548
21
-184.35
0
LINE
8
BLACK
6
CONTINUOUS
10
11.1548
20
-184.35
11
11.2786
21
-184.474
0
LINE
8
BLACK
6
CONTINUOUS
10
11.2786
20
-184.474
11
11.3405
21
-184.598
0
LINE
8
BLACK
6
CONTINUOUS
10
11.3405
20
-184.598
11
11.4024
21
-184.845
0
LINE
8
BLACK
6
CONTINUOUS
10
11.4024
20
-184.845
11
11.4024
21
-185.031
0
LINE
8
BLACK
6
CONTINUOUS
10
11.4024
20
-185.031
11
11.3405
21
-185.279
0
LINE
8
BLACK
6
CONTINUOUS
10
11.3405
20
-185.279
11
11.2786
21
-185.402
0
LINE
8
BLACK
6
CONTINUOUS
10
11.2786
20
-185.402
11
11.1548
21
-185.526
0
LINE
8
BLACK
6
CONTINUOUS
10
11.1548
20
-185.526
11
10.969
21
-185.588
0
LINE
8
BLACK
6
CONTINUOUS
10
10.969
20
-185.588
11
10.6595
21
-185.588
0
LINE
8
BLACK
6
CONTINUOUS
10
287.002
20
-60
11
285.002
21
-60
0
LINE
8
BLACK
6
CONTINUOUS
10
287.002
20
-110
11
285.002
21
-110
0
LINE
8
BLACK
6
CONTINUOUS
10
287.002
20
-160
11
285.002
21
-160
0
LINE
8
BLACK
6
CONTINUOUS
10
285.693
20
-35.2167
11
286.312
21
-35.2167
0
LINE
8
BLACK
6
CONTINUOUS
10
285.569
20
-35.5881
11
286.002
21
-34.2881
0
LINE
8
BLACK
6
CONTINUOUS
10
286.002
20
-34.2881
11
286.436
21
-35.5881
0
LINE
8
BLACK
6
CONTINUOUS
10
286.095
20
-84.9071
11
286.281
21
-84.969
0
LINE
8
BLACK
6
CONTINUOUS
10
286.281
20
-84.969
11
286.343
21
-85.031
0
LINE
8
BLACK
6
CONTINUOUS
10
286.343
20
-85.031
11
286.405
21
-85.1548
0
LINE
8
BLACK
6
CONTINUOUS
10
286.405
20
-85.1548
11
286.405
21
-85.3405
0
LINE
8
BLACK
6
CONTINUOUS
10
286.405
20
-85.3405
11
286.343
21
-85.4643
0
LINE
8
BLACK
6
CONTINUOUS
10
286.343
20
-85.4643
11
286.281
21
-85.5262
0
LINE
8
BLACK
6
CONTINUOUS
10
286.281
20
-85.5262
11
286.157
21
-85.5881
0
LINE
8
BLACK
6
CONTINUOUS
10
286.157
20
-85.5881
11
285.662
21
-85.5881
0
LINE
8
BLACK
6
CONTINUOUS
10
285.662
20
-85.5881
11
285.662
21
-84.2881
0
LINE
8
BLACK
6
CONTINUOUS
10
285.662
20
-84.2881
11
286.095
21
-84.2881
0
LINE
8
BLACK
6
CONTINUOUS
10
286.095
20
-84.2881
11
286.219
21
-84.35
0
LINE
8
BLACK
6
CONTINUOUS
10
286.219
20
-84.35
11
286.281
21
-84.4119
0
LINE
8
BLACK
6
CONTINUOUS
10
286.281
20
-84.4119
11
286.343
21
-84.5357
0
LINE
8
BLACK
6
CONTINUOUS
10
286.343
20
-84.5357
11
286.343
21
-84.6595
0
LINE
8
BLACK
6
CONTINUOUS
10
286.343
20
-84.6595
11
286.281
21
-84.7833
0
LINE
8
BLACK
6
CONTINUOUS
10
286.281
20
-84.7833
11
286.219
21
-84.8452
0
LINE
8
BLACK
6
CONTINUOUS
10
286.219
20
-84.8452
11
286.095
21
-84.9071
0
LINE
8
BLACK
6
CONTINUOUS
10
286.095
20
-84.9071
11
285.662
21
-84.9071
0
LINE
8
BLACK
6
CONTINUOUS
10
286.405
20
-135.464
11
286.343
21
-135.526
0
LINE
8
BLACK
6
CONTINUOUS
10
286.343
20
-135.526
11
286.157
21
-135.588
0
LINE
8
BLACK
6
CONTINUOUS
10
286.157
20
-135.588
11
286.033
21
-135.588
0
LINE
8
BLACK
6
CONTINUOUS
10
286.033
20
-135.588
11
285.847
21
-135.526
0
LINE
8
BLACK
6
CONTINUOUS
10
285.847
20
-135.526
11
285.724
21
-135.402
0
LINE
8
BLACK
6
CONTINUOUS
10
285.724
20
-135.402
11
285.662
21
-135.279
0
LINE
8
BLACK
6
CONTINUOUS
10
285.662
20
-135.279
11
285.6
21
-135.031
0
LINE
8
BLACK
6
CONTINUOUS
10
285.6
20
-135.031
11
285.6
21
-134.845
0
LINE
8
BLACK
6
CONTINUOUS
10
285.6
20
-134.845
11
285.662
21
-134.598
0
LINE
8
BLACK
6
CONTINUOUS
10
285.662
20
-134.598
11
285.724
21
-134.474
0
LINE
8
BLACK
6
CONTINUOUS
10
285.724
20
-134.474
11
285.847
21
-134.35
0
LINE
8
BLACK
6
CONTINUOUS
10
285.847
20
-134.35
11
286.033
21
-134.288
0
LINE
8
BLACK
6
CONTINUOUS
10
286.033
20
-134.288
11
286.157
21
-134.288
0
LINE
8
BLACK
6
CONTINUOUS
10
286.157
20
-134.288
11
286.343
21
-134.35
0
LINE
8
BLACK
6
CONTINUOUS
10
286.343
20
-134.35
11
286.405
21
-134.412
0
LINE
8
BLACK
6
CONTINUOUS
10
285.662
20
-185.588
11
285.662
21
-184.288
0
LINE
8
BLACK
6
CONTINUOUS
10
285.662
20
-184.288
11
285.971
21
-184.288
0
LINE
8
BLACK
6
CONTINUOUS
10
285.971
20
-184.288
11
286.157
21
-184.35
0
LINE
8
BLACK
6
CONTINUOUS
10
286.157
20
-184.35
11
286.281
21
-184.474
0
LINE
8
BLACK
6
CONTINUOUS
10
286.281
20
-184.474
11
286.343
21
-184.598
0
LINE
8
BLACK
6
CONTINUOUS
10
286.343
20
-184.598
11
286.405
21
-184.845
0
LINE
8
BLACK
6
CONTINUOUS
10
286.405
20
-184.845
11
286.405
21
-185.031
0
LINE
8
BLACK
6
CONTINUOUS
10
286.405
20
-185.031
11
286.343
21
-185.279
0
LINE
8
BLACK
6
CONTINUOUS
10
286.343
20
-185.279
11
286.281
21
-185.402
0
LINE
8
BLACK
6
CONTINUOUS
10
286.281
20
-185.402
11
286.157
21
-185.526
0
LINE
8
BLACK
6
CONTINUOUS
10
286.157
20
-185.526
11
285.971
21
-185.588
0
LINE
8
BLACK
6
CONTINUOUS
10
285.971
20
-185.588
11
285.662
21
-185.588
0
LINE
8
BLACK
6
CONTINUOUS
10
200.434
20
-193.786
11
200.434
21
-192.286
0
LINE
8
BLACK
6
CONTINUOUS
10
200.434
20
-192.286
11
200.791
21
-192.286
0
LINE
8
BLACK
6
CONTINUOUS
10
200.791
20
-192.286
11
201.006
21
-192.357
0
LINE
8
BLACK
6
CONTINUOUS
10
201.006
20
-192.357
11
201.149
21
-192.5
0
LINE
8
BLACK
6
CONTINUOUS
10
201.149
20
-192.5
11
201.22
21
-192.643
0
LINE
8
BLACK
6
CONTINUOUS
10
201.22
20
-192.643
11
201.291
21
-192.929
0
LINE
8
BLACK
6
CONTINUOUS
10
201.291
20
-192.929
11
201.291
21
-193.143
0
LINE
8
BLACK
6
CONTINUOUS
10
201.291
20
-193.143
11
201.22
21
-193.429
0
LINE
8
BLACK
6
CONTINUOUS
10
201.22
20
-193.429
11
201.149
21
-193.571
0
LINE
8
BLACK
6
CONTINUOUS
10
201.149
20
-193.571
11
201.006
21
-193.714
0
LINE
8
BLACK
6
CONTINUOUS
10
201.006
20
-193.714
11
200.791
21
-193.786
0
LINE
8
BLACK
6
CONTINUOUS
10
200.791
20
-193.786
11
200.434
21
-193.786
0
LINE
8
BLACK
6
CONTINUOUS
10
202.577
20
-193.786
11
202.577
21
-193
0
LINE
8
BLACK
6
CONTINUOUS
10
202.577
20
-193
11
202.506
21
-192.857
0
LINE
8
BLACK
6
CONTINUOUS
10
202.506
20
-192.857
11
202.363
21
-192.786
0
LINE
8
BLACK
6
CONTINUOUS
10
202.363
20
-192.786
11
202.077
21
-192.786
0
LINE
8
BLACK
6
CONTINUOUS
10
202.077
20
-192.786
11
201.934
21
-192.857
0
LINE
8
BLACK
6
CONTINUOUS
10
202.577
20
-193.714
11
202.434
21
-193.786
0
LINE
8
BLACK
6
CONTINUOUS
10
202.434
20
-193.786
11
202.077
21
-193.786
0
LINE
8
BLACK
6
CONTINUOUS
10
202.077
20
-193.786
11
201.934
21
-193.714
0
LINE
8
BLACK
6
CONTINUOUS
10
201.934
20
-193.714
11
201.863
21
-193.571
0
LINE
8
BLACK
6
CONTINUOUS
10
201.863
20
-193.571
11
201.863
21
-193.429
0
LINE
8
BLACK
6
CONTINUOUS
10
201.863
20
-193.429
11
201.934
21
-193.286
0
LINE
8
BLACK
6
CONTINUOUS
10
201.934
20
-193.286
11
202.077
21
-193.214
0
LINE
8
BLACK
6
CONTINUOUS
10
202.077
20
-193.214
11
202.434
21
-193.214
0
LINE
8
BLACK
6
CONTINUOUS
10
202.434
20
-193.214
11
202.577
21
-193.143
0
LINE
8
BLACK
6
CONTINUOUS
10
203.077
20
-192.786
11
203.649
21
-192.786
0
LINE
8
BLACK
6
CONTINUOUS
10
203.291
20
-192.286
11
203.291
21
-193.571
0
LINE
8
BLACK
6
CONTINUOUS
10
203.291
20
-193.571
11
203.363
21
-193.714
0
LINE
8
BLACK
6
CONTINUOUS
10
203.363
20
-193.714
11
203.506
21
-193.786
0
LINE
8
BLACK
6
CONTINUOUS
10
203.506
20
-193.786
11
203.649
21
-193.786
0
LINE
8
BLACK
6
CONTINUOUS
10
204.72
20
-193.714
11
204.577
21
-193.786
0
LINE
8
BLACK
6
CONTINUOUS
10
204.577
20
-193.786
11
204.291
21
-193.786
0
LINE
8
BLACK
6
CONTINUOUS
10
204.291
20
-193.786
11
204.149
21
-193.714
0
LINE
8
BLACK
6
CONTINUOUS
10
204.149
20
-193.714
11
204.077
21
-193.571
0
LINE
8
BLACK
6
CONTINUOUS
10
204.077
20
-193.571
11
204.077
21
-193
0
LINE
8
BLACK
6
CONTINUOUS
10
204.077
20
-193
11
204.149
21
-192.857
0
LINE
8
BLACK
6
CONTINUOUS
10
204.149
20
-192.857
11
204.291
21
-192.786
0
LINE
8
BLACK
6
CONTINUOUS
10
204.291
20
-192.786
11
204.577
21
-192.786
0
LINE
8
BLACK
6
CONTINUOUS
10
204.577
20
-192.786
11
204.72
21
-192.857
0
LINE
8
BLACK
6
CONTINUOUS
10
204.72
20
-192.857
11
204.791
21
-193
0
LINE
8
BLACK
6
CONTINUOUS
10
204.791
20
-193
11
204.791
21
-193.143
0
LINE
8
BLACK
6
CONTINUOUS
10
204.791
20
-193.143
11
204.077
21
-193.286
0
LINE
8
BLACK
6
CONTINUOUS
10
205.434
20
-193.643
11
205.506
21
-193.714
0
LINE
8
BLACK
6
CONTINUOUS
10
205.506
20
-193.714
11
205.434
21
-193.786
0
LINE
8
BLACK
6
CONTINUOUS
10
205.434
20
-193.786
11
205.363
21
-193.714
0
LINE
8
BLACK
6
CONTINUOUS
10
205.363
20
-193.714
11
205.434
21
-193.643
0
LINE
8
BLACK
6
CONTINUOUS
10
205.434
20
-193.643
11
205.434
21
-193.786
0
LINE
8
BLACK
6
CONTINUOUS
10
205.434
20
-192.857
11
205.506
21
-192.929
0
LINE
8
BLACK
6
CONTINUOUS
10
205.506
20
-192.929
11
205.434
21
-193
0
LINE
8
BLACK
6
CONTINUOUS
10
205.434
20
-193
11
205.363
21
-192.929
0
LINE
8
BLACK
6
CONTINUOUS
10
205.363
20
-192.929
11
205.434
21
-192.857
0
LINE
8
BLACK
6
CONTINUOUS
10
205.434
20
-192.857
11
205.434
21
-193
0
LINE
8
BLACK
6
CONTINUOUS
10
177.002
20
-194.507
11
285.002
21
-194.507
0
LINE
8
BLACK
6
CONTINUOUS
10
178.434
20
-196.586
11
178.434
21
-195.086
0
LINE
8
BLACK
6
CONTINUOUS
10
179.291
20
-196.586
11
178.649
21
-195.729
0
LINE
8
BLACK
6
CONTINUOUS
10
179.291
20
-195.086
11
178.434
21
-195.943
0
LINE
8
BLACK
6
CONTINUOUS
10
179.934
20
-196.586
11
179.934
21
-195.586
0
LINE
8
BLACK
6
CONTINUOUS
10
179.934
20
-195.086
11
179.863
21
-195.157
0
LINE
8
BLACK
6
CONTINUOUS
10
179.863
20
-195.157
11
179.934
21
-195.229
0
LINE
8
BLACK
6
CONTINUOUS
10
179.934
20
-195.229
11
180.006
21
-195.157
0
LINE
8
BLACK
6
CONTINUOUS
10
180.006
20
-195.157
11
179.934
21
-195.086
0
LINE
8
BLACK
6
CONTINUOUS
10
179.934
20
-195.086
11
179.934
21
-195.229
0
LINE
8
BLACK
6
CONTINUOUS
10
181.506
20
-196.443
11
181.434
21
-196.514
0
LINE
8
BLACK
6
CONTINUOUS
10
181.434
20
-196.514
11
181.22
21
-196.586
0
LINE
8
BLACK
6
CONTINUOUS
10
181.22
20
-196.586
11
181.077
21
-196.586
0
LINE
8
BLACK
6
CONTINUOUS
10
181.077
20
-196.586
11
180.863
21
-196.514
0
LINE
8
BLACK
6
CONTINUOUS
10
180.863
20
-196.514
11
180.72
21
-196.371
0
LINE
8
BLACK
6
CONTINUOUS
10
180.72
20
-196.371
11
180.649
21
-196.229
0
LINE
8
BLACK
6
CONTINUOUS
10
180.649
20
-196.229
11
180.577
21
-195.943
0
LINE
8
BLACK
6
CONTINUOUS
10
180.577
20
-195.943
11
180.577
21
-195.729
0
LINE
8
BLACK
6
CONTINUOUS
10
180.577
20
-195.729
11
180.649
21
-195.443
0
LINE
8
BLACK
6
CONTINUOUS
10
180.649
20
-195.443
11
180.72
21
-195.3
0
LINE
8
BLACK
6
CONTINUOUS
10
180.72
20
-195.3
11
180.863
21
-195.157
0
LINE
8
BLACK
6
CONTINUOUS
10
180.863
20
-195.157
11
181.077
21
-195.086
0
LINE
8
BLACK
6
CONTINUOUS
10
181.077
20
-195.086
11
181.22
21
-195.086
0
LINE
8
BLACK
6
CONTINUOUS
10
181.22
20
-195.086
11
181.434
21
-195.157
0
LINE
8
BLACK
6
CONTINUOUS
10
181.434
20
-195.157
11
181.506
21
-195.229
0
LINE
8
BLACK
6
CONTINUOUS
10
182.791
20
-196.586
11
182.791
21
-195.8
0
LINE
8
BLACK
6
CONTINUOUS
10
182.791
20
-195.8
11
182.72
21
-195.657
0
LINE
8
BLACK
6
CONTINUOUS
10
182.72
20
-195.657
11
182.577
21
-195.586
0
LINE
8
BLACK
6
CONTINUOUS
10
182.577
20
-195.586
11
182.291
21
-195.586
0
LINE
8
BLACK
6
CONTINUOUS
10
182.291
20
-195.586
11
182.149
21
-195.657
0
LINE
8
BLACK
6
CONTINUOUS
10
182.791
20
-196.514
11
182.649
21
-196.586
0
LINE
8
BLACK
6
CONTINUOUS
10
182.649
20
-196.586
11
182.291
21
-196.586
0
LINE
8
BLACK
6
CONTINUOUS
10
182.291
20
-196.586
11
182.149
21
-196.514
0
LINE
8
BLACK
6
CONTINUOUS
10
182.149
20
-196.514
11
182.077
21
-196.371
0
LINE
8
BLACK
6
CONTINUOUS
10
182.077
20
-196.371
11
182.077
21
-196.229
0
LINE
8
BLACK
6
CONTINUOUS
10
182.077
20
-196.229
11
182.149
21
-196.086
0
LINE
8
BLACK
6
CONTINUOUS
10
182.149
20
-196.086
11
182.291
21
-196.014
0
LINE
8
BLACK
6
CONTINUOUS
10
182.291
20
-196.014
11
182.649
21
-196.014
0
LINE
8
BLACK
6
CONTINUOUS
10
182.649
20
-196.014
11
182.791
21
-195.943
0
LINE
8
BLACK
6
CONTINUOUS
10
184.149
20
-196.586
11
184.149
21
-195.086
0
LINE
8
BLACK
6
CONTINUOUS
10
184.149
20
-196.514
11
184.006
21
-196.586
0
LINE
8
BLACK
6
CONTINUOUS
10
184.006
20
-196.586
11
183.72
21
-196.586
0
LINE
8
BLACK
6
CONTINUOUS
10
183.72
20
-196.586
11
183.577
21
-196.514
0
LINE
8
BLACK
6
CONTINUOUS
10
183.577
20
-196.514
11
183.506
21
-196.443
0
LINE
8
BLACK
6
CONTINUOUS
10
183.506
20
-196.443
11
183.434
21
-196.3
0
LINE
8
BLACK
6
CONTINUOUS
10
183.434
20
-196.3
11
183.434
21
-195.871
0
LINE
8
BLACK
6
CONTINUOUS
10
183.434
20
-195.871
11
183.506
21
-195.729
0
LINE
8
BLACK
6
CONTINUOUS
10
183.506
20
-195.729
11
183.577
21
-195.657
0
LINE
8
BLACK
6
CONTINUOUS
10
183.577
20
-195.657
11
183.72
21
-195.586
0
LINE
8
BLACK
6
CONTINUOUS
10
183.72
20
-195.586
11
184.006
21
-195.586
0
LINE
8
BLACK
6
CONTINUOUS
10
184.006
20
-195.586
11
184.149
21
-195.657
0
LINE
8
BLACK
6
CONTINUOUS
10
186.006
20
-195.8
11
186.506
21
-195.8
0
LINE
8
BLACK
6
CONTINUOUS
10
186.72
20
-196.586
11
186.006
21
-196.586
0
LINE
8
BLACK
6
CONTINUOUS
10
186.006
20
-196.586
11
186.006
21
-195.086
0
LINE
8
BLACK
6
CONTINUOUS
10
186.006
20
-195.086
11
186.72
21
-195.086
0
LINE
8
BLACK
6
CONTINUOUS
10
187.363
20
-196.443
11
187.434
21
-196.514
0
LINE
8
BLACK
6
CONTINUOUS
10
187.434
20
-196.514
11
187.363
21
-196.586
0
LINE
8
BLACK
6
CONTINUOUS
10
187.363
20
-196.586
11
187.291
21
-196.514
0
LINE
8
BLACK
6
CONTINUOUS
10
187.291
20
-196.514
11
187.363
21
-196.443
0
LINE
8
BLACK
6
CONTINUOUS
10
187.363
20
-196.443
11
187.363
21
-196.586
0
LINE
8
BLACK
6
CONTINUOUS
10
188.077
20
-196.586
11
188.077
21
-195.086
0
LINE
8
BLACK
6
CONTINUOUS
10
188.077
20
-195.086
11
188.434
21
-195.086
0
LINE
8
BLACK
6
CONTINUOUS
10
188.434
20
-195.086
11
188.649
21
-195.157
0
LINE
8
BLACK
6
CONTINUOUS
10
188.649
20
-195.157
11
188.791
21
-195.3
0
LINE
8
BLACK
6
CONTINUOUS
10
188.791
20
-195.3
11
188.863
21
-195.443
0
LINE
8
BLACK
6
CONTINUOUS
10
188.863
20
-195.443
11
188.934
21
-195.729
0
LINE
8
BLACK
6
CONTINUOUS
10
188.934
20
-195.729
11
188.934
21
-195.943
0
LINE
8
BLACK
6
CONTINUOUS
10
188.934
20
-195.943
11
188.863
21
-196.229
0
LINE
8
BLACK
6
CONTINUOUS
10
188.863
20
-196.229
11
188.791
21
-196.371
0
LINE
8
BLACK
6
CONTINUOUS
10
188.791
20
-196.371
11
188.649
21
-196.514
0
LINE
8
BLACK
6
CONTINUOUS
10
188.649
20
-196.514
11
188.434
21
-196.586
0
LINE
8
BLACK
6
CONTINUOUS
10
188.434
20
-196.586
11
188.077
21
-196.586
0
LINE
8
BLACK
6
CONTINUOUS
10
189.577
20
-196.443
11
189.649
21
-196.514
0
LINE
8
BLACK
6
CONTINUOUS
10
189.649
20
-196.514
11
189.577
21
-196.586
0
LINE
8
BLACK
6
CONTINUOUS
10
189.577
20
-196.586
11
189.506
21
-196.514
0
LINE
8
BLACK
6
CONTINUOUS
10
189.506
20
-196.514
11
189.577
21
-196.443
0
LINE
8
BLACK
6
CONTINUOUS
10
189.577
20
-196.443
11
189.577
21
-196.586
0
LINE
8
BLACK
6
CONTINUOUS
10
190.22
20
-196.157
11
190.934
21
-196.157
0
LINE
8
BLACK
6
CONTINUOUS
10
190.077
20
-196.586
11
190.577
21
-195.086
0
LINE
8
BLACK
6
CONTINUOUS
10
190.577
20
-195.086
11
191.077
21
-196.586
0
LINE
8
BLACK
6
CONTINUOUS
10
191.577
20
-196.443
11
191.649
21
-196.514
0
LINE
8
BLACK
6
CONTINUOUS
10
191.649
20
-196.514
11
191.577
21
-196.586
0
LINE
8
BLACK
6
CONTINUOUS
10
191.577
20
-196.586
11
191.506
21
-196.514
0
LINE
8
BLACK
6
CONTINUOUS
10
191.506
20
-196.514
11
191.577
21
-196.443
0
LINE
8
BLACK
6
CONTINUOUS
10
191.577
20
-196.443
11
191.577
21
-196.586
0
LINE
8
BLACK
6
CONTINUOUS
10
194.577
20
-196.586
11
194.577
21
-195.086
0
LINE
8
BLACK
6
CONTINUOUS
10
194.72
20
-196.014
11
195.149
21
-196.586
0
LINE
8
BLACK
6
CONTINUOUS
10
195.149
20
-195.586
11
194.577
21
-196.157
0
LINE
8
BLACK
6
CONTINUOUS
10
195.791
20
-196.586
11
195.791
21
-195.586
0
LINE
8
BLACK
6
CONTINUOUS
10
195.791
20
-195.086
11
195.72
21
-195.157
0
LINE
8
BLACK
6
CONTINUOUS
10
195.72
20
-195.157
11
195.791
21
-195.229
0
LINE
8
BLACK
6
CONTINUOUS
10
195.791
20
-195.229
11
195.863
21
-195.157
0
LINE
8
BLACK
6
CONTINUOUS
10
195.863
20
-195.157
11
195.791
21
-195.086
0
LINE
8
BLACK
6
CONTINUOUS
10
195.791
20
-195.086
11
195.791
21
-195.229
0
LINE
8
BLACK
6
CONTINUOUS
10
197.149
20
-196.514
11
197.006
21
-196.586
0
LINE
8
BLACK
6
CONTINUOUS
10
197.006
20
-196.586
11
196.72
21
-196.586
0
LINE
8
BLACK
6
CONTINUOUS
10
196.72
20
-196.586
11
196.577
21
-196.514
0
LINE
8
BLACK
6
CONTINUOUS
10
196.577
20
-196.514
11
196.506
21
-196.443
0
LINE
8
BLACK
6
CONTINUOUS
10
196.506
20
-196.443
11
196.434
21
-196.3
0
LINE
8
BLACK
6
CONTINUOUS
10
196.434
20
-196.3
11
196.434
21
-195.871
0
LINE
8
BLACK
6
CONTINUOUS
10
196.434
20
-195.871
11
196.506
21
-195.729
0
LINE
8
BLACK
6
CONTINUOUS
10
196.506
20
-195.729
11
196.577
21
-195.657
0
LINE
8
BLACK
6
CONTINUOUS
10
196.577
20
-195.657
11
196.72
21
-195.586
0
LINE
8
BLACK
6
CONTINUOUS
10
196.72
20
-195.586
11
197.006
21
-195.586
0
LINE
8
BLACK
6
CONTINUOUS
10
197.006
20
-195.586
11
197.149
21
-195.657
0
LINE
8
BLACK
6
CONTINUOUS
10
198.434
20
-196.586
11
198.434
21
-195.8
0
LINE
8
BLACK
6
CONTINUOUS
10
198.434
20
-195.8
11
198.363
21
-195.657
0
LINE
8
BLACK
6
CONTINUOUS
10
198.363
20
-195.657
11
198.22
21
-195.586
0
LINE
8
BLACK
6
CONTINUOUS
10
198.22
20
-195.586
11
197.934
21
-195.586
0
LINE
8
BLACK
6
CONTINUOUS
10
197.934
20
-195.586
11
197.791
21
-195.657
0
LINE
8
BLACK
6
CONTINUOUS
10
198.434
20
-196.514
11
198.291
21
-196.586
0
LINE
8
BLACK
6
CONTINUOUS
10
198.291
20
-196.586
11
197.934
21
-196.586
0
LINE
8
BLACK
6
CONTINUOUS
10
197.934
20
-196.586
11
197.791
21
-196.514
0
LINE
8
BLACK
6
CONTINUOUS
10
197.791
20
-196.514
11
197.72
21
-196.371
0
LINE
8
BLACK
6
CONTINUOUS
10
197.72
20
-196.371
11
197.72
21
-196.229
0
LINE
8
BLACK
6
CONTINUOUS
10
197.72
20
-196.229
11
197.791
21
-196.086
0
LINE
8
BLACK
6
CONTINUOUS
10
197.791
20
-196.086
11
197.934
21
-196.014
0
LINE
8
BLACK
6
CONTINUOUS
10
197.934
20
-196.014
11
198.291
21
-196.014
0
LINE
8
BLACK
6
CONTINUOUS
10
198.291
20
-196.014
11
198.434
21
-195.943
0
LINE
8
BLACK
6
CONTINUOUS
10
199.791
20
-196.586
11
199.791
21
-195.086
0
LINE
8
BLACK
6
CONTINUOUS
10
199.791
20
-196.514
11
199.649
21
-196.586
0
LINE
8
BLACK
6
CONTINUOUS
10
199.649
20
-196.586
11
199.363
21
-196.586
0
LINE
8
BLACK
6
CONTINUOUS
10
199.363
20
-196.586
11
199.22
21
-196.514
0
LINE
8
BLACK
6
CONTINUOUS
10
199.22
20
-196.514
11
199.149
21
-196.443
0
LINE
8
BLACK
6
CONTINUOUS
10
199.149
20
-196.443
11
199.077
21
-196.3
0
LINE
8
BLACK
6
CONTINUOUS
10
199.077
20
-196.3
11
199.077
21
-195.871
0
LINE
8
BLACK
6
CONTINUOUS
10
199.077
20
-195.871
11
199.149
21
-195.729
0
LINE
8
BLACK
6
CONTINUOUS
10
199.149
20
-195.729
11
199.22
21
-195.657
0
LINE
8
BLACK
6
CONTINUOUS
10
199.22
20
-195.657
11
199.363
21
-195.586
0
LINE
8
BLACK
6
CONTINUOUS
10
199.363
20
-195.586
11
199.649
21
-195.586
0
LINE
8
BLACK
6
CONTINUOUS
10
199.649
20
-195.586
11
199.791
21
-195.657
0
LINE
8
BLACK
6
CONTINUOUS
10
202.077
20
-197.157
11
202.006
21
-197.086
0
LINE
8
BLACK
6
CONTINUOUS
10
202.006
20
-197.086
11
201.863
21
-196.871
0
LINE
8
BLACK
6
CONTINUOUS
10
201.863
20
-196.871
11
201.791
21
-196.729
0
LINE
8
BLACK
6
CONTINUOUS
10
201.791
20
-196.729
11
201.72
21
-196.514
0
LINE
8
BLACK
6
CONTINUOUS
10
201.72
20
-196.514
11
201.649
21
-196.157
0
LINE
8
BLACK
6
CONTINUOUS
10
201.649
20
-196.157
11
201.649
21
-195.871
0
LINE
8
BLACK
6
CONTINUOUS
10
201.649
20
-195.871
11
201.72
21
-195.514
0
LINE
8
BLACK
6
CONTINUOUS
10
201.72
20
-195.514
11
201.791
21
-195.3
0
LINE
8
BLACK
6
CONTINUOUS
10
201.791
20
-195.3
11
201.863
21
-195.157
0
LINE
8
BLACK
6
CONTINUOUS
10
201.863
20
-195.157
11
202.006
21
-194.943
0
LINE
8
BLACK
6
CONTINUOUS
10
202.006
20
-194.943
11
202.077
21
-194.871
0
LINE
8
BLACK
6
CONTINUOUS
10
203.363
20
-195.086
11
202.649
21
-195.086
0
LINE
8
BLACK
6
CONTINUOUS
10
202.649
20
-195.086
11
202.577
21
-195.8
0
LINE
8
BLACK
6
CONTINUOUS
10
202.577
20
-195.8
11
202.649
21
-195.729
0
LINE
8
BLACK
6
CONTINUOUS
10
202.649
20
-195.729
11
202.791
21
-195.657
0
LINE
8
BLACK
6
CONTINUOUS
10
202.791
20
-195.657
11
203.149
21
-195.657
0
LINE
8
BLACK
6
CONTINUOUS
10
203.149
20
-195.657
11
203.291
21
-195.729
0
LINE
8
BLACK
6
CONTINUOUS
10
203.291
20
-195.729
11
203.363
21
-195.8
0
LINE
8
BLACK
6
CONTINUOUS
10
203.363
20
-195.8
11
203.434
21
-195.943
0
LINE
8
BLACK
6
CONTINUOUS
10
203.434
20
-195.943
11
203.434
21
-196.3
0
LINE
8
BLACK
6
CONTINUOUS
10
203.434
20
-196.3
11
203.363
21
-196.443
0
LINE
8
BLACK
6
CONTINUOUS
10
203.363
20
-196.443
11
203.291
21
-196.514
0
LINE
8
BLACK
6
CONTINUOUS
10
203.291
20
-196.514
11
203.149
21
-196.586
0
LINE
8
BLACK
6
CONTINUOUS
10
203.149
20
-196.586
11
202.791
21
-196.586
0
LINE
8
BLACK
6
CONTINUOUS
10
202.791
20
-196.586
11
202.649
21
-196.514
0
LINE
8
BLACK
6
CONTINUOUS
10
202.649
20
-196.514
11
202.577
21
-196.443
0
LINE
8
BLACK
6
CONTINUOUS
10
204.077
20
-196.443
11
204.149
21
-196.514
0
LINE
8
BLACK
6
CONTINUOUS
10
204.149
20
-196.514
11
204.077
21
-196.586
0
LINE
8
BLACK
6
CONTINUOUS
10
204.077
20
-196.586
11
204.006
21
-196.514
0
LINE
8
BLACK
6
CONTINUOUS
10
204.006
20
-196.514
11
204.077
21
-196.443
0
LINE
8
BLACK
6
CONTINUOUS
10
204.077
20
-196.443
11
204.077
21
-196.586
0
LINE
8
BLACK
6
CONTINUOUS
10
205.077
20
-195.086
11
205.22
21
-195.086
0
LINE
8
BLACK
6
CONTINUOUS
10
205.22
20
-195.086
11
205.363
21
-195.157
0
LINE
8
BLACK
6
CONTINUOUS
10
205.363
20
-195.157
11
205.434
21
-195.229
0
LINE
8
BLACK
6
CONTINUOUS
10
205.434
20
-195.229
11
205.506
21
-195.371
0
LINE
8
BLACK
6
CONTINUOUS
10
205.506
20
-195.371
11
205.577
21
-195.657
0
LINE
8
BLACK
6
CONTINUOUS
10
205.577
20
-195.657
11
205.577
21
-196.014
0
LINE
8
BLACK
6
CONTINUOUS
10
205.577
20
-196.014
11
205.506
21
-196.3
0
LINE
8
BLACK
6
CONTINUOUS
10
205.506
20
-196.3
11
205.434
21
-196.443
0
LINE
8
BLACK
6
CONTINUOUS
10
205.434
20
-196.443
11
205.363
21
-196.514
0
LINE
8
BLACK
6
CONTINUOUS
10
205.363
20
-196.514
11
205.22
21
-196.586
0
LINE
8
BLACK
6
CONTINUOUS
10
205.22
20
-196.586
11
205.077
21
-196.586
0
LINE
8
BLACK
6
CONTINUOUS
10
205.077
20
-196.586
11
204.934
21
-196.514
0
LINE
8
BLACK
6
CONTINUOUS
10
204.934
20
-196.514
11
204.863
21
-196.443
0
LINE
8
BLACK
6
CONTINUOUS
10
204.863
20
-196.443
11
204.791
21
-196.3
0
LINE
8
BLACK
6
CONTINUOUS
10
204.791
20
-196.3
11
204.72
21
-196.014
0
LINE
8
BLACK
6
CONTINUOUS
10
204.72
20
-196.014
11
204.72
21
-195.657
0
LINE
8
BLACK
6
CONTINUOUS
10
204.72
20
-195.657
11
204.791
21
-195.371
0
LINE
8
BLACK
6
CONTINUOUS
10
204.791
20
-195.371
11
204.863
21
-195.229
0
LINE
8
BLACK
6
CONTINUOUS
10
204.863
20
-195.229
11
204.934
21
-195.157
0
LINE
8
BLACK
6
CONTINUOUS
10
204.934
20
-195.157
11
205.077
21
-195.086
0
LINE
8
BLACK
6
CONTINUOUS
10
206.22
20
-196.443
11
206.291
21
-196.514
0
LINE
8
BLACK
6
CONTINUOUS
10
206.291
20
-196.514
11
206.22
21
-196.586
0
LINE
8
BLACK
6
CONTINUOUS
10
206.22
20
-196.586
11
206.149
21
-196.514
0
LINE
8
BLACK
6
CONTINUOUS
10
206.149
20
-196.514
11
206.22
21
-196.443
0
LINE
8
BLACK
6
CONTINUOUS
10
206.22
20
-196.443
11
206.22
21
-196.586
0
LINE
8
BLACK
6
CONTINUOUS
10
206.863
20
-195.229
11
206.934
21
-195.157
0
LINE
8
BLACK
6
CONTINUOUS
10
206.934
20
-195.157
11
207.077
21
-195.086
0
LINE
8
BLACK
6
CONTINUOUS
10
207.077
20
-195.086
11
207.434
21
-195.086
0
LINE
8
BLACK
6
CONTINUOUS
10
207.434
20
-195.086
11
207.577
21
-195.157
0
LINE
8
BLACK
6
CONTINUOUS
10
207.577
20
-195.157
11
207.649
21
-195.229
0
LINE
8
BLACK
6
CONTINUOUS
10
207.649
20
-195.229
11
207.72
21
-195.371
0
LINE
8
BLACK
6
CONTINUOUS
10
207.72
20
-195.371
11
207.72
21
-195.514
0
LINE
8
BLACK
6
CONTINUOUS
10
207.72
20
-195.514
11
207.649
21
-195.729
0
LINE
8
BLACK
6
CONTINUOUS
10
207.649
20
-195.729
11
206.791
21
-196.586
0
LINE
8
BLACK
6
CONTINUOUS
10
206.791
20
-196.586
11
207.72
21
-196.586
0
LINE
8
BLACK
6
CONTINUOUS
10
208.22
20
-197.157
11
208.291
21
-197.086
0
LINE
8
BLACK
6
CONTINUOUS
10
208.291
20
-197.086
11
208.434
21
-196.871
0
LINE
8
BLACK
6
CONTINUOUS
10
208.434
20
-196.871
11
208.506
21
-196.729
0
LINE
8
BLACK
6
CONTINUOUS
10
208.506
20
-196.729
11
208.577
21
-196.514
0
LINE
8
BLACK
6
CONTINUOUS
10
208.577
20
-196.514
11
208.649
21
-196.157
0
LINE
8
BLACK
6
CONTINUOUS
10
208.649
20
-196.157
11
208.649
21
-195.871
0
LINE
8
BLACK
6
CONTINUOUS
10
208.649
20
-195.871
11
208.577
21
-195.514
0
LINE
8
BLACK
6
CONTINUOUS
10
208.577
20
-195.514
11
208.506
21
-195.3
0
LINE
8
BLACK
6
CONTINUOUS
10
208.506
20
-195.3
11
208.434
21
-195.157
0
LINE
8
BLACK
6
CONTINUOUS
10
208.434
20
-195.157
11
208.291
21
-194.943
0
LINE
8
BLACK
6
CONTINUOUS
10
208.291
20
-194.943
11
208.22
21
-194.871
0
LINE
8
BLACK
6
CONTINUOUS
10
209.363
20
-196.014
11
210.506
21
-196.014
0
LINE
8
BLACK
6
CONTINUOUS
10
212.006
20
-196.586
11
211.149
21
-196.586
0
LINE
8
BLACK
6
CONTINUOUS
10
211.577
20
-196.586
11
211.577
21
-195.086
0
LINE
8
BLACK
6
CONTINUOUS
10
211.577
20
-195.086
11
211.434
21
-195.3
0
LINE
8
BLACK
6
CONTINUOUS
10
211.434
20
-195.3
11
211.291
21
-195.443
0
LINE
8
BLACK
6
CONTINUOUS
10
211.291
20
-195.443
11
211.149
21
-195.514
0
LINE
8
BLACK
6
CONTINUOUS
10
177.002
20
-191.507
11
285.002
21
-191.507
0
LINE
8
BLACK
6
CONTINUOUS
10
264.411
20
-193.786
11
263.911
21
-193.071
0
LINE
8
BLACK
6
CONTINUOUS
10
263.554
20
-193.786
11
263.554
21
-192.286
0
LINE
8
BLACK
6
CONTINUOUS
10
263.554
20
-192.286
11
264.126
21
-192.286
0
LINE
8
BLACK
6
CONTINUOUS
10
264.126
20
-192.286
11
264.269
21
-192.357
0
LINE
8
BLACK
6
CONTINUOUS
10
264.269
20
-192.357
11
264.34
21
-192.429
0
LINE
8
BLACK
6
CONTINUOUS
10
264.34
20
-192.429
11
264.411
21
-192.571
0
LINE
8
BLACK
6
CONTINUOUS
10
264.411
20
-192.571
11
264.411
21
-192.786
0
LINE
8
BLACK
6
CONTINUOUS
10
264.411
20
-192.786
11
264.34
21
-192.929
0
LINE
8
BLACK
6
CONTINUOUS
10
264.34
20
-192.929
11
264.269
21
-193
0
LINE
8
BLACK
6
CONTINUOUS
10
264.269
20
-193
11
264.126
21
-193.071
0
LINE
8
BLACK
6
CONTINUOUS
10
264.126
20
-193.071
11
263.554
21
-193.071
0
LINE
8
BLACK
6
CONTINUOUS
10
265.626
20
-193.714
11
265.483
21
-193.786
0
LINE
8
BLACK
6
CONTINUOUS
10
265.483
20
-193.786
11
265.197
21
-193.786
0
LINE
8
BLACK
6
CONTINUOUS
10
265.197
20
-193.786
11
265.054
21
-193.714
0
LINE
8
BLACK
6
CONTINUOUS
10
265.054
20
-193.714
11
264.983
21
-193.571
0
LINE
8
BLACK
6
CONTINUOUS
10
264.983
20
-193.571
11
264.983
21
-193
0
LINE
8
BLACK
6
CONTINUOUS
10
264.983
20
-193
11
265.054
21
-192.857
0
LINE
8
BLACK
6
CONTINUOUS
10
265.054
20
-192.857
11
265.197
21
-192.786
0
LINE
8
BLACK
6
CONTINUOUS
10
265.197
20
-192.786
11
265.483
21
-192.786
0
LINE
8
BLACK
6
CONTINUOUS
10
265.483
20
-192.786
11
265.626
21
-192.857
0
LINE
8
BLACK
6
CONTINUOUS
10
265.626
20
-192.857
11
265.697
21
-193
0
LINE
8
BLACK
6
CONTINUOUS
10
265.697
20
-193
11
265.697
21
-193.143
0
LINE
8
BLACK
6
CONTINUOUS
10
265.697
20
-193.143
11
264.983
21
-193.286
0
LINE
8
BLACK
6
CONTINUOUS
10
266.197
20
-192.786
11
266.554
21
-193.786
0
LINE
8
BLACK
6
CONTINUOUS
10
266.554
20
-193.786
11
266.911
21
-192.786
0
LINE
8
BLACK
6
CONTINUOUS
10
267.483
20
-193.643
11
267.554
21
-193.714
0
LINE
8
BLACK
6
CONTINUOUS
10
267.554
20
-193.714
11
267.483
21
-193.786
0
LINE
8
BLACK
6
CONTINUOUS
10
267.483
20
-193.786
11
267.411
21
-193.714
0
LINE
8
BLACK
6
CONTINUOUS
10
267.411
20
-193.714
11
267.483
21
-193.643
0
LINE
8
BLACK
6
CONTINUOUS
10
267.483
20
-193.643
11
267.483
21
-193.786
0
LINE
8
BLACK
6
CONTINUOUS
10
267.483
20
-192.857
11
267.554
21
-192.929
0
LINE
8
BLACK
6
CONTINUOUS
10
267.554
20
-192.929
11
267.483
21
-193
0
LINE
8
BLACK
6
CONTINUOUS
10
267.483
20
-193
11
267.411
21
-192.929
0
LINE
8
BLACK
6
CONTINUOUS
10
267.411
20
-192.929
11
267.483
21
-192.857
0
LINE
8
BLACK
6
CONTINUOUS
10
267.483
20
-192.857
11
267.483
21
-193
0
LINE
8
BLACK
6
CONTINUOUS
10
178.363
20
-193.714
11
178.577
21
-193.786
0
LINE
8
BLACK
6
CONTINUOUS
10
178.577
20
-193.786
11
178.934
21
-193.786
0
LINE
8
BLACK
6
CONTINUOUS
10
178.934
20
-193.786
11
179.077
21
-193.714
0
LINE
8
BLACK
6
CONTINUOUS
10
179.077
20
-193.714
11
179.149
21
-193.643
0
LINE
8
BLACK
6
CONTINUOUS
10
179.149
20
-193.643
11
179.22
21
-193.5
0
LINE
8
BLACK
6
CONTINUOUS
10
179.22
20
-193.5
11
179.22
21
-193.357
0
LINE
8
BLACK
6
CONTINUOUS
10
179.22
20
-193.357
11
179.149
21
-193.214
0
LINE
8
BLACK
6
CONTINUOUS
10
179.149
20
-193.214
11
179.077
21
-193.143
0
LINE
8
BLACK
6
CONTINUOUS
10
179.077
20
-193.143
11
178.934
21
-193.071
0
LINE
8
BLACK
6
CONTINUOUS
10
178.934
20
-193.071
11
178.649
21
-193
0
LINE
8
BLACK
6
CONTINUOUS
10
178.649
20
-193
11
178.506
21
-192.929
0
LINE
8
BLACK
6
CONTINUOUS
10
178.506
20
-192.929
11
178.434
21
-192.857
0
LINE
8
BLACK
6
CONTINUOUS
10
178.434
20
-192.857
11
178.363
21
-192.714
0
LINE
8
BLACK
6
CONTINUOUS
10
178.363
20
-192.714
11
178.363
21
-192.571
0
LINE
8
BLACK
6
CONTINUOUS
10
178.363
20
-192.571
11
178.434
21
-192.429
0
LINE
8
BLACK
6
CONTINUOUS
10
178.434
20
-192.429
11
178.506
21
-192.357
0
LINE
8
BLACK
6
CONTINUOUS
10
178.506
20
-192.357
11
178.649
21
-192.286
0
LINE
8
BLACK
6
CONTINUOUS
10
178.649
20
-192.286
11
179.006
21
-192.286
0
LINE
8
BLACK
6
CONTINUOUS
10
179.006
20
-192.286
11
179.22
21
-192.357
0
LINE
8
BLACK
6
CONTINUOUS
10
179.863
20
-193.786
11
179.863
21
-192.786
0
LINE
8
BLACK
6
CONTINUOUS
10
179.863
20
-192.286
11
179.791
21
-192.357
0
LINE
8
BLACK
6
CONTINUOUS
10
179.791
20
-192.357
11
179.863
21
-192.429
0
LINE
8
BLACK
6
CONTINUOUS
10
179.863
20
-192.429
11
179.934
21
-192.357
0
LINE
8
BLACK
6
CONTINUOUS
10
179.934
20
-192.357
11
179.863
21
-192.286
0
LINE
8
BLACK
6
CONTINUOUS
10
179.863
20
-192.286
11
179.863
21
-192.429
0
LINE
8
BLACK
6
CONTINUOUS
10
180.434
20
-192.786
11
181.22
21
-192.786
0
LINE
8
BLACK
6
CONTINUOUS
10
181.22
20
-192.786
11
180.434
21
-193.786
0
LINE
8
BLACK
6
CONTINUOUS
10
180.434
20
-193.786
11
181.22
21
-193.786
0
LINE
8
BLACK
6
CONTINUOUS
10
182.363
20
-193.714
11
182.22
21
-193.786
0
LINE
8
BLACK
6
CONTINUOUS
10
182.22
20
-193.786
11
181.934
21
-193.786
0
LINE
8
BLACK
6
CONTINUOUS
10
181.934
20
-193.786
11
181.791
21
-193.714
0
LINE
8
BLACK
6
CONTINUOUS
10
181.791
20
-193.714
11
181.72
21
-193.571
0
LINE
8
BLACK
6
CONTINUOUS
10
181.72
20
-193.571
11
181.72
21
-193
0
LINE
8
BLACK
6
CONTINUOUS
10
181.72
20
-193
11
181.791
21
-192.857
0
LINE
8
BLACK
6
CONTINUOUS
10
181.791
20
-192.857
11
181.934
21
-192.786
0
LINE
8
BLACK
6
CONTINUOUS
10
181.934
20
-192.786
11
182.22
21
-192.786
0
LINE
8
BLACK
6
CONTINUOUS
10
182.22
20
-192.786
11
182.363
21
-192.857
0
LINE
8
BLACK
6
CONTINUOUS
10
182.363
20
-192.857
11
182.434
21
-193
0
LINE
8
BLACK
6
CONTINUOUS
10
182.434
20
-193
11
182.434
21
-193.143
0
LINE
8
BLACK
6
CONTINUOUS
10
182.434
20
-193.143
11
181.72
21
-193.286
0
LINE
8
BLACK
6
CONTINUOUS
10
183.077
20
-193.643
11
183.149
21
-193.714
0
LINE
8
BLACK
6
CONTINUOUS
10
183.149
20
-193.714
11
183.077
21
-193.786
0
LINE
8
BLACK
6
CONTINUOUS
10
183.077
20
-193.786
11
183.006
21
-193.714
0
LINE
8
BLACK
6
CONTINUOUS
10
183.006
20
-193.714
11
183.077
21
-193.643
0
LINE
8
BLACK
6
CONTINUOUS
10
183.077
20
-193.643
11
183.077
21
-193.786
0
LINE
8
BLACK
6
CONTINUOUS
10
183.077
20
-192.857
11
183.149
21
-192.929
0
LINE
8
BLACK
6
CONTINUOUS
10
183.149
20
-192.929
11
183.077
21
-193
0
LINE
8
BLACK
6
CONTINUOUS
10
183.077
20
-193
11
183.006
21
-192.929
0
LINE
8
BLACK
6
CONTINUOUS
10
183.006
20
-192.929
11
183.077
21
-192.857
0
LINE
8
BLACK
6
CONTINUOUS
10
183.077
20
-192.857
11
183.077
21
-193
0
LINE
8
BLACK
6
CONTINUOUS
10
184.863
20
-193.357
11
185.577
21
-193.357
0
LINE
8
BLACK
6
CONTINUOUS
10
184.72
20
-193.786
11
185.22
21
-192.286
0
LINE
8
BLACK
6
CONTINUOUS
10
185.22
20
-192.286
11
185.72
21
-193.786
0
LINE
8
BLACK
6
CONTINUOUS
10
186.863
20
-192.786
11
186.863
21
-193.786
0
LINE
8
BLACK
6
CONTINUOUS
10
186.506
20
-192.214
11
186.149
21
-193.286
0
LINE
8
BLACK
6
CONTINUOUS
10
186.149
20
-193.286
11
187.077
21
-193.286
0
LINE
8
BLACK
6
CONTINUOUS
10
263.434
20
-196.586
11
263.434
21
-195.086
0
LINE
8
BLACK
6
CONTINUOUS
10
264.791
20
-196.586
11
264.791
21
-195.086
0
LINE
8
BLACK
6
CONTINUOUS
10
264.791
20
-196.514
11
264.649
21
-196.586
0
LINE
8
BLACK
6
CONTINUOUS
10
264.649
20
-196.586
11
264.363
21
-196.586
0
LINE
8
BLACK
6
CONTINUOUS
10
264.363
20
-196.586
11
264.22
21
-196.514
0
LINE
8
BLACK
6
CONTINUOUS
10
264.22
20
-196.514
11
264.149
21
-196.443
0
LINE
8
BLACK
6
CONTINUOUS
10
264.149
20
-196.443
11
264.077
21
-196.3
0
LINE
8
BLACK
6
CONTINUOUS
10
264.077
20
-196.3
11
264.077
21
-195.871
0
LINE
8
BLACK
6
CONTINUOUS
10
264.077
20
-195.871
11
264.149
21
-195.729
0
LINE
8
BLACK
6
CONTINUOUS
10
264.149
20
-195.729
11
264.22
21
-195.657
0
LINE
8
BLACK
6
CONTINUOUS
10
264.22
20
-195.657
11
264.363
21
-195.586
0
LINE
8
BLACK
6
CONTINUOUS
10
264.363
20
-195.586
11
264.649
21
-195.586
0
LINE
8
BLACK
6
CONTINUOUS
10
264.649
20
-195.586
11
264.791
21
-195.657
0
LINE
8
BLACK
6
CONTINUOUS
10
265.506
20
-196.443
11
265.577
21
-196.514
0
LINE
8
BLACK
6
CONTINUOUS
10
265.577
20
-196.514
11
265.506
21
-196.586
0
LINE
8
BLACK
6
CONTINUOUS
10
265.506
20
-196.586
11
265.434
21
-196.514
0
LINE
8
BLACK
6
CONTINUOUS
10
265.434
20
-196.514
11
265.506
21
-196.443
0
LINE
8
BLACK
6
CONTINUOUS
10
265.506
20
-196.443
11
265.506
21
-196.586
0
LINE
8
BLACK
6
CONTINUOUS
10
265.506
20
-195.657
11
265.577
21
-195.729
0
LINE
8
BLACK
6
CONTINUOUS
10
265.577
20
-195.729
11
265.506
21
-195.8
0
LINE
8
BLACK
6
CONTINUOUS
10
265.506
20
-195.8
11
265.434
21
-195.729
0
LINE
8
BLACK
6
CONTINUOUS
10
265.434
20
-195.729
11
265.506
21
-195.657
0
LINE
8
BLACK
6
CONTINUOUS
10
265.506
20
-195.657
11
265.506
21
-195.8
0
LINE
8
BLACK
6
CONTINUOUS
10
268.149
20
-196.586
11
267.291
21
-196.586
0
LINE
8
BLACK
6
CONTINUOUS
10
267.72
20
-196.586
11
267.72
21
-195.086
0
LINE
8
BLACK
6
CONTINUOUS
10
267.72
20
-195.086
11
267.577
21
-195.3
0
LINE
8
BLACK
6
CONTINUOUS
10
267.577
20
-195.3
11
267.434
21
-195.443
0
LINE
8
BLACK
6
CONTINUOUS
10
267.434
20
-195.443
11
267.291
21
-195.514
0
LINE
8
BLACK
6
CONTINUOUS
10
269.863
20
-195.014
11
268.577
21
-196.943
0
LINE
8
BLACK
6
CONTINUOUS
10
271.149
20
-196.586
11
270.291
21
-196.586
0
LINE
8
BLACK
6
CONTINUOUS
10
270.72
20
-196.586
11
270.72
21
-195.086
0
LINE
8
BLACK
6
CONTINUOUS
10
270.72
20
-195.086
11
270.577
21
-195.3
0
LINE
8
BLACK
6
CONTINUOUS
10
270.577
20
-195.3
11
270.434
21
-195.443
0
LINE
8
BLACK
6
CONTINUOUS
10
270.434
20
-195.443
11
270.291
21
-195.514
0
LINE
8
BLACK
6
CONTINUOUS
10
177.002
20
-187.507
11
285.002
21
-187.507
0
LINE
8
BLACK
6
CONTINUOUS
10
178.715
20
-188.212
11
179.857
21
-188.212
0
LINE
8
BLACK
6
CONTINUOUS
10
179.036
20
-190.212
11
179.286
21
-188.212
0
LINE
8
BLACK
6
CONTINUOUS
10
180.274
20
-190.212
11
180.441
21
-188.879
0
LINE
8
BLACK
6
CONTINUOUS
10
180.524
20
-188.212
11
180.417
21
-188.307
0
LINE
8
BLACK
6
CONTINUOUS
10
180.417
20
-188.307
11
180.5
21
-188.402
0
LINE
8
BLACK
6
CONTINUOUS
10
180.5
20
-188.402
11
180.607
21
-188.307
0
LINE
8
BLACK
6
CONTINUOUS
10
180.607
20
-188.307
11
180.524
21
-188.212
0
LINE
8
BLACK
6
CONTINUOUS
10
180.524
20
-188.212
11
180.5
21
-188.402
0
LINE
8
BLACK
6
CONTINUOUS
10
181.107
20
-188.879
11
181.869
21
-188.879
0
LINE
8
BLACK
6
CONTINUOUS
10
181.476
20
-188.212
11
181.262
21
-189.926
0
LINE
8
BLACK
6
CONTINUOUS
10
181.262
20
-189.926
11
181.334
21
-190.117
0
LINE
8
BLACK
6
CONTINUOUS
10
181.334
20
-190.117
11
181.512
21
-190.212
0
LINE
8
BLACK
6
CONTINUOUS
10
181.512
20
-190.212
11
181.703
21
-190.212
0
LINE
8
BLACK
6
CONTINUOUS
10
182.655
20
-190.212
11
182.476
21
-190.117
0
LINE
8
BLACK
6
CONTINUOUS
10
182.476
20
-190.117
11
182.405
21
-189.926
0
LINE
8
BLACK
6
CONTINUOUS
10
182.405
20
-189.926
11
182.619
21
-188.212
0
LINE
8
BLACK
6
CONTINUOUS
10
184.191
20
-190.117
11
183.988
21
-190.212
0
LINE
8
BLACK
6
CONTINUOUS
10
183.988
20
-190.212
11
183.607
21
-190.212
0
LINE
8
BLACK
6
CONTINUOUS
10
183.607
20
-190.212
11
183.429
21
-190.117
0
LINE
8
BLACK
6
CONTINUOUS
10
183.429
20
-190.117
11
183.357
21
-189.926
0
LINE
8
BLACK
6
CONTINUOUS
10
183.357
20
-189.926
11
183.453
21
-189.164
0
LINE
8
BLACK
6
CONTINUOUS
10
183.453
20
-189.164
11
183.572
21
-188.974
0
LINE
8
BLACK
6
CONTINUOUS
10
183.572
20
-188.974
11
183.774
21
-188.879
0
LINE
8
BLACK
6
CONTINUOUS
10
183.774
20
-188.879
11
184.155
21
-188.879
0
LINE
8
BLACK
6
CONTINUOUS
10
184.155
20
-188.879
11
184.334
21
-188.974
0
LINE
8
BLACK
6
CONTINUOUS
10
184.334
20
-188.974
11
184.405
21
-189.164
0
LINE
8
BLACK
6
CONTINUOUS
10
184.405
20
-189.164
11
184.381
21
-189.355
0
LINE
8
BLACK
6
CONTINUOUS
10
184.381
20
-189.355
11
183.405
21
-189.545
0
LINE
8
BLACK
6
CONTINUOUS
10
185.155
20
-190.021
11
185.238
21
-190.117
0
LINE
8
BLACK
6
CONTINUOUS
10
185.238
20
-190.117
11
185.131
21
-190.212
0
LINE
8
BLACK
6
CONTINUOUS
10
185.131
20
-190.212
11
185.048
21
-190.117
0
LINE
8
BLACK
6
CONTINUOUS
10
185.048
20
-190.117
11
185.155
21
-190.021
0
LINE
8
BLACK
6
CONTINUOUS
10
185.155
20
-190.021
11
185.131
21
-190.212
0
LINE
8
BLACK
6
CONTINUOUS
10
185.286
20
-188.974
11
185.369
21
-189.069
0
LINE
8
BLACK
6
CONTINUOUS
10
185.369
20
-189.069
11
185.262
21
-189.164
0
LINE
8
BLACK
6
CONTINUOUS
10
185.262
20
-189.164
11
185.179
21
-189.069
0
LINE
8
BLACK
6
CONTINUOUS
10
185.179
20
-189.069
11
185.286
21
-188.974
0
LINE
8
BLACK
6
CONTINUOUS
10
185.286
20
-188.974
11
185.262
21
-189.164
0
LINE
8
BLACK
6
CONTINUOUS
10
178.934
20
-185.6
11
178.434
21
-185.6
0
LINE
8
BLACK
6
CONTINUOUS
10
178.434
20
-186.386
11
178.434
21
-184.886
0
LINE
8
BLACK
6
CONTINUOUS
10
178.434
20
-184.886
11
179.149
21
-184.886
0
LINE
8
BLACK
6
CONTINUOUS
10
179.72
20
-186.386
11
179.72
21
-185.386
0
LINE
8
BLACK
6
CONTINUOUS
10
179.72
20
-184.886
11
179.649
21
-184.957
0
LINE
8
BLACK
6
CONTINUOUS
10
179.649
20
-184.957
11
179.72
21
-185.029
0
LINE
8
BLACK
6
CONTINUOUS
10
179.72
20
-185.029
11
179.791
21
-184.957
0
LINE
8
BLACK
6
CONTINUOUS
10
179.791
20
-184.957
11
179.72
21
-184.886
0
LINE
8
BLACK
6
CONTINUOUS
10
179.72
20
-184.886
11
179.72
21
-185.029
0
LINE
8
BLACK
6
CONTINUOUS
10
180.649
20
-186.386
11
180.506
21
-186.314
0
LINE
8
BLACK
6
CONTINUOUS
10
180.506
20
-186.314
11
180.434
21
-186.171
0
LINE
8
BLACK
6
CONTINUOUS
10
180.434
20
-186.171
11
180.434
21
-184.886
0
LINE
8
BLACK
6
CONTINUOUS
10
181.791
20
-186.314
11
181.649
21
-186.386
0
LINE
8
BLACK
6
CONTINUOUS
10
181.649
20
-186.386
11
181.363
21
-186.386
0
LINE
8
BLACK
6
CONTINUOUS
10
181.363
20
-186.386
11
181.22
21
-186.314
0
LINE
8
BLACK
6
CONTINUOUS
10
181.22
20
-186.314
11
181.149
21
-186.171
0
LINE
8
BLACK
6
CONTINUOUS
10
181.149
20
-186.171
11
181.149
21
-185.6
0
LINE
8
BLACK
6
CONTINUOUS
10
181.149
20
-185.6
11
181.22
21
-185.457
0
LINE
8
BLACK
6
CONTINUOUS
10
181.22
20
-185.457
11
181.363
21
-185.386
0
LINE
8
BLACK
6
CONTINUOUS
10
181.363
20
-185.386
11
181.649
21
-185.386
0
LINE
8
BLACK
6
CONTINUOUS
10
181.649
20
-185.386
11
181.791
21
-185.457
0
LINE
8
BLACK
6
CONTINUOUS
10
181.791
20
-185.457
11
181.863
21
-185.6
0
LINE
8
BLACK
6
CONTINUOUS
10
181.863
20
-185.6
11
181.863
21
-185.743
0
LINE
8
BLACK
6
CONTINUOUS
10
181.863
20
-185.743
11
181.149
21
-185.886
0
LINE
8
BLACK
6
CONTINUOUS
10
182.506
20
-186.243
11
182.577
21
-186.314
0
LINE
8
BLACK
6
CONTINUOUS
10
182.577
20
-186.314
11
182.506
21
-186.386
0
LINE
8
BLACK
6
CONTINUOUS
10
182.506
20
-186.386
11
182.434
21
-186.314
0
LINE
8
BLACK
6
CONTINUOUS
10
182.434
20
-186.314
11
182.506
21
-186.243
0
LINE
8
BLACK
6
CONTINUOUS
10
182.506
20
-186.243
11
182.506
21
-186.386
0
LINE
8
BLACK
6
CONTINUOUS
10
182.506
20
-185.457
11
182.577
21
-185.529
0
LINE
8
BLACK
6
CONTINUOUS
10
182.577
20
-185.529
11
182.506
21
-185.6
0
LINE
8
BLACK
6
CONTINUOUS
10
182.506
20
-185.6
11
182.434
21
-185.529
0
LINE
8
BLACK
6
CONTINUOUS
10
182.434
20
-185.529
11
182.506
21
-185.457
0
LINE
8
BLACK
6
CONTINUOUS
10
182.506
20
-185.457
11
182.506
21
-185.6
0
LINE
8
BLACK
6
CONTINUOUS
10
184.863
20
-185.6
11
184.363
21
-185.6
0
LINE
8
BLACK
6
CONTINUOUS
10
184.363
20
-186.386
11
184.363
21
-184.886
0
LINE
8
BLACK
6
CONTINUOUS
10
184.363
20
-184.886
11
185.077
21
-184.886
0
LINE
8
BLACK
6
CONTINUOUS
10
185.649
20
-186.386
11
185.649
21
-185.386
0
LINE
8
BLACK
6
CONTINUOUS
10
185.649
20
-185.671
11
185.72
21
-185.529
0
LINE
8
BLACK
6
CONTINUOUS
10
185.72
20
-185.529
11
185.791
21
-185.457
0
LINE
8
BLACK
6
CONTINUOUS
10
185.791
20
-185.457
11
185.934
21
-185.386
0
LINE
8
BLACK
6
CONTINUOUS
10
185.934
20
-185.386
11
186.077
21
-185.386
0
LINE
8
BLACK
6
CONTINUOUS
10
186.791
20
-186.386
11
186.649
21
-186.314
0
LINE
8
BLACK
6
CONTINUOUS
10
186.649
20
-186.314
11
186.577
21
-186.243
0
LINE
8
BLACK
6
CONTINUOUS
10
186.577
20
-186.243
11
186.506
21
-186.1
0
LINE
8
BLACK
6
CONTINUOUS
10
186.506
20
-186.1
11
186.506
21
-185.671
0
LINE
8
BLACK
6
CONTINUOUS
10
186.506
20
-185.671
11
186.577
21
-185.529
0
LINE
8
BLACK
6
CONTINUOUS
10
186.577
20
-185.529
11
186.649
21
-185.457
0
LINE
8
BLACK
6
CONTINUOUS
10
186.649
20
-185.457
11
186.791
21
-185.386
0
LINE
8
BLACK
6
CONTINUOUS
10
186.791
20
-185.386
11
187.006
21
-185.386
0
LINE
8
BLACK
6
CONTINUOUS
10
187.006
20
-185.386
11
187.149
21
-185.457
0
LINE
8
BLACK
6
CONTINUOUS
10
187.149
20
-185.457
11
187.22
21
-185.529
0
LINE
8
BLACK
6
CONTINUOUS
10
187.22
20
-185.529
11
187.291
21
-185.671
0
LINE
8
BLACK
6
CONTINUOUS
10
187.291
20
-185.671
11
187.291
21
-186.1
0
LINE
8
BLACK
6
CONTINUOUS
10
187.291
20
-186.1
11
187.22
21
-186.243
0
LINE
8
BLACK
6
CONTINUOUS
10
187.22
20
-186.243
11
187.149
21
-186.314
0
LINE
8
BLACK
6
CONTINUOUS
10
187.149
20
-186.314
11
187.006
21
-186.386
0
LINE
8
BLACK
6
CONTINUOUS
10
187.006
20
-186.386
11
186.791
21
-186.386
0
LINE
8
BLACK
6
CONTINUOUS
10
188.577
20
-185.386
11
188.577
21
-186.6
0
LINE
8
BLACK
6
CONTINUOUS
10
188.577
20
-186.6
11
188.506
21
-186.743
0
LINE
8
BLACK
6
CONTINUOUS
10
188.506
20
-186.743
11
188.434
21
-186.814
0
LINE
8
BLACK
6
CONTINUOUS
10
188.434
20
-186.814
11
188.291
21
-186.886
0
LINE
8
BLACK
6
CONTINUOUS
10
188.291
20
-186.886
11
188.077
21
-186.886
0
LINE
8
BLACK
6
CONTINUOUS
10
188.077
20
-186.886
11
187.934
21
-186.814
0
LINE
8
BLACK
6
CONTINUOUS
10
188.577
20
-186.314
11
188.434
21
-186.386
0
LINE
8
BLACK
6
CONTINUOUS
10
188.434
20
-186.386
11
188.149
21
-186.386
0
LINE
8
BLACK
6
CONTINUOUS
10
188.149
20
-186.386
11
188.006
21
-186.314
0
LINE
8
BLACK
6
CONTINUOUS
10
188.006
20
-186.314
11
187.934
21
-186.243
0
LINE
8
BLACK
6
CONTINUOUS
10
187.934
20
-186.243
11
187.863
21
-186.1
0
LINE
8
BLACK
6
CONTINUOUS
10
187.863
20
-186.1
11
187.863
21
-185.671
0
LINE
8
BLACK
6
CONTINUOUS
10
187.863
20
-185.671
11
187.934
21
-185.529
0
LINE
8
BLACK
6
CONTINUOUS
10
187.934
20
-185.529
11
188.006
21
-185.457
0
LINE
8
BLACK
6
CONTINUOUS
10
188.006
20
-185.457
11
188.149
21
-185.386
0
LINE
8
BLACK
6
CONTINUOUS
10
188.149
20
-185.386
11
188.434
21
-185.386
0
LINE
8
BLACK
6
CONTINUOUS
10
188.434
20
-185.386
11
188.577
21
-185.457
0
LINE
8
BLACK
6
CONTINUOUS
10
189.291
20
-186.386
11
189.291
21
-184.886
0
LINE
8
BLACK
6
CONTINUOUS
10
190.006
20
-186.386
11
190.006
21
-184.886
0
LINE
8
BLACK
6
CONTINUOUS
10
190.006
20
-184.886
11
190.863
21
-186.386
0
LINE
8
BLACK
6
CONTINUOUS
10
190.863
20
-186.386
11
190.863
21
-184.886
0
LINE
8
BLACK
6
CONTINUOUS
10
191.363
20
-184.886
11
192.22
21
-184.886
0
LINE
8
BLACK
6
CONTINUOUS
10
191.791
20
-186.386
11
191.791
21
-184.886
0
LINE
8
BLACK
6
CONTINUOUS
10
192.363
20
-186.529
11
193.506
21
-186.529
0
LINE
8
BLACK
6
CONTINUOUS
10
193.863
20
-186.386
11
193.863
21
-184.886
0
LINE
8
BLACK
6
CONTINUOUS
10
193.863
20
-184.886
11
194.434
21
-184.886
0
LINE
8
BLACK
6
CONTINUOUS
10
194.434
20
-184.886
11
194.577
21
-184.957
0
LINE
8
BLACK
6
CONTINUOUS
10
194.577
20
-184.957
11
194.649
21
-185.029
0
LINE
8
BLACK
6
CONTINUOUS
10
194.649
20
-185.029
11
194.72
21
-185.171
0
LINE
8
BLACK
6
CONTINUOUS
10
194.72
20
-185.171
11
194.72
21
-185.386
0
LINE
8
BLACK
6
CONTINUOUS
10
194.72
20
-185.386
11
194.649
21
-185.529
0
LINE
8
BLACK
6
CONTINUOUS
10
194.649
20
-185.529
11
194.577
21
-185.6
0
LINE
8
BLACK
6
CONTINUOUS
10
194.577
20
-185.6
11
194.434
21
-185.671
0
LINE
8
BLACK
6
CONTINUOUS
10
194.434
20
-185.671
11
193.863
21
-185.671
0
LINE
8
BLACK
6
CONTINUOUS
10
196.22
20
-186.243
11
196.149
21
-186.314
0
LINE
8
BLACK
6
CONTINUOUS
10
196.149
20
-186.314
11
195.934
21
-186.386
0
LINE
8
BLACK
6
CONTINUOUS
10
195.934
20
-186.386
11
195.791
21
-186.386
0
LINE
8
BLACK
6
CONTINUOUS
10
195.791
20
-186.386
11
195.577
21
-186.314
0
LINE
8
BLACK
6
CONTINUOUS
10
195.577
20
-186.314
11
195.434
21
-186.171
0
LINE
8
BLACK
6
CONTINUOUS
10
195.434
20
-186.171
11
195.363
21
-186.029
0
LINE
8
BLACK
6
CONTINUOUS
10
195.363
20
-186.029
11
195.291
21
-185.743
0
LINE
8
BLACK
6
CONTINUOUS
10
195.291
20
-185.743
11
195.291
21
-185.529
0
LINE
8
BLACK
6
CONTINUOUS
10
195.291
20
-185.529
11
195.363
21
-185.243
0
LINE
8
BLACK
6
CONTINUOUS
10
195.363
20
-185.243
11
195.434
21
-185.1
0
LINE
8
BLACK
6
CONTINUOUS
10
195.434
20
-185.1
11
195.577
21
-184.957
0
LINE
8
BLACK
6
CONTINUOUS
10
195.577
20
-184.957
11
195.791
21
-184.886
0
LINE
8
BLACK
6
CONTINUOUS
10
195.791
20
-184.886
11
195.934
21
-184.886
0
LINE
8
BLACK
6
CONTINUOUS
10
195.934
20
-184.886
11
196.149
21
-184.957
0
LINE
8
BLACK
6
CONTINUOUS
10
196.149
20
-184.957
11
196.22
21
-185.029
0
LINE
8
BLACK
6
CONTINUOUS
10
197.363
20
-185.6
11
197.577
21
-185.671
0
LINE
8
BLACK
6
CONTINUOUS
10
197.577
20
-185.671
11
197.649
21
-185.743
0
LINE
8
BLACK
6
CONTINUOUS
10
197.649
20
-185.743
11
197.72
21
-185.886
0
LINE
8
BLACK
6
CONTINUOUS
10
197.72
20
-185.886
11
197.72
21
-186.1
0
LINE
8
BLACK
6
CONTINUOUS
10
197.72
20
-186.1
11
197.649
21
-186.243
0
LINE
8
BLACK
6
CONTINUOUS
10
197.649
20
-186.243
11
197.577
21
-186.314
0
LINE
8
BLACK
6
CONTINUOUS
10
197.577
20
-186.314
11
197.434
21
-186.386
0
LINE
8
BLACK
6
CONTINUOUS
10
197.434
20
-186.386
11
196.863
21
-186.386
0
LINE
8
BLACK
6
CONTINUOUS
10
196.863
20
-186.386
11
196.863
21
-184.886
0
LINE
8
BLACK
6
CONTINUOUS
10
196.863
20
-184.886
11
197.363
21
-184.886
0
LINE
8
BLACK
6
CONTINUOUS
10
197.363
20
-184.886
11
197.506
21
-184.957
0
LINE
8
BLACK
6
CONTINUOUS
10
197.506
20
-184.957
11
197.577
21
-185.029
0
LINE
8
BLACK
6
CONTINUOUS
10
197.577
20
-185.029
11
197.649
21
-185.171
0
LINE
8
BLACK
6
CONTINUOUS
10
197.649
20
-185.171
11
197.649
21
-185.314
0
LINE
8
BLACK
6
CONTINUOUS
10
197.649
20
-185.314
11
197.577
21
-185.457
0
LINE
8
BLACK
6
CONTINUOUS
10
197.577
20
-185.457
11
197.506
21
-185.529
0
LINE
8
BLACK
6
CONTINUOUS
10
197.506
20
-185.529
11
197.363
21
-185.6
0
LINE
8
BLACK
6
CONTINUOUS
10
197.363
20
-185.6
11
196.863
21
-185.6
0
LINE
8
BLACK
6
CONTINUOUS
10
198.363
20
-186.386
11
198.363
21
-184.886
0
LINE
8
BLACK
6
CONTINUOUS
10
198.363
20
-184.886
11
198.934
21
-184.886
0
LINE
8
BLACK
6
CONTINUOUS
10
198.934
20
-184.886
11
199.077
21
-184.957
0
LINE
8
BLACK
6
CONTINUOUS
10
199.077
20
-184.957
11
199.149
21
-185.029
0
LINE
8
BLACK
6
CONTINUOUS
10
199.149
20
-185.029
11
199.22
21
-185.171
0
LINE
8
BLACK
6
CONTINUOUS
10
199.22
20
-185.171
11
199.22
21
-185.386
0
LINE
8
BLACK
6
CONTINUOUS
10
199.22
20
-185.386
11
199.149
21
-185.529
0
LINE
8
BLACK
6
CONTINUOUS
10
199.149
20
-185.529
11
199.077
21
-185.6
0
LINE
8
BLACK
6
CONTINUOUS
10
199.077
20
-185.6
11
198.934
21
-185.671
0
LINE
8
BLACK
6
CONTINUOUS
10
198.934
20
-185.671
11
198.363
21
-185.671
0
LINE
8
BLACK
6
CONTINUOUS
10
199.863
20
-186.386
11
199.863
21
-185.386
0
LINE
8
BLACK
6
CONTINUOUS
10
199.863
20
-185.671
11
199.934
21
-185.529
0
LINE
8
BLACK
6
CONTINUOUS
10
199.934
20
-185.529
11
200.006
21
-185.457
0
LINE
8
BLACK
6
CONTINUOUS
10
200.006
20
-185.457
11
200.149
21
-185.386
0
LINE
8
BLACK
6
CONTINUOUS
10
200.149
20
-185.386
11
200.291
21
-185.386
0
LINE
8
BLACK
6
CONTINUOUS
10
201.006
20
-186.386
11
200.863
21
-186.314
0
LINE
8
BLACK
6
CONTINUOUS
10
200.863
20
-186.314
11
200.791
21
-186.243
0
LINE
8
BLACK
6
CONTINUOUS
10
200.791
20
-186.243
11
200.72
21
-186.1
0
LINE
8
BLACK
6
CONTINUOUS
10
200.72
20
-186.1
11
200.72
21
-185.671
0
LINE
8
BLACK
6
CONTINUOUS
10
200.72
20
-185.671
11
200.791
21
-185.529
0
LINE
8
BLACK
6
CONTINUOUS
10
200.791
20
-185.529
11
200.863
21
-185.457
0
LINE
8
BLACK
6
CONTINUOUS
10
200.863
20
-185.457
11
201.006
21
-185.386
0
LINE
8
BLACK
6
CONTINUOUS
10
201.006
20
-185.386
11
201.22
21
-185.386
0
LINE
8
BLACK
6
CONTINUOUS
10
201.22
20
-185.386
11
201.363
21
-185.457
0
LINE
8
BLACK
6
CONTINUOUS
10
201.363
20
-185.457
11
201.434
21
-185.529
0
LINE
8
BLACK
6
CONTINUOUS
10
201.434
20
-185.529
11
201.506
21
-185.671
0
LINE
8
BLACK
6
CONTINUOUS
10
201.506
20
-185.671
11
201.506
21
-186.1
0
LINE
8
BLACK
6
CONTINUOUS
10
201.506
20
-186.1
11
201.434
21
-186.243
0
LINE
8
BLACK
6
CONTINUOUS
10
201.434
20
-186.243
11
201.363
21
-186.314
0
LINE
8
BLACK
6
CONTINUOUS
10
201.363
20
-186.314
11
201.22
21
-186.386
0
LINE
8
BLACK
6
CONTINUOUS
10
201.22
20
-186.386
11
201.006
21
-186.386
0
LINE
8
BLACK
6
CONTINUOUS
10
201.934
20
-185.386
11
202.506
21
-185.386
0
LINE
8
BLACK
6
CONTINUOUS
10
202.149
20
-184.886
11
202.149
21
-186.171
0
LINE
8
BLACK
6
CONTINUOUS
10
202.149
20
-186.171
11
202.22
21
-186.314
0
LINE
8
BLACK
6
CONTINUOUS
10
202.22
20
-186.314
11
202.363
21
-186.386
0
LINE
8
BLACK
6
CONTINUOUS
10
202.363
20
-186.386
11
202.506
21
-186.386
0
LINE
8
BLACK
6
CONTINUOUS
10
203.22
20
-186.386
11
203.077
21
-186.314
0
LINE
8
BLACK
6
CONTINUOUS
10
203.077
20
-186.314
11
203.006
21
-186.243
0
LINE
8
BLACK
6
CONTINUOUS
10
203.006
20
-186.243
11
202.934
21
-186.1
0
LINE
8
BLACK
6
CONTINUOUS
10
202.934
20
-186.1
11
202.934
21
-185.671
0
LINE
8
BLACK
6
CONTINUOUS
10
202.934
20
-185.671
11
203.006
21
-185.529
0
LINE
8
BLACK
6
CONTINUOUS
10
203.006
20
-185.529
11
203.077
21
-185.457
0
LINE
8
BLACK
6
CONTINUOUS
10
203.077
20
-185.457
11
203.22
21
-185.386
0
LINE
8
BLACK
6
CONTINUOUS
10
203.22
20
-185.386
11
203.434
21
-185.386
0
LINE
8
BLACK
6
CONTINUOUS
10
203.434
20
-185.386
11
203.577
21
-185.457
0
LINE
8
BLACK
6
CONTINUOUS
10
203.577
20
-185.457
11
203.649
21
-185.529
0
LINE
8
BLACK
6
CONTINUOUS
10
203.649
20
-185.529
11
203.72
21
-185.671
0
LINE
8
BLACK
6
CONTINUOUS
10
203.72
20
-185.671
11
203.72
21
-186.1
0
LINE
8
BLACK
6
CONTINUOUS
10
203.72
20
-186.1
11
203.649
21
-186.243
0
LINE
8
BLACK
6
CONTINUOUS
10
203.649
20
-186.243
11
203.577
21
-186.314
0
LINE
8
BLACK
6
CONTINUOUS
10
203.577
20
-186.314
11
203.434
21
-186.386
0
LINE
8
BLACK
6
CONTINUOUS
10
203.434
20
-186.386
11
203.22
21
-186.386
0
LINE
8
BLACK
6
CONTINUOUS
10
204.006
20
-186.529
11
205.149
21
-186.529
0
LINE
8
BLACK
6
CONTINUOUS
10
205.291
20
-184.886
11
205.791
21
-186.386
0
LINE
8
BLACK
6
CONTINUOUS
10
205.791
20
-186.386
11
206.291
21
-184.886
0
LINE
8
BLACK
6
CONTINUOUS
10
207.577
20
-186.386
11
206.72
21
-186.386
0
LINE
8
BLACK
6
CONTINUOUS
10
207.149
20
-186.386
11
207.149
21
-184.886
0
LINE
8
BLACK
6
CONTINUOUS
10
207.149
20
-184.886
11
207.006
21
-185.1
0
LINE
8
BLACK
6
CONTINUOUS
10
207.006
20
-185.1
11
206.863
21
-185.243
0
LINE
8
BLACK
6
CONTINUOUS
10
206.863
20
-185.243
11
206.72
21
-185.314
0
LINE
8
BLACK
6
CONTINUOUS
10
208.434
20
-185.529
11
208.291
21
-185.457
0
LINE
8
BLACK
6
CONTINUOUS
10
208.291
20
-185.457
11
208.22
21
-185.386
0
LINE
8
BLACK
6
CONTINUOUS
10
208.22
20
-185.386
11
208.149
21
-185.243
0
LINE
8
BLACK
6
CONTINUOUS
10
208.149
20
-185.243
11
208.149
21
-185.171
0
LINE
8
BLACK
6
CONTINUOUS
10
208.149
20
-185.171
11
208.22
21
-185.029
0
LINE
8
BLACK
6
CONTINUOUS
10
208.22
20
-185.029
11
208.291
21
-184.957
0
LINE
8
BLACK
6
CONTINUOUS
10
208.291
20
-184.957
11
208.434
21
-184.886
0
LINE
8
BLACK
6
CONTINUOUS
10
208.434
20
-184.886
11
208.72
21
-184.886
0
LINE
8
BLACK
6
CONTINUOUS
10
208.72
20
-184.886
11
208.863
21
-184.957
0
LINE
8
BLACK
6
CONTINUOUS
10
208.863
20
-184.957
11
208.934
21
-185.029
0
LINE
8
BLACK
6
CONTINUOUS
10
208.934
20
-185.029
11
209.006
21
-185.171
0
LINE
8
BLACK
6
CONTINUOUS
10
209.006
20
-185.171
11
209.006
21
-185.243
0
LINE
8
BLACK
6
CONTINUOUS
10
209.006
20
-185.243
11
208.934
21
-185.386
0
LINE
8
BLACK
6
CONTINUOUS
10
208.934
20
-185.386
11
208.863
21
-185.457
0
LINE
8
BLACK
6
CONTINUOUS
10
208.863
20
-185.457
11
208.72
21
-185.529
0
LINE
8
BLACK
6
CONTINUOUS
10
208.72
20
-185.529
11
208.434
21
-185.529
0
LINE
8
BLACK
6
CONTINUOUS
10
208.434
20
-185.529
11
208.291
21
-185.6
0
LINE
8
BLACK
6
CONTINUOUS
10
208.291
20
-185.6
11
208.22
21
-185.671
0
LINE
8
BLACK
6
CONTINUOUS
10
208.22
20
-185.671
11
208.149
21
-185.814
0
LINE
8
BLACK
6
CONTINUOUS
10
208.149
20
-185.814
11
208.149
21
-186.1
0
LINE
8
BLACK
6
CONTINUOUS
10
208.149
20
-186.1
11
208.22
21
-186.243
0
LINE
8
BLACK
6
CONTINUOUS
10
208.22
20
-186.243
11
208.291
21
-186.314
0
LINE
8
BLACK
6
CONTINUOUS
10
208.291
20
-186.314
11
208.434
21
-186.386
0
LINE
8
BLACK
6
CONTINUOUS
10
208.434
20
-186.386
11
208.72
21
-186.386
0
LINE
8
BLACK
6
CONTINUOUS
10
208.72
20
-186.386
11
208.863
21
-186.314
0
LINE
8
BLACK
6
CONTINUOUS
10
208.863
20
-186.314
11
208.934
21
-186.243
0
LINE
8
BLACK
6
CONTINUOUS
10
208.934
20
-186.243
11
209.006
21
-186.1
0
LINE
8
BLACK
6
CONTINUOUS
10
209.006
20
-186.1
11
209.006
21
-185.814
0
LINE
8
BLACK
6
CONTINUOUS
10
209.006
20
-185.814
11
208.934
21
-185.671
0
LINE
8
BLACK
6
CONTINUOUS
10
208.934
20
-185.671
11
208.863
21
-185.6
0
LINE
8
BLACK
6
CONTINUOUS
10
208.863
20
-185.6
11
208.72
21
-185.529
0
LINE
8
BLACK
6
CONTINUOUS
10
210.434
20
-186.386
11
209.577
21
-186.386
0
LINE
8
BLACK
6
CONTINUOUS
10
210.006
20
-186.386
11
210.006
21
-184.886
0
LINE
8
BLACK
6
CONTINUOUS
10
210.006
20
-184.886
11
209.863
21
-185.1
0
LINE
8
BLACK
6
CONTINUOUS
10
209.863
20
-185.1
11
209.72
21
-185.243
0
LINE
8
BLACK
6
CONTINUOUS
10
209.72
20
-185.243
11
209.577
21
-185.314
0
LINE
8
BLACK
6
CONTINUOUS
10
211.863
20
-186.386
11
211.006
21
-186.386
0
LINE
8
BLACK
6
CONTINUOUS
10
211.434
20
-186.386
11
211.434
21
-184.886
0
LINE
8
BLACK
6
CONTINUOUS
10
211.434
20
-184.886
11
211.291
21
-185.1
0
LINE
8
BLACK
6
CONTINUOUS
10
211.291
20
-185.1
11
211.149
21
-185.243
0
LINE
8
BLACK
6
CONTINUOUS
10
211.149
20
-185.243
11
211.006
21
-185.314
0
LINE
8
BLACK
6
CONTINUOUS
10
212.791
20
-184.886
11
212.934
21
-184.886
0
LINE
8
BLACK
6
CONTINUOUS
10
212.934
20
-184.886
11
213.077
21
-184.957
0
LINE
8
BLACK
6
CONTINUOUS
10
213.077
20
-184.957
11
213.149
21
-185.029
0
LINE
8
BLACK
6
CONTINUOUS
10
213.149
20
-185.029
11
213.22
21
-185.171
0
LINE
8
BLACK
6
CONTINUOUS
10
213.22
20
-185.171
11
213.291
21
-185.457
0
LINE
8
BLACK
6
CONTINUOUS
10
213.291
20
-185.457
11
213.291
21
-185.814
0
LINE
8
BLACK
6
CONTINUOUS
10
213.291
20
-185.814
11
213.22
21
-186.1
0
LINE
8
BLACK
6
CONTINUOUS
10
213.22
20
-186.1
11
213.149
21
-186.243
0
LINE
8
BLACK
6
CONTINUOUS
10
213.149
20
-186.243
11
213.077
21
-186.314
0
LINE
8
BLACK
6
CONTINUOUS
10
213.077
20
-186.314
11
212.934
21
-186.386
0
LINE
8
BLACK
6
CONTINUOUS
10
212.934
20
-186.386
11
212.791
21
-186.386
0
LINE
8
BLACK
6
CONTINUOUS
10
212.791
20
-186.386
11
212.649
21
-186.314
0
LINE
8
BLACK
6
CONTINUOUS
10
212.649
20
-186.314
11
212.577
21
-186.243
0
LINE
8
BLACK
6
CONTINUOUS
10
212.577
20
-186.243
11
212.506
21
-186.1
0
LINE
8
BLACK
6
CONTINUOUS
10
212.506
20
-186.1
11
212.434
21
-185.814
0
LINE
8
BLACK
6
CONTINUOUS
10
212.434
20
-185.814
11
212.434
21
-185.457
0
LINE
8
BLACK
6
CONTINUOUS
10
212.434
20
-185.457
11
212.506
21
-185.171
0
LINE
8
BLACK
6
CONTINUOUS
10
212.506
20
-185.171
11
212.577
21
-185.029
0
LINE
8
BLACK
6
CONTINUOUS
10
212.577
20
-185.029
11
212.649
21
-184.957
0
LINE
8
BLACK
6
CONTINUOUS
10
212.649
20
-184.957
11
212.791
21
-184.886
0
LINE
8
BLACK
6
CONTINUOUS
10
214.577
20
-184.886
11
214.291
21
-184.886
0
LINE
8
BLACK
6
CONTINUOUS
10
214.291
20
-184.886
11
214.149
21
-184.957
0
LINE
8
BLACK
6
CONTINUOUS
10
214.149
20
-184.957
11
214.077
21
-185.029
0
LINE
8
BLACK
6
CONTINUOUS
10
214.077
20
-185.029
11
213.934
21
-185.243
0
LINE
8
BLACK
6
CONTINUOUS
10
213.934
20
-185.243
11
213.863
21
-185.529
0
LINE
8
BLACK
6
CONTINUOUS
10
213.863
20
-185.529
11
213.863
21
-186.1
0
LINE
8
BLACK
6
CONTINUOUS
10
213.863
20
-186.1
11
213.934
21
-186.243
0
LINE
8
BLACK
6
CONTINUOUS
10
213.934
20
-186.243
11
214.006
21
-186.314
0
LINE
8
BLACK
6
CONTINUOUS
10
214.006
20
-186.314
11
214.149
21
-186.386
0
LINE
8
BLACK
6
CONTINUOUS
10
214.149
20
-186.386
11
214.434
21
-186.386
0
LINE
8
BLACK
6
CONTINUOUS
10
214.434
20
-186.386
11
214.577
21
-186.314
0
LINE
8
BLACK
6
CONTINUOUS
10
214.577
20
-186.314
11
214.649
21
-186.243
0
LINE
8
BLACK
6
CONTINUOUS
10
214.649
20
-186.243
11
214.72
21
-186.1
0
LINE
8
BLACK
6
CONTINUOUS
10
214.72
20
-186.1
11
214.72
21
-185.743
0
LINE
8
BLACK
6
CONTINUOUS
10
214.72
20
-185.743
11
214.649
21
-185.6
0
LINE
8
BLACK
6
CONTINUOUS
10
214.649
20
-185.6
11
214.577
21
-185.529
0
LINE
8
BLACK
6
CONTINUOUS
10
214.577
20
-185.529
11
214.434
21
-185.457
0
LINE
8
BLACK
6
CONTINUOUS
10
214.434
20
-185.457
11
214.149
21
-185.457
0
LINE
8
BLACK
6
CONTINUOUS
10
214.149
20
-185.457
11
214.006
21
-185.529
0
LINE
8
BLACK
6
CONTINUOUS
10
214.006
20
-185.529
11
213.934
21
-185.6
0
LINE
8
BLACK
6
CONTINUOUS
10
213.934
20
-185.6
11
213.863
21
-185.743
0
LINE
8
BLACK
6
CONTINUOUS
10
215.291
20
-185.029
11
215.363
21
-184.957
0
LINE
8
BLACK
6
CONTINUOUS
10
215.363
20
-184.957
11
215.506
21
-184.886
0
LINE
8
BLACK
6
CONTINUOUS
10
215.506
20
-184.886
11
215.863
21
-184.886
0
LINE
8
BLACK
6
CONTINUOUS
10
215.863
20
-184.886
11
216.006
21
-184.957
0
LINE
8
BLACK
6
CONTINUOUS
10
216.006
20
-184.957
11
216.077
21
-185.029
0
LINE
8
BLACK
6
CONTINUOUS
10
216.077
20
-185.029
11
216.149
21
-185.171
0
LINE
8
BLACK
6
CONTINUOUS
10
216.149
20
-185.171
11
216.149
21
-185.314
0
LINE
8
BLACK
6
CONTINUOUS
10
216.149
20
-185.314
11
216.077
21
-185.529
0
LINE
8
BLACK
6
CONTINUOUS
10
216.077
20
-185.529
11
215.22
21
-186.386
0
LINE
8
BLACK
6
CONTINUOUS
10
215.22
20
-186.386
11
216.149
21
-186.386
0
LINE
8
BLACK
6
CONTINUOUS
10
217.577
20
-186.386
11
216.72
21
-186.386
0
LINE
8
BLACK
6
CONTINUOUS
10
217.149
20
-186.386
11
217.149
21
-184.886
0
LINE
8
BLACK
6
CONTINUOUS
10
217.149
20
-184.886
11
217.006
21
-185.1
0
LINE
8
BLACK
6
CONTINUOUS
10
217.006
20
-185.1
11
216.863
21
-185.243
0
LINE
8
BLACK
6
CONTINUOUS
10
216.863
20
-185.243
11
216.72
21
-185.314
0
LINE
8
BLACK
6
CONTINUOUS
10
218.934
20
-184.886
11
218.22
21
-184.886
0
LINE
8
BLACK
6
CONTINUOUS
10
218.22
20
-184.886
11
218.149
21
-185.6
0
LINE
8
BLACK
6
CONTINUOUS
10
218.149
20
-185.6
11
218.22
21
-185.529
0
LINE
8
BLACK
6
CONTINUOUS
10
218.22
20
-185.529
11
218.363
21
-185.457
0
LINE
8
BLACK
6
CONTINUOUS
10
218.363
20
-185.457
11
218.72
21
-185.457
0
LINE
8
BLACK
6
CONTINUOUS
10
218.72
20
-185.457
11
218.863
21
-185.529
0
LINE
8
BLACK
6
CONTINUOUS
10
218.863
20
-185.529
11
218.934
21
-185.6
0
LINE
8
BLACK
6
CONTINUOUS
10
218.934
20
-185.6
11
219.006
21
-185.743
0
LINE
8
BLACK
6
CONTINUOUS
10
219.006
20
-185.743
11
219.006
21
-186.1
0
LINE
8
BLACK
6
CONTINUOUS
10
219.006
20
-186.1
11
218.934
21
-186.243
0
LINE
8
BLACK
6
CONTINUOUS
10
218.934
20
-186.243
11
218.863
21
-186.314
0
LINE
8
BLACK
6
CONTINUOUS
10
218.863
20
-186.314
11
218.72
21
-186.386
0
LINE
8
BLACK
6
CONTINUOUS
10
218.72
20
-186.386
11
218.363
21
-186.386
0
LINE
8
BLACK
6
CONTINUOUS
10
218.363
20
-186.386
11
218.22
21
-186.314
0
LINE
8
BLACK
6
CONTINUOUS
10
218.22
20
-186.314
11
218.149
21
-186.243
0
LINE
8
BLACK
6
CONTINUOUS
10
220.291
20
-185.386
11
220.291
21
-186.386
0
LINE
8
BLACK
6
CONTINUOUS
10
219.934
20
-184.814
11
219.577
21
-185.886
0
LINE
8
BLACK
6
CONTINUOUS
10
219.577
20
-185.886
11
220.506
21
-185.886
0
LINE
8
BLACK
6
CONTINUOUS
10
221.077
20
-186.243
11
221.149
21
-186.314
0
LINE
8
BLACK
6
CONTINUOUS
10
221.149
20
-186.314
11
221.077
21
-186.386
0
LINE
8
BLACK
6
CONTINUOUS
10
221.077
20
-186.386
11
221.006
21
-186.314
0
LINE
8
BLACK
6
CONTINUOUS
10
221.006
20
-186.314
11
221.077
21
-186.243
0
LINE
8
BLACK
6
CONTINUOUS
10
221.077
20
-186.243
11
221.077
21
-186.386
0
LINE
8
BLACK
6
CONTINUOUS
10
221.791
20
-186.386
11
221.791
21
-184.886
0
LINE
8
BLACK
6
CONTINUOUS
10
221.934
20
-185.814
11
222.363
21
-186.386
0
LINE
8
BLACK
6
CONTINUOUS
10
222.363
20
-185.386
11
221.791
21
-185.957
0
LINE
8
BLACK
6
CONTINUOUS
10
223.006
20
-186.386
11
223.006
21
-185.386
0
LINE
8
BLACK
6
CONTINUOUS
10
223.006
20
-184.886
11
222.934
21
-184.957
0
LINE
8
BLACK
6
CONTINUOUS
10
222.934
20
-184.957
11
223.006
21
-185.029
0
LINE
8
BLACK
6
CONTINUOUS
10
223.006
20
-185.029
11
223.077
21
-184.957
0
LINE
8
BLACK
6
CONTINUOUS
10
223.077
20
-184.957
11
223.006
21
-184.886
0
LINE
8
BLACK
6
CONTINUOUS
10
223.006
20
-184.886
11
223.006
21
-185.029
0
LINE
8
BLACK
6
CONTINUOUS
10
224.363
20
-186.314
11
224.22
21
-186.386
0
LINE
8
BLACK
6
CONTINUOUS
10
224.22
20
-186.386
11
223.934
21
-186.386
0
LINE
8
BLACK
6
CONTINUOUS
10
223.934
20
-186.386
11
223.791
21
-186.314
0
LINE
8
BLACK
6
CONTINUOUS
10
223.791
20
-186.314
11
223.72
21
-186.243
0
LINE
8
BLACK
6
CONTINUOUS
10
223.72
20
-186.243
11
223.649
21
-186.1
0
LINE
8
BLACK
6
CONTINUOUS
10
223.649
20
-186.1
11
223.649
21
-185.671
0
LINE
8
BLACK
6
CONTINUOUS
10
223.649
20
-185.671
11
223.72
21
-185.529
0
LINE
8
BLACK
6
CONTINUOUS
10
223.72
20
-185.529
11
223.791
21
-185.457
0
LINE
8
BLACK
6
CONTINUOUS
10
223.791
20
-185.457
11
223.934
21
-185.386
0
LINE
8
BLACK
6
CONTINUOUS
10
223.934
20
-185.386
11
224.22
21
-185.386
0
LINE
8
BLACK
6
CONTINUOUS
10
224.22
20
-185.386
11
224.363
21
-185.457
0
LINE
8
BLACK
6
CONTINUOUS
10
225.649
20
-186.386
11
225.649
21
-185.6
0
LINE
8
BLACK
6
CONTINUOUS
10
225.649
20
-185.6
11
225.577
21
-185.457
0
LINE
8
BLACK
6
CONTINUOUS
10
225.577
20
-185.457
11
225.434
21
-185.386
0
LINE
8
BLACK
6
CONTINUOUS
10
225.434
20
-185.386
11
225.149
21
-185.386
0
LINE
8
BLACK
6
CONTINUOUS
10
225.149
20
-185.386
11
225.006
21
-185.457
0
LINE
8
BLACK
6
CONTINUOUS
10
225.649
20
-186.314
11
225.506
21
-186.386
0
LINE
8
BLACK
6
CONTINUOUS
10
225.506
20
-186.386
11
225.149
21
-186.386
0
LINE
8
BLACK
6
CONTINUOUS
10
225.149
20
-186.386
11
225.006
21
-186.314
0
LINE
8
BLACK
6
CONTINUOUS
10
225.006
20
-186.314
11
224.934
21
-186.171
0
LINE
8
BLACK
6
CONTINUOUS
10
224.934
20
-186.171
11
224.934
21
-186.029
0
LINE
8
BLACK
6
CONTINUOUS
10
224.934
20
-186.029
11
225.006
21
-185.886
0
LINE
8
BLACK
6
CONTINUOUS
10
225.006
20
-185.886
11
225.149
21
-185.814
0
LINE
8
BLACK
6
CONTINUOUS
10
225.149
20
-185.814
11
225.506
21
-185.814
0
LINE
8
BLACK
6
CONTINUOUS
10
225.506
20
-185.814
11
225.649
21
-185.743
0
LINE
8
BLACK
6
CONTINUOUS
10
227.006
20
-186.386
11
227.006
21
-184.886
0
LINE
8
BLACK
6
CONTINUOUS
10
227.006
20
-186.314
11
226.863
21
-186.386
0
LINE
8
BLACK
6
CONTINUOUS
10
226.863
20
-186.386
11
226.577
21
-186.386
0
LINE
8
BLACK
6
CONTINUOUS
10
226.577
20
-186.386
11
226.434
21
-186.314
0
LINE
8
BLACK
6
CONTINUOUS
10
226.434
20
-186.314
11
226.363
21
-186.243
0
LINE
8
BLACK
6
CONTINUOUS
10
226.363
20
-186.243
11
226.291
21
-186.1
0
LINE
8
BLACK
6
CONTINUOUS
10
226.291
20
-186.1
11
226.291
21
-185.671
0
LINE
8
BLACK
6
CONTINUOUS
10
226.291
20
-185.671
11
226.363
21
-185.529
0
LINE
8
BLACK
6
CONTINUOUS
10
226.363
20
-185.529
11
226.434
21
-185.457
0
LINE
8
BLACK
6
CONTINUOUS
10
226.434
20
-185.457
11
226.577
21
-185.386
0
LINE
8
BLACK
6
CONTINUOUS
10
226.577
20
-185.386
11
226.863
21
-185.386
0
LINE
8
BLACK
6
CONTINUOUS
10
226.863
20
-185.386
11
227.006
21
-185.457
0
LINE
8
BLACK
6
CONTINUOUS
10
227.363
20
-186.529
11
228.506
21
-186.529
0
LINE
8
BLACK
6
CONTINUOUS
10
228.863
20
-185.386
11
228.863
21
-186.886
0
LINE
8
BLACK
6
CONTINUOUS
10
228.863
20
-185.457
11
229.006
21
-185.386
0
LINE
8
BLACK
6
CONTINUOUS
10
229.006
20
-185.386
11
229.291
21
-185.386
0
LINE
8
BLACK
6
CONTINUOUS
10
229.291
20
-185.386
11
229.434
21
-185.457
0
LINE
8
BLACK
6
CONTINUOUS
10
229.434
20
-185.457
11
229.506
21
-185.529
0
LINE
8
BLACK
6
CONTINUOUS
10
229.506
20
-185.529
11
229.577
21
-185.671
0
LINE
8
BLACK
6
CONTINUOUS
10
229.577
20
-185.671
11
229.577
21
-186.1
0
LINE
8
BLACK
6
CONTINUOUS
10
229.577
20
-186.1
11
229.506
21
-186.243
0
LINE
8
BLACK
6
CONTINUOUS
10
229.506
20
-186.243
11
229.434
21
-186.314
0
LINE
8
BLACK
6
CONTINUOUS
10
229.434
20
-186.314
11
229.291
21
-186.386
0
LINE
8
BLACK
6
CONTINUOUS
10
229.291
20
-186.386
11
229.006
21
-186.386
0
LINE
8
BLACK
6
CONTINUOUS
10
229.006
20
-186.386
11
228.863
21
-186.314
0
LINE
8
BLACK
6
CONTINUOUS
10
230.863
20
-186.314
11
230.72
21
-186.386
0
LINE
8
BLACK
6
CONTINUOUS
10
230.72
20
-186.386
11
230.434
21
-186.386
0
LINE
8
BLACK
6
CONTINUOUS
10
230.434
20
-186.386
11
230.291
21
-186.314
0
LINE
8
BLACK
6
CONTINUOUS
10
230.291
20
-186.314
11
230.22
21
-186.243
0
LINE
8
BLACK
6
CONTINUOUS
10
230.22
20
-186.243
11
230.149
21
-186.1
0
LINE
8
BLACK
6
CONTINUOUS
10
230.149
20
-186.1
11
230.149
21
-185.671
0
LINE
8
BLACK
6
CONTINUOUS
10
230.149
20
-185.671
11
230.22
21
-185.529
0
LINE
8
BLACK
6
CONTINUOUS
10
230.22
20
-185.529
11
230.291
21
-185.457
0
LINE
8
BLACK
6
CONTINUOUS
10
230.291
20
-185.457
11
230.434
21
-185.386
0
LINE
8
BLACK
6
CONTINUOUS
10
230.434
20
-185.386
11
230.72
21
-185.386
0
LINE
8
BLACK
6
CONTINUOUS
10
230.72
20
-185.386
11
230.863
21
-185.457
0
LINE
8
BLACK
6
CONTINUOUS
10
231.506
20
-186.386
11
231.506
21
-184.886
0
LINE
8
BLACK
6
CONTINUOUS
10
231.506
20
-185.457
11
231.649
21
-185.386
0
LINE
8
BLACK
6
CONTINUOUS
10
231.649
20
-185.386
11
231.934
21
-185.386
0
LINE
8
BLACK
6
CONTINUOUS
10
231.934
20
-185.386
11
232.077
21
-185.457
0
LINE
8
BLACK
6
CONTINUOUS
10
232.077
20
-185.457
11
232.149
21
-185.529
0
LINE
8
BLACK
6
CONTINUOUS
10
232.149
20
-185.529
11
232.22
21
-185.671
0
LINE
8
BLACK
6
CONTINUOUS
10
232.22
20
-185.671
11
232.22
21
-186.1
0
LINE
8
BLACK
6
CONTINUOUS
10
232.22
20
-186.1
11
232.149
21
-186.243
0
LINE
8
BLACK
6
CONTINUOUS
10
232.149
20
-186.243
11
232.077
21
-186.314
0
LINE
8
BLACK
6
CONTINUOUS
10
232.077
20
-186.314
11
231.934
21
-186.386
0
LINE
8
BLACK
6
CONTINUOUS
10
231.934
20
-186.386
11
231.649
21
-186.386
0
LINE
8
BLACK
6
CONTINUOUS
10
231.649
20
-186.386
11
231.506
21
-186.314
0
LINE
8
BLACK
6
CONTINUOUS
10
177.002
20
-181.507
11
285.002
21
-181.507
0
LINE
8
BLACK
6
CONTINUOUS
10
178.363
20
-183.614
11
178.577
21
-183.686
0
LINE
8
BLACK
6
CONTINUOUS
10
178.577
20
-183.686
11
178.934
21
-183.686
0
LINE
8
BLACK
6
CONTINUOUS
10
178.934
20
-183.686
11
179.077
21
-183.614
0
LINE
8
BLACK
6
CONTINUOUS
10
179.077
20
-183.614
11
179.149
21
-183.543
0
LINE
8
BLACK
6
CONTINUOUS
10
179.149
20
-183.543
11
179.22
21
-183.4
0
LINE
8
BLACK
6
CONTINUOUS
10
179.22
20
-183.4
11
179.22
21
-183.257
0
LINE
8
BLACK
6
CONTINUOUS
10
179.22
20
-183.257
11
179.149
21
-183.114
0
LINE
8
BLACK
6
CONTINUOUS
10
179.149
20
-183.114
11
179.077
21
-183.043
0
LINE
8
BLACK
6
CONTINUOUS
10
179.077
20
-183.043
11
178.934
21
-182.971
0
LINE
8
BLACK
6
CONTINUOUS
10
178.934
20
-182.971
11
178.649
21
-182.9
0
LINE
8
BLACK
6
CONTINUOUS
10
178.649
20
-182.9
11
178.506
21
-182.829
0
LINE
8
BLACK
6
CONTINUOUS
10
178.506
20
-182.829
11
178.434
21
-182.757
0
LINE
8
BLACK
6
CONTINUOUS
10
178.434
20
-182.757
11
178.363
21
-182.614
0
LINE
8
BLACK
6
CONTINUOUS
10
178.363
20
-182.614
11
178.363
21
-182.471
0
LINE
8
BLACK
6
CONTINUOUS
10
178.363
20
-182.471
11
178.434
21
-182.329
0
LINE
8
BLACK
6
CONTINUOUS
10
178.434
20
-182.329
11
178.506
21
-182.257
0
LINE
8
BLACK
6
CONTINUOUS
10
178.506
20
-182.257
11
178.649
21
-182.186
0
LINE
8
BLACK
6
CONTINUOUS
10
178.649
20
-182.186
11
179.006
21
-182.186
0
LINE
8
BLACK
6
CONTINUOUS
10
179.006
20
-182.186
11
179.22
21
-182.257
0
LINE
8
BLACK
6
CONTINUOUS
10
179.863
20
-183.686
11
179.863
21
-182.186
0
LINE
8
BLACK
6
CONTINUOUS
10
180.506
20
-183.686
11
180.506
21
-182.9
0
LINE
8
BLACK
6
CONTINUOUS
10
180.506
20
-182.9
11
180.434
21
-182.757
0
LINE
8
BLACK
6
CONTINUOUS
10
180.434
20
-182.757
11
180.291
21
-182.686
0
LINE
8
BLACK
6
CONTINUOUS
10
180.291
20
-182.686
11
180.077
21
-182.686
0
LINE
8
BLACK
6
CONTINUOUS
10
180.077
20
-182.686
11
179.934
21
-182.757
0
LINE
8
BLACK
6
CONTINUOUS
10
179.934
20
-182.757
11
179.863
21
-182.829
0
LINE
8
BLACK
6
CONTINUOUS
10
181.791
20
-183.614
11
181.649
21
-183.686
0
LINE
8
BLACK
6
CONTINUOUS
10
181.649
20
-183.686
11
181.363
21
-183.686
0
LINE
8
BLACK
6
CONTINUOUS
10
181.363
20
-183.686
11
181.22
21
-183.614
0
LINE
8
BLACK
6
CONTINUOUS
10
181.22
20
-183.614
11
181.149
21
-183.471
0
LINE
8
BLACK
6
CONTINUOUS
10
181.149
20
-183.471
11
181.149
21
-182.9
0
LINE
8
BLACK
6
CONTINUOUS
10
181.149
20
-182.9
11
181.22
21
-182.757
0
LINE
8
BLACK
6
CONTINUOUS
10
181.22
20
-182.757
11
181.363
21
-182.686
0
LINE
8
BLACK
6
CONTINUOUS
10
181.363
20
-182.686
11
181.649
21
-182.686
0
LINE
8
BLACK
6
CONTINUOUS
10
181.649
20
-182.686
11
181.791
21
-182.757
0
LINE
8
BLACK
6
CONTINUOUS
10
181.791
20
-182.757
11
181.863
21
-182.9
0
LINE
8
BLACK
6
CONTINUOUS
10
181.863
20
-182.9
11
181.863
21
-183.043
0
LINE
8
BLACK
6
CONTINUOUS
10
181.863
20
-183.043
11
181.149
21
-183.186
0
LINE
8
BLACK
6
CONTINUOUS
10
183.077
20
-183.614
11
182.934
21
-183.686
0
LINE
8
BLACK
6
CONTINUOUS
10
182.934
20
-183.686
11
182.649
21
-183.686
0
LINE
8
BLACK
6
CONTINUOUS
10
182.649
20
-183.686
11
182.506
21
-183.614
0
LINE
8
BLACK
6
CONTINUOUS
10
182.506
20
-183.614
11
182.434
21
-183.471
0
LINE
8
BLACK
6
CONTINUOUS
10
182.434
20
-183.471
11
182.434
21
-182.9
0
LINE
8
BLACK
6
CONTINUOUS
10
182.434
20
-182.9
11
182.506
21
-182.757
0
LINE
8
BLACK
6
CONTINUOUS
10
182.506
20
-182.757
11
182.649
21
-182.686
0
LINE
8
BLACK
6
CONTINUOUS
10
182.649
20
-182.686
11
182.934
21
-182.686
0
LINE
8
BLACK
6
CONTINUOUS
10
182.934
20
-182.686
11
183.077
21
-182.757
0
LINE
8
BLACK
6
CONTINUOUS
10
183.077
20
-182.757
11
183.149
21
-182.9
0
LINE
8
BLACK
6
CONTINUOUS
10
183.149
20
-182.9
11
183.149
21
-183.043
0
LINE
8
BLACK
6
CONTINUOUS
10
183.149
20
-183.043
11
182.434
21
-183.186
0
LINE
8
BLACK
6
CONTINUOUS
10
183.577
20
-182.686
11
184.149
21
-182.686
0
LINE
8
BLACK
6
CONTINUOUS
10
183.791
20
-182.186
11
183.791
21
-183.471
0
LINE
8
BLACK
6
CONTINUOUS
10
183.791
20
-183.471
11
183.863
21
-183.614
0
LINE
8
BLACK
6
CONTINUOUS
10
183.863
20
-183.614
11
184.006
21
-183.686
0
LINE
8
BLACK
6
CONTINUOUS
10
184.006
20
-183.686
11
184.149
21
-183.686
0
LINE
8
BLACK
6
CONTINUOUS
10
184.649
20
-183.543
11
184.72
21
-183.614
0
LINE
8
BLACK
6
CONTINUOUS
10
184.72
20
-183.614
11
184.649
21
-183.686
0
LINE
8
BLACK
6
CONTINUOUS
10
184.649
20
-183.686
11
184.577
21
-183.614
0
LINE
8
BLACK
6
CONTINUOUS
10
184.577
20
-183.614
11
184.649
21
-183.543
0
LINE
8
BLACK
6
CONTINUOUS
10
184.649
20
-183.543
11
184.649
21
-183.686
0
LINE
8
BLACK
6
CONTINUOUS
10
184.649
20
-182.757
11
184.72
21
-182.829
0
LINE
8
BLACK
6
CONTINUOUS
10
184.72
20
-182.829
11
184.649
21
-182.9
0
LINE
8
BLACK
6
CONTINUOUS
10
184.649
20
-182.9
11
184.577
21
-182.829
0
LINE
8
BLACK
6
CONTINUOUS
10
184.577
20
-182.829
11
184.649
21
-182.757
0
LINE
8
BLACK
6
CONTINUOUS
10
184.649
20
-182.757
11
184.649
21
-182.9
0
LINE
8
BLACK
6
CONTINUOUS
10
197.002
20
-191.507
11
197.002
21
-194.507
0
LINE
8
BLACK
6
CONTINUOUS
10
261.002
20
-191.507
11
261.002
21
-198.007
0
LINE
8
BLACK
6
CONTINUOUS
10
129.625
20
-84.2561
11
131.153
21
-85.1377
0
LINE
8
BLACK
6
CONTINUOUS
10
131.153
20
-85.1377
11
132.286
21
-86.4884
0
LINE
8
BLACK
6
CONTINUOUS
10
132.286
20
-86.4884
11
132.889
21
-88.1454
0
LINE
8
BLACK
6
CONTINUOUS
10
132.889
20
-88.1454
11
132.889
21
-89.9086
0
LINE
8
BLACK
6
CONTINUOUS
10
132.889
20
-89.9086
11
132.286
21
-91.5656
0
LINE
8
BLACK
6
CONTINUOUS
10
132.286
20
-91.5656
11
131.153
21
-92.9163
0
LINE
8
BLACK
6
CONTINUOUS
10
131.153
20
-92.9163
11
129.625
21
-93.7979
0
LINE
8
BLACK
6
CONTINUOUS
10
129.625
20
-93.7979
11
127.889
21
-94.1041
0
LINE
8
BLACK
6
CONTINUOUS
10
127.889
20
-94.1041
11
126.153
21
-93.7979
0
LINE
8
BLACK
6
CONTINUOUS
10
126.153
20
-93.7979
11
124.625
21
-92.9163
0
LINE
8
BLACK
6
CONTINUOUS
10
124.625
20
-92.9163
11
123.492
21
-91.5656
0
LINE
8
BLACK
6
CONTINUOUS
10
123.492
20
-91.5656
11
122.889
21
-89.9086
0
LINE
8
BLACK
6
CONTINUOUS
10
122.889
20
-89.9086
11
122.889
21
-88.1454
0
LINE
8
BLACK
6
CONTINUOUS
10
122.889
20
-88.1454
11
123.492
21
-86.4884
0
LINE
8
BLACK
6
CONTINUOUS
10
123.492
20
-86.4884
11
124.625
21
-85.1377
0
LINE
8
BLACK
6
CONTINUOUS
10
124.625
20
-85.1377
11
126.153
21
-84.2561
0
LINE
8
BLACK
6
CONTINUOUS
10
126.153
20
-84.2561
11
127.889
21
-83.9499
0
LINE
8
BLACK
6
CONTINUOUS
10
127.889
20
-83.9499
11
129.625
21
-84.2561
  0
ENDSEC
  0
EOF
