<?xml version="1.0" standalone="no"?>
 <!DOCTYPE svg PUBLIC "-//W3C//DTD SVG 1.1//EN" 
 "http://www.w3.org/Graphics/SVG/1.1/DTD/svg11.dtd"> 
<svg xmlns="http://www.w3.org/2000/svg" version="1.1" 
    width="29.7002cm" height="21.0007cm" viewBox="0 0 116930 82680 ">
<title>SVG Picture created as FrogINT_PCBProto_V1811062154-F.Mask.svg date 2019/03/12 09:17:33 </title>
  <desc>Picture generated by PCBNEW </desc>
<g style="fill:#000000; fill-opacity:1;stroke:#000000; stroke-opacity:1;
stroke-linecap:round; stroke-linejoin:round; "
 transform="translate(0 0) scale(1 1)">
</g>
<g style="fill:#000000; fill-opacity:0.0; 
stroke:#000000; stroke-width:-0.000393701; stroke-opacity:1; 
stroke-linecap:round; stroke-linejoin:round;">
</g>
<g style="fill:#000000; fill-opacity:1.0; 
stroke:#000000; stroke-width:0; stroke-opacity:1; 
stroke-linecap:round; stroke-linejoin:round;">
<polyline style="fill-rule:evenodd;"
points="57355,50683
57359,50683
58004,50683
58004,51311
58005,51321
58008,51330
58009,51332
58009,51794
57866,51794
57856,51795
57847,51797
57839,51802
57831,51808
57825,51815
57821,51824
57818,51833
57817,51843
57817,52358
57815,52359
57809,52367
57804,52375
57803,52380
57784,52440
57774,52460
57752,52500
57709,52552
57657,52595
57617,52617
57597,52627
57575,52634
57532,52647
57464,52654
57397,52647
57354,52634
57332,52627
57312,52617
57272,52595
57220,52552
57220,52552
57220,52552
57215,52547
57208,52540
57200,52534
57191,52531
57182,52529
57172,52529
57163,52531
57154,52534
57146,52540
57139,52547
57134,52555
57130,52563
57128,52573
57128,52578
57128,52916
55651,52916
55651,52578
55651,52568
55648,52559
55643,52550
55637,52543
55630,52537
55621,52532
55612,52530
55602,52529
55593,52530
55583,52532
55575,52537
55567,52543
55564,52547
55560,52552
55507,52595
55467,52617
55447,52627
55426,52634
55382,52647
55315,52654
55247,52647
55204,52634
55182,52627
55162,52617
55123,52595
55070,52552
55070,52552
55070,52552
55051,52529
55027,52500
55004,52456
54995,52440
54989,52421
54977,52380
54973,52371
54970,52367
54970,51843
54969,51833
54967,51824
54962,51815
54956,51808
54948,51802
54940,51797
54931,51795
54921,51794
54790,51794
54790,51557
55666,51557
55666,51725
55667,51734
55670,51744
55675,51752
55681,51759
55688,51766
55697,51770
55706,51773
55715,51774
57079,51774
57088,51773
57097,51770
57106,51766
57113,51759
57120,51752
57124,51744
57127,51734
57128,51725
57128,51557
57127,51548
57124,51539
57120,51530
57113,51523
57106,51516
57097,51512
57088,51509
57079,51508
55715,51508
55706,51509
55697,51512
55688,51516
55681,51523
55675,51530
55670,51539
55667,51548
55666,51557
54790,51557
54790,51332
54791,51330
54794,51321
54795,51311
54795,50691
55360,50691
55369,50690
55374,50689
55379,50688
55437,50682
55495,50688
55500,50689
55509,50691
55514,50691
55760,50691
55762,50693
55770,50697
55780,50700
55789,50701
57010,50701
57019,50700
57029,50697
57037,50693
57045,50687
57047,50683
57325,50683
57330,50683
57342,50682
57355,50683
" /> 
<polyline style="fill-rule:evenodd;"
points="53726,51212
52073,51212
52073,50267
53726,50267
53726,51212
" /> 
<polyline style="fill-rule:evenodd;"
points="56042,49378
56061,49384
56078,49393
56093,49405
56106,49421
56115,49438
56121,49457
56123,49479
56123,49923
56121,49945
56115,49963
56106,49981
56093,49996
56078,50008
56061,50018
56042,50023
56020,50025
55379,50025
55357,50023
55338,50018
55321,50008
55306,49996
55293,49981
55284,49963
55278,49945
55276,49923
55276,49479
55278,49457
55284,49438
55293,49421
55306,49405
55321,49393
55338,49384
55357,49378
55379,49376
56020,49376
56042,49378
" /> 
<polyline style="fill-rule:evenodd;"
points="57334,49511
57353,49516
57370,49526
57386,49538
57398,49554
57407,49571
57413,49590
57415,49612
57415,49907
57413,49929
57407,49948
57398,49966
57386,49981
57370,49993
57353,50003
57334,50008
57312,50011
56987,50011
56965,50008
56946,50003
56929,49993
56913,49981
56901,49966
56892,49948
56886,49929
56884,49907
56884,49612
56886,49590
56892,49571
56901,49554
56913,49538
56929,49526
56946,49516
56965,49511
56987,49509
57312,49509
57334,49511
" /> 
<polyline style="fill-rule:evenodd;"
points="56684,49511
56703,49516
56720,49526
56736,49538
56748,49554
56757,49571
56763,49590
56765,49612
56765,49907
56763,49929
56757,49948
56748,49966
56736,49981
56720,49993
56703,50003
56684,50008
56662,50011
56337,50011
56315,50008
56296,50003
56279,49993
56263,49981
56251,49966
56242,49948
56236,49929
56234,49907
56234,49612
56236,49590
56242,49571
56251,49554
56263,49538
56279,49526
56296,49516
56315,49511
56337,49509
56662,49509
56684,49511
" /> 
<polyline style="fill-rule:evenodd;"
points="54946,48702
54967,48708
54986,48719
55003,48732
55016,48749
55026,48768
55033,48789
55035,48812
55035,49188
55033,49212
55026,49232
55016,49251
55003,49268
54986,49282
54967,49292
54946,49298
54920,49301
54911,49302
54902,49306
54894,49311
54887,49318
54881,49326
54878,49335
54876,49345
54876,49354
54878,49364
54881,49373
54887,49381
54894,49388
54902,49393
54911,49397
54920,49398
54946,49401
54967,49407
54986,49417
55003,49431
55016,49448
55026,49467
55033,49487
55035,49511
55035,49887
55033,49910
55026,49931
55016,49950
55003,49967
54986,49980
54967,49991
54946,49997
54922,49999
54577,49999
54553,49997
54532,49991
54513,49980
54496,49967
54483,49950
54473,49931
54466,49910
54464,49887
54464,49511
54466,49487
54473,49467
54483,49448
54496,49431
54513,49417
54532,49407
54553,49401
54579,49398
54588,49397
54597,49393
54605,49388
54612,49381
54618,49373
54621,49364
54623,49354
54623,49345
54621,49335
54618,49326
54612,49318
54605,49311
54597,49306
54588,49302
54579,49301
54553,49298
54532,49292
54513,49282
54496,49268
54483,49251
54473,49232
54466,49212
54464,49188
54464,48812
54466,48789
54473,48768
54483,48749
54496,48732
54513,48719
54532,48708
54553,48702
54577,48700
54922,48700
54946,48702
" /> 
<polyline style="fill-rule:evenodd;"
points="57334,48891
57353,48896
57370,48906
57386,48918
57398,48933
57407,48951
57413,48970
57415,48992
57415,49287
57413,49309
57407,49328
57398,49345
57386,49361
57370,49373
57353,49383
57334,49388
57312,49390
56987,49390
56965,49388
56946,49383
56929,49373
56913,49361
56901,49345
56892,49328
56886,49309
56884,49287
56884,48992
56886,48970
56892,48951
56901,48933
56913,48918
56929,48906
56946,48896
56965,48891
56987,48888
57312,48888
57334,48891
" /> 
<polyline style="fill-rule:evenodd;"
points="56684,48891
56703,48896
56720,48906
56736,48918
56748,48933
56757,48951
56763,48970
56765,48992
56765,49287
56763,49309
56757,49328
56748,49345
56736,49361
56720,49373
56703,49383
56684,49388
56662,49390
56337,49390
56315,49388
56296,49383
56279,49373
56263,49361
56251,49345
56242,49328
56236,49309
56234,49287
56234,48992
56236,48970
56242,48951
56251,48933
56263,48918
56279,48906
56296,48896
56315,48891
56337,48888
56662,48888
56684,48891
" /> 
<polyline style="fill-rule:evenodd;"
points="51146,47852
51167,47858
51186,47869
51203,47882
51216,47899
51226,47918
51233,47939
51235,47962
51235,48338
51233,48362
51226,48382
51216,48401
51203,48418
51186,48432
51167,48442
51146,48448
51120,48451
51111,48452
51102,48456
51094,48461
51087,48468
51081,48476
51078,48485
51076,48495
51076,48504
51078,48514
51081,48523
51087,48531
51094,48538
51102,48543
51111,48547
51120,48548
51146,48551
51167,48557
51186,48567
51203,48581
51216,48598
51226,48617
51233,48637
51235,48661
51235,49037
51233,49060
51226,49081
51216,49100
51203,49117
51186,49130
51167,49141
51146,49147
51122,49149
50777,49149
50753,49147
50732,49141
50713,49130
50696,49117
50683,49100
50673,49081
50666,49060
50664,49037
50664,48661
50666,48637
50673,48617
50683,48598
50696,48581
50713,48567
50732,48557
50753,48551
50779,48548
50788,48547
50797,48543
50805,48538
50812,48531
50818,48523
50821,48514
50823,48504
50823,48495
50821,48485
50818,48476
50812,48468
50805,48461
50797,48456
50788,48452
50779,48451
50753,48448
50732,48442
50713,48432
50696,48418
50683,48401
50673,48382
50666,48362
50664,48338
50664,47962
50666,47939
50673,47918
50683,47899
50696,47882
50713,47869
50732,47858
50753,47852
50777,47850
51122,47850
51146,47852
" /> 
<polyline style="fill-rule:evenodd;"
points="58983,48229
59037,48240
59105,48268
59167,48309
59219,48361
59260,48422
59288,48490
59297,48538
59302,48559
59302,48563
59302,48636
59288,48709
59260,48777
59219,48838
59167,48890
59105,48931
59037,48959
58984,48970
58965,48974
58891,48974
58872,48970
58819,48959
58751,48931
58690,48890
58638,48838
58597,48777
58569,48709
58554,48636
58554,48563
58555,48559
58559,48538
58569,48490
58597,48422
58638,48361
58690,48309
58751,48268
58819,48240
58873,48229
58891,48225
58965,48225
58983,48229
" /> 
<polyline style="fill-rule:evenodd;"
points="60904,48229
60959,48240
61027,48268
61088,48309
61140,48361
61181,48422
61209,48490
61219,48538
61223,48559
61224,48563
61224,48636
61209,48709
61181,48777
61140,48838
61088,48890
61027,48931
60959,48959
60905,48970
60886,48974
60813,48974
60794,48970
60740,48959
60672,48931
60611,48890
60559,48838
60518,48777
60490,48709
60475,48636
60475,48563
60476,48559
60480,48538
60490,48490
60518,48422
60559,48361
60611,48309
60672,48268
60740,48240
60795,48229
60813,48225
60886,48225
60904,48229
" /> 
<polyline style="fill-rule:evenodd;"
points="56042,48276
56061,48281
56078,48291
56093,48303
56106,48318
56115,48336
56121,48354
56123,48376
56123,48820
56121,48842
56115,48861
56106,48878
56093,48894
56078,48906
56061,48915
56042,48921
56020,48923
55379,48923
55357,48921
55338,48915
55321,48906
55306,48894
55293,48878
55284,48861
55278,48842
55276,48820
55276,48376
55278,48354
55284,48336
55293,48318
55306,48303
55321,48291
55338,48281
55357,48276
55379,48274
56020,48274
56042,48276
" /> 
<polyline style="fill-rule:evenodd;"
points="50180,48335
50226,48354
50230,48355
50275,48385
50314,48424
50331,48450
50344,48469
50365,48519
50375,48572
50375,48627
50365,48680
50347,48723
50344,48730
50314,48775
50275,48814
50239,48838
50230,48844
50180,48865
50127,48875
50072,48875
50019,48865
49969,48844
49960,48838
49924,48814
49885,48775
49855,48730
49852,48723
49835,48680
49824,48627
49824,48572
49835,48519
49855,48469
49868,48450
49885,48424
49924,48385
49969,48355
49973,48354
50019,48335
50072,48324
50127,48324
50180,48335
" /> 
<polyline style="fill-rule:evenodd;"
points="54179,48732
53431,48732
53431,47787
54179,47787
54179,48732
" /> 
<polyline style="fill-rule:evenodd;"
points="53274,48732
52525,48732
52525,47787
53274,47787
53274,48732
" /> 
<polyline style="fill-rule:evenodd;"
points="52368,48732
51620,48732
51620,47787
52368,47787
52368,48732
" /> 
<polyline style="fill-rule:evenodd;"
points="57084,48121
57103,48126
57120,48136
57136,48148
57148,48163
57157,48181
57163,48200
57165,48222
57165,48517
57163,48539
57157,48558
57148,48575
57136,48591
57120,48603
57103,48612
57084,48618
57062,48620
56737,48620
56715,48618
56696,48612
56679,48603
56663,48591
56651,48575
56642,48558
56636,48539
56634,48517
56634,48222
56636,48200
56642,48181
56651,48163
56663,48148
56679,48136
56696,48126
56715,48121
56737,48118
57062,48118
57084,48121
" /> 
<polyline style="fill-rule:evenodd;"
points="55896,46752
55917,46758
55936,46769
55953,46782
55966,46799
55976,46818
55983,46839
55985,46862
55985,47238
55983,47262
55976,47282
55966,47301
55953,47318
55936,47332
55917,47342
55896,47348
55870,47351
55861,47352
55852,47356
55844,47361
55837,47368
55831,47376
55828,47385
55826,47395
55826,47404
55828,47414
55831,47423
55837,47431
55844,47438
55852,47443
55861,47447
55870,47448
55896,47451
55917,47457
55936,47467
55953,47481
55966,47498
55976,47517
55983,47537
55985,47561
55985,47937
55983,47960
55976,47981
55966,48000
55953,48017
55936,48030
55917,48041
55896,48047
55872,48049
55527,48049
55503,48047
55482,48041
55463,48030
55446,48017
55433,48000
55423,47981
55416,47960
55414,47937
55414,47561
55416,47537
55423,47517
55433,47498
55446,47481
55463,47467
55482,47457
55503,47451
55529,47448
55538,47447
55547,47443
55555,47438
55562,47431
55568,47423
55571,47414
55573,47404
55573,47395
55571,47385
55568,47376
55562,47368
55555,47361
55547,47356
55538,47352
55529,47351
55503,47348
55482,47342
55463,47332
55446,47318
55433,47301
55423,47282
55416,47262
55414,47238
55414,46862
55416,46839
55423,46818
55433,46799
55446,46782
55463,46769
55482,46758
55503,46752
55527,46750
55872,46750
55896,46752
" /> 
<polyline style="fill-rule:evenodd;"
points="55034,47511
55053,47516
55070,47526
55086,47538
55098,47554
55107,47571
55113,47590
55115,47612
55115,47907
55113,47929
55107,47948
55098,47966
55086,47981
55070,47993
55053,48003
55034,48008
55012,48011
54687,48011
54665,48008
54646,48003
54629,47993
54613,47981
54601,47966
54592,47948
54586,47929
54584,47907
54584,47612
54586,47590
54592,47571
54601,47554
54613,47538
54629,47526
54646,47516
54665,47511
54687,47509
55012,47509
55034,47511
" /> 
<polyline style="fill-rule:evenodd;"
points="57084,47500
57103,47506
57120,47516
57136,47528
57148,47543
57157,47561
57163,47580
57165,47602
57165,47897
57163,47919
57157,47938
57148,47955
57136,47971
57120,47983
57103,47992
57084,47998
57062,48000
56737,48000
56715,47998
56696,47992
56679,47983
56663,47971
56651,47955
56642,47938
56636,47919
56634,47897
56634,47602
56636,47580
56642,47561
56651,47543
56663,47528
56679,47516
56696,47506
56715,47500
56737,47498
57062,47498
57084,47500
" /> 
<polyline style="fill-rule:evenodd;"
points="55034,46891
55053,46896
55070,46906
55086,46918
55098,46933
55107,46951
55113,46970
55115,46992
55115,47287
55113,47309
55107,47328
55098,47345
55086,47361
55070,47373
55053,47383
55034,47388
55012,47390
54687,47390
54665,47388
54646,47383
54629,47373
54613,47361
54601,47345
54592,47328
54586,47309
54584,47287
54584,46992
54586,46970
54592,46951
54601,46933
54613,46918
54629,46906
54646,46896
54665,46891
54687,46888
55012,46888
55034,46891
" /> 
<polyline style="fill-rule:evenodd;"
points="62011,46718
61759,46718
61749,46719
61740,46721
61732,46726
61724,46732
61718,46739
61713,46748
61711,46757
61710,46767
61711,46776
61713,46786
61718,46794
61724,46802
61732,46808
61740,46812
61749,46815
61754,46816
61760,46816
61781,46823
61800,46833
61817,46846
61830,46863
61841,46882
61847,46903
61849,46927
61849,47272
61847,47296
61841,47317
61830,47336
61817,47353
61800,47366
61781,47376
61760,47383
61737,47385
61361,47385
61337,47383
61317,47376
61298,47366
61281,47353
61267,47336
61257,47317
61251,47296
61248,47270
61247,47261
61243,47252
61238,47244
61231,47237
61223,47231
61214,47228
61204,47226
61195,47226
61185,47228
61176,47231
61168,47237
61161,47244
61156,47252
61152,47261
61151,47270
61148,47296
61142,47317
61132,47336
61118,47353
61101,47366
61082,47376
61062,47383
61038,47385
60662,47385
60639,47383
60618,47376
60599,47366
60582,47353
60569,47336
60558,47317
60552,47296
60550,47272
60550,46927
60552,46903
60558,46882
60569,46863
60582,46846
60599,46833
60618,46823
60639,46816
60645,46816
60654,46814
60663,46810
60671,46805
60678,46798
60683,46790
60687,46781
60689,46772
60689,46767
61011,46767
61012,46776
61015,46786
61019,46794
61025,46802
61033,46808
61041,46812
61051,46815
61055,46816
61062,46816
61082,46823
61101,46833
61118,46846
61132,46863
61142,46882
61148,46903
61151,46929
61152,46938
61156,46947
61161,46955
61168,46962
61176,46968
61185,46971
61195,46973
61204,46973
61214,46971
61223,46968
61231,46962
61238,46955
61243,46947
61247,46938
61248,46929
61251,46903
61257,46882
61267,46863
61281,46846
61298,46833
61317,46823
61337,46816
61344,46816
61353,46814
61362,46810
61370,46805
61377,46798
61382,46790
61386,46781
61388,46772
61388,46762
61386,46753
61382,46744
61377,46736
61370,46729
61362,46723
61353,46720
61344,46718
61339,46718
61060,46718
61051,46719
61041,46721
61033,46726
61025,46732
61019,46739
61015,46748
61012,46757
61011,46767
60689,46767
60689,46762
60687,46753
60683,46744
60678,46736
60671,46729
60663,46723
60654,46720
60645,46718
60640,46718
60159,46718
60149,46719
60140,46721
60132,46726
60124,46732
60118,46739
60113,46748
60111,46757
60110,46767
60111,46776
60113,46786
60118,46794
60124,46802
60132,46808
60140,46812
60149,46815
60154,46816
60160,46816
60181,46823
60200,46833
60217,46846
60230,46863
60241,46882
60247,46903
60249,46927
60249,47272
60247,47296
60241,47317
60230,47336
60217,47353
60200,47366
60181,47376
60160,47383
60137,47385
59761,47385
59737,47383
59717,47376
59698,47366
59681,47353
59667,47336
59657,47317
59651,47296
59648,47270
59647,47261
59643,47252
59638,47244
59631,47237
59623,47231
59614,47228
59604,47226
59595,47226
59585,47228
59576,47231
59568,47237
59561,47244
59556,47252
59552,47261
59551,47270
59548,47296
59542,47317
59532,47336
59518,47353
59501,47366
59482,47376
59462,47383
59438,47385
59062,47385
59039,47383
59018,47376
58999,47366
58982,47353
58969,47336
58958,47317
58952,47296
58950,47272
58950,46927
58952,46903
58958,46882
58969,46863
58982,46846
58999,46833
59018,46823
59039,46816
59045,46816
59054,46814
59063,46810
59071,46805
59078,46798
59083,46790
59087,46781
59089,46772
59089,46767
59411,46767
59412,46776
59415,46786
59419,46794
59425,46802
59433,46808
59441,46812
59451,46815
59455,46816
59462,46816
59482,46823
59501,46833
59518,46846
59532,46863
59542,46882
59548,46903
59551,46929
59552,46938
59556,46947
59561,46955
59568,46962
59576,46968
59585,46971
59595,46973
59604,46973
59614,46971
59623,46968
59631,46962
59638,46955
59643,46947
59647,46938
59648,46929
59651,46903
59657,46882
59667,46863
59681,46846
59698,46833
59717,46823
59737,46816
59744,46816
59753,46814
59762,46810
59770,46805
59777,46798
59782,46790
59786,46781
59788,46772
59788,46762
59786,46753
59782,46744
59777,46736
59770,46729
59762,46723
59753,46720
59744,46718
59739,46718
59460,46718
59451,46719
59441,46721
59433,46726
59425,46732
59419,46739
59415,46748
59412,46757
59411,46767
59089,46767
59089,46762
59087,46753
59083,46744
59078,46736
59071,46729
59063,46723
59054,46720
59045,46718
59040,46718
58488,46718
58488,45970
62011,45970
62011,46718
" /> 
<polyline style="fill-rule:evenodd;"
points="57934,46861
57953,46866
57970,46876
57986,46888
57998,46904
58007,46921
58013,46940
58015,46962
58015,47257
58013,47279
58007,47298
57998,47316
57986,47331
57970,47343
57953,47353
57934,47358
57912,47361
57587,47361
57565,47358
57546,47353
57529,47343
57513,47331
57501,47316
57492,47298
57486,47279
57484,47257
57484,46962
57486,46940
57492,46921
57501,46904
57513,46888
57529,46876
57546,46866
57565,46861
57587,46859
57912,46859
57934,46861
" /> 
<polyline style="fill-rule:evenodd;"
points="51130,47320
49969,47320
49969,46745
51130,46745
51130,47320
" /> 
<polyline style="fill-rule:evenodd;"
points="52630,47320
51469,47320
51469,46745
52630,46745
52630,47320
" /> 
<polyline style="fill-rule:evenodd;"
points="54130,47320
52969,47320
52969,46745
54130,46745
54130,47320
" /> 
<polyline style="fill-rule:evenodd;"
points="49584,46811
49603,46816
49620,46826
49636,46838
49648,46854
49657,46871
49663,46890
49665,46912
49665,47207
49663,47229
49657,47248
49648,47266
49636,47281
49620,47293
49603,47303
49584,47308
49562,47311
49237,47311
49215,47308
49196,47303
49179,47293
49163,47281
49151,47266
49142,47248
49136,47229
49134,47207
49134,46912
49136,46890
49142,46871
49151,46854
49163,46838
49179,46826
49196,46816
49215,46811
49237,46809
49562,46809
49584,46811
" /> 
<polyline style="fill-rule:evenodd;"
points="57934,46241
57953,46246
57970,46256
57986,46268
57998,46283
58007,46301
58013,46320
58015,46342
58015,46637
58013,46659
58007,46678
57998,46695
57986,46711
57970,46723
57953,46733
57934,46738
57912,46740
57587,46740
57565,46738
57546,46733
57529,46723
57513,46711
57501,46695
57492,46678
57486,46659
57484,46637
57484,46342
57486,46320
57492,46301
57501,46283
57513,46268
57529,46256
57546,46246
57565,46241
57587,46238
57912,46238
57934,46241
" /> 
<polyline style="fill-rule:evenodd;"
points="49584,46191
49603,46196
49620,46206
49636,46218
49648,46233
49657,46251
49663,46270
49665,46292
49665,46587
49663,46609
49657,46628
49648,46645
49636,46661
49620,46673
49603,46683
49584,46688
49562,46690
49237,46690
49215,46688
49196,46683
49179,46673
49163,46661
49151,46645
49142,46628
49136,46609
49134,46587
49134,46292
49136,46270
49142,46251
49151,46233
49163,46218
49179,46206
49196,46196
49215,46191
49237,46188
49562,46188
49584,46191
" /> 
<polyline style="fill-rule:evenodd;"
points="55895,46538
55344,46538
55344,45790
55895,45790
55895,46538
" /> 
<polyline style="fill-rule:evenodd;"
points="57155,46538
56604,46538
56604,45790
57155,45790
57155,46538
" /> 
<polyline style="fill-rule:evenodd;"
points="52630,46454
52217,46454
52217,45879
52630,45879
52630,46454
" /> 
<polyline style="fill-rule:evenodd;"
points="51130,46454
49969,46454
49969,45879
51130,45879
51130,46454
" /> 
<polyline style="fill-rule:evenodd;"
points="51882,46454
51469,46454
51469,45879
51882,45879
51882,46454
" /> 
<polyline style="fill-rule:evenodd;"
points="54130,46454
52969,46454
52969,45879
54130,45879
54130,46454
" /> 
<polyline style="fill-rule:evenodd;"
points="63496,45102
63517,45108
63536,45119
63553,45132
63566,45149
63576,45168
63583,45189
63585,45212
63585,45588
63583,45612
63576,45632
63566,45651
63553,45668
63536,45682
63517,45692
63496,45698
63470,45701
63461,45702
63452,45706
63444,45711
63437,45718
63431,45726
63428,45735
63426,45745
63426,45754
63428,45764
63431,45773
63437,45781
63444,45788
63452,45793
63461,45797
63470,45798
63496,45801
63517,45807
63536,45817
63553,45831
63566,45848
63576,45867
63583,45887
63585,45911
63585,46287
63583,46310
63576,46331
63566,46350
63553,46367
63536,46380
63517,46391
63496,46397
63472,46399
63127,46399
63103,46397
63082,46391
63063,46380
63046,46367
63033,46350
63023,46331
63016,46310
63014,46287
63014,45911
63016,45887
63023,45867
63033,45848
63046,45831
63063,45817
63082,45807
63103,45801
63129,45798
63138,45797
63147,45793
63155,45788
63162,45781
63168,45773
63171,45764
63173,45754
63173,45745
63171,45735
63168,45726
63162,45718
63155,45711
63147,45706
63138,45702
63129,45701
63103,45698
63082,45692
63063,45682
63046,45668
63033,45651
63023,45632
63016,45612
63014,45588
63014,45212
63016,45189
63023,45168
63033,45149
63046,45132
63063,45119
63082,45108
63103,45102
63127,45100
63472,45100
63496,45102
" /> 
<polyline style="fill-rule:evenodd;"
points="58379,45861
57631,45861
57631,42338
58379,42338
58379,45861
" /> 
<polyline style="fill-rule:evenodd;"
points="62868,45861
62120,45861
62120,42338
62868,42338
62868,45861
" /> 
<polyline style="fill-rule:evenodd;"
points="52196,43902
52217,43908
52236,43919
52253,43932
52266,43949
52276,43968
52283,43989
52285,44012
52285,44388
52283,44412
52276,44432
52266,44451
52253,44468
52236,44482
52217,44492
52196,44498
52170,44501
52161,44502
52152,44506
52144,44511
52137,44518
52131,44526
52128,44535
52126,44545
52126,44554
52128,44564
52131,44573
52137,44581
52144,44588
52152,44593
52161,44597
52170,44598
52196,44601
52217,44607
52236,44617
52253,44631
52266,44648
52276,44667
52283,44687
52285,44711
52285,45087
52283,45110
52276,45131
52266,45150
52253,45167
52236,45180
52217,45191
52196,45197
52172,45199
51827,45199
51803,45197
51782,45191
51763,45180
51746,45167
51733,45150
51723,45131
51716,45110
51714,45087
51714,44711
51716,44687
51723,44667
51733,44648
51746,44631
51763,44617
51782,44607
51803,44601
51829,44598
51838,44597
51847,44593
51855,44588
51862,44581
51868,44573
51871,44564
51873,44554
51873,44545
51871,44535
51868,44526
51862,44518
51855,44511
51847,44506
51838,44502
51829,44501
51803,44498
51782,44492
51763,44482
51746,44468
51733,44451
51723,44432
51716,44412
51714,44388
51714,44012
51716,43989
51723,43968
51733,43949
51746,43932
51763,43919
51782,43908
51803,43902
51827,43900
52172,43900
52196,43902
" /> 
<polyline style="fill-rule:evenodd;"
points="49646,43902
49667,43908
49686,43919
49703,43932
49716,43949
49726,43968
49733,43989
49735,44012
49735,44388
49733,44412
49726,44432
49716,44451
49703,44468
49686,44482
49667,44492
49646,44498
49620,44501
49611,44502
49602,44506
49594,44511
49587,44518
49581,44526
49578,44535
49576,44545
49576,44554
49578,44564
49581,44573
49587,44581
49594,44588
49602,44593
49611,44597
49620,44598
49646,44601
49667,44607
49686,44617
49703,44631
49716,44648
49726,44667
49733,44687
49735,44711
49735,45087
49733,45110
49726,45131
49716,45150
49703,45167
49686,45180
49667,45191
49646,45197
49622,45199
49277,45199
49253,45197
49232,45191
49213,45180
49196,45167
49183,45150
49173,45131
49166,45110
49164,45087
49164,44711
49166,44687
49173,44667
49183,44648
49196,44631
49213,44617
49232,44607
49253,44601
49279,44598
49288,44597
49297,44593
49305,44588
49312,44581
49318,44573
49321,44564
49323,44554
49323,44545
49321,44535
49318,44526
49312,44518
49305,44511
49297,44506
49288,44502
49279,44501
49253,44498
49232,44492
49213,44482
49196,44468
49183,44451
49173,44432
49166,44412
49164,44388
49164,44012
49166,43989
49173,43968
49183,43949
49196,43932
49213,43919
49232,43908
49253,43902
49277,43900
49622,43900
49646,43902
" /> 
<polyline style="fill-rule:evenodd;"
points="50496,43902
50517,43908
50536,43919
50553,43932
50566,43949
50576,43968
50583,43989
50585,44012
50585,44388
50583,44412
50576,44432
50566,44451
50553,44468
50536,44482
50517,44492
50496,44498
50470,44501
50461,44502
50452,44506
50444,44511
50437,44518
50431,44526
50428,44535
50426,44545
50426,44554
50428,44564
50431,44573
50437,44581
50444,44588
50452,44593
50461,44597
50470,44598
50496,44601
50517,44607
50536,44617
50553,44631
50566,44648
50576,44667
50583,44687
50585,44711
50585,45087
50583,45110
50576,45131
50566,45150
50553,45167
50536,45180
50517,45191
50496,45197
50472,45199
50127,45199
50103,45197
50082,45191
50063,45180
50046,45167
50033,45150
50023,45131
50016,45110
50014,45087
50014,44711
50016,44687
50023,44667
50033,44648
50046,44631
50063,44617
50082,44607
50103,44601
50129,44598
50138,44597
50147,44593
50155,44588
50162,44581
50168,44573
50171,44564
50173,44554
50173,44545
50171,44535
50168,44526
50162,44518
50155,44511
50147,44506
50138,44502
50129,44501
50103,44498
50082,44492
50063,44482
50046,44468
50033,44451
50023,44432
50016,44412
50014,44388
50014,44012
50016,43989
50023,43968
50033,43949
50046,43932
50063,43919
50082,43908
50103,43902
50127,43900
50472,43900
50496,43902
" /> 
<polyline style="fill-rule:evenodd;"
points="51296,43902
51317,43908
51336,43919
51353,43932
51366,43949
51376,43968
51383,43989
51385,44012
51385,44388
51383,44412
51376,44432
51366,44451
51353,44468
51336,44482
51317,44492
51296,44498
51270,44501
51261,44502
51252,44506
51244,44511
51237,44518
51231,44526
51228,44535
51226,44545
51226,44554
51228,44564
51231,44573
51237,44581
51244,44588
51252,44593
51261,44597
51270,44598
51296,44601
51317,44607
51336,44617
51353,44631
51366,44648
51376,44667
51383,44687
51385,44711
51385,45087
51383,45110
51376,45131
51366,45150
51353,45167
51336,45180
51317,45191
51296,45197
51272,45199
50927,45199
50903,45197
50882,45191
50863,45180
50846,45167
50833,45150
50823,45131
50816,45110
50814,45087
50814,44711
50816,44687
50823,44667
50833,44648
50846,44631
50863,44617
50882,44607
50903,44601
50929,44598
50938,44597
50947,44593
50955,44588
50962,44581
50968,44573
50971,44564
50973,44554
50973,44545
50971,44535
50968,44526
50962,44518
50955,44511
50947,44506
50938,44502
50929,44501
50903,44498
50882,44492
50863,44482
50846,44468
50833,44451
50823,44432
50816,44412
50814,44388
50814,44012
50816,43989
50823,43968
50833,43949
50846,43932
50863,43919
50882,43908
50903,43902
50927,43900
51272,43900
51296,43902
" /> 
<polyline style="fill-rule:evenodd;"
points="55895,44609
55344,44609
55344,43861
55895,43861
55895,44609
" /> 
<polyline style="fill-rule:evenodd;"
points="57155,44609
56604,44609
56604,43861
57155,43861
57155,44609
" /> 
<polyline style="fill-rule:evenodd;"
points="55895,43538
55344,43538
55344,42790
55895,42790
55895,43538
" /> 
<polyline style="fill-rule:evenodd;"
points="57155,43538
56604,43538
56604,42790
57155,42790
57155,43538
" /> 
<polyline style="fill-rule:evenodd;"
points="62011,42229
58488,42229
58488,41481
62011,41481
62011,42229
" /> 
<polyline style="fill-rule:evenodd;"
points="52079,42052
51666,42052
51666,41481
52079,41481
52079,42052
" /> 
<polyline style="fill-rule:evenodd;"
points="51233,42052
50820,42052
50820,41481
51233,41481
51233,42052
" /> 
<polyline style="fill-rule:evenodd;"
points="49396,40752
49417,40758
49436,40769
49453,40782
49466,40799
49476,40818
49483,40839
49485,40862
49485,41238
49483,41262
49476,41282
49466,41301
49453,41318
49436,41332
49417,41342
49396,41348
49370,41351
49361,41352
49352,41356
49344,41361
49337,41368
49331,41376
49328,41385
49326,41395
49326,41404
49328,41414
49331,41423
49337,41431
49344,41438
49352,41443
49361,41447
49370,41448
49396,41451
49417,41457
49436,41467
49453,41481
49466,41498
49476,41517
49483,41537
49485,41561
49485,41937
49483,41960
49476,41981
49466,42000
49453,42017
49436,42030
49417,42041
49396,42047
49372,42049
49027,42049
49003,42047
48982,42041
48963,42030
48946,42017
48933,42000
48923,41981
48916,41960
48914,41937
48914,41561
48916,41537
48923,41517
48933,41498
48946,41481
48963,41467
48982,41457
49003,41451
49029,41448
49038,41447
49047,41443
49055,41438
49062,41431
49068,41423
49071,41414
49073,41404
49073,41395
49071,41385
49068,41376
49062,41368
49055,41361
49047,41356
49038,41352
49029,41351
49003,41348
48982,41342
48963,41332
48946,41318
48933,41301
48923,41282
48916,41262
48914,41238
48914,40862
48916,40839
48923,40818
48933,40799
48946,40782
48963,40769
48982,40758
49003,40752
49027,40750
49372,40750
49396,40752
" /> 
<polyline style="fill-rule:evenodd;"
points="54379,42002
53966,42002
53966,41431
54379,41431
54379,42002
" /> 
<polyline style="fill-rule:evenodd;"
points="53533,42002
53120,42002
53120,41431
53533,41431
53533,42002
" /> 
<polyline style="fill-rule:evenodd;"
points="57155,41609
56604,41609
56604,40861
57155,40861
57155,41609
" /> 
<polyline style="fill-rule:evenodd;"
points="55895,41609
55344,41609
55344,40861
55895,40861
55895,41609
" /> 
<polyline style="fill-rule:evenodd;"
points="58763,40713
57936,40713
57936,39886
58763,39886
58763,40713
" /> 
<polyline style="fill-rule:evenodd;"
points="59400,39889
59431,39892
59482,39908
59508,39916
59580,39954
59643,40006
59695,40069
59733,40141
59733,40141
59757,40218
59765,40300
59757,40381
59746,40418
59733,40458
59695,40530
59643,40593
59580,40645
59508,40683
59482,40691
59431,40707
59400,40710
59370,40713
59329,40713
59299,40710
59268,40707
59217,40691
59191,40683
59119,40645
59056,40593
59004,40530
58966,40458
58953,40418
58942,40381
58934,40300
58942,40218
58966,40141
58966,40141
59004,40069
59056,40006
59119,39954
59191,39916
59217,39908
59268,39892
59299,39889
59329,39886
59370,39886
59400,39889
" /> 
<polyline style="fill-rule:evenodd;"
points="60400,39889
60431,39892
60482,39908
60508,39916
60580,39954
60643,40006
60695,40069
60733,40141
60733,40141
60757,40218
60765,40300
60757,40381
60746,40418
60733,40458
60695,40530
60643,40593
60580,40645
60508,40683
60482,40691
60431,40707
60400,40710
60370,40713
60329,40713
60299,40710
60268,40707
60217,40691
60191,40683
60119,40645
60056,40593
60004,40530
59966,40458
59953,40418
59942,40381
59934,40300
59942,40218
59966,40141
59966,40141
60004,40069
60056,40006
60119,39954
60191,39916
60217,39908
60268,39892
60299,39889
60329,39886
60370,39886
60400,39889
" /> 
<polyline style="fill-rule:evenodd;"
points="62400,39889
62431,39892
62482,39908
62508,39916
62580,39954
62643,40006
62695,40069
62733,40141
62733,40141
62757,40218
62765,40300
62757,40381
62746,40418
62733,40458
62695,40530
62643,40593
62580,40645
62508,40683
62482,40691
62431,40707
62400,40710
62370,40713
62329,40713
62299,40710
62268,40707
62217,40691
62191,40683
62119,40645
62056,40593
62004,40530
61966,40458
61953,40418
61942,40381
61934,40300
61942,40218
61966,40141
61966,40141
62004,40069
62056,40006
62119,39954
62191,39916
62217,39908
62268,39892
62299,39889
62329,39886
62370,39886
62400,39889
" /> 
<polyline style="fill-rule:evenodd;"
points="61400,39889
61431,39892
61482,39908
61508,39916
61580,39954
61643,40006
61695,40069
61733,40141
61733,40141
61757,40218
61765,40300
61757,40381
61746,40418
61733,40458
61695,40530
61643,40593
61580,40645
61508,40683
61482,40691
61431,40707
61400,40710
61370,40713
61329,40713
61299,40710
61268,40707
61217,40691
61191,40683
61119,40645
61056,40593
61004,40530
60966,40458
60953,40418
60942,40381
60934,40300
60942,40218
60966,40141
60966,40141
61004,40069
61056,40006
61119,39954
61191,39916
61217,39908
61268,39892
61299,39889
61329,39886
61370,39886
61400,39889
" /> 
<polyline style="fill-rule:evenodd;"
points="57155,40588
56604,40588
56604,39840
57155,39840
57155,40588
" /> 
<polyline style="fill-rule:evenodd;"
points="55895,40588
55344,40588
55344,39840
55895,39840
55895,40588
" /> 
<polyline style="fill-rule:evenodd;"
points="49720,40526
48579,40526
48579,39857
49720,39857
49720,40526
" /> 
<polyline style="fill-rule:evenodd;"
points="51233,40418
50820,40418
50820,39847
51233,39847
51233,40418
" /> 
<polyline style="fill-rule:evenodd;"
points="52079,40418
51666,40418
51666,39847
52079,39847
52079,40418
" /> 
<polyline style="fill-rule:evenodd;"
points="54379,40368
53966,40368
53966,39797
54379,39797
54379,40368
" /> 
<polyline style="fill-rule:evenodd;"
points="53533,40368
53120,40368
53120,39797
53533,39797
53533,40368
" /> 
<polyline style="fill-rule:evenodd;"
points="48096,38802
48117,38808
48136,38819
48153,38832
48166,38849
48176,38868
48183,38889
48185,38912
48185,39288
48183,39312
48176,39332
48166,39351
48153,39368
48136,39382
48117,39392
48096,39398
48070,39401
48061,39402
48052,39406
48044,39411
48037,39418
48031,39426
48028,39435
48026,39445
48026,39454
48028,39464
48031,39473
48037,39481
48044,39488
48052,39493
48061,39497
48070,39498
48096,39501
48117,39507
48136,39517
48153,39531
48166,39548
48176,39567
48183,39587
48185,39611
48185,39987
48183,40010
48176,40031
48166,40050
48153,40067
48136,40080
48117,40091
48096,40097
48072,40099
47727,40099
47703,40097
47682,40091
47663,40080
47646,40067
47633,40050
47623,40031
47616,40010
47614,39987
47614,39611
47616,39587
47623,39567
47633,39548
47646,39531
47663,39517
47682,39507
47703,39501
47729,39498
47738,39497
47747,39493
47755,39488
47762,39481
47768,39473
47771,39464
47773,39454
47773,39445
47771,39435
47768,39426
47762,39418
47755,39411
47747,39406
47738,39402
47729,39401
47703,39398
47682,39392
47663,39382
47646,39368
47633,39351
47623,39332
47616,39312
47614,39288
47614,38912
47616,38889
47623,38868
47633,38849
47646,38832
47663,38819
47682,38808
47703,38802
47727,38800
48072,38800
48096,38802
" /> 
<polyline style="fill-rule:evenodd;"
points="58400,38889
58431,38892
58482,38908
58508,38916
58580,38954
58643,39006
58695,39069
58733,39141
58733,39141
58757,39218
58765,39300
58757,39381
58748,39411
58733,39458
58695,39530
58643,39593
58580,39645
58508,39683
58482,39691
58431,39707
58400,39710
58370,39713
58329,39713
58299,39710
58268,39707
58217,39691
58191,39683
58119,39645
58056,39593
58004,39530
57966,39458
57951,39411
57942,39381
57934,39300
57942,39218
57966,39141
57966,39141
58004,39069
58056,39006
58119,38954
58191,38916
58217,38908
58268,38892
58299,38889
58329,38886
58370,38886
58400,38889
" /> 
<polyline style="fill-rule:evenodd;"
points="59400,38889
59431,38892
59482,38908
59508,38916
59580,38954
59643,39006
59695,39069
59733,39141
59733,39141
59757,39218
59765,39300
59757,39381
59748,39411
59733,39458
59695,39530
59643,39593
59580,39645
59508,39683
59482,39691
59431,39707
59400,39710
59370,39713
59329,39713
59299,39710
59268,39707
59217,39691
59191,39683
59119,39645
59056,39593
59004,39530
58966,39458
58951,39411
58942,39381
58934,39300
58942,39218
58966,39141
58966,39141
59004,39069
59056,39006
59119,38954
59191,38916
59217,38908
59268,38892
59299,38889
59329,38886
59370,38886
59400,38889
" /> 
<polyline style="fill-rule:evenodd;"
points="60400,38889
60431,38892
60482,38908
60508,38916
60580,38954
60643,39006
60695,39069
60733,39141
60733,39141
60757,39218
60765,39300
60757,39381
60748,39411
60733,39458
60695,39530
60643,39593
60580,39645
60508,39683
60482,39691
60431,39707
60400,39710
60370,39713
60329,39713
60299,39710
60268,39707
60217,39691
60191,39683
60119,39645
60056,39593
60004,39530
59966,39458
59951,39411
59942,39381
59934,39300
59942,39218
59966,39141
59966,39141
60004,39069
60056,39006
60119,38954
60191,38916
60217,38908
60268,38892
60299,38889
60329,38886
60370,38886
60400,38889
" /> 
<polyline style="fill-rule:evenodd;"
points="61400,38889
61431,38892
61482,38908
61508,38916
61580,38954
61643,39006
61695,39069
61733,39141
61733,39141
61757,39218
61765,39300
61757,39381
61748,39411
61733,39458
61695,39530
61643,39593
61580,39645
61508,39683
61482,39691
61431,39707
61400,39710
61370,39713
61329,39713
61299,39710
61268,39707
61217,39691
61191,39683
61119,39645
61056,39593
61004,39530
60966,39458
60951,39411
60942,39381
60934,39300
60942,39218
60966,39141
60966,39141
61004,39069
61056,39006
61119,38954
61191,38916
61217,38908
61268,38892
61299,38889
61329,38886
61370,38886
61400,38889
" /> 
<polyline style="fill-rule:evenodd;"
points="62400,38889
62431,38892
62482,38908
62508,38916
62580,38954
62643,39006
62695,39069
62733,39141
62733,39141
62757,39218
62765,39300
62757,39381
62748,39411
62733,39458
62695,39530
62643,39593
62580,39645
62508,39683
62482,39691
62431,39707
62400,39710
62370,39713
62329,39713
62299,39710
62268,39707
62217,39691
62191,39683
62119,39645
62056,39593
62004,39530
61966,39458
61951,39411
61942,39381
61934,39300
61942,39218
61966,39141
61966,39141
62004,39069
62056,39006
62119,38954
62191,38916
62217,38908
62268,38892
62299,38889
62329,38886
62370,38886
62400,38889
" /> 
<polyline style="fill-rule:evenodd;"
points="49720,39542
48579,39542
48579,38873
49720,38873
49720,39542
" /> 
<polyline style="fill-rule:evenodd;"
points="57155,38659
56604,38659
56604,37911
57155,37911
57155,38659
" /> 
<polyline style="fill-rule:evenodd;"
points="55895,38659
55344,38659
55344,37911
55895,37911
55895,38659
" /> 
</g> 
</svg>
