<?xml version="1.0" standalone="no"?>
 <!DOCTYPE svg PUBLIC "-//W3C//DTD SVG 1.1//EN" 
 "http://www.w3.org/Graphics/SVG/1.1/DTD/svg11.dtd"> 
<svg xmlns="http://www.w3.org/2000/svg" version="1.1" 
    width="29.7002cm" height="21.0007cm" viewBox="0 0 116930 82680 ">
<title>SVG Picture created as FrogINT_PCBProto_V1811062154-F.Paste.svg date 2019/03/12 09:17:33 </title>
  <desc>Picture generated by PCBNEW </desc>
<g style="fill:#000000; fill-opacity:1;stroke:#000000; stroke-opacity:1;
stroke-linecap:round; stroke-linejoin:round; "
 transform="translate(0 0) scale(1 1)">
</g>
<g style="fill:#000000; fill-opacity:0.0; 
stroke:#000000; stroke-width:-0.000393701; stroke-opacity:1; 
stroke-linecap:round; stroke-linejoin:round;">
</g>
<g style="fill:#000000; fill-opacity:0.0; 
stroke:#000000; stroke-width:0; stroke-opacity:1; 
stroke-linecap:round; stroke-linejoin:round;">
</g>
<g style="fill:#000000; fill-opacity:1.0; 
stroke:#000000; stroke-width:0; stroke-opacity:1; 
stroke-linecap:round; stroke-linejoin:round;">
<polyline style="fill-rule:evenodd;"
points="54301,39876
54301,40289
54045,40289
54045,39876
54301,39876
" /> 
<polyline style="fill-rule:evenodd;"
points="54301,41510
54301,41923
54045,41923
54045,41510
54301,41510
" /> 
<polyline style="fill-rule:evenodd;"
points="53454,39876
53454,40289
53198,40289
53198,39876
53454,39876
" /> 
<polyline style="fill-rule:evenodd;"
points="53454,41510
53454,41923
53198,41923
53198,41510
53454,41510
" /> 
<polyline style="fill-rule:evenodd;"
points="51154,41560
51154,41973
50898,41973
50898,41560
51154,41560
" /> 
<polyline style="fill-rule:evenodd;"
points="51154,39926
51154,40339
50898,40339
50898,39926
51154,39926
" /> 
<polyline style="fill-rule:evenodd;"
points="52001,41560
52001,41973
51745,41973
51745,41560
52001,41560
" /> 
<polyline style="fill-rule:evenodd;"
points="52001,39926
52001,40339
51745,40339
51745,39926
52001,39926
" /> 
<polyline style="fill-rule:evenodd;"
points="54867,48779
54877,48781
54886,48783
54895,48786
54904,48790
54912,48795
54920,48801
54927,48807
54934,48815
54940,48822
54945,48831
54949,48839
54952,48848
54954,48858
54956,48867
54956,48877
54956,49123
54956,49133
54954,49142
54952,49152
54949,49161
54945,49170
54940,49178
54934,49186
54927,49193
54920,49199
54912,49205
54904,49210
54895,49214
54886,49217
54877,49220
54867,49221
54858,49222
54641,49222
54632,49221
54622,49220
54613,49217
54604,49214
54595,49210
54587,49205
54579,49199
54572,49193
54565,49186
54559,49178
54554,49170
54550,49161
54547,49152
54545,49142
54543,49133
54543,49123
54543,48877
54543,48867
54545,48858
54547,48848
54550,48839
54554,48831
54559,48822
54565,48815
54572,48807
54579,48801
54587,48795
54595,48790
54604,48786
54613,48783
54622,48781
54632,48779
54641,48779
54858,48779
54867,48779
" /> 
<polyline style="fill-rule:evenodd;"
points="54867,49478
54877,49479
54886,49482
54895,49485
54904,49489
54912,49494
54920,49500
54927,49506
54934,49513
54940,49521
54945,49529
54949,49538
54952,49547
54954,49557
54956,49566
54956,49576
54956,49822
54956,49832
54954,49841
54952,49851
54949,49860
54945,49868
54940,49877
54934,49884
54927,49892
54920,49898
54912,49904
54904,49909
54895,49913
54886,49916
54877,49918
54867,49920
54858,49920
54641,49920
54632,49920
54622,49918
54613,49916
54604,49913
54595,49909
54587,49904
54579,49898
54572,49892
54565,49884
54559,49877
54554,49868
54550,49860
54547,49851
54545,49841
54543,49832
54543,49822
54543,49576
54543,49566
54545,49557
54547,49547
54550,49538
54554,49529
54559,49521
54565,49513
54572,49506
54579,49500
54587,49494
54595,49489
54604,49485
54613,49482
54622,49479
54632,49478
54641,49477
54858,49477
54867,49478
" /> 
<polyline style="fill-rule:evenodd;"
points="55817,47528
55827,47529
55836,47532
55845,47535
55854,47539
55862,47544
55870,47550
55877,47556
55884,47563
55890,47571
55895,47579
55899,47588
55902,47597
55904,47607
55906,47616
55906,47626
55906,47872
55906,47882
55904,47891
55902,47901
55899,47910
55895,47918
55890,47927
55884,47934
55877,47942
55870,47948
55862,47954
55854,47959
55845,47963
55836,47966
55827,47968
55817,47970
55808,47970
55591,47970
55582,47970
55572,47968
55563,47966
55554,47963
55545,47959
55537,47954
55529,47948
55522,47942
55515,47934
55509,47927
55504,47918
55500,47910
55497,47901
55495,47891
55493,47882
55493,47872
55493,47626
55493,47616
55495,47607
55497,47597
55500,47588
55504,47579
55509,47571
55515,47563
55522,47556
55529,47550
55537,47544
55545,47539
55554,47535
55563,47532
55572,47529
55582,47528
55591,47527
55808,47527
55817,47528
" /> 
<polyline style="fill-rule:evenodd;"
points="55817,46829
55827,46831
55836,46833
55845,46836
55854,46840
55862,46845
55870,46851
55877,46857
55884,46865
55890,46872
55895,46881
55899,46889
55902,46898
55904,46908
55906,46917
55906,46927
55906,47173
55906,47183
55904,47192
55902,47202
55899,47211
55895,47220
55890,47228
55884,47236
55877,47243
55870,47249
55862,47255
55854,47260
55845,47264
55836,47267
55827,47270
55817,47271
55808,47272
55591,47272
55582,47271
55572,47270
55563,47267
55554,47264
55545,47260
55537,47255
55529,47249
55522,47243
55515,47236
55509,47228
55504,47220
55500,47211
55497,47202
55495,47192
55493,47183
55493,47173
55493,46927
55493,46917
55495,46908
55497,46898
55500,46889
55504,46881
55509,46872
55515,46865
55522,46857
55529,46851
55537,46845
55545,46840
55554,46836
55563,46833
55572,46831
55582,46829
55591,46829
55808,46829
55817,46829
" /> 
<polyline style="fill-rule:evenodd;"
points="51067,47929
51077,47931
51086,47933
51095,47936
51104,47940
51112,47945
51120,47951
51127,47957
51134,47965
51140,47972
51145,47981
51149,47989
51152,47998
51154,48008
51156,48017
51156,48027
51156,48273
51156,48283
51154,48292
51152,48302
51149,48311
51145,48320
51140,48328
51134,48336
51127,48343
51120,48349
51112,48355
51104,48360
51095,48364
51086,48367
51077,48370
51067,48371
51058,48372
50841,48372
50832,48371
50822,48370
50813,48367
50804,48364
50795,48360
50787,48355
50779,48349
50772,48343
50765,48336
50759,48328
50754,48320
50750,48311
50747,48302
50745,48292
50743,48283
50743,48273
50743,48027
50743,48017
50745,48008
50747,47998
50750,47989
50754,47981
50759,47972
50765,47965
50772,47957
50779,47951
50787,47945
50795,47940
50804,47936
50813,47933
50822,47931
50832,47929
50841,47929
51058,47929
51067,47929
" /> 
<polyline style="fill-rule:evenodd;"
points="51067,48628
51077,48629
51086,48632
51095,48635
51104,48639
51112,48644
51120,48650
51127,48656
51134,48663
51140,48671
51145,48679
51149,48688
51152,48697
51154,48707
51156,48716
51156,48726
51156,48972
51156,48982
51154,48991
51152,49001
51149,49010
51145,49018
51140,49027
51134,49034
51127,49042
51120,49048
51112,49054
51104,49059
51095,49063
51086,49066
51077,49068
51067,49070
51058,49070
50841,49070
50832,49070
50822,49068
50813,49066
50804,49063
50795,49059
50787,49054
50779,49048
50772,49042
50765,49034
50759,49027
50754,49018
50750,49010
50747,49001
50745,48991
50743,48982
50743,48972
50743,48726
50743,48716
50745,48707
50747,48697
50750,48688
50754,48679
50759,48671
50765,48663
50772,48656
50779,48650
50787,48644
50795,48639
50804,48635
50813,48632
50822,48629
50832,48628
50841,48627
51058,48627
51067,48628
" /> 
<polyline style="fill-rule:evenodd;"
points="51217,44678
51227,44679
51236,44682
51245,44685
51254,44689
51262,44694
51270,44700
51277,44706
51284,44713
51290,44721
51295,44729
51299,44738
51302,44747
51304,44757
51306,44766
51306,44776
51306,45022
51306,45032
51304,45041
51302,45051
51299,45060
51295,45068
51290,45077
51284,45084
51277,45092
51270,45098
51262,45104
51254,45109
51245,45113
51236,45116
51227,45118
51217,45120
51208,45120
50991,45120
50982,45120
50972,45118
50963,45116
50954,45113
50945,45109
50937,45104
50929,45098
50922,45092
50915,45084
50909,45077
50904,45068
50900,45060
50897,45051
50895,45041
50893,45032
50893,45022
50893,44776
50893,44766
50895,44757
50897,44747
50900,44738
50904,44729
50909,44721
50915,44713
50922,44706
50929,44700
50937,44694
50945,44689
50954,44685
50963,44682
50972,44679
50982,44678
50991,44677
51208,44677
51217,44678
" /> 
<polyline style="fill-rule:evenodd;"
points="51217,43979
51227,43981
51236,43983
51245,43986
51254,43990
51262,43995
51270,44001
51277,44007
51284,44015
51290,44022
51295,44031
51299,44039
51302,44048
51304,44058
51306,44067
51306,44077
51306,44323
51306,44333
51304,44342
51302,44352
51299,44361
51295,44370
51290,44378
51284,44386
51277,44393
51270,44399
51262,44405
51254,44410
51245,44414
51236,44417
51227,44420
51217,44421
51208,44422
50991,44422
50982,44421
50972,44420
50963,44417
50954,44414
50945,44410
50937,44405
50929,44399
50922,44393
50915,44386
50909,44378
50904,44370
50900,44361
50897,44352
50895,44342
50893,44333
50893,44323
50893,44077
50893,44067
50895,44058
50897,44048
50900,44039
50904,44031
50909,44022
50915,44015
50922,44007
50929,44001
50937,43995
50945,43990
50954,43986
50963,43983
50972,43981
50982,43979
50991,43979
51208,43979
51217,43979
" /> 
<polyline style="fill-rule:evenodd;"
points="61682,46893
61691,46895
61701,46897
61710,46900
61718,46904
61727,46909
61734,46915
61742,46922
61748,46929
61754,46937
61759,46945
61763,46954
61766,46963
61768,46972
61770,46982
61770,46991
61770,47208
61770,47217
61768,47227
61766,47236
61763,47245
61759,47254
61754,47262
61748,47270
61742,47277
61734,47284
61727,47290
61718,47295
61710,47299
61701,47302
61691,47304
61682,47306
61672,47306
61426,47306
61416,47306
61407,47304
61397,47302
61388,47299
61379,47295
61371,47290
61363,47284
61356,47277
61350,47270
61344,47262
61339,47254
61335,47245
61332,47236
61329,47227
61328,47217
61327,47208
61327,46991
61328,46982
61329,46972
61332,46963
61335,46954
61339,46945
61344,46937
61350,46929
61356,46922
61363,46915
61371,46909
61379,46904
61388,46900
61397,46897
61407,46895
61416,46893
61426,46893
61672,46893
61682,46893
" /> 
<polyline style="fill-rule:evenodd;"
points="60983,46893
60992,46895
61002,46897
61011,46900
61020,46904
61028,46909
61036,46915
61043,46922
61049,46929
61055,46937
61060,46945
61064,46954
61067,46963
61070,46972
61071,46982
61072,46991
61072,47208
61071,47217
61070,47227
61067,47236
61064,47245
61060,47254
61055,47262
61049,47270
61043,47277
61036,47284
61028,47290
61020,47295
61011,47299
61002,47302
60992,47304
60983,47306
60973,47306
60727,47306
60717,47306
60708,47304
60698,47302
60689,47299
60681,47295
60672,47290
60665,47284
60657,47277
60651,47270
60645,47262
60640,47254
60636,47245
60633,47236
60631,47227
60629,47217
60629,47208
60629,46991
60629,46982
60631,46972
60633,46963
60636,46954
60640,46945
60645,46937
60651,46929
60657,46922
60665,46915
60672,46909
60681,46904
60689,46900
60698,46897
60708,46895
60717,46893
60727,46893
60973,46893
60983,46893
" /> 
<polyline style="fill-rule:evenodd;"
points="59383,46893
59392,46895
59402,46897
59411,46900
59420,46904
59428,46909
59436,46915
59443,46922
59449,46929
59455,46937
59460,46945
59464,46954
59467,46963
59470,46972
59471,46982
59472,46991
59472,47208
59471,47217
59470,47227
59467,47236
59464,47245
59460,47254
59455,47262
59449,47270
59443,47277
59436,47284
59428,47290
59420,47295
59411,47299
59402,47302
59392,47304
59383,47306
59373,47306
59127,47306
59117,47306
59108,47304
59098,47302
59089,47299
59081,47295
59072,47290
59065,47284
59057,47277
59051,47270
59045,47262
59040,47254
59036,47245
59033,47236
59031,47227
59029,47217
59029,47208
59029,46991
59029,46982
59031,46972
59033,46963
59036,46954
59040,46945
59045,46937
59051,46929
59057,46922
59065,46915
59072,46909
59081,46904
59089,46900
59098,46897
59108,46895
59117,46893
59127,46893
59373,46893
59383,46893
" /> 
<polyline style="fill-rule:evenodd;"
points="60082,46893
60091,46895
60101,46897
60110,46900
60118,46904
60127,46909
60134,46915
60142,46922
60148,46929
60154,46937
60159,46945
60163,46954
60166,46963
60168,46972
60170,46982
60170,46991
60170,47208
60170,47217
60168,47227
60166,47236
60163,47245
60159,47254
60154,47262
60148,47270
60142,47277
60134,47284
60127,47290
60118,47295
60110,47299
60101,47302
60091,47304
60082,47306
60072,47306
59826,47306
59816,47306
59807,47304
59797,47302
59788,47299
59779,47295
59771,47290
59763,47284
59756,47277
59750,47270
59744,47262
59739,47254
59735,47245
59732,47236
59729,47227
59728,47217
59727,47208
59727,46991
59728,46982
59729,46972
59732,46963
59735,46954
59739,46945
59744,46937
59750,46929
59756,46922
59763,46915
59771,46909
59779,46904
59788,46900
59797,46897
59807,46895
59816,46893
59826,46893
60072,46893
60082,46893
" /> 
<polyline style="fill-rule:evenodd;"
points="63417,45179
63427,45181
63436,45183
63445,45186
63454,45190
63462,45195
63470,45201
63477,45207
63484,45215
63490,45222
63495,45231
63499,45239
63502,45248
63504,45258
63506,45267
63506,45277
63506,45523
63506,45533
63504,45542
63502,45552
63499,45561
63495,45570
63490,45578
63484,45586
63477,45593
63470,45599
63462,45605
63454,45610
63445,45614
63436,45617
63427,45620
63417,45621
63408,45622
63191,45622
63182,45621
63172,45620
63163,45617
63154,45614
63145,45610
63137,45605
63129,45599
63122,45593
63115,45586
63109,45578
63104,45570
63100,45561
63097,45552
63095,45542
63093,45533
63093,45523
63093,45277
63093,45267
63095,45258
63097,45248
63100,45239
63104,45231
63109,45222
63115,45215
63122,45207
63129,45201
63137,45195
63145,45190
63154,45186
63163,45183
63172,45181
63182,45179
63191,45179
63408,45179
63417,45179
" /> 
<polyline style="fill-rule:evenodd;"
points="63417,45878
63427,45879
63436,45882
63445,45885
63454,45889
63462,45894
63470,45900
63477,45906
63484,45913
63490,45921
63495,45929
63499,45938
63502,45947
63504,45957
63506,45966
63506,45976
63506,46222
63506,46232
63504,46241
63502,46251
63499,46260
63495,46268
63490,46277
63484,46284
63477,46292
63470,46298
63462,46304
63454,46309
63445,46313
63436,46316
63427,46318
63417,46320
63408,46320
63191,46320
63182,46320
63172,46318
63163,46316
63154,46313
63145,46309
63137,46304
63129,46298
63122,46292
63115,46284
63109,46277
63104,46268
63100,46260
63097,46251
63095,46241
63093,46232
63093,46222
63093,45976
63093,45966
63095,45957
63097,45947
63100,45938
63104,45929
63109,45921
63115,45913
63122,45906
63129,45900
63137,45894
63145,45889
63154,45885
63163,45882
63172,45879
63182,45878
63191,45877
63408,45877
63417,45878
" /> 
<polyline style="fill-rule:evenodd;"
points="52117,44678
52127,44679
52136,44682
52145,44685
52154,44689
52162,44694
52170,44700
52177,44706
52184,44713
52190,44721
52195,44729
52199,44738
52202,44747
52204,44757
52206,44766
52206,44776
52206,45022
52206,45032
52204,45041
52202,45051
52199,45060
52195,45068
52190,45077
52184,45084
52177,45092
52170,45098
52162,45104
52154,45109
52145,45113
52136,45116
52127,45118
52117,45120
52108,45120
51891,45120
51882,45120
51872,45118
51863,45116
51854,45113
51845,45109
51837,45104
51829,45098
51822,45092
51815,45084
51809,45077
51804,45068
51800,45060
51797,45051
51795,45041
51793,45032
51793,45022
51793,44776
51793,44766
51795,44757
51797,44747
51800,44738
51804,44729
51809,44721
51815,44713
51822,44706
51829,44700
51837,44694
51845,44689
51854,44685
51863,44682
51872,44679
51882,44678
51891,44677
52108,44677
52117,44678
" /> 
<polyline style="fill-rule:evenodd;"
points="52117,43979
52127,43981
52136,43983
52145,43986
52154,43990
52162,43995
52170,44001
52177,44007
52184,44015
52190,44022
52195,44031
52199,44039
52202,44048
52204,44058
52206,44067
52206,44077
52206,44323
52206,44333
52204,44342
52202,44352
52199,44361
52195,44370
52190,44378
52184,44386
52177,44393
52170,44399
52162,44405
52154,44410
52145,44414
52136,44417
52127,44420
52117,44421
52108,44422
51891,44422
51882,44421
51872,44420
51863,44417
51854,44414
51845,44410
51837,44405
51829,44399
51822,44393
51815,44386
51809,44378
51804,44370
51800,44361
51797,44352
51795,44342
51793,44333
51793,44323
51793,44077
51793,44067
51795,44058
51797,44048
51800,44039
51804,44031
51809,44022
51815,44015
51822,44007
51829,44001
51837,43995
51845,43990
51854,43986
51863,43983
51872,43981
51882,43979
51891,43979
52108,43979
52117,43979
" /> 
<polyline style="fill-rule:evenodd;"
points="50417,43979
50427,43981
50436,43983
50445,43986
50454,43990
50462,43995
50470,44001
50477,44007
50484,44015
50490,44022
50495,44031
50499,44039
50502,44048
50504,44058
50506,44067
50506,44077
50506,44323
50506,44333
50504,44342
50502,44352
50499,44361
50495,44370
50490,44378
50484,44386
50477,44393
50470,44399
50462,44405
50454,44410
50445,44414
50436,44417
50427,44420
50417,44421
50408,44422
50191,44422
50182,44421
50172,44420
50163,44417
50154,44414
50145,44410
50137,44405
50129,44399
50122,44393
50115,44386
50109,44378
50104,44370
50100,44361
50097,44352
50095,44342
50093,44333
50093,44323
50093,44077
50093,44067
50095,44058
50097,44048
50100,44039
50104,44031
50109,44022
50115,44015
50122,44007
50129,44001
50137,43995
50145,43990
50154,43986
50163,43983
50172,43981
50182,43979
50191,43979
50408,43979
50417,43979
" /> 
<polyline style="fill-rule:evenodd;"
points="50417,44678
50427,44679
50436,44682
50445,44685
50454,44689
50462,44694
50470,44700
50477,44706
50484,44713
50490,44721
50495,44729
50499,44738
50502,44747
50504,44757
50506,44766
50506,44776
50506,45022
50506,45032
50504,45041
50502,45051
50499,45060
50495,45068
50490,45077
50484,45084
50477,45092
50470,45098
50462,45104
50454,45109
50445,45113
50436,45116
50427,45118
50417,45120
50408,45120
50191,45120
50182,45120
50172,45118
50163,45116
50154,45113
50145,45109
50137,45104
50129,45098
50122,45092
50115,45084
50109,45077
50104,45068
50100,45060
50097,45051
50095,45041
50093,45032
50093,45022
50093,44776
50093,44766
50095,44757
50097,44747
50100,44738
50104,44729
50109,44721
50115,44713
50122,44706
50129,44700
50137,44694
50145,44689
50154,44685
50163,44682
50172,44679
50182,44678
50191,44677
50408,44677
50417,44678
" /> 
<polyline style="fill-rule:evenodd;"
points="49567,44678
49577,44679
49586,44682
49595,44685
49604,44689
49612,44694
49620,44700
49627,44706
49634,44713
49640,44721
49645,44729
49649,44738
49652,44747
49654,44757
49656,44766
49656,44776
49656,45022
49656,45032
49654,45041
49652,45051
49649,45060
49645,45068
49640,45077
49634,45084
49627,45092
49620,45098
49612,45104
49604,45109
49595,45113
49586,45116
49577,45118
49567,45120
49558,45120
49341,45120
49332,45120
49322,45118
49313,45116
49304,45113
49295,45109
49287,45104
49279,45098
49272,45092
49265,45084
49259,45077
49254,45068
49250,45060
49247,45051
49245,45041
49243,45032
49243,45022
49243,44776
49243,44766
49245,44757
49247,44747
49250,44738
49254,44729
49259,44721
49265,44713
49272,44706
49279,44700
49287,44694
49295,44689
49304,44685
49313,44682
49322,44679
49332,44678
49341,44677
49558,44677
49567,44678
" /> 
<polyline style="fill-rule:evenodd;"
points="49567,43979
49577,43981
49586,43983
49595,43986
49604,43990
49612,43995
49620,44001
49627,44007
49634,44015
49640,44022
49645,44031
49649,44039
49652,44048
49654,44058
49656,44067
49656,44077
49656,44323
49656,44333
49654,44342
49652,44352
49649,44361
49645,44370
49640,44378
49634,44386
49627,44393
49620,44399
49612,44405
49604,44410
49595,44414
49586,44417
49577,44420
49567,44421
49558,44422
49341,44422
49332,44421
49322,44420
49313,44417
49304,44414
49295,44410
49287,44405
49279,44399
49272,44393
49265,44386
49259,44378
49254,44370
49250,44361
49247,44352
49245,44342
49243,44333
49243,44323
49243,44077
49243,44067
49245,44058
49247,44048
49250,44039
49254,44031
49259,44022
49265,44015
49272,44007
49279,44001
49287,43995
49295,43990
49304,43986
49313,43983
49322,43981
49332,43979
49341,43979
49558,43979
49567,43979
" /> 
<polyline style="fill-rule:evenodd;"
points="48017,38879
48027,38881
48036,38883
48045,38886
48054,38890
48062,38895
48070,38901
48077,38907
48084,38915
48090,38922
48095,38931
48099,38939
48102,38948
48104,38958
48106,38967
48106,38977
48106,39223
48106,39233
48104,39242
48102,39252
48099,39261
48095,39270
48090,39278
48084,39286
48077,39293
48070,39299
48062,39305
48054,39310
48045,39314
48036,39317
48027,39320
48017,39321
48008,39322
47791,39322
47782,39321
47772,39320
47763,39317
47754,39314
47745,39310
47737,39305
47729,39299
47722,39293
47715,39286
47709,39278
47704,39270
47700,39261
47697,39252
47695,39242
47693,39233
47693,39223
47693,38977
47693,38967
47695,38958
47697,38948
47700,38939
47704,38931
47709,38922
47715,38915
47722,38907
47729,38901
47737,38895
47745,38890
47754,38886
47763,38883
47772,38881
47782,38879
47791,38879
48008,38879
48017,38879
" /> 
<polyline style="fill-rule:evenodd;"
points="48017,39578
48027,39579
48036,39582
48045,39585
48054,39589
48062,39594
48070,39600
48077,39606
48084,39613
48090,39621
48095,39629
48099,39638
48102,39647
48104,39657
48106,39666
48106,39676
48106,39922
48106,39932
48104,39941
48102,39951
48099,39960
48095,39968
48090,39977
48084,39984
48077,39992
48070,39998
48062,40004
48054,40009
48045,40013
48036,40016
48027,40018
48017,40020
48008,40020
47791,40020
47782,40020
47772,40018
47763,40016
47754,40013
47745,40009
47737,40004
47729,39998
47722,39992
47715,39984
47709,39977
47704,39968
47700,39960
47697,39951
47695,39941
47693,39932
47693,39922
47693,39676
47693,39666
47695,39657
47697,39647
47700,39638
47704,39629
47709,39621
47715,39613
47722,39606
47729,39600
47737,39594
47745,39589
47754,39585
47763,39582
47772,39579
47782,39578
47791,39577
48008,39577
48017,39578
" /> 
<polyline style="fill-rule:evenodd;"
points="49317,40829
49327,40831
49336,40833
49345,40836
49354,40840
49362,40845
49370,40851
49377,40857
49384,40865
49390,40872
49395,40881
49399,40889
49402,40898
49404,40908
49406,40917
49406,40927
49406,41173
49406,41183
49404,41192
49402,41202
49399,41211
49395,41220
49390,41228
49384,41236
49377,41243
49370,41249
49362,41255
49354,41260
49345,41264
49336,41267
49327,41270
49317,41271
49308,41272
49091,41272
49082,41271
49072,41270
49063,41267
49054,41264
49045,41260
49037,41255
49029,41249
49022,41243
49015,41236
49009,41228
49004,41220
49000,41211
48997,41202
48995,41192
48993,41183
48993,41173
48993,40927
48993,40917
48995,40908
48997,40898
49000,40889
49004,40881
49009,40872
49015,40865
49022,40857
49029,40851
49037,40845
49045,40840
49054,40836
49063,40833
49072,40831
49082,40829
49091,40829
49308,40829
49317,40829
" /> 
<polyline style="fill-rule:evenodd;"
points="49317,41528
49327,41529
49336,41532
49345,41535
49354,41539
49362,41544
49370,41550
49377,41556
49384,41563
49390,41571
49395,41579
49399,41588
49402,41597
49404,41607
49406,41616
49406,41626
49406,41872
49406,41882
49404,41891
49402,41901
49399,41910
49395,41918
49390,41927
49384,41934
49377,41942
49370,41948
49362,41954
49354,41959
49345,41963
49336,41966
49327,41968
49317,41970
49308,41970
49091,41970
49082,41970
49072,41968
49063,41966
49054,41963
49045,41959
49037,41954
49029,41948
49022,41942
49015,41934
49009,41927
49004,41918
49000,41910
48997,41901
48995,41891
48993,41882
48993,41872
48993,41626
48993,41616
48995,41607
48997,41597
49000,41588
49004,41579
49009,41571
49015,41563
49022,41556
49029,41550
49037,41544
49045,41539
49054,41535
49063,41532
49072,41529
49082,41528
49091,41527
49308,41527
49317,41528
" /> 
<polyline style="fill-rule:evenodd;"
points="55816,40509
55423,40509
55423,39919
55816,39919
55816,40509
" /> 
<polyline style="fill-rule:evenodd;"
points="57076,40509
56683,40509
56683,39919
57076,39919
57076,40509
" /> 
<polyline style="fill-rule:evenodd;"
points="55816,38580
55423,38580
55423,37990
55816,37990
55816,38580
" /> 
<polyline style="fill-rule:evenodd;"
points="57076,38580
56683,38580
56683,37990
57076,37990
57076,38580
" /> 
<polyline style="fill-rule:evenodd;"
points="55816,43459
55423,43459
55423,42869
55816,42869
55816,43459
" /> 
<polyline style="fill-rule:evenodd;"
points="57076,43459
56683,43459
56683,42869
57076,42869
57076,43459
" /> 
<polyline style="fill-rule:evenodd;"
points="55816,41530
55423,41530
55423,40940
55816,40940
55816,41530
" /> 
<polyline style="fill-rule:evenodd;"
points="57076,41530
56683,41530
56683,40940
57076,40940
57076,41530
" /> 
<polyline style="fill-rule:evenodd;"
points="55816,46459
55423,46459
55423,45869
55816,45869
55816,46459
" /> 
<polyline style="fill-rule:evenodd;"
points="57076,46459
56683,46459
56683,45869
57076,45869
57076,46459
" /> 
<polyline style="fill-rule:evenodd;"
points="55816,44530
55423,44530
55423,43940
55816,43940
55816,44530
" /> 
<polyline style="fill-rule:evenodd;"
points="57076,44530
56683,44530
56683,43940
57076,43940
57076,44530
" /> 
<polyline style="fill-rule:evenodd;"
points="55955,49455
55965,49457
55974,49459
55983,49462
55992,49466
56000,49471
56008,49477
56015,49483
56022,49491
56027,49498
56032,49507
56036,49515
56040,49524
56042,49534
56044,49543
56044,49553
56044,49848
56044,49858
56042,49868
56040,49877
56036,49886
56032,49895
56027,49903
56022,49911
56015,49918
56008,49924
56000,49930
55992,49935
55983,49939
55974,49943
55965,49945
55955,49946
55946,49947
55453,49947
55444,49946
55434,49945
55425,49943
55416,49939
55407,49935
55399,49930
55391,49924
55384,49918
55377,49911
55372,49903
55367,49895
55363,49886
55359,49877
55357,49868
55355,49858
55355,49848
55355,49553
55355,49543
55357,49534
55359,49524
55363,49515
55367,49507
55372,49498
55377,49491
55384,49483
55391,49477
55399,49471
55407,49466
55416,49462
55425,49459
55434,49457
55444,49455
55453,49455
55946,49455
55955,49455
" /> 
<polyline style="fill-rule:evenodd;"
points="55955,48353
55965,48354
55974,48356
55983,48360
55992,48364
56000,48369
56008,48375
56015,48381
56022,48388
56027,48396
56032,48404
56036,48413
56040,48422
56042,48431
56044,48441
56044,48451
56044,48746
56044,48756
56042,48765
56040,48775
56036,48784
56032,48792
56027,48801
56022,48808
56015,48816
56008,48822
56000,48828
55992,48833
55983,48837
55974,48840
55965,48842
55955,48844
55946,48844
55453,48844
55444,48844
55434,48842
55425,48840
55416,48837
55407,48833
55399,48828
55391,48822
55384,48816
55377,48808
55372,48801
55367,48792
55363,48784
55359,48775
55357,48765
55355,48756
55355,48746
55355,48451
55355,48441
55357,48431
55359,48422
55363,48413
55367,48404
55372,48396
55377,48388
55384,48381
55391,48375
55399,48369
55407,48364
55416,48360
55425,48356
55434,48354
55444,48353
55453,48352
55946,48352
55955,48353
" /> 
<polyline style="fill-rule:evenodd;"
points="57049,52837
56486,52837
56486,51853
57049,51853
57049,52837
" /> 
<polyline style="fill-rule:evenodd;"
points="56293,52837
55730,52837
55730,51853
56293,51853
56293,52837
" /> 
<polyline style="fill-rule:evenodd;"
points="56980,51429
56823,51429
56823,50780
56980,50780
56980,51429
" /> 
<polyline style="fill-rule:evenodd;"
points="56724,51429
56567,51429
56567,50780
56724,50780
56724,51429
" /> 
<polyline style="fill-rule:evenodd;"
points="56468,51429
56311,51429
56311,50780
56468,50780
56468,51429
" /> 
<polyline style="fill-rule:evenodd;"
points="56212,51429
56055,51429
56055,50780
56212,50780
56212,51429
" /> 
<polyline style="fill-rule:evenodd;"
points="55957,51429
55799,51429
55799,50780
55957,50780
55957,51429
" /> 
<polyline style="fill-rule:evenodd;"
points="57138,51353
57138,50762
57925,50762
57925,51353
57138,51353
" /> 
<polyline style="fill-rule:evenodd;"
points="54874,51361
54874,50770
55661,50770
55661,51361
54874,51361
" /> 
<polyline style="fill-rule:evenodd;"
points="57212,51715
57212,51439
57930,51439
57930,51715
57212,51715
" /> 
<polyline style="fill-rule:evenodd;"
points="54869,51715
54869,51439
55587,51439
55587,51715
54869,51715
" /> 
<polyline style="fill-rule:evenodd;"
points="55049,52266
55049,51479
55581,51479
55581,52266
55049,52266
" /> 
<polyline style="fill-rule:evenodd;"
points="57207,52266
57207,51479
57738,51479
57738,52266
57207,52266
" /> 
<polyline style="fill-rule:evenodd;"
points="53677,46375
53422,46375
53422,45958
53677,45958
53677,46375
" /> 
<polyline style="fill-rule:evenodd;"
points="53303,46375
53048,46375
53048,45958
53303,45958
53303,46375
" /> 
<polyline style="fill-rule:evenodd;"
points="54051,46375
53796,46375
53796,45958
54051,45958
54051,46375
" /> 
<polyline style="fill-rule:evenodd;"
points="54051,47241
53796,47241
53796,46824
54051,46824
54051,47241
" /> 
<polyline style="fill-rule:evenodd;"
points="53677,47241
53422,47241
53422,46824
53677,46824
53677,47241
" /> 
<polyline style="fill-rule:evenodd;"
points="53303,47241
53048,47241
53048,46824
53303,46824
53303,47241
" /> 
<polyline style="fill-rule:evenodd;"
points="50677,46375
50422,46375
50422,45958
50677,45958
50677,46375
" /> 
<polyline style="fill-rule:evenodd;"
points="50303,46375
50048,46375
50048,45958
50303,45958
50303,46375
" /> 
<polyline style="fill-rule:evenodd;"
points="51051,46375
50796,46375
50796,45958
51051,45958
51051,46375
" /> 
<polyline style="fill-rule:evenodd;"
points="51051,47241
50796,47241
50796,46824
51051,46824
51051,47241
" /> 
<polyline style="fill-rule:evenodd;"
points="50677,47241
50422,47241
50422,46824
50677,46824
50677,47241
" /> 
<polyline style="fill-rule:evenodd;"
points="50303,47241
50048,47241
50048,46824
50303,46824
50303,47241
" /> 
<polyline style="fill-rule:evenodd;"
points="57859,46318
57867,46319
57875,46321
57883,46324
57891,46327
57898,46332
57905,46337
57911,46342
57917,46349
57922,46355
57926,46363
57930,46370
57933,46378
57935,46387
57936,46395
57937,46403
57937,46576
57936,46584
57935,46592
57933,46601
57930,46609
57926,46616
57922,46623
57917,46630
57911,46636
57905,46642
57898,46647
57891,46652
57883,46655
57875,46658
57867,46660
57859,46661
57850,46662
57649,46662
57640,46661
57632,46660
57624,46658
57616,46655
57608,46652
57601,46647
57594,46642
57588,46636
57582,46630
57577,46623
57573,46616
57569,46609
57566,46601
57564,46592
57563,46584
57562,46576
57562,46403
57563,46395
57564,46387
57566,46378
57569,46370
57573,46363
57577,46355
57582,46349
57588,46342
57594,46337
57601,46332
57608,46327
57616,46324
57624,46321
57632,46319
57640,46318
57649,46317
57850,46317
57859,46318
" /> 
<polyline style="fill-rule:evenodd;"
points="57859,46938
57867,46939
57875,46941
57883,46944
57891,46947
57898,46952
57905,46957
57911,46963
57917,46969
57922,46976
57926,46983
57930,46990
57933,46998
57935,47007
57936,47015
57937,47023
57937,47196
57936,47204
57935,47212
57933,47221
57930,47229
57926,47236
57922,47244
57917,47250
57911,47257
57905,47262
57898,47267
57891,47272
57883,47275
57875,47278
57867,47280
57859,47281
57850,47282
57649,47282
57640,47281
57632,47280
57624,47278
57616,47275
57608,47272
57601,47267
57594,47262
57588,47257
57582,47250
57577,47244
57573,47236
57569,47229
57566,47221
57564,47212
57563,47204
57562,47196
57562,47023
57563,47015
57564,47007
57566,46998
57569,46990
57573,46983
57577,46976
57582,46969
57588,46963
57594,46957
57601,46952
57608,46947
57616,46944
57624,46941
57632,46939
57640,46938
57649,46937
57850,46937
57859,46938
" /> 
<polyline style="fill-rule:evenodd;"
points="57259,49588
57267,49589
57275,49591
57283,49594
57291,49597
57298,49602
57305,49607
57311,49613
57317,49619
57322,49626
57326,49633
57330,49640
57333,49648
57335,49657
57336,49665
57337,49673
57337,49846
57336,49854
57335,49862
57333,49871
57330,49879
57326,49886
57322,49894
57317,49900
57311,49907
57305,49912
57298,49917
57291,49922
57283,49925
57275,49928
57267,49930
57259,49931
57250,49932
57049,49932
57040,49931
57032,49930
57024,49928
57016,49925
57008,49922
57001,49917
56994,49912
56988,49907
56982,49900
56977,49894
56973,49886
56969,49879
56966,49871
56964,49862
56963,49854
56962,49846
56962,49673
56963,49665
56964,49657
56966,49648
56969,49640
56973,49633
56977,49626
56982,49619
56988,49613
56994,49607
57001,49602
57008,49597
57016,49594
57024,49591
57032,49589
57040,49588
57049,49587
57250,49587
57259,49588
" /> 
<polyline style="fill-rule:evenodd;"
points="57259,48968
57267,48969
57275,48971
57283,48974
57291,48977
57298,48982
57305,48987
57311,48992
57317,48999
57322,49005
57326,49013
57330,49020
57333,49028
57335,49037
57336,49045
57337,49053
57337,49226
57336,49234
57335,49242
57333,49251
57330,49259
57326,49266
57322,49273
57317,49280
57311,49286
57305,49292
57298,49297
57291,49302
57283,49305
57275,49308
57267,49310
57259,49311
57250,49312
57049,49312
57040,49311
57032,49310
57024,49308
57016,49305
57008,49302
57001,49297
56994,49292
56988,49286
56982,49280
56977,49273
56973,49266
56969,49259
56966,49251
56964,49242
56963,49234
56962,49226
56962,49053
56963,49045
56964,49037
56966,49028
56969,49020
56973,49013
56977,49005
56982,48999
56988,48992
56994,48987
57001,48982
57008,48977
57016,48974
57024,48971
57032,48969
57040,48968
57049,48967
57250,48967
57259,48968
" /> 
<polyline style="fill-rule:evenodd;"
points="56609,49588
56617,49589
56625,49591
56633,49594
56641,49597
56648,49602
56655,49607
56661,49613
56667,49619
56672,49626
56676,49633
56680,49640
56683,49648
56685,49657
56686,49665
56687,49673
56687,49846
56686,49854
56685,49862
56683,49871
56680,49879
56676,49886
56672,49894
56667,49900
56661,49907
56655,49912
56648,49917
56641,49922
56633,49925
56625,49928
56617,49930
56609,49931
56600,49932
56399,49932
56390,49931
56382,49930
56374,49928
56366,49925
56358,49922
56351,49917
56344,49912
56338,49907
56332,49900
56327,49894
56323,49886
56319,49879
56316,49871
56314,49862
56313,49854
56312,49846
56312,49673
56313,49665
56314,49657
56316,49648
56319,49640
56323,49633
56327,49626
56332,49619
56338,49613
56344,49607
56351,49602
56358,49597
56366,49594
56374,49591
56382,49589
56390,49588
56399,49587
56600,49587
56609,49588
" /> 
<polyline style="fill-rule:evenodd;"
points="56609,48968
56617,48969
56625,48971
56633,48974
56641,48977
56648,48982
56655,48987
56661,48992
56667,48999
56672,49005
56676,49013
56680,49020
56683,49028
56685,49037
56686,49045
56687,49053
56687,49226
56686,49234
56685,49242
56683,49251
56680,49259
56676,49266
56672,49273
56667,49280
56661,49286
56655,49292
56648,49297
56641,49302
56633,49305
56625,49308
56617,49310
56609,49311
56600,49312
56399,49312
56390,49311
56382,49310
56374,49308
56366,49305
56358,49302
56351,49297
56344,49292
56338,49286
56332,49280
56327,49273
56323,49266
56319,49259
56316,49251
56314,49242
56313,49234
56312,49226
56312,49053
56313,49045
56314,49037
56316,49028
56319,49020
56323,49013
56327,49005
56332,48999
56338,48992
56344,48987
56351,48982
56358,48977
56366,48974
56374,48971
56382,48969
56390,48968
56399,48967
56600,48967
56609,48968
" /> 
<polyline style="fill-rule:evenodd;"
points="49509,46268
49517,46269
49525,46271
49533,46274
49541,46277
49548,46282
49555,46287
49561,46292
49567,46299
49572,46305
49576,46313
49580,46320
49583,46328
49585,46337
49586,46345
49587,46353
49587,46526
49586,46534
49585,46542
49583,46551
49580,46559
49576,46566
49572,46573
49567,46580
49561,46586
49555,46592
49548,46597
49541,46602
49533,46605
49525,46608
49517,46610
49509,46611
49500,46612
49299,46612
49290,46611
49282,46610
49274,46608
49266,46605
49258,46602
49251,46597
49244,46592
49238,46586
49232,46580
49227,46573
49223,46566
49219,46559
49216,46551
49214,46542
49213,46534
49212,46526
49212,46353
49213,46345
49214,46337
49216,46328
49219,46320
49223,46313
49227,46305
49232,46299
49238,46292
49244,46287
49251,46282
49258,46277
49266,46274
49274,46271
49282,46269
49290,46268
49299,46267
49500,46267
49509,46268
" /> 
<polyline style="fill-rule:evenodd;"
points="49509,46888
49517,46889
49525,46891
49533,46894
49541,46897
49548,46902
49555,46907
49561,46913
49567,46919
49572,46926
49576,46933
49580,46940
49583,46948
49585,46957
49586,46965
49587,46973
49587,47146
49586,47154
49585,47162
49583,47171
49580,47179
49576,47186
49572,47194
49567,47200
49561,47207
49555,47212
49548,47217
49541,47222
49533,47225
49525,47228
49517,47230
49509,47231
49500,47232
49299,47232
49290,47231
49282,47230
49274,47228
49266,47225
49258,47222
49251,47217
49244,47212
49238,47207
49232,47200
49227,47194
49223,47186
49219,47179
49216,47171
49214,47162
49213,47154
49212,47146
49212,46973
49213,46965
49214,46957
49216,46948
49219,46940
49223,46933
49227,46926
49232,46919
49238,46913
49244,46907
49251,46902
49258,46897
49266,46894
49274,46891
49282,46889
49290,46888
49299,46887
49500,46887
49509,46888
" /> 
<polyline style="fill-rule:evenodd;"
points="54959,46968
54967,46969
54975,46971
54983,46974
54991,46977
54998,46982
55005,46987
55011,46992
55017,46999
55022,47005
55026,47013
55030,47020
55033,47028
55035,47037
55036,47045
55037,47053
55037,47226
55036,47234
55035,47242
55033,47251
55030,47259
55026,47266
55022,47273
55017,47280
55011,47286
55005,47292
54998,47297
54991,47302
54983,47305
54975,47308
54967,47310
54959,47311
54950,47312
54749,47312
54740,47311
54732,47310
54724,47308
54716,47305
54708,47302
54701,47297
54694,47292
54688,47286
54682,47280
54677,47273
54673,47266
54669,47259
54666,47251
54664,47242
54663,47234
54662,47226
54662,47053
54663,47045
54664,47037
54666,47028
54669,47020
54673,47013
54677,47005
54682,46999
54688,46992
54694,46987
54701,46982
54708,46977
54716,46974
54724,46971
54732,46969
54740,46968
54749,46967
54950,46967
54959,46968
" /> 
<polyline style="fill-rule:evenodd;"
points="54959,47588
54967,47589
54975,47591
54983,47594
54991,47597
54998,47602
55005,47607
55011,47613
55017,47619
55022,47626
55026,47633
55030,47640
55033,47648
55035,47657
55036,47665
55037,47673
55037,47846
55036,47854
55035,47862
55033,47871
55030,47879
55026,47886
55022,47894
55017,47900
55011,47907
55005,47912
54998,47917
54991,47922
54983,47925
54975,47928
54967,47930
54959,47931
54950,47932
54749,47932
54740,47931
54732,47930
54724,47928
54716,47925
54708,47922
54701,47917
54694,47912
54688,47907
54682,47900
54677,47894
54673,47886
54669,47879
54666,47871
54664,47862
54663,47854
54662,47846
54662,47673
54663,47665
54664,47657
54666,47648
54669,47640
54673,47633
54677,47626
54682,47619
54688,47613
54694,47607
54701,47602
54708,47597
54716,47594
54724,47591
54732,47589
54740,47588
54749,47587
54950,47587
54959,47588
" /> 
<polyline style="fill-rule:evenodd;"
points="57009,47577
57017,47579
57025,47581
57033,47584
57041,47587
57048,47592
57055,47597
57061,47602
57067,47609
57072,47615
57076,47623
57080,47630
57083,47638
57085,47646
57086,47655
57087,47663
57087,47835
57086,47844
57085,47852
57083,47860
57080,47868
57076,47876
57072,47883
57067,47890
57061,47896
57055,47902
57048,47907
57041,47911
57033,47915
57025,47918
57017,47920
57009,47921
57000,47922
56799,47922
56790,47921
56782,47920
56774,47918
56766,47915
56758,47911
56751,47907
56744,47902
56738,47896
56732,47890
56727,47883
56723,47876
56719,47868
56716,47860
56714,47852
56713,47844
56712,47835
56712,47663
56713,47655
56714,47646
56716,47638
56719,47630
56723,47623
56727,47615
56732,47609
56738,47602
56744,47597
56751,47592
56758,47587
56766,47584
56774,47581
56782,47579
56790,47577
56799,47577
57000,47577
57009,47577
" /> 
<polyline style="fill-rule:evenodd;"
points="57009,48198
57017,48199
57025,48201
57033,48204
57041,48207
57048,48212
57055,48217
57061,48222
57067,48229
57072,48235
57076,48243
57080,48250
57083,48258
57085,48266
57086,48275
57087,48283
57087,48456
57086,48464
57085,48472
57083,48481
57080,48488
57076,48496
57072,48503
57067,48510
57061,48516
57055,48522
57048,48527
57041,48531
57033,48535
57025,48538
57017,48540
57009,48541
57000,48542
56799,48542
56790,48541
56782,48540
56774,48538
56766,48535
56758,48531
56751,48527
56744,48522
56738,48516
56732,48510
56727,48503
56723,48496
56719,48488
56716,48481
56714,48472
56713,48464
56712,48456
56712,48283
56713,48275
56714,48266
56716,48258
56719,48250
56723,48243
56727,48235
56732,48229
56738,48222
56744,48217
56751,48212
56758,48207
56766,48204
56774,48201
56782,48199
56790,48198
56799,48197
57000,48197
57009,48198
" /> 
<polyline style="fill-rule:evenodd;"
points="53510,47866
54100,47866
54100,48653
53510,48653
53510,47866
" /> 
<polyline style="fill-rule:evenodd;"
points="51699,47866
52289,47866
52289,48653
51699,48653
51699,47866
" /> 
<polyline style="fill-rule:evenodd;"
points="52604,47866
53195,47866
53195,48653
52604,48653
52604,47866
" /> 
<polyline style="fill-rule:evenodd;"
points="52151,50346
53648,50346
53648,51133
52151,51133
52151,50346
" /> 
<polyline style="fill-rule:evenodd;"
points="51803,46375
51548,46375
51548,45958
51803,45958
51803,46375
" /> 
<polyline style="fill-rule:evenodd;"
points="52551,46375
52296,46375
52296,45958
52551,45958
52551,46375
" /> 
<polyline style="fill-rule:evenodd;"
points="52551,47241
52296,47241
52296,46824
52551,46824
52551,47241
" /> 
<polyline style="fill-rule:evenodd;"
points="52177,47241
51922,47241
51922,46824
52177,46824
52177,47241
" /> 
<polyline style="fill-rule:evenodd;"
points="51803,47241
51548,47241
51548,46824
51803,46824
51803,47241
" /> 
<polyline style="fill-rule:evenodd;"
points="58783,42151
58566,42151
58566,41560
58783,41560
58783,42151
" /> 
<polyline style="fill-rule:evenodd;"
points="59098,42151
58881,42151
58881,41560
59098,41560
59098,42151
" /> 
<polyline style="fill-rule:evenodd;"
points="59413,42151
59196,42151
59196,41560
59413,41560
59413,42151
" /> 
<polyline style="fill-rule:evenodd;"
points="59728,42151
59511,42151
59511,41560
59728,41560
59728,42151
" /> 
<polyline style="fill-rule:evenodd;"
points="60043,42151
59826,42151
59826,41560
60043,41560
60043,42151
" /> 
<polyline style="fill-rule:evenodd;"
points="60358,42151
60141,42151
60141,41560
60358,41560
60358,42151
" /> 
<polyline style="fill-rule:evenodd;"
points="60673,42151
60456,42151
60456,41560
60673,41560
60673,42151
" /> 
<polyline style="fill-rule:evenodd;"
points="60988,42151
60771,42151
60771,41560
60988,41560
60988,42151
" /> 
<polyline style="fill-rule:evenodd;"
points="61303,42151
61086,42151
61086,41560
61303,41560
61303,42151
" /> 
<polyline style="fill-rule:evenodd;"
points="61618,42151
61401,42151
61401,41560
61618,41560
61618,42151
" /> 
<polyline style="fill-rule:evenodd;"
points="61933,42151
61716,42151
61716,41560
61933,41560
61933,42151
" /> 
<polyline style="fill-rule:evenodd;"
points="62198,42633
62198,42416
62789,42416
62789,42633
62198,42633
" /> 
<polyline style="fill-rule:evenodd;"
points="62198,42948
62198,42731
62789,42731
62789,42948
62198,42948
" /> 
<polyline style="fill-rule:evenodd;"
points="62198,43263
62198,43046
62789,43046
62789,43263
62198,43263
" /> 
<polyline style="fill-rule:evenodd;"
points="62198,43578
62198,43361
62789,43361
62789,43578
62198,43578
" /> 
<polyline style="fill-rule:evenodd;"
points="62198,43893
62198,43676
62789,43676
62789,43893
62198,43893
" /> 
<polyline style="fill-rule:evenodd;"
points="62198,44208
62198,43991
62789,43991
62789,44208
62198,44208
" /> 
<polyline style="fill-rule:evenodd;"
points="62198,44523
62198,44306
62789,44306
62789,44523
62198,44523
" /> 
<polyline style="fill-rule:evenodd;"
points="62198,44838
62198,44621
62789,44621
62789,44838
62198,44838
" /> 
<polyline style="fill-rule:evenodd;"
points="62198,45153
62198,44936
62789,44936
62789,45153
62198,45153
" /> 
<polyline style="fill-rule:evenodd;"
points="62198,45468
62198,45251
62789,45251
62789,45468
62198,45468
" /> 
<polyline style="fill-rule:evenodd;"
points="62198,45783
62198,45566
62789,45566
62789,45783
62198,45783
" /> 
<polyline style="fill-rule:evenodd;"
points="61933,46639
61716,46639
61716,46048
61933,46048
61933,46639
" /> 
<polyline style="fill-rule:evenodd;"
points="61618,46639
61401,46639
61401,46048
61618,46048
61618,46639
" /> 
<polyline style="fill-rule:evenodd;"
points="61303,46639
61086,46639
61086,46048
61303,46048
61303,46639
" /> 
<polyline style="fill-rule:evenodd;"
points="60988,46639
60771,46639
60771,46048
60988,46048
60988,46639
" /> 
<polyline style="fill-rule:evenodd;"
points="60673,46639
60456,46639
60456,46048
60673,46048
60673,46639
" /> 
<polyline style="fill-rule:evenodd;"
points="60358,46639
60141,46639
60141,46048
60358,46048
60358,46639
" /> 
<polyline style="fill-rule:evenodd;"
points="60043,46639
59826,46639
59826,46048
60043,46048
60043,46639
" /> 
<polyline style="fill-rule:evenodd;"
points="59728,46639
59511,46639
59511,46048
59728,46048
59728,46639
" /> 
<polyline style="fill-rule:evenodd;"
points="59413,46639
59196,46639
59196,46048
59413,46048
59413,46639
" /> 
<polyline style="fill-rule:evenodd;"
points="59098,46639
58881,46639
58881,46048
59098,46048
59098,46639
" /> 
<polyline style="fill-rule:evenodd;"
points="58783,46639
58566,46639
58566,46048
58783,46048
58783,46639
" /> 
<polyline style="fill-rule:evenodd;"
points="57710,45783
57710,45566
58301,45566
58301,45783
57710,45783
" /> 
<polyline style="fill-rule:evenodd;"
points="57710,45468
57710,45251
58301,45251
58301,45468
57710,45468
" /> 
<polyline style="fill-rule:evenodd;"
points="57710,45153
57710,44936
58301,44936
58301,45153
57710,45153
" /> 
<polyline style="fill-rule:evenodd;"
points="57710,44838
57710,44621
58301,44621
58301,44838
57710,44838
" /> 
<polyline style="fill-rule:evenodd;"
points="57710,44523
57710,44306
58301,44306
58301,44523
57710,44523
" /> 
<polyline style="fill-rule:evenodd;"
points="57710,44208
57710,43991
58301,43991
58301,44208
57710,44208
" /> 
<polyline style="fill-rule:evenodd;"
points="57710,43893
57710,43676
58301,43676
58301,43893
57710,43893
" /> 
<polyline style="fill-rule:evenodd;"
points="57710,43578
57710,43361
58301,43361
58301,43578
57710,43578
" /> 
<polyline style="fill-rule:evenodd;"
points="57710,43263
57710,43046
58301,43046
58301,43263
57710,43263
" /> 
<polyline style="fill-rule:evenodd;"
points="57710,42948
57710,42731
58301,42731
58301,42948
57710,42948
" /> 
<polyline style="fill-rule:evenodd;"
points="57710,42633
57710,42416
58301,42416
58301,42633
57710,42633
" /> 
<polyline style="fill-rule:evenodd;"
points="49405,40448
49405,39936
49642,39936
49642,40448
49405,40448
" /> 
<polyline style="fill-rule:evenodd;"
points="49031,40448
49031,39936
49268,39936
49268,40448
49031,40448
" /> 
<polyline style="fill-rule:evenodd;"
points="48657,40448
48657,39936
48894,39936
48894,40448
48657,40448
" /> 
<polyline style="fill-rule:evenodd;"
points="48657,39463
48657,38951
48894,38951
48894,39463
48657,39463
" /> 
<polyline style="fill-rule:evenodd;"
points="49031,39463
49031,38951
49268,38951
49268,39463
49031,39463
" /> 
<polyline style="fill-rule:evenodd;"
points="49405,39463
49405,38951
49642,38951
49642,39463
49405,39463
" /> 
</g> 
</svg>
