  0
SECTION
  2
HEADER
  9
$ANGBASE
  50
0.0
  9
$ANGDIR
  70
  1
  9
$MEASUREMENT
  70
0
  0
ENDSEC
  0
SECTION
  2
TABLES
  0
TABLE
  2
LTYPE
  70
4
  0
LTYPE
  5
40F
  2
CONTINUOUS
  70
0
  3
Solid line
  72
65
  73
0
  40
0.0
  0
LTYPE
  5
410
  2
DASHDOT
 70
0
  3
Dash Dot ____ _ ____ _
 72
65
 73
4
 40
2.0
 49
1.25
 49
-0.25
 49
0.25
 49
-0.25
  0
LTYPE
  5
411
  2
DASHED
 70
0
  3
Dashed __ __ __ __ __
 72
65
 73
2
 40
0.75
 49
0.5
 49
-0.25
  0
LTYPE
  5
43B
  2
DOTTED
 70
0
  3
Dotted .  .  .  .
 72
65
 73
2
 40
0.2
 49
0.0
 49
-0.2
  0
ENDTAB
  0
TABLE
  2
STYLE
  70
4
  0
STYLE
  2
KICAD
  70
0
  40
0
  41
1
  42
1
  50
0
  71
0
  3
isocp.shx
  0
STYLE
  2
KICADB
  70
0
  40
0
  41
1
  42
1
  50
0
  71
0
  3
isocp.shx
  0
STYLE
  2
KICADI
  70
0
  40
0
  41
1
  42
1
  50
15
  71
0
  3
isocp.shx
  0
STYLE
  2
KICADBI
  70
0
  40
0
  41
1
  42
1
  50
15
  71
0
  3
isocp.shx
  0
ENDTAB
  0
TABLE
  2
LAYER
  70
30
  0
LAYER
  2
BLACK
  70
0
  62
7
  6
CONTINUOUS
  0
LAYER
  2
GRAY1
  70
0
  62
251
  6
CONTINUOUS
  0
LAYER
  2
GRAY2
  70
0
  62
8
  6
CONTINUOUS
  0
LAYER
  2
GRAY3
  70
0
  62
9
  6
CONTINUOUS
  0
LAYER
  2
WHITE
  70
0
  62
7
  6
CONTINUOUS
  0
LAYER
  2
LYELLOW
  70
0
  62
51
  6
CONTINUOUS
  0
LAYER
  2
BLUE1
  70
0
  62
178
  6
CONTINUOUS
  0
LAYER
  2
GREEN1
  70
0
  62
98
  6
CONTINUOUS
  0
LAYER
  2
CYAN1
  70
0
  62
138
  6
CONTINUOUS
  0
LAYER
  2
RED1
  70
0
  62
18
  6
CONTINUOUS
  0
LAYER
  2
MAGENTA1
  70
0
  62
228
  6
CONTINUOUS
  0
LAYER
  2
BROWN1
  70
0
  62
58
  6
CONTINUOUS
  0
LAYER
  2
BLUE2
  70
0
  62
5
  6
CONTINUOUS
  0
LAYER
  2
GREEN2
  70
0
  62
3
  6
CONTINUOUS
  0
LAYER
  2
CYAN2
  70
0
  62
4
  6
CONTINUOUS
  0
LAYER
  2
RED2
  70
0
  62
1
  6
CONTINUOUS
  0
LAYER
  2
MAGENTA2
  70
0
  62
6
  6
CONTINUOUS
  0
LAYER
  2
BROWN2
  70
0
  62
54
  6
CONTINUOUS
  0
LAYER
  2
BLUE3
  70
0
  62
171
  6
CONTINUOUS
  0
LAYER
  2
GREEN3
  70
0
  62
91
  6
CONTINUOUS
  0
LAYER
  2
CYAN3
  70
0
  62
131
  6
CONTINUOUS
  0
LAYER
  2
RED3
  70
0
  62
11
  6
CONTINUOUS
  0
LAYER
  2
MAGENTA3
  70
0
  62
221
  6
CONTINUOUS
  0
LAYER
  2
YELLOW3
  70
0
  62
2
  6
CONTINUOUS
  0
LAYER
  2
BLUE4
  70
0
  62
5
  6
CONTINUOUS
  0
LAYER
  2
GREEN4
  70
0
  62
3
  6
CONTINUOUS
  0
LAYER
  2
CYAN4
  70
0
  62
4
  6
CONTINUOUS
  0
LAYER
  2
RED4
  70
0
  62
1
  6
CONTINUOUS
  0
LAYER
  2
MAGENTA4
  70
0
  62
6
  6
CONTINUOUS
  0
LAYER
  2
YELLOW4
  70
0
  62
2
  6
CONTINUOUS
  0
ENDTAB
  0
ENDSEC
  0
SECTION
  2
ENTITIES
0
LINE
8
BLACK
6
CONTINUOUS
10
177.002
20
-166.007
11
177.002
21
-198.007
0
LINE
8
BLACK
6
CONTINUOUS
10
177.002
20
-198.007
11
285.002
21
-198.007
0
LINE
8
BLACK
6
CONTINUOUS
10
285.002
20
-198.007
11
285.002
21
-166.007
0
LINE
8
BLACK
6
CONTINUOUS
10
285.002
20
-166.007
11
177.002
21
-166.007
0
LINE
8
BLACK
6
CONTINUOUS
10
10
20
-10
11
10
21
-200.007
0
LINE
8
BLACK
6
CONTINUOUS
10
10
20
-200.007
11
287.002
21
-200.007
0
LINE
8
BLACK
6
CONTINUOUS
10
287.002
20
-200.007
11
287.002
21
-10
0
LINE
8
BLACK
6
CONTINUOUS
10
287.002
20
-10
11
10
21
-10
0
LINE
8
BLACK
6
CONTINUOUS
10
12
20
-12
11
12
21
-198.007
0
LINE
8
BLACK
6
CONTINUOUS
10
12
20
-198.007
11
285.002
21
-198.007
0
LINE
8
BLACK
6
CONTINUOUS
10
285.002
20
-198.007
11
285.002
21
-12
0
LINE
8
BLACK
6
CONTINUOUS
10
285.002
20
-12
11
12
21
-12
0
LINE
8
BLACK
6
CONTINUOUS
10
60
20
-12
11
60
21
-10
0
LINE
8
BLACK
6
CONTINUOUS
10
110
20
-12
11
110
21
-10
0
LINE
8
BLACK
6
CONTINUOUS
10
160
20
-12
11
160
21
-10
0
LINE
8
BLACK
6
CONTINUOUS
10
210
20
-12
11
210
21
-10
0
LINE
8
BLACK
6
CONTINUOUS
10
260
20
-12
11
260
21
-10
0
LINE
8
BLACK
6
CONTINUOUS
10
36.0655
20
-11.5881
11
35.3226
21
-11.5881
0
LINE
8
BLACK
6
CONTINUOUS
10
35.694
20
-11.5881
11
35.694
21
-10.2881
0
LINE
8
BLACK
6
CONTINUOUS
10
35.694
20
-10.2881
11
35.5702
21
-10.4738
0
LINE
8
BLACK
6
CONTINUOUS
10
35.5702
20
-10.4738
11
35.4464
21
-10.5976
0
LINE
8
BLACK
6
CONTINUOUS
10
35.4464
20
-10.5976
11
35.3226
21
-10.6595
0
LINE
8
BLACK
6
CONTINUOUS
10
85.3226
20
-10.4119
11
85.3845
21
-10.35
0
LINE
8
BLACK
6
CONTINUOUS
10
85.3845
20
-10.35
11
85.5083
21
-10.2881
0
LINE
8
BLACK
6
CONTINUOUS
10
85.5083
20
-10.2881
11
85.8179
21
-10.2881
0
LINE
8
BLACK
6
CONTINUOUS
10
85.8179
20
-10.2881
11
85.9417
21
-10.35
0
LINE
8
BLACK
6
CONTINUOUS
10
85.9417
20
-10.35
11
86.0036
21
-10.4119
0
LINE
8
BLACK
6
CONTINUOUS
10
86.0036
20
-10.4119
11
86.0655
21
-10.5357
0
LINE
8
BLACK
6
CONTINUOUS
10
86.0655
20
-10.5357
11
86.0655
21
-10.6595
0
LINE
8
BLACK
6
CONTINUOUS
10
86.0655
20
-10.6595
11
86.0036
21
-10.8452
0
LINE
8
BLACK
6
CONTINUOUS
10
86.0036
20
-10.8452
11
85.2607
21
-11.5881
0
LINE
8
BLACK
6
CONTINUOUS
10
85.2607
20
-11.5881
11
86.0655
21
-11.5881
0
LINE
8
BLACK
6
CONTINUOUS
10
135.261
20
-10.2881
11
136.065
21
-10.2881
0
LINE
8
BLACK
6
CONTINUOUS
10
136.065
20
-10.2881
11
135.632
21
-10.7833
0
LINE
8
BLACK
6
CONTINUOUS
10
135.632
20
-10.7833
11
135.818
21
-10.7833
0
LINE
8
BLACK
6
CONTINUOUS
10
135.818
20
-10.7833
11
135.942
21
-10.8452
0
LINE
8
BLACK
6
CONTINUOUS
10
135.942
20
-10.8452
11
136.004
21
-10.9071
0
LINE
8
BLACK
6
CONTINUOUS
10
136.004
20
-10.9071
11
136.065
21
-11.031
0
LINE
8
BLACK
6
CONTINUOUS
10
136.065
20
-11.031
11
136.065
21
-11.3405
0
LINE
8
BLACK
6
CONTINUOUS
10
136.065
20
-11.3405
11
136.004
21
-11.4643
0
LINE
8
BLACK
6
CONTINUOUS
10
136.004
20
-11.4643
11
135.942
21
-11.5262
0
LINE
8
BLACK
6
CONTINUOUS
10
135.942
20
-11.5262
11
135.818
21
-11.5881
0
LINE
8
BLACK
6
CONTINUOUS
10
135.818
20
-11.5881
11
135.446
21
-11.5881
0
LINE
8
BLACK
6
CONTINUOUS
10
135.446
20
-11.5881
11
135.323
21
-11.5262
0
LINE
8
BLACK
6
CONTINUOUS
10
135.323
20
-11.5262
11
135.261
21
-11.4643
0
LINE
8
BLACK
6
CONTINUOUS
10
185.942
20
-10.7214
11
185.942
21
-11.5881
0
LINE
8
BLACK
6
CONTINUOUS
10
185.632
20
-10.2262
11
185.323
21
-11.1548
0
LINE
8
BLACK
6
CONTINUOUS
10
185.323
20
-11.1548
11
186.127
21
-11.1548
0
LINE
8
BLACK
6
CONTINUOUS
10
236.004
20
-10.2881
11
235.385
21
-10.2881
0
LINE
8
BLACK
6
CONTINUOUS
10
235.385
20
-10.2881
11
235.323
21
-10.9071
0
LINE
8
BLACK
6
CONTINUOUS
10
235.323
20
-10.9071
11
235.385
21
-10.8452
0
LINE
8
BLACK
6
CONTINUOUS
10
235.385
20
-10.8452
11
235.508
21
-10.7833
0
LINE
8
BLACK
6
CONTINUOUS
10
235.508
20
-10.7833
11
235.818
21
-10.7833
0
LINE
8
BLACK
6
CONTINUOUS
10
235.818
20
-10.7833
11
235.942
21
-10.8452
0
LINE
8
BLACK
6
CONTINUOUS
10
235.942
20
-10.8452
11
236.004
21
-10.9071
0
LINE
8
BLACK
6
CONTINUOUS
10
236.004
20
-10.9071
11
236.065
21
-11.031
0
LINE
8
BLACK
6
CONTINUOUS
10
236.065
20
-11.031
11
236.065
21
-11.3405
0
LINE
8
BLACK
6
CONTINUOUS
10
236.065
20
-11.3405
11
236.004
21
-11.4643
0
LINE
8
BLACK
6
CONTINUOUS
10
236.004
20
-11.4643
11
235.942
21
-11.5262
0
LINE
8
BLACK
6
CONTINUOUS
10
235.942
20
-11.5262
11
235.818
21
-11.5881
0
LINE
8
BLACK
6
CONTINUOUS
10
235.818
20
-11.5881
11
235.508
21
-11.5881
0
LINE
8
BLACK
6
CONTINUOUS
10
235.508
20
-11.5881
11
235.385
21
-11.5262
0
LINE
8
BLACK
6
CONTINUOUS
10
235.385
20
-11.5262
11
235.323
21
-11.4643
0
LINE
8
BLACK
6
CONTINUOUS
10
285.942
20
-10.2881
11
285.694
21
-10.2881
0
LINE
8
BLACK
6
CONTINUOUS
10
285.694
20
-10.2881
11
285.57
21
-10.35
0
LINE
8
BLACK
6
CONTINUOUS
10
285.57
20
-10.35
11
285.508
21
-10.4119
0
LINE
8
BLACK
6
CONTINUOUS
10
285.508
20
-10.4119
11
285.385
21
-10.5976
0
LINE
8
BLACK
6
CONTINUOUS
10
285.385
20
-10.5976
11
285.323
21
-10.8452
0
LINE
8
BLACK
6
CONTINUOUS
10
285.323
20
-10.8452
11
285.323
21
-11.3405
0
LINE
8
BLACK
6
CONTINUOUS
10
285.323
20
-11.3405
11
285.385
21
-11.4643
0
LINE
8
BLACK
6
CONTINUOUS
10
285.385
20
-11.4643
11
285.446
21
-11.5262
0
LINE
8
BLACK
6
CONTINUOUS
10
285.446
20
-11.5262
11
285.57
21
-11.5881
0
LINE
8
BLACK
6
CONTINUOUS
10
285.57
20
-11.5881
11
285.818
21
-11.5881
0
LINE
8
BLACK
6
CONTINUOUS
10
285.818
20
-11.5881
11
285.942
21
-11.5262
0
LINE
8
BLACK
6
CONTINUOUS
10
285.942
20
-11.5262
11
286.004
21
-11.4643
0
LINE
8
BLACK
6
CONTINUOUS
10
286.004
20
-11.4643
11
286.065
21
-11.3405
0
LINE
8
BLACK
6
CONTINUOUS
10
286.065
20
-11.3405
11
286.065
21
-11.031
0
LINE
8
BLACK
6
CONTINUOUS
10
286.065
20
-11.031
11
286.004
21
-10.9071
0
LINE
8
BLACK
6
CONTINUOUS
10
286.004
20
-10.9071
11
285.942
21
-10.8452
0
LINE
8
BLACK
6
CONTINUOUS
10
285.942
20
-10.8452
11
285.818
21
-10.7833
0
LINE
8
BLACK
6
CONTINUOUS
10
285.818
20
-10.7833
11
285.57
21
-10.7833
0
LINE
8
BLACK
6
CONTINUOUS
10
285.57
20
-10.7833
11
285.446
21
-10.8452
0
LINE
8
BLACK
6
CONTINUOUS
10
285.446
20
-10.8452
11
285.385
21
-10.9071
0
LINE
8
BLACK
6
CONTINUOUS
10
285.385
20
-10.9071
11
285.323
21
-11.031
0
LINE
8
BLACK
6
CONTINUOUS
10
60
20
-198.007
11
60
21
-200.007
0
LINE
8
BLACK
6
CONTINUOUS
10
110
20
-198.007
11
110
21
-200.007
0
LINE
8
BLACK
6
CONTINUOUS
10
160
20
-198.007
11
160
21
-200.007
0
LINE
8
BLACK
6
CONTINUOUS
10
210
20
-198.007
11
210
21
-200.007
0
LINE
8
BLACK
6
CONTINUOUS
10
260
20
-198.007
11
260
21
-200.007
0
LINE
8
BLACK
6
CONTINUOUS
10
36.0655
20
-199.595
11
35.3226
21
-199.595
0
LINE
8
BLACK
6
CONTINUOUS
10
35.694
20
-199.595
11
35.694
21
-198.295
0
LINE
8
BLACK
6
CONTINUOUS
10
35.694
20
-198.295
11
35.5702
21
-198.481
0
LINE
8
BLACK
6
CONTINUOUS
10
35.5702
20
-198.481
11
35.4464
21
-198.605
0
LINE
8
BLACK
6
CONTINUOUS
10
35.4464
20
-198.605
11
35.3226
21
-198.667
0
LINE
8
BLACK
6
CONTINUOUS
10
85.3226
20
-198.419
11
85.3845
21
-198.357
0
LINE
8
BLACK
6
CONTINUOUS
10
85.3845
20
-198.357
11
85.5083
21
-198.295
0
LINE
8
BLACK
6
CONTINUOUS
10
85.5083
20
-198.295
11
85.8179
21
-198.295
0
LINE
8
BLACK
6
CONTINUOUS
10
85.8179
20
-198.295
11
85.9417
21
-198.357
0
LINE
8
BLACK
6
CONTINUOUS
10
85.9417
20
-198.357
11
86.0036
21
-198.419
0
LINE
8
BLACK
6
CONTINUOUS
10
86.0036
20
-198.419
11
86.0655
21
-198.543
0
LINE
8
BLACK
6
CONTINUOUS
10
86.0655
20
-198.543
11
86.0655
21
-198.667
0
LINE
8
BLACK
6
CONTINUOUS
10
86.0655
20
-198.667
11
86.0036
21
-198.852
0
LINE
8
BLACK
6
CONTINUOUS
10
86.0036
20
-198.852
11
85.2607
21
-199.595
0
LINE
8
BLACK
6
CONTINUOUS
10
85.2607
20
-199.595
11
86.0655
21
-199.595
0
LINE
8
BLACK
6
CONTINUOUS
10
135.261
20
-198.295
11
136.065
21
-198.295
0
LINE
8
BLACK
6
CONTINUOUS
10
136.065
20
-198.295
11
135.632
21
-198.791
0
LINE
8
BLACK
6
CONTINUOUS
10
135.632
20
-198.791
11
135.818
21
-198.791
0
LINE
8
BLACK
6
CONTINUOUS
10
135.818
20
-198.791
11
135.942
21
-198.852
0
LINE
8
BLACK
6
CONTINUOUS
10
135.942
20
-198.852
11
136.004
21
-198.914
0
LINE
8
BLACK
6
CONTINUOUS
10
136.004
20
-198.914
11
136.065
21
-199.038
0
LINE
8
BLACK
6
CONTINUOUS
10
136.065
20
-199.038
11
136.065
21
-199.348
0
LINE
8
BLACK
6
CONTINUOUS
10
136.065
20
-199.348
11
136.004
21
-199.471
0
LINE
8
BLACK
6
CONTINUOUS
10
136.004
20
-199.471
11
135.942
21
-199.533
0
LINE
8
BLACK
6
CONTINUOUS
10
135.942
20
-199.533
11
135.818
21
-199.595
0
LINE
8
BLACK
6
CONTINUOUS
10
135.818
20
-199.595
11
135.446
21
-199.595
0
LINE
8
BLACK
6
CONTINUOUS
10
135.446
20
-199.595
11
135.323
21
-199.533
0
LINE
8
BLACK
6
CONTINUOUS
10
135.323
20
-199.533
11
135.261
21
-199.471
0
LINE
8
BLACK
6
CONTINUOUS
10
185.942
20
-198.729
11
185.942
21
-199.595
0
LINE
8
BLACK
6
CONTINUOUS
10
185.632
20
-198.233
11
185.323
21
-199.162
0
LINE
8
BLACK
6
CONTINUOUS
10
185.323
20
-199.162
11
186.127
21
-199.162
0
LINE
8
BLACK
6
CONTINUOUS
10
236.004
20
-198.295
11
235.385
21
-198.295
0
LINE
8
BLACK
6
CONTINUOUS
10
235.385
20
-198.295
11
235.323
21
-198.914
0
LINE
8
BLACK
6
CONTINUOUS
10
235.323
20
-198.914
11
235.385
21
-198.852
0
LINE
8
BLACK
6
CONTINUOUS
10
235.385
20
-198.852
11
235.508
21
-198.791
0
LINE
8
BLACK
6
CONTINUOUS
10
235.508
20
-198.791
11
235.818
21
-198.791
0
LINE
8
BLACK
6
CONTINUOUS
10
235.818
20
-198.791
11
235.942
21
-198.852
0
LINE
8
BLACK
6
CONTINUOUS
10
235.942
20
-198.852
11
236.004
21
-198.914
0
LINE
8
BLACK
6
CONTINUOUS
10
236.004
20
-198.914
11
236.065
21
-199.038
0
LINE
8
BLACK
6
CONTINUOUS
10
236.065
20
-199.038
11
236.065
21
-199.348
0
LINE
8
BLACK
6
CONTINUOUS
10
236.065
20
-199.348
11
236.004
21
-199.471
0
LINE
8
BLACK
6
CONTINUOUS
10
236.004
20
-199.471
11
235.942
21
-199.533
0
LINE
8
BLACK
6
CONTINUOUS
10
235.942
20
-199.533
11
235.818
21
-199.595
0
LINE
8
BLACK
6
CONTINUOUS
10
235.818
20
-199.595
11
235.508
21
-199.595
0
LINE
8
BLACK
6
CONTINUOUS
10
235.508
20
-199.595
11
235.385
21
-199.533
0
LINE
8
BLACK
6
CONTINUOUS
10
235.385
20
-199.533
11
235.323
21
-199.471
0
LINE
8
BLACK
6
CONTINUOUS
10
285.942
20
-198.295
11
285.694
21
-198.295
0
LINE
8
BLACK
6
CONTINUOUS
10
285.694
20
-198.295
11
285.57
21
-198.357
0
LINE
8
BLACK
6
CONTINUOUS
10
285.57
20
-198.357
11
285.508
21
-198.419
0
LINE
8
BLACK
6
CONTINUOUS
10
285.508
20
-198.419
11
285.385
21
-198.605
0
LINE
8
BLACK
6
CONTINUOUS
10
285.385
20
-198.605
11
285.323
21
-198.852
0
LINE
8
BLACK
6
CONTINUOUS
10
285.323
20
-198.852
11
285.323
21
-199.348
0
LINE
8
BLACK
6
CONTINUOUS
10
285.323
20
-199.348
11
285.385
21
-199.471
0
LINE
8
BLACK
6
CONTINUOUS
10
285.385
20
-199.471
11
285.446
21
-199.533
0
LINE
8
BLACK
6
CONTINUOUS
10
285.446
20
-199.533
11
285.57
21
-199.595
0
LINE
8
BLACK
6
CONTINUOUS
10
285.57
20
-199.595
11
285.818
21
-199.595
0
LINE
8
BLACK
6
CONTINUOUS
10
285.818
20
-199.595
11
285.942
21
-199.533
0
LINE
8
BLACK
6
CONTINUOUS
10
285.942
20
-199.533
11
286.004
21
-199.471
0
LINE
8
BLACK
6
CONTINUOUS
10
286.004
20
-199.471
11
286.065
21
-199.348
0
LINE
8
BLACK
6
CONTINUOUS
10
286.065
20
-199.348
11
286.065
21
-199.038
0
LINE
8
BLACK
6
CONTINUOUS
10
286.065
20
-199.038
11
286.004
21
-198.914
0
LINE
8
BLACK
6
CONTINUOUS
10
286.004
20
-198.914
11
285.942
21
-198.852
0
LINE
8
BLACK
6
CONTINUOUS
10
285.942
20
-198.852
11
285.818
21
-198.791
0
LINE
8
BLACK
6
CONTINUOUS
10
285.818
20
-198.791
11
285.57
21
-198.791
0
LINE
8
BLACK
6
CONTINUOUS
10
285.57
20
-198.791
11
285.446
21
-198.852
0
LINE
8
BLACK
6
CONTINUOUS
10
285.446
20
-198.852
11
285.385
21
-198.914
0
LINE
8
BLACK
6
CONTINUOUS
10
285.385
20
-198.914
11
285.323
21
-199.038
0
LINE
8
BLACK
6
CONTINUOUS
10
10
20
-60
11
12
21
-60
0
LINE
8
BLACK
6
CONTINUOUS
10
10
20
-110
11
12
21
-110
0
LINE
8
BLACK
6
CONTINUOUS
10
10
20
-160
11
12
21
-160
0
LINE
8
BLACK
6
CONTINUOUS
10
10.6905
20
-35.2167
11
11.3095
21
-35.2167
0
LINE
8
BLACK
6
CONTINUOUS
10
10.5667
20
-35.5881
11
11
21
-34.2881
0
LINE
8
BLACK
6
CONTINUOUS
10
11
20
-34.2881
11
11.4333
21
-35.5881
0
LINE
8
BLACK
6
CONTINUOUS
10
11.0929
20
-84.9071
11
11.2786
21
-84.969
0
LINE
8
BLACK
6
CONTINUOUS
10
11.2786
20
-84.969
11
11.3405
21
-85.031
0
LINE
8
BLACK
6
CONTINUOUS
10
11.3405
20
-85.031
11
11.4024
21
-85.1548
0
LINE
8
BLACK
6
CONTINUOUS
10
11.4024
20
-85.1548
11
11.4024
21
-85.3405
0
LINE
8
BLACK
6
CONTINUOUS
10
11.4024
20
-85.3405
11
11.3405
21
-85.4643
0
LINE
8
BLACK
6
CONTINUOUS
10
11.3405
20
-85.4643
11
11.2786
21
-85.5262
0
LINE
8
BLACK
6
CONTINUOUS
10
11.2786
20
-85.5262
11
11.1548
21
-85.5881
0
LINE
8
BLACK
6
CONTINUOUS
10
11.1548
20
-85.5881
11
10.6595
21
-85.5881
0
LINE
8
BLACK
6
CONTINUOUS
10
10.6595
20
-85.5881
11
10.6595
21
-84.2881
0
LINE
8
BLACK
6
CONTINUOUS
10
10.6595
20
-84.2881
11
11.0929
21
-84.2881
0
LINE
8
BLACK
6
CONTINUOUS
10
11.0929
20
-84.2881
11
11.2167
21
-84.35
0
LINE
8
BLACK
6
CONTINUOUS
10
11.2167
20
-84.35
11
11.2786
21
-84.4119
0
LINE
8
BLACK
6
CONTINUOUS
10
11.2786
20
-84.4119
11
11.3405
21
-84.5357
0
LINE
8
BLACK
6
CONTINUOUS
10
11.3405
20
-84.5357
11
11.3405
21
-84.6595
0
LINE
8
BLACK
6
CONTINUOUS
10
11.3405
20
-84.6595
11
11.2786
21
-84.7833
0
LINE
8
BLACK
6
CONTINUOUS
10
11.2786
20
-84.7833
11
11.2167
21
-84.8452
0
LINE
8
BLACK
6
CONTINUOUS
10
11.2167
20
-84.8452
11
11.0929
21
-84.9071
0
LINE
8
BLACK
6
CONTINUOUS
10
11.0929
20
-84.9071
11
10.6595
21
-84.9071
0
LINE
8
BLACK
6
CONTINUOUS
10
11.4024
20
-135.464
11
11.3405
21
-135.526
0
LINE
8
BLACK
6
CONTINUOUS
10
11.3405
20
-135.526
11
11.1548
21
-135.588
0
LINE
8
BLACK
6
CONTINUOUS
10
11.1548
20
-135.588
11
11.031
21
-135.588
0
LINE
8
BLACK
6
CONTINUOUS
10
11.031
20
-135.588
11
10.8452
21
-135.526
0
LINE
8
BLACK
6
CONTINUOUS
10
10.8452
20
-135.526
11
10.7214
21
-135.402
0
LINE
8
BLACK
6
CONTINUOUS
10
10.7214
20
-135.402
11
10.6595
21
-135.279
0
LINE
8
BLACK
6
CONTINUOUS
10
10.6595
20
-135.279
11
10.5976
21
-135.031
0
LINE
8
BLACK
6
CONTINUOUS
10
10.5976
20
-135.031
11
10.5976
21
-134.845
0
LINE
8
BLACK
6
CONTINUOUS
10
10.5976
20
-134.845
11
10.6595
21
-134.598
0
LINE
8
BLACK
6
CONTINUOUS
10
10.6595
20
-134.598
11
10.7214
21
-134.474
0
LINE
8
BLACK
6
CONTINUOUS
10
10.7214
20
-134.474
11
10.8452
21
-134.35
0
LINE
8
BLACK
6
CONTINUOUS
10
10.8452
20
-134.35
11
11.031
21
-134.288
0
LINE
8
BLACK
6
CONTINUOUS
10
11.031
20
-134.288
11
11.1548
21
-134.288
0
LINE
8
BLACK
6
CONTINUOUS
10
11.1548
20
-134.288
11
11.3405
21
-134.35
0
LINE
8
BLACK
6
CONTINUOUS
10
11.3405
20
-134.35
11
11.4024
21
-134.412
0
LINE
8
BLACK
6
CONTINUOUS
10
10.6595
20
-185.588
11
10.6595
21
-184.288
0
LINE
8
BLACK
6
CONTINUOUS
10
10.6595
20
-184.288
11
10.969
21
-184.288
0
LINE
8
BLACK
6
CONTINUOUS
10
10.969
20
-184.288
11
11.1548
21
-184.35
0
LINE
8
BLACK
6
CONTINUOUS
10
11.1548
20
-184.35
11
11.2786
21
-184.474
0
LINE
8
BLACK
6
CONTINUOUS
10
11.2786
20
-184.474
11
11.3405
21
-184.598
0
LINE
8
BLACK
6
CONTINUOUS
10
11.3405
20
-184.598
11
11.4024
21
-184.845
0
LINE
8
BLACK
6
CONTINUOUS
10
11.4024
20
-184.845
11
11.4024
21
-185.031
0
LINE
8
BLACK
6
CONTINUOUS
10
11.4024
20
-185.031
11
11.3405
21
-185.279
0
LINE
8
BLACK
6
CONTINUOUS
10
11.3405
20
-185.279
11
11.2786
21
-185.402
0
LINE
8
BLACK
6
CONTINUOUS
10
11.2786
20
-185.402
11
11.1548
21
-185.526
0
LINE
8
BLACK
6
CONTINUOUS
10
11.1548
20
-185.526
11
10.969
21
-185.588
0
LINE
8
BLACK
6
CONTINUOUS
10
10.969
20
-185.588
11
10.6595
21
-185.588
0
LINE
8
BLACK
6
CONTINUOUS
10
287.002
20
-60
11
285.002
21
-60
0
LINE
8
BLACK
6
CONTINUOUS
10
287.002
20
-110
11
285.002
21
-110
0
LINE
8
BLACK
6
CONTINUOUS
10
287.002
20
-160
11
285.002
21
-160
0
LINE
8
BLACK
6
CONTINUOUS
10
285.693
20
-35.2167
11
286.312
21
-35.2167
0
LINE
8
BLACK
6
CONTINUOUS
10
285.569
20
-35.5881
11
286.002
21
-34.2881
0
LINE
8
BLACK
6
CONTINUOUS
10
286.002
20
-34.2881
11
286.436
21
-35.5881
0
LINE
8
BLACK
6
CONTINUOUS
10
286.095
20
-84.9071
11
286.281
21
-84.969
0
LINE
8
BLACK
6
CONTINUOUS
10
286.281
20
-84.969
11
286.343
21
-85.031
0
LINE
8
BLACK
6
CONTINUOUS
10
286.343
20
-85.031
11
286.405
21
-85.1548
0
LINE
8
BLACK
6
CONTINUOUS
10
286.405
20
-85.1548
11
286.405
21
-85.3405
0
LINE
8
BLACK
6
CONTINUOUS
10
286.405
20
-85.3405
11
286.343
21
-85.4643
0
LINE
8
BLACK
6
CONTINUOUS
10
286.343
20
-85.4643
11
286.281
21
-85.5262
0
LINE
8
BLACK
6
CONTINUOUS
10
286.281
20
-85.5262
11
286.157
21
-85.5881
0
LINE
8
BLACK
6
CONTINUOUS
10
286.157
20
-85.5881
11
285.662
21
-85.5881
0
LINE
8
BLACK
6
CONTINUOUS
10
285.662
20
-85.5881
11
285.662
21
-84.2881
0
LINE
8
BLACK
6
CONTINUOUS
10
285.662
20
-84.2881
11
286.095
21
-84.2881
0
LINE
8
BLACK
6
CONTINUOUS
10
286.095
20
-84.2881
11
286.219
21
-84.35
0
LINE
8
BLACK
6
CONTINUOUS
10
286.219
20
-84.35
11
286.281
21
-84.4119
0
LINE
8
BLACK
6
CONTINUOUS
10
286.281
20
-84.4119
11
286.343
21
-84.5357
0
LINE
8
BLACK
6
CONTINUOUS
10
286.343
20
-84.5357
11
286.343
21
-84.6595
0
LINE
8
BLACK
6
CONTINUOUS
10
286.343
20
-84.6595
11
286.281
21
-84.7833
0
LINE
8
BLACK
6
CONTINUOUS
10
286.281
20
-84.7833
11
286.219
21
-84.8452
0
LINE
8
BLACK
6
CONTINUOUS
10
286.219
20
-84.8452
11
286.095
21
-84.9071
0
LINE
8
BLACK
6
CONTINUOUS
10
286.095
20
-84.9071
11
285.662
21
-84.9071
0
LINE
8
BLACK
6
CONTINUOUS
10
286.405
20
-135.464
11
286.343
21
-135.526
0
LINE
8
BLACK
6
CONTINUOUS
10
286.343
20
-135.526
11
286.157
21
-135.588
0
LINE
8
BLACK
6
CONTINUOUS
10
286.157
20
-135.588
11
286.033
21
-135.588
0
LINE
8
BLACK
6
CONTINUOUS
10
286.033
20
-135.588
11
285.847
21
-135.526
0
LINE
8
BLACK
6
CONTINUOUS
10
285.847
20
-135.526
11
285.724
21
-135.402
0
LINE
8
BLACK
6
CONTINUOUS
10
285.724
20
-135.402
11
285.662
21
-135.279
0
LINE
8
BLACK
6
CONTINUOUS
10
285.662
20
-135.279
11
285.6
21
-135.031
0
LINE
8
BLACK
6
CONTINUOUS
10
285.6
20
-135.031
11
285.6
21
-134.845
0
LINE
8
BLACK
6
CONTINUOUS
10
285.6
20
-134.845
11
285.662
21
-134.598
0
LINE
8
BLACK
6
CONTINUOUS
10
285.662
20
-134.598
11
285.724
21
-134.474
0
LINE
8
BLACK
6
CONTINUOUS
10
285.724
20
-134.474
11
285.847
21
-134.35
0
LINE
8
BLACK
6
CONTINUOUS
10
285.847
20
-134.35
11
286.033
21
-134.288
0
LINE
8
BLACK
6
CONTINUOUS
10
286.033
20
-134.288
11
286.157
21
-134.288
0
LINE
8
BLACK
6
CONTINUOUS
10
286.157
20
-134.288
11
286.343
21
-134.35
0
LINE
8
BLACK
6
CONTINUOUS
10
286.343
20
-134.35
11
286.405
21
-134.412
0
LINE
8
BLACK
6
CONTINUOUS
10
285.662
20
-185.588
11
285.662
21
-184.288
0
LINE
8
BLACK
6
CONTINUOUS
10
285.662
20
-184.288
11
285.971
21
-184.288
0
LINE
8
BLACK
6
CONTINUOUS
10
285.971
20
-184.288
11
286.157
21
-184.35
0
LINE
8
BLACK
6
CONTINUOUS
10
286.157
20
-184.35
11
286.281
21
-184.474
0
LINE
8
BLACK
6
CONTINUOUS
10
286.281
20
-184.474
11
286.343
21
-184.598
0
LINE
8
BLACK
6
CONTINUOUS
10
286.343
20
-184.598
11
286.405
21
-184.845
0
LINE
8
BLACK
6
CONTINUOUS
10
286.405
20
-184.845
11
286.405
21
-185.031
0
LINE
8
BLACK
6
CONTINUOUS
10
286.405
20
-185.031
11
286.343
21
-185.279
0
LINE
8
BLACK
6
CONTINUOUS
10
286.343
20
-185.279
11
286.281
21
-185.402
0
LINE
8
BLACK
6
CONTINUOUS
10
286.281
20
-185.402
11
286.157
21
-185.526
0
LINE
8
BLACK
6
CONTINUOUS
10
286.157
20
-185.526
11
285.971
21
-185.588
0
LINE
8
BLACK
6
CONTINUOUS
10
285.971
20
-185.588
11
285.662
21
-185.588
0
LINE
8
BLACK
6
CONTINUOUS
10
200.434
20
-193.786
11
200.434
21
-192.286
0
LINE
8
BLACK
6
CONTINUOUS
10
200.434
20
-192.286
11
200.791
21
-192.286
0
LINE
8
BLACK
6
CONTINUOUS
10
200.791
20
-192.286
11
201.006
21
-192.357
0
LINE
8
BLACK
6
CONTINUOUS
10
201.006
20
-192.357
11
201.149
21
-192.5
0
LINE
8
BLACK
6
CONTINUOUS
10
201.149
20
-192.5
11
201.22
21
-192.643
0
LINE
8
BLACK
6
CONTINUOUS
10
201.22
20
-192.643
11
201.291
21
-192.929
0
LINE
8
BLACK
6
CONTINUOUS
10
201.291
20
-192.929
11
201.291
21
-193.143
0
LINE
8
BLACK
6
CONTINUOUS
10
201.291
20
-193.143
11
201.22
21
-193.429
0
LINE
8
BLACK
6
CONTINUOUS
10
201.22
20
-193.429
11
201.149
21
-193.571
0
LINE
8
BLACK
6
CONTINUOUS
10
201.149
20
-193.571
11
201.006
21
-193.714
0
LINE
8
BLACK
6
CONTINUOUS
10
201.006
20
-193.714
11
200.791
21
-193.786
0
LINE
8
BLACK
6
CONTINUOUS
10
200.791
20
-193.786
11
200.434
21
-193.786
0
LINE
8
BLACK
6
CONTINUOUS
10
202.577
20
-193.786
11
202.577
21
-193
0
LINE
8
BLACK
6
CONTINUOUS
10
202.577
20
-193
11
202.506
21
-192.857
0
LINE
8
BLACK
6
CONTINUOUS
10
202.506
20
-192.857
11
202.363
21
-192.786
0
LINE
8
BLACK
6
CONTINUOUS
10
202.363
20
-192.786
11
202.077
21
-192.786
0
LINE
8
BLACK
6
CONTINUOUS
10
202.077
20
-192.786
11
201.934
21
-192.857
0
LINE
8
BLACK
6
CONTINUOUS
10
202.577
20
-193.714
11
202.434
21
-193.786
0
LINE
8
BLACK
6
CONTINUOUS
10
202.434
20
-193.786
11
202.077
21
-193.786
0
LINE
8
BLACK
6
CONTINUOUS
10
202.077
20
-193.786
11
201.934
21
-193.714
0
LINE
8
BLACK
6
CONTINUOUS
10
201.934
20
-193.714
11
201.863
21
-193.571
0
LINE
8
BLACK
6
CONTINUOUS
10
201.863
20
-193.571
11
201.863
21
-193.429
0
LINE
8
BLACK
6
CONTINUOUS
10
201.863
20
-193.429
11
201.934
21
-193.286
0
LINE
8
BLACK
6
CONTINUOUS
10
201.934
20
-193.286
11
202.077
21
-193.214
0
LINE
8
BLACK
6
CONTINUOUS
10
202.077
20
-193.214
11
202.434
21
-193.214
0
LINE
8
BLACK
6
CONTINUOUS
10
202.434
20
-193.214
11
202.577
21
-193.143
0
LINE
8
BLACK
6
CONTINUOUS
10
203.077
20
-192.786
11
203.649
21
-192.786
0
LINE
8
BLACK
6
CONTINUOUS
10
203.291
20
-192.286
11
203.291
21
-193.571
0
LINE
8
BLACK
6
CONTINUOUS
10
203.291
20
-193.571
11
203.363
21
-193.714
0
LINE
8
BLACK
6
CONTINUOUS
10
203.363
20
-193.714
11
203.506
21
-193.786
0
LINE
8
BLACK
6
CONTINUOUS
10
203.506
20
-193.786
11
203.649
21
-193.786
0
LINE
8
BLACK
6
CONTINUOUS
10
204.72
20
-193.714
11
204.577
21
-193.786
0
LINE
8
BLACK
6
CONTINUOUS
10
204.577
20
-193.786
11
204.291
21
-193.786
0
LINE
8
BLACK
6
CONTINUOUS
10
204.291
20
-193.786
11
204.149
21
-193.714
0
LINE
8
BLACK
6
CONTINUOUS
10
204.149
20
-193.714
11
204.077
21
-193.571
0
LINE
8
BLACK
6
CONTINUOUS
10
204.077
20
-193.571
11
204.077
21
-193
0
LINE
8
BLACK
6
CONTINUOUS
10
204.077
20
-193
11
204.149
21
-192.857
0
LINE
8
BLACK
6
CONTINUOUS
10
204.149
20
-192.857
11
204.291
21
-192.786
0
LINE
8
BLACK
6
CONTINUOUS
10
204.291
20
-192.786
11
204.577
21
-192.786
0
LINE
8
BLACK
6
CONTINUOUS
10
204.577
20
-192.786
11
204.72
21
-192.857
0
LINE
8
BLACK
6
CONTINUOUS
10
204.72
20
-192.857
11
204.791
21
-193
0
LINE
8
BLACK
6
CONTINUOUS
10
204.791
20
-193
11
204.791
21
-193.143
0
LINE
8
BLACK
6
CONTINUOUS
10
204.791
20
-193.143
11
204.077
21
-193.286
0
LINE
8
BLACK
6
CONTINUOUS
10
205.434
20
-193.643
11
205.506
21
-193.714
0
LINE
8
BLACK
6
CONTINUOUS
10
205.506
20
-193.714
11
205.434
21
-193.786
0
LINE
8
BLACK
6
CONTINUOUS
10
205.434
20
-193.786
11
205.363
21
-193.714
0
LINE
8
BLACK
6
CONTINUOUS
10
205.363
20
-193.714
11
205.434
21
-193.643
0
LINE
8
BLACK
6
CONTINUOUS
10
205.434
20
-193.643
11
205.434
21
-193.786
0
LINE
8
BLACK
6
CONTINUOUS
10
205.434
20
-192.857
11
205.506
21
-192.929
0
LINE
8
BLACK
6
CONTINUOUS
10
205.506
20
-192.929
11
205.434
21
-193
0
LINE
8
BLACK
6
CONTINUOUS
10
205.434
20
-193
11
205.363
21
-192.929
0
LINE
8
BLACK
6
CONTINUOUS
10
205.363
20
-192.929
11
205.434
21
-192.857
0
LINE
8
BLACK
6
CONTINUOUS
10
205.434
20
-192.857
11
205.434
21
-193
0
LINE
8
BLACK
6
CONTINUOUS
10
177.002
20
-194.507
11
285.002
21
-194.507
0
LINE
8
BLACK
6
CONTINUOUS
10
178.434
20
-196.586
11
178.434
21
-195.086
0
LINE
8
BLACK
6
CONTINUOUS
10
179.291
20
-196.586
11
178.649
21
-195.729
0
LINE
8
BLACK
6
CONTINUOUS
10
179.291
20
-195.086
11
178.434
21
-195.943
0
LINE
8
BLACK
6
CONTINUOUS
10
179.934
20
-196.586
11
179.934
21
-195.586
0
LINE
8
BLACK
6
CONTINUOUS
10
179.934
20
-195.086
11
179.863
21
-195.157
0
LINE
8
BLACK
6
CONTINUOUS
10
179.863
20
-195.157
11
179.934
21
-195.229
0
LINE
8
BLACK
6
CONTINUOUS
10
179.934
20
-195.229
11
180.006
21
-195.157
0
LINE
8
BLACK
6
CONTINUOUS
10
180.006
20
-195.157
11
179.934
21
-195.086
0
LINE
8
BLACK
6
CONTINUOUS
10
179.934
20
-195.086
11
179.934
21
-195.229
0
LINE
8
BLACK
6
CONTINUOUS
10
181.506
20
-196.443
11
181.434
21
-196.514
0
LINE
8
BLACK
6
CONTINUOUS
10
181.434
20
-196.514
11
181.22
21
-196.586
0
LINE
8
BLACK
6
CONTINUOUS
10
181.22
20
-196.586
11
181.077
21
-196.586
0
LINE
8
BLACK
6
CONTINUOUS
10
181.077
20
-196.586
11
180.863
21
-196.514
0
LINE
8
BLACK
6
CONTINUOUS
10
180.863
20
-196.514
11
180.72
21
-196.371
0
LINE
8
BLACK
6
CONTINUOUS
10
180.72
20
-196.371
11
180.649
21
-196.229
0
LINE
8
BLACK
6
CONTINUOUS
10
180.649
20
-196.229
11
180.577
21
-195.943
0
LINE
8
BLACK
6
CONTINUOUS
10
180.577
20
-195.943
11
180.577
21
-195.729
0
LINE
8
BLACK
6
CONTINUOUS
10
180.577
20
-195.729
11
180.649
21
-195.443
0
LINE
8
BLACK
6
CONTINUOUS
10
180.649
20
-195.443
11
180.72
21
-195.3
0
LINE
8
BLACK
6
CONTINUOUS
10
180.72
20
-195.3
11
180.863
21
-195.157
0
LINE
8
BLACK
6
CONTINUOUS
10
180.863
20
-195.157
11
181.077
21
-195.086
0
LINE
8
BLACK
6
CONTINUOUS
10
181.077
20
-195.086
11
181.22
21
-195.086
0
LINE
8
BLACK
6
CONTINUOUS
10
181.22
20
-195.086
11
181.434
21
-195.157
0
LINE
8
BLACK
6
CONTINUOUS
10
181.434
20
-195.157
11
181.506
21
-195.229
0
LINE
8
BLACK
6
CONTINUOUS
10
182.791
20
-196.586
11
182.791
21
-195.8
0
LINE
8
BLACK
6
CONTINUOUS
10
182.791
20
-195.8
11
182.72
21
-195.657
0
LINE
8
BLACK
6
CONTINUOUS
10
182.72
20
-195.657
11
182.577
21
-195.586
0
LINE
8
BLACK
6
CONTINUOUS
10
182.577
20
-195.586
11
182.291
21
-195.586
0
LINE
8
BLACK
6
CONTINUOUS
10
182.291
20
-195.586
11
182.149
21
-195.657
0
LINE
8
BLACK
6
CONTINUOUS
10
182.791
20
-196.514
11
182.649
21
-196.586
0
LINE
8
BLACK
6
CONTINUOUS
10
182.649
20
-196.586
11
182.291
21
-196.586
0
LINE
8
BLACK
6
CONTINUOUS
10
182.291
20
-196.586
11
182.149
21
-196.514
0
LINE
8
BLACK
6
CONTINUOUS
10
182.149
20
-196.514
11
182.077
21
-196.371
0
LINE
8
BLACK
6
CONTINUOUS
10
182.077
20
-196.371
11
182.077
21
-196.229
0
LINE
8
BLACK
6
CONTINUOUS
10
182.077
20
-196.229
11
182.149
21
-196.086
0
LINE
8
BLACK
6
CONTINUOUS
10
182.149
20
-196.086
11
182.291
21
-196.014
0
LINE
8
BLACK
6
CONTINUOUS
10
182.291
20
-196.014
11
182.649
21
-196.014
0
LINE
8
BLACK
6
CONTINUOUS
10
182.649
20
-196.014
11
182.791
21
-195.943
0
LINE
8
BLACK
6
CONTINUOUS
10
184.149
20
-196.586
11
184.149
21
-195.086
0
LINE
8
BLACK
6
CONTINUOUS
10
184.149
20
-196.514
11
184.006
21
-196.586
0
LINE
8
BLACK
6
CONTINUOUS
10
184.006
20
-196.586
11
183.72
21
-196.586
0
LINE
8
BLACK
6
CONTINUOUS
10
183.72
20
-196.586
11
183.577
21
-196.514
0
LINE
8
BLACK
6
CONTINUOUS
10
183.577
20
-196.514
11
183.506
21
-196.443
0
LINE
8
BLACK
6
CONTINUOUS
10
183.506
20
-196.443
11
183.434
21
-196.3
0
LINE
8
BLACK
6
CONTINUOUS
10
183.434
20
-196.3
11
183.434
21
-195.871
0
LINE
8
BLACK
6
CONTINUOUS
10
183.434
20
-195.871
11
183.506
21
-195.729
0
LINE
8
BLACK
6
CONTINUOUS
10
183.506
20
-195.729
11
183.577
21
-195.657
0
LINE
8
BLACK
6
CONTINUOUS
10
183.577
20
-195.657
11
183.72
21
-195.586
0
LINE
8
BLACK
6
CONTINUOUS
10
183.72
20
-195.586
11
184.006
21
-195.586
0
LINE
8
BLACK
6
CONTINUOUS
10
184.006
20
-195.586
11
184.149
21
-195.657
0
LINE
8
BLACK
6
CONTINUOUS
10
186.006
20
-195.8
11
186.506
21
-195.8
0
LINE
8
BLACK
6
CONTINUOUS
10
186.72
20
-196.586
11
186.006
21
-196.586
0
LINE
8
BLACK
6
CONTINUOUS
10
186.006
20
-196.586
11
186.006
21
-195.086
0
LINE
8
BLACK
6
CONTINUOUS
10
186.006
20
-195.086
11
186.72
21
-195.086
0
LINE
8
BLACK
6
CONTINUOUS
10
187.363
20
-196.443
11
187.434
21
-196.514
0
LINE
8
BLACK
6
CONTINUOUS
10
187.434
20
-196.514
11
187.363
21
-196.586
0
LINE
8
BLACK
6
CONTINUOUS
10
187.363
20
-196.586
11
187.291
21
-196.514
0
LINE
8
BLACK
6
CONTINUOUS
10
187.291
20
-196.514
11
187.363
21
-196.443
0
LINE
8
BLACK
6
CONTINUOUS
10
187.363
20
-196.443
11
187.363
21
-196.586
0
LINE
8
BLACK
6
CONTINUOUS
10
188.077
20
-196.586
11
188.077
21
-195.086
0
LINE
8
BLACK
6
CONTINUOUS
10
188.077
20
-195.086
11
188.434
21
-195.086
0
LINE
8
BLACK
6
CONTINUOUS
10
188.434
20
-195.086
11
188.649
21
-195.157
0
LINE
8
BLACK
6
CONTINUOUS
10
188.649
20
-195.157
11
188.791
21
-195.3
0
LINE
8
BLACK
6
CONTINUOUS
10
188.791
20
-195.3
11
188.863
21
-195.443
0
LINE
8
BLACK
6
CONTINUOUS
10
188.863
20
-195.443
11
188.934
21
-195.729
0
LINE
8
BLACK
6
CONTINUOUS
10
188.934
20
-195.729
11
188.934
21
-195.943
0
LINE
8
BLACK
6
CONTINUOUS
10
188.934
20
-195.943
11
188.863
21
-196.229
0
LINE
8
BLACK
6
CONTINUOUS
10
188.863
20
-196.229
11
188.791
21
-196.371
0
LINE
8
BLACK
6
CONTINUOUS
10
188.791
20
-196.371
11
188.649
21
-196.514
0
LINE
8
BLACK
6
CONTINUOUS
10
188.649
20
-196.514
11
188.434
21
-196.586
0
LINE
8
BLACK
6
CONTINUOUS
10
188.434
20
-196.586
11
188.077
21
-196.586
0
LINE
8
BLACK
6
CONTINUOUS
10
189.577
20
-196.443
11
189.649
21
-196.514
0
LINE
8
BLACK
6
CONTINUOUS
10
189.649
20
-196.514
11
189.577
21
-196.586
0
LINE
8
BLACK
6
CONTINUOUS
10
189.577
20
-196.586
11
189.506
21
-196.514
0
LINE
8
BLACK
6
CONTINUOUS
10
189.506
20
-196.514
11
189.577
21
-196.443
0
LINE
8
BLACK
6
CONTINUOUS
10
189.577
20
-196.443
11
189.577
21
-196.586
0
LINE
8
BLACK
6
CONTINUOUS
10
190.22
20
-196.157
11
190.934
21
-196.157
0
LINE
8
BLACK
6
CONTINUOUS
10
190.077
20
-196.586
11
190.577
21
-195.086
0
LINE
8
BLACK
6
CONTINUOUS
10
190.577
20
-195.086
11
191.077
21
-196.586
0
LINE
8
BLACK
6
CONTINUOUS
10
191.577
20
-196.443
11
191.649
21
-196.514
0
LINE
8
BLACK
6
CONTINUOUS
10
191.649
20
-196.514
11
191.577
21
-196.586
0
LINE
8
BLACK
6
CONTINUOUS
10
191.577
20
-196.586
11
191.506
21
-196.514
0
LINE
8
BLACK
6
CONTINUOUS
10
191.506
20
-196.514
11
191.577
21
-196.443
0
LINE
8
BLACK
6
CONTINUOUS
10
191.577
20
-196.443
11
191.577
21
-196.586
0
LINE
8
BLACK
6
CONTINUOUS
10
194.577
20
-196.586
11
194.577
21
-195.086
0
LINE
8
BLACK
6
CONTINUOUS
10
194.72
20
-196.014
11
195.149
21
-196.586
0
LINE
8
BLACK
6
CONTINUOUS
10
195.149
20
-195.586
11
194.577
21
-196.157
0
LINE
8
BLACK
6
CONTINUOUS
10
195.791
20
-196.586
11
195.791
21
-195.586
0
LINE
8
BLACK
6
CONTINUOUS
10
195.791
20
-195.086
11
195.72
21
-195.157
0
LINE
8
BLACK
6
CONTINUOUS
10
195.72
20
-195.157
11
195.791
21
-195.229
0
LINE
8
BLACK
6
CONTINUOUS
10
195.791
20
-195.229
11
195.863
21
-195.157
0
LINE
8
BLACK
6
CONTINUOUS
10
195.863
20
-195.157
11
195.791
21
-195.086
0
LINE
8
BLACK
6
CONTINUOUS
10
195.791
20
-195.086
11
195.791
21
-195.229
0
LINE
8
BLACK
6
CONTINUOUS
10
197.149
20
-196.514
11
197.006
21
-196.586
0
LINE
8
BLACK
6
CONTINUOUS
10
197.006
20
-196.586
11
196.72
21
-196.586
0
LINE
8
BLACK
6
CONTINUOUS
10
196.72
20
-196.586
11
196.577
21
-196.514
0
LINE
8
BLACK
6
CONTINUOUS
10
196.577
20
-196.514
11
196.506
21
-196.443
0
LINE
8
BLACK
6
CONTINUOUS
10
196.506
20
-196.443
11
196.434
21
-196.3
0
LINE
8
BLACK
6
CONTINUOUS
10
196.434
20
-196.3
11
196.434
21
-195.871
0
LINE
8
BLACK
6
CONTINUOUS
10
196.434
20
-195.871
11
196.506
21
-195.729
0
LINE
8
BLACK
6
CONTINUOUS
10
196.506
20
-195.729
11
196.577
21
-195.657
0
LINE
8
BLACK
6
CONTINUOUS
10
196.577
20
-195.657
11
196.72
21
-195.586
0
LINE
8
BLACK
6
CONTINUOUS
10
196.72
20
-195.586
11
197.006
21
-195.586
0
LINE
8
BLACK
6
CONTINUOUS
10
197.006
20
-195.586
11
197.149
21
-195.657
0
LINE
8
BLACK
6
CONTINUOUS
10
198.434
20
-196.586
11
198.434
21
-195.8
0
LINE
8
BLACK
6
CONTINUOUS
10
198.434
20
-195.8
11
198.363
21
-195.657
0
LINE
8
BLACK
6
CONTINUOUS
10
198.363
20
-195.657
11
198.22
21
-195.586
0
LINE
8
BLACK
6
CONTINUOUS
10
198.22
20
-195.586
11
197.934
21
-195.586
0
LINE
8
BLACK
6
CONTINUOUS
10
197.934
20
-195.586
11
197.791
21
-195.657
0
LINE
8
BLACK
6
CONTINUOUS
10
198.434
20
-196.514
11
198.291
21
-196.586
0
LINE
8
BLACK
6
CONTINUOUS
10
198.291
20
-196.586
11
197.934
21
-196.586
0
LINE
8
BLACK
6
CONTINUOUS
10
197.934
20
-196.586
11
197.791
21
-196.514
0
LINE
8
BLACK
6
CONTINUOUS
10
197.791
20
-196.514
11
197.72
21
-196.371
0
LINE
8
BLACK
6
CONTINUOUS
10
197.72
20
-196.371
11
197.72
21
-196.229
0
LINE
8
BLACK
6
CONTINUOUS
10
197.72
20
-196.229
11
197.791
21
-196.086
0
LINE
8
BLACK
6
CONTINUOUS
10
197.791
20
-196.086
11
197.934
21
-196.014
0
LINE
8
BLACK
6
CONTINUOUS
10
197.934
20
-196.014
11
198.291
21
-196.014
0
LINE
8
BLACK
6
CONTINUOUS
10
198.291
20
-196.014
11
198.434
21
-195.943
0
LINE
8
BLACK
6
CONTINUOUS
10
199.791
20
-196.586
11
199.791
21
-195.086
0
LINE
8
BLACK
6
CONTINUOUS
10
199.791
20
-196.514
11
199.649
21
-196.586
0
LINE
8
BLACK
6
CONTINUOUS
10
199.649
20
-196.586
11
199.363
21
-196.586
0
LINE
8
BLACK
6
CONTINUOUS
10
199.363
20
-196.586
11
199.22
21
-196.514
0
LINE
8
BLACK
6
CONTINUOUS
10
199.22
20
-196.514
11
199.149
21
-196.443
0
LINE
8
BLACK
6
CONTINUOUS
10
199.149
20
-196.443
11
199.077
21
-196.3
0
LINE
8
BLACK
6
CONTINUOUS
10
199.077
20
-196.3
11
199.077
21
-195.871
0
LINE
8
BLACK
6
CONTINUOUS
10
199.077
20
-195.871
11
199.149
21
-195.729
0
LINE
8
BLACK
6
CONTINUOUS
10
199.149
20
-195.729
11
199.22
21
-195.657
0
LINE
8
BLACK
6
CONTINUOUS
10
199.22
20
-195.657
11
199.363
21
-195.586
0
LINE
8
BLACK
6
CONTINUOUS
10
199.363
20
-195.586
11
199.649
21
-195.586
0
LINE
8
BLACK
6
CONTINUOUS
10
199.649
20
-195.586
11
199.791
21
-195.657
0
LINE
8
BLACK
6
CONTINUOUS
10
202.077
20
-197.157
11
202.006
21
-197.086
0
LINE
8
BLACK
6
CONTINUOUS
10
202.006
20
-197.086
11
201.863
21
-196.871
0
LINE
8
BLACK
6
CONTINUOUS
10
201.863
20
-196.871
11
201.791
21
-196.729
0
LINE
8
BLACK
6
CONTINUOUS
10
201.791
20
-196.729
11
201.72
21
-196.514
0
LINE
8
BLACK
6
CONTINUOUS
10
201.72
20
-196.514
11
201.649
21
-196.157
0
LINE
8
BLACK
6
CONTINUOUS
10
201.649
20
-196.157
11
201.649
21
-195.871
0
LINE
8
BLACK
6
CONTINUOUS
10
201.649
20
-195.871
11
201.72
21
-195.514
0
LINE
8
BLACK
6
CONTINUOUS
10
201.72
20
-195.514
11
201.791
21
-195.3
0
LINE
8
BLACK
6
CONTINUOUS
10
201.791
20
-195.3
11
201.863
21
-195.157
0
LINE
8
BLACK
6
CONTINUOUS
10
201.863
20
-195.157
11
202.006
21
-194.943
0
LINE
8
BLACK
6
CONTINUOUS
10
202.006
20
-194.943
11
202.077
21
-194.871
0
LINE
8
BLACK
6
CONTINUOUS
10
203.363
20
-195.086
11
202.649
21
-195.086
0
LINE
8
BLACK
6
CONTINUOUS
10
202.649
20
-195.086
11
202.577
21
-195.8
0
LINE
8
BLACK
6
CONTINUOUS
10
202.577
20
-195.8
11
202.649
21
-195.729
0
LINE
8
BLACK
6
CONTINUOUS
10
202.649
20
-195.729
11
202.791
21
-195.657
0
LINE
8
BLACK
6
CONTINUOUS
10
202.791
20
-195.657
11
203.149
21
-195.657
0
LINE
8
BLACK
6
CONTINUOUS
10
203.149
20
-195.657
11
203.291
21
-195.729
0
LINE
8
BLACK
6
CONTINUOUS
10
203.291
20
-195.729
11
203.363
21
-195.8
0
LINE
8
BLACK
6
CONTINUOUS
10
203.363
20
-195.8
11
203.434
21
-195.943
0
LINE
8
BLACK
6
CONTINUOUS
10
203.434
20
-195.943
11
203.434
21
-196.3
0
LINE
8
BLACK
6
CONTINUOUS
10
203.434
20
-196.3
11
203.363
21
-196.443
0
LINE
8
BLACK
6
CONTINUOUS
10
203.363
20
-196.443
11
203.291
21
-196.514
0
LINE
8
BLACK
6
CONTINUOUS
10
203.291
20
-196.514
11
203.149
21
-196.586
0
LINE
8
BLACK
6
CONTINUOUS
10
203.149
20
-196.586
11
202.791
21
-196.586
0
LINE
8
BLACK
6
CONTINUOUS
10
202.791
20
-196.586
11
202.649
21
-196.514
0
LINE
8
BLACK
6
CONTINUOUS
10
202.649
20
-196.514
11
202.577
21
-196.443
0
LINE
8
BLACK
6
CONTINUOUS
10
204.077
20
-196.443
11
204.149
21
-196.514
0
LINE
8
BLACK
6
CONTINUOUS
10
204.149
20
-196.514
11
204.077
21
-196.586
0
LINE
8
BLACK
6
CONTINUOUS
10
204.077
20
-196.586
11
204.006
21
-196.514
0
LINE
8
BLACK
6
CONTINUOUS
10
204.006
20
-196.514
11
204.077
21
-196.443
0
LINE
8
BLACK
6
CONTINUOUS
10
204.077
20
-196.443
11
204.077
21
-196.586
0
LINE
8
BLACK
6
CONTINUOUS
10
205.077
20
-195.086
11
205.22
21
-195.086
0
LINE
8
BLACK
6
CONTINUOUS
10
205.22
20
-195.086
11
205.363
21
-195.157
0
LINE
8
BLACK
6
CONTINUOUS
10
205.363
20
-195.157
11
205.434
21
-195.229
0
LINE
8
BLACK
6
CONTINUOUS
10
205.434
20
-195.229
11
205.506
21
-195.371
0
LINE
8
BLACK
6
CONTINUOUS
10
205.506
20
-195.371
11
205.577
21
-195.657
0
LINE
8
BLACK
6
CONTINUOUS
10
205.577
20
-195.657
11
205.577
21
-196.014
0
LINE
8
BLACK
6
CONTINUOUS
10
205.577
20
-196.014
11
205.506
21
-196.3
0
LINE
8
BLACK
6
CONTINUOUS
10
205.506
20
-196.3
11
205.434
21
-196.443
0
LINE
8
BLACK
6
CONTINUOUS
10
205.434
20
-196.443
11
205.363
21
-196.514
0
LINE
8
BLACK
6
CONTINUOUS
10
205.363
20
-196.514
11
205.22
21
-196.586
0
LINE
8
BLACK
6
CONTINUOUS
10
205.22
20
-196.586
11
205.077
21
-196.586
0
LINE
8
BLACK
6
CONTINUOUS
10
205.077
20
-196.586
11
204.934
21
-196.514
0
LINE
8
BLACK
6
CONTINUOUS
10
204.934
20
-196.514
11
204.863
21
-196.443
0
LINE
8
BLACK
6
CONTINUOUS
10
204.863
20
-196.443
11
204.791
21
-196.3
0
LINE
8
BLACK
6
CONTINUOUS
10
204.791
20
-196.3
11
204.72
21
-196.014
0
LINE
8
BLACK
6
CONTINUOUS
10
204.72
20
-196.014
11
204.72
21
-195.657
0
LINE
8
BLACK
6
CONTINUOUS
10
204.72
20
-195.657
11
204.791
21
-195.371
0
LINE
8
BLACK
6
CONTINUOUS
10
204.791
20
-195.371
11
204.863
21
-195.229
0
LINE
8
BLACK
6
CONTINUOUS
10
204.863
20
-195.229
11
204.934
21
-195.157
0
LINE
8
BLACK
6
CONTINUOUS
10
204.934
20
-195.157
11
205.077
21
-195.086
0
LINE
8
BLACK
6
CONTINUOUS
10
206.22
20
-196.443
11
206.291
21
-196.514
0
LINE
8
BLACK
6
CONTINUOUS
10
206.291
20
-196.514
11
206.22
21
-196.586
0
LINE
8
BLACK
6
CONTINUOUS
10
206.22
20
-196.586
11
206.149
21
-196.514
0
LINE
8
BLACK
6
CONTINUOUS
10
206.149
20
-196.514
11
206.22
21
-196.443
0
LINE
8
BLACK
6
CONTINUOUS
10
206.22
20
-196.443
11
206.22
21
-196.586
0
LINE
8
BLACK
6
CONTINUOUS
10
206.863
20
-195.229
11
206.934
21
-195.157
0
LINE
8
BLACK
6
CONTINUOUS
10
206.934
20
-195.157
11
207.077
21
-195.086
0
LINE
8
BLACK
6
CONTINUOUS
10
207.077
20
-195.086
11
207.434
21
-195.086
0
LINE
8
BLACK
6
CONTINUOUS
10
207.434
20
-195.086
11
207.577
21
-195.157
0
LINE
8
BLACK
6
CONTINUOUS
10
207.577
20
-195.157
11
207.649
21
-195.229
0
LINE
8
BLACK
6
CONTINUOUS
10
207.649
20
-195.229
11
207.72
21
-195.371
0
LINE
8
BLACK
6
CONTINUOUS
10
207.72
20
-195.371
11
207.72
21
-195.514
0
LINE
8
BLACK
6
CONTINUOUS
10
207.72
20
-195.514
11
207.649
21
-195.729
0
LINE
8
BLACK
6
CONTINUOUS
10
207.649
20
-195.729
11
206.791
21
-196.586
0
LINE
8
BLACK
6
CONTINUOUS
10
206.791
20
-196.586
11
207.72
21
-196.586
0
LINE
8
BLACK
6
CONTINUOUS
10
208.22
20
-197.157
11
208.291
21
-197.086
0
LINE
8
BLACK
6
CONTINUOUS
10
208.291
20
-197.086
11
208.434
21
-196.871
0
LINE
8
BLACK
6
CONTINUOUS
10
208.434
20
-196.871
11
208.506
21
-196.729
0
LINE
8
BLACK
6
CONTINUOUS
10
208.506
20
-196.729
11
208.577
21
-196.514
0
LINE
8
BLACK
6
CONTINUOUS
10
208.577
20
-196.514
11
208.649
21
-196.157
0
LINE
8
BLACK
6
CONTINUOUS
10
208.649
20
-196.157
11
208.649
21
-195.871
0
LINE
8
BLACK
6
CONTINUOUS
10
208.649
20
-195.871
11
208.577
21
-195.514
0
LINE
8
BLACK
6
CONTINUOUS
10
208.577
20
-195.514
11
208.506
21
-195.3
0
LINE
8
BLACK
6
CONTINUOUS
10
208.506
20
-195.3
11
208.434
21
-195.157
0
LINE
8
BLACK
6
CONTINUOUS
10
208.434
20
-195.157
11
208.291
21
-194.943
0
LINE
8
BLACK
6
CONTINUOUS
10
208.291
20
-194.943
11
208.22
21
-194.871
0
LINE
8
BLACK
6
CONTINUOUS
10
209.363
20
-196.014
11
210.506
21
-196.014
0
LINE
8
BLACK
6
CONTINUOUS
10
212.006
20
-196.586
11
211.149
21
-196.586
0
LINE
8
BLACK
6
CONTINUOUS
10
211.577
20
-196.586
11
211.577
21
-195.086
0
LINE
8
BLACK
6
CONTINUOUS
10
211.577
20
-195.086
11
211.434
21
-195.3
0
LINE
8
BLACK
6
CONTINUOUS
10
211.434
20
-195.3
11
211.291
21
-195.443
0
LINE
8
BLACK
6
CONTINUOUS
10
211.291
20
-195.443
11
211.149
21
-195.514
0
LINE
8
BLACK
6
CONTINUOUS
10
177.002
20
-191.507
11
285.002
21
-191.507
0
LINE
8
BLACK
6
CONTINUOUS
10
264.411
20
-193.786
11
263.911
21
-193.071
0
LINE
8
BLACK
6
CONTINUOUS
10
263.554
20
-193.786
11
263.554
21
-192.286
0
LINE
8
BLACK
6
CONTINUOUS
10
263.554
20
-192.286
11
264.126
21
-192.286
0
LINE
8
BLACK
6
CONTINUOUS
10
264.126
20
-192.286
11
264.269
21
-192.357
0
LINE
8
BLACK
6
CONTINUOUS
10
264.269
20
-192.357
11
264.34
21
-192.429
0
LINE
8
BLACK
6
CONTINUOUS
10
264.34
20
-192.429
11
264.411
21
-192.571
0
LINE
8
BLACK
6
CONTINUOUS
10
264.411
20
-192.571
11
264.411
21
-192.786
0
LINE
8
BLACK
6
CONTINUOUS
10
264.411
20
-192.786
11
264.34
21
-192.929
0
LINE
8
BLACK
6
CONTINUOUS
10
264.34
20
-192.929
11
264.269
21
-193
0
LINE
8
BLACK
6
CONTINUOUS
10
264.269
20
-193
11
264.126
21
-193.071
0
LINE
8
BLACK
6
CONTINUOUS
10
264.126
20
-193.071
11
263.554
21
-193.071
0
LINE
8
BLACK
6
CONTINUOUS
10
265.626
20
-193.714
11
265.483
21
-193.786
0
LINE
8
BLACK
6
CONTINUOUS
10
265.483
20
-193.786
11
265.197
21
-193.786
0
LINE
8
BLACK
6
CONTINUOUS
10
265.197
20
-193.786
11
265.054
21
-193.714
0
LINE
8
BLACK
6
CONTINUOUS
10
265.054
20
-193.714
11
264.983
21
-193.571
0
LINE
8
BLACK
6
CONTINUOUS
10
264.983
20
-193.571
11
264.983
21
-193
0
LINE
8
BLACK
6
CONTINUOUS
10
264.983
20
-193
11
265.054
21
-192.857
0
LINE
8
BLACK
6
CONTINUOUS
10
265.054
20
-192.857
11
265.197
21
-192.786
0
LINE
8
BLACK
6
CONTINUOUS
10
265.197
20
-192.786
11
265.483
21
-192.786
0
LINE
8
BLACK
6
CONTINUOUS
10
265.483
20
-192.786
11
265.626
21
-192.857
0
LINE
8
BLACK
6
CONTINUOUS
10
265.626
20
-192.857
11
265.697
21
-193
0
LINE
8
BLACK
6
CONTINUOUS
10
265.697
20
-193
11
265.697
21
-193.143
0
LINE
8
BLACK
6
CONTINUOUS
10
265.697
20
-193.143
11
264.983
21
-193.286
0
LINE
8
BLACK
6
CONTINUOUS
10
266.197
20
-192.786
11
266.554
21
-193.786
0
LINE
8
BLACK
6
CONTINUOUS
10
266.554
20
-193.786
11
266.911
21
-192.786
0
LINE
8
BLACK
6
CONTINUOUS
10
267.483
20
-193.643
11
267.554
21
-193.714
0
LINE
8
BLACK
6
CONTINUOUS
10
267.554
20
-193.714
11
267.483
21
-193.786
0
LINE
8
BLACK
6
CONTINUOUS
10
267.483
20
-193.786
11
267.411
21
-193.714
0
LINE
8
BLACK
6
CONTINUOUS
10
267.411
20
-193.714
11
267.483
21
-193.643
0
LINE
8
BLACK
6
CONTINUOUS
10
267.483
20
-193.643
11
267.483
21
-193.786
0
LINE
8
BLACK
6
CONTINUOUS
10
267.483
20
-192.857
11
267.554
21
-192.929
0
LINE
8
BLACK
6
CONTINUOUS
10
267.554
20
-192.929
11
267.483
21
-193
0
LINE
8
BLACK
6
CONTINUOUS
10
267.483
20
-193
11
267.411
21
-192.929
0
LINE
8
BLACK
6
CONTINUOUS
10
267.411
20
-192.929
11
267.483
21
-192.857
0
LINE
8
BLACK
6
CONTINUOUS
10
267.483
20
-192.857
11
267.483
21
-193
0
LINE
8
BLACK
6
CONTINUOUS
10
178.363
20
-193.714
11
178.577
21
-193.786
0
LINE
8
BLACK
6
CONTINUOUS
10
178.577
20
-193.786
11
178.934
21
-193.786
0
LINE
8
BLACK
6
CONTINUOUS
10
178.934
20
-193.786
11
179.077
21
-193.714
0
LINE
8
BLACK
6
CONTINUOUS
10
179.077
20
-193.714
11
179.149
21
-193.643
0
LINE
8
BLACK
6
CONTINUOUS
10
179.149
20
-193.643
11
179.22
21
-193.5
0
LINE
8
BLACK
6
CONTINUOUS
10
179.22
20
-193.5
11
179.22
21
-193.357
0
LINE
8
BLACK
6
CONTINUOUS
10
179.22
20
-193.357
11
179.149
21
-193.214
0
LINE
8
BLACK
6
CONTINUOUS
10
179.149
20
-193.214
11
179.077
21
-193.143
0
LINE
8
BLACK
6
CONTINUOUS
10
179.077
20
-193.143
11
178.934
21
-193.071
0
LINE
8
BLACK
6
CONTINUOUS
10
178.934
20
-193.071
11
178.649
21
-193
0
LINE
8
BLACK
6
CONTINUOUS
10
178.649
20
-193
11
178.506
21
-192.929
0
LINE
8
BLACK
6
CONTINUOUS
10
178.506
20
-192.929
11
178.434
21
-192.857
0
LINE
8
BLACK
6
CONTINUOUS
10
178.434
20
-192.857
11
178.363
21
-192.714
0
LINE
8
BLACK
6
CONTINUOUS
10
178.363
20
-192.714
11
178.363
21
-192.571
0
LINE
8
BLACK
6
CONTINUOUS
10
178.363
20
-192.571
11
178.434
21
-192.429
0
LINE
8
BLACK
6
CONTINUOUS
10
178.434
20
-192.429
11
178.506
21
-192.357
0
LINE
8
BLACK
6
CONTINUOUS
10
178.506
20
-192.357
11
178.649
21
-192.286
0
LINE
8
BLACK
6
CONTINUOUS
10
178.649
20
-192.286
11
179.006
21
-192.286
0
LINE
8
BLACK
6
CONTINUOUS
10
179.006
20
-192.286
11
179.22
21
-192.357
0
LINE
8
BLACK
6
CONTINUOUS
10
179.863
20
-193.786
11
179.863
21
-192.786
0
LINE
8
BLACK
6
CONTINUOUS
10
179.863
20
-192.286
11
179.791
21
-192.357
0
LINE
8
BLACK
6
CONTINUOUS
10
179.791
20
-192.357
11
179.863
21
-192.429
0
LINE
8
BLACK
6
CONTINUOUS
10
179.863
20
-192.429
11
179.934
21
-192.357
0
LINE
8
BLACK
6
CONTINUOUS
10
179.934
20
-192.357
11
179.863
21
-192.286
0
LINE
8
BLACK
6
CONTINUOUS
10
179.863
20
-192.286
11
179.863
21
-192.429
0
LINE
8
BLACK
6
CONTINUOUS
10
180.434
20
-192.786
11
181.22
21
-192.786
0
LINE
8
BLACK
6
CONTINUOUS
10
181.22
20
-192.786
11
180.434
21
-193.786
0
LINE
8
BLACK
6
CONTINUOUS
10
180.434
20
-193.786
11
181.22
21
-193.786
0
LINE
8
BLACK
6
CONTINUOUS
10
182.363
20
-193.714
11
182.22
21
-193.786
0
LINE
8
BLACK
6
CONTINUOUS
10
182.22
20
-193.786
11
181.934
21
-193.786
0
LINE
8
BLACK
6
CONTINUOUS
10
181.934
20
-193.786
11
181.791
21
-193.714
0
LINE
8
BLACK
6
CONTINUOUS
10
181.791
20
-193.714
11
181.72
21
-193.571
0
LINE
8
BLACK
6
CONTINUOUS
10
181.72
20
-193.571
11
181.72
21
-193
0
LINE
8
BLACK
6
CONTINUOUS
10
181.72
20
-193
11
181.791
21
-192.857
0
LINE
8
BLACK
6
CONTINUOUS
10
181.791
20
-192.857
11
181.934
21
-192.786
0
LINE
8
BLACK
6
CONTINUOUS
10
181.934
20
-192.786
11
182.22
21
-192.786
0
LINE
8
BLACK
6
CONTINUOUS
10
182.22
20
-192.786
11
182.363
21
-192.857
0
LINE
8
BLACK
6
CONTINUOUS
10
182.363
20
-192.857
11
182.434
21
-193
0
LINE
8
BLACK
6
CONTINUOUS
10
182.434
20
-193
11
182.434
21
-193.143
0
LINE
8
BLACK
6
CONTINUOUS
10
182.434
20
-193.143
11
181.72
21
-193.286
0
LINE
8
BLACK
6
CONTINUOUS
10
183.077
20
-193.643
11
183.149
21
-193.714
0
LINE
8
BLACK
6
CONTINUOUS
10
183.149
20
-193.714
11
183.077
21
-193.786
0
LINE
8
BLACK
6
CONTINUOUS
10
183.077
20
-193.786
11
183.006
21
-193.714
0
LINE
8
BLACK
6
CONTINUOUS
10
183.006
20
-193.714
11
183.077
21
-193.643
0
LINE
8
BLACK
6
CONTINUOUS
10
183.077
20
-193.643
11
183.077
21
-193.786
0
LINE
8
BLACK
6
CONTINUOUS
10
183.077
20
-192.857
11
183.149
21
-192.929
0
LINE
8
BLACK
6
CONTINUOUS
10
183.149
20
-192.929
11
183.077
21
-193
0
LINE
8
BLACK
6
CONTINUOUS
10
183.077
20
-193
11
183.006
21
-192.929
0
LINE
8
BLACK
6
CONTINUOUS
10
183.006
20
-192.929
11
183.077
21
-192.857
0
LINE
8
BLACK
6
CONTINUOUS
10
183.077
20
-192.857
11
183.077
21
-193
0
LINE
8
BLACK
6
CONTINUOUS
10
184.863
20
-193.357
11
185.577
21
-193.357
0
LINE
8
BLACK
6
CONTINUOUS
10
184.72
20
-193.786
11
185.22
21
-192.286
0
LINE
8
BLACK
6
CONTINUOUS
10
185.22
20
-192.286
11
185.72
21
-193.786
0
LINE
8
BLACK
6
CONTINUOUS
10
186.863
20
-192.786
11
186.863
21
-193.786
0
LINE
8
BLACK
6
CONTINUOUS
10
186.506
20
-192.214
11
186.149
21
-193.286
0
LINE
8
BLACK
6
CONTINUOUS
10
186.149
20
-193.286
11
187.077
21
-193.286
0
LINE
8
BLACK
6
CONTINUOUS
10
263.434
20
-196.586
11
263.434
21
-195.086
0
LINE
8
BLACK
6
CONTINUOUS
10
264.791
20
-196.586
11
264.791
21
-195.086
0
LINE
8
BLACK
6
CONTINUOUS
10
264.791
20
-196.514
11
264.649
21
-196.586
0
LINE
8
BLACK
6
CONTINUOUS
10
264.649
20
-196.586
11
264.363
21
-196.586
0
LINE
8
BLACK
6
CONTINUOUS
10
264.363
20
-196.586
11
264.22
21
-196.514
0
LINE
8
BLACK
6
CONTINUOUS
10
264.22
20
-196.514
11
264.149
21
-196.443
0
LINE
8
BLACK
6
CONTINUOUS
10
264.149
20
-196.443
11
264.077
21
-196.3
0
LINE
8
BLACK
6
CONTINUOUS
10
264.077
20
-196.3
11
264.077
21
-195.871
0
LINE
8
BLACK
6
CONTINUOUS
10
264.077
20
-195.871
11
264.149
21
-195.729
0
LINE
8
BLACK
6
CONTINUOUS
10
264.149
20
-195.729
11
264.22
21
-195.657
0
LINE
8
BLACK
6
CONTINUOUS
10
264.22
20
-195.657
11
264.363
21
-195.586
0
LINE
8
BLACK
6
CONTINUOUS
10
264.363
20
-195.586
11
264.649
21
-195.586
0
LINE
8
BLACK
6
CONTINUOUS
10
264.649
20
-195.586
11
264.791
21
-195.657
0
LINE
8
BLACK
6
CONTINUOUS
10
265.506
20
-196.443
11
265.577
21
-196.514
0
LINE
8
BLACK
6
CONTINUOUS
10
265.577
20
-196.514
11
265.506
21
-196.586
0
LINE
8
BLACK
6
CONTINUOUS
10
265.506
20
-196.586
11
265.434
21
-196.514
0
LINE
8
BLACK
6
CONTINUOUS
10
265.434
20
-196.514
11
265.506
21
-196.443
0
LINE
8
BLACK
6
CONTINUOUS
10
265.506
20
-196.443
11
265.506
21
-196.586
0
LINE
8
BLACK
6
CONTINUOUS
10
265.506
20
-195.657
11
265.577
21
-195.729
0
LINE
8
BLACK
6
CONTINUOUS
10
265.577
20
-195.729
11
265.506
21
-195.8
0
LINE
8
BLACK
6
CONTINUOUS
10
265.506
20
-195.8
11
265.434
21
-195.729
0
LINE
8
BLACK
6
CONTINUOUS
10
265.434
20
-195.729
11
265.506
21
-195.657
0
LINE
8
BLACK
6
CONTINUOUS
10
265.506
20
-195.657
11
265.506
21
-195.8
0
LINE
8
BLACK
6
CONTINUOUS
10
268.149
20
-196.586
11
267.291
21
-196.586
0
LINE
8
BLACK
6
CONTINUOUS
10
267.72
20
-196.586
11
267.72
21
-195.086
0
LINE
8
BLACK
6
CONTINUOUS
10
267.72
20
-195.086
11
267.577
21
-195.3
0
LINE
8
BLACK
6
CONTINUOUS
10
267.577
20
-195.3
11
267.434
21
-195.443
0
LINE
8
BLACK
6
CONTINUOUS
10
267.434
20
-195.443
11
267.291
21
-195.514
0
LINE
8
BLACK
6
CONTINUOUS
10
269.863
20
-195.014
11
268.577
21
-196.943
0
LINE
8
BLACK
6
CONTINUOUS
10
271.149
20
-196.586
11
270.291
21
-196.586
0
LINE
8
BLACK
6
CONTINUOUS
10
270.72
20
-196.586
11
270.72
21
-195.086
0
LINE
8
BLACK
6
CONTINUOUS
10
270.72
20
-195.086
11
270.577
21
-195.3
0
LINE
8
BLACK
6
CONTINUOUS
10
270.577
20
-195.3
11
270.434
21
-195.443
0
LINE
8
BLACK
6
CONTINUOUS
10
270.434
20
-195.443
11
270.291
21
-195.514
0
LINE
8
BLACK
6
CONTINUOUS
10
177.002
20
-187.507
11
285.002
21
-187.507
0
LINE
8
BLACK
6
CONTINUOUS
10
178.715
20
-188.212
11
179.857
21
-188.212
0
LINE
8
BLACK
6
CONTINUOUS
10
179.036
20
-190.212
11
179.286
21
-188.212
0
LINE
8
BLACK
6
CONTINUOUS
10
180.274
20
-190.212
11
180.441
21
-188.879
0
LINE
8
BLACK
6
CONTINUOUS
10
180.524
20
-188.212
11
180.417
21
-188.307
0
LINE
8
BLACK
6
CONTINUOUS
10
180.417
20
-188.307
11
180.5
21
-188.402
0
LINE
8
BLACK
6
CONTINUOUS
10
180.5
20
-188.402
11
180.607
21
-188.307
0
LINE
8
BLACK
6
CONTINUOUS
10
180.607
20
-188.307
11
180.524
21
-188.212
0
LINE
8
BLACK
6
CONTINUOUS
10
180.524
20
-188.212
11
180.5
21
-188.402
0
LINE
8
BLACK
6
CONTINUOUS
10
181.107
20
-188.879
11
181.869
21
-188.879
0
LINE
8
BLACK
6
CONTINUOUS
10
181.476
20
-188.212
11
181.262
21
-189.926
0
LINE
8
BLACK
6
CONTINUOUS
10
181.262
20
-189.926
11
181.334
21
-190.117
0
LINE
8
BLACK
6
CONTINUOUS
10
181.334
20
-190.117
11
181.512
21
-190.212
0
LINE
8
BLACK
6
CONTINUOUS
10
181.512
20
-190.212
11
181.703
21
-190.212
0
LINE
8
BLACK
6
CONTINUOUS
10
182.655
20
-190.212
11
182.476
21
-190.117
0
LINE
8
BLACK
6
CONTINUOUS
10
182.476
20
-190.117
11
182.405
21
-189.926
0
LINE
8
BLACK
6
CONTINUOUS
10
182.405
20
-189.926
11
182.619
21
-188.212
0
LINE
8
BLACK
6
CONTINUOUS
10
184.191
20
-190.117
11
183.988
21
-190.212
0
LINE
8
BLACK
6
CONTINUOUS
10
183.988
20
-190.212
11
183.607
21
-190.212
0
LINE
8
BLACK
6
CONTINUOUS
10
183.607
20
-190.212
11
183.429
21
-190.117
0
LINE
8
BLACK
6
CONTINUOUS
10
183.429
20
-190.117
11
183.357
21
-189.926
0
LINE
8
BLACK
6
CONTINUOUS
10
183.357
20
-189.926
11
183.453
21
-189.164
0
LINE
8
BLACK
6
CONTINUOUS
10
183.453
20
-189.164
11
183.572
21
-188.974
0
LINE
8
BLACK
6
CONTINUOUS
10
183.572
20
-188.974
11
183.774
21
-188.879
0
LINE
8
BLACK
6
CONTINUOUS
10
183.774
20
-188.879
11
184.155
21
-188.879
0
LINE
8
BLACK
6
CONTINUOUS
10
184.155
20
-188.879
11
184.334
21
-188.974
0
LINE
8
BLACK
6
CONTINUOUS
10
184.334
20
-188.974
11
184.405
21
-189.164
0
LINE
8
BLACK
6
CONTINUOUS
10
184.405
20
-189.164
11
184.381
21
-189.355
0
LINE
8
BLACK
6
CONTINUOUS
10
184.381
20
-189.355
11
183.405
21
-189.545
0
LINE
8
BLACK
6
CONTINUOUS
10
185.155
20
-190.021
11
185.238
21
-190.117
0
LINE
8
BLACK
6
CONTINUOUS
10
185.238
20
-190.117
11
185.131
21
-190.212
0
LINE
8
BLACK
6
CONTINUOUS
10
185.131
20
-190.212
11
185.048
21
-190.117
0
LINE
8
BLACK
6
CONTINUOUS
10
185.048
20
-190.117
11
185.155
21
-190.021
0
LINE
8
BLACK
6
CONTINUOUS
10
185.155
20
-190.021
11
185.131
21
-190.212
0
LINE
8
BLACK
6
CONTINUOUS
10
185.286
20
-188.974
11
185.369
21
-189.069
0
LINE
8
BLACK
6
CONTINUOUS
10
185.369
20
-189.069
11
185.262
21
-189.164
0
LINE
8
BLACK
6
CONTINUOUS
10
185.262
20
-189.164
11
185.179
21
-189.069
0
LINE
8
BLACK
6
CONTINUOUS
10
185.179
20
-189.069
11
185.286
21
-188.974
0
LINE
8
BLACK
6
CONTINUOUS
10
185.286
20
-188.974
11
185.262
21
-189.164
0
LINE
8
BLACK
6
CONTINUOUS
10
178.934
20
-185.6
11
178.434
21
-185.6
0
LINE
8
BLACK
6
CONTINUOUS
10
178.434
20
-186.386
11
178.434
21
-184.886
0
LINE
8
BLACK
6
CONTINUOUS
10
178.434
20
-184.886
11
179.149
21
-184.886
0
LINE
8
BLACK
6
CONTINUOUS
10
179.72
20
-186.386
11
179.72
21
-185.386
0
LINE
8
BLACK
6
CONTINUOUS
10
179.72
20
-184.886
11
179.649
21
-184.957
0
LINE
8
BLACK
6
CONTINUOUS
10
179.649
20
-184.957
11
179.72
21
-185.029
0
LINE
8
BLACK
6
CONTINUOUS
10
179.72
20
-185.029
11
179.791
21
-184.957
0
LINE
8
BLACK
6
CONTINUOUS
10
179.791
20
-184.957
11
179.72
21
-184.886
0
LINE
8
BLACK
6
CONTINUOUS
10
179.72
20
-184.886
11
179.72
21
-185.029
0
LINE
8
BLACK
6
CONTINUOUS
10
180.649
20
-186.386
11
180.506
21
-186.314
0
LINE
8
BLACK
6
CONTINUOUS
10
180.506
20
-186.314
11
180.434
21
-186.171
0
LINE
8
BLACK
6
CONTINUOUS
10
180.434
20
-186.171
11
180.434
21
-184.886
0
LINE
8
BLACK
6
CONTINUOUS
10
181.791
20
-186.314
11
181.649
21
-186.386
0
LINE
8
BLACK
6
CONTINUOUS
10
181.649
20
-186.386
11
181.363
21
-186.386
0
LINE
8
BLACK
6
CONTINUOUS
10
181.363
20
-186.386
11
181.22
21
-186.314
0
LINE
8
BLACK
6
CONTINUOUS
10
181.22
20
-186.314
11
181.149
21
-186.171
0
LINE
8
BLACK
6
CONTINUOUS
10
181.149
20
-186.171
11
181.149
21
-185.6
0
LINE
8
BLACK
6
CONTINUOUS
10
181.149
20
-185.6
11
181.22
21
-185.457
0
LINE
8
BLACK
6
CONTINUOUS
10
181.22
20
-185.457
11
181.363
21
-185.386
0
LINE
8
BLACK
6
CONTINUOUS
10
181.363
20
-185.386
11
181.649
21
-185.386
0
LINE
8
BLACK
6
CONTINUOUS
10
181.649
20
-185.386
11
181.791
21
-185.457
0
LINE
8
BLACK
6
CONTINUOUS
10
181.791
20
-185.457
11
181.863
21
-185.6
0
LINE
8
BLACK
6
CONTINUOUS
10
181.863
20
-185.6
11
181.863
21
-185.743
0
LINE
8
BLACK
6
CONTINUOUS
10
181.863
20
-185.743
11
181.149
21
-185.886
0
LINE
8
BLACK
6
CONTINUOUS
10
182.506
20
-186.243
11
182.577
21
-186.314
0
LINE
8
BLACK
6
CONTINUOUS
10
182.577
20
-186.314
11
182.506
21
-186.386
0
LINE
8
BLACK
6
CONTINUOUS
10
182.506
20
-186.386
11
182.434
21
-186.314
0
LINE
8
BLACK
6
CONTINUOUS
10
182.434
20
-186.314
11
182.506
21
-186.243
0
LINE
8
BLACK
6
CONTINUOUS
10
182.506
20
-186.243
11
182.506
21
-186.386
0
LINE
8
BLACK
6
CONTINUOUS
10
182.506
20
-185.457
11
182.577
21
-185.529
0
LINE
8
BLACK
6
CONTINUOUS
10
182.577
20
-185.529
11
182.506
21
-185.6
0
LINE
8
BLACK
6
CONTINUOUS
10
182.506
20
-185.6
11
182.434
21
-185.529
0
LINE
8
BLACK
6
CONTINUOUS
10
182.434
20
-185.529
11
182.506
21
-185.457
0
LINE
8
BLACK
6
CONTINUOUS
10
182.506
20
-185.457
11
182.506
21
-185.6
0
LINE
8
BLACK
6
CONTINUOUS
10
184.863
20
-185.6
11
184.363
21
-185.6
0
LINE
8
BLACK
6
CONTINUOUS
10
184.363
20
-186.386
11
184.363
21
-184.886
0
LINE
8
BLACK
6
CONTINUOUS
10
184.363
20
-184.886
11
185.077
21
-184.886
0
LINE
8
BLACK
6
CONTINUOUS
10
185.649
20
-186.386
11
185.649
21
-185.386
0
LINE
8
BLACK
6
CONTINUOUS
10
185.649
20
-185.671
11
185.72
21
-185.529
0
LINE
8
BLACK
6
CONTINUOUS
10
185.72
20
-185.529
11
185.791
21
-185.457
0
LINE
8
BLACK
6
CONTINUOUS
10
185.791
20
-185.457
11
185.934
21
-185.386
0
LINE
8
BLACK
6
CONTINUOUS
10
185.934
20
-185.386
11
186.077
21
-185.386
0
LINE
8
BLACK
6
CONTINUOUS
10
186.791
20
-186.386
11
186.649
21
-186.314
0
LINE
8
BLACK
6
CONTINUOUS
10
186.649
20
-186.314
11
186.577
21
-186.243
0
LINE
8
BLACK
6
CONTINUOUS
10
186.577
20
-186.243
11
186.506
21
-186.1
0
LINE
8
BLACK
6
CONTINUOUS
10
186.506
20
-186.1
11
186.506
21
-185.671
0
LINE
8
BLACK
6
CONTINUOUS
10
186.506
20
-185.671
11
186.577
21
-185.529
0
LINE
8
BLACK
6
CONTINUOUS
10
186.577
20
-185.529
11
186.649
21
-185.457
0
LINE
8
BLACK
6
CONTINUOUS
10
186.649
20
-185.457
11
186.791
21
-185.386
0
LINE
8
BLACK
6
CONTINUOUS
10
186.791
20
-185.386
11
187.006
21
-185.386
0
LINE
8
BLACK
6
CONTINUOUS
10
187.006
20
-185.386
11
187.149
21
-185.457
0
LINE
8
BLACK
6
CONTINUOUS
10
187.149
20
-185.457
11
187.22
21
-185.529
0
LINE
8
BLACK
6
CONTINUOUS
10
187.22
20
-185.529
11
187.291
21
-185.671
0
LINE
8
BLACK
6
CONTINUOUS
10
187.291
20
-185.671
11
187.291
21
-186.1
0
LINE
8
BLACK
6
CONTINUOUS
10
187.291
20
-186.1
11
187.22
21
-186.243
0
LINE
8
BLACK
6
CONTINUOUS
10
187.22
20
-186.243
11
187.149
21
-186.314
0
LINE
8
BLACK
6
CONTINUOUS
10
187.149
20
-186.314
11
187.006
21
-186.386
0
LINE
8
BLACK
6
CONTINUOUS
10
187.006
20
-186.386
11
186.791
21
-186.386
0
LINE
8
BLACK
6
CONTINUOUS
10
188.577
20
-185.386
11
188.577
21
-186.6
0
LINE
8
BLACK
6
CONTINUOUS
10
188.577
20
-186.6
11
188.506
21
-186.743
0
LINE
8
BLACK
6
CONTINUOUS
10
188.506
20
-186.743
11
188.434
21
-186.814
0
LINE
8
BLACK
6
CONTINUOUS
10
188.434
20
-186.814
11
188.291
21
-186.886
0
LINE
8
BLACK
6
CONTINUOUS
10
188.291
20
-186.886
11
188.077
21
-186.886
0
LINE
8
BLACK
6
CONTINUOUS
10
188.077
20
-186.886
11
187.934
21
-186.814
0
LINE
8
BLACK
6
CONTINUOUS
10
188.577
20
-186.314
11
188.434
21
-186.386
0
LINE
8
BLACK
6
CONTINUOUS
10
188.434
20
-186.386
11
188.149
21
-186.386
0
LINE
8
BLACK
6
CONTINUOUS
10
188.149
20
-186.386
11
188.006
21
-186.314
0
LINE
8
BLACK
6
CONTINUOUS
10
188.006
20
-186.314
11
187.934
21
-186.243
0
LINE
8
BLACK
6
CONTINUOUS
10
187.934
20
-186.243
11
187.863
21
-186.1
0
LINE
8
BLACK
6
CONTINUOUS
10
187.863
20
-186.1
11
187.863
21
-185.671
0
LINE
8
BLACK
6
CONTINUOUS
10
187.863
20
-185.671
11
187.934
21
-185.529
0
LINE
8
BLACK
6
CONTINUOUS
10
187.934
20
-185.529
11
188.006
21
-185.457
0
LINE
8
BLACK
6
CONTINUOUS
10
188.006
20
-185.457
11
188.149
21
-185.386
0
LINE
8
BLACK
6
CONTINUOUS
10
188.149
20
-185.386
11
188.434
21
-185.386
0
LINE
8
BLACK
6
CONTINUOUS
10
188.434
20
-185.386
11
188.577
21
-185.457
0
LINE
8
BLACK
6
CONTINUOUS
10
189.291
20
-186.386
11
189.291
21
-184.886
0
LINE
8
BLACK
6
CONTINUOUS
10
190.006
20
-186.386
11
190.006
21
-184.886
0
LINE
8
BLACK
6
CONTINUOUS
10
190.006
20
-184.886
11
190.863
21
-186.386
0
LINE
8
BLACK
6
CONTINUOUS
10
190.863
20
-186.386
11
190.863
21
-184.886
0
LINE
8
BLACK
6
CONTINUOUS
10
191.363
20
-184.886
11
192.22
21
-184.886
0
LINE
8
BLACK
6
CONTINUOUS
10
191.791
20
-186.386
11
191.791
21
-184.886
0
LINE
8
BLACK
6
CONTINUOUS
10
192.363
20
-186.529
11
193.506
21
-186.529
0
LINE
8
BLACK
6
CONTINUOUS
10
193.863
20
-186.386
11
193.863
21
-184.886
0
LINE
8
BLACK
6
CONTINUOUS
10
193.863
20
-184.886
11
194.434
21
-184.886
0
LINE
8
BLACK
6
CONTINUOUS
10
194.434
20
-184.886
11
194.577
21
-184.957
0
LINE
8
BLACK
6
CONTINUOUS
10
194.577
20
-184.957
11
194.649
21
-185.029
0
LINE
8
BLACK
6
CONTINUOUS
10
194.649
20
-185.029
11
194.72
21
-185.171
0
LINE
8
BLACK
6
CONTINUOUS
10
194.72
20
-185.171
11
194.72
21
-185.386
0
LINE
8
BLACK
6
CONTINUOUS
10
194.72
20
-185.386
11
194.649
21
-185.529
0
LINE
8
BLACK
6
CONTINUOUS
10
194.649
20
-185.529
11
194.577
21
-185.6
0
LINE
8
BLACK
6
CONTINUOUS
10
194.577
20
-185.6
11
194.434
21
-185.671
0
LINE
8
BLACK
6
CONTINUOUS
10
194.434
20
-185.671
11
193.863
21
-185.671
0
LINE
8
BLACK
6
CONTINUOUS
10
196.22
20
-186.243
11
196.149
21
-186.314
0
LINE
8
BLACK
6
CONTINUOUS
10
196.149
20
-186.314
11
195.934
21
-186.386
0
LINE
8
BLACK
6
CONTINUOUS
10
195.934
20
-186.386
11
195.791
21
-186.386
0
LINE
8
BLACK
6
CONTINUOUS
10
195.791
20
-186.386
11
195.577
21
-186.314
0
LINE
8
BLACK
6
CONTINUOUS
10
195.577
20
-186.314
11
195.434
21
-186.171
0
LINE
8
BLACK
6
CONTINUOUS
10
195.434
20
-186.171
11
195.363
21
-186.029
0
LINE
8
BLACK
6
CONTINUOUS
10
195.363
20
-186.029
11
195.291
21
-185.743
0
LINE
8
BLACK
6
CONTINUOUS
10
195.291
20
-185.743
11
195.291
21
-185.529
0
LINE
8
BLACK
6
CONTINUOUS
10
195.291
20
-185.529
11
195.363
21
-185.243
0
LINE
8
BLACK
6
CONTINUOUS
10
195.363
20
-185.243
11
195.434
21
-185.1
0
LINE
8
BLACK
6
CONTINUOUS
10
195.434
20
-185.1
11
195.577
21
-184.957
0
LINE
8
BLACK
6
CONTINUOUS
10
195.577
20
-184.957
11
195.791
21
-184.886
0
LINE
8
BLACK
6
CONTINUOUS
10
195.791
20
-184.886
11
195.934
21
-184.886
0
LINE
8
BLACK
6
CONTINUOUS
10
195.934
20
-184.886
11
196.149
21
-184.957
0
LINE
8
BLACK
6
CONTINUOUS
10
196.149
20
-184.957
11
196.22
21
-185.029
0
LINE
8
BLACK
6
CONTINUOUS
10
197.363
20
-185.6
11
197.577
21
-185.671
0
LINE
8
BLACK
6
CONTINUOUS
10
197.577
20
-185.671
11
197.649
21
-185.743
0
LINE
8
BLACK
6
CONTINUOUS
10
197.649
20
-185.743
11
197.72
21
-185.886
0
LINE
8
BLACK
6
CONTINUOUS
10
197.72
20
-185.886
11
197.72
21
-186.1
0
LINE
8
BLACK
6
CONTINUOUS
10
197.72
20
-186.1
11
197.649
21
-186.243
0
LINE
8
BLACK
6
CONTINUOUS
10
197.649
20
-186.243
11
197.577
21
-186.314
0
LINE
8
BLACK
6
CONTINUOUS
10
197.577
20
-186.314
11
197.434
21
-186.386
0
LINE
8
BLACK
6
CONTINUOUS
10
197.434
20
-186.386
11
196.863
21
-186.386
0
LINE
8
BLACK
6
CONTINUOUS
10
196.863
20
-186.386
11
196.863
21
-184.886
0
LINE
8
BLACK
6
CONTINUOUS
10
196.863
20
-184.886
11
197.363
21
-184.886
0
LINE
8
BLACK
6
CONTINUOUS
10
197.363
20
-184.886
11
197.506
21
-184.957
0
LINE
8
BLACK
6
CONTINUOUS
10
197.506
20
-184.957
11
197.577
21
-185.029
0
LINE
8
BLACK
6
CONTINUOUS
10
197.577
20
-185.029
11
197.649
21
-185.171
0
LINE
8
BLACK
6
CONTINUOUS
10
197.649
20
-185.171
11
197.649
21
-185.314
0
LINE
8
BLACK
6
CONTINUOUS
10
197.649
20
-185.314
11
197.577
21
-185.457
0
LINE
8
BLACK
6
CONTINUOUS
10
197.577
20
-185.457
11
197.506
21
-185.529
0
LINE
8
BLACK
6
CONTINUOUS
10
197.506
20
-185.529
11
197.363
21
-185.6
0
LINE
8
BLACK
6
CONTINUOUS
10
197.363
20
-185.6
11
196.863
21
-185.6
0
LINE
8
BLACK
6
CONTINUOUS
10
198.363
20
-186.386
11
198.363
21
-184.886
0
LINE
8
BLACK
6
CONTINUOUS
10
198.363
20
-184.886
11
198.934
21
-184.886
0
LINE
8
BLACK
6
CONTINUOUS
10
198.934
20
-184.886
11
199.077
21
-184.957
0
LINE
8
BLACK
6
CONTINUOUS
10
199.077
20
-184.957
11
199.149
21
-185.029
0
LINE
8
BLACK
6
CONTINUOUS
10
199.149
20
-185.029
11
199.22
21
-185.171
0
LINE
8
BLACK
6
CONTINUOUS
10
199.22
20
-185.171
11
199.22
21
-185.386
0
LINE
8
BLACK
6
CONTINUOUS
10
199.22
20
-185.386
11
199.149
21
-185.529
0
LINE
8
BLACK
6
CONTINUOUS
10
199.149
20
-185.529
11
199.077
21
-185.6
0
LINE
8
BLACK
6
CONTINUOUS
10
199.077
20
-185.6
11
198.934
21
-185.671
0
LINE
8
BLACK
6
CONTINUOUS
10
198.934
20
-185.671
11
198.363
21
-185.671
0
LINE
8
BLACK
6
CONTINUOUS
10
199.863
20
-186.386
11
199.863
21
-185.386
0
LINE
8
BLACK
6
CONTINUOUS
10
199.863
20
-185.671
11
199.934
21
-185.529
0
LINE
8
BLACK
6
CONTINUOUS
10
199.934
20
-185.529
11
200.006
21
-185.457
0
LINE
8
BLACK
6
CONTINUOUS
10
200.006
20
-185.457
11
200.149
21
-185.386
0
LINE
8
BLACK
6
CONTINUOUS
10
200.149
20
-185.386
11
200.291
21
-185.386
0
LINE
8
BLACK
6
CONTINUOUS
10
201.006
20
-186.386
11
200.863
21
-186.314
0
LINE
8
BLACK
6
CONTINUOUS
10
200.863
20
-186.314
11
200.791
21
-186.243
0
LINE
8
BLACK
6
CONTINUOUS
10
200.791
20
-186.243
11
200.72
21
-186.1
0
LINE
8
BLACK
6
CONTINUOUS
10
200.72
20
-186.1
11
200.72
21
-185.671
0
LINE
8
BLACK
6
CONTINUOUS
10
200.72
20
-185.671
11
200.791
21
-185.529
0
LINE
8
BLACK
6
CONTINUOUS
10
200.791
20
-185.529
11
200.863
21
-185.457
0
LINE
8
BLACK
6
CONTINUOUS
10
200.863
20
-185.457
11
201.006
21
-185.386
0
LINE
8
BLACK
6
CONTINUOUS
10
201.006
20
-185.386
11
201.22
21
-185.386
0
LINE
8
BLACK
6
CONTINUOUS
10
201.22
20
-185.386
11
201.363
21
-185.457
0
LINE
8
BLACK
6
CONTINUOUS
10
201.363
20
-185.457
11
201.434
21
-185.529
0
LINE
8
BLACK
6
CONTINUOUS
10
201.434
20
-185.529
11
201.506
21
-185.671
0
LINE
8
BLACK
6
CONTINUOUS
10
201.506
20
-185.671
11
201.506
21
-186.1
0
LINE
8
BLACK
6
CONTINUOUS
10
201.506
20
-186.1
11
201.434
21
-186.243
0
LINE
8
BLACK
6
CONTINUOUS
10
201.434
20
-186.243
11
201.363
21
-186.314
0
LINE
8
BLACK
6
CONTINUOUS
10
201.363
20
-186.314
11
201.22
21
-186.386
0
LINE
8
BLACK
6
CONTINUOUS
10
201.22
20
-186.386
11
201.006
21
-186.386
0
LINE
8
BLACK
6
CONTINUOUS
10
201.934
20
-185.386
11
202.506
21
-185.386
0
LINE
8
BLACK
6
CONTINUOUS
10
202.149
20
-184.886
11
202.149
21
-186.171
0
LINE
8
BLACK
6
CONTINUOUS
10
202.149
20
-186.171
11
202.22
21
-186.314
0
LINE
8
BLACK
6
CONTINUOUS
10
202.22
20
-186.314
11
202.363
21
-186.386
0
LINE
8
BLACK
6
CONTINUOUS
10
202.363
20
-186.386
11
202.506
21
-186.386
0
LINE
8
BLACK
6
CONTINUOUS
10
203.22
20
-186.386
11
203.077
21
-186.314
0
LINE
8
BLACK
6
CONTINUOUS
10
203.077
20
-186.314
11
203.006
21
-186.243
0
LINE
8
BLACK
6
CONTINUOUS
10
203.006
20
-186.243
11
202.934
21
-186.1
0
LINE
8
BLACK
6
CONTINUOUS
10
202.934
20
-186.1
11
202.934
21
-185.671
0
LINE
8
BLACK
6
CONTINUOUS
10
202.934
20
-185.671
11
203.006
21
-185.529
0
LINE
8
BLACK
6
CONTINUOUS
10
203.006
20
-185.529
11
203.077
21
-185.457
0
LINE
8
BLACK
6
CONTINUOUS
10
203.077
20
-185.457
11
203.22
21
-185.386
0
LINE
8
BLACK
6
CONTINUOUS
10
203.22
20
-185.386
11
203.434
21
-185.386
0
LINE
8
BLACK
6
CONTINUOUS
10
203.434
20
-185.386
11
203.577
21
-185.457
0
LINE
8
BLACK
6
CONTINUOUS
10
203.577
20
-185.457
11
203.649
21
-185.529
0
LINE
8
BLACK
6
CONTINUOUS
10
203.649
20
-185.529
11
203.72
21
-185.671
0
LINE
8
BLACK
6
CONTINUOUS
10
203.72
20
-185.671
11
203.72
21
-186.1
0
LINE
8
BLACK
6
CONTINUOUS
10
203.72
20
-186.1
11
203.649
21
-186.243
0
LINE
8
BLACK
6
CONTINUOUS
10
203.649
20
-186.243
11
203.577
21
-186.314
0
LINE
8
BLACK
6
CONTINUOUS
10
203.577
20
-186.314
11
203.434
21
-186.386
0
LINE
8
BLACK
6
CONTINUOUS
10
203.434
20
-186.386
11
203.22
21
-186.386
0
LINE
8
BLACK
6
CONTINUOUS
10
204.006
20
-186.529
11
205.149
21
-186.529
0
LINE
8
BLACK
6
CONTINUOUS
10
205.291
20
-184.886
11
205.791
21
-186.386
0
LINE
8
BLACK
6
CONTINUOUS
10
205.791
20
-186.386
11
206.291
21
-184.886
0
LINE
8
BLACK
6
CONTINUOUS
10
207.577
20
-186.386
11
206.72
21
-186.386
0
LINE
8
BLACK
6
CONTINUOUS
10
207.149
20
-186.386
11
207.149
21
-184.886
0
LINE
8
BLACK
6
CONTINUOUS
10
207.149
20
-184.886
11
207.006
21
-185.1
0
LINE
8
BLACK
6
CONTINUOUS
10
207.006
20
-185.1
11
206.863
21
-185.243
0
LINE
8
BLACK
6
CONTINUOUS
10
206.863
20
-185.243
11
206.72
21
-185.314
0
LINE
8
BLACK
6
CONTINUOUS
10
208.434
20
-185.529
11
208.291
21
-185.457
0
LINE
8
BLACK
6
CONTINUOUS
10
208.291
20
-185.457
11
208.22
21
-185.386
0
LINE
8
BLACK
6
CONTINUOUS
10
208.22
20
-185.386
11
208.149
21
-185.243
0
LINE
8
BLACK
6
CONTINUOUS
10
208.149
20
-185.243
11
208.149
21
-185.171
0
LINE
8
BLACK
6
CONTINUOUS
10
208.149
20
-185.171
11
208.22
21
-185.029
0
LINE
8
BLACK
6
CONTINUOUS
10
208.22
20
-185.029
11
208.291
21
-184.957
0
LINE
8
BLACK
6
CONTINUOUS
10
208.291
20
-184.957
11
208.434
21
-184.886
0
LINE
8
BLACK
6
CONTINUOUS
10
208.434
20
-184.886
11
208.72
21
-184.886
0
LINE
8
BLACK
6
CONTINUOUS
10
208.72
20
-184.886
11
208.863
21
-184.957
0
LINE
8
BLACK
6
CONTINUOUS
10
208.863
20
-184.957
11
208.934
21
-185.029
0
LINE
8
BLACK
6
CONTINUOUS
10
208.934
20
-185.029
11
209.006
21
-185.171
0
LINE
8
BLACK
6
CONTINUOUS
10
209.006
20
-185.171
11
209.006
21
-185.243
0
LINE
8
BLACK
6
CONTINUOUS
10
209.006
20
-185.243
11
208.934
21
-185.386
0
LINE
8
BLACK
6
CONTINUOUS
10
208.934
20
-185.386
11
208.863
21
-185.457
0
LINE
8
BLACK
6
CONTINUOUS
10
208.863
20
-185.457
11
208.72
21
-185.529
0
LINE
8
BLACK
6
CONTINUOUS
10
208.72
20
-185.529
11
208.434
21
-185.529
0
LINE
8
BLACK
6
CONTINUOUS
10
208.434
20
-185.529
11
208.291
21
-185.6
0
LINE
8
BLACK
6
CONTINUOUS
10
208.291
20
-185.6
11
208.22
21
-185.671
0
LINE
8
BLACK
6
CONTINUOUS
10
208.22
20
-185.671
11
208.149
21
-185.814
0
LINE
8
BLACK
6
CONTINUOUS
10
208.149
20
-185.814
11
208.149
21
-186.1
0
LINE
8
BLACK
6
CONTINUOUS
10
208.149
20
-186.1
11
208.22
21
-186.243
0
LINE
8
BLACK
6
CONTINUOUS
10
208.22
20
-186.243
11
208.291
21
-186.314
0
LINE
8
BLACK
6
CONTINUOUS
10
208.291
20
-186.314
11
208.434
21
-186.386
0
LINE
8
BLACK
6
CONTINUOUS
10
208.434
20
-186.386
11
208.72
21
-186.386
0
LINE
8
BLACK
6
CONTINUOUS
10
208.72
20
-186.386
11
208.863
21
-186.314
0
LINE
8
BLACK
6
CONTINUOUS
10
208.863
20
-186.314
11
208.934
21
-186.243
0
LINE
8
BLACK
6
CONTINUOUS
10
208.934
20
-186.243
11
209.006
21
-186.1
0
LINE
8
BLACK
6
CONTINUOUS
10
209.006
20
-186.1
11
209.006
21
-185.814
0
LINE
8
BLACK
6
CONTINUOUS
10
209.006
20
-185.814
11
208.934
21
-185.671
0
LINE
8
BLACK
6
CONTINUOUS
10
208.934
20
-185.671
11
208.863
21
-185.6
0
LINE
8
BLACK
6
CONTINUOUS
10
208.863
20
-185.6
11
208.72
21
-185.529
0
LINE
8
BLACK
6
CONTINUOUS
10
210.434
20
-186.386
11
209.577
21
-186.386
0
LINE
8
BLACK
6
CONTINUOUS
10
210.006
20
-186.386
11
210.006
21
-184.886
0
LINE
8
BLACK
6
CONTINUOUS
10
210.006
20
-184.886
11
209.863
21
-185.1
0
LINE
8
BLACK
6
CONTINUOUS
10
209.863
20
-185.1
11
209.72
21
-185.243
0
LINE
8
BLACK
6
CONTINUOUS
10
209.72
20
-185.243
11
209.577
21
-185.314
0
LINE
8
BLACK
6
CONTINUOUS
10
211.863
20
-186.386
11
211.006
21
-186.386
0
LINE
8
BLACK
6
CONTINUOUS
10
211.434
20
-186.386
11
211.434
21
-184.886
0
LINE
8
BLACK
6
CONTINUOUS
10
211.434
20
-184.886
11
211.291
21
-185.1
0
LINE
8
BLACK
6
CONTINUOUS
10
211.291
20
-185.1
11
211.149
21
-185.243
0
LINE
8
BLACK
6
CONTINUOUS
10
211.149
20
-185.243
11
211.006
21
-185.314
0
LINE
8
BLACK
6
CONTINUOUS
10
212.791
20
-184.886
11
212.934
21
-184.886
0
LINE
8
BLACK
6
CONTINUOUS
10
212.934
20
-184.886
11
213.077
21
-184.957
0
LINE
8
BLACK
6
CONTINUOUS
10
213.077
20
-184.957
11
213.149
21
-185.029
0
LINE
8
BLACK
6
CONTINUOUS
10
213.149
20
-185.029
11
213.22
21
-185.171
0
LINE
8
BLACK
6
CONTINUOUS
10
213.22
20
-185.171
11
213.291
21
-185.457
0
LINE
8
BLACK
6
CONTINUOUS
10
213.291
20
-185.457
11
213.291
21
-185.814
0
LINE
8
BLACK
6
CONTINUOUS
10
213.291
20
-185.814
11
213.22
21
-186.1
0
LINE
8
BLACK
6
CONTINUOUS
10
213.22
20
-186.1
11
213.149
21
-186.243
0
LINE
8
BLACK
6
CONTINUOUS
10
213.149
20
-186.243
11
213.077
21
-186.314
0
LINE
8
BLACK
6
CONTINUOUS
10
213.077
20
-186.314
11
212.934
21
-186.386
0
LINE
8
BLACK
6
CONTINUOUS
10
212.934
20
-186.386
11
212.791
21
-186.386
0
LINE
8
BLACK
6
CONTINUOUS
10
212.791
20
-186.386
11
212.649
21
-186.314
0
LINE
8
BLACK
6
CONTINUOUS
10
212.649
20
-186.314
11
212.577
21
-186.243
0
LINE
8
BLACK
6
CONTINUOUS
10
212.577
20
-186.243
11
212.506
21
-186.1
0
LINE
8
BLACK
6
CONTINUOUS
10
212.506
20
-186.1
11
212.434
21
-185.814
0
LINE
8
BLACK
6
CONTINUOUS
10
212.434
20
-185.814
11
212.434
21
-185.457
0
LINE
8
BLACK
6
CONTINUOUS
10
212.434
20
-185.457
11
212.506
21
-185.171
0
LINE
8
BLACK
6
CONTINUOUS
10
212.506
20
-185.171
11
212.577
21
-185.029
0
LINE
8
BLACK
6
CONTINUOUS
10
212.577
20
-185.029
11
212.649
21
-184.957
0
LINE
8
BLACK
6
CONTINUOUS
10
212.649
20
-184.957
11
212.791
21
-184.886
0
LINE
8
BLACK
6
CONTINUOUS
10
214.577
20
-184.886
11
214.291
21
-184.886
0
LINE
8
BLACK
6
CONTINUOUS
10
214.291
20
-184.886
11
214.149
21
-184.957
0
LINE
8
BLACK
6
CONTINUOUS
10
214.149
20
-184.957
11
214.077
21
-185.029
0
LINE
8
BLACK
6
CONTINUOUS
10
214.077
20
-185.029
11
213.934
21
-185.243
0
LINE
8
BLACK
6
CONTINUOUS
10
213.934
20
-185.243
11
213.863
21
-185.529
0
LINE
8
BLACK
6
CONTINUOUS
10
213.863
20
-185.529
11
213.863
21
-186.1
0
LINE
8
BLACK
6
CONTINUOUS
10
213.863
20
-186.1
11
213.934
21
-186.243
0
LINE
8
BLACK
6
CONTINUOUS
10
213.934
20
-186.243
11
214.006
21
-186.314
0
LINE
8
BLACK
6
CONTINUOUS
10
214.006
20
-186.314
11
214.149
21
-186.386
0
LINE
8
BLACK
6
CONTINUOUS
10
214.149
20
-186.386
11
214.434
21
-186.386
0
LINE
8
BLACK
6
CONTINUOUS
10
214.434
20
-186.386
11
214.577
21
-186.314
0
LINE
8
BLACK
6
CONTINUOUS
10
214.577
20
-186.314
11
214.649
21
-186.243
0
LINE
8
BLACK
6
CONTINUOUS
10
214.649
20
-186.243
11
214.72
21
-186.1
0
LINE
8
BLACK
6
CONTINUOUS
10
214.72
20
-186.1
11
214.72
21
-185.743
0
LINE
8
BLACK
6
CONTINUOUS
10
214.72
20
-185.743
11
214.649
21
-185.6
0
LINE
8
BLACK
6
CONTINUOUS
10
214.649
20
-185.6
11
214.577
21
-185.529
0
LINE
8
BLACK
6
CONTINUOUS
10
214.577
20
-185.529
11
214.434
21
-185.457
0
LINE
8
BLACK
6
CONTINUOUS
10
214.434
20
-185.457
11
214.149
21
-185.457
0
LINE
8
BLACK
6
CONTINUOUS
10
214.149
20
-185.457
11
214.006
21
-185.529
0
LINE
8
BLACK
6
CONTINUOUS
10
214.006
20
-185.529
11
213.934
21
-185.6
0
LINE
8
BLACK
6
CONTINUOUS
10
213.934
20
-185.6
11
213.863
21
-185.743
0
LINE
8
BLACK
6
CONTINUOUS
10
215.291
20
-185.029
11
215.363
21
-184.957
0
LINE
8
BLACK
6
CONTINUOUS
10
215.363
20
-184.957
11
215.506
21
-184.886
0
LINE
8
BLACK
6
CONTINUOUS
10
215.506
20
-184.886
11
215.863
21
-184.886
0
LINE
8
BLACK
6
CONTINUOUS
10
215.863
20
-184.886
11
216.006
21
-184.957
0
LINE
8
BLACK
6
CONTINUOUS
10
216.006
20
-184.957
11
216.077
21
-185.029
0
LINE
8
BLACK
6
CONTINUOUS
10
216.077
20
-185.029
11
216.149
21
-185.171
0
LINE
8
BLACK
6
CONTINUOUS
10
216.149
20
-185.171
11
216.149
21
-185.314
0
LINE
8
BLACK
6
CONTINUOUS
10
216.149
20
-185.314
11
216.077
21
-185.529
0
LINE
8
BLACK
6
CONTINUOUS
10
216.077
20
-185.529
11
215.22
21
-186.386
0
LINE
8
BLACK
6
CONTINUOUS
10
215.22
20
-186.386
11
216.149
21
-186.386
0
LINE
8
BLACK
6
CONTINUOUS
10
217.577
20
-186.386
11
216.72
21
-186.386
0
LINE
8
BLACK
6
CONTINUOUS
10
217.149
20
-186.386
11
217.149
21
-184.886
0
LINE
8
BLACK
6
CONTINUOUS
10
217.149
20
-184.886
11
217.006
21
-185.1
0
LINE
8
BLACK
6
CONTINUOUS
10
217.006
20
-185.1
11
216.863
21
-185.243
0
LINE
8
BLACK
6
CONTINUOUS
10
216.863
20
-185.243
11
216.72
21
-185.314
0
LINE
8
BLACK
6
CONTINUOUS
10
218.934
20
-184.886
11
218.22
21
-184.886
0
LINE
8
BLACK
6
CONTINUOUS
10
218.22
20
-184.886
11
218.149
21
-185.6
0
LINE
8
BLACK
6
CONTINUOUS
10
218.149
20
-185.6
11
218.22
21
-185.529
0
LINE
8
BLACK
6
CONTINUOUS
10
218.22
20
-185.529
11
218.363
21
-185.457
0
LINE
8
BLACK
6
CONTINUOUS
10
218.363
20
-185.457
11
218.72
21
-185.457
0
LINE
8
BLACK
6
CONTINUOUS
10
218.72
20
-185.457
11
218.863
21
-185.529
0
LINE
8
BLACK
6
CONTINUOUS
10
218.863
20
-185.529
11
218.934
21
-185.6
0
LINE
8
BLACK
6
CONTINUOUS
10
218.934
20
-185.6
11
219.006
21
-185.743
0
LINE
8
BLACK
6
CONTINUOUS
10
219.006
20
-185.743
11
219.006
21
-186.1
0
LINE
8
BLACK
6
CONTINUOUS
10
219.006
20
-186.1
11
218.934
21
-186.243
0
LINE
8
BLACK
6
CONTINUOUS
10
218.934
20
-186.243
11
218.863
21
-186.314
0
LINE
8
BLACK
6
CONTINUOUS
10
218.863
20
-186.314
11
218.72
21
-186.386
0
LINE
8
BLACK
6
CONTINUOUS
10
218.72
20
-186.386
11
218.363
21
-186.386
0
LINE
8
BLACK
6
CONTINUOUS
10
218.363
20
-186.386
11
218.22
21
-186.314
0
LINE
8
BLACK
6
CONTINUOUS
10
218.22
20
-186.314
11
218.149
21
-186.243
0
LINE
8
BLACK
6
CONTINUOUS
10
220.291
20
-185.386
11
220.291
21
-186.386
0
LINE
8
BLACK
6
CONTINUOUS
10
219.934
20
-184.814
11
219.577
21
-185.886
0
LINE
8
BLACK
6
CONTINUOUS
10
219.577
20
-185.886
11
220.506
21
-185.886
0
LINE
8
BLACK
6
CONTINUOUS
10
221.077
20
-186.243
11
221.149
21
-186.314
0
LINE
8
BLACK
6
CONTINUOUS
10
221.149
20
-186.314
11
221.077
21
-186.386
0
LINE
8
BLACK
6
CONTINUOUS
10
221.077
20
-186.386
11
221.006
21
-186.314
0
LINE
8
BLACK
6
CONTINUOUS
10
221.006
20
-186.314
11
221.077
21
-186.243
0
LINE
8
BLACK
6
CONTINUOUS
10
221.077
20
-186.243
11
221.077
21
-186.386
0
LINE
8
BLACK
6
CONTINUOUS
10
221.791
20
-186.386
11
221.791
21
-184.886
0
LINE
8
BLACK
6
CONTINUOUS
10
221.934
20
-185.814
11
222.363
21
-186.386
0
LINE
8
BLACK
6
CONTINUOUS
10
222.363
20
-185.386
11
221.791
21
-185.957
0
LINE
8
BLACK
6
CONTINUOUS
10
223.006
20
-186.386
11
223.006
21
-185.386
0
LINE
8
BLACK
6
CONTINUOUS
10
223.006
20
-184.886
11
222.934
21
-184.957
0
LINE
8
BLACK
6
CONTINUOUS
10
222.934
20
-184.957
11
223.006
21
-185.029
0
LINE
8
BLACK
6
CONTINUOUS
10
223.006
20
-185.029
11
223.077
21
-184.957
0
LINE
8
BLACK
6
CONTINUOUS
10
223.077
20
-184.957
11
223.006
21
-184.886
0
LINE
8
BLACK
6
CONTINUOUS
10
223.006
20
-184.886
11
223.006
21
-185.029
0
LINE
8
BLACK
6
CONTINUOUS
10
224.363
20
-186.314
11
224.22
21
-186.386
0
LINE
8
BLACK
6
CONTINUOUS
10
224.22
20
-186.386
11
223.934
21
-186.386
0
LINE
8
BLACK
6
CONTINUOUS
10
223.934
20
-186.386
11
223.791
21
-186.314
0
LINE
8
BLACK
6
CONTINUOUS
10
223.791
20
-186.314
11
223.72
21
-186.243
0
LINE
8
BLACK
6
CONTINUOUS
10
223.72
20
-186.243
11
223.649
21
-186.1
0
LINE
8
BLACK
6
CONTINUOUS
10
223.649
20
-186.1
11
223.649
21
-185.671
0
LINE
8
BLACK
6
CONTINUOUS
10
223.649
20
-185.671
11
223.72
21
-185.529
0
LINE
8
BLACK
6
CONTINUOUS
10
223.72
20
-185.529
11
223.791
21
-185.457
0
LINE
8
BLACK
6
CONTINUOUS
10
223.791
20
-185.457
11
223.934
21
-185.386
0
LINE
8
BLACK
6
CONTINUOUS
10
223.934
20
-185.386
11
224.22
21
-185.386
0
LINE
8
BLACK
6
CONTINUOUS
10
224.22
20
-185.386
11
224.363
21
-185.457
0
LINE
8
BLACK
6
CONTINUOUS
10
225.649
20
-186.386
11
225.649
21
-185.6
0
LINE
8
BLACK
6
CONTINUOUS
10
225.649
20
-185.6
11
225.577
21
-185.457
0
LINE
8
BLACK
6
CONTINUOUS
10
225.577
20
-185.457
11
225.434
21
-185.386
0
LINE
8
BLACK
6
CONTINUOUS
10
225.434
20
-185.386
11
225.149
21
-185.386
0
LINE
8
BLACK
6
CONTINUOUS
10
225.149
20
-185.386
11
225.006
21
-185.457
0
LINE
8
BLACK
6
CONTINUOUS
10
225.649
20
-186.314
11
225.506
21
-186.386
0
LINE
8
BLACK
6
CONTINUOUS
10
225.506
20
-186.386
11
225.149
21
-186.386
0
LINE
8
BLACK
6
CONTINUOUS
10
225.149
20
-186.386
11
225.006
21
-186.314
0
LINE
8
BLACK
6
CONTINUOUS
10
225.006
20
-186.314
11
224.934
21
-186.171
0
LINE
8
BLACK
6
CONTINUOUS
10
224.934
20
-186.171
11
224.934
21
-186.029
0
LINE
8
BLACK
6
CONTINUOUS
10
224.934
20
-186.029
11
225.006
21
-185.886
0
LINE
8
BLACK
6
CONTINUOUS
10
225.006
20
-185.886
11
225.149
21
-185.814
0
LINE
8
BLACK
6
CONTINUOUS
10
225.149
20
-185.814
11
225.506
21
-185.814
0
LINE
8
BLACK
6
CONTINUOUS
10
225.506
20
-185.814
11
225.649
21
-185.743
0
LINE
8
BLACK
6
CONTINUOUS
10
227.006
20
-186.386
11
227.006
21
-184.886
0
LINE
8
BLACK
6
CONTINUOUS
10
227.006
20
-186.314
11
226.863
21
-186.386
0
LINE
8
BLACK
6
CONTINUOUS
10
226.863
20
-186.386
11
226.577
21
-186.386
0
LINE
8
BLACK
6
CONTINUOUS
10
226.577
20
-186.386
11
226.434
21
-186.314
0
LINE
8
BLACK
6
CONTINUOUS
10
226.434
20
-186.314
11
226.363
21
-186.243
0
LINE
8
BLACK
6
CONTINUOUS
10
226.363
20
-186.243
11
226.291
21
-186.1
0
LINE
8
BLACK
6
CONTINUOUS
10
226.291
20
-186.1
11
226.291
21
-185.671
0
LINE
8
BLACK
6
CONTINUOUS
10
226.291
20
-185.671
11
226.363
21
-185.529
0
LINE
8
BLACK
6
CONTINUOUS
10
226.363
20
-185.529
11
226.434
21
-185.457
0
LINE
8
BLACK
6
CONTINUOUS
10
226.434
20
-185.457
11
226.577
21
-185.386
0
LINE
8
BLACK
6
CONTINUOUS
10
226.577
20
-185.386
11
226.863
21
-185.386
0
LINE
8
BLACK
6
CONTINUOUS
10
226.863
20
-185.386
11
227.006
21
-185.457
0
LINE
8
BLACK
6
CONTINUOUS
10
227.363
20
-186.529
11
228.506
21
-186.529
0
LINE
8
BLACK
6
CONTINUOUS
10
228.863
20
-185.386
11
228.863
21
-186.886
0
LINE
8
BLACK
6
CONTINUOUS
10
228.863
20
-185.457
11
229.006
21
-185.386
0
LINE
8
BLACK
6
CONTINUOUS
10
229.006
20
-185.386
11
229.291
21
-185.386
0
LINE
8
BLACK
6
CONTINUOUS
10
229.291
20
-185.386
11
229.434
21
-185.457
0
LINE
8
BLACK
6
CONTINUOUS
10
229.434
20
-185.457
11
229.506
21
-185.529
0
LINE
8
BLACK
6
CONTINUOUS
10
229.506
20
-185.529
11
229.577
21
-185.671
0
LINE
8
BLACK
6
CONTINUOUS
10
229.577
20
-185.671
11
229.577
21
-186.1
0
LINE
8
BLACK
6
CONTINUOUS
10
229.577
20
-186.1
11
229.506
21
-186.243
0
LINE
8
BLACK
6
CONTINUOUS
10
229.506
20
-186.243
11
229.434
21
-186.314
0
LINE
8
BLACK
6
CONTINUOUS
10
229.434
20
-186.314
11
229.291
21
-186.386
0
LINE
8
BLACK
6
CONTINUOUS
10
229.291
20
-186.386
11
229.006
21
-186.386
0
LINE
8
BLACK
6
CONTINUOUS
10
229.006
20
-186.386
11
228.863
21
-186.314
0
LINE
8
BLACK
6
CONTINUOUS
10
230.863
20
-186.314
11
230.72
21
-186.386
0
LINE
8
BLACK
6
CONTINUOUS
10
230.72
20
-186.386
11
230.434
21
-186.386
0
LINE
8
BLACK
6
CONTINUOUS
10
230.434
20
-186.386
11
230.291
21
-186.314
0
LINE
8
BLACK
6
CONTINUOUS
10
230.291
20
-186.314
11
230.22
21
-186.243
0
LINE
8
BLACK
6
CONTINUOUS
10
230.22
20
-186.243
11
230.149
21
-186.1
0
LINE
8
BLACK
6
CONTINUOUS
10
230.149
20
-186.1
11
230.149
21
-185.671
0
LINE
8
BLACK
6
CONTINUOUS
10
230.149
20
-185.671
11
230.22
21
-185.529
0
LINE
8
BLACK
6
CONTINUOUS
10
230.22
20
-185.529
11
230.291
21
-185.457
0
LINE
8
BLACK
6
CONTINUOUS
10
230.291
20
-185.457
11
230.434
21
-185.386
0
LINE
8
BLACK
6
CONTINUOUS
10
230.434
20
-185.386
11
230.72
21
-185.386
0
LINE
8
BLACK
6
CONTINUOUS
10
230.72
20
-185.386
11
230.863
21
-185.457
0
LINE
8
BLACK
6
CONTINUOUS
10
231.506
20
-186.386
11
231.506
21
-184.886
0
LINE
8
BLACK
6
CONTINUOUS
10
231.506
20
-185.457
11
231.649
21
-185.386
0
LINE
8
BLACK
6
CONTINUOUS
10
231.649
20
-185.386
11
231.934
21
-185.386
0
LINE
8
BLACK
6
CONTINUOUS
10
231.934
20
-185.386
11
232.077
21
-185.457
0
LINE
8
BLACK
6
CONTINUOUS
10
232.077
20
-185.457
11
232.149
21
-185.529
0
LINE
8
BLACK
6
CONTINUOUS
10
232.149
20
-185.529
11
232.22
21
-185.671
0
LINE
8
BLACK
6
CONTINUOUS
10
232.22
20
-185.671
11
232.22
21
-186.1
0
LINE
8
BLACK
6
CONTINUOUS
10
232.22
20
-186.1
11
232.149
21
-186.243
0
LINE
8
BLACK
6
CONTINUOUS
10
232.149
20
-186.243
11
232.077
21
-186.314
0
LINE
8
BLACK
6
CONTINUOUS
10
232.077
20
-186.314
11
231.934
21
-186.386
0
LINE
8
BLACK
6
CONTINUOUS
10
231.934
20
-186.386
11
231.649
21
-186.386
0
LINE
8
BLACK
6
CONTINUOUS
10
231.649
20
-186.386
11
231.506
21
-186.314
0
LINE
8
BLACK
6
CONTINUOUS
10
177.002
20
-181.507
11
285.002
21
-181.507
0
LINE
8
BLACK
6
CONTINUOUS
10
178.363
20
-183.614
11
178.577
21
-183.686
0
LINE
8
BLACK
6
CONTINUOUS
10
178.577
20
-183.686
11
178.934
21
-183.686
0
LINE
8
BLACK
6
CONTINUOUS
10
178.934
20
-183.686
11
179.077
21
-183.614
0
LINE
8
BLACK
6
CONTINUOUS
10
179.077
20
-183.614
11
179.149
21
-183.543
0
LINE
8
BLACK
6
CONTINUOUS
10
179.149
20
-183.543
11
179.22
21
-183.4
0
LINE
8
BLACK
6
CONTINUOUS
10
179.22
20
-183.4
11
179.22
21
-183.257
0
LINE
8
BLACK
6
CONTINUOUS
10
179.22
20
-183.257
11
179.149
21
-183.114
0
LINE
8
BLACK
6
CONTINUOUS
10
179.149
20
-183.114
11
179.077
21
-183.043
0
LINE
8
BLACK
6
CONTINUOUS
10
179.077
20
-183.043
11
178.934
21
-182.971
0
LINE
8
BLACK
6
CONTINUOUS
10
178.934
20
-182.971
11
178.649
21
-182.9
0
LINE
8
BLACK
6
CONTINUOUS
10
178.649
20
-182.9
11
178.506
21
-182.829
0
LINE
8
BLACK
6
CONTINUOUS
10
178.506
20
-182.829
11
178.434
21
-182.757
0
LINE
8
BLACK
6
CONTINUOUS
10
178.434
20
-182.757
11
178.363
21
-182.614
0
LINE
8
BLACK
6
CONTINUOUS
10
178.363
20
-182.614
11
178.363
21
-182.471
0
LINE
8
BLACK
6
CONTINUOUS
10
178.363
20
-182.471
11
178.434
21
-182.329
0
LINE
8
BLACK
6
CONTINUOUS
10
178.434
20
-182.329
11
178.506
21
-182.257
0
LINE
8
BLACK
6
CONTINUOUS
10
178.506
20
-182.257
11
178.649
21
-182.186
0
LINE
8
BLACK
6
CONTINUOUS
10
178.649
20
-182.186
11
179.006
21
-182.186
0
LINE
8
BLACK
6
CONTINUOUS
10
179.006
20
-182.186
11
179.22
21
-182.257
0
LINE
8
BLACK
6
CONTINUOUS
10
179.863
20
-183.686
11
179.863
21
-182.186
0
LINE
8
BLACK
6
CONTINUOUS
10
180.506
20
-183.686
11
180.506
21
-182.9
0
LINE
8
BLACK
6
CONTINUOUS
10
180.506
20
-182.9
11
180.434
21
-182.757
0
LINE
8
BLACK
6
CONTINUOUS
10
180.434
20
-182.757
11
180.291
21
-182.686
0
LINE
8
BLACK
6
CONTINUOUS
10
180.291
20
-182.686
11
180.077
21
-182.686
0
LINE
8
BLACK
6
CONTINUOUS
10
180.077
20
-182.686
11
179.934
21
-182.757
0
LINE
8
BLACK
6
CONTINUOUS
10
179.934
20
-182.757
11
179.863
21
-182.829
0
LINE
8
BLACK
6
CONTINUOUS
10
181.791
20
-183.614
11
181.649
21
-183.686
0
LINE
8
BLACK
6
CONTINUOUS
10
181.649
20
-183.686
11
181.363
21
-183.686
0
LINE
8
BLACK
6
CONTINUOUS
10
181.363
20
-183.686
11
181.22
21
-183.614
0
LINE
8
BLACK
6
CONTINUOUS
10
181.22
20
-183.614
11
181.149
21
-183.471
0
LINE
8
BLACK
6
CONTINUOUS
10
181.149
20
-183.471
11
181.149
21
-182.9
0
LINE
8
BLACK
6
CONTINUOUS
10
181.149
20
-182.9
11
181.22
21
-182.757
0
LINE
8
BLACK
6
CONTINUOUS
10
181.22
20
-182.757
11
181.363
21
-182.686
0
LINE
8
BLACK
6
CONTINUOUS
10
181.363
20
-182.686
11
181.649
21
-182.686
0
LINE
8
BLACK
6
CONTINUOUS
10
181.649
20
-182.686
11
181.791
21
-182.757
0
LINE
8
BLACK
6
CONTINUOUS
10
181.791
20
-182.757
11
181.863
21
-182.9
0
LINE
8
BLACK
6
CONTINUOUS
10
181.863
20
-182.9
11
181.863
21
-183.043
0
LINE
8
BLACK
6
CONTINUOUS
10
181.863
20
-183.043
11
181.149
21
-183.186
0
LINE
8
BLACK
6
CONTINUOUS
10
183.077
20
-183.614
11
182.934
21
-183.686
0
LINE
8
BLACK
6
CONTINUOUS
10
182.934
20
-183.686
11
182.649
21
-183.686
0
LINE
8
BLACK
6
CONTINUOUS
10
182.649
20
-183.686
11
182.506
21
-183.614
0
LINE
8
BLACK
6
CONTINUOUS
10
182.506
20
-183.614
11
182.434
21
-183.471
0
LINE
8
BLACK
6
CONTINUOUS
10
182.434
20
-183.471
11
182.434
21
-182.9
0
LINE
8
BLACK
6
CONTINUOUS
10
182.434
20
-182.9
11
182.506
21
-182.757
0
LINE
8
BLACK
6
CONTINUOUS
10
182.506
20
-182.757
11
182.649
21
-182.686
0
LINE
8
BLACK
6
CONTINUOUS
10
182.649
20
-182.686
11
182.934
21
-182.686
0
LINE
8
BLACK
6
CONTINUOUS
10
182.934
20
-182.686
11
183.077
21
-182.757
0
LINE
8
BLACK
6
CONTINUOUS
10
183.077
20
-182.757
11
183.149
21
-182.9
0
LINE
8
BLACK
6
CONTINUOUS
10
183.149
20
-182.9
11
183.149
21
-183.043
0
LINE
8
BLACK
6
CONTINUOUS
10
183.149
20
-183.043
11
182.434
21
-183.186
0
LINE
8
BLACK
6
CONTINUOUS
10
183.577
20
-182.686
11
184.149
21
-182.686
0
LINE
8
BLACK
6
CONTINUOUS
10
183.791
20
-182.186
11
183.791
21
-183.471
0
LINE
8
BLACK
6
CONTINUOUS
10
183.791
20
-183.471
11
183.863
21
-183.614
0
LINE
8
BLACK
6
CONTINUOUS
10
183.863
20
-183.614
11
184.006
21
-183.686
0
LINE
8
BLACK
6
CONTINUOUS
10
184.006
20
-183.686
11
184.149
21
-183.686
0
LINE
8
BLACK
6
CONTINUOUS
10
184.649
20
-183.543
11
184.72
21
-183.614
0
LINE
8
BLACK
6
CONTINUOUS
10
184.72
20
-183.614
11
184.649
21
-183.686
0
LINE
8
BLACK
6
CONTINUOUS
10
184.649
20
-183.686
11
184.577
21
-183.614
0
LINE
8
BLACK
6
CONTINUOUS
10
184.577
20
-183.614
11
184.649
21
-183.543
0
LINE
8
BLACK
6
CONTINUOUS
10
184.649
20
-183.543
11
184.649
21
-183.686
0
LINE
8
BLACK
6
CONTINUOUS
10
184.649
20
-182.757
11
184.72
21
-182.829
0
LINE
8
BLACK
6
CONTINUOUS
10
184.72
20
-182.829
11
184.649
21
-182.9
0
LINE
8
BLACK
6
CONTINUOUS
10
184.649
20
-182.9
11
184.577
21
-182.829
0
LINE
8
BLACK
6
CONTINUOUS
10
184.577
20
-182.829
11
184.649
21
-182.757
0
LINE
8
BLACK
6
CONTINUOUS
10
184.649
20
-182.757
11
184.649
21
-182.9
0
LINE
8
BLACK
6
CONTINUOUS
10
197.002
20
-191.507
11
197.002
21
-194.507
0
LINE
8
BLACK
6
CONTINUOUS
10
261.002
20
-191.507
11
261.002
21
-198.007
0
LINE
8
BLACK
6
CONTINUOUS
10
144.906
20
-134.207
11
143.476
21
-134.207
0
LINE
8
BLACK
6
CONTINUOUS
10
143.476
20
-134.207
11
143.476
21
-131.707
0
LINE
8
BLACK
6
CONTINUOUS
10
143.476
20
-131.707
11
144.906
21
-131.707
0
LINE
8
BLACK
6
CONTINUOUS
10
144.906
20
-131.707
11
144.906
21
-134.207
0
LINE
8
BLACK
6
CONTINUOUS
10
142.986
20
-134.207
11
141.556
21
-134.207
0
LINE
8
BLACK
6
CONTINUOUS
10
141.556
20
-134.207
11
141.556
21
-131.707
0
LINE
8
BLACK
6
CONTINUOUS
10
141.556
20
-131.707
11
142.986
21
-131.707
0
LINE
8
BLACK
6
CONTINUOUS
10
142.986
20
-131.707
11
142.986
21
-134.207
0
LINE
8
BLACK
6
CONTINUOUS
10
147.143
20
-131.357
11
146.656
21
-131.357
0
LINE
8
BLACK
6
CONTINUOUS
10
146.656
20
-131.357
11
146.656
21
-132.757
0
LINE
8
BLACK
6
CONTINUOUS
10
146.656
20
-132.757
11
145.306
21
-132.757
0
LINE
8
BLACK
6
CONTINUOUS
10
145.306
20
-132.757
11
145.306
21
-130.757
0
LINE
8
BLACK
6
CONTINUOUS
10
145.306
20
-130.757
11
145.319
21
-130.757
0
LINE
8
BLACK
6
CONTINUOUS
10
145.319
20
-130.757
11
145.319
21
-130.657
0
LINE
8
BLACK
6
CONTINUOUS
10
145.319
20
-130.657
11
147.143
21
-130.657
0
LINE
8
BLACK
6
CONTINUOUS
10
147.143
20
-130.657
11
147.143
21
-131.357
0
LINE
8
BLACK
6
CONTINUOUS
10
141.194
20
-131.357
11
141.176
21
-131.357
0
LINE
8
BLACK
6
CONTINUOUS
10
141.176
20
-131.357
11
141.176
21
-132.757
0
LINE
8
BLACK
6
CONTINUOUS
10
141.176
20
-132.757
11
139.826
21
-132.757
0
LINE
8
BLACK
6
CONTINUOUS
10
139.826
20
-132.757
11
139.826
21
-131.357
0
LINE
8
BLACK
6
CONTINUOUS
10
139.826
20
-131.357
11
139.368
21
-131.357
0
LINE
8
BLACK
6
CONTINUOUS
10
139.368
20
-131.357
11
139.368
21
-130.657
0
LINE
8
BLACK
6
CONTINUOUS
10
139.368
20
-130.657
11
141.194
21
-130.657
0
LINE
8
BLACK
6
CONTINUOUS
10
141.194
20
-130.657
11
141.194
21
-131.357
0
LINE
8
BLACK
6
CONTINUOUS
10
144.081
20
-130.632
11
143.681
21
-130.632
0
LINE
8
BLACK
6
CONTINUOUS
10
143.681
20
-130.632
11
143.681
21
-128.982
0
LINE
8
BLACK
6
CONTINUOUS
10
143.681
20
-128.982
11
144.081
21
-128.982
0
LINE
8
BLACK
6
CONTINUOUS
10
144.081
20
-128.982
11
144.081
21
-130.632
0
LINE
8
BLACK
6
CONTINUOUS
10
144.731
20
-130.632
11
144.331
21
-130.632
0
LINE
8
BLACK
6
CONTINUOUS
10
144.331
20
-130.632
11
144.331
21
-128.982
0
LINE
8
BLACK
6
CONTINUOUS
10
144.331
20
-128.982
11
144.731
21
-128.982
0
LINE
8
BLACK
6
CONTINUOUS
10
144.731
20
-128.982
11
144.731
21
-130.632
0
LINE
8
BLACK
6
CONTINUOUS
10
143.431
20
-130.632
11
143.031
21
-130.632
0
LINE
8
BLACK
6
CONTINUOUS
10
143.031
20
-130.632
11
143.031
21
-128.982
0
LINE
8
BLACK
6
CONTINUOUS
10
143.031
20
-128.982
11
143.431
21
-128.982
0
LINE
8
BLACK
6
CONTINUOUS
10
143.431
20
-128.982
11
143.431
21
-130.632
0
LINE
8
BLACK
6
CONTINUOUS
10
142.781
20
-130.632
11
142.381
21
-130.632
0
LINE
8
BLACK
6
CONTINUOUS
10
142.381
20
-130.632
11
142.381
21
-128.982
0
LINE
8
BLACK
6
CONTINUOUS
10
142.381
20
-128.982
11
142.781
21
-128.982
0
LINE
8
BLACK
6
CONTINUOUS
10
142.781
20
-128.982
11
142.781
21
-130.632
0
LINE
8
BLACK
6
CONTINUOUS
10
142.131
20
-130.632
11
141.731
21
-130.632
0
LINE
8
BLACK
6
CONTINUOUS
10
141.731
20
-130.632
11
141.731
21
-128.982
0
LINE
8
BLACK
6
CONTINUOUS
10
141.731
20
-128.982
11
142.131
21
-128.982
0
LINE
8
BLACK
6
CONTINUOUS
10
142.131
20
-128.982
11
142.131
21
-130.632
0
LINE
8
BLACK
6
CONTINUOUS
10
141.381
20
-130.457
11
139.381
21
-130.457
0
LINE
8
BLACK
6
CONTINUOUS
10
139.381
20
-130.457
11
139.381
21
-128.957
0
LINE
8
BLACK
6
CONTINUOUS
10
139.381
20
-128.957
11
141.381
21
-128.957
0
LINE
8
BLACK
6
CONTINUOUS
10
141.381
20
-128.957
11
141.381
21
-130.457
0
LINE
8
BLACK
6
CONTINUOUS
10
147.131
20
-130.437
11
145.131
21
-130.437
0
LINE
8
BLACK
6
CONTINUOUS
10
145.131
20
-130.437
11
145.131
21
-128.937
0
LINE
8
BLACK
6
CONTINUOUS
10
145.131
20
-128.937
11
147.131
21
-128.937
0
LINE
8
BLACK
6
CONTINUOUS
10
147.131
20
-128.937
11
147.131
21
-130.437
0
LINE
8
BLACK
6
CONTINUOUS
10
136.266
20
-129.88
11
132.466
21
-129.88
0
LINE
8
BLACK
6
CONTINUOUS
10
132.466
20
-129.88
11
132.466
21
-127.88
0
LINE
8
BLACK
6
CONTINUOUS
10
132.466
20
-127.88
11
136.266
21
-127.88
0
LINE
8
BLACK
6
CONTINUOUS
10
136.266
20
-127.88
11
136.266
21
-129.88
0
LINE
8
BLACK
6
CONTINUOUS
10
142.189
20
-125.631
11
142.264
21
-125.674
0
LINE
8
BLACK
6
CONTINUOUS
10
142.264
20
-125.674
11
142.32
21
-125.741
0
LINE
8
BLACK
6
CONTINUOUS
10
142.32
20
-125.741
11
142.353
21
-125.866
0
LINE
8
BLACK
6
CONTINUOUS
10
142.353
20
-125.866
11
142.353
21
-126.616
0
LINE
8
BLACK
6
CONTINUOUS
10
142.353
20
-126.616
11
142.338
21
-126.702
0
LINE
8
BLACK
6
CONTINUOUS
10
142.338
20
-126.702
11
142.295
21
-126.777
0
LINE
8
BLACK
6
CONTINUOUS
10
142.295
20
-126.777
11
142.228
21
-126.833
0
LINE
8
BLACK
6
CONTINUOUS
10
142.228
20
-126.833
11
142.103
21
-126.866
0
LINE
8
BLACK
6
CONTINUOUS
10
142.103
20
-126.866
11
140.853
21
-126.866
0
LINE
8
BLACK
6
CONTINUOUS
10
140.853
20
-126.866
11
140.767
21
-126.851
0
LINE
8
BLACK
6
CONTINUOUS
10
140.767
20
-126.851
11
140.692
21
-126.808
0
LINE
8
BLACK
6
CONTINUOUS
10
140.692
20
-126.808
11
140.636
21
-126.741
0
LINE
8
BLACK
6
CONTINUOUS
10
140.636
20
-126.741
11
140.603
21
-126.616
0
LINE
8
BLACK
6
CONTINUOUS
10
140.603
20
-126.616
11
140.603
21
-125.866
0
LINE
8
BLACK
6
CONTINUOUS
10
140.603
20
-125.866
11
140.618
21
-125.78
0
LINE
8
BLACK
6
CONTINUOUS
10
140.618
20
-125.78
11
140.661
21
-125.705
0
LINE
8
BLACK
6
CONTINUOUS
10
140.661
20
-125.705
11
140.728
21
-125.649
0
LINE
8
BLACK
6
CONTINUOUS
10
140.728
20
-125.649
11
140.853
21
-125.616
0
LINE
8
BLACK
6
CONTINUOUS
10
140.853
20
-125.616
11
142.103
21
-125.616
0
LINE
8
BLACK
6
CONTINUOUS
10
142.103
20
-125.616
11
142.189
21
-125.631
0
LINE
8
BLACK
6
CONTINUOUS
10
143.841
20
-125.966
11
143.907
21
-126.004
0
LINE
8
BLACK
6
CONTINUOUS
10
143.907
20
-126.004
11
143.956
21
-126.062
0
LINE
8
BLACK
6
CONTINUOUS
10
143.956
20
-126.062
11
143.985
21
-126.172
0
LINE
8
BLACK
6
CONTINUOUS
10
143.985
20
-126.172
11
143.985
21
-126.609
0
LINE
8
BLACK
6
CONTINUOUS
10
143.985
20
-126.609
11
143.972
21
-126.684
0
LINE
8
BLACK
6
CONTINUOUS
10
143.972
20
-126.684
11
143.934
21
-126.75
0
LINE
8
BLACK
6
CONTINUOUS
10
143.934
20
-126.75
11
143.876
21
-126.799
0
LINE
8
BLACK
6
CONTINUOUS
10
143.876
20
-126.799
11
143.766
21
-126.828
0
LINE
8
BLACK
6
CONTINUOUS
10
143.766
20
-126.828
11
143.254
21
-126.828
0
LINE
8
BLACK
6
CONTINUOUS
10
143.254
20
-126.828
11
143.179
21
-126.815
0
LINE
8
BLACK
6
CONTINUOUS
10
143.179
20
-126.815
11
143.113
21
-126.777
0
LINE
8
BLACK
6
CONTINUOUS
10
143.113
20
-126.777
11
143.064
21
-126.719
0
LINE
8
BLACK
6
CONTINUOUS
10
143.064
20
-126.719
11
143.035
21
-126.609
0
LINE
8
BLACK
6
CONTINUOUS
10
143.035
20
-126.609
11
143.035
21
-126.172
0
LINE
8
BLACK
6
CONTINUOUS
10
143.035
20
-126.172
11
143.048
21
-126.097
0
LINE
8
BLACK
6
CONTINUOUS
10
143.048
20
-126.097
11
143.086
21
-126.031
0
LINE
8
BLACK
6
CONTINUOUS
10
143.086
20
-126.031
11
143.144
21
-125.982
0
LINE
8
BLACK
6
CONTINUOUS
10
143.144
20
-125.982
11
143.254
21
-125.953
0
LINE
8
BLACK
6
CONTINUOUS
10
143.254
20
-125.953
11
143.766
21
-125.953
0
LINE
8
BLACK
6
CONTINUOUS
10
143.766
20
-125.953
11
143.841
21
-125.966
0
LINE
8
BLACK
6
CONTINUOUS
10
145.492
20
-125.966
11
145.558
21
-126.004
0
LINE
8
BLACK
6
CONTINUOUS
10
145.558
20
-126.004
11
145.607
21
-126.062
0
LINE
8
BLACK
6
CONTINUOUS
10
145.607
20
-126.062
11
145.636
21
-126.172
0
LINE
8
BLACK
6
CONTINUOUS
10
145.636
20
-126.172
11
145.636
21
-126.609
0
LINE
8
BLACK
6
CONTINUOUS
10
145.636
20
-126.609
11
145.623
21
-126.684
0
LINE
8
BLACK
6
CONTINUOUS
10
145.623
20
-126.684
11
145.585
21
-126.75
0
LINE
8
BLACK
6
CONTINUOUS
10
145.585
20
-126.75
11
145.527
21
-126.799
0
LINE
8
BLACK
6
CONTINUOUS
10
145.527
20
-126.799
11
145.417
21
-126.828
0
LINE
8
BLACK
6
CONTINUOUS
10
145.417
20
-126.828
11
144.905
21
-126.828
0
LINE
8
BLACK
6
CONTINUOUS
10
144.905
20
-126.828
11
144.83
21
-126.815
0
LINE
8
BLACK
6
CONTINUOUS
10
144.83
20
-126.815
11
144.764
21
-126.777
0
LINE
8
BLACK
6
CONTINUOUS
10
144.764
20
-126.777
11
144.715
21
-126.719
0
LINE
8
BLACK
6
CONTINUOUS
10
144.715
20
-126.719
11
144.686
21
-126.609
0
LINE
8
BLACK
6
CONTINUOUS
10
144.686
20
-126.609
11
144.686
21
-126.172
0
LINE
8
BLACK
6
CONTINUOUS
10
144.686
20
-126.172
11
144.699
21
-126.097
0
LINE
8
BLACK
6
CONTINUOUS
10
144.699
20
-126.097
11
144.737
21
-126.031
0
LINE
8
BLACK
6
CONTINUOUS
10
144.737
20
-126.031
11
144.795
21
-125.982
0
LINE
8
BLACK
6
CONTINUOUS
10
144.795
20
-125.982
11
144.905
21
-125.953
0
LINE
8
BLACK
6
CONTINUOUS
10
144.905
20
-125.953
11
145.417
21
-125.953
0
LINE
8
BLACK
6
CONTINUOUS
10
145.417
20
-125.953
11
145.492
21
-125.966
0
LINE
8
BLACK
6
CONTINUOUS
10
139.426
20
-125.689
11
139.501
21
-125.732
0
LINE
8
BLACK
6
CONTINUOUS
10
139.501
20
-125.732
11
139.557
21
-125.799
0
LINE
8
BLACK
6
CONTINUOUS
10
139.557
20
-125.799
11
139.59
21
-125.924
0
LINE
8
BLACK
6
CONTINUOUS
10
139.59
20
-125.924
11
139.59
21
-126.549
0
LINE
8
BLACK
6
CONTINUOUS
10
139.59
20
-126.549
11
139.575
21
-126.635
0
LINE
8
BLACK
6
CONTINUOUS
10
139.575
20
-126.635
11
139.532
21
-126.71
0
LINE
8
BLACK
6
CONTINUOUS
10
139.532
20
-126.71
11
139.465
21
-126.766
0
LINE
8
BLACK
6
CONTINUOUS
10
139.465
20
-126.766
11
139.34
21
-126.799
0
LINE
8
BLACK
6
CONTINUOUS
10
139.34
20
-126.799
11
138.79
21
-126.799
0
LINE
8
BLACK
6
CONTINUOUS
10
138.79
20
-126.799
11
138.704
21
-126.784
0
LINE
8
BLACK
6
CONTINUOUS
10
138.704
20
-126.784
11
138.629
21
-126.741
0
LINE
8
BLACK
6
CONTINUOUS
10
138.629
20
-126.741
11
138.573
21
-126.674
0
LINE
8
BLACK
6
CONTINUOUS
10
138.573
20
-126.674
11
138.54
21
-126.549
0
LINE
8
BLACK
6
CONTINUOUS
10
138.54
20
-126.549
11
138.54
21
-125.924
0
LINE
8
BLACK
6
CONTINUOUS
10
138.54
20
-125.924
11
138.555
21
-125.838
0
LINE
8
BLACK
6
CONTINUOUS
10
138.555
20
-125.838
11
138.598
21
-125.763
0
LINE
8
BLACK
6
CONTINUOUS
10
138.598
20
-125.763
11
138.665
21
-125.707
0
LINE
8
BLACK
6
CONTINUOUS
10
138.665
20
-125.707
11
138.79
21
-125.674
0
LINE
8
BLACK
6
CONTINUOUS
10
138.79
20
-125.674
11
139.34
21
-125.674
0
LINE
8
BLACK
6
CONTINUOUS
10
139.34
20
-125.674
11
139.426
21
-125.689
0
LINE
8
BLACK
6
CONTINUOUS
10
145.492
20
-124.391
11
145.558
21
-124.429
0
LINE
8
BLACK
6
CONTINUOUS
10
145.558
20
-124.429
11
145.607
21
-124.487
0
LINE
8
BLACK
6
CONTINUOUS
10
145.607
20
-124.487
11
145.636
21
-124.597
0
LINE
8
BLACK
6
CONTINUOUS
10
145.636
20
-124.597
11
145.636
21
-125.034
0
LINE
8
BLACK
6
CONTINUOUS
10
145.636
20
-125.034
11
145.623
21
-125.109
0
LINE
8
BLACK
6
CONTINUOUS
10
145.623
20
-125.109
11
145.585
21
-125.175
0
LINE
8
BLACK
6
CONTINUOUS
10
145.585
20
-125.175
11
145.527
21
-125.224
0
LINE
8
BLACK
6
CONTINUOUS
10
145.527
20
-125.224
11
145.417
21
-125.253
0
LINE
8
BLACK
6
CONTINUOUS
10
145.417
20
-125.253
11
144.905
21
-125.253
0
LINE
8
BLACK
6
CONTINUOUS
10
144.905
20
-125.253
11
144.83
21
-125.24
0
LINE
8
BLACK
6
CONTINUOUS
10
144.83
20
-125.24
11
144.764
21
-125.202
0
LINE
8
BLACK
6
CONTINUOUS
10
144.764
20
-125.202
11
144.715
21
-125.144
0
LINE
8
BLACK
6
CONTINUOUS
10
144.715
20
-125.144
11
144.686
21
-125.034
0
LINE
8
BLACK
6
CONTINUOUS
10
144.686
20
-125.034
11
144.686
21
-124.597
0
LINE
8
BLACK
6
CONTINUOUS
10
144.686
20
-124.597
11
144.699
21
-124.522
0
LINE
8
BLACK
6
CONTINUOUS
10
144.699
20
-124.522
11
144.737
21
-124.456
0
LINE
8
BLACK
6
CONTINUOUS
10
144.737
20
-124.456
11
144.795
21
-124.407
0
LINE
8
BLACK
6
CONTINUOUS
10
144.795
20
-124.407
11
144.905
21
-124.378
0
LINE
8
BLACK
6
CONTINUOUS
10
144.905
20
-124.378
11
145.417
21
-124.378
0
LINE
8
BLACK
6
CONTINUOUS
10
145.417
20
-124.378
11
145.492
21
-124.391
0
LINE
8
BLACK
6
CONTINUOUS
10
143.841
20
-124.391
11
143.907
21
-124.429
0
LINE
8
BLACK
6
CONTINUOUS
10
143.907
20
-124.429
11
143.956
21
-124.487
0
LINE
8
BLACK
6
CONTINUOUS
10
143.956
20
-124.487
11
143.985
21
-124.597
0
LINE
8
BLACK
6
CONTINUOUS
10
143.985
20
-124.597
11
143.985
21
-125.034
0
LINE
8
BLACK
6
CONTINUOUS
10
143.985
20
-125.034
11
143.972
21
-125.109
0
LINE
8
BLACK
6
CONTINUOUS
10
143.972
20
-125.109
11
143.934
21
-125.175
0
LINE
8
BLACK
6
CONTINUOUS
10
143.934
20
-125.175
11
143.876
21
-125.224
0
LINE
8
BLACK
6
CONTINUOUS
10
143.876
20
-125.224
11
143.766
21
-125.253
0
LINE
8
BLACK
6
CONTINUOUS
10
143.766
20
-125.253
11
143.254
21
-125.253
0
LINE
8
BLACK
6
CONTINUOUS
10
143.254
20
-125.253
11
143.179
21
-125.24
0
LINE
8
BLACK
6
CONTINUOUS
10
143.179
20
-125.24
11
143.113
21
-125.202
0
LINE
8
BLACK
6
CONTINUOUS
10
143.113
20
-125.202
11
143.064
21
-125.144
0
LINE
8
BLACK
6
CONTINUOUS
10
143.064
20
-125.144
11
143.035
21
-125.034
0
LINE
8
BLACK
6
CONTINUOUS
10
143.035
20
-125.034
11
143.035
21
-124.597
0
LINE
8
BLACK
6
CONTINUOUS
10
143.035
20
-124.597
11
143.048
21
-124.522
0
LINE
8
BLACK
6
CONTINUOUS
10
143.048
20
-124.522
11
143.086
21
-124.456
0
LINE
8
BLACK
6
CONTINUOUS
10
143.086
20
-124.456
11
143.144
21
-124.407
0
LINE
8
BLACK
6
CONTINUOUS
10
143.144
20
-124.407
11
143.254
21
-124.378
0
LINE
8
BLACK
6
CONTINUOUS
10
143.254
20
-124.378
11
143.766
21
-124.378
0
LINE
8
BLACK
6
CONTINUOUS
10
143.766
20
-124.378
11
143.841
21
-124.391
0
LINE
8
BLACK
6
CONTINUOUS
10
139.426
20
-123.914
11
139.501
21
-123.957
0
LINE
8
BLACK
6
CONTINUOUS
10
139.501
20
-123.957
11
139.557
21
-124.024
0
LINE
8
BLACK
6
CONTINUOUS
10
139.557
20
-124.024
11
139.59
21
-124.149
0
LINE
8
BLACK
6
CONTINUOUS
10
139.59
20
-124.149
11
139.59
21
-124.774
0
LINE
8
BLACK
6
CONTINUOUS
10
139.59
20
-124.774
11
139.575
21
-124.86
0
LINE
8
BLACK
6
CONTINUOUS
10
139.575
20
-124.86
11
139.532
21
-124.935
0
LINE
8
BLACK
6
CONTINUOUS
10
139.532
20
-124.935
11
139.465
21
-124.991
0
LINE
8
BLACK
6
CONTINUOUS
10
139.465
20
-124.991
11
139.34
21
-125.024
0
LINE
8
BLACK
6
CONTINUOUS
10
139.34
20
-125.024
11
138.79
21
-125.024
0
LINE
8
BLACK
6
CONTINUOUS
10
138.79
20
-125.024
11
138.704
21
-125.009
0
LINE
8
BLACK
6
CONTINUOUS
10
138.704
20
-125.009
11
138.629
21
-124.966
0
LINE
8
BLACK
6
CONTINUOUS
10
138.629
20
-124.966
11
138.573
21
-124.899
0
LINE
8
BLACK
6
CONTINUOUS
10
138.573
20
-124.899
11
138.54
21
-124.774
0
LINE
8
BLACK
6
CONTINUOUS
10
138.54
20
-124.774
11
138.54
21
-124.149
0
LINE
8
BLACK
6
CONTINUOUS
10
138.54
20
-124.149
11
138.555
21
-124.063
0
LINE
8
BLACK
6
CONTINUOUS
10
138.555
20
-124.063
11
138.598
21
-123.988
0
LINE
8
BLACK
6
CONTINUOUS
10
138.598
20
-123.988
11
138.665
21
-123.932
0
LINE
8
BLACK
6
CONTINUOUS
10
138.665
20
-123.932
11
138.79
21
-123.899
0
LINE
8
BLACK
6
CONTINUOUS
10
138.79
20
-123.899
11
139.34
21
-123.899
0
LINE
8
BLACK
6
CONTINUOUS
10
139.34
20
-123.899
11
139.426
21
-123.914
0
LINE
8
BLACK
6
CONTINUOUS
10
129.774
20
-123.53
11
129.849
21
-123.573
0
LINE
8
BLACK
6
CONTINUOUS
10
129.849
20
-123.573
11
129.905
21
-123.64
0
LINE
8
BLACK
6
CONTINUOUS
10
129.905
20
-123.64
11
129.938
21
-123.765
0
LINE
8
BLACK
6
CONTINUOUS
10
129.938
20
-123.765
11
129.938
21
-124.39
0
LINE
8
BLACK
6
CONTINUOUS
10
129.938
20
-124.39
11
129.923
21
-124.476
0
LINE
8
BLACK
6
CONTINUOUS
10
129.923
20
-124.476
11
129.88
21
-124.551
0
LINE
8
BLACK
6
CONTINUOUS
10
129.88
20
-124.551
11
129.813
21
-124.607
0
LINE
8
BLACK
6
CONTINUOUS
10
129.813
20
-124.607
11
129.688
21
-124.64
0
LINE
8
BLACK
6
CONTINUOUS
10
129.688
20
-124.64
11
129.138
21
-124.64
0
LINE
8
BLACK
6
CONTINUOUS
10
129.138
20
-124.64
11
129.052
21
-124.625
0
LINE
8
BLACK
6
CONTINUOUS
10
129.052
20
-124.625
11
128.977
21
-124.582
0
LINE
8
BLACK
6
CONTINUOUS
10
128.977
20
-124.582
11
128.921
21
-124.515
0
LINE
8
BLACK
6
CONTINUOUS
10
128.921
20
-124.515
11
128.888
21
-124.39
0
LINE
8
BLACK
6
CONTINUOUS
10
128.888
20
-124.39
11
128.888
21
-123.765
0
LINE
8
BLACK
6
CONTINUOUS
10
128.888
20
-123.765
11
128.903
21
-123.679
0
LINE
8
BLACK
6
CONTINUOUS
10
128.903
20
-123.679
11
128.946
21
-123.604
0
LINE
8
BLACK
6
CONTINUOUS
10
128.946
20
-123.604
11
129.013
21
-123.548
0
LINE
8
BLACK
6
CONTINUOUS
10
129.013
20
-123.548
11
129.138
21
-123.515
0
LINE
8
BLACK
6
CONTINUOUS
10
129.138
20
-123.515
11
129.688
21
-123.515
0
LINE
8
BLACK
6
CONTINUOUS
10
129.688
20
-123.515
11
129.774
21
-123.53
0
LINE
8
BLACK
6
CONTINUOUS
10
142.189
20
-122.831
11
142.264
21
-122.874
0
LINE
8
BLACK
6
CONTINUOUS
10
142.264
20
-122.874
11
142.32
21
-122.941
0
LINE
8
BLACK
6
CONTINUOUS
10
142.32
20
-122.941
11
142.353
21
-123.066
0
LINE
8
BLACK
6
CONTINUOUS
10
142.353
20
-123.066
11
142.353
21
-123.816
0
LINE
8
BLACK
6
CONTINUOUS
10
142.353
20
-123.816
11
142.338
21
-123.902
0
LINE
8
BLACK
6
CONTINUOUS
10
142.338
20
-123.902
11
142.295
21
-123.977
0
LINE
8
BLACK
6
CONTINUOUS
10
142.295
20
-123.977
11
142.228
21
-124.033
0
LINE
8
BLACK
6
CONTINUOUS
10
142.228
20
-124.033
11
142.103
21
-124.066
0
LINE
8
BLACK
6
CONTINUOUS
10
142.103
20
-124.066
11
140.853
21
-124.066
0
LINE
8
BLACK
6
CONTINUOUS
10
140.853
20
-124.066
11
140.767
21
-124.051
0
LINE
8
BLACK
6
CONTINUOUS
10
140.767
20
-124.051
11
140.692
21
-124.008
0
LINE
8
BLACK
6
CONTINUOUS
10
140.692
20
-124.008
11
140.636
21
-123.941
0
LINE
8
BLACK
6
CONTINUOUS
10
140.636
20
-123.941
11
140.603
21
-123.816
0
LINE
8
BLACK
6
CONTINUOUS
10
140.603
20
-123.816
11
140.603
21
-123.066
0
LINE
8
BLACK
6
CONTINUOUS
10
140.603
20
-123.066
11
140.618
21
-122.98
0
LINE
8
BLACK
6
CONTINUOUS
10
140.618
20
-122.98
11
140.661
21
-122.905
0
LINE
8
BLACK
6
CONTINUOUS
10
140.661
20
-122.905
11
140.728
21
-122.849
0
LINE
8
BLACK
6
CONTINUOUS
10
140.728
20
-122.849
11
140.853
21
-122.816
0
LINE
8
BLACK
6
CONTINUOUS
10
140.853
20
-122.816
11
142.103
21
-122.816
0
LINE
8
BLACK
6
CONTINUOUS
10
142.103
20
-122.816
11
142.189
21
-122.831
0
LINE
8
BLACK
6
CONTINUOUS
10
135.116
20
-123.58
11
133.616
21
-123.58
0
LINE
8
BLACK
6
CONTINUOUS
10
133.616
20
-123.58
11
133.616
21
-121.58
0
LINE
8
BLACK
6
CONTINUOUS
10
133.616
20
-121.58
11
135.116
21
-121.58
0
LINE
8
BLACK
6
CONTINUOUS
10
135.116
20
-121.58
11
135.116
21
-123.58
0
LINE
8
BLACK
6
CONTINUOUS
10
132.816
20
-123.58
11
131.316
21
-123.58
0
LINE
8
BLACK
6
CONTINUOUS
10
131.316
20
-123.58
11
131.316
21
-121.58
0
LINE
8
BLACK
6
CONTINUOUS
10
131.316
20
-121.58
11
132.816
21
-121.58
0
LINE
8
BLACK
6
CONTINUOUS
10
132.816
20
-121.58
11
132.816
21
-123.58
0
LINE
8
BLACK
6
CONTINUOUS
10
137.416
20
-123.58
11
135.916
21
-123.58
0
LINE
8
BLACK
6
CONTINUOUS
10
135.916
20
-123.58
11
135.916
21
-121.58
0
LINE
8
BLACK
6
CONTINUOUS
10
135.916
20
-121.58
11
137.416
21
-121.58
0
LINE
8
BLACK
6
CONTINUOUS
10
137.416
20
-121.58
11
137.416
21
-123.58
0
LINE
8
BLACK
6
CONTINUOUS
10
144.857
20
-122.435
11
144.923
21
-122.473
0
LINE
8
BLACK
6
CONTINUOUS
10
144.923
20
-122.473
11
144.972
21
-122.531
0
LINE
8
BLACK
6
CONTINUOUS
10
144.972
20
-122.531
11
145.001
21
-122.641
0
LINE
8
BLACK
6
CONTINUOUS
10
145.001
20
-122.641
11
145.001
21
-123.078
0
LINE
8
BLACK
6
CONTINUOUS
10
145.001
20
-123.078
11
144.988
21
-123.153
0
LINE
8
BLACK
6
CONTINUOUS
10
144.988
20
-123.153
11
144.95
21
-123.219
0
LINE
8
BLACK
6
CONTINUOUS
10
144.95
20
-123.219
11
144.892
21
-123.268
0
LINE
8
BLACK
6
CONTINUOUS
10
144.892
20
-123.268
11
144.782
21
-123.297
0
LINE
8
BLACK
6
CONTINUOUS
10
144.782
20
-123.297
11
144.27
21
-123.297
0
LINE
8
BLACK
6
CONTINUOUS
10
144.27
20
-123.297
11
144.195
21
-123.284
0
LINE
8
BLACK
6
CONTINUOUS
10
144.195
20
-123.284
11
144.129
21
-123.246
0
LINE
8
BLACK
6
CONTINUOUS
10
144.129
20
-123.246
11
144.08
21
-123.188
0
LINE
8
BLACK
6
CONTINUOUS
10
144.08
20
-123.188
11
144.051
21
-123.078
0
LINE
8
BLACK
6
CONTINUOUS
10
144.051
20
-123.078
11
144.051
21
-122.641
0
LINE
8
BLACK
6
CONTINUOUS
10
144.051
20
-122.641
11
144.064
21
-122.566
0
LINE
8
BLACK
6
CONTINUOUS
10
144.064
20
-122.566
11
144.102
21
-122.5
0
LINE
8
BLACK
6
CONTINUOUS
10
144.102
20
-122.5
11
144.16
21
-122.451
0
LINE
8
BLACK
6
CONTINUOUS
10
144.16
20
-122.451
11
144.27
21
-122.422
0
LINE
8
BLACK
6
CONTINUOUS
10
144.27
20
-122.422
11
144.782
21
-122.422
0
LINE
8
BLACK
6
CONTINUOUS
10
144.782
20
-122.422
11
144.857
21
-122.435
0
LINE
8
BLACK
6
CONTINUOUS
10
129.774
20
-121.755
11
129.849
21
-121.798
0
LINE
8
BLACK
6
CONTINUOUS
10
129.849
20
-121.798
11
129.905
21
-121.865
0
LINE
8
BLACK
6
CONTINUOUS
10
129.905
20
-121.865
11
129.938
21
-121.99
0
LINE
8
BLACK
6
CONTINUOUS
10
129.938
20
-121.99
11
129.938
21
-122.615
0
LINE
8
BLACK
6
CONTINUOUS
10
129.938
20
-122.615
11
129.923
21
-122.701
0
LINE
8
BLACK
6
CONTINUOUS
10
129.923
20
-122.701
11
129.88
21
-122.776
0
LINE
8
BLACK
6
CONTINUOUS
10
129.88
20
-122.776
11
129.813
21
-122.832
0
LINE
8
BLACK
6
CONTINUOUS
10
129.813
20
-122.832
11
129.688
21
-122.865
0
LINE
8
BLACK
6
CONTINUOUS
10
129.688
20
-122.865
11
129.138
21
-122.865
0
LINE
8
BLACK
6
CONTINUOUS
10
129.138
20
-122.865
11
129.052
21
-122.85
0
LINE
8
BLACK
6
CONTINUOUS
10
129.052
20
-122.85
11
128.977
21
-122.807
0
LINE
8
BLACK
6
CONTINUOUS
10
128.977
20
-122.807
11
128.921
21
-122.74
0
LINE
8
BLACK
6
CONTINUOUS
10
128.921
20
-122.74
11
128.888
21
-122.615
0
LINE
8
BLACK
6
CONTINUOUS
10
128.888
20
-122.615
11
128.888
21
-121.99
0
LINE
8
BLACK
6
CONTINUOUS
10
128.888
20
-121.99
11
128.903
21
-121.904
0
LINE
8
BLACK
6
CONTINUOUS
10
128.903
20
-121.904
11
128.946
21
-121.829
0
LINE
8
BLACK
6
CONTINUOUS
10
128.946
20
-121.829
11
129.013
21
-121.773
0
LINE
8
BLACK
6
CONTINUOUS
10
129.013
20
-121.773
11
129.138
21
-121.74
0
LINE
8
BLACK
6
CONTINUOUS
10
129.138
20
-121.74
11
129.688
21
-121.74
0
LINE
8
BLACK
6
CONTINUOUS
10
129.688
20
-121.74
11
129.774
21
-121.755
0
LINE
8
BLACK
6
CONTINUOUS
10
141.839
20
-120.736
11
141.914
21
-120.779
0
LINE
8
BLACK
6
CONTINUOUS
10
141.914
20
-120.779
11
141.97
21
-120.846
0
LINE
8
BLACK
6
CONTINUOUS
10
141.97
20
-120.846
11
142.003
21
-120.971
0
LINE
8
BLACK
6
CONTINUOUS
10
142.003
20
-120.971
11
142.003
21
-121.596
0
LINE
8
BLACK
6
CONTINUOUS
10
142.003
20
-121.596
11
141.988
21
-121.682
0
LINE
8
BLACK
6
CONTINUOUS
10
141.988
20
-121.682
11
141.945
21
-121.757
0
LINE
8
BLACK
6
CONTINUOUS
10
141.945
20
-121.757
11
141.878
21
-121.813
0
LINE
8
BLACK
6
CONTINUOUS
10
141.878
20
-121.813
11
141.753
21
-121.846
0
LINE
8
BLACK
6
CONTINUOUS
10
141.753
20
-121.846
11
141.203
21
-121.846
0
LINE
8
BLACK
6
CONTINUOUS
10
141.203
20
-121.846
11
141.117
21
-121.831
0
LINE
8
BLACK
6
CONTINUOUS
10
141.117
20
-121.831
11
141.042
21
-121.788
0
LINE
8
BLACK
6
CONTINUOUS
10
141.042
20
-121.788
11
140.986
21
-121.721
0
LINE
8
BLACK
6
CONTINUOUS
10
140.986
20
-121.721
11
140.953
21
-121.596
0
LINE
8
BLACK
6
CONTINUOUS
10
140.953
20
-121.596
11
140.953
21
-120.971
0
LINE
8
BLACK
6
CONTINUOUS
10
140.953
20
-120.971
11
140.968
21
-120.885
0
LINE
8
BLACK
6
CONTINUOUS
10
140.968
20
-120.885
11
141.011
21
-120.81
0
LINE
8
BLACK
6
CONTINUOUS
10
141.011
20
-120.81
11
141.078
21
-120.754
0
LINE
8
BLACK
6
CONTINUOUS
10
141.078
20
-120.754
11
141.203
21
-120.721
0
LINE
8
BLACK
6
CONTINUOUS
10
141.203
20
-120.721
11
141.753
21
-120.721
0
LINE
8
BLACK
6
CONTINUOUS
10
141.753
20
-120.721
11
141.839
21
-120.736
0
LINE
8
BLACK
6
CONTINUOUS
10
139.65
20
-120.886
11
139.716
21
-120.924
0
LINE
8
BLACK
6
CONTINUOUS
10
139.716
20
-120.924
11
139.765
21
-120.982
0
LINE
8
BLACK
6
CONTINUOUS
10
139.765
20
-120.982
11
139.794
21
-121.092
0
LINE
8
BLACK
6
CONTINUOUS
10
139.794
20
-121.092
11
139.794
21
-121.529
0
LINE
8
BLACK
6
CONTINUOUS
10
139.794
20
-121.529
11
139.781
21
-121.604
0
LINE
8
BLACK
6
CONTINUOUS
10
139.781
20
-121.604
11
139.743
21
-121.67
0
LINE
8
BLACK
6
CONTINUOUS
10
139.743
20
-121.67
11
139.685
21
-121.719
0
LINE
8
BLACK
6
CONTINUOUS
10
139.685
20
-121.719
11
139.575
21
-121.748
0
LINE
8
BLACK
6
CONTINUOUS
10
139.575
20
-121.748
11
139.063
21
-121.748
0
LINE
8
BLACK
6
CONTINUOUS
10
139.063
20
-121.748
11
138.988
21
-121.735
0
LINE
8
BLACK
6
CONTINUOUS
10
138.988
20
-121.735
11
138.922
21
-121.697
0
LINE
8
BLACK
6
CONTINUOUS
10
138.922
20
-121.697
11
138.873
21
-121.639
0
LINE
8
BLACK
6
CONTINUOUS
10
138.873
20
-121.639
11
138.844
21
-121.529
0
LINE
8
BLACK
6
CONTINUOUS
10
138.844
20
-121.529
11
138.844
21
-121.092
0
LINE
8
BLACK
6
CONTINUOUS
10
138.844
20
-121.092
11
138.857
21
-121.017
0
LINE
8
BLACK
6
CONTINUOUS
10
138.857
20
-121.017
11
138.895
21
-120.951
0
LINE
8
BLACK
6
CONTINUOUS
10
138.895
20
-120.951
11
138.953
21
-120.902
0
LINE
8
BLACK
6
CONTINUOUS
10
138.953
20
-120.902
11
139.063
21
-120.873
0
LINE
8
BLACK
6
CONTINUOUS
10
139.063
20
-120.873
11
139.575
21
-120.873
0
LINE
8
BLACK
6
CONTINUOUS
10
139.575
20
-120.873
11
139.65
21
-120.886
0
LINE
8
BLACK
6
CONTINUOUS
10
144.857
20
-120.86
11
144.923
21
-120.898
0
LINE
8
BLACK
6
CONTINUOUS
10
144.923
20
-120.898
11
144.972
21
-120.956
0
LINE
8
BLACK
6
CONTINUOUS
10
144.972
20
-120.956
11
145.001
21
-121.066
0
LINE
8
BLACK
6
CONTINUOUS
10
145.001
20
-121.066
11
145.001
21
-121.503
0
LINE
8
BLACK
6
CONTINUOUS
10
145.001
20
-121.503
11
144.988
21
-121.578
0
LINE
8
BLACK
6
CONTINUOUS
10
144.988
20
-121.578
11
144.95
21
-121.644
0
LINE
8
BLACK
6
CONTINUOUS
10
144.95
20
-121.644
11
144.892
21
-121.693
0
LINE
8
BLACK
6
CONTINUOUS
10
144.892
20
-121.693
11
144.782
21
-121.722
0
LINE
8
BLACK
6
CONTINUOUS
10
144.782
20
-121.722
11
144.27
21
-121.722
0
LINE
8
BLACK
6
CONTINUOUS
10
144.27
20
-121.722
11
144.195
21
-121.709
0
LINE
8
BLACK
6
CONTINUOUS
10
144.195
20
-121.709
11
144.129
21
-121.671
0
LINE
8
BLACK
6
CONTINUOUS
10
144.129
20
-121.671
11
144.08
21
-121.613
0
LINE
8
BLACK
6
CONTINUOUS
10
144.08
20
-121.613
11
144.051
21
-121.503
0
LINE
8
BLACK
6
CONTINUOUS
10
144.051
20
-121.503
11
144.051
21
-121.066
0
LINE
8
BLACK
6
CONTINUOUS
10
144.051
20
-121.066
11
144.064
21
-120.991
0
LINE
8
BLACK
6
CONTINUOUS
10
144.064
20
-120.991
11
144.102
21
-120.925
0
LINE
8
BLACK
6
CONTINUOUS
10
144.102
20
-120.925
11
144.16
21
-120.876
0
LINE
8
BLACK
6
CONTINUOUS
10
144.16
20
-120.876
11
144.27
21
-120.847
0
LINE
8
BLACK
6
CONTINUOUS
10
144.27
20
-120.847
11
144.782
21
-120.847
0
LINE
8
BLACK
6
CONTINUOUS
10
144.782
20
-120.847
11
144.857
21
-120.86
0
LINE
8
BLACK
6
CONTINUOUS
10
139.65
20
-119.311
11
139.716
21
-119.349
0
LINE
8
BLACK
6
CONTINUOUS
10
139.716
20
-119.349
11
139.765
21
-119.407
0
LINE
8
BLACK
6
CONTINUOUS
10
139.765
20
-119.407
11
139.794
21
-119.517
0
LINE
8
BLACK
6
CONTINUOUS
10
139.794
20
-119.517
11
139.794
21
-119.954
0
LINE
8
BLACK
6
CONTINUOUS
10
139.794
20
-119.954
11
139.781
21
-120.029
0
LINE
8
BLACK
6
CONTINUOUS
10
139.781
20
-120.029
11
139.743
21
-120.095
0
LINE
8
BLACK
6
CONTINUOUS
10
139.743
20
-120.095
11
139.685
21
-120.144
0
LINE
8
BLACK
6
CONTINUOUS
10
139.685
20
-120.144
11
139.575
21
-120.173
0
LINE
8
BLACK
6
CONTINUOUS
10
139.575
20
-120.173
11
139.063
21
-120.173
0
LINE
8
BLACK
6
CONTINUOUS
10
139.063
20
-120.173
11
138.988
21
-120.16
0
LINE
8
BLACK
6
CONTINUOUS
10
138.988
20
-120.16
11
138.922
21
-120.122
0
LINE
8
BLACK
6
CONTINUOUS
10
138.922
20
-120.122
11
138.873
21
-120.064
0
LINE
8
BLACK
6
CONTINUOUS
10
138.873
20
-120.064
11
138.844
21
-119.954
0
LINE
8
BLACK
6
CONTINUOUS
10
138.844
20
-119.954
11
138.844
21
-119.517
0
LINE
8
BLACK
6
CONTINUOUS
10
138.844
20
-119.517
11
138.857
21
-119.442
0
LINE
8
BLACK
6
CONTINUOUS
10
138.857
20
-119.442
11
138.895
21
-119.376
0
LINE
8
BLACK
6
CONTINUOUS
10
138.895
20
-119.376
11
138.953
21
-119.327
0
LINE
8
BLACK
6
CONTINUOUS
10
138.953
20
-119.327
11
139.063
21
-119.298
0
LINE
8
BLACK
6
CONTINUOUS
10
139.063
20
-119.298
11
139.575
21
-119.298
0
LINE
8
BLACK
6
CONTINUOUS
10
139.575
20
-119.298
11
139.65
21
-119.311
0
LINE
8
BLACK
6
CONTINUOUS
10
150.895
20
-119.124
11
150.97
21
-119.167
0
LINE
8
BLACK
6
CONTINUOUS
10
150.97
20
-119.167
11
151.026
21
-119.234
0
LINE
8
BLACK
6
CONTINUOUS
10
151.026
20
-119.234
11
151.059
21
-119.359
0
LINE
8
BLACK
6
CONTINUOUS
10
151.059
20
-119.359
11
151.059
21
-119.909
0
LINE
8
BLACK
6
CONTINUOUS
10
151.059
20
-119.909
11
151.044
21
-119.995
0
LINE
8
BLACK
6
CONTINUOUS
10
151.044
20
-119.995
11
151.001
21
-120.07
0
LINE
8
BLACK
6
CONTINUOUS
10
151.001
20
-120.07
11
150.934
21
-120.126
0
LINE
8
BLACK
6
CONTINUOUS
10
150.934
20
-120.126
11
150.809
21
-120.159
0
LINE
8
BLACK
6
CONTINUOUS
10
150.809
20
-120.159
11
150.184
21
-120.159
0
LINE
8
BLACK
6
CONTINUOUS
10
150.184
20
-120.159
11
150.098
21
-120.144
0
LINE
8
BLACK
6
CONTINUOUS
10
150.098
20
-120.144
11
150.023
21
-120.101
0
LINE
8
BLACK
6
CONTINUOUS
10
150.023
20
-120.101
11
149.967
21
-120.034
0
LINE
8
BLACK
6
CONTINUOUS
10
149.967
20
-120.034
11
149.934
21
-119.909
0
LINE
8
BLACK
6
CONTINUOUS
10
149.934
20
-119.909
11
149.934
21
-119.359
0
LINE
8
BLACK
6
CONTINUOUS
10
149.934
20
-119.359
11
149.949
21
-119.273
0
LINE
8
BLACK
6
CONTINUOUS
10
149.949
20
-119.273
11
149.992
21
-119.198
0
LINE
8
BLACK
6
CONTINUOUS
10
149.992
20
-119.198
11
150.059
21
-119.142
0
LINE
8
BLACK
6
CONTINUOUS
10
150.059
20
-119.142
11
150.184
21
-119.109
0
LINE
8
BLACK
6
CONTINUOUS
10
150.184
20
-119.109
11
150.809
21
-119.109
0
LINE
8
BLACK
6
CONTINUOUS
10
150.809
20
-119.109
11
150.895
21
-119.124
0
LINE
8
BLACK
6
CONTINUOUS
10
156.734
20
-119.124
11
156.809
21
-119.167
0
LINE
8
BLACK
6
CONTINUOUS
10
156.809
20
-119.167
11
156.865
21
-119.234
0
LINE
8
BLACK
6
CONTINUOUS
10
156.865
20
-119.234
11
156.898
21
-119.359
0
LINE
8
BLACK
6
CONTINUOUS
10
156.898
20
-119.359
11
156.898
21
-119.909
0
LINE
8
BLACK
6
CONTINUOUS
10
156.898
20
-119.909
11
156.883
21
-119.995
0
LINE
8
BLACK
6
CONTINUOUS
10
156.883
20
-119.995
11
156.84
21
-120.07
0
LINE
8
BLACK
6
CONTINUOUS
10
156.84
20
-120.07
11
156.773
21
-120.126
0
LINE
8
BLACK
6
CONTINUOUS
10
156.773
20
-120.126
11
156.648
21
-120.159
0
LINE
8
BLACK
6
CONTINUOUS
10
156.648
20
-120.159
11
156.023
21
-120.159
0
LINE
8
BLACK
6
CONTINUOUS
10
156.023
20
-120.159
11
155.937
21
-120.144
0
LINE
8
BLACK
6
CONTINUOUS
10
155.937
20
-120.144
11
155.862
21
-120.101
0
LINE
8
BLACK
6
CONTINUOUS
10
155.862
20
-120.101
11
155.806
21
-120.034
0
LINE
8
BLACK
6
CONTINUOUS
10
155.806
20
-120.034
11
155.773
21
-119.909
0
LINE
8
BLACK
6
CONTINUOUS
10
155.773
20
-119.909
11
155.773
21
-119.359
0
LINE
8
BLACK
6
CONTINUOUS
10
155.773
20
-119.359
11
155.788
21
-119.273
0
LINE
8
BLACK
6
CONTINUOUS
10
155.788
20
-119.273
11
155.831
21
-119.198
0
LINE
8
BLACK
6
CONTINUOUS
10
155.831
20
-119.198
11
155.898
21
-119.142
0
LINE
8
BLACK
6
CONTINUOUS
10
155.898
20
-119.142
11
156.023
21
-119.109
0
LINE
8
BLACK
6
CONTINUOUS
10
156.023
20
-119.109
11
156.648
21
-119.109
0
LINE
8
BLACK
6
CONTINUOUS
10
156.648
20
-119.109
11
156.734
21
-119.124
0
LINE
8
BLACK
6
CONTINUOUS
10
154.959
20
-119.124
11
155.034
21
-119.167
0
LINE
8
BLACK
6
CONTINUOUS
10
155.034
20
-119.167
11
155.09
21
-119.234
0
LINE
8
BLACK
6
CONTINUOUS
10
155.09
20
-119.234
11
155.123
21
-119.359
0
LINE
8
BLACK
6
CONTINUOUS
10
155.123
20
-119.359
11
155.123
21
-119.909
0
LINE
8
BLACK
6
CONTINUOUS
10
155.123
20
-119.909
11
155.108
21
-119.995
0
LINE
8
BLACK
6
CONTINUOUS
10
155.108
20
-119.995
11
155.065
21
-120.07
0
LINE
8
BLACK
6
CONTINUOUS
10
155.065
20
-120.07
11
154.998
21
-120.126
0
LINE
8
BLACK
6
CONTINUOUS
10
154.998
20
-120.126
11
154.873
21
-120.159
0
LINE
8
BLACK
6
CONTINUOUS
10
154.873
20
-120.159
11
154.248
21
-120.159
0
LINE
8
BLACK
6
CONTINUOUS
10
154.248
20
-120.159
11
154.162
21
-120.144
0
LINE
8
BLACK
6
CONTINUOUS
10
154.162
20
-120.144
11
154.087
21
-120.101
0
LINE
8
BLACK
6
CONTINUOUS
10
154.087
20
-120.101
11
154.031
21
-120.034
0
LINE
8
BLACK
6
CONTINUOUS
10
154.031
20
-120.034
11
153.998
21
-119.909
0
LINE
8
BLACK
6
CONTINUOUS
10
153.998
20
-119.909
11
153.998
21
-119.359
0
LINE
8
BLACK
6
CONTINUOUS
10
153.998
20
-119.359
11
154.013
21
-119.273
0
LINE
8
BLACK
6
CONTINUOUS
10
154.013
20
-119.273
11
154.056
21
-119.198
0
LINE
8
BLACK
6
CONTINUOUS
10
154.056
20
-119.198
11
154.123
21
-119.142
0
LINE
8
BLACK
6
CONTINUOUS
10
154.123
20
-119.142
11
154.248
21
-119.109
0
LINE
8
BLACK
6
CONTINUOUS
10
154.248
20
-119.109
11
154.873
21
-119.109
0
LINE
8
BLACK
6
CONTINUOUS
10
154.873
20
-119.109
11
154.959
21
-119.124
0
LINE
8
BLACK
6
CONTINUOUS
10
152.67
20
-119.124
11
152.745
21
-119.167
0
LINE
8
BLACK
6
CONTINUOUS
10
152.745
20
-119.167
11
152.801
21
-119.234
0
LINE
8
BLACK
6
CONTINUOUS
10
152.801
20
-119.234
11
152.834
21
-119.359
0
LINE
8
BLACK
6
CONTINUOUS
10
152.834
20
-119.359
11
152.834
21
-119.909
0
LINE
8
BLACK
6
CONTINUOUS
10
152.834
20
-119.909
11
152.819
21
-119.995
0
LINE
8
BLACK
6
CONTINUOUS
10
152.819
20
-119.995
11
152.776
21
-120.07
0
LINE
8
BLACK
6
CONTINUOUS
10
152.776
20
-120.07
11
152.709
21
-120.126
0
LINE
8
BLACK
6
CONTINUOUS
10
152.709
20
-120.126
11
152.584
21
-120.159
0
LINE
8
BLACK
6
CONTINUOUS
10
152.584
20
-120.159
11
151.959
21
-120.159
0
LINE
8
BLACK
6
CONTINUOUS
10
151.959
20
-120.159
11
151.873
21
-120.144
0
LINE
8
BLACK
6
CONTINUOUS
10
151.873
20
-120.144
11
151.798
21
-120.101
0
LINE
8
BLACK
6
CONTINUOUS
10
151.798
20
-120.101
11
151.742
21
-120.034
0
LINE
8
BLACK
6
CONTINUOUS
10
151.742
20
-120.034
11
151.709
21
-119.909
0
LINE
8
BLACK
6
CONTINUOUS
10
151.709
20
-119.909
11
151.709
21
-119.359
0
LINE
8
BLACK
6
CONTINUOUS
10
151.709
20
-119.359
11
151.724
21
-119.273
0
LINE
8
BLACK
6
CONTINUOUS
10
151.724
20
-119.273
11
151.767
21
-119.198
0
LINE
8
BLACK
6
CONTINUOUS
10
151.767
20
-119.198
11
151.834
21
-119.142
0
LINE
8
BLACK
6
CONTINUOUS
10
151.834
20
-119.142
11
151.959
21
-119.109
0
LINE
8
BLACK
6
CONTINUOUS
10
151.959
20
-119.109
11
152.584
21
-119.109
0
LINE
8
BLACK
6
CONTINUOUS
10
152.584
20
-119.109
11
152.67
21
-119.124
0
LINE
8
BLACK
6
CONTINUOUS
10
147.016
20
-119.235
11
147.082
21
-119.273
0
LINE
8
BLACK
6
CONTINUOUS
10
147.082
20
-119.273
11
147.131
21
-119.331
0
LINE
8
BLACK
6
CONTINUOUS
10
147.131
20
-119.331
11
147.16
21
-119.441
0
LINE
8
BLACK
6
CONTINUOUS
10
147.16
20
-119.441
11
147.16
21
-119.878
0
LINE
8
BLACK
6
CONTINUOUS
10
147.16
20
-119.878
11
147.147
21
-119.953
0
LINE
8
BLACK
6
CONTINUOUS
10
147.147
20
-119.953
11
147.109
21
-120.019
0
LINE
8
BLACK
6
CONTINUOUS
10
147.109
20
-120.019
11
147.051
21
-120.068
0
LINE
8
BLACK
6
CONTINUOUS
10
147.051
20
-120.068
11
146.941
21
-120.097
0
LINE
8
BLACK
6
CONTINUOUS
10
146.941
20
-120.097
11
146.429
21
-120.097
0
LINE
8
BLACK
6
CONTINUOUS
10
146.429
20
-120.097
11
146.354
21
-120.084
0
LINE
8
BLACK
6
CONTINUOUS
10
146.354
20
-120.084
11
146.288
21
-120.046
0
LINE
8
BLACK
6
CONTINUOUS
10
146.288
20
-120.046
11
146.239
21
-119.988
0
LINE
8
BLACK
6
CONTINUOUS
10
146.239
20
-119.988
11
146.21
21
-119.878
0
LINE
8
BLACK
6
CONTINUOUS
10
146.21
20
-119.878
11
146.21
21
-119.441
0
LINE
8
BLACK
6
CONTINUOUS
10
146.21
20
-119.441
11
146.223
21
-119.366
0
LINE
8
BLACK
6
CONTINUOUS
10
146.223
20
-119.366
11
146.261
21
-119.3
0
LINE
8
BLACK
6
CONTINUOUS
10
146.261
20
-119.3
11
146.319
21
-119.251
0
LINE
8
BLACK
6
CONTINUOUS
10
146.319
20
-119.251
11
146.429
21
-119.222
0
LINE
8
BLACK
6
CONTINUOUS
10
146.429
20
-119.222
11
146.941
21
-119.222
0
LINE
8
BLACK
6
CONTINUOUS
10
146.941
20
-119.222
11
147.016
21
-119.235
0
LINE
8
BLACK
6
CONTINUOUS
10
141.839
20
-118.961
11
141.914
21
-119.004
0
LINE
8
BLACK
6
CONTINUOUS
10
141.914
20
-119.004
11
141.97
21
-119.071
0
LINE
8
BLACK
6
CONTINUOUS
10
141.97
20
-119.071
11
142.003
21
-119.196
0
LINE
8
BLACK
6
CONTINUOUS
10
142.003
20
-119.196
11
142.003
21
-119.821
0
LINE
8
BLACK
6
CONTINUOUS
10
142.003
20
-119.821
11
141.988
21
-119.907
0
LINE
8
BLACK
6
CONTINUOUS
10
141.988
20
-119.907
11
141.945
21
-119.982
0
LINE
8
BLACK
6
CONTINUOUS
10
141.945
20
-119.982
11
141.878
21
-120.038
0
LINE
8
BLACK
6
CONTINUOUS
10
141.878
20
-120.038
11
141.753
21
-120.071
0
LINE
8
BLACK
6
CONTINUOUS
10
141.753
20
-120.071
11
141.203
21
-120.071
0
LINE
8
BLACK
6
CONTINUOUS
10
141.203
20
-120.071
11
141.117
21
-120.056
0
LINE
8
BLACK
6
CONTINUOUS
10
141.117
20
-120.056
11
141.042
21
-120.013
0
LINE
8
BLACK
6
CONTINUOUS
10
141.042
20
-120.013
11
140.986
21
-119.946
0
LINE
8
BLACK
6
CONTINUOUS
10
140.986
20
-119.946
11
140.953
21
-119.821
0
LINE
8
BLACK
6
CONTINUOUS
10
140.953
20
-119.821
11
140.953
21
-119.196
0
LINE
8
BLACK
6
CONTINUOUS
10
140.953
20
-119.196
11
140.968
21
-119.11
0
LINE
8
BLACK
6
CONTINUOUS
10
140.968
20
-119.11
11
141.011
21
-119.035
0
LINE
8
BLACK
6
CONTINUOUS
10
141.011
20
-119.035
11
141.078
21
-118.979
0
LINE
8
BLACK
6
CONTINUOUS
10
141.078
20
-118.979
11
141.203
21
-118.946
0
LINE
8
BLACK
6
CONTINUOUS
10
141.203
20
-118.946
11
141.753
21
-118.946
0
LINE
8
BLACK
6
CONTINUOUS
10
141.753
20
-118.946
11
141.839
21
-118.961
0
LINE
8
BLACK
6
CONTINUOUS
10
127.772
20
-119.994
11
127.122
21
-119.994
0
LINE
8
BLACK
6
CONTINUOUS
10
127.122
20
-119.994
11
127.122
21
-118.934
0
LINE
8
BLACK
6
CONTINUOUS
10
127.122
20
-118.934
11
127.772
21
-118.934
0
LINE
8
BLACK
6
CONTINUOUS
10
127.772
20
-118.934
11
127.772
21
-119.994
0
LINE
8
BLACK
6
CONTINUOUS
10
128.722
20
-119.994
11
128.072
21
-119.994
0
LINE
8
BLACK
6
CONTINUOUS
10
128.072
20
-119.994
11
128.072
21
-118.934
0
LINE
8
BLACK
6
CONTINUOUS
10
128.072
20
-118.934
11
128.722
21
-118.934
0
LINE
8
BLACK
6
CONTINUOUS
10
128.722
20
-118.934
11
128.722
21
-119.994
0
LINE
8
BLACK
6
CONTINUOUS
10
137.292
20
-119.994
11
136.642
21
-119.994
0
LINE
8
BLACK
6
CONTINUOUS
10
136.642
20
-119.994
11
136.642
21
-118.934
0
LINE
8
BLACK
6
CONTINUOUS
10
136.642
20
-118.934
11
137.292
21
-118.934
0
LINE
8
BLACK
6
CONTINUOUS
10
137.292
20
-118.934
11
137.292
21
-119.994
0
LINE
8
BLACK
6
CONTINUOUS
10
136.342
20
-119.994
11
135.692
21
-119.994
0
LINE
8
BLACK
6
CONTINUOUS
10
135.692
20
-119.994
11
135.692
21
-118.934
0
LINE
8
BLACK
6
CONTINUOUS
10
135.692
20
-118.934
11
136.342
21
-118.934
0
LINE
8
BLACK
6
CONTINUOUS
10
136.342
20
-118.934
11
136.342
21
-119.994
0
LINE
8
BLACK
6
CONTINUOUS
10
135.392
20
-119.994
11
134.742
21
-119.994
0
LINE
8
BLACK
6
CONTINUOUS
10
134.742
20
-119.994
11
134.742
21
-118.934
0
LINE
8
BLACK
6
CONTINUOUS
10
134.742
20
-118.934
11
135.392
21
-118.934
0
LINE
8
BLACK
6
CONTINUOUS
10
135.392
20
-118.934
11
135.392
21
-119.994
0
LINE
8
BLACK
6
CONTINUOUS
10
129.672
20
-119.994
11
129.022
21
-119.994
0
LINE
8
BLACK
6
CONTINUOUS
10
129.022
20
-119.994
11
129.022
21
-118.934
0
LINE
8
BLACK
6
CONTINUOUS
10
129.022
20
-118.934
11
129.672
21
-118.934
0
LINE
8
BLACK
6
CONTINUOUS
10
129.672
20
-118.934
11
129.672
21
-119.994
0
LINE
8
BLACK
6
CONTINUOUS
10
133.482
20
-119.994
11
132.832
21
-119.994
0
LINE
8
BLACK
6
CONTINUOUS
10
132.832
20
-119.994
11
132.832
21
-118.934
0
LINE
8
BLACK
6
CONTINUOUS
10
132.832
20
-118.934
11
133.482
21
-118.934
0
LINE
8
BLACK
6
CONTINUOUS
10
133.482
20
-118.934
11
133.482
21
-119.994
0
LINE
8
BLACK
6
CONTINUOUS
10
132.532
20
-119.994
11
131.882
21
-119.994
0
LINE
8
BLACK
6
CONTINUOUS
10
131.882
20
-119.994
11
131.882
21
-118.934
0
LINE
8
BLACK
6
CONTINUOUS
10
131.882
20
-118.934
11
132.532
21
-118.934
0
LINE
8
BLACK
6
CONTINUOUS
10
132.532
20
-118.934
11
132.532
21
-119.994
0
LINE
8
BLACK
6
CONTINUOUS
10
131.582
20
-119.994
11
130.932
21
-119.994
0
LINE
8
BLACK
6
CONTINUOUS
10
130.932
20
-119.994
11
130.932
21
-118.934
0
LINE
8
BLACK
6
CONTINUOUS
10
130.932
20
-118.934
11
131.582
21
-118.934
0
LINE
8
BLACK
6
CONTINUOUS
10
131.582
20
-118.934
11
131.582
21
-119.994
0
LINE
8
BLACK
6
CONTINUOUS
10
125.807
20
-119.108
11
125.873
21
-119.146
0
LINE
8
BLACK
6
CONTINUOUS
10
125.873
20
-119.146
11
125.922
21
-119.204
0
LINE
8
BLACK
6
CONTINUOUS
10
125.922
20
-119.204
11
125.951
21
-119.314
0
LINE
8
BLACK
6
CONTINUOUS
10
125.951
20
-119.314
11
125.951
21
-119.751
0
LINE
8
BLACK
6
CONTINUOUS
10
125.951
20
-119.751
11
125.938
21
-119.826
0
LINE
8
BLACK
6
CONTINUOUS
10
125.938
20
-119.826
11
125.9
21
-119.892
0
LINE
8
BLACK
6
CONTINUOUS
10
125.9
20
-119.892
11
125.842
21
-119.941
0
LINE
8
BLACK
6
CONTINUOUS
10
125.842
20
-119.941
11
125.732
21
-119.97
0
LINE
8
BLACK
6
CONTINUOUS
10
125.732
20
-119.97
11
125.22
21
-119.97
0
LINE
8
BLACK
6
CONTINUOUS
10
125.22
20
-119.97
11
125.145
21
-119.957
0
LINE
8
BLACK
6
CONTINUOUS
10
125.145
20
-119.957
11
125.079
21
-119.919
0
LINE
8
BLACK
6
CONTINUOUS
10
125.079
20
-119.919
11
125.03
21
-119.861
0
LINE
8
BLACK
6
CONTINUOUS
10
125.03
20
-119.861
11
125.001
21
-119.751
0
LINE
8
BLACK
6
CONTINUOUS
10
125.001
20
-119.751
11
125.001
21
-119.314
0
LINE
8
BLACK
6
CONTINUOUS
10
125.001
20
-119.314
11
125.014
21
-119.239
0
LINE
8
BLACK
6
CONTINUOUS
10
125.014
20
-119.239
11
125.052
21
-119.173
0
LINE
8
BLACK
6
CONTINUOUS
10
125.052
20
-119.173
11
125.11
21
-119.124
0
LINE
8
BLACK
6
CONTINUOUS
10
125.11
20
-119.124
11
125.22
21
-119.095
0
LINE
8
BLACK
6
CONTINUOUS
10
125.22
20
-119.095
11
125.732
21
-119.095
0
LINE
8
BLACK
6
CONTINUOUS
10
125.732
20
-119.095
11
125.807
21
-119.108
0
LINE
8
BLACK
6
CONTINUOUS
10
147.016
20
-117.66
11
147.082
21
-117.698
0
LINE
8
BLACK
6
CONTINUOUS
10
147.082
20
-117.698
11
147.131
21
-117.756
0
LINE
8
BLACK
6
CONTINUOUS
10
147.131
20
-117.756
11
147.16
21
-117.866
0
LINE
8
BLACK
6
CONTINUOUS
10
147.16
20
-117.866
11
147.16
21
-118.303
0
LINE
8
BLACK
6
CONTINUOUS
10
147.16
20
-118.303
11
147.147
21
-118.378
0
LINE
8
BLACK
6
CONTINUOUS
10
147.147
20
-118.378
11
147.109
21
-118.444
0
LINE
8
BLACK
6
CONTINUOUS
10
147.109
20
-118.444
11
147.051
21
-118.493
0
LINE
8
BLACK
6
CONTINUOUS
10
147.051
20
-118.493
11
146.941
21
-118.522
0
LINE
8
BLACK
6
CONTINUOUS
10
146.941
20
-118.522
11
146.429
21
-118.522
0
LINE
8
BLACK
6
CONTINUOUS
10
146.429
20
-118.522
11
146.354
21
-118.509
0
LINE
8
BLACK
6
CONTINUOUS
10
146.354
20
-118.509
11
146.288
21
-118.471
0
LINE
8
BLACK
6
CONTINUOUS
10
146.288
20
-118.471
11
146.239
21
-118.413
0
LINE
8
BLACK
6
CONTINUOUS
10
146.239
20
-118.413
11
146.21
21
-118.303
0
LINE
8
BLACK
6
CONTINUOUS
10
146.21
20
-118.303
11
146.21
21
-117.866
0
LINE
8
BLACK
6
CONTINUOUS
10
146.21
20
-117.866
11
146.223
21
-117.791
0
LINE
8
BLACK
6
CONTINUOUS
10
146.223
20
-117.791
11
146.261
21
-117.725
0
LINE
8
BLACK
6
CONTINUOUS
10
146.261
20
-117.725
11
146.319
21
-117.676
0
LINE
8
BLACK
6
CONTINUOUS
10
146.319
20
-117.676
11
146.429
21
-117.647
0
LINE
8
BLACK
6
CONTINUOUS
10
146.429
20
-117.647
11
146.941
21
-117.647
0
LINE
8
BLACK
6
CONTINUOUS
10
146.941
20
-117.647
11
147.016
21
-117.66
0
LINE
8
BLACK
6
CONTINUOUS
10
150.91
20
-118.464
11
150.36
21
-118.464
0
LINE
8
BLACK
6
CONTINUOUS
10
150.36
20
-118.464
11
150.36
21
-116.964
0
LINE
8
BLACK
6
CONTINUOUS
10
150.36
20
-116.964
11
150.91
21
-116.964
0
LINE
8
BLACK
6
CONTINUOUS
10
150.91
20
-116.964
11
150.91
21
-118.464
0
LINE
8
BLACK
6
CONTINUOUS
10
151.71
20
-118.464
11
151.16
21
-118.464
0
LINE
8
BLACK
6
CONTINUOUS
10
151.16
20
-118.464
11
151.16
21
-116.964
0
LINE
8
BLACK
6
CONTINUOUS
10
151.16
20
-116.964
11
151.71
21
-116.964
0
LINE
8
BLACK
6
CONTINUOUS
10
151.71
20
-116.964
11
151.71
21
-118.464
0
LINE
8
BLACK
6
CONTINUOUS
10
152.51
20
-118.464
11
151.96
21
-118.464
0
LINE
8
BLACK
6
CONTINUOUS
10
151.96
20
-118.464
11
151.96
21
-116.964
0
LINE
8
BLACK
6
CONTINUOUS
10
151.96
20
-116.964
11
152.51
21
-116.964
0
LINE
8
BLACK
6
CONTINUOUS
10
152.51
20
-116.964
11
152.51
21
-118.464
0
LINE
8
BLACK
6
CONTINUOUS
10
153.31
20
-118.464
11
152.76
21
-118.464
0
LINE
8
BLACK
6
CONTINUOUS
10
152.76
20
-118.464
11
152.76
21
-116.964
0
LINE
8
BLACK
6
CONTINUOUS
10
152.76
20
-116.964
11
153.31
21
-116.964
0
LINE
8
BLACK
6
CONTINUOUS
10
153.31
20
-116.964
11
153.31
21
-118.464
0
LINE
8
BLACK
6
CONTINUOUS
10
154.11
20
-118.464
11
153.56
21
-118.464
0
LINE
8
BLACK
6
CONTINUOUS
10
153.56
20
-118.464
11
153.56
21
-116.964
0
LINE
8
BLACK
6
CONTINUOUS
10
153.56
20
-116.964
11
154.11
21
-116.964
0
LINE
8
BLACK
6
CONTINUOUS
10
154.11
20
-116.964
11
154.11
21
-118.464
0
LINE
8
BLACK
6
CONTINUOUS
10
154.91
20
-118.464
11
154.36
21
-118.464
0
LINE
8
BLACK
6
CONTINUOUS
10
154.36
20
-118.464
11
154.36
21
-116.964
0
LINE
8
BLACK
6
CONTINUOUS
10
154.36
20
-116.964
11
154.91
21
-116.964
0
LINE
8
BLACK
6
CONTINUOUS
10
154.91
20
-116.964
11
154.91
21
-118.464
0
LINE
8
BLACK
6
CONTINUOUS
10
155.71
20
-118.464
11
155.16
21
-118.464
0
LINE
8
BLACK
6
CONTINUOUS
10
155.16
20
-118.464
11
155.16
21
-116.964
0
LINE
8
BLACK
6
CONTINUOUS
10
155.16
20
-116.964
11
155.71
21
-116.964
0
LINE
8
BLACK
6
CONTINUOUS
10
155.71
20
-116.964
11
155.71
21
-118.464
0
LINE
8
BLACK
6
CONTINUOUS
10
156.51
20
-118.464
11
155.96
21
-118.464
0
LINE
8
BLACK
6
CONTINUOUS
10
155.96
20
-118.464
11
155.96
21
-116.964
0
LINE
8
BLACK
6
CONTINUOUS
10
155.96
20
-116.964
11
156.51
21
-116.964
0
LINE
8
BLACK
6
CONTINUOUS
10
156.51
20
-116.964
11
156.51
21
-118.464
0
LINE
8
BLACK
6
CONTINUOUS
10
157.31
20
-118.464
11
156.76
21
-118.464
0
LINE
8
BLACK
6
CONTINUOUS
10
156.76
20
-118.464
11
156.76
21
-116.964
0
LINE
8
BLACK
6
CONTINUOUS
10
156.76
20
-116.964
11
157.31
21
-116.964
0
LINE
8
BLACK
6
CONTINUOUS
10
157.31
20
-116.964
11
157.31
21
-118.464
0
LINE
8
BLACK
6
CONTINUOUS
10
149.31
20
-118.464
11
148.76
21
-118.464
0
LINE
8
BLACK
6
CONTINUOUS
10
148.76
20
-118.464
11
148.76
21
-116.964
0
LINE
8
BLACK
6
CONTINUOUS
10
148.76
20
-116.964
11
149.31
21
-116.964
0
LINE
8
BLACK
6
CONTINUOUS
10
149.31
20
-116.964
11
149.31
21
-118.464
0
LINE
8
BLACK
6
CONTINUOUS
10
150.11
20
-118.464
11
149.56
21
-118.464
0
LINE
8
BLACK
6
CONTINUOUS
10
149.56
20
-118.464
11
149.56
21
-116.964
0
LINE
8
BLACK
6
CONTINUOUS
10
149.56
20
-116.964
11
150.11
21
-116.964
0
LINE
8
BLACK
6
CONTINUOUS
10
150.11
20
-116.964
11
150.11
21
-118.464
0
LINE
8
BLACK
6
CONTINUOUS
10
125.807
20
-117.533
11
125.873
21
-117.571
0
LINE
8
BLACK
6
CONTINUOUS
10
125.873
20
-117.571
11
125.922
21
-117.629
0
LINE
8
BLACK
6
CONTINUOUS
10
125.922
20
-117.629
11
125.951
21
-117.739
0
LINE
8
BLACK
6
CONTINUOUS
10
125.951
20
-117.739
11
125.951
21
-118.176
0
LINE
8
BLACK
6
CONTINUOUS
10
125.951
20
-118.176
11
125.938
21
-118.251
0
LINE
8
BLACK
6
CONTINUOUS
10
125.938
20
-118.251
11
125.9
21
-118.317
0
LINE
8
BLACK
6
CONTINUOUS
10
125.9
20
-118.317
11
125.842
21
-118.366
0
LINE
8
BLACK
6
CONTINUOUS
10
125.842
20
-118.366
11
125.732
21
-118.395
0
LINE
8
BLACK
6
CONTINUOUS
10
125.732
20
-118.395
11
125.22
21
-118.395
0
LINE
8
BLACK
6
CONTINUOUS
10
125.22
20
-118.395
11
125.145
21
-118.382
0
LINE
8
BLACK
6
CONTINUOUS
10
125.145
20
-118.382
11
125.079
21
-118.344
0
LINE
8
BLACK
6
CONTINUOUS
10
125.079
20
-118.344
11
125.03
21
-118.286
0
LINE
8
BLACK
6
CONTINUOUS
10
125.03
20
-118.286
11
125.001
21
-118.176
0
LINE
8
BLACK
6
CONTINUOUS
10
125.001
20
-118.176
11
125.001
21
-117.739
0
LINE
8
BLACK
6
CONTINUOUS
10
125.001
20
-117.739
11
125.014
21
-117.664
0
LINE
8
BLACK
6
CONTINUOUS
10
125.014
20
-117.664
11
125.052
21
-117.598
0
LINE
8
BLACK
6
CONTINUOUS
10
125.052
20
-117.598
11
125.11
21
-117.549
0
LINE
8
BLACK
6
CONTINUOUS
10
125.11
20
-117.549
11
125.22
21
-117.52
0
LINE
8
BLACK
6
CONTINUOUS
10
125.22
20
-117.52
11
125.732
21
-117.52
0
LINE
8
BLACK
6
CONTINUOUS
10
125.732
20
-117.52
11
125.807
21
-117.533
0
LINE
8
BLACK
6
CONTINUOUS
10
144.975
20
-118.008
11
143.975
21
-118.008
0
LINE
8
BLACK
6
CONTINUOUS
10
143.975
20
-118.008
11
143.975
21
-116.508
0
LINE
8
BLACK
6
CONTINUOUS
10
143.975
20
-116.508
11
144.975
21
-116.508
0
LINE
8
BLACK
6
CONTINUOUS
10
144.975
20
-116.508
11
144.975
21
-118.008
0
LINE
8
BLACK
6
CONTINUOUS
10
141.775
20
-118.008
11
140.775
21
-118.008
0
LINE
8
BLACK
6
CONTINUOUS
10
140.775
20
-118.008
11
140.775
21
-116.508
0
LINE
8
BLACK
6
CONTINUOUS
10
140.775
20
-116.508
11
141.775
21
-116.508
0
LINE
8
BLACK
6
CONTINUOUS
10
141.775
20
-116.508
11
141.775
21
-118.008
0
LINE
8
BLACK
6
CONTINUOUS
10
137.292
20
-117.794
11
136.642
21
-117.794
0
LINE
8
BLACK
6
CONTINUOUS
10
136.642
20
-117.794
11
136.642
21
-116.734
0
LINE
8
BLACK
6
CONTINUOUS
10
136.642
20
-116.734
11
137.292
21
-116.734
0
LINE
8
BLACK
6
CONTINUOUS
10
137.292
20
-116.734
11
137.292
21
-117.794
0
LINE
8
BLACK
6
CONTINUOUS
10
131.582
20
-117.794
11
130.932
21
-117.794
0
LINE
8
BLACK
6
CONTINUOUS
10
130.932
20
-117.794
11
130.932
21
-116.734
0
LINE
8
BLACK
6
CONTINUOUS
10
130.932
20
-116.734
11
131.582
21
-116.734
0
LINE
8
BLACK
6
CONTINUOUS
10
131.582
20
-116.734
11
131.582
21
-117.794
0
LINE
8
BLACK
6
CONTINUOUS
10
133.482
20
-117.794
11
132.832
21
-117.794
0
LINE
8
BLACK
6
CONTINUOUS
10
132.832
20
-117.794
11
132.832
21
-116.734
0
LINE
8
BLACK
6
CONTINUOUS
10
132.832
20
-116.734
11
133.482
21
-116.734
0
LINE
8
BLACK
6
CONTINUOUS
10
133.482
20
-116.734
11
133.482
21
-117.794
0
LINE
8
BLACK
6
CONTINUOUS
10
129.672
20
-117.794
11
129.022
21
-117.794
0
LINE
8
BLACK
6
CONTINUOUS
10
129.022
20
-117.794
11
129.022
21
-116.734
0
LINE
8
BLACK
6
CONTINUOUS
10
129.022
20
-116.734
11
129.672
21
-116.734
0
LINE
8
BLACK
6
CONTINUOUS
10
129.672
20
-116.734
11
129.672
21
-117.794
0
LINE
8
BLACK
6
CONTINUOUS
10
128.722
20
-117.794
11
128.072
21
-117.794
0
LINE
8
BLACK
6
CONTINUOUS
10
128.072
20
-117.794
11
128.072
21
-116.734
0
LINE
8
BLACK
6
CONTINUOUS
10
128.072
20
-116.734
11
128.722
21
-116.734
0
LINE
8
BLACK
6
CONTINUOUS
10
128.722
20
-116.734
11
128.722
21
-117.794
0
LINE
8
BLACK
6
CONTINUOUS
10
127.772
20
-117.794
11
127.122
21
-117.794
0
LINE
8
BLACK
6
CONTINUOUS
10
127.122
20
-117.794
11
127.122
21
-116.734
0
LINE
8
BLACK
6
CONTINUOUS
10
127.122
20
-116.734
11
127.772
21
-116.734
0
LINE
8
BLACK
6
CONTINUOUS
10
127.772
20
-116.734
11
127.772
21
-117.794
0
LINE
8
BLACK
6
CONTINUOUS
10
135.392
20
-117.794
11
134.742
21
-117.794
0
LINE
8
BLACK
6
CONTINUOUS
10
134.742
20
-117.794
11
134.742
21
-116.734
0
LINE
8
BLACK
6
CONTINUOUS
10
134.742
20
-116.734
11
135.392
21
-116.734
0
LINE
8
BLACK
6
CONTINUOUS
10
135.392
20
-116.734
11
135.392
21
-117.794
0
LINE
8
BLACK
6
CONTINUOUS
10
136.342
20
-117.794
11
135.692
21
-117.794
0
LINE
8
BLACK
6
CONTINUOUS
10
135.692
20
-117.794
11
135.692
21
-116.734
0
LINE
8
BLACK
6
CONTINUOUS
10
135.692
20
-116.734
11
136.342
21
-116.734
0
LINE
8
BLACK
6
CONTINUOUS
10
136.342
20
-116.734
11
136.342
21
-117.794
0
LINE
8
BLACK
6
CONTINUOUS
10
161.143
20
-116.545
11
161.218
21
-116.588
0
LINE
8
BLACK
6
CONTINUOUS
10
161.218
20
-116.588
11
161.274
21
-116.655
0
LINE
8
BLACK
6
CONTINUOUS
10
161.274
20
-116.655
11
161.307
21
-116.78
0
LINE
8
BLACK
6
CONTINUOUS
10
161.307
20
-116.78
11
161.307
21
-117.405
0
LINE
8
BLACK
6
CONTINUOUS
10
161.307
20
-117.405
11
161.292
21
-117.491
0
LINE
8
BLACK
6
CONTINUOUS
10
161.292
20
-117.491
11
161.249
21
-117.566
0
LINE
8
BLACK
6
CONTINUOUS
10
161.249
20
-117.566
11
161.182
21
-117.622
0
LINE
8
BLACK
6
CONTINUOUS
10
161.182
20
-117.622
11
161.057
21
-117.655
0
LINE
8
BLACK
6
CONTINUOUS
10
161.057
20
-117.655
11
160.507
21
-117.655
0
LINE
8
BLACK
6
CONTINUOUS
10
160.507
20
-117.655
11
160.421
21
-117.64
0
LINE
8
BLACK
6
CONTINUOUS
10
160.421
20
-117.64
11
160.346
21
-117.597
0
LINE
8
BLACK
6
CONTINUOUS
10
160.346
20
-117.597
11
160.29
21
-117.53
0
LINE
8
BLACK
6
CONTINUOUS
10
160.29
20
-117.53
11
160.257
21
-117.405
0
LINE
8
BLACK
6
CONTINUOUS
10
160.257
20
-117.405
11
160.257
21
-116.78
0
LINE
8
BLACK
6
CONTINUOUS
10
160.257
20
-116.78
11
160.272
21
-116.694
0
LINE
8
BLACK
6
CONTINUOUS
10
160.272
20
-116.694
11
160.315
21
-116.619
0
LINE
8
BLACK
6
CONTINUOUS
10
160.315
20
-116.619
11
160.382
21
-116.563
0
LINE
8
BLACK
6
CONTINUOUS
10
160.382
20
-116.563
11
160.507
21
-116.53
0
LINE
8
BLACK
6
CONTINUOUS
10
160.507
20
-116.53
11
161.057
21
-116.53
0
LINE
8
BLACK
6
CONTINUOUS
10
161.057
20
-116.53
11
161.143
21
-116.545
0
LINE
8
BLACK
6
CONTINUOUS
10
159.485
20
-116.289
11
157.985
21
-116.289
0
LINE
8
BLACK
6
CONTINUOUS
10
157.985
20
-116.289
11
157.985
21
-115.739
0
LINE
8
BLACK
6
CONTINUOUS
10
157.985
20
-115.739
11
159.485
21
-115.739
0
LINE
8
BLACK
6
CONTINUOUS
10
159.485
20
-115.739
11
159.485
21
-116.289
0
LINE
8
BLACK
6
CONTINUOUS
10
148.085
20
-116.289
11
146.585
21
-116.289
0
LINE
8
BLACK
6
CONTINUOUS
10
146.585
20
-116.289
11
146.585
21
-115.739
0
LINE
8
BLACK
6
CONTINUOUS
10
146.585
20
-115.739
11
148.085
21
-115.739
0
LINE
8
BLACK
6
CONTINUOUS
10
148.085
20
-115.739
11
148.085
21
-116.289
0
LINE
8
BLACK
6
CONTINUOUS
10
161.143
20
-114.77
11
161.218
21
-114.813
0
LINE
8
BLACK
6
CONTINUOUS
10
161.218
20
-114.813
11
161.274
21
-114.88
0
LINE
8
BLACK
6
CONTINUOUS
10
161.274
20
-114.88
11
161.307
21
-115.005
0
LINE
8
BLACK
6
CONTINUOUS
10
161.307
20
-115.005
11
161.307
21
-115.63
0
LINE
8
BLACK
6
CONTINUOUS
10
161.307
20
-115.63
11
161.292
21
-115.716
0
LINE
8
BLACK
6
CONTINUOUS
10
161.292
20
-115.716
11
161.249
21
-115.791
0
LINE
8
BLACK
6
CONTINUOUS
10
161.249
20
-115.791
11
161.182
21
-115.847
0
LINE
8
BLACK
6
CONTINUOUS
10
161.182
20
-115.847
11
161.057
21
-115.88
0
LINE
8
BLACK
6
CONTINUOUS
10
161.057
20
-115.88
11
160.507
21
-115.88
0
LINE
8
BLACK
6
CONTINUOUS
10
160.507
20
-115.88
11
160.421
21
-115.865
0
LINE
8
BLACK
6
CONTINUOUS
10
160.421
20
-115.865
11
160.346
21
-115.822
0
LINE
8
BLACK
6
CONTINUOUS
10
160.346
20
-115.822
11
160.29
21
-115.755
0
LINE
8
BLACK
6
CONTINUOUS
10
160.29
20
-115.755
11
160.257
21
-115.63
0
LINE
8
BLACK
6
CONTINUOUS
10
160.257
20
-115.63
11
160.257
21
-115.005
0
LINE
8
BLACK
6
CONTINUOUS
10
160.257
20
-115.005
11
160.272
21
-114.919
0
LINE
8
BLACK
6
CONTINUOUS
10
160.272
20
-114.919
11
160.315
21
-114.844
0
LINE
8
BLACK
6
CONTINUOUS
10
160.315
20
-114.844
11
160.382
21
-114.788
0
LINE
8
BLACK
6
CONTINUOUS
10
160.382
20
-114.788
11
160.507
21
-114.755
0
LINE
8
BLACK
6
CONTINUOUS
10
160.507
20
-114.755
11
161.057
21
-114.755
0
LINE
8
BLACK
6
CONTINUOUS
10
161.057
20
-114.755
11
161.143
21
-114.77
0
LINE
8
BLACK
6
CONTINUOUS
10
148.085
20
-115.489
11
146.585
21
-115.489
0
LINE
8
BLACK
6
CONTINUOUS
10
146.585
20
-115.489
11
146.585
21
-114.939
0
LINE
8
BLACK
6
CONTINUOUS
10
146.585
20
-114.939
11
148.085
21
-114.939
0
LINE
8
BLACK
6
CONTINUOUS
10
148.085
20
-114.939
11
148.085
21
-115.489
0
LINE
8
BLACK
6
CONTINUOUS
10
159.485
20
-115.489
11
157.985
21
-115.489
0
LINE
8
BLACK
6
CONTINUOUS
10
157.985
20
-115.489
11
157.985
21
-114.939
0
LINE
8
BLACK
6
CONTINUOUS
10
157.985
20
-114.939
11
159.485
21
-114.939
0
LINE
8
BLACK
6
CONTINUOUS
10
159.485
20
-114.939
11
159.485
21
-115.489
0
LINE
8
BLACK
6
CONTINUOUS
10
148.085
20
-114.689
11
146.585
21
-114.689
0
LINE
8
BLACK
6
CONTINUOUS
10
146.585
20
-114.689
11
146.585
21
-114.139
0
LINE
8
BLACK
6
CONTINUOUS
10
146.585
20
-114.139
11
148.085
21
-114.139
0
LINE
8
BLACK
6
CONTINUOUS
10
148.085
20
-114.139
11
148.085
21
-114.689
0
LINE
8
BLACK
6
CONTINUOUS
10
159.485
20
-114.689
11
157.985
21
-114.689
0
LINE
8
BLACK
6
CONTINUOUS
10
157.985
20
-114.689
11
157.985
21
-114.139
0
LINE
8
BLACK
6
CONTINUOUS
10
157.985
20
-114.139
11
159.485
21
-114.139
0
LINE
8
BLACK
6
CONTINUOUS
10
159.485
20
-114.139
11
159.485
21
-114.689
0
LINE
8
BLACK
6
CONTINUOUS
10
125.964
20
-113.497
11
126.039
21
-113.54
0
LINE
8
BLACK
6
CONTINUOUS
10
126.039
20
-113.54
11
126.095
21
-113.607
0
LINE
8
BLACK
6
CONTINUOUS
10
126.095
20
-113.607
11
126.128
21
-113.732
0
LINE
8
BLACK
6
CONTINUOUS
10
126.128
20
-113.732
11
126.128
21
-114.357
0
LINE
8
BLACK
6
CONTINUOUS
10
126.128
20
-114.357
11
126.113
21
-114.443
0
LINE
8
BLACK
6
CONTINUOUS
10
126.113
20
-114.443
11
126.07
21
-114.518
0
LINE
8
BLACK
6
CONTINUOUS
10
126.07
20
-114.518
11
126.003
21
-114.574
0
LINE
8
BLACK
6
CONTINUOUS
10
126.003
20
-114.574
11
125.878
21
-114.607
0
LINE
8
BLACK
6
CONTINUOUS
10
125.878
20
-114.607
11
125.328
21
-114.607
0
LINE
8
BLACK
6
CONTINUOUS
10
125.328
20
-114.607
11
125.242
21
-114.592
0
LINE
8
BLACK
6
CONTINUOUS
10
125.242
20
-114.592
11
125.167
21
-114.549
0
LINE
8
BLACK
6
CONTINUOUS
10
125.167
20
-114.549
11
125.111
21
-114.482
0
LINE
8
BLACK
6
CONTINUOUS
10
125.111
20
-114.482
11
125.078
21
-114.357
0
LINE
8
BLACK
6
CONTINUOUS
10
125.078
20
-114.357
11
125.078
21
-113.732
0
LINE
8
BLACK
6
CONTINUOUS
10
125.078
20
-113.732
11
125.093
21
-113.646
0
LINE
8
BLACK
6
CONTINUOUS
10
125.093
20
-113.646
11
125.136
21
-113.571
0
LINE
8
BLACK
6
CONTINUOUS
10
125.136
20
-113.571
11
125.203
21
-113.515
0
LINE
8
BLACK
6
CONTINUOUS
10
125.203
20
-113.515
11
125.328
21
-113.482
0
LINE
8
BLACK
6
CONTINUOUS
10
125.328
20
-113.482
11
125.878
21
-113.482
0
LINE
8
BLACK
6
CONTINUOUS
10
125.878
20
-113.482
11
125.964
21
-113.497
0
LINE
8
BLACK
6
CONTINUOUS
10
128.123
20
-113.497
11
128.198
21
-113.54
0
LINE
8
BLACK
6
CONTINUOUS
10
128.198
20
-113.54
11
128.254
21
-113.607
0
LINE
8
BLACK
6
CONTINUOUS
10
128.254
20
-113.607
11
128.287
21
-113.732
0
LINE
8
BLACK
6
CONTINUOUS
10
128.287
20
-113.732
11
128.287
21
-114.357
0
LINE
8
BLACK
6
CONTINUOUS
10
128.287
20
-114.357
11
128.272
21
-114.443
0
LINE
8
BLACK
6
CONTINUOUS
10
128.272
20
-114.443
11
128.229
21
-114.518
0
LINE
8
BLACK
6
CONTINUOUS
10
128.229
20
-114.518
11
128.162
21
-114.574
0
LINE
8
BLACK
6
CONTINUOUS
10
128.162
20
-114.574
11
128.037
21
-114.607
0
LINE
8
BLACK
6
CONTINUOUS
10
128.037
20
-114.607
11
127.487
21
-114.607
0
LINE
8
BLACK
6
CONTINUOUS
10
127.487
20
-114.607
11
127.401
21
-114.592
0
LINE
8
BLACK
6
CONTINUOUS
10
127.401
20
-114.592
11
127.326
21
-114.549
0
LINE
8
BLACK
6
CONTINUOUS
10
127.326
20
-114.549
11
127.27
21
-114.482
0
LINE
8
BLACK
6
CONTINUOUS
10
127.27
20
-114.482
11
127.237
21
-114.357
0
LINE
8
BLACK
6
CONTINUOUS
10
127.237
20
-114.357
11
127.237
21
-113.732
0
LINE
8
BLACK
6
CONTINUOUS
10
127.237
20
-113.732
11
127.252
21
-113.646
0
LINE
8
BLACK
6
CONTINUOUS
10
127.252
20
-113.646
11
127.295
21
-113.571
0
LINE
8
BLACK
6
CONTINUOUS
10
127.295
20
-113.571
11
127.362
21
-113.515
0
LINE
8
BLACK
6
CONTINUOUS
10
127.362
20
-113.515
11
127.487
21
-113.482
0
LINE
8
BLACK
6
CONTINUOUS
10
127.487
20
-113.482
11
128.037
21
-113.482
0
LINE
8
BLACK
6
CONTINUOUS
10
128.037
20
-113.482
11
128.123
21
-113.497
0
LINE
8
BLACK
6
CONTINUOUS
10
130.155
20
-113.497
11
130.23
21
-113.54
0
LINE
8
BLACK
6
CONTINUOUS
10
130.23
20
-113.54
11
130.286
21
-113.607
0
LINE
8
BLACK
6
CONTINUOUS
10
130.286
20
-113.607
11
130.319
21
-113.732
0
LINE
8
BLACK
6
CONTINUOUS
10
130.319
20
-113.732
11
130.319
21
-114.357
0
LINE
8
BLACK
6
CONTINUOUS
10
130.319
20
-114.357
11
130.304
21
-114.443
0
LINE
8
BLACK
6
CONTINUOUS
10
130.304
20
-114.443
11
130.261
21
-114.518
0
LINE
8
BLACK
6
CONTINUOUS
10
130.261
20
-114.518
11
130.194
21
-114.574
0
LINE
8
BLACK
6
CONTINUOUS
10
130.194
20
-114.574
11
130.069
21
-114.607
0
LINE
8
BLACK
6
CONTINUOUS
10
130.069
20
-114.607
11
129.519
21
-114.607
0
LINE
8
BLACK
6
CONTINUOUS
10
129.519
20
-114.607
11
129.433
21
-114.592
0
LINE
8
BLACK
6
CONTINUOUS
10
129.433
20
-114.592
11
129.358
21
-114.549
0
LINE
8
BLACK
6
CONTINUOUS
10
129.358
20
-114.549
11
129.302
21
-114.482
0
LINE
8
BLACK
6
CONTINUOUS
10
129.302
20
-114.482
11
129.269
21
-114.357
0
LINE
8
BLACK
6
CONTINUOUS
10
129.269
20
-114.357
11
129.269
21
-113.732
0
LINE
8
BLACK
6
CONTINUOUS
10
129.269
20
-113.732
11
129.284
21
-113.646
0
LINE
8
BLACK
6
CONTINUOUS
10
129.284
20
-113.646
11
129.327
21
-113.571
0
LINE
8
BLACK
6
CONTINUOUS
10
129.327
20
-113.571
11
129.394
21
-113.515
0
LINE
8
BLACK
6
CONTINUOUS
10
129.394
20
-113.515
11
129.519
21
-113.482
0
LINE
8
BLACK
6
CONTINUOUS
10
129.519
20
-113.482
11
130.069
21
-113.482
0
LINE
8
BLACK
6
CONTINUOUS
10
130.069
20
-113.482
11
130.155
21
-113.497
0
LINE
8
BLACK
6
CONTINUOUS
10
132.441
20
-113.497
11
132.516
21
-113.54
0
LINE
8
BLACK
6
CONTINUOUS
10
132.516
20
-113.54
11
132.572
21
-113.607
0
LINE
8
BLACK
6
CONTINUOUS
10
132.572
20
-113.607
11
132.605
21
-113.732
0
LINE
8
BLACK
6
CONTINUOUS
10
132.605
20
-113.732
11
132.605
21
-114.357
0
LINE
8
BLACK
6
CONTINUOUS
10
132.605
20
-114.357
11
132.59
21
-114.443
0
LINE
8
BLACK
6
CONTINUOUS
10
132.59
20
-114.443
11
132.547
21
-114.518
0
LINE
8
BLACK
6
CONTINUOUS
10
132.547
20
-114.518
11
132.48
21
-114.574
0
LINE
8
BLACK
6
CONTINUOUS
10
132.48
20
-114.574
11
132.355
21
-114.607
0
LINE
8
BLACK
6
CONTINUOUS
10
132.355
20
-114.607
11
131.805
21
-114.607
0
LINE
8
BLACK
6
CONTINUOUS
10
131.805
20
-114.607
11
131.719
21
-114.592
0
LINE
8
BLACK
6
CONTINUOUS
10
131.719
20
-114.592
11
131.644
21
-114.549
0
LINE
8
BLACK
6
CONTINUOUS
10
131.644
20
-114.549
11
131.588
21
-114.482
0
LINE
8
BLACK
6
CONTINUOUS
10
131.588
20
-114.482
11
131.555
21
-114.357
0
LINE
8
BLACK
6
CONTINUOUS
10
131.555
20
-114.357
11
131.555
21
-113.732
0
LINE
8
BLACK
6
CONTINUOUS
10
131.555
20
-113.732
11
131.57
21
-113.646
0
LINE
8
BLACK
6
CONTINUOUS
10
131.57
20
-113.646
11
131.613
21
-113.571
0
LINE
8
BLACK
6
CONTINUOUS
10
131.613
20
-113.571
11
131.68
21
-113.515
0
LINE
8
BLACK
6
CONTINUOUS
10
131.68
20
-113.515
11
131.805
21
-113.482
0
LINE
8
BLACK
6
CONTINUOUS
10
131.805
20
-113.482
11
132.355
21
-113.482
0
LINE
8
BLACK
6
CONTINUOUS
10
132.355
20
-113.482
11
132.441
21
-113.497
0
LINE
8
BLACK
6
CONTINUOUS
10
159.485
20
-113.889
11
157.985
21
-113.889
0
LINE
8
BLACK
6
CONTINUOUS
10
157.985
20
-113.889
11
157.985
21
-113.339
0
LINE
8
BLACK
6
CONTINUOUS
10
157.985
20
-113.339
11
159.485
21
-113.339
0
LINE
8
BLACK
6
CONTINUOUS
10
159.485
20
-113.339
11
159.485
21
-113.889
0
LINE
8
BLACK
6
CONTINUOUS
10
148.085
20
-113.889
11
146.585
21
-113.889
0
LINE
8
BLACK
6
CONTINUOUS
10
146.585
20
-113.889
11
146.585
21
-113.339
0
LINE
8
BLACK
6
CONTINUOUS
10
146.585
20
-113.339
11
148.085
21
-113.339
0
LINE
8
BLACK
6
CONTINUOUS
10
148.085
20
-113.339
11
148.085
21
-113.889
0
LINE
8
BLACK
6
CONTINUOUS
10
141.775
20
-113.108
11
140.775
21
-113.108
0
LINE
8
BLACK
6
CONTINUOUS
10
140.775
20
-113.108
11
140.775
21
-111.608
0
LINE
8
BLACK
6
CONTINUOUS
10
140.775
20
-111.608
11
141.775
21
-111.608
0
LINE
8
BLACK
6
CONTINUOUS
10
141.775
20
-111.608
11
141.775
21
-113.108
0
LINE
8
BLACK
6
CONTINUOUS
10
144.975
20
-113.108
11
143.975
21
-113.108
0
LINE
8
BLACK
6
CONTINUOUS
10
143.975
20
-113.108
11
143.975
21
-111.608
0
LINE
8
BLACK
6
CONTINUOUS
10
143.975
20
-111.608
11
144.975
21
-111.608
0
LINE
8
BLACK
6
CONTINUOUS
10
144.975
20
-111.608
11
144.975
21
-113.108
0
LINE
8
BLACK
6
CONTINUOUS
10
159.485
20
-113.089
11
157.985
21
-113.089
0
LINE
8
BLACK
6
CONTINUOUS
10
157.985
20
-113.089
11
157.985
21
-112.539
0
LINE
8
BLACK
6
CONTINUOUS
10
157.985
20
-112.539
11
159.485
21
-112.539
0
LINE
8
BLACK
6
CONTINUOUS
10
159.485
20
-112.539
11
159.485
21
-113.089
0
LINE
8
BLACK
6
CONTINUOUS
10
148.085
20
-113.089
11
146.585
21
-113.089
0
LINE
8
BLACK
6
CONTINUOUS
10
146.585
20
-113.089
11
146.585
21
-112.539
0
LINE
8
BLACK
6
CONTINUOUS
10
146.585
20
-112.539
11
148.085
21
-112.539
0
LINE
8
BLACK
6
CONTINUOUS
10
148.085
20
-112.539
11
148.085
21
-113.089
0
LINE
8
BLACK
6
CONTINUOUS
10
130.155
20
-111.722
11
130.23
21
-111.765
0
LINE
8
BLACK
6
CONTINUOUS
10
130.23
20
-111.765
11
130.286
21
-111.832
0
LINE
8
BLACK
6
CONTINUOUS
10
130.286
20
-111.832
11
130.319
21
-111.957
0
LINE
8
BLACK
6
CONTINUOUS
10
130.319
20
-111.957
11
130.319
21
-112.582
0
LINE
8
BLACK
6
CONTINUOUS
10
130.319
20
-112.582
11
130.304
21
-112.668
0
LINE
8
BLACK
6
CONTINUOUS
10
130.304
20
-112.668
11
130.261
21
-112.743
0
LINE
8
BLACK
6
CONTINUOUS
10
130.261
20
-112.743
11
130.194
21
-112.799
0
LINE
8
BLACK
6
CONTINUOUS
10
130.194
20
-112.799
11
130.069
21
-112.832
0
LINE
8
BLACK
6
CONTINUOUS
10
130.069
20
-112.832
11
129.519
21
-112.832
0
LINE
8
BLACK
6
CONTINUOUS
10
129.519
20
-112.832
11
129.433
21
-112.817
0
LINE
8
BLACK
6
CONTINUOUS
10
129.433
20
-112.817
11
129.358
21
-112.774
0
LINE
8
BLACK
6
CONTINUOUS
10
129.358
20
-112.774
11
129.302
21
-112.707
0
LINE
8
BLACK
6
CONTINUOUS
10
129.302
20
-112.707
11
129.269
21
-112.582
0
LINE
8
BLACK
6
CONTINUOUS
10
129.269
20
-112.582
11
129.269
21
-111.957
0
LINE
8
BLACK
6
CONTINUOUS
10
129.269
20
-111.957
11
129.284
21
-111.871
0
LINE
8
BLACK
6
CONTINUOUS
10
129.284
20
-111.871
11
129.327
21
-111.796
0
LINE
8
BLACK
6
CONTINUOUS
10
129.327
20
-111.796
11
129.394
21
-111.74
0
LINE
8
BLACK
6
CONTINUOUS
10
129.394
20
-111.74
11
129.519
21
-111.707
0
LINE
8
BLACK
6
CONTINUOUS
10
129.519
20
-111.707
11
130.069
21
-111.707
0
LINE
8
BLACK
6
CONTINUOUS
10
130.069
20
-111.707
11
130.155
21
-111.722
0
LINE
8
BLACK
6
CONTINUOUS
10
128.123
20
-111.722
11
128.198
21
-111.765
0
LINE
8
BLACK
6
CONTINUOUS
10
128.198
20
-111.765
11
128.254
21
-111.832
0
LINE
8
BLACK
6
CONTINUOUS
10
128.254
20
-111.832
11
128.287
21
-111.957
0
LINE
8
BLACK
6
CONTINUOUS
10
128.287
20
-111.957
11
128.287
21
-112.582
0
LINE
8
BLACK
6
CONTINUOUS
10
128.287
20
-112.582
11
128.272
21
-112.668
0
LINE
8
BLACK
6
CONTINUOUS
10
128.272
20
-112.668
11
128.229
21
-112.743
0
LINE
8
BLACK
6
CONTINUOUS
10
128.229
20
-112.743
11
128.162
21
-112.799
0
LINE
8
BLACK
6
CONTINUOUS
10
128.162
20
-112.799
11
128.037
21
-112.832
0
LINE
8
BLACK
6
CONTINUOUS
10
128.037
20
-112.832
11
127.487
21
-112.832
0
LINE
8
BLACK
6
CONTINUOUS
10
127.487
20
-112.832
11
127.401
21
-112.817
0
LINE
8
BLACK
6
CONTINUOUS
10
127.401
20
-112.817
11
127.326
21
-112.774
0
LINE
8
BLACK
6
CONTINUOUS
10
127.326
20
-112.774
11
127.27
21
-112.707
0
LINE
8
BLACK
6
CONTINUOUS
10
127.27
20
-112.707
11
127.237
21
-112.582
0
LINE
8
BLACK
6
CONTINUOUS
10
127.237
20
-112.582
11
127.237
21
-111.957
0
LINE
8
BLACK
6
CONTINUOUS
10
127.237
20
-111.957
11
127.252
21
-111.871
0
LINE
8
BLACK
6
CONTINUOUS
10
127.252
20
-111.871
11
127.295
21
-111.796
0
LINE
8
BLACK
6
CONTINUOUS
10
127.295
20
-111.796
11
127.362
21
-111.74
0
LINE
8
BLACK
6
CONTINUOUS
10
127.362
20
-111.74
11
127.487
21
-111.707
0
LINE
8
BLACK
6
CONTINUOUS
10
127.487
20
-111.707
11
128.037
21
-111.707
0
LINE
8
BLACK
6
CONTINUOUS
10
128.037
20
-111.707
11
128.123
21
-111.722
0
LINE
8
BLACK
6
CONTINUOUS
10
132.441
20
-111.722
11
132.516
21
-111.765
0
LINE
8
BLACK
6
CONTINUOUS
10
132.516
20
-111.765
11
132.572
21
-111.832
0
LINE
8
BLACK
6
CONTINUOUS
10
132.572
20
-111.832
11
132.605
21
-111.957
0
LINE
8
BLACK
6
CONTINUOUS
10
132.605
20
-111.957
11
132.605
21
-112.582
0
LINE
8
BLACK
6
CONTINUOUS
10
132.605
20
-112.582
11
132.59
21
-112.668
0
LINE
8
BLACK
6
CONTINUOUS
10
132.59
20
-112.668
11
132.547
21
-112.743
0
LINE
8
BLACK
6
CONTINUOUS
10
132.547
20
-112.743
11
132.48
21
-112.799
0
LINE
8
BLACK
6
CONTINUOUS
10
132.48
20
-112.799
11
132.355
21
-112.832
0
LINE
8
BLACK
6
CONTINUOUS
10
132.355
20
-112.832
11
131.805
21
-112.832
0
LINE
8
BLACK
6
CONTINUOUS
10
131.805
20
-112.832
11
131.719
21
-112.817
0
LINE
8
BLACK
6
CONTINUOUS
10
131.719
20
-112.817
11
131.644
21
-112.774
0
LINE
8
BLACK
6
CONTINUOUS
10
131.644
20
-112.774
11
131.588
21
-112.707
0
LINE
8
BLACK
6
CONTINUOUS
10
131.588
20
-112.707
11
131.555
21
-112.582
0
LINE
8
BLACK
6
CONTINUOUS
10
131.555
20
-112.582
11
131.555
21
-111.957
0
LINE
8
BLACK
6
CONTINUOUS
10
131.555
20
-111.957
11
131.57
21
-111.871
0
LINE
8
BLACK
6
CONTINUOUS
10
131.57
20
-111.871
11
131.613
21
-111.796
0
LINE
8
BLACK
6
CONTINUOUS
10
131.613
20
-111.796
11
131.68
21
-111.74
0
LINE
8
BLACK
6
CONTINUOUS
10
131.68
20
-111.74
11
131.805
21
-111.707
0
LINE
8
BLACK
6
CONTINUOUS
10
131.805
20
-111.707
11
132.355
21
-111.707
0
LINE
8
BLACK
6
CONTINUOUS
10
132.355
20
-111.707
11
132.441
21
-111.722
0
LINE
8
BLACK
6
CONTINUOUS
10
125.964
20
-111.722
11
126.039
21
-111.765
0
LINE
8
BLACK
6
CONTINUOUS
10
126.039
20
-111.765
11
126.095
21
-111.832
0
LINE
8
BLACK
6
CONTINUOUS
10
126.095
20
-111.832
11
126.128
21
-111.957
0
LINE
8
BLACK
6
CONTINUOUS
10
126.128
20
-111.957
11
126.128
21
-112.582
0
LINE
8
BLACK
6
CONTINUOUS
10
126.128
20
-112.582
11
126.113
21
-112.668
0
LINE
8
BLACK
6
CONTINUOUS
10
126.113
20
-112.668
11
126.07
21
-112.743
0
LINE
8
BLACK
6
CONTINUOUS
10
126.07
20
-112.743
11
126.003
21
-112.799
0
LINE
8
BLACK
6
CONTINUOUS
10
126.003
20
-112.799
11
125.878
21
-112.832
0
LINE
8
BLACK
6
CONTINUOUS
10
125.878
20
-112.832
11
125.328
21
-112.832
0
LINE
8
BLACK
6
CONTINUOUS
10
125.328
20
-112.832
11
125.242
21
-112.817
0
LINE
8
BLACK
6
CONTINUOUS
10
125.242
20
-112.817
11
125.167
21
-112.774
0
LINE
8
BLACK
6
CONTINUOUS
10
125.167
20
-112.774
11
125.111
21
-112.707
0
LINE
8
BLACK
6
CONTINUOUS
10
125.111
20
-112.707
11
125.078
21
-112.582
0
LINE
8
BLACK
6
CONTINUOUS
10
125.078
20
-112.582
11
125.078
21
-111.957
0
LINE
8
BLACK
6
CONTINUOUS
10
125.078
20
-111.957
11
125.093
21
-111.871
0
LINE
8
BLACK
6
CONTINUOUS
10
125.093
20
-111.871
11
125.136
21
-111.796
0
LINE
8
BLACK
6
CONTINUOUS
10
125.136
20
-111.796
11
125.203
21
-111.74
0
LINE
8
BLACK
6
CONTINUOUS
10
125.203
20
-111.74
11
125.328
21
-111.707
0
LINE
8
BLACK
6
CONTINUOUS
10
125.328
20
-111.707
11
125.878
21
-111.707
0
LINE
8
BLACK
6
CONTINUOUS
10
125.878
20
-111.707
11
125.964
21
-111.722
0
LINE
8
BLACK
6
CONTINUOUS
10
148.085
20
-112.289
11
146.585
21
-112.289
0
LINE
8
BLACK
6
CONTINUOUS
10
146.585
20
-112.289
11
146.585
21
-111.739
0
LINE
8
BLACK
6
CONTINUOUS
10
146.585
20
-111.739
11
148.085
21
-111.739
0
LINE
8
BLACK
6
CONTINUOUS
10
148.085
20
-111.739
11
148.085
21
-112.289
0
LINE
8
BLACK
6
CONTINUOUS
10
159.485
20
-112.289
11
157.985
21
-112.289
0
LINE
8
BLACK
6
CONTINUOUS
10
157.985
20
-112.289
11
157.985
21
-111.739
0
LINE
8
BLACK
6
CONTINUOUS
10
157.985
20
-111.739
11
159.485
21
-111.739
0
LINE
8
BLACK
6
CONTINUOUS
10
159.485
20
-111.739
11
159.485
21
-112.289
0
LINE
8
BLACK
6
CONTINUOUS
10
148.085
20
-111.489
11
146.585
21
-111.489
0
LINE
8
BLACK
6
CONTINUOUS
10
146.585
20
-111.489
11
146.585
21
-110.939
0
LINE
8
BLACK
6
CONTINUOUS
10
146.585
20
-110.939
11
148.085
21
-110.939
0
LINE
8
BLACK
6
CONTINUOUS
10
148.085
20
-110.939
11
148.085
21
-111.489
0
LINE
8
BLACK
6
CONTINUOUS
10
159.485
20
-111.489
11
157.985
21
-111.489
0
LINE
8
BLACK
6
CONTINUOUS
10
157.985
20
-111.489
11
157.985
21
-110.939
0
LINE
8
BLACK
6
CONTINUOUS
10
157.985
20
-110.939
11
159.485
21
-110.939
0
LINE
8
BLACK
6
CONTINUOUS
10
159.485
20
-110.939
11
159.485
21
-111.489
0
LINE
8
BLACK
6
CONTINUOUS
10
148.085
20
-110.689
11
146.585
21
-110.689
0
LINE
8
BLACK
6
CONTINUOUS
10
146.585
20
-110.689
11
146.585
21
-110.139
0
LINE
8
BLACK
6
CONTINUOUS
10
146.585
20
-110.139
11
148.085
21
-110.139
0
LINE
8
BLACK
6
CONTINUOUS
10
148.085
20
-110.139
11
148.085
21
-110.689
0
LINE
8
BLACK
6
CONTINUOUS
10
159.485
20
-110.689
11
157.985
21
-110.689
0
LINE
8
BLACK
6
CONTINUOUS
10
157.985
20
-110.689
11
157.985
21
-110.139
0
LINE
8
BLACK
6
CONTINUOUS
10
157.985
20
-110.139
11
159.485
21
-110.139
0
LINE
8
BLACK
6
CONTINUOUS
10
159.485
20
-110.139
11
159.485
21
-110.689
0
LINE
8
BLACK
6
CONTINUOUS
10
141.775
20
-110.388
11
140.775
21
-110.388
0
LINE
8
BLACK
6
CONTINUOUS
10
140.775
20
-110.388
11
140.775
21
-108.888
0
LINE
8
BLACK
6
CONTINUOUS
10
140.775
20
-108.888
11
141.775
21
-108.888
0
LINE
8
BLACK
6
CONTINUOUS
10
141.775
20
-108.888
11
141.775
21
-110.388
0
LINE
8
BLACK
6
CONTINUOUS
10
144.975
20
-110.388
11
143.975
21
-110.388
0
LINE
8
BLACK
6
CONTINUOUS
10
143.975
20
-110.388
11
143.975
21
-108.888
0
LINE
8
BLACK
6
CONTINUOUS
10
143.975
20
-108.888
11
144.975
21
-108.888
0
LINE
8
BLACK
6
CONTINUOUS
10
144.975
20
-108.888
11
144.975
21
-110.388
0
LINE
8
BLACK
6
CONTINUOUS
10
148.085
20
-109.889
11
146.585
21
-109.889
0
LINE
8
BLACK
6
CONTINUOUS
10
146.585
20
-109.889
11
146.585
21
-109.339
0
LINE
8
BLACK
6
CONTINUOUS
10
146.585
20
-109.339
11
148.085
21
-109.339
0
LINE
8
BLACK
6
CONTINUOUS
10
148.085
20
-109.339
11
148.085
21
-109.889
0
LINE
8
BLACK
6
CONTINUOUS
10
159.485
20
-109.889
11
157.985
21
-109.889
0
LINE
8
BLACK
6
CONTINUOUS
10
157.985
20
-109.889
11
157.985
21
-109.339
0
LINE
8
BLACK
6
CONTINUOUS
10
157.985
20
-109.339
11
159.485
21
-109.339
0
LINE
8
BLACK
6
CONTINUOUS
10
159.485
20
-109.339
11
159.485
21
-109.889
0
LINE
8
BLACK
6
CONTINUOUS
10
148.085
20
-109.089
11
146.585
21
-109.089
0
LINE
8
BLACK
6
CONTINUOUS
10
146.585
20
-109.089
11
146.585
21
-108.539
0
LINE
8
BLACK
6
CONTINUOUS
10
146.585
20
-108.539
11
148.085
21
-108.539
0
LINE
8
BLACK
6
CONTINUOUS
10
148.085
20
-108.539
11
148.085
21
-109.089
0
LINE
8
BLACK
6
CONTINUOUS
10
159.485
20
-109.089
11
157.985
21
-109.089
0
LINE
8
BLACK
6
CONTINUOUS
10
157.985
20
-109.089
11
157.985
21
-108.539
0
LINE
8
BLACK
6
CONTINUOUS
10
157.985
20
-108.539
11
159.485
21
-108.539
0
LINE
8
BLACK
6
CONTINUOUS
10
159.485
20
-108.539
11
159.485
21
-109.089
0
LINE
8
BLACK
6
CONTINUOUS
10
148.085
20
-108.289
11
146.585
21
-108.289
0
LINE
8
BLACK
6
CONTINUOUS
10
146.585
20
-108.289
11
146.585
21
-107.739
0
LINE
8
BLACK
6
CONTINUOUS
10
146.585
20
-107.739
11
148.085
21
-107.739
0
LINE
8
BLACK
6
CONTINUOUS
10
148.085
20
-107.739
11
148.085
21
-108.289
0
LINE
8
BLACK
6
CONTINUOUS
10
159.485
20
-108.289
11
157.985
21
-108.289
0
LINE
8
BLACK
6
CONTINUOUS
10
157.985
20
-108.289
11
157.985
21
-107.739
0
LINE
8
BLACK
6
CONTINUOUS
10
157.985
20
-107.739
11
159.485
21
-107.739
0
LINE
8
BLACK
6
CONTINUOUS
10
159.485
20
-107.739
11
159.485
21
-108.289
0
LINE
8
BLACK
6
CONTINUOUS
10
157.31
20
-107.064
11
156.76
21
-107.064
0
LINE
8
BLACK
6
CONTINUOUS
10
156.76
20
-107.064
11
156.76
21
-105.564
0
LINE
8
BLACK
6
CONTINUOUS
10
156.76
20
-105.564
11
157.31
21
-105.564
0
LINE
8
BLACK
6
CONTINUOUS
10
157.31
20
-105.564
11
157.31
21
-107.064
0
LINE
8
BLACK
6
CONTINUOUS
10
156.51
20
-107.064
11
155.96
21
-107.064
0
LINE
8
BLACK
6
CONTINUOUS
10
155.96
20
-107.064
11
155.96
21
-105.564
0
LINE
8
BLACK
6
CONTINUOUS
10
155.96
20
-105.564
11
156.51
21
-105.564
0
LINE
8
BLACK
6
CONTINUOUS
10
156.51
20
-105.564
11
156.51
21
-107.064
0
LINE
8
BLACK
6
CONTINUOUS
10
155.71
20
-107.064
11
155.16
21
-107.064
0
LINE
8
BLACK
6
CONTINUOUS
10
155.16
20
-107.064
11
155.16
21
-105.564
0
LINE
8
BLACK
6
CONTINUOUS
10
155.16
20
-105.564
11
155.71
21
-105.564
0
LINE
8
BLACK
6
CONTINUOUS
10
155.71
20
-105.564
11
155.71
21
-107.064
0
LINE
8
BLACK
6
CONTINUOUS
10
154.91
20
-107.064
11
154.36
21
-107.064
0
LINE
8
BLACK
6
CONTINUOUS
10
154.36
20
-107.064
11
154.36
21
-105.564
0
LINE
8
BLACK
6
CONTINUOUS
10
154.36
20
-105.564
11
154.91
21
-105.564
0
LINE
8
BLACK
6
CONTINUOUS
10
154.91
20
-105.564
11
154.91
21
-107.064
0
LINE
8
BLACK
6
CONTINUOUS
10
154.11
20
-107.064
11
153.56
21
-107.064
0
LINE
8
BLACK
6
CONTINUOUS
10
153.56
20
-107.064
11
153.56
21
-105.564
0
LINE
8
BLACK
6
CONTINUOUS
10
153.56
20
-105.564
11
154.11
21
-105.564
0
LINE
8
BLACK
6
CONTINUOUS
10
154.11
20
-105.564
11
154.11
21
-107.064
0
LINE
8
BLACK
6
CONTINUOUS
10
153.31
20
-107.064
11
152.76
21
-107.064
0
LINE
8
BLACK
6
CONTINUOUS
10
152.76
20
-107.064
11
152.76
21
-105.564
0
LINE
8
BLACK
6
CONTINUOUS
10
152.76
20
-105.564
11
153.31
21
-105.564
0
LINE
8
BLACK
6
CONTINUOUS
10
153.31
20
-105.564
11
153.31
21
-107.064
0
LINE
8
BLACK
6
CONTINUOUS
10
152.51
20
-107.064
11
151.96
21
-107.064
0
LINE
8
BLACK
6
CONTINUOUS
10
151.96
20
-107.064
11
151.96
21
-105.564
0
LINE
8
BLACK
6
CONTINUOUS
10
151.96
20
-105.564
11
152.51
21
-105.564
0
LINE
8
BLACK
6
CONTINUOUS
10
152.51
20
-105.564
11
152.51
21
-107.064
0
LINE
8
BLACK
6
CONTINUOUS
10
151.71
20
-107.064
11
151.16
21
-107.064
0
LINE
8
BLACK
6
CONTINUOUS
10
151.16
20
-107.064
11
151.16
21
-105.564
0
LINE
8
BLACK
6
CONTINUOUS
10
151.16
20
-105.564
11
151.71
21
-105.564
0
LINE
8
BLACK
6
CONTINUOUS
10
151.71
20
-105.564
11
151.71
21
-107.064
0
LINE
8
BLACK
6
CONTINUOUS
10
150.91
20
-107.064
11
150.36
21
-107.064
0
LINE
8
BLACK
6
CONTINUOUS
10
150.36
20
-107.064
11
150.36
21
-105.564
0
LINE
8
BLACK
6
CONTINUOUS
10
150.36
20
-105.564
11
150.91
21
-105.564
0
LINE
8
BLACK
6
CONTINUOUS
10
150.91
20
-105.564
11
150.91
21
-107.064
0
LINE
8
BLACK
6
CONTINUOUS
10
150.11
20
-107.064
11
149.56
21
-107.064
0
LINE
8
BLACK
6
CONTINUOUS
10
149.56
20
-107.064
11
149.56
21
-105.564
0
LINE
8
BLACK
6
CONTINUOUS
10
149.56
20
-105.564
11
150.11
21
-105.564
0
LINE
8
BLACK
6
CONTINUOUS
10
150.11
20
-105.564
11
150.11
21
-107.064
0
LINE
8
BLACK
6
CONTINUOUS
10
149.31
20
-107.064
11
148.76
21
-107.064
0
LINE
8
BLACK
6
CONTINUOUS
10
148.76
20
-107.064
11
148.76
21
-105.564
0
LINE
8
BLACK
6
CONTINUOUS
10
148.76
20
-105.564
11
149.31
21
-105.564
0
LINE
8
BLACK
6
CONTINUOUS
10
149.31
20
-105.564
11
149.31
21
-107.064
0
LINE
8
BLACK
6
CONTINUOUS
10
132.083
20
-106.613
11
131.433
21
-106.613
0
LINE
8
BLACK
6
CONTINUOUS
10
131.433
20
-106.613
11
131.433
21
-105.563
0
LINE
8
BLACK
6
CONTINUOUS
10
131.433
20
-105.563
11
132.083
21
-105.563
0
LINE
8
BLACK
6
CONTINUOUS
10
132.083
20
-105.563
11
132.083
21
-106.613
0
LINE
8
BLACK
6
CONTINUOUS
10
129.933
20
-106.613
11
129.283
21
-106.613
0
LINE
8
BLACK
6
CONTINUOUS
10
129.283
20
-106.613
11
129.283
21
-105.563
0
LINE
8
BLACK
6
CONTINUOUS
10
129.283
20
-105.563
11
129.933
21
-105.563
0
LINE
8
BLACK
6
CONTINUOUS
10
129.933
20
-105.563
11
129.933
21
-106.613
0
LINE
8
BLACK
6
CONTINUOUS
10
125.329
20
-105.496
11
125.404
21
-105.539
0
LINE
8
BLACK
6
CONTINUOUS
10
125.404
20
-105.539
11
125.46
21
-105.606
0
LINE
8
BLACK
6
CONTINUOUS
10
125.46
20
-105.606
11
125.493
21
-105.731
0
LINE
8
BLACK
6
CONTINUOUS
10
125.493
20
-105.731
11
125.493
21
-106.356
0
LINE
8
BLACK
6
CONTINUOUS
10
125.493
20
-106.356
11
125.478
21
-106.442
0
LINE
8
BLACK
6
CONTINUOUS
10
125.478
20
-106.442
11
125.435
21
-106.517
0
LINE
8
BLACK
6
CONTINUOUS
10
125.435
20
-106.517
11
125.368
21
-106.573
0
LINE
8
BLACK
6
CONTINUOUS
10
125.368
20
-106.573
11
125.243
21
-106.606
0
LINE
8
BLACK
6
CONTINUOUS
10
125.243
20
-106.606
11
124.693
21
-106.606
0
LINE
8
BLACK
6
CONTINUOUS
10
124.693
20
-106.606
11
124.607
21
-106.591
0
LINE
8
BLACK
6
CONTINUOUS
10
124.607
20
-106.591
11
124.532
21
-106.548
0
LINE
8
BLACK
6
CONTINUOUS
10
124.532
20
-106.548
11
124.476
21
-106.481
0
LINE
8
BLACK
6
CONTINUOUS
10
124.476
20
-106.481
11
124.443
21
-106.356
0
LINE
8
BLACK
6
CONTINUOUS
10
124.443
20
-106.356
11
124.443
21
-105.731
0
LINE
8
BLACK
6
CONTINUOUS
10
124.443
20
-105.731
11
124.458
21
-105.645
0
LINE
8
BLACK
6
CONTINUOUS
10
124.458
20
-105.645
11
124.501
21
-105.57
0
LINE
8
BLACK
6
CONTINUOUS
10
124.501
20
-105.57
11
124.568
21
-105.514
0
LINE
8
BLACK
6
CONTINUOUS
10
124.568
20
-105.514
11
124.693
21
-105.481
0
LINE
8
BLACK
6
CONTINUOUS
10
124.693
20
-105.481
11
125.243
21
-105.481
0
LINE
8
BLACK
6
CONTINUOUS
10
125.243
20
-105.481
11
125.329
21
-105.496
0
LINE
8
BLACK
6
CONTINUOUS
10
137.925
20
-106.486
11
137.275
21
-106.486
0
LINE
8
BLACK
6
CONTINUOUS
10
137.275
20
-106.486
11
137.275
21
-105.436
0
LINE
8
BLACK
6
CONTINUOUS
10
137.275
20
-105.436
11
137.925
21
-105.436
0
LINE
8
BLACK
6
CONTINUOUS
10
137.925
20
-105.436
11
137.925
21
-106.486
0
LINE
8
BLACK
6
CONTINUOUS
10
135.775
20
-106.486
11
135.125
21
-106.486
0
LINE
8
BLACK
6
CONTINUOUS
10
135.125
20
-106.486
11
135.125
21
-105.436
0
LINE
8
BLACK
6
CONTINUOUS
10
135.125
20
-105.436
11
135.775
21
-105.436
0
LINE
8
BLACK
6
CONTINUOUS
10
135.775
20
-105.436
11
135.775
21
-106.486
0
LINE
8
BLACK
6
CONTINUOUS
10
141.775
20
-105.488
11
140.775
21
-105.488
0
LINE
8
BLACK
6
CONTINUOUS
10
140.775
20
-105.488
11
140.775
21
-103.988
0
LINE
8
BLACK
6
CONTINUOUS
10
140.775
20
-103.988
11
141.775
21
-103.988
0
LINE
8
BLACK
6
CONTINUOUS
10
141.775
20
-103.988
11
141.775
21
-105.488
0
LINE
8
BLACK
6
CONTINUOUS
10
144.975
20
-105.488
11
143.975
21
-105.488
0
LINE
8
BLACK
6
CONTINUOUS
10
143.975
20
-105.488
11
143.975
21
-103.988
0
LINE
8
BLACK
6
CONTINUOUS
10
143.975
20
-103.988
11
144.975
21
-103.988
0
LINE
8
BLACK
6
CONTINUOUS
10
144.975
20
-103.988
11
144.975
21
-105.488
0
LINE
8
BLACK
6
CONTINUOUS
10
125.329
20
-103.721
11
125.404
21
-103.764
0
LINE
8
BLACK
6
CONTINUOUS
10
125.404
20
-103.764
11
125.46
21
-103.831
0
LINE
8
BLACK
6
CONTINUOUS
10
125.46
20
-103.831
11
125.493
21
-103.956
0
LINE
8
BLACK
6
CONTINUOUS
10
125.493
20
-103.956
11
125.493
21
-104.581
0
LINE
8
BLACK
6
CONTINUOUS
10
125.493
20
-104.581
11
125.478
21
-104.667
0
LINE
8
BLACK
6
CONTINUOUS
10
125.478
20
-104.667
11
125.435
21
-104.742
0
LINE
8
BLACK
6
CONTINUOUS
10
125.435
20
-104.742
11
125.368
21
-104.798
0
LINE
8
BLACK
6
CONTINUOUS
10
125.368
20
-104.798
11
125.243
21
-104.831
0
LINE
8
BLACK
6
CONTINUOUS
10
125.243
20
-104.831
11
124.693
21
-104.831
0
LINE
8
BLACK
6
CONTINUOUS
10
124.693
20
-104.831
11
124.607
21
-104.816
0
LINE
8
BLACK
6
CONTINUOUS
10
124.607
20
-104.816
11
124.532
21
-104.773
0
LINE
8
BLACK
6
CONTINUOUS
10
124.532
20
-104.773
11
124.476
21
-104.706
0
LINE
8
BLACK
6
CONTINUOUS
10
124.476
20
-104.706
11
124.443
21
-104.581
0
LINE
8
BLACK
6
CONTINUOUS
10
124.443
20
-104.581
11
124.443
21
-103.956
0
LINE
8
BLACK
6
CONTINUOUS
10
124.443
20
-103.956
11
124.458
21
-103.87
0
LINE
8
BLACK
6
CONTINUOUS
10
124.458
20
-103.87
11
124.501
21
-103.795
0
LINE
8
BLACK
6
CONTINUOUS
10
124.501
20
-103.795
11
124.568
21
-103.739
0
LINE
8
BLACK
6
CONTINUOUS
10
124.568
20
-103.739
11
124.693
21
-103.706
0
LINE
8
BLACK
6
CONTINUOUS
10
124.693
20
-103.706
11
125.243
21
-103.706
0
LINE
8
BLACK
6
CONTINUOUS
10
125.243
20
-103.706
11
125.329
21
-103.721
0
LINE
8
BLACK
6
CONTINUOUS
10
144.975
20
-102.895
11
143.975
21
-102.895
0
LINE
8
BLACK
6
CONTINUOUS
10
143.975
20
-102.895
11
143.975
21
-101.395
0
LINE
8
BLACK
6
CONTINUOUS
10
143.975
20
-101.395
11
144.975
21
-101.395
0
LINE
8
BLACK
6
CONTINUOUS
10
144.975
20
-101.395
11
144.975
21
-102.895
0
LINE
8
BLACK
6
CONTINUOUS
10
141.775
20
-102.895
11
140.775
21
-102.895
0
LINE
8
BLACK
6
CONTINUOUS
10
140.775
20
-102.895
11
140.775
21
-101.395
0
LINE
8
BLACK
6
CONTINUOUS
10
140.775
20
-101.395
11
141.775
21
-101.395
0
LINE
8
BLACK
6
CONTINUOUS
10
141.775
20
-101.395
11
141.775
21
-102.895
0
LINE
8
BLACK
6
CONTINUOUS
10
124.191
20
-102.738
11
123.591
21
-102.738
0
LINE
8
BLACK
6
CONTINUOUS
10
123.591
20
-102.738
11
123.591
21
-101.438
0
LINE
8
BLACK
6
CONTINUOUS
10
123.591
20
-101.438
11
124.191
21
-101.438
0
LINE
8
BLACK
6
CONTINUOUS
10
124.191
20
-101.438
11
124.191
21
-102.738
0
LINE
8
BLACK
6
CONTINUOUS
10
125.141
20
-102.738
11
124.541
21
-102.738
0
LINE
8
BLACK
6
CONTINUOUS
10
124.541
20
-102.738
11
124.541
21
-101.438
0
LINE
8
BLACK
6
CONTINUOUS
10
124.541
20
-101.438
11
125.141
21
-101.438
0
LINE
8
BLACK
6
CONTINUOUS
10
125.141
20
-101.438
11
125.141
21
-102.738
0
LINE
8
BLACK
6
CONTINUOUS
10
126.091
20
-102.738
11
125.491
21
-102.738
0
LINE
8
BLACK
6
CONTINUOUS
10
125.491
20
-102.738
11
125.491
21
-101.438
0
LINE
8
BLACK
6
CONTINUOUS
10
125.491
20
-101.438
11
126.091
21
-101.438
0
LINE
8
BLACK
6
CONTINUOUS
10
126.091
20
-101.438
11
126.091
21
-102.738
0
LINE
8
BLACK
6
CONTINUOUS
10
129.933
20
-102.463
11
129.283
21
-102.463
0
LINE
8
BLACK
6
CONTINUOUS
10
129.283
20
-102.463
11
129.283
21
-101.413
0
LINE
8
BLACK
6
CONTINUOUS
10
129.283
20
-101.413
11
129.933
21
-101.413
0
LINE
8
BLACK
6
CONTINUOUS
10
129.933
20
-101.413
11
129.933
21
-102.463
0
LINE
8
BLACK
6
CONTINUOUS
10
132.083
20
-102.463
11
131.433
21
-102.463
0
LINE
8
BLACK
6
CONTINUOUS
10
131.433
20
-102.463
11
131.433
21
-101.413
0
LINE
8
BLACK
6
CONTINUOUS
10
131.433
20
-101.413
11
132.083
21
-101.413
0
LINE
8
BLACK
6
CONTINUOUS
10
132.083
20
-101.413
11
132.083
21
-102.463
0
LINE
8
BLACK
6
CONTINUOUS
10
135.775
20
-102.336
11
135.125
21
-102.336
0
LINE
8
BLACK
6
CONTINUOUS
10
135.125
20
-102.336
11
135.125
21
-101.286
0
LINE
8
BLACK
6
CONTINUOUS
10
135.125
20
-101.286
11
135.775
21
-101.286
0
LINE
8
BLACK
6
CONTINUOUS
10
135.775
20
-101.286
11
135.775
21
-102.336
0
LINE
8
BLACK
6
CONTINUOUS
10
137.925
20
-102.336
11
137.275
21
-102.336
0
LINE
8
BLACK
6
CONTINUOUS
10
137.275
20
-102.336
11
137.275
21
-101.286
0
LINE
8
BLACK
6
CONTINUOUS
10
137.275
20
-101.286
11
137.925
21
-101.286
0
LINE
8
BLACK
6
CONTINUOUS
10
137.925
20
-101.286
11
137.925
21
-102.336
0
LINE
8
BLACK
6
CONTINUOUS
10
122.027
20
-100.543
11
122.102
21
-100.586
0
LINE
8
BLACK
6
CONTINUOUS
10
122.102
20
-100.586
11
122.158
21
-100.653
0
LINE
8
BLACK
6
CONTINUOUS
10
122.158
20
-100.653
11
122.191
21
-100.778
0
LINE
8
BLACK
6
CONTINUOUS
10
122.191
20
-100.778
11
122.191
21
-101.403
0
LINE
8
BLACK
6
CONTINUOUS
10
122.191
20
-101.403
11
122.176
21
-101.489
0
LINE
8
BLACK
6
CONTINUOUS
10
122.176
20
-101.489
11
122.133
21
-101.564
0
LINE
8
BLACK
6
CONTINUOUS
10
122.133
20
-101.564
11
122.066
21
-101.62
0
LINE
8
BLACK
6
CONTINUOUS
10
122.066
20
-101.62
11
121.941
21
-101.653
0
LINE
8
BLACK
6
CONTINUOUS
10
121.941
20
-101.653
11
121.391
21
-101.653
0
LINE
8
BLACK
6
CONTINUOUS
10
121.391
20
-101.653
11
121.305
21
-101.638
0
LINE
8
BLACK
6
CONTINUOUS
10
121.305
20
-101.638
11
121.23
21
-101.595
0
LINE
8
BLACK
6
CONTINUOUS
10
121.23
20
-101.595
11
121.174
21
-101.528
0
LINE
8
BLACK
6
CONTINUOUS
10
121.174
20
-101.528
11
121.141
21
-101.403
0
LINE
8
BLACK
6
CONTINUOUS
10
121.141
20
-101.403
11
121.141
21
-100.778
0
LINE
8
BLACK
6
CONTINUOUS
10
121.141
20
-100.778
11
121.156
21
-100.692
0
LINE
8
BLACK
6
CONTINUOUS
10
121.156
20
-100.692
11
121.199
21
-100.617
0
LINE
8
BLACK
6
CONTINUOUS
10
121.199
20
-100.617
11
121.266
21
-100.561
0
LINE
8
BLACK
6
CONTINUOUS
10
121.266
20
-100.561
11
121.391
21
-100.528
0
LINE
8
BLACK
6
CONTINUOUS
10
121.391
20
-100.528
11
121.941
21
-100.528
0
LINE
8
BLACK
6
CONTINUOUS
10
121.941
20
-100.528
11
122.027
21
-100.543
0
LINE
8
BLACK
6
CONTINUOUS
10
124.191
20
-100.238
11
123.591
21
-100.238
0
LINE
8
BLACK
6
CONTINUOUS
10
123.591
20
-100.238
11
123.591
21
-98.938
0
LINE
8
BLACK
6
CONTINUOUS
10
123.591
20
-98.938
11
124.191
21
-98.938
0
LINE
8
BLACK
6
CONTINUOUS
10
124.191
20
-98.938
11
124.191
21
-100.238
0
LINE
8
BLACK
6
CONTINUOUS
10
125.141
20
-100.238
11
124.541
21
-100.238
0
LINE
8
BLACK
6
CONTINUOUS
10
124.541
20
-100.238
11
124.541
21
-98.938
0
LINE
8
BLACK
6
CONTINUOUS
10
124.541
20
-98.938
11
125.141
21
-98.938
0
LINE
8
BLACK
6
CONTINUOUS
10
125.141
20
-98.938
11
125.141
21
-100.238
0
LINE
8
BLACK
6
CONTINUOUS
10
126.091
20
-100.238
11
125.491
21
-100.238
0
LINE
8
BLACK
6
CONTINUOUS
10
125.491
20
-100.238
11
125.491
21
-98.938
0
LINE
8
BLACK
6
CONTINUOUS
10
125.491
20
-98.938
11
126.091
21
-98.938
0
LINE
8
BLACK
6
CONTINUOUS
10
126.091
20
-98.938
11
126.091
21
-100.238
0
LINE
8
BLACK
6
CONTINUOUS
10
122.027
20
-98.7681
11
122.102
21
-98.8115
0
LINE
8
BLACK
6
CONTINUOUS
10
122.102
20
-98.8115
11
122.158
21
-98.878
0
LINE
8
BLACK
6
CONTINUOUS
10
122.158
20
-98.878
11
122.191
21
-99.003
0
LINE
8
BLACK
6
CONTINUOUS
10
122.191
20
-99.003
11
122.191
21
-99.628
0
LINE
8
BLACK
6
CONTINUOUS
10
122.191
20
-99.628
11
122.176
21
-99.7135
0
LINE
8
BLACK
6
CONTINUOUS
10
122.176
20
-99.7135
11
122.133
21
-99.7887
0
LINE
8
BLACK
6
CONTINUOUS
10
122.133
20
-99.7887
11
122.066
21
-99.8445
0
LINE
8
BLACK
6
CONTINUOUS
10
122.066
20
-99.8445
11
121.941
21
-99.878
0
LINE
8
BLACK
6
CONTINUOUS
10
121.941
20
-99.878
11
121.391
21
-99.878
0
LINE
8
BLACK
6
CONTINUOUS
10
121.391
20
-99.878
11
121.305
21
-99.8629
0
LINE
8
BLACK
6
CONTINUOUS
10
121.305
20
-99.8629
11
121.23
21
-99.8195
0
LINE
8
BLACK
6
CONTINUOUS
10
121.23
20
-99.8195
11
121.174
21
-99.753
0
LINE
8
BLACK
6
CONTINUOUS
10
121.174
20
-99.753
11
121.141
21
-99.628
0
LINE
8
BLACK
6
CONTINUOUS
10
121.141
20
-99.628
11
121.141
21
-99.003
0
LINE
8
BLACK
6
CONTINUOUS
10
121.141
20
-99.003
11
121.156
21
-98.9175
0
LINE
8
BLACK
6
CONTINUOUS
10
121.156
20
-98.9175
11
121.199
21
-98.8423
0
LINE
8
BLACK
6
CONTINUOUS
10
121.199
20
-98.8423
11
121.266
21
-98.7865
0
LINE
8
BLACK
6
CONTINUOUS
10
121.266
20
-98.7865
11
121.391
21
-98.753
0
LINE
8
BLACK
6
CONTINUOUS
10
121.391
20
-98.753
11
121.941
21
-98.753
0
LINE
8
BLACK
6
CONTINUOUS
10
121.941
20
-98.753
11
122.027
21
-98.7681
0
LINE
8
BLACK
6
CONTINUOUS
10
141.775
20
-97.995
11
140.775
21
-97.995
0
LINE
8
BLACK
6
CONTINUOUS
10
140.775
20
-97.995
11
140.775
21
-96.495
0
LINE
8
BLACK
6
CONTINUOUS
10
140.775
20
-96.495
11
141.775
21
-96.495
0
LINE
8
BLACK
6
CONTINUOUS
10
141.775
20
-96.495
11
141.775
21
-97.995
0
LINE
8
BLACK
6
CONTINUOUS
10
144.975
20
-97.995
11
143.975
21
-97.995
0
LINE
8
BLACK
6
CONTINUOUS
10
143.975
20
-97.995
11
143.975
21
-96.495
0
LINE
8
BLACK
6
CONTINUOUS
10
143.975
20
-96.495
11
144.975
21
-96.495
0
LINE
8
BLACK
6
CONTINUOUS
10
144.975
20
-96.495
11
144.975
21
-97.995
  0
ENDSEC
  0
EOF
