  0
SECTION
  2
HEADER
  9
$ANGBASE
  50
0.0
  9
$ANGDIR
  70
  1
  9
$MEASUREMENT
  70
0
  0
ENDSEC
  0
SECTION
  2
TABLES
  0
TABLE
  2
LTYPE
  70
4
  0
LTYPE
  5
40F
  2
CONTINUOUS
  70
0
  3
Solid line
  72
65
  73
0
  40
0.0
  0
LTYPE
  5
410
  2
DASHDOT
 70
0
  3
Dash Dot ____ _ ____ _
 72
65
 73
4
 40
2.0
 49
1.25
 49
-0.25
 49
0.25
 49
-0.25
  0
LTYPE
  5
411
  2
DASHED
 70
0
  3
Dashed __ __ __ __ __
 72
65
 73
2
 40
0.75
 49
0.5
 49
-0.25
  0
LTYPE
  5
43B
  2
DOTTED
 70
0
  3
Dotted .  .  .  .
 72
65
 73
2
 40
0.2
 49
0.0
 49
-0.2
  0
ENDTAB
  0
TABLE
  2
STYLE
  70
4
  0
STYLE
  2
KICAD
  70
0
  40
0
  41
1
  42
1
  50
0
  71
0
  3
isocp.shx
  0
STYLE
  2
KICADB
  70
0
  40
0
  41
1
  42
1
  50
0
  71
0
  3
isocp.shx
  0
STYLE
  2
KICADI
  70
0
  40
0
  41
1
  42
1
  50
15
  71
0
  3
isocp.shx
  0
STYLE
  2
KICADBI
  70
0
  40
0
  41
1
  42
1
  50
15
  71
0
  3
isocp.shx
  0
ENDTAB
  0
TABLE
  2
LAYER
  70
30
  0
LAYER
  2
BLACK
  70
0
  62
7
  6
CONTINUOUS
  0
LAYER
  2
GRAY1
  70
0
  62
251
  6
CONTINUOUS
  0
LAYER
  2
GRAY2
  70
0
  62
8
  6
CONTINUOUS
  0
LAYER
  2
GRAY3
  70
0
  62
9
  6
CONTINUOUS
  0
LAYER
  2
WHITE
  70
0
  62
7
  6
CONTINUOUS
  0
LAYER
  2
LYELLOW
  70
0
  62
51
  6
CONTINUOUS
  0
LAYER
  2
BLUE1
  70
0
  62
178
  6
CONTINUOUS
  0
LAYER
  2
GREEN1
  70
0
  62
98
  6
CONTINUOUS
  0
LAYER
  2
CYAN1
  70
0
  62
138
  6
CONTINUOUS
  0
LAYER
  2
RED1
  70
0
  62
18
  6
CONTINUOUS
  0
LAYER
  2
MAGENTA1
  70
0
  62
228
  6
CONTINUOUS
  0
LAYER
  2
BROWN1
  70
0
  62
58
  6
CONTINUOUS
  0
LAYER
  2
BLUE2
  70
0
  62
5
  6
CONTINUOUS
  0
LAYER
  2
GREEN2
  70
0
  62
3
  6
CONTINUOUS
  0
LAYER
  2
CYAN2
  70
0
  62
4
  6
CONTINUOUS
  0
LAYER
  2
RED2
  70
0
  62
1
  6
CONTINUOUS
  0
LAYER
  2
MAGENTA2
  70
0
  62
6
  6
CONTINUOUS
  0
LAYER
  2
BROWN2
  70
0
  62
54
  6
CONTINUOUS
  0
LAYER
  2
BLUE3
  70
0
  62
171
  6
CONTINUOUS
  0
LAYER
  2
GREEN3
  70
0
  62
91
  6
CONTINUOUS
  0
LAYER
  2
CYAN3
  70
0
  62
131
  6
CONTINUOUS
  0
LAYER
  2
RED3
  70
0
  62
11
  6
CONTINUOUS
  0
LAYER
  2
MAGENTA3
  70
0
  62
221
  6
CONTINUOUS
  0
LAYER
  2
YELLOW3
  70
0
  62
2
  6
CONTINUOUS
  0
LAYER
  2
BLUE4
  70
0
  62
5
  6
CONTINUOUS
  0
LAYER
  2
GREEN4
  70
0
  62
3
  6
CONTINUOUS
  0
LAYER
  2
CYAN4
  70
0
  62
4
  6
CONTINUOUS
  0
LAYER
  2
RED4
  70
0
  62
1
  6
CONTINUOUS
  0
LAYER
  2
MAGENTA4
  70
0
  62
6
  6
CONTINUOUS
  0
LAYER
  2
YELLOW4
  70
0
  62
2
  6
CONTINUOUS
  0
ENDTAB
  0
ENDSEC
  0
SECTION
  2
ENTITIES
0
LINE
8
BLACK
6
CONTINUOUS
10
148.501
20
-79.8678
11
148.505
21
-79.8676
0
LINE
8
BLACK
6
CONTINUOUS
10
148.505
20
-79.8676
11
150.467
21
-79.9446
0
LINE
8
BLACK
6
CONTINUOUS
10
150.467
20
-79.9446
11
150.469
21
-79.9447
0
LINE
8
BLACK
6
CONTINUOUS
10
150.469
20
-79.9447
11
150.473
21
-79.9453
0
LINE
8
BLACK
6
CONTINUOUS
10
150.473
20
-79.9453
11
150.477
21
-79.9454
0
LINE
8
BLACK
6
CONTINUOUS
10
150.477
20
-79.9454
11
152.427
21
-80.1762
0
LINE
8
BLACK
6
CONTINUOUS
10
152.427
20
-80.1762
11
152.428
21
-80.1764
0
LINE
8
BLACK
6
CONTINUOUS
10
152.428
20
-80.1764
11
152.432
21
-80.1774
0
LINE
8
BLACK
6
CONTINUOUS
10
152.432
20
-80.1774
11
152.437
21
-80.1778
0
LINE
8
BLACK
6
CONTINUOUS
10
152.437
20
-80.1778
11
154.362
21
-80.5608
0
LINE
8
BLACK
6
CONTINUOUS
10
154.362
20
-80.5608
11
154.364
21
-80.5612
0
LINE
8
BLACK
6
CONTINUOUS
10
154.364
20
-80.5612
11
154.368
21
-80.5624
0
LINE
8
BLACK
6
CONTINUOUS
10
154.368
20
-80.5624
11
154.372
21
-80.5631
0
LINE
8
BLACK
6
CONTINUOUS
10
154.372
20
-80.5631
11
156.262
21
-81.0961
0
LINE
8
BLACK
6
CONTINUOUS
10
156.262
20
-81.0961
11
156.263
21
-81.0966
0
LINE
8
BLACK
6
CONTINUOUS
10
156.263
20
-81.0966
11
156.267
21
-81.0981
0
LINE
8
BLACK
6
CONTINUOUS
10
156.267
20
-81.0981
11
156.271
21
-81.0992
0
LINE
8
BLACK
6
CONTINUOUS
10
156.271
20
-81.0992
11
158.113
21
-81.7787
0
LINE
8
BLACK
6
CONTINUOUS
10
158.113
20
-81.7787
11
158.115
21
-81.7794
0
LINE
8
BLACK
6
CONTINUOUS
10
158.115
20
-81.7794
11
158.118
21
-81.7812
0
LINE
8
BLACK
6
CONTINUOUS
10
158.118
20
-81.7812
11
158.122
21
-81.7826
0
LINE
8
BLACK
6
CONTINUOUS
10
158.122
20
-81.7826
11
159.905
21
-82.6046
0
LINE
8
BLACK
6
CONTINUOUS
10
159.905
20
-82.6046
11
159.907
21
-82.6053
0
LINE
8
BLACK
6
CONTINUOUS
10
159.907
20
-82.6053
11
159.911
21
-82.6074
0
LINE
8
BLACK
6
CONTINUOUS
10
159.911
20
-82.6074
11
159.914
21
-82.6091
0
LINE
8
BLACK
6
CONTINUOUS
10
159.914
20
-82.6091
11
161.627
21
-83.5685
0
LINE
8
BLACK
6
CONTINUOUS
10
161.627
20
-83.5685
11
161.629
21
-83.5693
0
LINE
8
BLACK
6
CONTINUOUS
10
161.629
20
-83.5693
11
161.632
21
-83.5717
0
LINE
8
BLACK
6
CONTINUOUS
10
161.632
20
-83.5717
11
161.636
21
-83.5737
0
LINE
8
BLACK
6
CONTINUOUS
10
161.636
20
-83.5737
11
163.268
21
-84.6645
0
LINE
8
BLACK
6
CONTINUOUS
10
163.268
20
-84.6645
11
163.27
21
-84.6655
0
LINE
8
BLACK
6
CONTINUOUS
10
163.27
20
-84.6655
11
163.273
21
-84.6681
0
LINE
8
BLACK
6
CONTINUOUS
10
163.273
20
-84.6681
11
163.277
21
-84.6704
0
LINE
8
BLACK
6
CONTINUOUS
10
163.277
20
-84.6704
11
164.818
21
-85.8859
0
LINE
8
BLACK
6
CONTINUOUS
10
164.818
20
-85.8859
11
164.82
21
-85.887
0
LINE
8
BLACK
6
CONTINUOUS
10
164.82
20
-85.887
11
164.823
21
-85.8899
0
LINE
8
BLACK
6
CONTINUOUS
10
164.823
20
-85.8899
11
164.826
21
-85.8924
0
LINE
8
BLACK
6
CONTINUOUS
10
164.826
20
-85.8924
11
166.268
21
-87.2252
0
LINE
8
BLACK
6
CONTINUOUS
10
166.268
20
-87.2252
11
166.269
21
-87.2264
0
LINE
8
BLACK
6
CONTINUOUS
10
166.269
20
-87.2264
11
166.272
21
-87.2295
0
LINE
8
BLACK
6
CONTINUOUS
10
166.272
20
-87.2295
11
166.275
21
-87.2322
0
LINE
8
BLACK
6
CONTINUOUS
10
166.275
20
-87.2322
11
167.608
21
-88.674
0
LINE
8
BLACK
6
CONTINUOUS
10
167.608
20
-88.674
11
167.609
21
-88.6753
0
LINE
8
BLACK
6
CONTINUOUS
10
167.609
20
-88.6753
11
167.611
21
-88.6786
0
LINE
8
BLACK
6
CONTINUOUS
10
167.611
20
-88.6786
11
167.614
21
-88.6816
0
LINE
8
BLACK
6
CONTINUOUS
10
167.614
20
-88.6816
11
168.83
21
-90.2235
0
LINE
8
BLACK
6
CONTINUOUS
10
168.83
20
-90.2235
11
168.831
21
-90.2249
0
LINE
8
BLACK
6
CONTINUOUS
10
168.831
20
-90.2249
11
168.833
21
-90.2284
0
LINE
8
BLACK
6
CONTINUOUS
10
168.833
20
-90.2284
11
168.836
21
-90.2316
0
LINE
8
BLACK
6
CONTINUOUS
10
168.836
20
-90.2316
11
169.926
21
-91.8641
0
LINE
8
BLACK
6
CONTINUOUS
10
169.926
20
-91.8641
11
169.927
21
-91.8656
0
LINE
8
BLACK
6
CONTINUOUS
10
169.927
20
-91.8656
11
169.929
21
-91.8692
0
LINE
8
BLACK
6
CONTINUOUS
10
169.929
20
-91.8692
11
169.932
21
-91.8726
0
LINE
8
BLACK
6
CONTINUOUS
10
169.932
20
-91.8726
11
170.891
21
-93.5857
0
LINE
8
BLACK
6
CONTINUOUS
10
170.891
20
-93.5857
11
170.892
21
-93.5872
0
LINE
8
BLACK
6
CONTINUOUS
10
170.892
20
-93.5872
11
170.893
21
-93.591
0
LINE
8
BLACK
6
CONTINUOUS
10
170.893
20
-93.591
11
170.895
21
-93.5946
0
LINE
8
BLACK
6
CONTINUOUS
10
170.895
20
-93.5946
11
171.717
21
-95.3776
0
LINE
8
BLACK
6
CONTINUOUS
10
171.717
20
-95.3776
11
171.718
21
-95.3792
0
LINE
8
BLACK
6
CONTINUOUS
10
171.718
20
-95.3792
11
171.719
21
-95.3831
0
LINE
8
BLACK
6
CONTINUOUS
10
171.719
20
-95.3831
11
171.721
21
-95.3868
0
LINE
8
BLACK
6
CONTINUOUS
10
171.721
20
-95.3868
11
172.401
21
-97.2289
0
LINE
8
BLACK
6
CONTINUOUS
10
172.401
20
-97.2289
11
172.401
21
-97.2306
0
LINE
8
BLACK
6
CONTINUOUS
10
172.401
20
-97.2306
11
172.402
21
-97.2346
0
LINE
8
BLACK
6
CONTINUOUS
10
172.402
20
-97.2346
11
172.404
21
-97.2384
0
LINE
8
BLACK
6
CONTINUOUS
10
172.404
20
-97.2384
11
172.937
21
-99.1281
0
LINE
8
BLACK
6
CONTINUOUS
10
172.937
20
-99.1281
11
172.937
21
-99.1298
0
LINE
8
BLACK
6
CONTINUOUS
10
172.937
20
-99.1298
11
172.938
21
-99.1339
0
LINE
8
BLACK
6
CONTINUOUS
10
172.938
20
-99.1339
11
172.939
21
-99.1378
0
LINE
8
BLACK
6
CONTINUOUS
10
172.939
20
-99.1378
11
173.322
21
-101.063
0
LINE
8
BLACK
6
CONTINUOUS
10
173.322
20
-101.063
11
173.323
21
-101.065
0
LINE
8
BLACK
6
CONTINUOUS
10
173.323
20
-101.065
11
173.323
21
-101.069
0
LINE
8
BLACK
6
CONTINUOUS
10
173.323
20
-101.069
11
173.324
21
-101.073
0
LINE
8
BLACK
6
CONTINUOUS
10
173.324
20
-101.073
11
173.555
21
-103.023
0
LINE
8
BLACK
6
CONTINUOUS
10
173.555
20
-103.023
11
173.555
21
-103.025
0
LINE
8
BLACK
6
CONTINUOUS
10
173.555
20
-103.025
11
173.555
21
-103.029
0
LINE
8
BLACK
6
CONTINUOUS
10
173.555
20
-103.029
11
173.555
21
-103.033
0
LINE
8
BLACK
6
CONTINUOUS
10
173.555
20
-103.033
11
173.632
21
-104.995
0
LINE
8
BLACK
6
CONTINUOUS
10
173.632
20
-104.995
11
173.632
21
-104.997
0
LINE
8
BLACK
6
CONTINUOUS
10
173.632
20
-104.997
11
173.632
21
-105.001
0
LINE
8
BLACK
6
CONTINUOUS
10
173.632
20
-105.001
11
173.632
21
-105.005
0
LINE
8
BLACK
6
CONTINUOUS
10
173.632
20
-105.005
11
173.555
21
-106.967
0
LINE
8
BLACK
6
CONTINUOUS
10
173.555
20
-106.967
11
173.555
21
-106.969
0
LINE
8
BLACK
6
CONTINUOUS
10
173.555
20
-106.969
11
173.555
21
-106.973
0
LINE
8
BLACK
6
CONTINUOUS
10
173.555
20
-106.973
11
173.555
21
-106.977
0
LINE
8
BLACK
6
CONTINUOUS
10
173.555
20
-106.977
11
173.324
21
-108.927
0
LINE
8
BLACK
6
CONTINUOUS
10
173.324
20
-108.927
11
173.324
21
-108.928
0
LINE
8
BLACK
6
CONTINUOUS
10
173.324
20
-108.928
11
173.323
21
-108.932
0
LINE
8
BLACK
6
CONTINUOUS
10
173.323
20
-108.932
11
173.322
21
-108.937
0
LINE
8
BLACK
6
CONTINUOUS
10
173.322
20
-108.937
11
172.939
21
-110.862
0
LINE
8
BLACK
6
CONTINUOUS
10
172.939
20
-110.862
11
172.939
21
-110.864
0
LINE
8
BLACK
6
CONTINUOUS
10
172.939
20
-110.864
11
172.938
21
-110.868
0
LINE
8
BLACK
6
CONTINUOUS
10
172.938
20
-110.868
11
172.937
21
-110.872
0
LINE
8
BLACK
6
CONTINUOUS
10
172.937
20
-110.872
11
172.404
21
-112.762
0
LINE
8
BLACK
6
CONTINUOUS
10
172.404
20
-112.762
11
172.403
21
-112.763
0
LINE
8
BLACK
6
CONTINUOUS
10
172.403
20
-112.763
11
172.402
21
-112.767
0
LINE
8
BLACK
6
CONTINUOUS
10
172.402
20
-112.767
11
172.401
21
-112.771
0
LINE
8
BLACK
6
CONTINUOUS
10
172.401
20
-112.771
11
171.721
21
-114.613
0
LINE
8
BLACK
6
CONTINUOUS
10
171.721
20
-114.613
11
171.721
21
-114.615
0
LINE
8
BLACK
6
CONTINUOUS
10
171.721
20
-114.615
11
171.719
21
-114.618
0
LINE
8
BLACK
6
CONTINUOUS
10
171.719
20
-114.618
11
171.717
21
-114.622
0
LINE
8
BLACK
6
CONTINUOUS
10
171.717
20
-114.622
11
170.895
21
-116.405
0
LINE
8
BLACK
6
CONTINUOUS
10
170.895
20
-116.405
11
170.895
21
-116.407
0
LINE
8
BLACK
6
CONTINUOUS
10
170.895
20
-116.407
11
170.893
21
-116.411
0
LINE
8
BLACK
6
CONTINUOUS
10
170.893
20
-116.411
11
170.891
21
-116.414
0
LINE
8
BLACK
6
CONTINUOUS
10
170.891
20
-116.414
11
169.932
21
-118.127
0
LINE
8
BLACK
6
CONTINUOUS
10
169.932
20
-118.127
11
169.931
21
-118.129
0
LINE
8
BLACK
6
CONTINUOUS
10
169.931
20
-118.129
11
169.928
21
-118.132
0
LINE
8
BLACK
6
CONTINUOUS
10
169.928
20
-118.132
11
169.926
21
-118.136
0
LINE
8
BLACK
6
CONTINUOUS
10
169.926
20
-118.136
11
168.836
21
-119.768
0
LINE
8
BLACK
6
CONTINUOUS
10
168.836
20
-119.768
11
168.835
21
-119.77
0
LINE
8
BLACK
6
CONTINUOUS
10
168.835
20
-119.77
11
168.832
21
-119.773
0
LINE
8
BLACK
6
CONTINUOUS
10
168.832
20
-119.773
11
168.83
21
-119.777
0
LINE
8
BLACK
6
CONTINUOUS
10
168.83
20
-119.777
11
167.614
21
-121.318
0
LINE
8
BLACK
6
CONTINUOUS
10
167.614
20
-121.318
11
167.613
21
-121.32
0
LINE
8
BLACK
6
CONTINUOUS
10
167.613
20
-121.32
11
167.61
21
-121.323
0
LINE
8
BLACK
6
CONTINUOUS
10
167.61
20
-121.323
11
167.608
21
-121.326
0
LINE
8
BLACK
6
CONTINUOUS
10
167.608
20
-121.326
11
166.275
21
-122.768
0
LINE
8
BLACK
6
CONTINUOUS
10
166.275
20
-122.768
11
166.274
21
-122.769
0
LINE
8
BLACK
6
CONTINUOUS
10
166.274
20
-122.769
11
166.271
21
-122.772
0
LINE
8
BLACK
6
CONTINUOUS
10
166.271
20
-122.772
11
166.268
21
-122.775
0
LINE
8
BLACK
6
CONTINUOUS
10
166.268
20
-122.775
11
164.826
21
-124.108
0
LINE
8
BLACK
6
CONTINUOUS
10
164.826
20
-124.108
11
164.825
21
-124.109
0
LINE
8
BLACK
6
CONTINUOUS
10
164.825
20
-124.109
11
164.821
21
-124.111
0
LINE
8
BLACK
6
CONTINUOUS
10
164.821
20
-124.111
11
164.818
21
-124.114
0
LINE
8
BLACK
6
CONTINUOUS
10
164.818
20
-124.114
11
163.277
21
-125.33
0
LINE
8
BLACK
6
CONTINUOUS
10
163.277
20
-125.33
11
163.275
21
-125.331
0
LINE
8
BLACK
6
CONTINUOUS
10
163.275
20
-125.331
11
163.272
21
-125.333
0
LINE
8
BLACK
6
CONTINUOUS
10
163.272
20
-125.333
11
163.268
21
-125.336
0
LINE
8
BLACK
6
CONTINUOUS
10
163.268
20
-125.336
11
161.636
21
-126.426
0
LINE
8
BLACK
6
CONTINUOUS
10
161.636
20
-126.426
11
161.634
21
-126.427
0
LINE
8
BLACK
6
CONTINUOUS
10
161.634
20
-126.427
11
161.631
21
-126.429
0
LINE
8
BLACK
6
CONTINUOUS
10
161.631
20
-126.429
11
161.627
21
-126.432
0
LINE
8
BLACK
6
CONTINUOUS
10
161.627
20
-126.432
11
159.914
21
-127.391
0
LINE
8
BLACK
6
CONTINUOUS
10
159.914
20
-127.391
11
159.913
21
-127.392
0
LINE
8
BLACK
6
CONTINUOUS
10
159.913
20
-127.392
11
159.909
21
-127.393
0
LINE
8
BLACK
6
CONTINUOUS
10
159.909
20
-127.393
11
159.905
21
-127.395
0
LINE
8
BLACK
6
CONTINUOUS
10
159.905
20
-127.395
11
158.122
21
-128.217
0
LINE
8
BLACK
6
CONTINUOUS
10
158.122
20
-128.217
11
158.121
21
-128.218
0
LINE
8
BLACK
6
CONTINUOUS
10
158.121
20
-128.218
11
158.117
21
-128.219
0
LINE
8
BLACK
6
CONTINUOUS
10
158.117
20
-128.219
11
158.113
21
-128.221
0
LINE
8
BLACK
6
CONTINUOUS
10
158.113
20
-128.221
11
156.271
21
-128.901
0
LINE
8
BLACK
6
CONTINUOUS
10
156.271
20
-128.901
11
156.269
21
-128.901
0
LINE
8
BLACK
6
CONTINUOUS
10
156.269
20
-128.901
11
156.265
21
-128.902
0
LINE
8
BLACK
6
CONTINUOUS
10
156.265
20
-128.902
11
156.262
21
-128.904
0
LINE
8
BLACK
6
CONTINUOUS
10
156.262
20
-128.904
11
154.709
21
-129.342
0
LINE
8
BLACK
6
CONTINUOUS
10
154.709
20
-129.342
11
154.707
21
-129.342
0
LINE
8
BLACK
6
CONTINUOUS
10
154.707
20
-129.342
11
154.696
21
-129.344
0
LINE
8
BLACK
6
CONTINUOUS
10
154.696
20
-129.344
11
154.686
21
-129.346
0
LINE
8
BLACK
6
CONTINUOUS
10
154.686
20
-129.346
11
154.684
21
-129.346
0
LINE
8
BLACK
6
CONTINUOUS
10
154.684
20
-129.346
11
154.683
21
-129.346
0
LINE
8
BLACK
6
CONTINUOUS
10
154.683
20
-129.346
11
154.672
21
-129.346
0
LINE
8
BLACK
6
CONTINUOUS
10
154.672
20
-129.346
11
154.661
21
-129.346
0
LINE
8
BLACK
6
CONTINUOUS
10
154.661
20
-129.346
11
154.659
21
-129.346
0
LINE
8
BLACK
6
CONTINUOUS
10
154.659
20
-129.346
11
154.658
21
-129.346
0
LINE
8
BLACK
6
CONTINUOUS
10
154.658
20
-129.346
11
154.647
21
-129.343
0
LINE
8
BLACK
6
CONTINUOUS
10
154.647
20
-129.343
11
154.637
21
-129.341
0
LINE
8
BLACK
6
CONTINUOUS
10
154.637
20
-129.341
11
154.635
21
-129.34
0
LINE
8
BLACK
6
CONTINUOUS
10
154.635
20
-129.34
11
154.634
21
-129.34
0
LINE
8
BLACK
6
CONTINUOUS
10
154.634
20
-129.34
11
154.624
21
-129.336
0
LINE
8
BLACK
6
CONTINUOUS
10
154.624
20
-129.336
11
154.614
21
-129.331
0
LINE
8
BLACK
6
CONTINUOUS
10
154.614
20
-129.331
11
154.612
21
-129.33
0
LINE
8
BLACK
6
CONTINUOUS
10
154.612
20
-129.33
11
154.611
21
-129.33
0
LINE
8
BLACK
6
CONTINUOUS
10
154.611
20
-129.33
11
154.602
21
-129.324
0
LINE
8
BLACK
6
CONTINUOUS
10
154.602
20
-129.324
11
154.593
21
-129.317
0
LINE
8
BLACK
6
CONTINUOUS
10
154.593
20
-129.317
11
154.592
21
-129.316
0
LINE
8
BLACK
6
CONTINUOUS
10
154.592
20
-129.316
11
154.591
21
-129.315
0
LINE
8
BLACK
6
CONTINUOUS
10
154.591
20
-129.315
11
154.583
21
-129.308
0
LINE
8
BLACK
6
CONTINUOUS
10
154.583
20
-129.308
11
154.576
21
-129.3
0
LINE
8
BLACK
6
CONTINUOUS
10
154.576
20
-129.3
11
154.575
21
-129.299
0
LINE
8
BLACK
6
CONTINUOUS
10
154.575
20
-129.299
11
154.574
21
-129.297
0
LINE
8
BLACK
6
CONTINUOUS
10
154.574
20
-129.297
11
154.568
21
-129.288
0
LINE
8
BLACK
6
CONTINUOUS
10
154.568
20
-129.288
11
154.562
21
-129.279
0
LINE
8
BLACK
6
CONTINUOUS
10
154.562
20
-129.279
11
154.562
21
-129.278
0
LINE
8
BLACK
6
CONTINUOUS
10
154.562
20
-129.278
11
154.561
21
-129.276
0
LINE
8
BLACK
6
CONTINUOUS
10
154.561
20
-129.276
11
154.557
21
-129.266
0
LINE
8
BLACK
6
CONTINUOUS
10
154.557
20
-129.266
11
154.553
21
-129.256
0
LINE
8
BLACK
6
CONTINUOUS
10
154.553
20
-129.256
11
154.552
21
-129.255
0
LINE
8
BLACK
6
CONTINUOUS
10
154.552
20
-129.255
11
154.552
21
-129.253
0
LINE
8
BLACK
6
CONTINUOUS
10
154.552
20
-129.253
11
154.55
21
-129.243
0
LINE
8
BLACK
6
CONTINUOUS
10
154.55
20
-129.243
11
154.548
21
-129.232
0
LINE
8
BLACK
6
CONTINUOUS
10
154.548
20
-129.232
11
154.548
21
-129.23
0
LINE
8
BLACK
6
CONTINUOUS
10
154.548
20
-129.23
11
154.548
21
-129.229
0
LINE
8
BLACK
6
CONTINUOUS
10
154.548
20
-129.229
11
154.548
21
-129.218
0
LINE
8
BLACK
6
CONTINUOUS
10
154.548
20
-129.218
11
154.548
21
-129.207
0
LINE
8
BLACK
6
CONTINUOUS
10
154.548
20
-129.207
11
154.558
21
-129.104
0
LINE
8
BLACK
6
CONTINUOUS
10
154.558
20
-129.104
11
154.558
21
-127.796
0
LINE
8
BLACK
6
CONTINUOUS
10
154.558
20
-127.796
11
154.542
21
-127.633
0
LINE
8
BLACK
6
CONTINUOUS
10
154.542
20
-127.633
11
154.479
21
-127.424
0
LINE
8
BLACK
6
CONTINUOUS
10
154.479
20
-127.424
11
154.376
21
-127.231
0
LINE
8
BLACK
6
CONTINUOUS
10
154.376
20
-127.231
11
154.237
21
-127.063
0
LINE
8
BLACK
6
CONTINUOUS
10
154.237
20
-127.063
11
154.069
21
-126.924
0
LINE
8
BLACK
6
CONTINUOUS
10
154.069
20
-126.924
11
153.876
21
-126.821
0
LINE
8
BLACK
6
CONTINUOUS
10
153.876
20
-126.821
11
153.667
21
-126.758
0
LINE
8
BLACK
6
CONTINUOUS
10
153.667
20
-126.758
11
153.45
21
-126.737
0
LINE
8
BLACK
6
CONTINUOUS
10
153.45
20
-126.737
11
153.233
21
-126.758
0
LINE
8
BLACK
6
CONTINUOUS
10
153.233
20
-126.758
11
153.024
21
-126.821
0
LINE
8
BLACK
6
CONTINUOUS
10
153.024
20
-126.821
11
152.831
21
-126.924
0
LINE
8
BLACK
6
CONTINUOUS
10
152.831
20
-126.924
11
152.663
21
-127.063
0
LINE
8
BLACK
6
CONTINUOUS
10
152.663
20
-127.063
11
152.524
21
-127.231
0
LINE
8
BLACK
6
CONTINUOUS
10
152.524
20
-127.231
11
152.421
21
-127.424
0
LINE
8
BLACK
6
CONTINUOUS
10
152.421
20
-127.424
11
152.358
21
-127.633
0
LINE
8
BLACK
6
CONTINUOUS
10
152.358
20
-127.633
11
152.342
21
-127.796
0
LINE
8
BLACK
6
CONTINUOUS
10
152.342
20
-127.796
11
152.342
21
-129.104
0
LINE
8
BLACK
6
CONTINUOUS
10
152.342
20
-129.104
11
152.358
21
-129.267
0
LINE
8
BLACK
6
CONTINUOUS
10
152.358
20
-129.267
11
152.421
21
-129.476
0
LINE
8
BLACK
6
CONTINUOUS
10
152.421
20
-129.476
11
152.509
21
-129.64
0
LINE
8
BLACK
6
CONTINUOUS
10
152.509
20
-129.64
11
152.51
21
-129.641
0
LINE
8
BLACK
6
CONTINUOUS
10
152.51
20
-129.641
11
152.514
21
-129.651
0
LINE
8
BLACK
6
CONTINUOUS
10
152.514
20
-129.651
11
152.518
21
-129.661
0
LINE
8
BLACK
6
CONTINUOUS
10
152.518
20
-129.661
11
152.518
21
-129.663
0
LINE
8
BLACK
6
CONTINUOUS
10
152.518
20
-129.663
11
152.519
21
-129.664
0
LINE
8
BLACK
6
CONTINUOUS
10
152.519
20
-129.664
11
152.521
21
-129.675
0
LINE
8
BLACK
6
CONTINUOUS
10
152.521
20
-129.675
11
152.523
21
-129.685
0
LINE
8
BLACK
6
CONTINUOUS
10
152.523
20
-129.685
11
152.523
21
-129.687
0
LINE
8
BLACK
6
CONTINUOUS
10
152.523
20
-129.687
11
152.523
21
-129.689
0
LINE
8
BLACK
6
CONTINUOUS
10
152.523
20
-129.689
11
152.523
21
-129.699
0
LINE
8
BLACK
6
CONTINUOUS
10
152.523
20
-129.699
11
152.523
21
-129.71
0
LINE
8
BLACK
6
CONTINUOUS
10
152.523
20
-129.71
11
152.523
21
-129.712
0
LINE
8
BLACK
6
CONTINUOUS
10
152.523
20
-129.712
11
152.523
21
-129.713
0
LINE
8
BLACK
6
CONTINUOUS
10
152.523
20
-129.713
11
152.521
21
-129.724
0
LINE
8
BLACK
6
CONTINUOUS
10
152.521
20
-129.724
11
152.519
21
-129.735
0
LINE
8
BLACK
6
CONTINUOUS
10
152.519
20
-129.735
11
152.518
21
-129.736
0
LINE
8
BLACK
6
CONTINUOUS
10
152.518
20
-129.736
11
152.518
21
-129.738
0
LINE
8
BLACK
6
CONTINUOUS
10
152.518
20
-129.738
11
152.514
21
-129.748
0
LINE
8
BLACK
6
CONTINUOUS
10
152.514
20
-129.748
11
152.51
21
-129.758
0
LINE
8
BLACK
6
CONTINUOUS
10
152.51
20
-129.758
11
152.509
21
-129.759
0
LINE
8
BLACK
6
CONTINUOUS
10
152.509
20
-129.759
11
152.508
21
-129.76
0
LINE
8
BLACK
6
CONTINUOUS
10
152.508
20
-129.76
11
152.502
21
-129.769
0
LINE
8
BLACK
6
CONTINUOUS
10
152.502
20
-129.769
11
152.496
21
-129.778
0
LINE
8
BLACK
6
CONTINUOUS
10
152.496
20
-129.778
11
152.495
21
-129.78
0
LINE
8
BLACK
6
CONTINUOUS
10
152.495
20
-129.78
11
152.494
21
-129.781
0
LINE
8
BLACK
6
CONTINUOUS
10
152.494
20
-129.781
11
152.487
21
-129.788
0
LINE
8
BLACK
6
CONTINUOUS
10
152.487
20
-129.788
11
152.479
21
-129.796
0
LINE
8
BLACK
6
CONTINUOUS
10
152.479
20
-129.796
11
152.478
21
-129.797
0
LINE
8
BLACK
6
CONTINUOUS
10
152.478
20
-129.797
11
152.477
21
-129.798
0
LINE
8
BLACK
6
CONTINUOUS
10
152.477
20
-129.798
11
152.468
21
-129.804
0
LINE
8
BLACK
6
CONTINUOUS
10
152.468
20
-129.804
11
152.459
21
-129.81
0
LINE
8
BLACK
6
CONTINUOUS
10
152.459
20
-129.81
11
152.457
21
-129.811
0
LINE
8
BLACK
6
CONTINUOUS
10
152.457
20
-129.811
11
152.456
21
-129.812
0
LINE
8
BLACK
6
CONTINUOUS
10
152.456
20
-129.812
11
152.446
21
-129.816
0
LINE
8
BLACK
6
CONTINUOUS
10
152.446
20
-129.816
11
152.436
21
-129.82
0
LINE
8
BLACK
6
CONTINUOUS
10
152.436
20
-129.82
11
152.434
21
-129.821
0
LINE
8
BLACK
6
CONTINUOUS
10
152.434
20
-129.821
11
152.433
21
-129.821
0
LINE
8
BLACK
6
CONTINUOUS
10
152.433
20
-129.821
11
152.422
21
-129.823
0
LINE
8
BLACK
6
CONTINUOUS
10
152.422
20
-129.823
11
152.412
21
-129.826
0
LINE
8
BLACK
6
CONTINUOUS
10
152.412
20
-129.826
11
150.477
21
-130.055
0
LINE
8
BLACK
6
CONTINUOUS
10
150.477
20
-130.055
11
150.475
21
-130.055
0
LINE
8
BLACK
6
CONTINUOUS
10
150.475
20
-130.055
11
150.471
21
-130.055
0
LINE
8
BLACK
6
CONTINUOUS
10
150.471
20
-130.055
11
150.467
21
-130.055
0
LINE
8
BLACK
6
CONTINUOUS
10
150.467
20
-130.055
11
148.505
21
-130.132
0
LINE
8
BLACK
6
CONTINUOUS
10
148.505
20
-130.132
11
148.503
21
-130.132
0
LINE
8
BLACK
6
CONTINUOUS
10
148.503
20
-130.132
11
148.499
21
-130.132
0
LINE
8
BLACK
6
CONTINUOUS
10
148.499
20
-130.132
11
148.495
21
-130.132
0
LINE
8
BLACK
6
CONTINUOUS
10
148.495
20
-130.132
11
146.533
21
-130.055
0
LINE
8
BLACK
6
CONTINUOUS
10
146.533
20
-130.055
11
146.531
21
-130.055
0
LINE
8
BLACK
6
CONTINUOUS
10
146.531
20
-130.055
11
146.527
21
-130.055
0
LINE
8
BLACK
6
CONTINUOUS
10
146.527
20
-130.055
11
146.523
21
-130.055
0
LINE
8
BLACK
6
CONTINUOUS
10
146.523
20
-130.055
11
144.588
21
-129.826
0
LINE
8
BLACK
6
CONTINUOUS
10
144.588
20
-129.826
11
144.587
21
-129.825
0
LINE
8
BLACK
6
CONTINUOUS
10
144.587
20
-129.825
11
144.576
21
-129.823
0
LINE
8
BLACK
6
CONTINUOUS
10
144.576
20
-129.823
11
144.565
21
-129.821
0
LINE
8
BLACK
6
CONTINUOUS
10
144.565
20
-129.821
11
144.564
21
-129.82
0
LINE
8
BLACK
6
CONTINUOUS
10
144.564
20
-129.82
11
144.562
21
-129.82
0
LINE
8
BLACK
6
CONTINUOUS
10
144.562
20
-129.82
11
144.553
21
-129.815
0
LINE
8
BLACK
6
CONTINUOUS
10
144.553
20
-129.815
11
144.543
21
-129.811
0
LINE
8
BLACK
6
CONTINUOUS
10
144.543
20
-129.811
11
144.541
21
-129.81
0
LINE
8
BLACK
6
CONTINUOUS
10
144.541
20
-129.81
11
144.54
21
-129.809
0
LINE
8
BLACK
6
CONTINUOUS
10
144.54
20
-129.809
11
144.531
21
-129.803
0
LINE
8
BLACK
6
CONTINUOUS
10
144.531
20
-129.803
11
144.522
21
-129.797
0
LINE
8
BLACK
6
CONTINUOUS
10
144.522
20
-129.797
11
144.521
21
-129.796
0
LINE
8
BLACK
6
CONTINUOUS
10
144.521
20
-129.796
11
144.52
21
-129.795
0
LINE
8
BLACK
6
CONTINUOUS
10
144.52
20
-129.795
11
144.512
21
-129.787
0
LINE
8
BLACK
6
CONTINUOUS
10
144.512
20
-129.787
11
144.505
21
-129.78
0
LINE
8
BLACK
6
CONTINUOUS
10
144.505
20
-129.78
11
144.504
21
-129.778
0
LINE
8
BLACK
6
CONTINUOUS
10
144.504
20
-129.778
11
144.503
21
-129.777
0
LINE
8
BLACK
6
CONTINUOUS
10
144.503
20
-129.777
11
144.497
21
-129.768
0
LINE
8
BLACK
6
CONTINUOUS
10
144.497
20
-129.768
11
144.491
21
-129.759
0
LINE
8
BLACK
6
CONTINUOUS
10
144.491
20
-129.759
11
144.49
21
-129.757
0
LINE
8
BLACK
6
CONTINUOUS
10
144.49
20
-129.757
11
144.49
21
-129.756
0
LINE
8
BLACK
6
CONTINUOUS
10
144.49
20
-129.756
11
144.486
21
-129.746
0
LINE
8
BLACK
6
CONTINUOUS
10
144.486
20
-129.746
11
144.482
21
-129.736
0
LINE
8
BLACK
6
CONTINUOUS
10
144.482
20
-129.736
11
144.481
21
-129.734
0
LINE
8
BLACK
6
CONTINUOUS
10
144.481
20
-129.734
11
144.481
21
-129.733
0
LINE
8
BLACK
6
CONTINUOUS
10
144.481
20
-129.733
11
144.479
21
-129.722
0
LINE
8
BLACK
6
CONTINUOUS
10
144.479
20
-129.722
11
144.477
21
-129.712
0
LINE
8
BLACK
6
CONTINUOUS
10
144.477
20
-129.712
11
144.477
21
-129.71
0
LINE
8
BLACK
6
CONTINUOUS
10
144.477
20
-129.71
11
144.477
21
-129.708
0
LINE
8
BLACK
6
CONTINUOUS
10
144.477
20
-129.708
11
144.477
21
-129.698
0
LINE
8
BLACK
6
CONTINUOUS
10
144.477
20
-129.698
11
144.477
21
-129.687
0
LINE
8
BLACK
6
CONTINUOUS
10
144.477
20
-129.687
11
144.477
21
-129.685
0
LINE
8
BLACK
6
CONTINUOUS
10
144.477
20
-129.685
11
144.477
21
-129.684
0
LINE
8
BLACK
6
CONTINUOUS
10
144.477
20
-129.684
11
144.48
21
-129.673
0
LINE
8
BLACK
6
CONTINUOUS
10
144.48
20
-129.673
11
144.482
21
-129.662
0
LINE
8
BLACK
6
CONTINUOUS
10
144.482
20
-129.662
11
144.482
21
-129.661
0
LINE
8
BLACK
6
CONTINUOUS
10
144.482
20
-129.661
11
144.483
21
-129.659
0
LINE
8
BLACK
6
CONTINUOUS
10
144.483
20
-129.659
11
144.487
21
-129.65
0
LINE
8
BLACK
6
CONTINUOUS
10
144.487
20
-129.65
11
144.491
21
-129.64
0
LINE
8
BLACK
6
CONTINUOUS
10
144.491
20
-129.64
11
144.579
21
-129.476
0
LINE
8
BLACK
6
CONTINUOUS
10
144.579
20
-129.476
11
144.642
21
-129.267
0
LINE
8
BLACK
6
CONTINUOUS
10
144.642
20
-129.267
11
144.658
21
-129.104
0
LINE
8
BLACK
6
CONTINUOUS
10
144.658
20
-129.104
11
144.658
21
-127.796
0
LINE
8
BLACK
6
CONTINUOUS
10
144.658
20
-127.796
11
144.642
21
-127.633
0
LINE
8
BLACK
6
CONTINUOUS
10
144.642
20
-127.633
11
144.579
21
-127.424
0
LINE
8
BLACK
6
CONTINUOUS
10
144.579
20
-127.424
11
144.476
21
-127.231
0
LINE
8
BLACK
6
CONTINUOUS
10
144.476
20
-127.231
11
144.337
21
-127.063
0
LINE
8
BLACK
6
CONTINUOUS
10
144.337
20
-127.063
11
144.169
21
-126.924
0
LINE
8
BLACK
6
CONTINUOUS
10
144.169
20
-126.924
11
143.976
21
-126.821
0
LINE
8
BLACK
6
CONTINUOUS
10
143.976
20
-126.821
11
143.767
21
-126.758
0
LINE
8
BLACK
6
CONTINUOUS
10
143.767
20
-126.758
11
143.55
21
-126.737
0
LINE
8
BLACK
6
CONTINUOUS
10
143.55
20
-126.737
11
143.333
21
-126.758
0
LINE
8
BLACK
6
CONTINUOUS
10
143.333
20
-126.758
11
143.124
21
-126.821
0
LINE
8
BLACK
6
CONTINUOUS
10
143.124
20
-126.821
11
142.931
21
-126.924
0
LINE
8
BLACK
6
CONTINUOUS
10
142.931
20
-126.924
11
142.763
21
-127.063
0
LINE
8
BLACK
6
CONTINUOUS
10
142.763
20
-127.063
11
142.624
21
-127.231
0
LINE
8
BLACK
6
CONTINUOUS
10
142.624
20
-127.231
11
142.521
21
-127.424
0
LINE
8
BLACK
6
CONTINUOUS
10
142.521
20
-127.424
11
142.458
21
-127.633
0
LINE
8
BLACK
6
CONTINUOUS
10
142.458
20
-127.633
11
142.442
21
-127.796
0
LINE
8
BLACK
6
CONTINUOUS
10
142.442
20
-127.796
11
142.442
21
-129.104
0
LINE
8
BLACK
6
CONTINUOUS
10
142.442
20
-129.104
11
142.452
21
-129.207
0
LINE
8
BLACK
6
CONTINUOUS
10
142.452
20
-129.207
11
142.452
21
-129.209
0
LINE
8
BLACK
6
CONTINUOUS
10
142.452
20
-129.209
11
142.452
21
-129.22
0
LINE
8
BLACK
6
CONTINUOUS
10
142.452
20
-129.22
11
142.452
21
-129.231
0
LINE
8
BLACK
6
CONTINUOUS
10
142.452
20
-129.231
11
142.452
21
-129.232
0
LINE
8
BLACK
6
CONTINUOUS
10
142.452
20
-129.232
11
142.452
21
-129.234
0
LINE
8
BLACK
6
CONTINUOUS
10
142.452
20
-129.234
11
142.45
21
-129.244
0
LINE
8
BLACK
6
CONTINUOUS
10
142.45
20
-129.244
11
142.448
21
-129.255
0
LINE
8
BLACK
6
CONTINUOUS
10
142.448
20
-129.255
11
142.447
21
-129.256
0
LINE
8
BLACK
6
CONTINUOUS
10
142.447
20
-129.256
11
142.447
21
-129.258
0
LINE
8
BLACK
6
CONTINUOUS
10
142.447
20
-129.258
11
142.443
21
-129.268
0
LINE
8
BLACK
6
CONTINUOUS
10
142.443
20
-129.268
11
142.439
21
-129.278
0
LINE
8
BLACK
6
CONTINUOUS
10
142.439
20
-129.278
11
142.438
21
-129.279
0
LINE
8
BLACK
6
CONTINUOUS
10
142.438
20
-129.279
11
142.437
21
-129.281
0
LINE
8
BLACK
6
CONTINUOUS
10
142.437
20
-129.281
11
142.431
21
-129.29
0
LINE
8
BLACK
6
CONTINUOUS
10
142.431
20
-129.29
11
142.425
21
-129.299
0
LINE
8
BLACK
6
CONTINUOUS
10
142.425
20
-129.299
11
142.424
21
-129.3
0
LINE
8
BLACK
6
CONTINUOUS
10
142.424
20
-129.3
11
142.423
21
-129.301
0
LINE
8
BLACK
6
CONTINUOUS
10
142.423
20
-129.301
11
142.415
21
-129.309
0
LINE
8
BLACK
6
CONTINUOUS
10
142.415
20
-129.309
11
142.408
21
-129.317
0
LINE
8
BLACK
6
CONTINUOUS
10
142.408
20
-129.317
11
142.406
21
-129.317
0
LINE
8
BLACK
6
CONTINUOUS
10
142.406
20
-129.317
11
142.405
21
-129.319
0
LINE
8
BLACK
6
CONTINUOUS
10
142.405
20
-129.319
11
142.396
21
-129.325
0
LINE
8
BLACK
6
CONTINUOUS
10
142.396
20
-129.325
11
142.387
21
-129.331
0
LINE
8
BLACK
6
CONTINUOUS
10
142.387
20
-129.331
11
142.386
21
-129.331
0
LINE
8
BLACK
6
CONTINUOUS
10
142.386
20
-129.331
11
142.385
21
-129.332
0
LINE
8
BLACK
6
CONTINUOUS
10
142.385
20
-129.332
11
142.375
21
-129.336
0
LINE
8
BLACK
6
CONTINUOUS
10
142.375
20
-129.336
11
142.365
21
-129.341
0
LINE
8
BLACK
6
CONTINUOUS
10
142.365
20
-129.341
11
142.363
21
-129.341
0
LINE
8
BLACK
6
CONTINUOUS
10
142.363
20
-129.341
11
142.362
21
-129.341
0
LINE
8
BLACK
6
CONTINUOUS
10
142.362
20
-129.341
11
142.351
21
-129.343
0
LINE
8
BLACK
6
CONTINUOUS
10
142.351
20
-129.343
11
142.34
21
-129.346
0
LINE
8
BLACK
6
CONTINUOUS
10
142.34
20
-129.346
11
142.339
21
-129.346
0
LINE
8
BLACK
6
CONTINUOUS
10
142.339
20
-129.346
11
142.337
21
-129.346
0
LINE
8
BLACK
6
CONTINUOUS
10
142.337
20
-129.346
11
142.326
21
-129.346
0
LINE
8
BLACK
6
CONTINUOUS
10
142.326
20
-129.346
11
142.316
21
-129.346
0
LINE
8
BLACK
6
CONTINUOUS
10
142.316
20
-129.346
11
142.314
21
-129.346
0
LINE
8
BLACK
6
CONTINUOUS
10
142.314
20
-129.346
11
142.313
21
-129.346
0
LINE
8
BLACK
6
CONTINUOUS
10
142.313
20
-129.346
11
142.302
21
-129.344
0
LINE
8
BLACK
6
CONTINUOUS
10
142.302
20
-129.344
11
142.291
21
-129.342
0
LINE
8
BLACK
6
CONTINUOUS
10
142.291
20
-129.342
11
140.738
21
-128.904
0
LINE
8
BLACK
6
CONTINUOUS
10
140.738
20
-128.904
11
140.737
21
-128.903
0
LINE
8
BLACK
6
CONTINUOUS
10
140.737
20
-128.903
11
140.733
21
-128.902
0
LINE
8
BLACK
6
CONTINUOUS
10
140.733
20
-128.902
11
140.729
21
-128.901
0
LINE
8
BLACK
6
CONTINUOUS
10
140.729
20
-128.901
11
138.887
21
-128.221
0
LINE
8
BLACK
6
CONTINUOUS
10
138.887
20
-128.221
11
138.885
21
-128.221
0
LINE
8
BLACK
6
CONTINUOUS
10
138.885
20
-128.221
11
138.882
21
-128.219
0
LINE
8
BLACK
6
CONTINUOUS
10
138.882
20
-128.219
11
138.878
21
-128.217
0
LINE
8
BLACK
6
CONTINUOUS
10
138.878
20
-128.217
11
137.095
21
-127.395
0
LINE
8
BLACK
6
CONTINUOUS
10
137.095
20
-127.395
11
137.093
21
-127.395
0
LINE
8
BLACK
6
CONTINUOUS
10
137.093
20
-127.395
11
137.089
21
-127.393
0
LINE
8
BLACK
6
CONTINUOUS
10
137.089
20
-127.393
11
137.086
21
-127.391
0
LINE
8
BLACK
6
CONTINUOUS
10
137.086
20
-127.391
11
135.373
21
-126.432
0
LINE
8
BLACK
6
CONTINUOUS
10
135.373
20
-126.432
11
135.371
21
-126.431
0
LINE
8
BLACK
6
CONTINUOUS
10
135.371
20
-126.431
11
135.368
21
-126.428
0
LINE
8
BLACK
6
CONTINUOUS
10
135.368
20
-126.428
11
135.364
21
-126.426
0
LINE
8
BLACK
6
CONTINUOUS
10
135.364
20
-126.426
11
133.732
21
-125.336
0
LINE
8
BLACK
6
CONTINUOUS
10
133.732
20
-125.336
11
133.73
21
-125.335
0
LINE
8
BLACK
6
CONTINUOUS
10
133.73
20
-125.335
11
133.727
21
-125.332
0
LINE
8
BLACK
6
CONTINUOUS
10
133.727
20
-125.332
11
133.723
21
-125.33
0
LINE
8
BLACK
6
CONTINUOUS
10
133.723
20
-125.33
11
132.182
21
-124.114
0
LINE
8
BLACK
6
CONTINUOUS
10
132.182
20
-124.114
11
132.18
21
-124.113
0
LINE
8
BLACK
6
CONTINUOUS
10
132.18
20
-124.113
11
132.177
21
-124.11
0
LINE
8
BLACK
6
CONTINUOUS
10
132.177
20
-124.11
11
132.174
21
-124.108
0
LINE
8
BLACK
6
CONTINUOUS
10
132.174
20
-124.108
11
132.093
21
-124.033
0
LINE
8
BLACK
6
CONTINUOUS
10
132.093
20
-124.033
11
130.732
21
-122.775
0
LINE
8
BLACK
6
CONTINUOUS
10
130.732
20
-122.775
11
130.731
21
-122.774
0
LINE
8
BLACK
6
CONTINUOUS
10
130.731
20
-122.774
11
130.728
21
-122.771
0
LINE
8
BLACK
6
CONTINUOUS
10
130.728
20
-122.771
11
130.725
21
-122.768
0
LINE
8
BLACK
6
CONTINUOUS
10
130.725
20
-122.768
11
129.392
21
-121.326
0
LINE
8
BLACK
6
CONTINUOUS
10
129.392
20
-121.326
11
129.391
21
-121.325
0
LINE
8
BLACK
6
CONTINUOUS
10
129.391
20
-121.325
11
129.389
21
-121.321
0
LINE
8
BLACK
6
CONTINUOUS
10
129.389
20
-121.321
11
129.386
21
-121.318
0
LINE
8
BLACK
6
CONTINUOUS
10
129.386
20
-121.318
11
128.17
21
-119.777
0
LINE
8
BLACK
6
CONTINUOUS
10
128.17
20
-119.777
11
128.169
21
-119.775
0
LINE
8
BLACK
6
CONTINUOUS
10
128.169
20
-119.775
11
128.167
21
-119.772
0
LINE
8
BLACK
6
CONTINUOUS
10
128.167
20
-119.772
11
128.164
21
-119.768
0
LINE
8
BLACK
6
CONTINUOUS
10
128.164
20
-119.768
11
127.074
21
-118.136
0
LINE
8
BLACK
6
CONTINUOUS
10
127.074
20
-118.136
11
127.073
21
-118.134
0
LINE
8
BLACK
6
CONTINUOUS
10
127.073
20
-118.134
11
127.071
21
-118.131
0
LINE
8
BLACK
6
CONTINUOUS
10
127.071
20
-118.131
11
127.068
21
-118.127
0
LINE
8
BLACK
6
CONTINUOUS
10
127.068
20
-118.127
11
126.109
21
-116.414
0
LINE
8
BLACK
6
CONTINUOUS
10
126.109
20
-116.414
11
126.108
21
-116.413
0
LINE
8
BLACK
6
CONTINUOUS
10
126.108
20
-116.413
11
126.107
21
-116.409
0
LINE
8
BLACK
6
CONTINUOUS
10
126.107
20
-116.409
11
126.105
21
-116.405
0
LINE
8
BLACK
6
CONTINUOUS
10
126.105
20
-116.405
11
125.283
21
-114.622
0
LINE
8
BLACK
6
CONTINUOUS
10
125.283
20
-114.622
11
125.282
21
-114.621
0
LINE
8
BLACK
6
CONTINUOUS
10
125.282
20
-114.621
11
125.281
21
-114.617
0
LINE
8
BLACK
6
CONTINUOUS
10
125.281
20
-114.617
11
125.279
21
-114.613
0
LINE
8
BLACK
6
CONTINUOUS
10
125.279
20
-114.613
11
124.703
21
-113.051
0
LINE
8
BLACK
6
CONTINUOUS
10
124.703
20
-113.051
11
124.599
21
-112.771
0
LINE
8
BLACK
6
CONTINUOUS
10
124.599
20
-112.771
11
124.599
21
-112.769
0
LINE
8
BLACK
6
CONTINUOUS
10
124.599
20
-112.769
11
124.598
21
-112.765
0
LINE
8
BLACK
6
CONTINUOUS
10
124.598
20
-112.765
11
124.596
21
-112.762
0
LINE
8
BLACK
6
CONTINUOUS
10
124.596
20
-112.762
11
124.063
21
-110.872
0
LINE
8
BLACK
6
CONTINUOUS
10
124.063
20
-110.872
11
124.063
21
-110.87
0
LINE
8
BLACK
6
CONTINUOUS
10
124.063
20
-110.87
11
124.062
21
-110.866
0
LINE
8
BLACK
6
CONTINUOUS
10
124.062
20
-110.866
11
124.061
21
-110.862
0
LINE
8
BLACK
6
CONTINUOUS
10
124.061
20
-110.862
11
123.678
21
-108.937
0
LINE
8
BLACK
6
CONTINUOUS
10
123.678
20
-108.937
11
123.677
21
-108.935
0
LINE
8
BLACK
6
CONTINUOUS
10
123.677
20
-108.935
11
123.677
21
-108.931
0
LINE
8
BLACK
6
CONTINUOUS
10
123.677
20
-108.931
11
123.676
21
-108.927
0
LINE
8
BLACK
6
CONTINUOUS
10
123.676
20
-108.927
11
123.556
21
-107.912
0
LINE
8
BLACK
6
CONTINUOUS
10
123.556
20
-107.912
11
123.556
21
-107.912
0
LINE
8
BLACK
6
CONTINUOUS
10
123.556
20
-107.912
11
123.445
21
-106.977
0
LINE
8
BLACK
6
CONTINUOUS
10
123.445
20
-106.977
11
123.445
21
-106.975
0
LINE
8
BLACK
6
CONTINUOUS
10
123.445
20
-106.975
11
123.445
21
-106.971
0
LINE
8
BLACK
6
CONTINUOUS
10
123.445
20
-106.971
11
123.445
21
-106.967
0
LINE
8
BLACK
6
CONTINUOUS
10
123.445
20
-106.967
11
123.368
21
-105.005
0
LINE
8
BLACK
6
CONTINUOUS
10
123.368
20
-105.005
11
123.367
21
-105.003
0
LINE
8
BLACK
6
CONTINUOUS
10
123.367
20
-105.003
11
123.368
21
-104.999
0
LINE
8
BLACK
6
CONTINUOUS
10
123.368
20
-104.999
11
123.368
21
-104.995
0
LINE
8
BLACK
6
CONTINUOUS
10
123.368
20
-104.995
11
123.445
21
-103.033
0
LINE
8
BLACK
6
CONTINUOUS
10
123.445
20
-103.033
11
123.445
21
-103.031
0
LINE
8
BLACK
6
CONTINUOUS
10
123.445
20
-103.031
11
123.445
21
-103.027
0
LINE
8
BLACK
6
CONTINUOUS
10
123.445
20
-103.027
11
123.445
21
-103.023
0
LINE
8
BLACK
6
CONTINUOUS
10
123.445
20
-103.023
11
123.676
21
-101.073
0
LINE
8
BLACK
6
CONTINUOUS
10
123.676
20
-101.073
11
123.676
21
-101.072
0
LINE
8
BLACK
6
CONTINUOUS
10
123.676
20
-101.072
11
123.677
21
-101.068
0
LINE
8
BLACK
6
CONTINUOUS
10
123.677
20
-101.068
11
123.678
21
-101.063
0
LINE
8
BLACK
6
CONTINUOUS
10
123.678
20
-101.063
11
124.061
21
-99.1378
0
LINE
8
BLACK
6
CONTINUOUS
10
124.061
20
-99.1378
11
124.061
21
-99.1361
0
LINE
8
BLACK
6
CONTINUOUS
10
124.061
20
-99.1361
11
124.062
21
-99.1321
0
LINE
8
BLACK
6
CONTINUOUS
10
124.062
20
-99.1321
11
124.063
21
-99.1281
0
LINE
8
BLACK
6
CONTINUOUS
10
124.063
20
-99.1281
11
124.596
21
-97.2384
0
LINE
8
BLACK
6
CONTINUOUS
10
124.596
20
-97.2384
11
124.597
21
-97.2367
0
LINE
8
BLACK
6
CONTINUOUS
10
124.597
20
-97.2367
11
124.598
21
-97.2329
0
LINE
8
BLACK
6
CONTINUOUS
10
124.598
20
-97.2329
11
124.599
21
-97.2289
0
LINE
8
BLACK
6
CONTINUOUS
10
124.599
20
-97.2289
11
125.279
21
-95.3868
0
LINE
8
BLACK
6
CONTINUOUS
10
125.279
20
-95.3868
11
125.279
21
-95.3852
0
LINE
8
BLACK
6
CONTINUOUS
10
125.279
20
-95.3852
11
125.281
21
-95.3815
0
LINE
8
BLACK
6
CONTINUOUS
10
125.281
20
-95.3815
11
125.283
21
-95.3776
0
LINE
8
BLACK
6
CONTINUOUS
10
125.283
20
-95.3776
11
126.105
21
-93.5946
0
LINE
8
BLACK
6
CONTINUOUS
10
126.105
20
-93.5946
11
126.105
21
-93.5929
0
LINE
8
BLACK
6
CONTINUOUS
10
126.105
20
-93.5929
11
126.107
21
-93.5894
0
LINE
8
BLACK
6
CONTINUOUS
10
126.107
20
-93.5894
11
126.109
21
-93.5857
0
LINE
8
BLACK
6
CONTINUOUS
10
126.109
20
-93.5857
11
126.247
21
-93.34
0
LINE
8
BLACK
6
CONTINUOUS
10
126.247
20
-93.34
11
127.068
21
-91.8726
0
LINE
8
BLACK
6
CONTINUOUS
10
127.068
20
-91.8726
11
127.069
21
-91.871
0
LINE
8
BLACK
6
CONTINUOUS
10
127.069
20
-91.871
11
127.072
21
-91.8677
0
LINE
8
BLACK
6
CONTINUOUS
10
127.072
20
-91.8677
11
127.074
21
-91.8641
0
LINE
8
BLACK
6
CONTINUOUS
10
127.074
20
-91.8641
11
128.164
21
-90.2316
0
LINE
8
BLACK
6
CONTINUOUS
10
128.164
20
-90.2316
11
128.165
21
-90.2301
0
LINE
8
BLACK
6
CONTINUOUS
10
128.165
20
-90.2301
11
128.168
21
-90.2269
0
LINE
8
BLACK
6
CONTINUOUS
10
128.168
20
-90.2269
11
128.17
21
-90.2235
0
LINE
8
BLACK
6
CONTINUOUS
10
128.17
20
-90.2235
11
129.386
21
-88.6816
0
LINE
8
BLACK
6
CONTINUOUS
10
129.386
20
-88.6816
11
129.387
21
-88.6802
0
LINE
8
BLACK
6
CONTINUOUS
10
129.387
20
-88.6802
11
129.39
21
-88.6773
0
LINE
8
BLACK
6
CONTINUOUS
10
129.39
20
-88.6773
11
129.392
21
-88.674
0
LINE
8
BLACK
6
CONTINUOUS
10
129.392
20
-88.674
11
130.725
21
-87.2322
0
LINE
8
BLACK
6
CONTINUOUS
10
130.725
20
-87.2322
11
130.726
21
-87.2309
0
LINE
8
BLACK
6
CONTINUOUS
10
130.726
20
-87.2309
11
130.729
21
-87.2282
0
LINE
8
BLACK
6
CONTINUOUS
10
130.729
20
-87.2282
11
130.732
21
-87.2252
0
LINE
8
BLACK
6
CONTINUOUS
10
130.732
20
-87.2252
11
132.174
21
-85.8924
0
LINE
8
BLACK
6
CONTINUOUS
10
132.174
20
-85.8924
11
132.175
21
-85.8912
0
LINE
8
BLACK
6
CONTINUOUS
10
132.175
20
-85.8912
11
132.179
21
-85.8887
0
LINE
8
BLACK
6
CONTINUOUS
10
132.179
20
-85.8887
11
132.182
21
-85.8859
0
LINE
8
BLACK
6
CONTINUOUS
10
132.182
20
-85.8859
11
133.723
21
-84.6704
0
LINE
8
BLACK
6
CONTINUOUS
10
133.723
20
-84.6704
11
133.725
21
-84.6693
0
LINE
8
BLACK
6
CONTINUOUS
10
133.725
20
-84.6693
11
133.728
21
-84.6671
0
LINE
8
BLACK
6
CONTINUOUS
10
133.728
20
-84.6671
11
133.732
21
-84.6645
0
LINE
8
BLACK
6
CONTINUOUS
10
133.732
20
-84.6645
11
135.364
21
-83.5737
0
LINE
8
BLACK
6
CONTINUOUS
10
135.364
20
-83.5737
11
135.366
21
-83.5727
0
LINE
8
BLACK
6
CONTINUOUS
10
135.366
20
-83.5727
11
135.369
21
-83.5708
0
LINE
8
BLACK
6
CONTINUOUS
10
135.369
20
-83.5708
11
135.373
21
-83.5685
0
LINE
8
BLACK
6
CONTINUOUS
10
135.373
20
-83.5685
11
137.086
21
-82.6091
0
LINE
8
BLACK
6
CONTINUOUS
10
137.086
20
-82.6091
11
137.087
21
-82.6082
0
LINE
8
BLACK
6
CONTINUOUS
10
137.087
20
-82.6082
11
137.091
21
-82.6066
0
LINE
8
BLACK
6
CONTINUOUS
10
137.091
20
-82.6066
11
137.095
21
-82.6046
0
LINE
8
BLACK
6
CONTINUOUS
10
137.095
20
-82.6046
11
138.878
21
-81.7826
0
LINE
8
BLACK
6
CONTINUOUS
10
138.878
20
-81.7826
11
138.879
21
-81.7818
0
LINE
8
BLACK
6
CONTINUOUS
10
138.879
20
-81.7818
11
138.883
21
-81.7805
0
LINE
8
BLACK
6
CONTINUOUS
10
138.883
20
-81.7805
11
138.887
21
-81.7787
0
LINE
8
BLACK
6
CONTINUOUS
10
138.887
20
-81.7787
11
140.729
21
-81.0992
0
LINE
8
BLACK
6
CONTINUOUS
10
140.729
20
-81.0992
11
140.731
21
-81.0986
0
LINE
8
BLACK
6
CONTINUOUS
10
140.731
20
-81.0986
11
140.735
21
-81.0976
0
LINE
8
BLACK
6
CONTINUOUS
10
140.735
20
-81.0976
11
140.738
21
-81.0961
0
LINE
8
BLACK
6
CONTINUOUS
10
140.738
20
-81.0961
11
142.628
21
-80.5631
0
LINE
8
BLACK
6
CONTINUOUS
10
142.628
20
-80.5631
11
142.63
21
-80.5627
0
LINE
8
BLACK
6
CONTINUOUS
10
142.63
20
-80.5627
11
142.634
21
-80.562
0
LINE
8
BLACK
6
CONTINUOUS
10
142.634
20
-80.562
11
142.638
21
-80.5608
0
LINE
8
BLACK
6
CONTINUOUS
10
142.638
20
-80.5608
11
144.563
21
-80.1778
0
LINE
8
BLACK
6
CONTINUOUS
10
144.563
20
-80.1778
11
144.565
21
-80.1774
0
LINE
8
BLACK
6
CONTINUOUS
10
144.565
20
-80.1774
11
144.569
21
-80.1771
0
LINE
8
BLACK
6
CONTINUOUS
10
144.569
20
-80.1771
11
144.573
21
-80.1762
0
LINE
8
BLACK
6
CONTINUOUS
10
144.573
20
-80.1762
11
146.523
21
-79.9454
0
LINE
8
BLACK
6
CONTINUOUS
10
146.523
20
-79.9454
11
146.525
21
-79.9452
0
LINE
8
BLACK
6
CONTINUOUS
10
146.525
20
-79.9452
11
146.529
21
-79.9452
0
LINE
8
BLACK
6
CONTINUOUS
10
146.529
20
-79.9452
11
146.533
21
-79.9446
0
LINE
8
BLACK
6
CONTINUOUS
10
146.533
20
-79.9446
11
148.495
21
-79.8676
0
LINE
8
BLACK
6
CONTINUOUS
10
148.495
20
-79.8676
11
148.497
21
-79.8675
0
LINE
8
BLACK
6
CONTINUOUS
10
148.497
20
-79.8675
11
148.501
21
-79.8678
0
LINE
8
BLACK
6
CONTINUOUS
10
143.333
20
-122.908
11
143.124
21
-122.971
0
LINE
8
BLACK
6
CONTINUOUS
10
143.124
20
-122.971
11
142.931
21
-123.074
0
LINE
8
BLACK
6
CONTINUOUS
10
142.931
20
-123.074
11
142.763
21
-123.213
0
LINE
8
BLACK
6
CONTINUOUS
10
142.763
20
-123.213
11
142.624
21
-123.381
0
LINE
8
BLACK
6
CONTINUOUS
10
142.624
20
-123.381
11
142.521
21
-123.574
0
LINE
8
BLACK
6
CONTINUOUS
10
142.521
20
-123.574
11
142.458
21
-123.783
0
LINE
8
BLACK
6
CONTINUOUS
10
142.458
20
-123.783
11
142.442
21
-123.946
0
LINE
8
BLACK
6
CONTINUOUS
10
142.442
20
-123.946
11
142.442
21
-124.954
0
LINE
8
BLACK
6
CONTINUOUS
10
142.442
20
-124.954
11
142.458
21
-125.117
0
LINE
8
BLACK
6
CONTINUOUS
10
142.458
20
-125.117
11
142.521
21
-125.326
0
LINE
8
BLACK
6
CONTINUOUS
10
142.521
20
-125.326
11
142.624
21
-125.519
0
LINE
8
BLACK
6
CONTINUOUS
10
142.624
20
-125.519
11
142.763
21
-125.687
0
LINE
8
BLACK
6
CONTINUOUS
10
142.763
20
-125.687
11
142.931
21
-125.826
0
LINE
8
BLACK
6
CONTINUOUS
10
142.931
20
-125.826
11
143.124
21
-125.929
0
LINE
8
BLACK
6
CONTINUOUS
10
143.124
20
-125.929
11
143.333
21
-125.992
0
LINE
8
BLACK
6
CONTINUOUS
10
143.333
20
-125.992
11
143.55
21
-126.013
0
LINE
8
BLACK
6
CONTINUOUS
10
143.55
20
-126.013
11
143.767
21
-125.992
0
LINE
8
BLACK
6
CONTINUOUS
10
143.767
20
-125.992
11
143.976
21
-125.929
0
LINE
8
BLACK
6
CONTINUOUS
10
143.976
20
-125.929
11
144.169
21
-125.826
0
LINE
8
BLACK
6
CONTINUOUS
10
144.169
20
-125.826
11
144.337
21
-125.687
0
LINE
8
BLACK
6
CONTINUOUS
10
144.337
20
-125.687
11
144.476
21
-125.519
0
LINE
8
BLACK
6
CONTINUOUS
10
144.476
20
-125.519
11
144.579
21
-125.326
0
LINE
8
BLACK
6
CONTINUOUS
10
144.579
20
-125.326
11
144.642
21
-125.117
0
LINE
8
BLACK
6
CONTINUOUS
10
144.642
20
-125.117
11
144.658
21
-124.954
0
LINE
8
BLACK
6
CONTINUOUS
10
144.658
20
-124.954
11
144.658
21
-123.946
0
LINE
8
BLACK
6
CONTINUOUS
10
144.658
20
-123.946
11
144.642
21
-123.783
0
LINE
8
BLACK
6
CONTINUOUS
10
144.642
20
-123.783
11
144.579
21
-123.574
0
LINE
8
BLACK
6
CONTINUOUS
10
144.579
20
-123.574
11
144.476
21
-123.381
0
LINE
8
BLACK
6
CONTINUOUS
10
144.476
20
-123.381
11
144.337
21
-123.213
0
LINE
8
BLACK
6
CONTINUOUS
10
144.337
20
-123.213
11
144.169
21
-123.074
0
LINE
8
BLACK
6
CONTINUOUS
10
144.169
20
-123.074
11
143.976
21
-122.971
0
LINE
8
BLACK
6
CONTINUOUS
10
143.976
20
-122.971
11
143.767
21
-122.908
0
LINE
8
BLACK
6
CONTINUOUS
10
143.767
20
-122.908
11
143.55
21
-122.887
0
LINE
8
BLACK
6
CONTINUOUS
10
143.55
20
-122.887
11
143.333
21
-122.908
0
LINE
8
BLACK
6
CONTINUOUS
10
153.233
20
-122.908
11
153.024
21
-122.971
0
LINE
8
BLACK
6
CONTINUOUS
10
153.024
20
-122.971
11
152.831
21
-123.074
0
LINE
8
BLACK
6
CONTINUOUS
10
152.831
20
-123.074
11
152.663
21
-123.213
0
LINE
8
BLACK
6
CONTINUOUS
10
152.663
20
-123.213
11
152.524
21
-123.381
0
LINE
8
BLACK
6
CONTINUOUS
10
152.524
20
-123.381
11
152.421
21
-123.574
0
LINE
8
BLACK
6
CONTINUOUS
10
152.421
20
-123.574
11
152.358
21
-123.783
0
LINE
8
BLACK
6
CONTINUOUS
10
152.358
20
-123.783
11
152.342
21
-123.946
0
LINE
8
BLACK
6
CONTINUOUS
10
152.342
20
-123.946
11
152.342
21
-124.954
0
LINE
8
BLACK
6
CONTINUOUS
10
152.342
20
-124.954
11
152.358
21
-125.117
0
LINE
8
BLACK
6
CONTINUOUS
10
152.358
20
-125.117
11
152.421
21
-125.326
0
LINE
8
BLACK
6
CONTINUOUS
10
152.421
20
-125.326
11
152.524
21
-125.519
0
LINE
8
BLACK
6
CONTINUOUS
10
152.524
20
-125.519
11
152.663
21
-125.687
0
LINE
8
BLACK
6
CONTINUOUS
10
152.663
20
-125.687
11
152.831
21
-125.826
0
LINE
8
BLACK
6
CONTINUOUS
10
152.831
20
-125.826
11
153.024
21
-125.929
0
LINE
8
BLACK
6
CONTINUOUS
10
153.024
20
-125.929
11
153.233
21
-125.992
0
LINE
8
BLACK
6
CONTINUOUS
10
153.233
20
-125.992
11
153.45
21
-126.013
0
LINE
8
BLACK
6
CONTINUOUS
10
153.45
20
-126.013
11
153.667
21
-125.992
0
LINE
8
BLACK
6
CONTINUOUS
10
153.667
20
-125.992
11
153.876
21
-125.929
0
LINE
8
BLACK
6
CONTINUOUS
10
153.876
20
-125.929
11
154.069
21
-125.826
0
LINE
8
BLACK
6
CONTINUOUS
10
154.069
20
-125.826
11
154.237
21
-125.687
0
LINE
8
BLACK
6
CONTINUOUS
10
154.237
20
-125.687
11
154.376
21
-125.519
0
LINE
8
BLACK
6
CONTINUOUS
10
154.376
20
-125.519
11
154.479
21
-125.326
0
LINE
8
BLACK
6
CONTINUOUS
10
154.479
20
-125.326
11
154.542
21
-125.117
0
LINE
8
BLACK
6
CONTINUOUS
10
154.542
20
-125.117
11
154.558
21
-124.954
0
LINE
8
BLACK
6
CONTINUOUS
10
154.558
20
-124.954
11
154.558
21
-123.946
0
LINE
8
BLACK
6
CONTINUOUS
10
154.558
20
-123.946
11
154.542
21
-123.783
0
LINE
8
BLACK
6
CONTINUOUS
10
154.542
20
-123.783
11
154.479
21
-123.574
0
LINE
8
BLACK
6
CONTINUOUS
10
154.479
20
-123.574
11
154.376
21
-123.381
0
LINE
8
BLACK
6
CONTINUOUS
10
154.376
20
-123.381
11
154.237
21
-123.213
0
LINE
8
BLACK
6
CONTINUOUS
10
154.237
20
-123.213
11
154.069
21
-123.074
0
LINE
8
BLACK
6
CONTINUOUS
10
154.069
20
-123.074
11
153.876
21
-122.971
0
LINE
8
BLACK
6
CONTINUOUS
10
153.876
20
-122.971
11
153.667
21
-122.908
0
LINE
8
BLACK
6
CONTINUOUS
10
153.667
20
-122.908
11
153.45
21
-122.887
0
LINE
8
BLACK
6
CONTINUOUS
10
153.45
20
-122.887
11
153.233
21
-122.908
0
LINE
8
BLACK
6
CONTINUOUS
10
164.202
20
-116.577
11
163.862
21
-116.645
0
LINE
8
BLACK
6
CONTINUOUS
10
163.862
20
-116.645
11
163.542
21
-116.777
0
LINE
8
BLACK
6
CONTINUOUS
10
163.542
20
-116.777
11
163.254
21
-116.969
0
LINE
8
BLACK
6
CONTINUOUS
10
163.254
20
-116.969
11
163.009
21
-117.214
0
LINE
8
BLACK
6
CONTINUOUS
10
163.009
20
-117.214
11
162.817
21
-117.502
0
LINE
8
BLACK
6
CONTINUOUS
10
162.817
20
-117.502
11
162.685
21
-117.822
0
LINE
8
BLACK
6
CONTINUOUS
10
162.685
20
-117.822
11
162.617
21
-118.162
0
LINE
8
BLACK
6
CONTINUOUS
10
162.617
20
-118.162
11
162.617
21
-118.508
0
LINE
8
BLACK
6
CONTINUOUS
10
162.617
20
-118.508
11
162.685
21
-118.848
0
LINE
8
BLACK
6
CONTINUOUS
10
162.685
20
-118.848
11
162.817
21
-119.168
0
LINE
8
BLACK
6
CONTINUOUS
10
162.817
20
-119.168
11
163.009
21
-119.456
0
LINE
8
BLACK
6
CONTINUOUS
10
163.009
20
-119.456
11
163.254
21
-119.701
0
LINE
8
BLACK
6
CONTINUOUS
10
163.254
20
-119.701
11
163.542
21
-119.893
0
LINE
8
BLACK
6
CONTINUOUS
10
163.542
20
-119.893
11
163.862
21
-120.025
0
LINE
8
BLACK
6
CONTINUOUS
10
163.862
20
-120.025
11
164.202
21
-120.093
0
LINE
8
BLACK
6
CONTINUOUS
10
164.202
20
-120.093
11
164.548
21
-120.093
0
LINE
8
BLACK
6
CONTINUOUS
10
164.548
20
-120.093
11
164.888
21
-120.025
0
LINE
8
BLACK
6
CONTINUOUS
10
164.888
20
-120.025
11
165.208
21
-119.893
0
LINE
8
BLACK
6
CONTINUOUS
10
165.208
20
-119.893
11
165.496
21
-119.701
0
LINE
8
BLACK
6
CONTINUOUS
10
165.496
20
-119.701
11
165.741
21
-119.456
0
LINE
8
BLACK
6
CONTINUOUS
10
165.741
20
-119.456
11
165.933
21
-119.168
0
LINE
8
BLACK
6
CONTINUOUS
10
165.933
20
-119.168
11
166.065
21
-118.848
0
LINE
8
BLACK
6
CONTINUOUS
10
166.065
20
-118.848
11
166.133
21
-118.508
0
LINE
8
BLACK
6
CONTINUOUS
10
166.133
20
-118.508
11
166.133
21
-118.162
0
LINE
8
BLACK
6
CONTINUOUS
10
166.133
20
-118.162
11
166.065
21
-117.822
0
LINE
8
BLACK
6
CONTINUOUS
10
166.065
20
-117.822
11
165.933
21
-117.502
0
LINE
8
BLACK
6
CONTINUOUS
10
165.933
20
-117.502
11
165.741
21
-117.214
0
LINE
8
BLACK
6
CONTINUOUS
10
165.741
20
-117.214
11
165.496
21
-116.969
0
LINE
8
BLACK
6
CONTINUOUS
10
165.496
20
-116.969
11
165.208
21
-116.777
0
LINE
8
BLACK
6
CONTINUOUS
10
165.208
20
-116.777
11
164.888
21
-116.645
0
LINE
8
BLACK
6
CONTINUOUS
10
164.888
20
-116.645
11
164.548
21
-116.577
0
LINE
8
BLACK
6
CONTINUOUS
10
164.548
20
-116.577
11
164.202
21
-116.577
0
LINE
8
BLACK
6
CONTINUOUS
10
130.765
20
-119.284
11
130.779
21
-119.365
0
LINE
8
BLACK
6
CONTINUOUS
10
130.779
20
-119.365
11
130.909
21
-119.423
0
LINE
8
BLACK
6
CONTINUOUS
10
130.909
20
-119.423
11
131.103
21
-119.467
0
LINE
8
BLACK
6
CONTINUOUS
10
131.103
20
-119.467
11
131.301
21
-119.472
0
LINE
8
BLACK
6
CONTINUOUS
10
131.301
20
-119.472
11
131.497
21
-119.439
0
LINE
8
BLACK
6
CONTINUOUS
10
131.497
20
-119.439
11
131.626
21
-119.389
0
LINE
8
BLACK
6
CONTINUOUS
10
131.626
20
-119.389
11
131.628
21
-119.388
0
LINE
8
BLACK
6
CONTINUOUS
10
131.628
20
-119.388
11
131.631
21
-119.387
0
LINE
8
BLACK
6
CONTINUOUS
10
131.631
20
-119.387
11
131.635
21
-119.386
0
LINE
8
BLACK
6
CONTINUOUS
10
131.635
20
-119.386
11
131.643
21
-119.384
0
LINE
8
BLACK
6
CONTINUOUS
10
131.643
20
-119.384
11
131.652
21
-119.382
0
LINE
8
BLACK
6
CONTINUOUS
10
131.652
20
-119.382
11
131.656
21
-119.382
0
LINE
8
BLACK
6
CONTINUOUS
10
131.656
20
-119.382
11
131.659
21
-119.381
0
LINE
8
BLACK
6
CONTINUOUS
10
131.659
20
-119.381
11
131.668
21
-119.381
0
LINE
8
BLACK
6
CONTINUOUS
10
131.668
20
-119.381
11
131.676
21
-119.381
0
LINE
8
BLACK
6
CONTINUOUS
10
131.676
20
-119.381
11
131.68
21
-119.381
0
LINE
8
BLACK
6
CONTINUOUS
10
131.68
20
-119.381
11
131.684
21
-119.381
0
LINE
8
BLACK
6
CONTINUOUS
10
131.684
20
-119.381
11
131.692
21
-119.383
0
LINE
8
BLACK
6
CONTINUOUS
10
131.692
20
-119.383
11
131.701
21
-119.384
0
LINE
8
BLACK
6
CONTINUOUS
10
131.701
20
-119.384
11
131.705
21
-119.385
0
LINE
8
BLACK
6
CONTINUOUS
10
131.705
20
-119.385
11
131.708
21
-119.386
0
LINE
8
BLACK
6
CONTINUOUS
10
131.708
20
-119.386
11
131.716
21
-119.389
0
LINE
8
BLACK
6
CONTINUOUS
10
131.716
20
-119.389
11
131.724
21
-119.392
0
LINE
8
BLACK
6
CONTINUOUS
10
131.724
20
-119.392
11
131.728
21
-119.394
0
LINE
8
BLACK
6
CONTINUOUS
10
131.728
20
-119.394
11
131.731
21
-119.395
0
LINE
8
BLACK
6
CONTINUOUS
10
131.731
20
-119.395
11
131.803
21
-119.434
0
LINE
8
BLACK
6
CONTINUOUS
10
131.803
20
-119.434
11
131.898
21
-119.463
0
LINE
8
BLACK
6
CONTINUOUS
10
131.898
20
-119.463
11
132.004
21
-119.473
0
LINE
8
BLACK
6
CONTINUOUS
10
132.004
20
-119.473
11
132.992
21
-119.473
0
LINE
8
BLACK
6
CONTINUOUS
10
132.992
20
-119.473
11
133.098
21
-119.463
0
LINE
8
BLACK
6
CONTINUOUS
10
133.098
20
-119.463
11
133.193
21
-119.434
0
LINE
8
BLACK
6
CONTINUOUS
10
133.193
20
-119.434
11
133.233
21
-119.412
0
LINE
8
BLACK
6
CONTINUOUS
10
133.233
20
-119.412
11
131.869
21
-119.412
0
LINE
8
BLACK
6
CONTINUOUS
10
131.869
20
-119.412
11
131.863
21
-119.413
0
LINE
8
BLACK
6
CONTINUOUS
10
131.863
20
-119.413
11
131.857
21
-119.412
0
LINE
8
BLACK
6
CONTINUOUS
10
131.857
20
-119.412
11
131.857
21
-119.412
0
LINE
8
BLACK
6
CONTINUOUS
10
131.857
20
-119.412
11
131.838
21
-119.411
0
LINE
8
BLACK
6
CONTINUOUS
10
131.838
20
-119.411
11
131.815
21
-119.403
0
LINE
8
BLACK
6
CONTINUOUS
10
131.815
20
-119.403
11
131.793
21
-119.392
0
LINE
8
BLACK
6
CONTINUOUS
10
131.793
20
-119.392
11
131.779
21
-119.38
0
LINE
8
BLACK
6
CONTINUOUS
10
131.779
20
-119.38
11
131.779
21
-119.38
0
LINE
8
BLACK
6
CONTINUOUS
10
131.779
20
-119.38
11
131.774
21
-119.376
0
LINE
8
BLACK
6
CONTINUOUS
10
131.774
20
-119.376
11
131.77
21
-119.371
0
LINE
8
BLACK
6
CONTINUOUS
10
131.77
20
-119.371
11
131.347
21
-118.948
0
LINE
8
BLACK
6
CONTINUOUS
10
131.347
20
-118.948
11
131.277
21
-118.962
0
LINE
8
BLACK
6
CONTINUOUS
10
131.277
20
-118.962
11
131.179
21
-118.962
0
LINE
8
BLACK
6
CONTINUOUS
10
131.179
20
-118.962
11
131.102
21
-118.947
0
LINE
8
BLACK
6
CONTINUOUS
10
131.102
20
-118.947
11
130.765
21
-119.284
0
LINE
8
BLACK
6
CONTINUOUS
10
133.499
20
-117.862
11
133.47
21
-117.767
0
LINE
8
BLACK
6
CONTINUOUS
10
133.47
20
-117.767
11
133.431
21
-117.695
0
LINE
8
BLACK
6
CONTINUOUS
10
133.431
20
-117.695
11
133.43
21
-117.693
0
LINE
8
BLACK
6
CONTINUOUS
10
133.43
20
-117.693
11
133.428
21
-117.688
0
LINE
8
BLACK
6
CONTINUOUS
10
133.428
20
-117.688
11
133.426
21
-117.683
0
LINE
8
BLACK
6
CONTINUOUS
10
133.426
20
-117.683
11
133.424
21
-117.676
0
LINE
8
BLACK
6
CONTINUOUS
10
133.424
20
-117.676
11
133.421
21
-117.67
0
LINE
8
BLACK
6
CONTINUOUS
10
133.421
20
-117.67
11
133.42
21
-117.665
0
LINE
8
BLACK
6
CONTINUOUS
10
133.42
20
-117.665
11
133.418
21
-117.659
0
LINE
8
BLACK
6
CONTINUOUS
10
133.418
20
-117.659
11
133.418
21
-117.652
0
LINE
8
BLACK
6
CONTINUOUS
10
133.418
20
-117.652
11
133.417
21
-117.646
0
LINE
8
BLACK
6
CONTINUOUS
10
133.417
20
-117.646
11
133.417
21
-117.64
0
LINE
8
BLACK
6
CONTINUOUS
10
133.417
20
-117.64
11
133.416
21
-117.635
0
LINE
8
BLACK
6
CONTINUOUS
10
133.416
20
-117.635
11
133.417
21
-117.628
0
LINE
8
BLACK
6
CONTINUOUS
10
133.417
20
-117.628
11
133.417
21
-117.621
0
LINE
8
BLACK
6
CONTINUOUS
10
133.417
20
-117.621
11
133.418
21
-117.615
0
LINE
8
BLACK
6
CONTINUOUS
10
133.418
20
-117.615
11
133.419
21
-117.61
0
LINE
8
BLACK
6
CONTINUOUS
10
133.419
20
-117.61
11
133.421
21
-117.603
0
LINE
8
BLACK
6
CONTINUOUS
10
133.421
20
-117.603
11
133.422
21
-117.597
0
LINE
8
BLACK
6
CONTINUOUS
10
133.422
20
-117.597
11
133.424
21
-117.592
0
LINE
8
BLACK
6
CONTINUOUS
10
133.424
20
-117.592
11
133.426
21
-117.586
0
LINE
8
BLACK
6
CONTINUOUS
10
133.426
20
-117.586
11
133.467
21
-117.486
0
LINE
8
BLACK
6
CONTINUOUS
10
133.467
20
-117.486
11
133.506
21
-117.291
0
LINE
8
BLACK
6
CONTINUOUS
10
133.506
20
-117.291
11
133.506
21
-117.132
0
LINE
8
BLACK
6
CONTINUOUS
10
133.506
20
-117.132
11
133.506
21
-117.131
0
LINE
8
BLACK
6
CONTINUOUS
10
133.506
20
-117.131
11
133.506
21
-117.131
0
LINE
8
BLACK
6
CONTINUOUS
10
133.506
20
-117.131
11
133.506
21
-117.131
0
LINE
8
BLACK
6
CONTINUOUS
10
133.506
20
-117.131
11
133.506
21
-117.13
0
LINE
8
BLACK
6
CONTINUOUS
10
133.506
20
-117.13
11
133.507
21
-117.118
0
LINE
8
BLACK
6
CONTINUOUS
10
133.507
20
-117.118
11
133.509
21
-117.107
0
LINE
8
BLACK
6
CONTINUOUS
10
133.509
20
-117.107
11
133.509
21
-117.106
0
LINE
8
BLACK
6
CONTINUOUS
10
133.509
20
-117.106
11
133.509
21
-117.105
0
LINE
8
BLACK
6
CONTINUOUS
10
133.509
20
-117.105
11
133.512
21
-117.094
0
LINE
8
BLACK
6
CONTINUOUS
10
133.512
20
-117.094
11
133.516
21
-117.083
0
LINE
8
BLACK
6
CONTINUOUS
10
133.516
20
-117.083
11
133.516
21
-117.082
0
LINE
8
BLACK
6
CONTINUOUS
10
133.516
20
-117.082
11
133.516
21
-117.082
0
LINE
8
BLACK
6
CONTINUOUS
10
133.516
20
-117.082
11
133.522
21
-117.071
0
LINE
8
BLACK
6
CONTINUOUS
10
133.522
20
-117.071
11
133.527
21
-117.061
0
LINE
8
BLACK
6
CONTINUOUS
10
133.527
20
-117.061
11
133.528
21
-117.061
0
LINE
8
BLACK
6
CONTINUOUS
10
133.528
20
-117.061
11
133.528
21
-117.06
0
LINE
8
BLACK
6
CONTINUOUS
10
133.528
20
-117.06
11
133.536
21
-117.051
0
LINE
8
BLACK
6
CONTINUOUS
10
133.536
20
-117.051
11
133.543
21
-117.042
0
LINE
8
BLACK
6
CONTINUOUS
10
133.543
20
-117.042
11
135.985
21
-114.6
0
LINE
8
BLACK
6
CONTINUOUS
10
135.985
20
-114.6
11
135.986
21
-114.599
0
LINE
8
BLACK
6
CONTINUOUS
10
135.986
20
-114.599
11
135.99
21
-114.596
0
LINE
8
BLACK
6
CONTINUOUS
10
135.99
20
-114.596
11
135.994
21
-114.592
0
LINE
8
BLACK
6
CONTINUOUS
10
135.994
20
-114.592
11
136.013
21
-114.576
0
LINE
8
BLACK
6
CONTINUOUS
10
136.013
20
-114.576
11
136.092
21
-114.48
0
LINE
8
BLACK
6
CONTINUOUS
10
136.092
20
-114.48
11
136.151
21
-114.37
0
LINE
8
BLACK
6
CONTINUOUS
10
136.151
20
-114.37
11
136.187
21
-114.251
0
LINE
8
BLACK
6
CONTINUOUS
10
136.187
20
-114.251
11
136.197
21
-114.151
0
LINE
8
BLACK
6
CONTINUOUS
10
136.197
20
-114.151
11
136.197
21
-114.151
0
LINE
8
BLACK
6
CONTINUOUS
10
136.197
20
-114.151
11
136.2
21
-114.126
0
LINE
8
BLACK
6
CONTINUOUS
10
136.2
20
-114.126
11
136.197
21
-114.102
0
LINE
8
BLACK
6
CONTINUOUS
10
136.197
20
-114.102
11
136.197
21
-114.1
0
LINE
8
BLACK
6
CONTINUOUS
10
136.197
20
-114.1
11
136.197
21
-114.095
0
LINE
8
BLACK
6
CONTINUOUS
10
136.197
20
-114.095
11
136.196
21
-114.089
0
LINE
8
BLACK
6
CONTINUOUS
10
136.196
20
-114.089
11
136.196
21
-109.674
0
LINE
8
BLACK
6
CONTINUOUS
10
136.196
20
-109.674
11
136.197
21
-109.674
0
LINE
8
BLACK
6
CONTINUOUS
10
136.197
20
-109.674
11
136.197
21
-109.674
0
LINE
8
BLACK
6
CONTINUOUS
10
136.197
20
-109.674
11
136.197
21
-109.674
0
LINE
8
BLACK
6
CONTINUOUS
10
136.197
20
-109.674
11
136.197
21
-109.673
0
LINE
8
BLACK
6
CONTINUOUS
10
136.197
20
-109.673
11
136.198
21
-109.661
0
LINE
8
BLACK
6
CONTINUOUS
10
136.198
20
-109.661
11
136.199
21
-109.649
0
LINE
8
BLACK
6
CONTINUOUS
10
136.199
20
-109.649
11
136.199
21
-109.649
0
LINE
8
BLACK
6
CONTINUOUS
10
136.199
20
-109.649
11
136.199
21
-109.648
0
LINE
8
BLACK
6
CONTINUOUS
10
136.199
20
-109.648
11
136.203
21
-109.637
0
LINE
8
BLACK
6
CONTINUOUS
10
136.203
20
-109.637
11
136.206
21
-109.626
0
LINE
8
BLACK
6
CONTINUOUS
10
136.206
20
-109.626
11
136.207
21
-109.625
0
LINE
8
BLACK
6
CONTINUOUS
10
136.207
20
-109.625
11
136.207
21
-109.624
0
LINE
8
BLACK
6
CONTINUOUS
10
136.207
20
-109.624
11
136.212
21
-109.614
0
LINE
8
BLACK
6
CONTINUOUS
10
136.212
20
-109.614
11
136.218
21
-109.604
0
LINE
8
BLACK
6
CONTINUOUS
10
136.218
20
-109.604
11
136.218
21
-109.603
0
LINE
8
BLACK
6
CONTINUOUS
10
136.218
20
-109.603
11
136.219
21
-109.603
0
LINE
8
BLACK
6
CONTINUOUS
10
136.219
20
-109.603
11
136.226
21
-109.594
0
LINE
8
BLACK
6
CONTINUOUS
10
136.226
20
-109.594
11
136.234
21
-109.585
0
LINE
8
BLACK
6
CONTINUOUS
10
136.234
20
-109.585
11
136.269
21
-109.55
0
LINE
8
BLACK
6
CONTINUOUS
10
136.269
20
-109.55
11
136.368
21
-109.401
0
LINE
8
BLACK
6
CONTINUOUS
10
136.368
20
-109.401
11
136.437
21
-109.236
0
LINE
8
BLACK
6
CONTINUOUS
10
136.437
20
-109.236
11
136.471
21
-109.06
0
LINE
8
BLACK
6
CONTINUOUS
10
136.471
20
-109.06
11
136.471
21
-108.881
0
LINE
8
BLACK
6
CONTINUOUS
10
136.471
20
-108.881
11
136.437
21
-108.706
0
LINE
8
BLACK
6
CONTINUOUS
10
136.437
20
-108.706
11
136.368
21
-108.541
0
LINE
8
BLACK
6
CONTINUOUS
10
136.368
20
-108.541
11
136.269
21
-108.392
0
LINE
8
BLACK
6
CONTINUOUS
10
136.269
20
-108.392
11
136.142
21
-108.265
0
LINE
8
BLACK
6
CONTINUOUS
10
136.142
20
-108.265
11
135.994
21
-108.166
0
LINE
8
BLACK
6
CONTINUOUS
10
135.994
20
-108.166
11
135.828
21
-108.098
0
LINE
8
BLACK
6
CONTINUOUS
10
135.828
20
-108.098
11
135.653
21
-108.063
0
LINE
8
BLACK
6
CONTINUOUS
10
135.653
20
-108.063
11
135.474
21
-108.063
0
LINE
8
BLACK
6
CONTINUOUS
10
135.474
20
-108.063
11
135.299
21
-108.098
0
LINE
8
BLACK
6
CONTINUOUS
10
135.299
20
-108.098
11
135.261
21
-108.113
0
LINE
8
BLACK
6
CONTINUOUS
10
135.261
20
-108.113
11
135.26
21
-108.114
0
LINE
8
BLACK
6
CONTINUOUS
10
135.26
20
-108.114
11
135.26
21
-108.114
0
LINE
8
BLACK
6
CONTINUOUS
10
135.26
20
-108.114
11
135.26
21
-108.114
0
LINE
8
BLACK
6
CONTINUOUS
10
135.26
20
-108.114
11
135.259
21
-108.114
0
LINE
8
BLACK
6
CONTINUOUS
10
135.259
20
-108.114
11
135.247
21
-108.117
0
LINE
8
BLACK
6
CONTINUOUS
10
135.247
20
-108.117
11
135.236
21
-108.121
0
LINE
8
BLACK
6
CONTINUOUS
10
135.236
20
-108.121
11
135.236
21
-108.121
0
LINE
8
BLACK
6
CONTINUOUS
10
135.236
20
-108.121
11
135.235
21
-108.121
0
LINE
8
BLACK
6
CONTINUOUS
10
135.235
20
-108.121
11
135.223
21
-108.122
0
LINE
8
BLACK
6
CONTINUOUS
10
135.223
20
-108.122
11
135.211
21
-108.123
0
LINE
8
BLACK
6
CONTINUOUS
10
135.211
20
-108.123
11
135.211
21
-108.123
0
LINE
8
BLACK
6
CONTINUOUS
10
135.211
20
-108.123
11
135.211
21
-108.123
0
LINE
8
BLACK
6
CONTINUOUS
10
135.211
20
-108.123
11
135.199
21
-108.122
0
LINE
8
BLACK
6
CONTINUOUS
10
135.199
20
-108.122
11
135.187
21
-108.12
0
LINE
8
BLACK
6
CONTINUOUS
10
135.187
20
-108.12
11
135.186
21
-108.12
0
LINE
8
BLACK
6
CONTINUOUS
10
135.186
20
-108.12
11
135.186
21
-108.12
0
LINE
8
BLACK
6
CONTINUOUS
10
135.186
20
-108.12
11
135.175
21
-108.117
0
LINE
8
BLACK
6
CONTINUOUS
10
135.175
20
-108.117
11
135.163
21
-108.113
0
LINE
8
BLACK
6
CONTINUOUS
10
135.163
20
-108.113
11
135.163
21
-108.113
0
LINE
8
BLACK
6
CONTINUOUS
10
135.163
20
-108.113
11
135.162
21
-108.113
0
LINE
8
BLACK
6
CONTINUOUS
10
135.162
20
-108.113
11
135.152
21
-108.107
0
LINE
8
BLACK
6
CONTINUOUS
10
135.152
20
-108.107
11
135.141
21
-108.101
0
LINE
8
BLACK
6
CONTINUOUS
10
135.141
20
-108.101
11
135.141
21
-108.101
0
LINE
8
BLACK
6
CONTINUOUS
10
135.141
20
-108.101
11
135.141
21
-108.101
0
LINE
8
BLACK
6
CONTINUOUS
10
135.141
20
-108.101
11
135.131
21
-108.093
0
LINE
8
BLACK
6
CONTINUOUS
10
135.131
20
-108.093
11
135.122
21
-108.085
0
LINE
8
BLACK
6
CONTINUOUS
10
135.122
20
-108.085
11
135.122
21
-108.085
0
LINE
8
BLACK
6
CONTINUOUS
10
135.122
20
-108.085
11
135.122
21
-108.085
0
LINE
8
BLACK
6
CONTINUOUS
10
135.122
20
-108.085
11
135.114
21
-108.076
0
LINE
8
BLACK
6
CONTINUOUS
10
135.114
20
-108.076
11
135.106
21
-108.066
0
LINE
8
BLACK
6
CONTINUOUS
10
135.106
20
-108.066
11
135.106
21
-108.066
0
LINE
8
BLACK
6
CONTINUOUS
10
135.106
20
-108.066
11
135.106
21
-108.066
0
LINE
8
BLACK
6
CONTINUOUS
10
135.106
20
-108.066
11
135.1
21
-108.055
0
LINE
8
BLACK
6
CONTINUOUS
10
135.1
20
-108.055
11
135.095
21
-108.044
0
LINE
8
BLACK
6
CONTINUOUS
10
135.095
20
-108.044
11
135.095
21
-108.044
0
LINE
8
BLACK
6
CONTINUOUS
10
135.095
20
-108.044
11
135.095
21
-108.044
0
LINE
8
BLACK
6
CONTINUOUS
10
135.095
20
-108.044
11
135.091
21
-108.032
0
LINE
8
BLACK
6
CONTINUOUS
10
135.091
20
-108.032
11
135.088
21
-108.021
0
LINE
8
BLACK
6
CONTINUOUS
10
135.088
20
-108.021
11
135.088
21
-108.02
0
LINE
8
BLACK
6
CONTINUOUS
10
135.088
20
-108.02
11
135.087
21
-108.02
0
LINE
8
BLACK
6
CONTINUOUS
10
135.087
20
-108.02
11
135.086
21
-108.008
0
LINE
8
BLACK
6
CONTINUOUS
10
135.086
20
-108.008
11
135.085
21
-107.996
0
LINE
8
BLACK
6
CONTINUOUS
10
135.085
20
-107.996
11
135.085
21
-107.038
0
LINE
8
BLACK
6
CONTINUOUS
10
135.085
20
-107.038
11
135.085
21
-107.036
0
LINE
8
BLACK
6
CONTINUOUS
10
135.085
20
-107.036
11
135.086
21
-107.03
0
LINE
8
BLACK
6
CONTINUOUS
10
135.086
20
-107.03
11
135.086
21
-107.025
0
LINE
8
BLACK
6
CONTINUOUS
10
135.086
20
-107.025
11
135.088
21
-107
0
LINE
8
BLACK
6
CONTINUOUS
10
135.088
20
-107
11
135.086
21
-106.975
0
LINE
8
BLACK
6
CONTINUOUS
10
135.086
20
-106.975
11
135.086
21
-106.975
0
LINE
8
BLACK
6
CONTINUOUS
10
135.086
20
-106.975
11
135.076
21
-106.876
0
LINE
8
BLACK
6
CONTINUOUS
10
135.076
20
-106.876
11
135.04
21
-106.757
0
LINE
8
BLACK
6
CONTINUOUS
10
135.04
20
-106.757
11
134.981
21
-106.647
0
LINE
8
BLACK
6
CONTINUOUS
10
134.981
20
-106.647
11
134.902
21
-106.55
0
LINE
8
BLACK
6
CONTINUOUS
10
134.902
20
-106.55
11
134.883
21
-106.535
0
LINE
8
BLACK
6
CONTINUOUS
10
134.883
20
-106.535
11
134.881
21
-106.533
0
LINE
8
BLACK
6
CONTINUOUS
10
134.881
20
-106.533
11
134.878
21
-106.53
0
LINE
8
BLACK
6
CONTINUOUS
10
134.878
20
-106.53
11
134.873
21
-106.526
0
LINE
8
BLACK
6
CONTINUOUS
10
134.873
20
-106.526
11
134.346
21
-105.998
0
LINE
8
BLACK
6
CONTINUOUS
10
134.346
20
-105.998
11
134.344
21
-105.997
0
LINE
8
BLACK
6
CONTINUOUS
10
134.344
20
-105.997
11
134.341
21
-105.993
0
LINE
8
BLACK
6
CONTINUOUS
10
134.341
20
-105.993
11
134.337
21
-105.989
0
LINE
8
BLACK
6
CONTINUOUS
10
134.337
20
-105.989
11
134.333
21
-105.983
0
LINE
8
BLACK
6
CONTINUOUS
10
134.333
20
-105.983
11
134.329
21
-105.978
0
LINE
8
BLACK
6
CONTINUOUS
10
134.329
20
-105.978
11
134.326
21
-105.973
0
LINE
8
BLACK
6
CONTINUOUS
10
134.326
20
-105.973
11
134.323
21
-105.968
0
LINE
8
BLACK
6
CONTINUOUS
10
134.323
20
-105.968
11
134.321
21
-105.962
0
LINE
8
BLACK
6
CONTINUOUS
10
134.321
20
-105.962
11
134.317
21
-105.956
0
LINE
8
BLACK
6
CONTINUOUS
10
134.317
20
-105.956
11
134.316
21
-105.95
0
LINE
8
BLACK
6
CONTINUOUS
10
134.316
20
-105.95
11
134.314
21
-105.945
0
LINE
8
BLACK
6
CONTINUOUS
10
134.314
20
-105.945
11
134.312
21
-105.938
0
LINE
8
BLACK
6
CONTINUOUS
10
134.312
20
-105.938
11
134.311
21
-105.932
0
LINE
8
BLACK
6
CONTINUOUS
10
134.311
20
-105.932
11
134.31
21
-105.926
0
LINE
8
BLACK
6
CONTINUOUS
10
134.31
20
-105.926
11
134.309
21
-105.921
0
LINE
8
BLACK
6
CONTINUOUS
10
134.309
20
-105.921
11
134.309
21
-105.914
0
LINE
8
BLACK
6
CONTINUOUS
10
134.309
20
-105.914
11
134.308
21
-105.907
0
LINE
8
BLACK
6
CONTINUOUS
10
134.308
20
-105.907
11
134.309
21
-105.902
0
LINE
8
BLACK
6
CONTINUOUS
10
134.309
20
-105.902
11
134.309
21
-105.896
0
LINE
8
BLACK
6
CONTINUOUS
10
134.309
20
-105.896
11
134.31
21
-105.889
0
LINE
8
BLACK
6
CONTINUOUS
10
134.31
20
-105.889
11
134.311
21
-105.883
0
LINE
8
BLACK
6
CONTINUOUS
10
134.311
20
-105.883
11
134.313
21
-105.877
0
LINE
8
BLACK
6
CONTINUOUS
10
134.313
20
-105.877
11
134.314
21
-105.872
0
LINE
8
BLACK
6
CONTINUOUS
10
134.314
20
-105.872
11
134.316
21
-105.865
0
LINE
8
BLACK
6
CONTINUOUS
10
134.316
20
-105.865
11
134.318
21
-105.859
0
LINE
8
BLACK
6
CONTINUOUS
10
134.318
20
-105.859
11
134.321
21
-105.854
0
LINE
8
BLACK
6
CONTINUOUS
10
134.321
20
-105.854
11
134.323
21
-105.849
0
LINE
8
BLACK
6
CONTINUOUS
10
134.323
20
-105.849
11
134.327
21
-105.843
0
LINE
8
BLACK
6
CONTINUOUS
10
134.327
20
-105.843
11
134.33
21
-105.837
0
LINE
8
BLACK
6
CONTINUOUS
10
134.33
20
-105.837
11
134.334
21
-105.833
0
LINE
8
BLACK
6
CONTINUOUS
10
134.334
20
-105.833
11
134.337
21
-105.828
0
LINE
8
BLACK
6
CONTINUOUS
10
134.337
20
-105.828
11
134.395
21
-105.758
0
LINE
8
BLACK
6
CONTINUOUS
10
134.395
20
-105.758
11
134.521
21
-105.522
0
LINE
8
BLACK
6
CONTINUOUS
10
134.521
20
-105.522
11
134.598
21
-105.266
0
LINE
8
BLACK
6
CONTINUOUS
10
134.598
20
-105.266
11
134.625
21
-105
0
LINE
8
BLACK
6
CONTINUOUS
10
134.625
20
-105
11
134.598
21
-104.734
0
LINE
8
BLACK
6
CONTINUOUS
10
134.598
20
-104.734
11
134.521
21
-104.478
0
LINE
8
BLACK
6
CONTINUOUS
10
134.521
20
-104.478
11
134.395
21
-104.242
0
LINE
8
BLACK
6
CONTINUOUS
10
134.395
20
-104.242
11
134.225
21
-104.035
0
LINE
8
BLACK
6
CONTINUOUS
10
134.225
20
-104.035
11
134.205
21
-104.019
0
LINE
8
BLACK
6
CONTINUOUS
10
134.205
20
-104.019
11
134.204
21
-104.018
0
LINE
8
BLACK
6
CONTINUOUS
10
134.204
20
-104.018
11
134.204
21
-104.018
0
LINE
8
BLACK
6
CONTINUOUS
10
134.204
20
-104.018
11
134.204
21
-104.018
0
LINE
8
BLACK
6
CONTINUOUS
10
134.204
20
-104.018
11
134.203
21
-104.017
0
LINE
8
BLACK
6
CONTINUOUS
10
134.203
20
-104.017
11
134.195
21
-104.009
0
LINE
8
BLACK
6
CONTINUOUS
10
134.195
20
-104.009
11
134.186
21
-104
0
LINE
8
BLACK
6
CONTINUOUS
10
134.186
20
-104
11
134.186
21
-104
0
LINE
8
BLACK
6
CONTINUOUS
10
134.186
20
-104
11
134.186
21
-104
0
LINE
8
BLACK
6
CONTINUOUS
10
134.186
20
-104
11
134.179
21
-103.989
0
LINE
8
BLACK
6
CONTINUOUS
10
134.179
20
-103.989
11
134.173
21
-103.979
0
LINE
8
BLACK
6
CONTINUOUS
10
134.173
20
-103.979
11
134.173
21
-103.979
0
LINE
8
BLACK
6
CONTINUOUS
10
134.173
20
-103.979
11
134.173
21
-103.979
0
LINE
8
BLACK
6
CONTINUOUS
10
134.173
20
-103.979
11
134.168
21
-103.968
0
LINE
8
BLACK
6
CONTINUOUS
10
134.168
20
-103.968
11
134.164
21
-103.956
0
LINE
8
BLACK
6
CONTINUOUS
10
134.164
20
-103.956
11
134.163
21
-103.956
0
LINE
8
BLACK
6
CONTINUOUS
10
134.163
20
-103.956
11
134.163
21
-103.956
0
LINE
8
BLACK
6
CONTINUOUS
10
134.163
20
-103.956
11
134.161
21
-103.944
0
LINE
8
BLACK
6
CONTINUOUS
10
134.161
20
-103.944
11
134.159
21
-103.932
0
LINE
8
BLACK
6
CONTINUOUS
10
134.159
20
-103.932
11
134.159
21
-103.932
0
LINE
8
BLACK
6
CONTINUOUS
10
134.159
20
-103.932
11
134.159
21
-103.932
0
LINE
8
BLACK
6
CONTINUOUS
10
134.159
20
-103.932
11
134.159
21
-103.919
0
LINE
8
BLACK
6
CONTINUOUS
10
134.159
20
-103.919
11
134.159
21
-103.907
0
LINE
8
BLACK
6
CONTINUOUS
10
134.159
20
-103.907
11
134.159
21
-103.907
0
LINE
8
BLACK
6
CONTINUOUS
10
134.159
20
-103.907
11
134.159
21
-103.907
0
LINE
8
BLACK
6
CONTINUOUS
10
134.159
20
-103.907
11
134.162
21
-103.895
0
LINE
8
BLACK
6
CONTINUOUS
10
134.162
20
-103.895
11
134.164
21
-103.883
0
LINE
8
BLACK
6
CONTINUOUS
10
134.164
20
-103.883
11
134.164
21
-103.883
0
LINE
8
BLACK
6
CONTINUOUS
10
134.164
20
-103.883
11
134.164
21
-103.882
0
LINE
8
BLACK
6
CONTINUOUS
10
134.164
20
-103.882
11
134.169
21
-103.871
0
LINE
8
BLACK
6
CONTINUOUS
10
134.169
20
-103.871
11
134.174
21
-103.86
0
LINE
8
BLACK
6
CONTINUOUS
10
134.174
20
-103.86
11
134.174
21
-103.86
0
LINE
8
BLACK
6
CONTINUOUS
10
134.174
20
-103.86
11
134.174
21
-103.86
0
LINE
8
BLACK
6
CONTINUOUS
10
134.174
20
-103.86
11
134.181
21
-103.85
0
LINE
8
BLACK
6
CONTINUOUS
10
134.181
20
-103.85
11
134.187
21
-103.84
0
LINE
8
BLACK
6
CONTINUOUS
10
134.187
20
-103.84
11
134.188
21
-103.839
0
LINE
8
BLACK
6
CONTINUOUS
10
134.188
20
-103.839
11
134.188
21
-103.839
0
LINE
8
BLACK
6
CONTINUOUS
10
134.188
20
-103.839
11
134.196
21
-103.831
0
LINE
8
BLACK
6
CONTINUOUS
10
134.196
20
-103.831
11
134.205
21
-103.822
0
LINE
8
BLACK
6
CONTINUOUS
10
134.205
20
-103.822
11
134.205
21
-103.822
0
LINE
8
BLACK
6
CONTINUOUS
10
134.205
20
-103.822
11
134.205
21
-103.822
0
LINE
8
BLACK
6
CONTINUOUS
10
134.205
20
-103.822
11
134.216
21
-103.815
0
LINE
8
BLACK
6
CONTINUOUS
10
134.216
20
-103.815
11
134.226
21
-103.808
0
LINE
8
BLACK
6
CONTINUOUS
10
134.226
20
-103.808
11
134.226
21
-103.808
0
LINE
8
BLACK
6
CONTINUOUS
10
134.226
20
-103.808
11
134.226
21
-103.808
0
LINE
8
BLACK
6
CONTINUOUS
10
134.226
20
-103.808
11
134.237
21
-103.803
0
LINE
8
BLACK
6
CONTINUOUS
10
134.237
20
-103.803
11
134.248
21
-103.799
0
LINE
8
BLACK
6
CONTINUOUS
10
134.248
20
-103.799
11
134.305
21
-103.782
0
LINE
8
BLACK
6
CONTINUOUS
10
134.305
20
-103.782
11
134.394
21
-103.734
0
LINE
8
BLACK
6
CONTINUOUS
10
134.394
20
-103.734
11
134.471
21
-103.671
0
LINE
8
BLACK
6
CONTINUOUS
10
134.471
20
-103.671
11
134.534
21
-103.594
0
LINE
8
BLACK
6
CONTINUOUS
10
134.534
20
-103.594
11
134.582
21
-103.505
0
LINE
8
BLACK
6
CONTINUOUS
10
134.582
20
-103.505
11
134.611
21
-103.41
0
LINE
8
BLACK
6
CONTINUOUS
10
134.611
20
-103.41
11
134.621
21
-103.304
0
LINE
8
BLACK
6
CONTINUOUS
10
134.621
20
-103.304
11
134.621
21
-101.616
0
LINE
8
BLACK
6
CONTINUOUS
10
134.621
20
-101.616
11
134.611
21
-101.51
0
LINE
8
BLACK
6
CONTINUOUS
10
134.611
20
-101.51
11
134.582
21
-101.415
0
LINE
8
BLACK
6
CONTINUOUS
10
134.582
20
-101.415
11
134.534
21
-101.326
0
LINE
8
BLACK
6
CONTINUOUS
10
134.534
20
-101.326
11
134.471
21
-101.249
0
LINE
8
BLACK
6
CONTINUOUS
10
134.471
20
-101.249
11
134.394
21
-101.186
0
LINE
8
BLACK
6
CONTINUOUS
10
134.394
20
-101.186
11
134.305
21
-101.138
0
LINE
8
BLACK
6
CONTINUOUS
10
134.305
20
-101.138
11
134.21
21
-101.109
0
LINE
8
BLACK
6
CONTINUOUS
10
134.21
20
-101.109
11
134.104
21
-101.099
0
LINE
8
BLACK
6
CONTINUOUS
10
134.104
20
-101.099
11
132.416
21
-101.099
0
LINE
8
BLACK
6
CONTINUOUS
10
132.416
20
-101.099
11
132.31
21
-101.109
0
LINE
8
BLACK
6
CONTINUOUS
10
132.31
20
-101.109
11
132.215
21
-101.138
0
LINE
8
BLACK
6
CONTINUOUS
10
132.215
20
-101.138
11
132.126
21
-101.186
0
LINE
8
BLACK
6
CONTINUOUS
10
132.126
20
-101.186
11
132.049
21
-101.249
0
LINE
8
BLACK
6
CONTINUOUS
10
132.049
20
-101.249
11
131.986
21
-101.326
0
LINE
8
BLACK
6
CONTINUOUS
10
131.986
20
-101.326
11
131.938
21
-101.415
0
LINE
8
BLACK
6
CONTINUOUS
10
131.938
20
-101.415
11
131.909
21
-101.51
0
LINE
8
BLACK
6
CONTINUOUS
10
131.909
20
-101.51
11
131.899
21
-101.616
0
LINE
8
BLACK
6
CONTINUOUS
10
131.899
20
-101.616
11
131.899
21
-103.304
0
LINE
8
BLACK
6
CONTINUOUS
10
131.899
20
-103.304
11
131.909
21
-103.41
0
LINE
8
BLACK
6
CONTINUOUS
10
131.909
20
-103.41
11
131.938
21
-103.505
0
LINE
8
BLACK
6
CONTINUOUS
10
131.938
20
-103.505
11
131.986
21
-103.594
0
LINE
8
BLACK
6
CONTINUOUS
10
131.986
20
-103.594
11
132.049
21
-103.671
0
LINE
8
BLACK
6
CONTINUOUS
10
132.049
20
-103.671
11
132.126
21
-103.734
0
LINE
8
BLACK
6
CONTINUOUS
10
132.126
20
-103.734
11
132.215
21
-103.782
0
LINE
8
BLACK
6
CONTINUOUS
10
132.215
20
-103.782
11
132.272
21
-103.799
0
LINE
8
BLACK
6
CONTINUOUS
10
132.272
20
-103.799
11
132.273
21
-103.799
0
LINE
8
BLACK
6
CONTINUOUS
10
132.273
20
-103.799
11
132.273
21
-103.799
0
LINE
8
BLACK
6
CONTINUOUS
10
132.273
20
-103.799
11
132.273
21
-103.799
0
LINE
8
BLACK
6
CONTINUOUS
10
132.273
20
-103.799
11
132.273
21
-103.799
0
LINE
8
BLACK
6
CONTINUOUS
10
132.273
20
-103.799
11
132.285
21
-103.804
0
LINE
8
BLACK
6
CONTINUOUS
10
132.285
20
-103.804
11
132.296
21
-103.809
0
LINE
8
BLACK
6
CONTINUOUS
10
132.296
20
-103.809
11
132.296
21
-103.809
0
LINE
8
BLACK
6
CONTINUOUS
10
132.296
20
-103.809
11
132.296
21
-103.809
0
LINE
8
BLACK
6
CONTINUOUS
10
132.296
20
-103.809
11
132.306
21
-103.816
0
LINE
8
BLACK
6
CONTINUOUS
10
132.306
20
-103.816
11
132.316
21
-103.823
0
LINE
8
BLACK
6
CONTINUOUS
10
132.316
20
-103.823
11
132.316
21
-103.823
0
LINE
8
BLACK
6
CONTINUOUS
10
132.316
20
-103.823
11
132.316
21
-103.823
0
LINE
8
BLACK
6
CONTINUOUS
10
132.316
20
-103.823
11
132.325
21
-103.832
0
LINE
8
BLACK
6
CONTINUOUS
10
132.325
20
-103.832
11
132.333
21
-103.841
0
LINE
8
BLACK
6
CONTINUOUS
10
132.333
20
-103.841
11
132.334
21
-103.841
0
LINE
8
BLACK
6
CONTINUOUS
10
132.334
20
-103.841
11
132.334
21
-103.841
0
LINE
8
BLACK
6
CONTINUOUS
10
132.334
20
-103.841
11
132.34
21
-103.851
0
LINE
8
BLACK
6
CONTINUOUS
10
132.34
20
-103.851
11
132.347
21
-103.861
0
LINE
8
BLACK
6
CONTINUOUS
10
132.347
20
-103.861
11
132.347
21
-103.861
0
LINE
8
BLACK
6
CONTINUOUS
10
132.347
20
-103.861
11
132.347
21
-103.862
0
LINE
8
BLACK
6
CONTINUOUS
10
132.347
20
-103.862
11
132.352
21
-103.873
0
LINE
8
BLACK
6
CONTINUOUS
10
132.352
20
-103.873
11
132.356
21
-103.884
0
LINE
8
BLACK
6
CONTINUOUS
10
132.356
20
-103.884
11
132.356
21
-103.884
0
LINE
8
BLACK
6
CONTINUOUS
10
132.356
20
-103.884
11
132.357
21
-103.885
0
LINE
8
BLACK
6
CONTINUOUS
10
132.357
20
-103.885
11
132.359
21
-103.897
0
LINE
8
BLACK
6
CONTINUOUS
10
132.359
20
-103.897
11
132.361
21
-103.908
0
LINE
8
BLACK
6
CONTINUOUS
10
132.361
20
-103.908
11
132.361
21
-103.909
0
LINE
8
BLACK
6
CONTINUOUS
10
132.361
20
-103.909
11
132.361
21
-103.909
0
LINE
8
BLACK
6
CONTINUOUS
10
132.361
20
-103.909
11
132.361
21
-103.921
0
LINE
8
BLACK
6
CONTINUOUS
10
132.361
20
-103.921
11
132.361
21
-103.933
0
LINE
8
BLACK
6
CONTINUOUS
10
132.361
20
-103.933
11
132.361
21
-103.934
0
LINE
8
BLACK
6
CONTINUOUS
10
132.361
20
-103.934
11
132.361
21
-103.934
0
LINE
8
BLACK
6
CONTINUOUS
10
132.361
20
-103.934
11
132.359
21
-103.946
0
LINE
8
BLACK
6
CONTINUOUS
10
132.359
20
-103.946
11
132.356
21
-103.958
0
LINE
8
BLACK
6
CONTINUOUS
10
132.356
20
-103.958
11
132.356
21
-103.958
0
LINE
8
BLACK
6
CONTINUOUS
10
132.356
20
-103.958
11
132.356
21
-103.958
0
LINE
8
BLACK
6
CONTINUOUS
10
132.356
20
-103.958
11
132.351
21
-103.969
0
LINE
8
BLACK
6
CONTINUOUS
10
132.351
20
-103.969
11
132.347
21
-103.98
0
LINE
8
BLACK
6
CONTINUOUS
10
132.347
20
-103.98
11
132.346
21
-103.981
0
LINE
8
BLACK
6
CONTINUOUS
10
132.346
20
-103.981
11
132.346
21
-103.981
0
LINE
8
BLACK
6
CONTINUOUS
10
132.346
20
-103.981
11
132.339
21
-103.991
0
LINE
8
BLACK
6
CONTINUOUS
10
132.339
20
-103.991
11
132.333
21
-104.001
0
LINE
8
BLACK
6
CONTINUOUS
10
132.333
20
-104.001
11
132.333
21
-104.001
0
LINE
8
BLACK
6
CONTINUOUS
10
132.333
20
-104.001
11
132.332
21
-104.001
0
LINE
8
BLACK
6
CONTINUOUS
10
132.332
20
-104.001
11
132.324
21
-104.01
0
LINE
8
BLACK
6
CONTINUOUS
10
132.324
20
-104.01
11
132.315
21
-104.019
0
LINE
8
BLACK
6
CONTINUOUS
10
132.315
20
-104.019
11
132.295
21
-104.035
0
LINE
8
BLACK
6
CONTINUOUS
10
132.295
20
-104.035
11
132.125
21
-104.242
0
LINE
8
BLACK
6
CONTINUOUS
10
132.125
20
-104.242
11
131.999
21
-104.478
0
LINE
8
BLACK
6
CONTINUOUS
10
131.999
20
-104.478
11
131.922
21
-104.734
0
LINE
8
BLACK
6
CONTINUOUS
10
131.922
20
-104.734
11
131.895
21
-105
0
LINE
8
BLACK
6
CONTINUOUS
10
131.895
20
-105
11
131.922
21
-105.266
0
LINE
8
BLACK
6
CONTINUOUS
10
131.922
20
-105.266
11
131.999
21
-105.522
0
LINE
8
BLACK
6
CONTINUOUS
10
131.999
20
-105.522
11
132.125
21
-105.758
0
LINE
8
BLACK
6
CONTINUOUS
10
132.125
20
-105.758
11
132.295
21
-105.965
0
LINE
8
BLACK
6
CONTINUOUS
10
132.295
20
-105.965
11
132.502
21
-106.135
0
LINE
8
BLACK
6
CONTINUOUS
10
132.502
20
-106.135
11
132.555
21
-106.163
0
LINE
8
BLACK
6
CONTINUOUS
10
132.555
20
-106.163
11
132.557
21
-106.164
0
LINE
8
BLACK
6
CONTINUOUS
10
132.557
20
-106.164
11
132.565
21
-106.169
0
LINE
8
BLACK
6
CONTINUOUS
10
132.565
20
-106.169
11
132.572
21
-106.174
0
LINE
8
BLACK
6
CONTINUOUS
10
132.572
20
-106.174
11
132.575
21
-106.176
0
LINE
8
BLACK
6
CONTINUOUS
10
132.575
20
-106.176
11
132.577
21
-106.178
0
LINE
8
BLACK
6
CONTINUOUS
10
132.577
20
-106.178
11
132.584
21
-106.185
0
LINE
8
BLACK
6
CONTINUOUS
10
132.584
20
-106.185
11
132.591
21
-106.191
0
LINE
8
BLACK
6
CONTINUOUS
10
132.591
20
-106.191
11
132.592
21
-106.194
0
LINE
8
BLACK
6
CONTINUOUS
10
132.592
20
-106.194
11
132.595
21
-106.196
0
LINE
8
BLACK
6
CONTINUOUS
10
132.595
20
-106.196
11
132.6
21
-106.204
0
LINE
8
BLACK
6
CONTINUOUS
10
132.6
20
-106.204
11
132.605
21
-106.211
0
LINE
8
BLACK
6
CONTINUOUS
10
132.605
20
-106.211
11
132.606
21
-106.214
0
LINE
8
BLACK
6
CONTINUOUS
10
132.606
20
-106.214
11
132.608
21
-106.217
0
LINE
8
BLACK
6
CONTINUOUS
10
132.608
20
-106.217
11
132.612
21
-106.225
0
LINE
8
BLACK
6
CONTINUOUS
10
132.612
20
-106.225
11
132.615
21
-106.233
0
LINE
8
BLACK
6
CONTINUOUS
10
132.615
20
-106.233
11
132.616
21
-106.237
0
LINE
8
BLACK
6
CONTINUOUS
10
132.616
20
-106.237
11
132.617
21
-106.24
0
LINE
8
BLACK
6
CONTINUOUS
10
132.617
20
-106.24
11
132.619
21
-106.249
0
LINE
8
BLACK
6
CONTINUOUS
10
132.619
20
-106.249
11
132.621
21
-106.258
0
LINE
8
BLACK
6
CONTINUOUS
10
132.621
20
-106.258
11
132.621
21
-106.261
0
LINE
8
BLACK
6
CONTINUOUS
10
132.621
20
-106.261
11
132.622
21
-106.264
0
LINE
8
BLACK
6
CONTINUOUS
10
132.622
20
-106.264
11
132.622
21
-106.273
0
LINE
8
BLACK
6
CONTINUOUS
10
132.622
20
-106.273
11
132.622
21
-106.282
0
LINE
8
BLACK
6
CONTINUOUS
10
132.622
20
-106.282
11
132.622
21
-106.286
0
LINE
8
BLACK
6
CONTINUOUS
10
132.622
20
-106.286
11
132.622
21
-106.289
0
LINE
8
BLACK
6
CONTINUOUS
10
132.622
20
-106.289
11
132.62
21
-106.298
0
LINE
8
BLACK
6
CONTINUOUS
10
132.62
20
-106.298
11
132.619
21
-106.307
0
LINE
8
BLACK
6
CONTINUOUS
10
132.619
20
-106.307
11
132.617
21
-106.31
0
LINE
8
BLACK
6
CONTINUOUS
10
132.617
20
-106.31
11
132.617
21
-106.313
0
LINE
8
BLACK
6
CONTINUOUS
10
132.617
20
-106.313
11
132.613
21
-106.321
0
LINE
8
BLACK
6
CONTINUOUS
10
132.613
20
-106.321
11
132.61
21
-106.33
0
LINE
8
BLACK
6
CONTINUOUS
10
132.61
20
-106.33
11
132.608
21
-106.333
0
LINE
8
BLACK
6
CONTINUOUS
10
132.608
20
-106.333
11
132.607
21
-106.336
0
LINE
8
BLACK
6
CONTINUOUS
10
132.607
20
-106.336
11
132.602
21
-106.343
0
LINE
8
BLACK
6
CONTINUOUS
10
132.602
20
-106.343
11
132.597
21
-106.351
0
LINE
8
BLACK
6
CONTINUOUS
10
132.597
20
-106.351
11
132.595
21
-106.354
0
LINE
8
BLACK
6
CONTINUOUS
10
132.595
20
-106.354
11
132.593
21
-106.356
0
LINE
8
BLACK
6
CONTINUOUS
10
132.593
20
-106.356
11
132.587
21
-106.363
0
LINE
8
BLACK
6
CONTINUOUS
10
132.587
20
-106.363
11
132.58
21
-106.37
0
LINE
8
BLACK
6
CONTINUOUS
10
132.58
20
-106.37
11
132.578
21
-106.372
0
LINE
8
BLACK
6
CONTINUOUS
10
132.578
20
-106.372
11
132.576
21
-106.374
0
LINE
8
BLACK
6
CONTINUOUS
10
132.576
20
-106.374
11
132.568
21
-106.379
0
LINE
8
BLACK
6
CONTINUOUS
10
132.568
20
-106.379
11
132.561
21
-106.384
0
LINE
8
BLACK
6
CONTINUOUS
10
132.561
20
-106.384
11
132.454
21
-106.448
0
LINE
8
BLACK
6
CONTINUOUS
10
132.454
20
-106.448
11
132.257
21
-106.626
0
LINE
8
BLACK
6
CONTINUOUS
10
132.257
20
-106.626
11
132.098
21
-106.839
0
LINE
8
BLACK
6
CONTINUOUS
10
132.098
20
-106.839
11
131.982
21
-107.082
0
LINE
8
BLACK
6
CONTINUOUS
10
131.982
20
-107.082
11
131.955
21
-107.17
0
LINE
8
BLACK
6
CONTINUOUS
10
131.955
20
-107.17
11
132.016
21
-107.286
0
LINE
8
BLACK
6
CONTINUOUS
10
132.016
20
-107.286
11
132.449
21
-107.286
0
LINE
8
BLACK
6
CONTINUOUS
10
132.449
20
-107.286
11
132.471
21
-107.213
0
LINE
8
BLACK
6
CONTINUOUS
10
132.471
20
-107.213
11
132.55
21
-107.065
0
LINE
8
BLACK
6
CONTINUOUS
10
132.55
20
-107.065
11
132.656
21
-106.936
0
LINE
8
BLACK
6
CONTINUOUS
10
132.656
20
-106.936
11
132.785
21
-106.83
0
LINE
8
BLACK
6
CONTINUOUS
10
132.785
20
-106.83
11
132.933
21
-106.751
0
LINE
8
BLACK
6
CONTINUOUS
10
132.933
20
-106.751
11
133.093
21
-106.702
0
LINE
8
BLACK
6
CONTINUOUS
10
133.093
20
-106.702
11
133.218
21
-106.69
0
LINE
8
BLACK
6
CONTINUOUS
10
133.218
20
-106.69
11
133.302
21
-106.69
0
LINE
8
BLACK
6
CONTINUOUS
10
133.302
20
-106.69
11
133.427
21
-106.702
0
LINE
8
BLACK
6
CONTINUOUS
10
133.427
20
-106.702
11
133.587
21
-106.751
0
LINE
8
BLACK
6
CONTINUOUS
10
133.587
20
-106.751
11
133.735
21
-106.83
0
LINE
8
BLACK
6
CONTINUOUS
10
133.735
20
-106.83
11
133.864
21
-106.936
0
LINE
8
BLACK
6
CONTINUOUS
10
133.864
20
-106.936
11
133.97
21
-107.065
0
LINE
8
BLACK
6
CONTINUOUS
10
133.97
20
-107.065
11
134.049
21
-107.213
0
LINE
8
BLACK
6
CONTINUOUS
10
134.049
20
-107.213
11
134.098
21
-107.373
0
LINE
8
BLACK
6
CONTINUOUS
10
134.098
20
-107.373
11
134.114
21
-107.54
0
LINE
8
BLACK
6
CONTINUOUS
10
134.114
20
-107.54
11
134.098
21
-107.707
0
LINE
8
BLACK
6
CONTINUOUS
10
134.098
20
-107.707
11
134.049
21
-107.867
0
LINE
8
BLACK
6
CONTINUOUS
10
134.049
20
-107.867
11
133.97
21
-108.015
0
LINE
8
BLACK
6
CONTINUOUS
10
133.97
20
-108.015
11
133.864
21
-108.144
0
LINE
8
BLACK
6
CONTINUOUS
10
133.864
20
-108.144
11
133.735
21
-108.25
0
LINE
8
BLACK
6
CONTINUOUS
10
133.735
20
-108.25
11
133.587
21
-108.329
0
LINE
8
BLACK
6
CONTINUOUS
10
133.587
20
-108.329
11
133.514
21
-108.351
0
LINE
8
BLACK
6
CONTINUOUS
10
133.514
20
-108.351
11
133.514
21
-108.784
0
LINE
8
BLACK
6
CONTINUOUS
10
133.514
20
-108.784
11
133.627
21
-108.843
0
LINE
8
BLACK
6
CONTINUOUS
10
133.627
20
-108.843
11
133.65
21
-108.835
0
LINE
8
BLACK
6
CONTINUOUS
10
133.65
20
-108.835
11
133.651
21
-108.834
0
LINE
8
BLACK
6
CONTINUOUS
10
133.651
20
-108.834
11
133.66
21
-108.832
0
LINE
8
BLACK
6
CONTINUOUS
10
133.66
20
-108.832
11
133.668
21
-108.83
0
LINE
8
BLACK
6
CONTINUOUS
10
133.668
20
-108.83
11
133.672
21
-108.83
0
LINE
8
BLACK
6
CONTINUOUS
10
133.672
20
-108.83
11
133.676
21
-108.829
0
LINE
8
BLACK
6
CONTINUOUS
10
133.676
20
-108.829
11
133.684
21
-108.829
0
LINE
8
BLACK
6
CONTINUOUS
10
133.684
20
-108.829
11
133.693
21
-108.828
0
LINE
8
BLACK
6
CONTINUOUS
10
133.693
20
-108.828
11
133.697
21
-108.828
0
LINE
8
BLACK
6
CONTINUOUS
10
133.697
20
-108.828
11
133.7
21
-108.828
0
LINE
8
BLACK
6
CONTINUOUS
10
133.7
20
-108.828
11
133.709
21
-108.829
0
LINE
8
BLACK
6
CONTINUOUS
10
133.709
20
-108.829
11
133.718
21
-108.83
0
LINE
8
BLACK
6
CONTINUOUS
10
133.718
20
-108.83
11
133.721
21
-108.831
0
LINE
8
BLACK
6
CONTINUOUS
10
133.721
20
-108.831
11
133.725
21
-108.832
0
LINE
8
BLACK
6
CONTINUOUS
10
133.725
20
-108.832
11
133.733
21
-108.835
0
LINE
8
BLACK
6
CONTINUOUS
10
133.733
20
-108.835
11
133.741
21
-108.838
0
LINE
8
BLACK
6
CONTINUOUS
10
133.741
20
-108.838
11
133.745
21
-108.839
0
LINE
8
BLACK
6
CONTINUOUS
10
133.745
20
-108.839
11
133.748
21
-108.841
0
LINE
8
BLACK
6
CONTINUOUS
10
133.748
20
-108.841
11
133.755
21
-108.845
0
LINE
8
BLACK
6
CONTINUOUS
10
133.755
20
-108.845
11
133.763
21
-108.849
0
LINE
8
BLACK
6
CONTINUOUS
10
133.763
20
-108.849
11
133.766
21
-108.852
0
LINE
8
BLACK
6
CONTINUOUS
10
133.766
20
-108.852
11
133.769
21
-108.854
0
LINE
8
BLACK
6
CONTINUOUS
10
133.769
20
-108.854
11
133.776
21
-108.86
0
LINE
8
BLACK
6
CONTINUOUS
10
133.776
20
-108.86
11
133.782
21
-108.865
0
LINE
8
BLACK
6
CONTINUOUS
10
133.782
20
-108.865
11
133.785
21
-108.868
0
LINE
8
BLACK
6
CONTINUOUS
10
133.785
20
-108.868
11
133.787
21
-108.871
0
LINE
8
BLACK
6
CONTINUOUS
10
133.787
20
-108.871
11
133.792
21
-108.878
0
LINE
8
BLACK
6
CONTINUOUS
10
133.792
20
-108.878
11
133.798
21
-108.884
0
LINE
8
BLACK
6
CONTINUOUS
10
133.798
20
-108.884
11
133.8
21
-108.888
0
LINE
8
BLACK
6
CONTINUOUS
10
133.8
20
-108.888
11
133.802
21
-108.891
0
LINE
8
BLACK
6
CONTINUOUS
10
133.802
20
-108.891
11
133.805
21
-108.899
0
LINE
8
BLACK
6
CONTINUOUS
10
133.805
20
-108.899
11
133.81
21
-108.906
0
LINE
8
BLACK
6
CONTINUOUS
10
133.81
20
-108.906
11
133.811
21
-108.91
0
LINE
8
BLACK
6
CONTINUOUS
10
133.811
20
-108.91
11
133.812
21
-108.913
0
LINE
8
BLACK
6
CONTINUOUS
10
133.812
20
-108.913
11
133.814
21
-108.922
0
LINE
8
BLACK
6
CONTINUOUS
10
133.814
20
-108.922
11
133.817
21
-108.93
0
LINE
8
BLACK
6
CONTINUOUS
10
133.817
20
-108.93
11
133.817
21
-108.934
0
LINE
8
BLACK
6
CONTINUOUS
10
133.817
20
-108.934
11
133.818
21
-108.937
0
LINE
8
BLACK
6
CONTINUOUS
10
133.818
20
-108.937
11
133.818
21
-108.946
0
LINE
8
BLACK
6
CONTINUOUS
10
133.818
20
-108.946
11
133.819
21
-108.955
0
LINE
8
BLACK
6
CONTINUOUS
10
133.819
20
-108.955
11
133.819
21
-111.087
0
LINE
8
BLACK
6
CONTINUOUS
10
133.819
20
-111.087
11
133.819
21
-111.087
0
LINE
8
BLACK
6
CONTINUOUS
10
133.819
20
-111.087
11
133.819
21
-111.087
0
LINE
8
BLACK
6
CONTINUOUS
10
133.819
20
-111.087
11
133.819
21
-111.087
0
LINE
8
BLACK
6
CONTINUOUS
10
133.819
20
-111.087
11
133.819
21
-111.088
0
LINE
8
BLACK
6
CONTINUOUS
10
133.819
20
-111.088
11
133.818
21
-111.1
0
LINE
8
BLACK
6
CONTINUOUS
10
133.818
20
-111.1
11
133.817
21
-111.112
0
LINE
8
BLACK
6
CONTINUOUS
10
133.817
20
-111.112
11
133.816
21
-111.112
0
LINE
8
BLACK
6
CONTINUOUS
10
133.816
20
-111.112
11
133.816
21
-111.113
0
LINE
8
BLACK
6
CONTINUOUS
10
133.816
20
-111.113
11
133.813
21
-111.124
0
LINE
8
BLACK
6
CONTINUOUS
10
133.813
20
-111.124
11
133.809
21
-111.135
0
LINE
8
BLACK
6
CONTINUOUS
10
133.809
20
-111.135
11
133.809
21
-111.136
0
LINE
8
BLACK
6
CONTINUOUS
10
133.809
20
-111.136
11
133.809
21
-111.137
0
LINE
8
BLACK
6
CONTINUOUS
10
133.809
20
-111.137
11
133.803
21
-111.147
0
LINE
8
BLACK
6
CONTINUOUS
10
133.803
20
-111.147
11
133.798
21
-111.157
0
LINE
8
BLACK
6
CONTINUOUS
10
133.798
20
-111.157
11
133.797
21
-111.158
0
LINE
8
BLACK
6
CONTINUOUS
10
133.797
20
-111.158
11
133.797
21
-111.158
0
LINE
8
BLACK
6
CONTINUOUS
10
133.797
20
-111.158
11
133.789
21
-111.167
0
LINE
8
BLACK
6
CONTINUOUS
10
133.789
20
-111.167
11
133.782
21
-111.176
0
LINE
8
BLACK
6
CONTINUOUS
10
133.782
20
-111.176
11
133.128
21
-111.83
0
LINE
8
BLACK
6
CONTINUOUS
10
133.128
20
-111.83
11
133.128
21
-111.831
0
LINE
8
BLACK
6
CONTINUOUS
10
133.128
20
-111.831
11
133.128
21
-111.831
0
LINE
8
BLACK
6
CONTINUOUS
10
133.128
20
-111.831
11
133.128
21
-111.831
0
LINE
8
BLACK
6
CONTINUOUS
10
133.128
20
-111.831
11
133.127
21
-111.832
0
LINE
8
BLACK
6
CONTINUOUS
10
133.127
20
-111.832
11
133.118
21
-111.839
0
LINE
8
BLACK
6
CONTINUOUS
10
133.118
20
-111.839
11
133.108
21
-111.846
0
LINE
8
BLACK
6
CONTINUOUS
10
133.108
20
-111.846
11
133.108
21
-111.847
0
LINE
8
BLACK
6
CONTINUOUS
10
133.108
20
-111.847
11
133.107
21
-111.847
0
LINE
8
BLACK
6
CONTINUOUS
10
133.107
20
-111.847
11
133.097
21
-111.853
0
LINE
8
BLACK
6
CONTINUOUS
10
133.097
20
-111.853
11
133.087
21
-111.858
0
LINE
8
BLACK
6
CONTINUOUS
10
133.087
20
-111.858
11
133.086
21
-111.858
0
LINE
8
BLACK
6
CONTINUOUS
10
133.086
20
-111.858
11
133.085
21
-111.859
0
LINE
8
BLACK
6
CONTINUOUS
10
133.085
20
-111.859
11
133.074
21
-111.862
0
LINE
8
BLACK
6
CONTINUOUS
10
133.074
20
-111.862
11
133.063
21
-111.865
0
LINE
8
BLACK
6
CONTINUOUS
10
133.063
20
-111.865
11
133.062
21
-111.865
0
LINE
8
BLACK
6
CONTINUOUS
10
133.062
20
-111.865
11
133.062
21
-111.865
0
LINE
8
BLACK
6
CONTINUOUS
10
133.062
20
-111.865
11
133.05
21
-111.866
0
LINE
8
BLACK
6
CONTINUOUS
10
133.05
20
-111.866
11
133.038
21
-111.868
0
LINE
8
BLACK
6
CONTINUOUS
10
133.038
20
-111.868
11
130.947
21
-111.868
0
LINE
8
BLACK
6
CONTINUOUS
10
130.947
20
-111.868
11
130.945
21
-111.868
0
LINE
8
BLACK
6
CONTINUOUS
10
130.945
20
-111.868
11
130.939
21
-111.867
0
LINE
8
BLACK
6
CONTINUOUS
10
130.939
20
-111.867
11
130.934
21
-111.867
0
LINE
8
BLACK
6
CONTINUOUS
10
130.934
20
-111.867
11
130.909
21
-111.865
0
LINE
8
BLACK
6
CONTINUOUS
10
130.909
20
-111.865
11
130.884
21
-111.867
0
LINE
8
BLACK
6
CONTINUOUS
10
130.884
20
-111.867
11
130.884
21
-111.867
0
LINE
8
BLACK
6
CONTINUOUS
10
130.884
20
-111.867
11
130.785
21
-111.877
0
LINE
8
BLACK
6
CONTINUOUS
10
130.785
20
-111.877
11
130.666
21
-111.913
0
LINE
8
BLACK
6
CONTINUOUS
10
130.666
20
-111.913
11
130.556
21
-111.972
0
LINE
8
BLACK
6
CONTINUOUS
10
130.556
20
-111.972
11
130.523
21
-111.999
0
LINE
8
BLACK
6
CONTINUOUS
10
130.523
20
-111.999
11
130.523
21
-111.999
0
LINE
8
BLACK
6
CONTINUOUS
10
130.523
20
-111.999
11
130.459
21
-112.051
0
LINE
8
BLACK
6
CONTINUOUS
10
130.459
20
-112.051
11
130.444
21
-112.07
0
LINE
8
BLACK
6
CONTINUOUS
10
130.444
20
-112.07
11
130.442
21
-112.072
0
LINE
8
BLACK
6
CONTINUOUS
10
130.442
20
-112.072
11
130.439
21
-112.075
0
LINE
8
BLACK
6
CONTINUOUS
10
130.439
20
-112.075
11
130.435
21
-112.079
0
LINE
8
BLACK
6
CONTINUOUS
10
130.435
20
-112.079
11
130.058
21
-112.457
0
LINE
8
BLACK
6
CONTINUOUS
10
130.058
20
-112.457
11
130.058
21
-116.917
0
LINE
8
BLACK
6
CONTINUOUS
10
130.058
20
-116.917
11
130.183
21
-117.042
0
LINE
8
BLACK
6
CONTINUOUS
10
130.183
20
-117.042
11
130.183
21
-117.042
0
LINE
8
BLACK
6
CONTINUOUS
10
130.183
20
-117.042
11
130.183
21
-117.042
0
LINE
8
BLACK
6
CONTINUOUS
10
130.183
20
-117.042
11
130.183
21
-117.042
0
LINE
8
BLACK
6
CONTINUOUS
10
130.183
20
-117.042
11
130.184
21
-117.043
0
LINE
8
BLACK
6
CONTINUOUS
10
130.184
20
-117.043
11
130.191
21
-117.052
0
LINE
8
BLACK
6
CONTINUOUS
10
130.191
20
-117.052
11
130.199
21
-117.062
0
LINE
8
BLACK
6
CONTINUOUS
10
130.199
20
-117.062
11
130.199
21
-117.062
0
LINE
8
BLACK
6
CONTINUOUS
10
130.199
20
-117.062
11
130.2
21
-117.063
0
LINE
8
BLACK
6
CONTINUOUS
10
130.2
20
-117.063
11
130.205
21
-117.073
0
LINE
8
BLACK
6
CONTINUOUS
10
130.205
20
-117.073
11
130.21
21
-117.083
0
LINE
8
BLACK
6
CONTINUOUS
10
130.21
20
-117.083
11
130.211
21
-117.084
0
LINE
8
BLACK
6
CONTINUOUS
10
130.211
20
-117.084
11
130.211
21
-117.085
0
LINE
8
BLACK
6
CONTINUOUS
10
130.211
20
-117.085
11
130.214
21
-117.096
0
LINE
8
BLACK
6
CONTINUOUS
10
130.214
20
-117.096
11
130.218
21
-117.107
0
LINE
8
BLACK
6
CONTINUOUS
10
130.218
20
-117.107
11
130.218
21
-117.108
0
LINE
8
BLACK
6
CONTINUOUS
10
130.218
20
-117.108
11
130.218
21
-117.108
0
LINE
8
BLACK
6
CONTINUOUS
10
130.218
20
-117.108
11
130.219
21
-117.12
0
LINE
8
BLACK
6
CONTINUOUS
10
130.219
20
-117.12
11
130.22
21
-117.132
0
LINE
8
BLACK
6
CONTINUOUS
10
130.22
20
-117.132
11
130.22
21
-117.277
0
LINE
8
BLACK
6
CONTINUOUS
10
130.22
20
-117.277
11
130.973
21
-118.031
0
LINE
8
BLACK
6
CONTINUOUS
10
130.973
20
-118.031
11
130.991
21
-118.019
0
LINE
8
BLACK
6
CONTINUOUS
10
130.991
20
-118.019
11
131.082
21
-117.981
0
LINE
8
BLACK
6
CONTINUOUS
10
131.082
20
-117.981
11
131.179
21
-117.962
0
LINE
8
BLACK
6
CONTINUOUS
10
131.179
20
-117.962
11
131.277
21
-117.962
0
LINE
8
BLACK
6
CONTINUOUS
10
131.277
20
-117.962
11
131.374
21
-117.981
0
LINE
8
BLACK
6
CONTINUOUS
10
131.374
20
-117.981
11
131.465
21
-118.019
0
LINE
8
BLACK
6
CONTINUOUS
10
131.465
20
-118.019
11
131.547
21
-118.074
0
LINE
8
BLACK
6
CONTINUOUS
10
131.547
20
-118.074
11
131.616
21
-118.143
0
LINE
8
BLACK
6
CONTINUOUS
10
131.616
20
-118.143
11
131.671
21
-118.225
0
LINE
8
BLACK
6
CONTINUOUS
10
131.671
20
-118.225
11
131.709
21
-118.316
0
LINE
8
BLACK
6
CONTINUOUS
10
131.709
20
-118.316
11
131.728
21
-118.413
0
LINE
8
BLACK
6
CONTINUOUS
10
131.728
20
-118.413
11
131.728
21
-118.511
0
LINE
8
BLACK
6
CONTINUOUS
10
131.728
20
-118.511
11
131.709
21
-118.608
0
LINE
8
BLACK
6
CONTINUOUS
10
131.709
20
-118.608
11
131.671
21
-118.699
0
LINE
8
BLACK
6
CONTINUOUS
10
131.671
20
-118.699
11
131.616
21
-118.781
0
LINE
8
BLACK
6
CONTINUOUS
10
131.616
20
-118.781
11
131.575
21
-118.822
0
LINE
8
BLACK
6
CONTINUOUS
10
131.575
20
-118.822
11
131.915
21
-119.162
0
LINE
8
BLACK
6
CONTINUOUS
10
131.915
20
-119.162
11
133.467
21
-119.162
0
LINE
8
BLACK
6
CONTINUOUS
10
133.467
20
-119.162
11
133.47
21
-119.157
0
LINE
8
BLACK
6
CONTINUOUS
10
133.47
20
-119.157
11
133.499
21
-119.062
0
LINE
8
BLACK
6
CONTINUOUS
10
133.499
20
-119.062
11
133.509
21
-118.956
0
LINE
8
BLACK
6
CONTINUOUS
10
133.509
20
-118.956
11
133.509
21
-117.968
0
LINE
8
BLACK
6
CONTINUOUS
10
133.509
20
-117.968
11
133.499
21
-117.862
0
LINE
8
BLACK
6
CONTINUOUS
10
130.45
20
-117.862
11
130.451
21
-117.864
0
LINE
8
BLACK
6
CONTINUOUS
10
130.451
20
-117.864
11
130.451
21
-117.875
0
LINE
8
BLACK
6
CONTINUOUS
10
130.451
20
-117.875
11
130.452
21
-117.885
0
LINE
8
BLACK
6
CONTINUOUS
10
130.452
20
-117.885
11
130.452
21
-117.887
0
LINE
8
BLACK
6
CONTINUOUS
10
130.452
20
-117.887
11
130.452
21
-117.889
0
LINE
8
BLACK
6
CONTINUOUS
10
130.452
20
-117.889
11
130.451
21
-117.9
0
LINE
8
BLACK
6
CONTINUOUS
10
130.451
20
-117.9
11
130.45
21
-117.91
0
LINE
8
BLACK
6
CONTINUOUS
10
130.45
20
-117.91
11
130.449
21
-117.912
0
LINE
8
BLACK
6
CONTINUOUS
10
130.449
20
-117.912
11
130.449
21
-117.913
0
LINE
8
BLACK
6
CONTINUOUS
10
130.449
20
-117.913
11
130.445
21
-117.924
0
LINE
8
BLACK
6
CONTINUOUS
10
130.445
20
-117.924
11
130.442
21
-117.934
0
LINE
8
BLACK
6
CONTINUOUS
10
130.442
20
-117.934
11
130.441
21
-117.935
0
LINE
8
BLACK
6
CONTINUOUS
10
130.441
20
-117.935
11
130.441
21
-117.937
0
LINE
8
BLACK
6
CONTINUOUS
10
130.441
20
-117.937
11
130.435
21
-117.946
0
LINE
8
BLACK
6
CONTINUOUS
10
130.435
20
-117.946
11
130.43
21
-117.955
0
LINE
8
BLACK
6
CONTINUOUS
10
130.43
20
-117.955
11
130.429
21
-117.957
0
LINE
8
BLACK
6
CONTINUOUS
10
130.429
20
-117.957
11
130.428
21
-117.958
0
LINE
8
BLACK
6
CONTINUOUS
10
130.428
20
-117.958
11
130.421
21
-117.966
0
LINE
8
BLACK
6
CONTINUOUS
10
130.421
20
-117.966
11
130.414
21
-117.974
0
LINE
8
BLACK
6
CONTINUOUS
10
130.414
20
-117.974
11
130.413
21
-117.976
0
LINE
8
BLACK
6
CONTINUOUS
10
130.413
20
-117.976
11
130.412
21
-117.977
0
LINE
8
BLACK
6
CONTINUOUS
10
130.412
20
-117.977
11
130.403
21
-117.983
0
LINE
8
BLACK
6
CONTINUOUS
10
130.403
20
-117.983
11
130.395
21
-117.99
0
LINE
8
BLACK
6
CONTINUOUS
10
130.395
20
-117.99
11
130.394
21
-117.991
0
LINE
8
BLACK
6
CONTINUOUS
10
130.394
20
-117.991
11
130.392
21
-117.992
0
LINE
8
BLACK
6
CONTINUOUS
10
130.392
20
-117.992
11
130.383
21
-117.997
0
LINE
8
BLACK
6
CONTINUOUS
10
130.383
20
-117.997
11
130.373
21
-118.002
0
LINE
8
BLACK
6
CONTINUOUS
10
130.373
20
-118.002
11
130.371
21
-118.002
0
LINE
8
BLACK
6
CONTINUOUS
10
130.371
20
-118.002
11
130.37
21
-118.003
0
LINE
8
BLACK
6
CONTINUOUS
10
130.37
20
-118.003
11
130.36
21
-118.006
0
LINE
8
BLACK
6
CONTINUOUS
10
130.36
20
-118.006
11
130.349
21
-118.009
0
LINE
8
BLACK
6
CONTINUOUS
10
130.349
20
-118.009
11
130.348
21
-118.009
0
LINE
8
BLACK
6
CONTINUOUS
10
130.348
20
-118.009
11
130.346
21
-118.009
0
LINE
8
BLACK
6
CONTINUOUS
10
130.346
20
-118.009
11
130.325
21
-118.013
0
LINE
8
BLACK
6
CONTINUOUS
10
130.325
20
-118.013
11
130.267
21
-118.143
0
LINE
8
BLACK
6
CONTINUOUS
10
130.267
20
-118.143
11
130.223
21
-118.337
0
LINE
8
BLACK
6
CONTINUOUS
10
130.223
20
-118.337
11
130.218
21
-118.535
0
LINE
8
BLACK
6
CONTINUOUS
10
130.218
20
-118.535
11
130.251
21
-118.731
0
LINE
8
BLACK
6
CONTINUOUS
10
130.251
20
-118.731
11
130.321
21
-118.911
0
LINE
8
BLACK
6
CONTINUOUS
10
130.321
20
-118.911
11
130.406
21
-118.925
0
LINE
8
BLACK
6
CONTINUOUS
10
130.406
20
-118.925
11
130.743
21
-118.588
0
LINE
8
BLACK
6
CONTINUOUS
10
130.743
20
-118.588
11
130.728
21
-118.511
0
LINE
8
BLACK
6
CONTINUOUS
10
130.728
20
-118.511
11
130.728
21
-118.413
0
LINE
8
BLACK
6
CONTINUOUS
10
130.728
20
-118.413
11
130.747
21
-118.316
0
LINE
8
BLACK
6
CONTINUOUS
10
130.747
20
-118.316
11
130.785
21
-118.225
0
LINE
8
BLACK
6
CONTINUOUS
10
130.785
20
-118.225
11
130.797
21
-118.207
0
LINE
8
BLACK
6
CONTINUOUS
10
130.797
20
-118.207
11
130.45
21
-117.861
0
LINE
8
BLACK
6
CONTINUOUS
10
130.45
20
-117.861
11
130.45
21
-117.862
0
LINE
8
BLACK
6
CONTINUOUS
10
129.779
20
-112.883
11
129.769
21
-112.982
0
LINE
8
BLACK
6
CONTINUOUS
10
129.769
20
-112.982
11
129.769
21
-112.982
0
LINE
8
BLACK
6
CONTINUOUS
10
129.769
20
-112.982
11
129.766
21
-113.007
0
LINE
8
BLACK
6
CONTINUOUS
10
129.766
20
-113.007
11
129.769
21
-113.032
0
LINE
8
BLACK
6
CONTINUOUS
10
129.769
20
-113.032
11
129.769
21
-113.034
0
LINE
8
BLACK
6
CONTINUOUS
10
129.769
20
-113.034
11
129.769
21
-113.039
0
LINE
8
BLACK
6
CONTINUOUS
10
129.769
20
-113.039
11
129.769
21
-113.045
0
LINE
8
BLACK
6
CONTINUOUS
10
129.769
20
-113.045
11
129.77
21
-116.329
0
LINE
8
BLACK
6
CONTINUOUS
10
129.77
20
-116.329
11
129.769
21
-116.331
0
LINE
8
BLACK
6
CONTINUOUS
10
129.769
20
-116.331
11
129.769
21
-116.336
0
LINE
8
BLACK
6
CONTINUOUS
10
129.769
20
-116.336
11
129.769
21
-116.342
0
LINE
8
BLACK
6
CONTINUOUS
10
129.769
20
-116.342
11
129.766
21
-116.366
0
LINE
8
BLACK
6
CONTINUOUS
10
129.766
20
-116.366
11
129.779
21
-116.491
0
LINE
8
BLACK
6
CONTINUOUS
10
129.779
20
-116.491
11
129.808
21
-116.586
0
LINE
8
BLACK
6
CONTINUOUS
10
129.808
20
-116.586
11
129.808
21
-112.788
0
LINE
8
BLACK
6
CONTINUOUS
10
129.808
20
-112.788
11
129.779
21
-112.883
0
LINE
8
BLACK
6
CONTINUOUS
10
135.209
20
-92.596
11
135.034
21
-92.6309
0
LINE
8
BLACK
6
CONTINUOUS
10
135.034
20
-92.6309
11
134.868
21
-92.6993
0
LINE
8
BLACK
6
CONTINUOUS
10
134.868
20
-92.6993
11
134.72
21
-92.7987
0
LINE
8
BLACK
6
CONTINUOUS
10
134.72
20
-92.7987
11
134.593
21
-92.9252
0
LINE
8
BLACK
6
CONTINUOUS
10
134.593
20
-92.9252
11
134.494
21
-93.0739
0
LINE
8
BLACK
6
CONTINUOUS
10
134.494
20
-93.0739
11
134.425
21
-93.2391
0
LINE
8
BLACK
6
CONTINUOUS
10
134.425
20
-93.2391
11
134.391
21
-93.4146
0
LINE
8
BLACK
6
CONTINUOUS
10
134.391
20
-93.4146
11
134.391
21
-93.5934
0
LINE
8
BLACK
6
CONTINUOUS
10
134.391
20
-93.5934
11
134.425
21
-93.7689
0
LINE
8
BLACK
6
CONTINUOUS
10
134.425
20
-93.7689
11
134.494
21
-93.9341
0
LINE
8
BLACK
6
CONTINUOUS
10
134.494
20
-93.9341
11
134.593
21
-94.0828
0
LINE
8
BLACK
6
CONTINUOUS
10
134.593
20
-94.0828
11
134.628
21
-94.1179
0
LINE
8
BLACK
6
CONTINUOUS
10
134.628
20
-94.1179
11
134.629
21
-94.1182
0
LINE
8
BLACK
6
CONTINUOUS
10
134.629
20
-94.1182
11
134.629
21
-94.1182
0
LINE
8
BLACK
6
CONTINUOUS
10
134.629
20
-94.1182
11
134.629
21
-94.1182
0
LINE
8
BLACK
6
CONTINUOUS
10
134.629
20
-94.1182
11
134.63
21
-94.1192
0
LINE
8
BLACK
6
CONTINUOUS
10
134.63
20
-94.1192
11
134.637
21
-94.1284
0
LINE
8
BLACK
6
CONTINUOUS
10
134.637
20
-94.1284
11
134.644
21
-94.1374
0
LINE
8
BLACK
6
CONTINUOUS
10
134.644
20
-94.1374
11
134.645
21
-94.138
0
LINE
8
BLACK
6
CONTINUOUS
10
134.645
20
-94.138
11
134.645
21
-94.1385
0
LINE
8
BLACK
6
CONTINUOUS
10
134.645
20
-94.1385
11
134.651
21
-94.149
0
LINE
8
BLACK
6
CONTINUOUS
10
134.651
20
-94.149
11
134.656
21
-94.1593
0
LINE
8
BLACK
6
CONTINUOUS
10
134.656
20
-94.1593
11
134.656
21
-94.16
0
LINE
8
BLACK
6
CONTINUOUS
10
134.656
20
-94.16
11
134.657
21
-94.1605
0
LINE
8
BLACK
6
CONTINUOUS
10
134.657
20
-94.1605
11
134.66
21
-94.1718
0
LINE
8
BLACK
6
CONTINUOUS
10
134.66
20
-94.1718
11
134.663
21
-94.183
0
LINE
8
BLACK
6
CONTINUOUS
10
134.663
20
-94.183
11
134.663
21
-94.1837
0
LINE
8
BLACK
6
CONTINUOUS
10
134.663
20
-94.1837
11
134.663
21
-94.1843
0
LINE
8
BLACK
6
CONTINUOUS
10
134.663
20
-94.1843
11
134.664
21
-94.196
0
LINE
8
BLACK
6
CONTINUOUS
10
134.664
20
-94.196
11
134.666
21
-94.2077
0
LINE
8
BLACK
6
CONTINUOUS
10
134.666
20
-94.2077
11
134.666
21
-96.006
0
LINE
8
BLACK
6
CONTINUOUS
10
134.666
20
-96.006
11
134.666
21
-96.0077
0
LINE
8
BLACK
6
CONTINUOUS
10
134.666
20
-96.0077
11
134.665
21
-96.0131
0
LINE
8
BLACK
6
CONTINUOUS
10
134.665
20
-96.0131
11
134.665
21
-96.0184
0
LINE
8
BLACK
6
CONTINUOUS
10
134.665
20
-96.0184
11
134.663
21
-96.0433
0
LINE
8
BLACK
6
CONTINUOUS
10
134.663
20
-96.0433
11
134.675
21
-96.1674
0
LINE
8
BLACK
6
CONTINUOUS
10
134.675
20
-96.1674
11
134.711
21
-96.2867
0
LINE
8
BLACK
6
CONTINUOUS
10
134.711
20
-96.2867
11
134.77
21
-96.3967
0
LINE
8
BLACK
6
CONTINUOUS
10
134.77
20
-96.3967
11
134.833
21
-96.4737
0
LINE
8
BLACK
6
CONTINUOUS
10
134.833
20
-96.4737
11
134.833
21
-96.4738
0
LINE
8
BLACK
6
CONTINUOUS
10
134.833
20
-96.4738
11
134.849
21
-96.4931
0
LINE
8
BLACK
6
CONTINUOUS
10
134.849
20
-96.4931
11
134.868
21
-96.5089
0
LINE
8
BLACK
6
CONTINUOUS
10
134.868
20
-96.5089
11
134.87
21
-96.5101
0
LINE
8
BLACK
6
CONTINUOUS
10
134.87
20
-96.5101
11
134.873
21
-96.5139
0
LINE
8
BLACK
6
CONTINUOUS
10
134.873
20
-96.5139
11
134.877
21
-96.5173
0
LINE
8
BLACK
6
CONTINUOUS
10
134.877
20
-96.5173
11
147.215
21
-108.855
0
LINE
8
BLACK
6
CONTINUOUS
10
147.215
20
-108.855
11
147.215
21
-108.855
0
LINE
8
BLACK
6
CONTINUOUS
10
147.215
20
-108.855
11
147.215
21
-108.855
0
LINE
8
BLACK
6
CONTINUOUS
10
147.215
20
-108.855
11
147.215
21
-108.855
0
LINE
8
BLACK
6
CONTINUOUS
10
147.215
20
-108.855
11
147.216
21
-108.856
0
LINE
8
BLACK
6
CONTINUOUS
10
147.216
20
-108.856
11
147.223
21
-108.865
0
LINE
8
BLACK
6
CONTINUOUS
10
147.223
20
-108.865
11
147.231
21
-108.874
0
LINE
8
BLACK
6
CONTINUOUS
10
147.231
20
-108.874
11
147.231
21
-108.875
0
LINE
8
BLACK
6
CONTINUOUS
10
147.231
20
-108.875
11
147.231
21
-108.875
0
LINE
8
BLACK
6
CONTINUOUS
10
147.231
20
-108.875
11
147.237
21
-108.886
0
LINE
8
BLACK
6
CONTINUOUS
10
147.237
20
-108.886
11
147.242
21
-108.896
0
LINE
8
BLACK
6
CONTINUOUS
10
147.242
20
-108.896
11
147.242
21
-108.897
0
LINE
8
BLACK
6
CONTINUOUS
10
147.242
20
-108.897
11
147.243
21
-108.897
0
LINE
8
BLACK
6
CONTINUOUS
10
147.243
20
-108.897
11
147.246
21
-108.908
0
LINE
8
BLACK
6
CONTINUOUS
10
147.246
20
-108.908
11
147.249
21
-108.92
0
LINE
8
BLACK
6
CONTINUOUS
10
147.249
20
-108.92
11
147.249
21
-108.92
0
LINE
8
BLACK
6
CONTINUOUS
10
147.249
20
-108.92
11
147.25
21
-108.921
0
LINE
8
BLACK
6
CONTINUOUS
10
147.25
20
-108.921
11
147.251
21
-108.933
0
LINE
8
BLACK
6
CONTINUOUS
10
147.251
20
-108.933
11
147.252
21
-108.944
0
LINE
8
BLACK
6
CONTINUOUS
10
147.252
20
-108.944
11
147.252
21
-108.994
0
LINE
8
BLACK
6
CONTINUOUS
10
147.252
20
-108.994
11
147.287
21
-109.169
0
LINE
8
BLACK
6
CONTINUOUS
10
147.287
20
-109.169
11
147.355
21
-109.335
0
LINE
8
BLACK
6
CONTINUOUS
10
147.355
20
-109.335
11
147.455
21
-109.483
0
LINE
8
BLACK
6
CONTINUOUS
10
147.455
20
-109.483
11
147.581
21
-109.61
0
LINE
8
BLACK
6
CONTINUOUS
10
147.581
20
-109.61
11
147.73
21
-109.709
0
LINE
8
BLACK
6
CONTINUOUS
10
147.73
20
-109.709
11
147.895
21
-109.778
0
LINE
8
BLACK
6
CONTINUOUS
10
147.895
20
-109.778
11
148.07
21
-109.812
0
LINE
8
BLACK
6
CONTINUOUS
10
148.07
20
-109.812
11
148.106
21
-109.812
0
LINE
8
BLACK
6
CONTINUOUS
10
148.106
20
-109.812
11
149.068
21
-108.851
0
LINE
8
BLACK
6
CONTINUOUS
10
149.068
20
-108.851
11
149.068
21
-108.815
0
LINE
8
BLACK
6
CONTINUOUS
10
149.068
20
-108.815
11
149.033
21
-108.64
0
LINE
8
BLACK
6
CONTINUOUS
10
149.033
20
-108.64
11
148.964
21
-108.474
0
LINE
8
BLACK
6
CONTINUOUS
10
148.964
20
-108.474
11
148.865
21
-108.326
0
LINE
8
BLACK
6
CONTINUOUS
10
148.865
20
-108.326
11
148.739
21
-108.199
0
LINE
8
BLACK
6
CONTINUOUS
10
148.739
20
-108.199
11
148.59
21
-108.1
0
LINE
8
BLACK
6
CONTINUOUS
10
148.59
20
-108.1
11
148.425
21
-108.031
0
LINE
8
BLACK
6
CONTINUOUS
10
148.425
20
-108.031
11
148.249
21
-107.996
0
LINE
8
BLACK
6
CONTINUOUS
10
148.249
20
-107.996
11
148.2
21
-107.996
0
LINE
8
BLACK
6
CONTINUOUS
10
148.2
20
-107.996
11
148.199
21
-107.996
0
LINE
8
BLACK
6
CONTINUOUS
10
148.199
20
-107.996
11
148.199
21
-107.996
0
LINE
8
BLACK
6
CONTINUOUS
10
148.199
20
-107.996
11
148.199
21
-107.996
0
LINE
8
BLACK
6
CONTINUOUS
10
148.199
20
-107.996
11
148.198
21
-107.996
0
LINE
8
BLACK
6
CONTINUOUS
10
148.198
20
-107.996
11
148.186
21
-107.995
0
LINE
8
BLACK
6
CONTINUOUS
10
148.186
20
-107.995
11
148.175
21
-107.994
0
LINE
8
BLACK
6
CONTINUOUS
10
148.175
20
-107.994
11
148.174
21
-107.994
0
LINE
8
BLACK
6
CONTINUOUS
10
148.174
20
-107.994
11
148.173
21
-107.994
0
LINE
8
BLACK
6
CONTINUOUS
10
148.173
20
-107.994
11
148.162
21
-107.99
0
LINE
8
BLACK
6
CONTINUOUS
10
148.162
20
-107.99
11
148.151
21
-107.987
0
LINE
8
BLACK
6
CONTINUOUS
10
148.151
20
-107.987
11
148.15
21
-107.986
0
LINE
8
BLACK
6
CONTINUOUS
10
148.15
20
-107.986
11
148.15
21
-107.986
0
LINE
8
BLACK
6
CONTINUOUS
10
148.15
20
-107.986
11
148.139
21
-107.981
0
LINE
8
BLACK
6
CONTINUOUS
10
148.139
20
-107.981
11
148.129
21
-107.975
0
LINE
8
BLACK
6
CONTINUOUS
10
148.129
20
-107.975
11
148.128
21
-107.975
0
LINE
8
BLACK
6
CONTINUOUS
10
148.128
20
-107.975
11
148.128
21
-107.974
0
LINE
8
BLACK
6
CONTINUOUS
10
148.128
20
-107.974
11
148.119
21
-107.967
0
LINE
8
BLACK
6
CONTINUOUS
10
148.119
20
-107.967
11
148.11
21
-107.959
0
LINE
8
BLACK
6
CONTINUOUS
10
148.11
20
-107.959
11
135.969
21
-95.8183
0
LINE
8
BLACK
6
CONTINUOUS
10
135.969
20
-95.8183
11
135.968
21
-95.818
0
LINE
8
BLACK
6
CONTINUOUS
10
135.968
20
-95.818
11
135.968
21
-95.818
0
LINE
8
BLACK
6
CONTINUOUS
10
135.968
20
-95.818
11
135.968
21
-95.818
0
LINE
8
BLACK
6
CONTINUOUS
10
135.968
20
-95.818
11
135.968
21
-95.817
0
LINE
8
BLACK
6
CONTINUOUS
10
135.968
20
-95.817
11
135.96
21
-95.8079
0
LINE
8
BLACK
6
CONTINUOUS
10
135.96
20
-95.8079
11
135.953
21
-95.7988
0
LINE
8
BLACK
6
CONTINUOUS
10
135.953
20
-95.7988
11
135.953
21
-95.7982
0
LINE
8
BLACK
6
CONTINUOUS
10
135.953
20
-95.7982
11
135.952
21
-95.7977
0
LINE
8
BLACK
6
CONTINUOUS
10
135.952
20
-95.7977
11
135.947
21
-95.7873
0
LINE
8
BLACK
6
CONTINUOUS
10
135.947
20
-95.7873
11
135.941
21
-95.7769
0
LINE
8
BLACK
6
CONTINUOUS
10
135.941
20
-95.7769
11
135.941
21
-95.7763
0
LINE
8
BLACK
6
CONTINUOUS
10
135.941
20
-95.7763
11
135.941
21
-95.7757
0
LINE
8
BLACK
6
CONTINUOUS
10
135.941
20
-95.7757
11
135.937
21
-95.7644
0
LINE
8
BLACK
6
CONTINUOUS
10
135.937
20
-95.7644
11
135.934
21
-95.7532
0
LINE
8
BLACK
6
CONTINUOUS
10
135.934
20
-95.7532
11
135.934
21
-95.7525
0
LINE
8
BLACK
6
CONTINUOUS
10
135.934
20
-95.7525
11
135.934
21
-95.7519
0
LINE
8
BLACK
6
CONTINUOUS
10
135.934
20
-95.7519
11
135.933
21
-95.7402
0
LINE
8
BLACK
6
CONTINUOUS
10
135.933
20
-95.7402
11
135.932
21
-95.7285
0
LINE
8
BLACK
6
CONTINUOUS
10
135.932
20
-95.7285
11
135.932
21
-94.2077
0
LINE
8
BLACK
6
CONTINUOUS
10
135.932
20
-94.2077
11
135.932
21
-94.2073
0
LINE
8
BLACK
6
CONTINUOUS
10
135.932
20
-94.2073
11
135.932
21
-94.2073
0
LINE
8
BLACK
6
CONTINUOUS
10
135.932
20
-94.2073
11
135.932
21
-94.2072
0
LINE
8
BLACK
6
CONTINUOUS
10
135.932
20
-94.2072
11
135.932
21
-94.2059
0
LINE
8
BLACK
6
CONTINUOUS
10
135.932
20
-94.2059
11
135.933
21
-94.1943
0
LINE
8
BLACK
6
CONTINUOUS
10
135.933
20
-94.1943
11
135.934
21
-94.1826
0
LINE
8
BLACK
6
CONTINUOUS
10
135.934
20
-94.1826
11
135.934
21
-94.182
0
LINE
8
BLACK
6
CONTINUOUS
10
135.934
20
-94.182
11
135.934
21
-94.1813
0
LINE
8
BLACK
6
CONTINUOUS
10
135.934
20
-94.1813
11
135.938
21
-94.1701
0
LINE
8
BLACK
6
CONTINUOUS
10
135.938
20
-94.1701
11
135.941
21
-94.1589
0
LINE
8
BLACK
6
CONTINUOUS
10
135.941
20
-94.1589
11
135.942
21
-94.1583
0
LINE
8
BLACK
6
CONTINUOUS
10
135.942
20
-94.1583
11
135.942
21
-94.1577
0
LINE
8
BLACK
6
CONTINUOUS
10
135.942
20
-94.1577
11
135.948
21
-94.1474
0
LINE
8
BLACK
6
CONTINUOUS
10
135.948
20
-94.1474
11
135.953
21
-94.1371
0
LINE
8
BLACK
6
CONTINUOUS
10
135.953
20
-94.1371
11
135.953
21
-94.1365
0
LINE
8
BLACK
6
CONTINUOUS
10
135.953
20
-94.1365
11
135.954
21
-94.136
0
LINE
8
BLACK
6
CONTINUOUS
10
135.954
20
-94.136
11
135.961
21
-94.127
0
LINE
8
BLACK
6
CONTINUOUS
10
135.961
20
-94.127
11
135.969
21
-94.1179
0
LINE
8
BLACK
6
CONTINUOUS
10
135.969
20
-94.1179
11
136.004
21
-94.0828
0
LINE
8
BLACK
6
CONTINUOUS
10
136.004
20
-94.0828
11
136.103
21
-93.9341
0
LINE
8
BLACK
6
CONTINUOUS
10
136.103
20
-93.9341
11
136.172
21
-93.7689
0
LINE
8
BLACK
6
CONTINUOUS
10
136.172
20
-93.7689
11
136.207
21
-93.5934
0
LINE
8
BLACK
6
CONTINUOUS
10
136.207
20
-93.5934
11
136.207
21
-93.4146
0
LINE
8
BLACK
6
CONTINUOUS
10
136.207
20
-93.4146
11
136.172
21
-93.2391
0
LINE
8
BLACK
6
CONTINUOUS
10
136.172
20
-93.2391
11
136.103
21
-93.0739
0
LINE
8
BLACK
6
CONTINUOUS
10
136.103
20
-93.0739
11
136.004
21
-92.9252
0
LINE
8
BLACK
6
CONTINUOUS
10
136.004
20
-92.9252
11
135.877
21
-92.7987
0
LINE
8
BLACK
6
CONTINUOUS
10
135.877
20
-92.7987
11
135.729
21
-92.6993
0
LINE
8
BLACK
6
CONTINUOUS
10
135.729
20
-92.6993
11
135.563
21
-92.6309
0
LINE
8
BLACK
6
CONTINUOUS
10
135.563
20
-92.6309
11
135.388
21
-92.596
0
LINE
8
BLACK
6
CONTINUOUS
10
135.388
20
-92.596
11
135.209
21
-92.596
0
LINE
8
BLACK
6
CONTINUOUS
10
148.543
20
-109.728
11
148.59
21
-109.709
0
LINE
8
BLACK
6
CONTINUOUS
10
148.59
20
-109.709
11
148.739
21
-109.61
0
LINE
8
BLACK
6
CONTINUOUS
10
148.739
20
-109.61
11
148.865
21
-109.483
0
LINE
8
BLACK
6
CONTINUOUS
10
148.865
20
-109.483
11
148.964
21
-109.335
0
LINE
8
BLACK
6
CONTINUOUS
10
148.964
20
-109.335
11
148.984
21
-109.288
0
LINE
8
BLACK
6
CONTINUOUS
10
148.984
20
-109.288
11
148.543
21
-109.728
0
LINE
8
BLACK
6
CONTINUOUS
10
132.016
20
-107.794
11
131.955
21
-107.91
0
LINE
8
BLACK
6
CONTINUOUS
10
131.955
20
-107.91
11
131.982
21
-107.998
0
LINE
8
BLACK
6
CONTINUOUS
10
131.982
20
-107.998
11
132.098
21
-108.241
0
LINE
8
BLACK
6
CONTINUOUS
10
132.098
20
-108.241
11
132.257
21
-108.454
0
LINE
8
BLACK
6
CONTINUOUS
10
132.257
20
-108.454
11
132.454
21
-108.632
0
LINE
8
BLACK
6
CONTINUOUS
10
132.454
20
-108.632
11
132.683
21
-108.769
0
LINE
8
BLACK
6
CONTINUOUS
10
132.683
20
-108.769
11
132.893
21
-108.843
0
LINE
8
BLACK
6
CONTINUOUS
10
132.893
20
-108.843
11
133.006
21
-108.784
0
LINE
8
BLACK
6
CONTINUOUS
10
133.006
20
-108.784
11
133.006
21
-108.351
0
LINE
8
BLACK
6
CONTINUOUS
10
133.006
20
-108.351
11
132.933
21
-108.329
0
LINE
8
BLACK
6
CONTINUOUS
10
132.933
20
-108.329
11
132.785
21
-108.25
0
LINE
8
BLACK
6
CONTINUOUS
10
132.785
20
-108.25
11
132.656
21
-108.144
0
LINE
8
BLACK
6
CONTINUOUS
10
132.656
20
-108.144
11
132.55
21
-108.015
0
LINE
8
BLACK
6
CONTINUOUS
10
132.55
20
-108.015
11
132.471
21
-107.867
0
LINE
8
BLACK
6
CONTINUOUS
10
132.471
20
-107.867
11
132.449
21
-107.794
0
LINE
8
BLACK
6
CONTINUOUS
10
132.449
20
-107.794
11
132.016
21
-107.794
0
LINE
8
BLACK
6
CONTINUOUS
10
143.668
20
-123.409
11
143.781
21
-123.443
0
LINE
8
BLACK
6
CONTINUOUS
10
143.781
20
-123.443
11
143.885
21
-123.499
0
LINE
8
BLACK
6
CONTINUOUS
10
143.885
20
-123.499
11
143.976
21
-123.574
0
LINE
8
BLACK
6
CONTINUOUS
10
143.976
20
-123.574
11
144.051
21
-123.665
0
LINE
8
BLACK
6
CONTINUOUS
10
144.051
20
-123.665
11
144.107
21
-123.769
0
LINE
8
BLACK
6
CONTINUOUS
10
144.107
20
-123.769
11
144.141
21
-123.882
0
LINE
8
BLACK
6
CONTINUOUS
10
144.141
20
-123.882
11
144.15
21
-123.971
0
LINE
8
BLACK
6
CONTINUOUS
10
144.15
20
-123.971
11
144.15
21
-124.929
0
LINE
8
BLACK
6
CONTINUOUS
10
144.15
20
-124.929
11
144.141
21
-125.018
0
LINE
8
BLACK
6
CONTINUOUS
10
144.141
20
-125.018
11
144.107
21
-125.131
0
LINE
8
BLACK
6
CONTINUOUS
10
144.107
20
-125.131
11
144.051
21
-125.235
0
LINE
8
BLACK
6
CONTINUOUS
10
144.051
20
-125.235
11
143.976
21
-125.326
0
LINE
8
BLACK
6
CONTINUOUS
10
143.976
20
-125.326
11
143.885
21
-125.401
0
LINE
8
BLACK
6
CONTINUOUS
10
143.885
20
-125.401
11
143.781
21
-125.457
0
LINE
8
BLACK
6
CONTINUOUS
10
143.781
20
-125.457
11
143.668
21
-125.491
0
LINE
8
BLACK
6
CONTINUOUS
10
143.668
20
-125.491
11
143.55
21
-125.503
0
LINE
8
BLACK
6
CONTINUOUS
10
143.55
20
-125.503
11
143.432
21
-125.491
0
LINE
8
BLACK
6
CONTINUOUS
10
143.432
20
-125.491
11
143.319
21
-125.457
0
LINE
8
BLACK
6
CONTINUOUS
10
143.319
20
-125.457
11
143.215
21
-125.401
0
LINE
8
BLACK
6
CONTINUOUS
10
143.215
20
-125.401
11
143.124
21
-125.326
0
LINE
8
BLACK
6
CONTINUOUS
10
143.124
20
-125.326
11
143.049
21
-125.235
0
LINE
8
BLACK
6
CONTINUOUS
10
143.049
20
-125.235
11
142.993
21
-125.131
0
LINE
8
BLACK
6
CONTINUOUS
10
142.993
20
-125.131
11
142.959
21
-125.018
0
LINE
8
BLACK
6
CONTINUOUS
10
142.959
20
-125.018
11
142.95
21
-124.929
0
LINE
8
BLACK
6
CONTINUOUS
10
142.95
20
-124.929
11
142.95
21
-123.971
0
LINE
8
BLACK
6
CONTINUOUS
10
142.95
20
-123.971
11
142.959
21
-123.882
0
LINE
8
BLACK
6
CONTINUOUS
10
142.959
20
-123.882
11
142.993
21
-123.769
0
LINE
8
BLACK
6
CONTINUOUS
10
142.993
20
-123.769
11
143.049
21
-123.665
0
LINE
8
BLACK
6
CONTINUOUS
10
143.049
20
-123.665
11
143.124
21
-123.574
0
LINE
8
BLACK
6
CONTINUOUS
10
143.124
20
-123.574
11
143.215
21
-123.499
0
LINE
8
BLACK
6
CONTINUOUS
10
143.215
20
-123.499
11
143.319
21
-123.443
0
LINE
8
BLACK
6
CONTINUOUS
10
143.319
20
-123.443
11
143.432
21
-123.409
0
LINE
8
BLACK
6
CONTINUOUS
10
143.432
20
-123.409
11
143.55
21
-123.397
0
LINE
8
BLACK
6
CONTINUOUS
10
143.55
20
-123.397
11
143.668
21
-123.409
0
LINE
8
BLACK
6
CONTINUOUS
10
153.568
20
-123.409
11
153.681
21
-123.443
0
LINE
8
BLACK
6
CONTINUOUS
10
153.681
20
-123.443
11
153.785
21
-123.499
0
LINE
8
BLACK
6
CONTINUOUS
10
153.785
20
-123.499
11
153.876
21
-123.574
0
LINE
8
BLACK
6
CONTINUOUS
10
153.876
20
-123.574
11
153.951
21
-123.665
0
LINE
8
BLACK
6
CONTINUOUS
10
153.951
20
-123.665
11
154.007
21
-123.769
0
LINE
8
BLACK
6
CONTINUOUS
10
154.007
20
-123.769
11
154.041
21
-123.882
0
LINE
8
BLACK
6
CONTINUOUS
10
154.041
20
-123.882
11
154.05
21
-123.971
0
LINE
8
BLACK
6
CONTINUOUS
10
154.05
20
-123.971
11
154.05
21
-124.929
0
LINE
8
BLACK
6
CONTINUOUS
10
154.05
20
-124.929
11
154.041
21
-125.018
0
LINE
8
BLACK
6
CONTINUOUS
10
154.041
20
-125.018
11
154.007
21
-125.131
0
LINE
8
BLACK
6
CONTINUOUS
10
154.007
20
-125.131
11
153.951
21
-125.235
0
LINE
8
BLACK
6
CONTINUOUS
10
153.951
20
-125.235
11
153.876
21
-125.326
0
LINE
8
BLACK
6
CONTINUOUS
10
153.876
20
-125.326
11
153.785
21
-125.401
0
LINE
8
BLACK
6
CONTINUOUS
10
153.785
20
-125.401
11
153.681
21
-125.457
0
LINE
8
BLACK
6
CONTINUOUS
10
153.681
20
-125.457
11
153.568
21
-125.491
0
LINE
8
BLACK
6
CONTINUOUS
10
153.568
20
-125.491
11
153.45
21
-125.503
0
LINE
8
BLACK
6
CONTINUOUS
10
153.45
20
-125.503
11
153.332
21
-125.491
0
LINE
8
BLACK
6
CONTINUOUS
10
153.332
20
-125.491
11
153.219
21
-125.457
0
LINE
8
BLACK
6
CONTINUOUS
10
153.219
20
-125.457
11
153.115
21
-125.401
0
LINE
8
BLACK
6
CONTINUOUS
10
153.115
20
-125.401
11
153.024
21
-125.326
0
LINE
8
BLACK
6
CONTINUOUS
10
153.024
20
-125.326
11
152.949
21
-125.235
0
LINE
8
BLACK
6
CONTINUOUS
10
152.949
20
-125.235
11
152.893
21
-125.131
0
LINE
8
BLACK
6
CONTINUOUS
10
152.893
20
-125.131
11
152.859
21
-125.018
0
LINE
8
BLACK
6
CONTINUOUS
10
152.859
20
-125.018
11
152.85
21
-124.929
0
LINE
8
BLACK
6
CONTINUOUS
10
152.85
20
-124.929
11
152.85
21
-123.971
0
LINE
8
BLACK
6
CONTINUOUS
10
152.85
20
-123.971
11
152.859
21
-123.882
0
LINE
8
BLACK
6
CONTINUOUS
10
152.859
20
-123.882
11
152.893
21
-123.769
0
LINE
8
BLACK
6
CONTINUOUS
10
152.893
20
-123.769
11
152.949
21
-123.665
0
LINE
8
BLACK
6
CONTINUOUS
10
152.949
20
-123.665
11
153.024
21
-123.574
0
LINE
8
BLACK
6
CONTINUOUS
10
153.024
20
-123.574
11
153.115
21
-123.499
0
LINE
8
BLACK
6
CONTINUOUS
10
153.115
20
-123.499
11
153.219
21
-123.443
0
LINE
8
BLACK
6
CONTINUOUS
10
153.219
20
-123.443
11
153.332
21
-123.409
0
LINE
8
BLACK
6
CONTINUOUS
10
153.332
20
-123.409
11
153.45
21
-123.397
0
LINE
8
BLACK
6
CONTINUOUS
10
153.45
20
-123.397
11
153.568
21
-123.409
0
LINE
8
BLACK
6
CONTINUOUS
10
164.74
20
-117.133
11
164.967
21
-117.227
0
LINE
8
BLACK
6
CONTINUOUS
10
164.967
20
-117.227
11
165.172
21
-117.364
0
LINE
8
BLACK
6
CONTINUOUS
10
165.172
20
-117.364
11
165.346
21
-117.538
0
LINE
8
BLACK
6
CONTINUOUS
10
165.346
20
-117.538
11
165.483
21
-117.743
0
LINE
8
BLACK
6
CONTINUOUS
10
165.483
20
-117.743
11
165.577
21
-117.97
0
LINE
8
BLACK
6
CONTINUOUS
10
165.577
20
-117.97
11
165.625
21
-118.212
0
LINE
8
BLACK
6
CONTINUOUS
10
165.625
20
-118.212
11
165.625
21
-118.458
0
LINE
8
BLACK
6
CONTINUOUS
10
165.625
20
-118.458
11
165.577
21
-118.7
0
LINE
8
BLACK
6
CONTINUOUS
10
165.577
20
-118.7
11
165.483
21
-118.927
0
LINE
8
BLACK
6
CONTINUOUS
10
165.483
20
-118.927
11
165.346
21
-119.132
0
LINE
8
BLACK
6
CONTINUOUS
10
165.346
20
-119.132
11
165.172
21
-119.306
0
LINE
8
BLACK
6
CONTINUOUS
10
165.172
20
-119.306
11
164.967
21
-119.443
0
LINE
8
BLACK
6
CONTINUOUS
10
164.967
20
-119.443
11
164.74
21
-119.537
0
LINE
8
BLACK
6
CONTINUOUS
10
164.74
20
-119.537
11
164.498
21
-119.585
0
LINE
8
BLACK
6
CONTINUOUS
10
164.498
20
-119.585
11
164.252
21
-119.585
0
LINE
8
BLACK
6
CONTINUOUS
10
164.252
20
-119.585
11
164.01
21
-119.537
0
LINE
8
BLACK
6
CONTINUOUS
10
164.01
20
-119.537
11
163.783
21
-119.443
0
LINE
8
BLACK
6
CONTINUOUS
10
163.783
20
-119.443
11
163.578
21
-119.306
0
LINE
8
BLACK
6
CONTINUOUS
10
163.578
20
-119.306
11
163.404
21
-119.132
0
LINE
8
BLACK
6
CONTINUOUS
10
163.404
20
-119.132
11
163.267
21
-118.927
0
LINE
8
BLACK
6
CONTINUOUS
10
163.267
20
-118.927
11
163.173
21
-118.7
0
LINE
8
BLACK
6
CONTINUOUS
10
163.173
20
-118.7
11
163.125
21
-118.458
0
LINE
8
BLACK
6
CONTINUOUS
10
163.125
20
-118.458
11
163.125
21
-118.212
0
LINE
8
BLACK
6
CONTINUOUS
10
163.125
20
-118.212
11
163.173
21
-117.97
0
LINE
8
BLACK
6
CONTINUOUS
10
163.173
20
-117.97
11
163.267
21
-117.743
0
LINE
8
BLACK
6
CONTINUOUS
10
163.267
20
-117.743
11
163.404
21
-117.538
0
LINE
8
BLACK
6
CONTINUOUS
10
163.404
20
-117.538
11
163.578
21
-117.364
0
LINE
8
BLACK
6
CONTINUOUS
10
163.578
20
-117.364
11
163.783
21
-117.227
0
LINE
8
BLACK
6
CONTINUOUS
10
163.783
20
-117.227
11
164.01
21
-117.133
0
LINE
8
BLACK
6
CONTINUOUS
10
164.01
20
-117.133
11
164.252
21
-117.085
0
LINE
8
BLACK
6
CONTINUOUS
10
164.252
20
-117.085
11
164.498
21
-117.085
0
LINE
8
BLACK
6
CONTINUOUS
10
164.498
20
-117.085
11
164.74
21
-117.133
0
LINE
8
BLACK
6
CONTINUOUS
10
132.998
20
-118.962
11
131.998
21
-118.962
0
LINE
8
BLACK
6
CONTINUOUS
10
131.998
20
-118.962
11
131.998
21
-117.962
0
LINE
8
BLACK
6
CONTINUOUS
10
131.998
20
-117.962
11
132.998
21
-117.962
0
LINE
8
BLACK
6
CONTINUOUS
10
132.998
20
-117.962
11
132.998
21
-118.962
0
LINE
8
BLACK
6
CONTINUOUS
10
133.427
20
-104.162
11
133.587
21
-104.211
0
LINE
8
BLACK
6
CONTINUOUS
10
133.587
20
-104.211
11
133.735
21
-104.29
0
LINE
8
BLACK
6
CONTINUOUS
10
133.735
20
-104.29
11
133.864
21
-104.396
0
LINE
8
BLACK
6
CONTINUOUS
10
133.864
20
-104.396
11
133.97
21
-104.525
0
LINE
8
BLACK
6
CONTINUOUS
10
133.97
20
-104.525
11
134.049
21
-104.673
0
LINE
8
BLACK
6
CONTINUOUS
10
134.049
20
-104.673
11
134.098
21
-104.833
0
LINE
8
BLACK
6
CONTINUOUS
10
134.098
20
-104.833
11
134.114
21
-105
0
LINE
8
BLACK
6
CONTINUOUS
10
134.114
20
-105
11
134.098
21
-105.167
0
LINE
8
BLACK
6
CONTINUOUS
10
134.098
20
-105.167
11
134.049
21
-105.327
0
LINE
8
BLACK
6
CONTINUOUS
10
134.049
20
-105.327
11
133.97
21
-105.475
0
LINE
8
BLACK
6
CONTINUOUS
10
133.97
20
-105.475
11
133.864
21
-105.604
0
LINE
8
BLACK
6
CONTINUOUS
10
133.864
20
-105.604
11
133.735
21
-105.71
0
LINE
8
BLACK
6
CONTINUOUS
10
133.735
20
-105.71
11
133.587
21
-105.789
0
LINE
8
BLACK
6
CONTINUOUS
10
133.587
20
-105.789
11
133.427
21
-105.838
0
LINE
8
BLACK
6
CONTINUOUS
10
133.427
20
-105.838
11
133.385
21
-105.842
0
LINE
8
BLACK
6
CONTINUOUS
10
133.385
20
-105.842
11
133.385
21
-106.05
0
LINE
8
BLACK
6
CONTINUOUS
10
133.385
20
-106.05
11
133.621
21
-106.05
0
LINE
8
BLACK
6
CONTINUOUS
10
133.621
20
-106.05
11
133.627
21
-106.05
0
LINE
8
BLACK
6
CONTINUOUS
10
133.627
20
-106.05
11
133.633
21
-106.05
0
LINE
8
BLACK
6
CONTINUOUS
10
133.633
20
-106.05
11
133.633
21
-106.05
0
LINE
8
BLACK
6
CONTINUOUS
10
133.633
20
-106.05
11
133.652
21
-106.052
0
LINE
8
BLACK
6
CONTINUOUS
10
133.652
20
-106.052
11
133.675
21
-106.059
0
LINE
8
BLACK
6
CONTINUOUS
10
133.675
20
-106.059
11
133.697
21
-106.071
0
LINE
8
BLACK
6
CONTINUOUS
10
133.697
20
-106.071
11
133.716
21
-106.086
0
LINE
8
BLACK
6
CONTINUOUS
10
133.716
20
-106.086
11
133.72
21
-106.091
0
LINE
8
BLACK
6
CONTINUOUS
10
133.72
20
-106.091
11
134.536
21
-106.907
0
LINE
8
BLACK
6
CONTINUOUS
10
134.536
20
-106.907
11
134.541
21
-106.911
0
LINE
8
BLACK
6
CONTINUOUS
10
134.541
20
-106.911
11
134.545
21
-106.916
0
LINE
8
BLACK
6
CONTINUOUS
10
134.545
20
-106.916
11
134.557
21
-106.93
0
LINE
8
BLACK
6
CONTINUOUS
10
134.557
20
-106.93
11
134.565
21
-106.947
0
LINE
8
BLACK
6
CONTINUOUS
10
134.565
20
-106.947
11
134.568
21
-106.952
0
LINE
8
BLACK
6
CONTINUOUS
10
134.568
20
-106.952
11
134.575
21
-106.976
0
LINE
8
BLACK
6
CONTINUOUS
10
134.575
20
-106.976
11
134.577
21
-106.994
0
LINE
8
BLACK
6
CONTINUOUS
10
134.577
20
-106.994
11
134.577
21
-106.994
0
LINE
8
BLACK
6
CONTINUOUS
10
134.577
20
-106.994
11
134.578
21
-107
0
LINE
8
BLACK
6
CONTINUOUS
10
134.578
20
-107
11
134.577
21
-107.006
0
LINE
8
BLACK
6
CONTINUOUS
10
134.577
20
-107.006
11
134.577
21
-111.395
0
LINE
8
BLACK
6
CONTINUOUS
10
134.577
20
-111.395
11
134.578
21
-111.401
0
LINE
8
BLACK
6
CONTINUOUS
10
134.578
20
-111.401
11
134.577
21
-111.408
0
LINE
8
BLACK
6
CONTINUOUS
10
134.577
20
-111.408
11
134.577
21
-111.408
0
LINE
8
BLACK
6
CONTINUOUS
10
134.577
20
-111.408
11
134.575
21
-111.426
0
LINE
8
BLACK
6
CONTINUOUS
10
134.575
20
-111.426
11
134.568
21
-111.449
0
LINE
8
BLACK
6
CONTINUOUS
10
134.568
20
-111.449
11
134.557
21
-111.471
0
LINE
8
BLACK
6
CONTINUOUS
10
134.557
20
-111.471
11
134.545
21
-111.485
0
LINE
8
BLACK
6
CONTINUOUS
10
134.545
20
-111.485
11
134.545
21
-111.485
0
LINE
8
BLACK
6
CONTINUOUS
10
134.545
20
-111.485
11
134.541
21
-111.49
0
LINE
8
BLACK
6
CONTINUOUS
10
134.541
20
-111.49
11
134.536
21
-111.494
0
LINE
8
BLACK
6
CONTINUOUS
10
134.536
20
-111.494
11
133.478
21
-112.552
0
LINE
8
BLACK
6
CONTINUOUS
10
133.478
20
-112.552
11
133.478
21
-113.791
0
LINE
8
BLACK
6
CONTINUOUS
10
133.478
20
-113.791
11
133.479
21
-113.797
0
LINE
8
BLACK
6
CONTINUOUS
10
133.479
20
-113.797
11
133.478
21
-113.803
0
LINE
8
BLACK
6
CONTINUOUS
10
133.478
20
-113.803
11
133.478
21
-113.803
0
LINE
8
BLACK
6
CONTINUOUS
10
133.478
20
-113.803
11
133.476
21
-113.822
0
LINE
8
BLACK
6
CONTINUOUS
10
133.476
20
-113.822
11
133.469
21
-113.845
0
LINE
8
BLACK
6
CONTINUOUS
10
133.469
20
-113.845
11
133.457
21
-113.867
0
LINE
8
BLACK
6
CONTINUOUS
10
133.457
20
-113.867
11
133.446
21
-113.881
0
LINE
8
BLACK
6
CONTINUOUS
10
133.446
20
-113.881
11
133.446
21
-113.881
0
LINE
8
BLACK
6
CONTINUOUS
10
133.446
20
-113.881
11
133.442
21
-113.886
0
LINE
8
BLACK
6
CONTINUOUS
10
133.442
20
-113.886
11
133.437
21
-113.89
0
LINE
8
BLACK
6
CONTINUOUS
10
133.437
20
-113.89
11
132.929
21
-114.397
0
LINE
8
BLACK
6
CONTINUOUS
10
132.929
20
-114.397
11
132.941
21
-114.415
0
LINE
8
BLACK
6
CONTINUOUS
10
132.941
20
-114.415
11
132.979
21
-114.506
0
LINE
8
BLACK
6
CONTINUOUS
10
132.979
20
-114.506
11
132.998
21
-114.603
0
LINE
8
BLACK
6
CONTINUOUS
10
132.998
20
-114.603
11
132.998
21
-114.701
0
LINE
8
BLACK
6
CONTINUOUS
10
132.998
20
-114.701
11
132.979
21
-114.798
0
LINE
8
BLACK
6
CONTINUOUS
10
132.979
20
-114.798
11
132.941
21
-114.889
0
LINE
8
BLACK
6
CONTINUOUS
10
132.941
20
-114.889
11
132.886
21
-114.971
0
LINE
8
BLACK
6
CONTINUOUS
10
132.886
20
-114.971
11
132.817
21
-115.04
0
LINE
8
BLACK
6
CONTINUOUS
10
132.817
20
-115.04
11
132.735
21
-115.095
0
LINE
8
BLACK
6
CONTINUOUS
10
132.735
20
-115.095
11
132.644
21
-115.133
0
LINE
8
BLACK
6
CONTINUOUS
10
132.644
20
-115.133
11
132.547
21
-115.152
0
LINE
8
BLACK
6
CONTINUOUS
10
132.547
20
-115.152
11
132.449
21
-115.152
0
LINE
8
BLACK
6
CONTINUOUS
10
132.449
20
-115.152
11
132.352
21
-115.133
0
LINE
8
BLACK
6
CONTINUOUS
10
132.352
20
-115.133
11
132.261
21
-115.095
0
LINE
8
BLACK
6
CONTINUOUS
10
132.261
20
-115.095
11
132.179
21
-115.04
0
LINE
8
BLACK
6
CONTINUOUS
10
132.179
20
-115.04
11
132.11
21
-114.971
0
LINE
8
BLACK
6
CONTINUOUS
10
132.11
20
-114.971
11
132.055
21
-114.889
0
LINE
8
BLACK
6
CONTINUOUS
10
132.055
20
-114.889
11
132.017
21
-114.798
0
LINE
8
BLACK
6
CONTINUOUS
10
132.017
20
-114.798
11
131.998
21
-114.701
0
LINE
8
BLACK
6
CONTINUOUS
10
131.998
20
-114.701
11
131.998
21
-114.603
0
LINE
8
BLACK
6
CONTINUOUS
10
131.998
20
-114.603
11
132.017
21
-114.506
0
LINE
8
BLACK
6
CONTINUOUS
10
132.017
20
-114.506
11
132.055
21
-114.415
0
LINE
8
BLACK
6
CONTINUOUS
10
132.055
20
-114.415
11
132.11
21
-114.333
0
LINE
8
BLACK
6
CONTINUOUS
10
132.11
20
-114.333
11
132.179
21
-114.264
0
LINE
8
BLACK
6
CONTINUOUS
10
132.179
20
-114.264
11
132.261
21
-114.209
0
LINE
8
BLACK
6
CONTINUOUS
10
132.261
20
-114.209
11
132.352
21
-114.171
0
LINE
8
BLACK
6
CONTINUOUS
10
132.352
20
-114.171
11
132.449
21
-114.152
0
LINE
8
BLACK
6
CONTINUOUS
10
132.449
20
-114.152
11
132.547
21
-114.152
0
LINE
8
BLACK
6
CONTINUOUS
10
132.547
20
-114.152
11
132.644
21
-114.171
0
LINE
8
BLACK
6
CONTINUOUS
10
132.644
20
-114.171
11
132.735
21
-114.209
0
LINE
8
BLACK
6
CONTINUOUS
10
132.735
20
-114.209
11
132.753
21
-114.221
0
LINE
8
BLACK
6
CONTINUOUS
10
132.753
20
-114.221
11
133.228
21
-113.745
0
LINE
8
BLACK
6
CONTINUOUS
10
133.228
20
-113.745
11
133.228
21
-112.626
0
LINE
8
BLACK
6
CONTINUOUS
10
133.228
20
-112.626
11
130.961
21
-112.626
0
LINE
8
BLACK
6
CONTINUOUS
10
130.961
20
-112.626
11
130.528
21
-113.059
0
LINE
8
BLACK
6
CONTINUOUS
10
130.528
20
-113.059
11
130.528
21
-116.315
0
LINE
8
BLACK
6
CONTINUOUS
10
130.528
20
-116.315
11
130.973
21
-116.761
0
LINE
8
BLACK
6
CONTINUOUS
10
130.973
20
-116.761
11
130.991
21
-116.749
0
LINE
8
BLACK
6
CONTINUOUS
10
130.991
20
-116.749
11
131.082
21
-116.711
0
LINE
8
BLACK
6
CONTINUOUS
10
131.082
20
-116.711
11
131.179
21
-116.692
0
LINE
8
BLACK
6
CONTINUOUS
10
131.179
20
-116.692
11
131.277
21
-116.692
0
LINE
8
BLACK
6
CONTINUOUS
10
131.277
20
-116.692
11
131.374
21
-116.711
0
LINE
8
BLACK
6
CONTINUOUS
10
131.374
20
-116.711
11
131.465
21
-116.749
0
LINE
8
BLACK
6
CONTINUOUS
10
131.465
20
-116.749
11
131.547
21
-116.804
0
LINE
8
BLACK
6
CONTINUOUS
10
131.547
20
-116.804
11
131.616
21
-116.873
0
LINE
8
BLACK
6
CONTINUOUS
10
131.616
20
-116.873
11
131.671
21
-116.955
0
LINE
8
BLACK
6
CONTINUOUS
10
131.671
20
-116.955
11
131.709
21
-117.046
0
LINE
8
BLACK
6
CONTINUOUS
10
131.709
20
-117.046
11
131.728
21
-117.143
0
LINE
8
BLACK
6
CONTINUOUS
10
131.728
20
-117.143
11
131.728
21
-117.241
0
LINE
8
BLACK
6
CONTINUOUS
10
131.728
20
-117.241
11
131.709
21
-117.338
0
LINE
8
BLACK
6
CONTINUOUS
10
131.709
20
-117.338
11
131.671
21
-117.429
0
LINE
8
BLACK
6
CONTINUOUS
10
131.671
20
-117.429
11
131.616
21
-117.511
0
LINE
8
BLACK
6
CONTINUOUS
10
131.616
20
-117.511
11
131.547
21
-117.58
0
LINE
8
BLACK
6
CONTINUOUS
10
131.547
20
-117.58
11
131.465
21
-117.635
0
LINE
8
BLACK
6
CONTINUOUS
10
131.465
20
-117.635
11
131.374
21
-117.673
0
LINE
8
BLACK
6
CONTINUOUS
10
131.374
20
-117.673
11
131.277
21
-117.692
0
LINE
8
BLACK
6
CONTINUOUS
10
131.277
20
-117.692
11
131.179
21
-117.692
0
LINE
8
BLACK
6
CONTINUOUS
10
131.179
20
-117.692
11
131.082
21
-117.673
0
LINE
8
BLACK
6
CONTINUOUS
10
131.082
20
-117.673
11
130.991
21
-117.635
0
LINE
8
BLACK
6
CONTINUOUS
10
130.991
20
-117.635
11
130.909
21
-117.58
0
LINE
8
BLACK
6
CONTINUOUS
10
130.909
20
-117.58
11
130.84
21
-117.511
0
LINE
8
BLACK
6
CONTINUOUS
10
130.84
20
-117.511
11
130.785
21
-117.429
0
LINE
8
BLACK
6
CONTINUOUS
10
130.785
20
-117.429
11
130.747
21
-117.338
0
LINE
8
BLACK
6
CONTINUOUS
10
130.747
20
-117.338
11
130.728
21
-117.241
0
LINE
8
BLACK
6
CONTINUOUS
10
130.728
20
-117.241
11
130.728
21
-117.143
0
LINE
8
BLACK
6
CONTINUOUS
10
130.728
20
-117.143
11
130.747
21
-117.046
0
LINE
8
BLACK
6
CONTINUOUS
10
130.747
20
-117.046
11
130.785
21
-116.955
0
LINE
8
BLACK
6
CONTINUOUS
10
130.785
20
-116.955
11
130.797
21
-116.937
0
LINE
8
BLACK
6
CONTINUOUS
10
130.797
20
-116.937
11
130.318
21
-116.459
0
LINE
8
BLACK
6
CONTINUOUS
10
130.318
20
-116.459
11
130.314
21
-116.455
0
LINE
8
BLACK
6
CONTINUOUS
10
130.314
20
-116.455
11
130.309
21
-116.449
0
LINE
8
BLACK
6
CONTINUOUS
10
130.309
20
-116.449
11
130.298
21
-116.436
0
LINE
8
BLACK
6
CONTINUOUS
10
130.298
20
-116.436
11
130.286
21
-116.415
0
LINE
8
BLACK
6
CONTINUOUS
10
130.286
20
-116.415
11
130.279
21
-116.391
0
LINE
8
BLACK
6
CONTINUOUS
10
130.279
20
-116.391
11
130.279
21
-116.389
0
LINE
8
BLACK
6
CONTINUOUS
10
130.279
20
-116.389
11
130.278
21
-116.373
0
LINE
8
BLACK
6
CONTINUOUS
10
130.278
20
-116.373
11
130.277
21
-116.366
0
LINE
8
BLACK
6
CONTINUOUS
10
130.277
20
-116.366
11
130.278
21
-116.36
0
LINE
8
BLACK
6
CONTINUOUS
10
130.278
20
-116.36
11
130.278
21
-113.013
0
LINE
8
BLACK
6
CONTINUOUS
10
130.278
20
-113.013
11
130.277
21
-113.007
0
LINE
8
BLACK
6
CONTINUOUS
10
130.277
20
-113.007
11
130.278
21
-113.001
0
LINE
8
BLACK
6
CONTINUOUS
10
130.278
20
-113.001
11
130.278
21
-113.001
0
LINE
8
BLACK
6
CONTINUOUS
10
130.278
20
-113.001
11
130.279
21
-112.983
0
LINE
8
BLACK
6
CONTINUOUS
10
130.279
20
-112.983
11
130.286
21
-112.959
0
LINE
8
BLACK
6
CONTINUOUS
10
130.286
20
-112.959
11
130.298
21
-112.938
0
LINE
8
BLACK
6
CONTINUOUS
10
130.298
20
-112.938
11
130.314
21
-112.918
0
LINE
8
BLACK
6
CONTINUOUS
10
130.314
20
-112.918
11
130.318
21
-112.915
0
LINE
8
BLACK
6
CONTINUOUS
10
130.318
20
-112.915
11
130.816
21
-112.417
0
LINE
8
BLACK
6
CONTINUOUS
10
130.816
20
-112.417
11
130.82
21
-112.412
0
LINE
8
BLACK
6
CONTINUOUS
10
130.82
20
-112.412
11
130.826
21
-112.407
0
LINE
8
BLACK
6
CONTINUOUS
10
130.826
20
-112.407
11
130.839
21
-112.396
0
LINE
8
BLACK
6
CONTINUOUS
10
130.839
20
-112.396
11
130.861
21
-112.385
0
LINE
8
BLACK
6
CONTINUOUS
10
130.861
20
-112.385
11
130.862
21
-112.384
0
LINE
8
BLACK
6
CONTINUOUS
10
130.862
20
-112.384
11
130.885
21
-112.377
0
LINE
8
BLACK
6
CONTINUOUS
10
130.885
20
-112.377
11
130.903
21
-112.376
0
LINE
8
BLACK
6
CONTINUOUS
10
130.903
20
-112.376
11
130.903
21
-112.376
0
LINE
8
BLACK
6
CONTINUOUS
10
130.903
20
-112.376
11
130.909
21
-112.375
0
LINE
8
BLACK
6
CONTINUOUS
10
130.909
20
-112.375
11
130.915
21
-112.376
0
LINE
8
BLACK
6
CONTINUOUS
10
130.915
20
-112.376
11
133.301
21
-112.376
0
LINE
8
BLACK
6
CONTINUOUS
10
133.301
20
-112.376
11
134.327
21
-111.35
0
LINE
8
BLACK
6
CONTINUOUS
10
134.327
20
-111.35
11
134.327
21
-107.052
0
LINE
8
BLACK
6
CONTINUOUS
10
134.327
20
-107.052
11
133.576
21
-106.3
0
LINE
8
BLACK
6
CONTINUOUS
10
133.576
20
-106.3
11
133.266
21
-106.3
0
LINE
8
BLACK
6
CONTINUOUS
10
133.266
20
-106.3
11
133.26
21
-106.301
0
LINE
8
BLACK
6
CONTINUOUS
10
133.26
20
-106.301
11
133.254
21
-106.3
0
LINE
8
BLACK
6
CONTINUOUS
10
133.254
20
-106.3
11
133.254
21
-106.3
0
LINE
8
BLACK
6
CONTINUOUS
10
133.254
20
-106.3
11
133.235
21
-106.298
0
LINE
8
BLACK
6
CONTINUOUS
10
133.235
20
-106.298
11
133.212
21
-106.291
0
LINE
8
BLACK
6
CONTINUOUS
10
133.212
20
-106.291
11
133.19
21
-106.28
0
LINE
8
BLACK
6
CONTINUOUS
10
133.19
20
-106.28
11
133.171
21
-106.264
0
LINE
8
BLACK
6
CONTINUOUS
10
133.171
20
-106.264
11
133.156
21
-106.245
0
LINE
8
BLACK
6
CONTINUOUS
10
133.156
20
-106.245
11
133.144
21
-106.223
0
LINE
8
BLACK
6
CONTINUOUS
10
133.144
20
-106.223
11
133.137
21
-106.2
0
LINE
8
BLACK
6
CONTINUOUS
10
133.137
20
-106.2
11
133.134
21
-106.175
0
LINE
8
BLACK
6
CONTINUOUS
10
133.134
20
-106.175
11
133.135
21
-106.169
0
LINE
8
BLACK
6
CONTINUOUS
10
133.135
20
-106.169
11
133.135
21
-105.842
0
LINE
8
BLACK
6
CONTINUOUS
10
133.135
20
-105.842
11
133.093
21
-105.838
0
LINE
8
BLACK
6
CONTINUOUS
10
133.093
20
-105.838
11
132.933
21
-105.789
0
LINE
8
BLACK
6
CONTINUOUS
10
132.933
20
-105.789
11
132.785
21
-105.71
0
LINE
8
BLACK
6
CONTINUOUS
10
132.785
20
-105.71
11
132.656
21
-105.604
0
LINE
8
BLACK
6
CONTINUOUS
10
132.656
20
-105.604
11
132.55
21
-105.475
0
LINE
8
BLACK
6
CONTINUOUS
10
132.55
20
-105.475
11
132.471
21
-105.327
0
LINE
8
BLACK
6
CONTINUOUS
10
132.471
20
-105.327
11
132.422
21
-105.167
0
LINE
8
BLACK
6
CONTINUOUS
10
132.422
20
-105.167
11
132.406
21
-105
0
LINE
8
BLACK
6
CONTINUOUS
10
132.406
20
-105
11
132.422
21
-104.833
0
LINE
8
BLACK
6
CONTINUOUS
10
132.422
20
-104.833
11
132.471
21
-104.673
0
LINE
8
BLACK
6
CONTINUOUS
10
132.471
20
-104.673
11
132.55
21
-104.525
0
LINE
8
BLACK
6
CONTINUOUS
10
132.55
20
-104.525
11
132.656
21
-104.396
0
LINE
8
BLACK
6
CONTINUOUS
10
132.656
20
-104.396
11
132.785
21
-104.29
0
LINE
8
BLACK
6
CONTINUOUS
10
132.785
20
-104.29
11
132.933
21
-104.211
0
LINE
8
BLACK
6
CONTINUOUS
10
132.933
20
-104.211
11
133.093
21
-104.162
0
LINE
8
BLACK
6
CONTINUOUS
10
133.093
20
-104.162
11
133.218
21
-104.15
0
LINE
8
BLACK
6
CONTINUOUS
10
133.218
20
-104.15
11
133.302
21
-104.15
0
LINE
8
BLACK
6
CONTINUOUS
10
133.302
20
-104.15
11
133.427
21
-104.162
0
LINE
8
BLACK
6
CONTINUOUS
10
135.68
20
-108.586
11
135.753
21
-108.616
0
LINE
8
BLACK
6
CONTINUOUS
10
135.753
20
-108.616
11
135.818
21
-108.66
0
LINE
8
BLACK
6
CONTINUOUS
10
135.818
20
-108.66
11
135.874
21
-108.716
0
LINE
8
BLACK
6
CONTINUOUS
10
135.874
20
-108.716
11
135.918
21
-108.781
0
LINE
8
BLACK
6
CONTINUOUS
10
135.918
20
-108.781
11
135.948
21
-108.854
0
LINE
8
BLACK
6
CONTINUOUS
10
135.948
20
-108.854
11
135.963
21
-108.931
0
LINE
8
BLACK
6
CONTINUOUS
10
135.963
20
-108.931
11
135.963
21
-109.01
0
LINE
8
BLACK
6
CONTINUOUS
10
135.963
20
-109.01
11
135.948
21
-109.087
0
LINE
8
BLACK
6
CONTINUOUS
10
135.948
20
-109.087
11
135.918
21
-109.16
0
LINE
8
BLACK
6
CONTINUOUS
10
135.918
20
-109.16
11
135.874
21
-109.226
0
LINE
8
BLACK
6
CONTINUOUS
10
135.874
20
-109.226
11
135.818
21
-109.281
0
LINE
8
BLACK
6
CONTINUOUS
10
135.818
20
-109.281
11
135.753
21
-109.325
0
LINE
8
BLACK
6
CONTINUOUS
10
135.753
20
-109.325
11
135.689
21
-109.352
0
LINE
8
BLACK
6
CONTINUOUS
10
135.689
20
-109.352
11
135.689
21
-114.12
0
LINE
8
BLACK
6
CONTINUOUS
10
135.689
20
-114.12
11
135.689
21
-114.126
0
LINE
8
BLACK
6
CONTINUOUS
10
135.689
20
-114.126
11
135.689
21
-114.133
0
LINE
8
BLACK
6
CONTINUOUS
10
135.689
20
-114.133
11
135.689
21
-114.133
0
LINE
8
BLACK
6
CONTINUOUS
10
135.689
20
-114.133
11
135.687
21
-114.151
0
LINE
8
BLACK
6
CONTINUOUS
10
135.687
20
-114.151
11
135.682
21
-114.166
0
LINE
8
BLACK
6
CONTINUOUS
10
135.682
20
-114.166
11
135.68
21
-114.175
0
LINE
8
BLACK
6
CONTINUOUS
10
135.68
20
-114.175
11
135.668
21
-114.196
0
LINE
8
BLACK
6
CONTINUOUS
10
135.668
20
-114.196
11
135.658
21
-114.208
0
LINE
8
BLACK
6
CONTINUOUS
10
135.658
20
-114.208
11
135.652
21
-114.215
0
LINE
8
BLACK
6
CONTINUOUS
10
135.652
20
-114.215
11
135.648
21
-114.219
0
LINE
8
BLACK
6
CONTINUOUS
10
135.648
20
-114.219
11
132.929
21
-116.937
0
LINE
8
BLACK
6
CONTINUOUS
10
132.929
20
-116.937
11
132.941
21
-116.955
0
LINE
8
BLACK
6
CONTINUOUS
10
132.941
20
-116.955
11
132.979
21
-117.046
0
LINE
8
BLACK
6
CONTINUOUS
10
132.979
20
-117.046
11
132.998
21
-117.143
0
LINE
8
BLACK
6
CONTINUOUS
10
132.998
20
-117.143
11
132.998
21
-117.241
0
LINE
8
BLACK
6
CONTINUOUS
10
132.998
20
-117.241
11
132.979
21
-117.338
0
LINE
8
BLACK
6
CONTINUOUS
10
132.979
20
-117.338
11
132.941
21
-117.429
0
LINE
8
BLACK
6
CONTINUOUS
10
132.941
20
-117.429
11
132.886
21
-117.511
0
LINE
8
BLACK
6
CONTINUOUS
10
132.886
20
-117.511
11
132.817
21
-117.58
0
LINE
8
BLACK
6
CONTINUOUS
10
132.817
20
-117.58
11
132.735
21
-117.635
0
LINE
8
BLACK
6
CONTINUOUS
10
132.735
20
-117.635
11
132.644
21
-117.673
0
LINE
8
BLACK
6
CONTINUOUS
10
132.644
20
-117.673
11
132.547
21
-117.692
0
LINE
8
BLACK
6
CONTINUOUS
10
132.547
20
-117.692
11
132.449
21
-117.692
0
LINE
8
BLACK
6
CONTINUOUS
10
132.449
20
-117.692
11
132.352
21
-117.673
0
LINE
8
BLACK
6
CONTINUOUS
10
132.352
20
-117.673
11
132.261
21
-117.635
0
LINE
8
BLACK
6
CONTINUOUS
10
132.261
20
-117.635
11
132.179
21
-117.58
0
LINE
8
BLACK
6
CONTINUOUS
10
132.179
20
-117.58
11
132.11
21
-117.511
0
LINE
8
BLACK
6
CONTINUOUS
10
132.11
20
-117.511
11
132.055
21
-117.429
0
LINE
8
BLACK
6
CONTINUOUS
10
132.055
20
-117.429
11
132.017
21
-117.338
0
LINE
8
BLACK
6
CONTINUOUS
10
132.017
20
-117.338
11
131.998
21
-117.241
0
LINE
8
BLACK
6
CONTINUOUS
10
131.998
20
-117.241
11
131.998
21
-117.143
0
LINE
8
BLACK
6
CONTINUOUS
10
131.998
20
-117.143
11
132.017
21
-117.046
0
LINE
8
BLACK
6
CONTINUOUS
10
132.017
20
-117.046
11
132.055
21
-116.955
0
LINE
8
BLACK
6
CONTINUOUS
10
132.055
20
-116.955
11
132.11
21
-116.873
0
LINE
8
BLACK
6
CONTINUOUS
10
132.11
20
-116.873
11
132.179
21
-116.804
0
LINE
8
BLACK
6
CONTINUOUS
10
132.179
20
-116.804
11
132.261
21
-116.749
0
LINE
8
BLACK
6
CONTINUOUS
10
132.261
20
-116.749
11
132.352
21
-116.711
0
LINE
8
BLACK
6
CONTINUOUS
10
132.352
20
-116.711
11
132.449
21
-116.692
0
LINE
8
BLACK
6
CONTINUOUS
10
132.449
20
-116.692
11
132.547
21
-116.692
0
LINE
8
BLACK
6
CONTINUOUS
10
132.547
20
-116.692
11
132.644
21
-116.711
0
LINE
8
BLACK
6
CONTINUOUS
10
132.644
20
-116.711
11
132.735
21
-116.749
0
LINE
8
BLACK
6
CONTINUOUS
10
132.735
20
-116.749
11
132.753
21
-116.761
0
LINE
8
BLACK
6
CONTINUOUS
10
132.753
20
-116.761
11
135.439
21
-114.075
0
LINE
8
BLACK
6
CONTINUOUS
10
135.439
20
-114.075
11
135.439
21
-109.352
0
LINE
8
BLACK
6
CONTINUOUS
10
135.439
20
-109.352
11
135.374
21
-109.325
0
LINE
8
BLACK
6
CONTINUOUS
10
135.374
20
-109.325
11
135.309
21
-109.281
0
LINE
8
BLACK
6
CONTINUOUS
10
135.309
20
-109.281
11
135.253
21
-109.226
0
LINE
8
BLACK
6
CONTINUOUS
10
135.253
20
-109.226
11
135.209
21
-109.16
0
LINE
8
BLACK
6
CONTINUOUS
10
135.209
20
-109.16
11
135.179
21
-109.087
0
LINE
8
BLACK
6
CONTINUOUS
10
135.179
20
-109.087
11
135.163
21
-109.01
0
LINE
8
BLACK
6
CONTINUOUS
10
135.163
20
-109.01
11
135.163
21
-108.931
0
LINE
8
BLACK
6
CONTINUOUS
10
135.163
20
-108.931
11
135.179
21
-108.854
0
LINE
8
BLACK
6
CONTINUOUS
10
135.179
20
-108.854
11
135.209
21
-108.781
0
LINE
8
BLACK
6
CONTINUOUS
10
135.209
20
-108.781
11
135.253
21
-108.716
0
LINE
8
BLACK
6
CONTINUOUS
10
135.253
20
-108.716
11
135.309
21
-108.66
0
LINE
8
BLACK
6
CONTINUOUS
10
135.309
20
-108.66
11
135.374
21
-108.616
0
LINE
8
BLACK
6
CONTINUOUS
10
135.374
20
-108.616
11
135.447
21
-108.586
0
LINE
8
BLACK
6
CONTINUOUS
10
135.447
20
-108.586
11
135.524
21
-108.571
0
LINE
8
BLACK
6
CONTINUOUS
10
135.524
20
-108.571
11
135.603
21
-108.571
0
LINE
8
BLACK
6
CONTINUOUS
10
135.603
20
-108.571
11
135.68
21
-108.586
0
LINE
8
BLACK
6
CONTINUOUS
10
131.374
20
-115.441
11
131.465
21
-115.479
0
LINE
8
BLACK
6
CONTINUOUS
10
131.465
20
-115.479
11
131.547
21
-115.534
0
LINE
8
BLACK
6
CONTINUOUS
10
131.547
20
-115.534
11
131.616
21
-115.603
0
LINE
8
BLACK
6
CONTINUOUS
10
131.616
20
-115.603
11
131.671
21
-115.685
0
LINE
8
BLACK
6
CONTINUOUS
10
131.671
20
-115.685
11
131.709
21
-115.776
0
LINE
8
BLACK
6
CONTINUOUS
10
131.709
20
-115.776
11
131.728
21
-115.873
0
LINE
8
BLACK
6
CONTINUOUS
10
131.728
20
-115.873
11
131.728
21
-115.971
0
LINE
8
BLACK
6
CONTINUOUS
10
131.728
20
-115.971
11
131.709
21
-116.068
0
LINE
8
BLACK
6
CONTINUOUS
10
131.709
20
-116.068
11
131.671
21
-116.159
0
LINE
8
BLACK
6
CONTINUOUS
10
131.671
20
-116.159
11
131.616
21
-116.241
0
LINE
8
BLACK
6
CONTINUOUS
10
131.616
20
-116.241
11
131.547
21
-116.31
0
LINE
8
BLACK
6
CONTINUOUS
10
131.547
20
-116.31
11
131.465
21
-116.365
0
LINE
8
BLACK
6
CONTINUOUS
10
131.465
20
-116.365
11
131.374
21
-116.403
0
LINE
8
BLACK
6
CONTINUOUS
10
131.374
20
-116.403
11
131.277
21
-116.422
0
LINE
8
BLACK
6
CONTINUOUS
10
131.277
20
-116.422
11
131.179
21
-116.422
0
LINE
8
BLACK
6
CONTINUOUS
10
131.179
20
-116.422
11
131.082
21
-116.403
0
LINE
8
BLACK
6
CONTINUOUS
10
131.082
20
-116.403
11
130.991
21
-116.365
0
LINE
8
BLACK
6
CONTINUOUS
10
130.991
20
-116.365
11
130.909
21
-116.31
0
LINE
8
BLACK
6
CONTINUOUS
10
130.909
20
-116.31
11
130.84
21
-116.241
0
LINE
8
BLACK
6
CONTINUOUS
10
130.84
20
-116.241
11
130.785
21
-116.159
0
LINE
8
BLACK
6
CONTINUOUS
10
130.785
20
-116.159
11
130.747
21
-116.068
0
LINE
8
BLACK
6
CONTINUOUS
10
130.747
20
-116.068
11
130.728
21
-115.971
0
LINE
8
BLACK
6
CONTINUOUS
10
130.728
20
-115.971
11
130.728
21
-115.873
0
LINE
8
BLACK
6
CONTINUOUS
10
130.728
20
-115.873
11
130.747
21
-115.776
0
LINE
8
BLACK
6
CONTINUOUS
10
130.747
20
-115.776
11
130.785
21
-115.685
0
LINE
8
BLACK
6
CONTINUOUS
10
130.785
20
-115.685
11
130.84
21
-115.603
0
LINE
8
BLACK
6
CONTINUOUS
10
130.84
20
-115.603
11
130.909
21
-115.534
0
LINE
8
BLACK
6
CONTINUOUS
10
130.909
20
-115.534
11
130.991
21
-115.479
0
LINE
8
BLACK
6
CONTINUOUS
10
130.991
20
-115.479
11
131.082
21
-115.441
0
LINE
8
BLACK
6
CONTINUOUS
10
131.082
20
-115.441
11
131.179
21
-115.422
0
LINE
8
BLACK
6
CONTINUOUS
10
131.179
20
-115.422
11
131.277
21
-115.422
0
LINE
8
BLACK
6
CONTINUOUS
10
131.277
20
-115.422
11
131.374
21
-115.441
0
LINE
8
BLACK
6
CONTINUOUS
10
132.644
20
-115.441
11
132.735
21
-115.479
0
LINE
8
BLACK
6
CONTINUOUS
10
132.735
20
-115.479
11
132.817
21
-115.534
0
LINE
8
BLACK
6
CONTINUOUS
10
132.817
20
-115.534
11
132.886
21
-115.603
0
LINE
8
BLACK
6
CONTINUOUS
10
132.886
20
-115.603
11
132.941
21
-115.685
0
LINE
8
BLACK
6
CONTINUOUS
10
132.941
20
-115.685
11
132.979
21
-115.776
0
LINE
8
BLACK
6
CONTINUOUS
10
132.979
20
-115.776
11
132.998
21
-115.873
0
LINE
8
BLACK
6
CONTINUOUS
10
132.998
20
-115.873
11
132.998
21
-115.971
0
LINE
8
BLACK
6
CONTINUOUS
10
132.998
20
-115.971
11
132.979
21
-116.068
0
LINE
8
BLACK
6
CONTINUOUS
10
132.979
20
-116.068
11
132.941
21
-116.159
0
LINE
8
BLACK
6
CONTINUOUS
10
132.941
20
-116.159
11
132.886
21
-116.241
0
LINE
8
BLACK
6
CONTINUOUS
10
132.886
20
-116.241
11
132.817
21
-116.31
0
LINE
8
BLACK
6
CONTINUOUS
10
132.817
20
-116.31
11
132.735
21
-116.365
0
LINE
8
BLACK
6
CONTINUOUS
10
132.735
20
-116.365
11
132.644
21
-116.403
0
LINE
8
BLACK
6
CONTINUOUS
10
132.644
20
-116.403
11
132.547
21
-116.422
0
LINE
8
BLACK
6
CONTINUOUS
10
132.547
20
-116.422
11
132.449
21
-116.422
0
LINE
8
BLACK
6
CONTINUOUS
10
132.449
20
-116.422
11
132.352
21
-116.403
0
LINE
8
BLACK
6
CONTINUOUS
10
132.352
20
-116.403
11
132.261
21
-116.365
0
LINE
8
BLACK
6
CONTINUOUS
10
132.261
20
-116.365
11
132.179
21
-116.31
0
LINE
8
BLACK
6
CONTINUOUS
10
132.179
20
-116.31
11
132.11
21
-116.241
0
LINE
8
BLACK
6
CONTINUOUS
10
132.11
20
-116.241
11
132.055
21
-116.159
0
LINE
8
BLACK
6
CONTINUOUS
10
132.055
20
-116.159
11
132.017
21
-116.068
0
LINE
8
BLACK
6
CONTINUOUS
10
132.017
20
-116.068
11
131.998
21
-115.971
0
LINE
8
BLACK
6
CONTINUOUS
10
131.998
20
-115.971
11
131.998
21
-115.873
0
LINE
8
BLACK
6
CONTINUOUS
10
131.998
20
-115.873
11
132.017
21
-115.776
0
LINE
8
BLACK
6
CONTINUOUS
10
132.017
20
-115.776
11
132.055
21
-115.685
0
LINE
8
BLACK
6
CONTINUOUS
10
132.055
20
-115.685
11
132.11
21
-115.603
0
LINE
8
BLACK
6
CONTINUOUS
10
132.11
20
-115.603
11
132.179
21
-115.534
0
LINE
8
BLACK
6
CONTINUOUS
10
132.179
20
-115.534
11
132.261
21
-115.479
0
LINE
8
BLACK
6
CONTINUOUS
10
132.261
20
-115.479
11
132.352
21
-115.441
0
LINE
8
BLACK
6
CONTINUOUS
10
132.352
20
-115.441
11
132.449
21
-115.422
0
LINE
8
BLACK
6
CONTINUOUS
10
132.449
20
-115.422
11
132.547
21
-115.422
0
LINE
8
BLACK
6
CONTINUOUS
10
132.547
20
-115.422
11
132.644
21
-115.441
0
LINE
8
BLACK
6
CONTINUOUS
10
131.374
20
-114.171
11
131.465
21
-114.209
0
LINE
8
BLACK
6
CONTINUOUS
10
131.465
20
-114.209
11
131.547
21
-114.264
0
LINE
8
BLACK
6
CONTINUOUS
10
131.547
20
-114.264
11
131.616
21
-114.333
0
LINE
8
BLACK
6
CONTINUOUS
10
131.616
20
-114.333
11
131.671
21
-114.415
0
LINE
8
BLACK
6
CONTINUOUS
10
131.671
20
-114.415
11
131.709
21
-114.506
0
LINE
8
BLACK
6
CONTINUOUS
10
131.709
20
-114.506
11
131.728
21
-114.603
0
LINE
8
BLACK
6
CONTINUOUS
10
131.728
20
-114.603
11
131.728
21
-114.701
0
LINE
8
BLACK
6
CONTINUOUS
10
131.728
20
-114.701
11
131.709
21
-114.798
0
LINE
8
BLACK
6
CONTINUOUS
10
131.709
20
-114.798
11
131.671
21
-114.889
0
LINE
8
BLACK
6
CONTINUOUS
10
131.671
20
-114.889
11
131.616
21
-114.971
0
LINE
8
BLACK
6
CONTINUOUS
10
131.616
20
-114.971
11
131.547
21
-115.04
0
LINE
8
BLACK
6
CONTINUOUS
10
131.547
20
-115.04
11
131.465
21
-115.095
0
LINE
8
BLACK
6
CONTINUOUS
10
131.465
20
-115.095
11
131.374
21
-115.133
0
LINE
8
BLACK
6
CONTINUOUS
10
131.374
20
-115.133
11
131.277
21
-115.152
0
LINE
8
BLACK
6
CONTINUOUS
10
131.277
20
-115.152
11
131.179
21
-115.152
0
LINE
8
BLACK
6
CONTINUOUS
10
131.179
20
-115.152
11
131.082
21
-115.133
0
LINE
8
BLACK
6
CONTINUOUS
10
131.082
20
-115.133
11
130.991
21
-115.095
0
LINE
8
BLACK
6
CONTINUOUS
10
130.991
20
-115.095
11
130.909
21
-115.04
0
LINE
8
BLACK
6
CONTINUOUS
10
130.909
20
-115.04
11
130.84
21
-114.971
0
LINE
8
BLACK
6
CONTINUOUS
10
130.84
20
-114.971
11
130.785
21
-114.889
0
LINE
8
BLACK
6
CONTINUOUS
10
130.785
20
-114.889
11
130.747
21
-114.798
0
LINE
8
BLACK
6
CONTINUOUS
10
130.747
20
-114.798
11
130.728
21
-114.701
0
LINE
8
BLACK
6
CONTINUOUS
10
130.728
20
-114.701
11
130.728
21
-114.603
0
LINE
8
BLACK
6
CONTINUOUS
10
130.728
20
-114.603
11
130.747
21
-114.506
0
LINE
8
BLACK
6
CONTINUOUS
10
130.747
20
-114.506
11
130.785
21
-114.415
0
LINE
8
BLACK
6
CONTINUOUS
10
130.785
20
-114.415
11
130.84
21
-114.333
0
LINE
8
BLACK
6
CONTINUOUS
10
130.84
20
-114.333
11
130.909
21
-114.264
0
LINE
8
BLACK
6
CONTINUOUS
10
130.909
20
-114.264
11
130.991
21
-114.209
0
LINE
8
BLACK
6
CONTINUOUS
10
130.991
20
-114.209
11
131.082
21
-114.171
0
LINE
8
BLACK
6
CONTINUOUS
10
131.082
20
-114.171
11
131.179
21
-114.152
0
LINE
8
BLACK
6
CONTINUOUS
10
131.179
20
-114.152
11
131.277
21
-114.152
0
LINE
8
BLACK
6
CONTINUOUS
10
131.277
20
-114.152
11
131.374
21
-114.171
0
LINE
8
BLACK
6
CONTINUOUS
10
132.644
20
-112.901
11
132.735
21
-112.939
0
LINE
8
BLACK
6
CONTINUOUS
10
132.735
20
-112.939
11
132.817
21
-112.994
0
LINE
8
BLACK
6
CONTINUOUS
10
132.817
20
-112.994
11
132.886
21
-113.063
0
LINE
8
BLACK
6
CONTINUOUS
10
132.886
20
-113.063
11
132.941
21
-113.145
0
LINE
8
BLACK
6
CONTINUOUS
10
132.941
20
-113.145
11
132.979
21
-113.236
0
LINE
8
BLACK
6
CONTINUOUS
10
132.979
20
-113.236
11
132.998
21
-113.333
0
LINE
8
BLACK
6
CONTINUOUS
10
132.998
20
-113.333
11
132.998
21
-113.431
0
LINE
8
BLACK
6
CONTINUOUS
10
132.998
20
-113.431
11
132.979
21
-113.528
0
LINE
8
BLACK
6
CONTINUOUS
10
132.979
20
-113.528
11
132.941
21
-113.619
0
LINE
8
BLACK
6
CONTINUOUS
10
132.941
20
-113.619
11
132.886
21
-113.701
0
LINE
8
BLACK
6
CONTINUOUS
10
132.886
20
-113.701
11
132.817
21
-113.77
0
LINE
8
BLACK
6
CONTINUOUS
10
132.817
20
-113.77
11
132.735
21
-113.825
0
LINE
8
BLACK
6
CONTINUOUS
10
132.735
20
-113.825
11
132.644
21
-113.863
0
LINE
8
BLACK
6
CONTINUOUS
10
132.644
20
-113.863
11
132.547
21
-113.882
0
LINE
8
BLACK
6
CONTINUOUS
10
132.547
20
-113.882
11
132.449
21
-113.882
0
LINE
8
BLACK
6
CONTINUOUS
10
132.449
20
-113.882
11
132.352
21
-113.863
0
LINE
8
BLACK
6
CONTINUOUS
10
132.352
20
-113.863
11
132.261
21
-113.825
0
LINE
8
BLACK
6
CONTINUOUS
10
132.261
20
-113.825
11
132.179
21
-113.77
0
LINE
8
BLACK
6
CONTINUOUS
10
132.179
20
-113.77
11
132.11
21
-113.701
0
LINE
8
BLACK
6
CONTINUOUS
10
132.11
20
-113.701
11
132.055
21
-113.619
0
LINE
8
BLACK
6
CONTINUOUS
10
132.055
20
-113.619
11
132.017
21
-113.528
0
LINE
8
BLACK
6
CONTINUOUS
10
132.017
20
-113.528
11
131.998
21
-113.431
0
LINE
8
BLACK
6
CONTINUOUS
10
131.998
20
-113.431
11
131.998
21
-113.333
0
LINE
8
BLACK
6
CONTINUOUS
10
131.998
20
-113.333
11
132.017
21
-113.236
0
LINE
8
BLACK
6
CONTINUOUS
10
132.017
20
-113.236
11
132.055
21
-113.145
0
LINE
8
BLACK
6
CONTINUOUS
10
132.055
20
-113.145
11
132.11
21
-113.063
0
LINE
8
BLACK
6
CONTINUOUS
10
132.11
20
-113.063
11
132.179
21
-112.994
0
LINE
8
BLACK
6
CONTINUOUS
10
132.179
20
-112.994
11
132.261
21
-112.939
0
LINE
8
BLACK
6
CONTINUOUS
10
132.261
20
-112.939
11
132.352
21
-112.901
0
LINE
8
BLACK
6
CONTINUOUS
10
132.352
20
-112.901
11
132.449
21
-112.882
0
LINE
8
BLACK
6
CONTINUOUS
10
132.449
20
-112.882
11
132.547
21
-112.882
0
LINE
8
BLACK
6
CONTINUOUS
10
132.547
20
-112.882
11
132.644
21
-112.901
0
LINE
8
BLACK
6
CONTINUOUS
10
131.374
20
-112.901
11
131.465
21
-112.939
0
LINE
8
BLACK
6
CONTINUOUS
10
131.465
20
-112.939
11
131.547
21
-112.994
0
LINE
8
BLACK
6
CONTINUOUS
10
131.547
20
-112.994
11
131.616
21
-113.063
0
LINE
8
BLACK
6
CONTINUOUS
10
131.616
20
-113.063
11
131.671
21
-113.145
0
LINE
8
BLACK
6
CONTINUOUS
10
131.671
20
-113.145
11
131.709
21
-113.236
0
LINE
8
BLACK
6
CONTINUOUS
10
131.709
20
-113.236
11
131.728
21
-113.333
0
LINE
8
BLACK
6
CONTINUOUS
10
131.728
20
-113.333
11
131.728
21
-113.431
0
LINE
8
BLACK
6
CONTINUOUS
10
131.728
20
-113.431
11
131.709
21
-113.528
0
LINE
8
BLACK
6
CONTINUOUS
10
131.709
20
-113.528
11
131.671
21
-113.619
0
LINE
8
BLACK
6
CONTINUOUS
10
131.671
20
-113.619
11
131.616
21
-113.701
0
LINE
8
BLACK
6
CONTINUOUS
10
131.616
20
-113.701
11
131.547
21
-113.77
0
LINE
8
BLACK
6
CONTINUOUS
10
131.547
20
-113.77
11
131.465
21
-113.825
0
LINE
8
BLACK
6
CONTINUOUS
10
131.465
20
-113.825
11
131.374
21
-113.863
0
LINE
8
BLACK
6
CONTINUOUS
10
131.374
20
-113.863
11
131.277
21
-113.882
0
LINE
8
BLACK
6
CONTINUOUS
10
131.277
20
-113.882
11
131.179
21
-113.882
0
LINE
8
BLACK
6
CONTINUOUS
10
131.179
20
-113.882
11
131.082
21
-113.863
0
LINE
8
BLACK
6
CONTINUOUS
10
131.082
20
-113.863
11
130.991
21
-113.825
0
LINE
8
BLACK
6
CONTINUOUS
10
130.991
20
-113.825
11
130.909
21
-113.77
0
LINE
8
BLACK
6
CONTINUOUS
10
130.909
20
-113.77
11
130.84
21
-113.701
0
LINE
8
BLACK
6
CONTINUOUS
10
130.84
20
-113.701
11
130.785
21
-113.619
0
LINE
8
BLACK
6
CONTINUOUS
10
130.785
20
-113.619
11
130.747
21
-113.528
0
LINE
8
BLACK
6
CONTINUOUS
10
130.747
20
-113.528
11
130.728
21
-113.431
0
LINE
8
BLACK
6
CONTINUOUS
10
130.728
20
-113.431
11
130.728
21
-113.333
0
LINE
8
BLACK
6
CONTINUOUS
10
130.728
20
-113.333
11
130.747
21
-113.236
0
LINE
8
BLACK
6
CONTINUOUS
10
130.747
20
-113.236
11
130.785
21
-113.145
0
LINE
8
BLACK
6
CONTINUOUS
10
130.785
20
-113.145
11
130.84
21
-113.063
0
LINE
8
BLACK
6
CONTINUOUS
10
130.84
20
-113.063
11
130.909
21
-112.994
0
LINE
8
BLACK
6
CONTINUOUS
10
130.909
20
-112.994
11
130.991
21
-112.939
0
LINE
8
BLACK
6
CONTINUOUS
10
130.991
20
-112.939
11
131.082
21
-112.901
0
LINE
8
BLACK
6
CONTINUOUS
10
131.082
20
-112.901
11
131.179
21
-112.882
0
LINE
8
BLACK
6
CONTINUOUS
10
131.179
20
-112.882
11
131.277
21
-112.882
0
LINE
8
BLACK
6
CONTINUOUS
10
131.277
20
-112.882
11
131.374
21
-112.901
0
LINE
8
BLACK
6
CONTINUOUS
10
134.11
20
-103.31
11
132.41
21
-103.31
0
LINE
8
BLACK
6
CONTINUOUS
10
132.41
20
-103.31
11
132.41
21
-101.61
0
LINE
8
BLACK
6
CONTINUOUS
10
132.41
20
-101.61
11
134.11
21
-101.61
0
LINE
8
BLACK
6
CONTINUOUS
10
134.11
20
-101.61
11
134.11
21
-103.31
0
LINE
8
BLACK
6
CONTINUOUS
10
135.415
20
-93.1194
11
135.488
21
-93.1495
0
LINE
8
BLACK
6
CONTINUOUS
10
135.488
20
-93.1495
11
135.554
21
-93.1933
0
LINE
8
BLACK
6
CONTINUOUS
10
135.554
20
-93.1933
11
135.609
21
-93.249
0
LINE
8
BLACK
6
CONTINUOUS
10
135.609
20
-93.249
11
135.653
21
-93.3145
0
LINE
8
BLACK
6
CONTINUOUS
10
135.653
20
-93.3145
11
135.683
21
-93.3873
0
LINE
8
BLACK
6
CONTINUOUS
10
135.683
20
-93.3873
11
135.699
21
-93.4646
0
LINE
8
BLACK
6
CONTINUOUS
10
135.699
20
-93.4646
11
135.699
21
-93.5434
0
LINE
8
BLACK
6
CONTINUOUS
10
135.699
20
-93.5434
11
135.683
21
-93.6207
0
LINE
8
BLACK
6
CONTINUOUS
10
135.683
20
-93.6207
11
135.653
21
-93.6935
0
LINE
8
BLACK
6
CONTINUOUS
10
135.653
20
-93.6935
11
135.609
21
-93.759
0
LINE
8
BLACK
6
CONTINUOUS
10
135.609
20
-93.759
11
135.554
21
-93.8147
0
LINE
8
BLACK
6
CONTINUOUS
10
135.554
20
-93.8147
11
135.488
21
-93.8585
0
LINE
8
BLACK
6
CONTINUOUS
10
135.488
20
-93.8585
11
135.424
21
-93.8852
0
LINE
8
BLACK
6
CONTINUOUS
10
135.424
20
-93.8852
11
135.424
21
-95.9915
0
LINE
8
BLACK
6
CONTINUOUS
10
135.424
20
-95.9915
11
147.979
21
-108.547
0
LINE
8
BLACK
6
CONTINUOUS
10
147.979
20
-108.547
11
148.043
21
-108.52
0
LINE
8
BLACK
6
CONTINUOUS
10
148.043
20
-108.52
11
148.12
21
-108.504
0
LINE
8
BLACK
6
CONTINUOUS
10
148.12
20
-108.504
11
148.199
21
-108.504
0
LINE
8
BLACK
6
CONTINUOUS
10
148.199
20
-108.504
11
148.276
21
-108.52
0
LINE
8
BLACK
6
CONTINUOUS
10
148.276
20
-108.52
11
148.349
21
-108.55
0
LINE
8
BLACK
6
CONTINUOUS
10
148.349
20
-108.55
11
148.415
21
-108.594
0
LINE
8
BLACK
6
CONTINUOUS
10
148.415
20
-108.594
11
148.47
21
-108.65
0
LINE
8
BLACK
6
CONTINUOUS
10
148.47
20
-108.65
11
148.514
21
-108.715
0
LINE
8
BLACK
6
CONTINUOUS
10
148.514
20
-108.715
11
148.544
21
-108.788
0
LINE
8
BLACK
6
CONTINUOUS
10
148.544
20
-108.788
11
148.56
21
-108.865
0
LINE
8
BLACK
6
CONTINUOUS
10
148.56
20
-108.865
11
148.56
21
-108.944
0
LINE
8
BLACK
6
CONTINUOUS
10
148.56
20
-108.944
11
148.544
21
-109.021
0
LINE
8
BLACK
6
CONTINUOUS
10
148.544
20
-109.021
11
148.514
21
-109.094
0
LINE
8
BLACK
6
CONTINUOUS
10
148.514
20
-109.094
11
148.47
21
-109.159
0
LINE
8
BLACK
6
CONTINUOUS
10
148.47
20
-109.159
11
148.415
21
-109.215
0
LINE
8
BLACK
6
CONTINUOUS
10
148.415
20
-109.215
11
148.349
21
-109.259
0
LINE
8
BLACK
6
CONTINUOUS
10
148.349
20
-109.259
11
148.276
21
-109.289
0
LINE
8
BLACK
6
CONTINUOUS
10
148.276
20
-109.289
11
148.199
21
-109.304
0
LINE
8
BLACK
6
CONTINUOUS
10
148.199
20
-109.304
11
148.12
21
-109.304
0
LINE
8
BLACK
6
CONTINUOUS
10
148.12
20
-109.304
11
148.043
21
-109.289
0
LINE
8
BLACK
6
CONTINUOUS
10
148.043
20
-109.289
11
147.97
21
-109.259
0
LINE
8
BLACK
6
CONTINUOUS
10
147.97
20
-109.259
11
147.905
21
-109.215
0
LINE
8
BLACK
6
CONTINUOUS
10
147.905
20
-109.215
11
147.849
21
-109.159
0
LINE
8
BLACK
6
CONTINUOUS
10
147.849
20
-109.159
11
147.805
21
-109.094
0
LINE
8
BLACK
6
CONTINUOUS
10
147.805
20
-109.094
11
147.775
21
-109.021
0
LINE
8
BLACK
6
CONTINUOUS
10
147.775
20
-109.021
11
147.76
21
-108.944
0
LINE
8
BLACK
6
CONTINUOUS
10
147.76
20
-108.944
11
147.76
21
-108.865
0
LINE
8
BLACK
6
CONTINUOUS
10
147.76
20
-108.865
11
147.775
21
-108.788
0
LINE
8
BLACK
6
CONTINUOUS
10
147.775
20
-108.788
11
147.802
21
-108.723
0
LINE
8
BLACK
6
CONTINUOUS
10
147.802
20
-108.723
11
135.215
21
-96.136
0
LINE
8
BLACK
6
CONTINUOUS
10
135.215
20
-96.136
11
135.21
21
-96.1321
0
LINE
8
BLACK
6
CONTINUOUS
10
135.21
20
-96.1321
11
135.206
21
-96.1273
0
LINE
8
BLACK
6
CONTINUOUS
10
135.206
20
-96.1273
11
135.194
21
-96.1131
0
LINE
8
BLACK
6
CONTINUOUS
10
135.194
20
-96.1131
11
135.183
21
-96.0914
0
LINE
8
BLACK
6
CONTINUOUS
10
135.183
20
-96.0914
11
135.175
21
-96.0678
0
LINE
8
BLACK
6
CONTINUOUS
10
135.175
20
-96.0678
11
135.175
21
-96.0658
0
LINE
8
BLACK
6
CONTINUOUS
10
135.175
20
-96.0658
11
135.174
21
-96.0494
0
LINE
8
BLACK
6
CONTINUOUS
10
135.174
20
-96.0494
11
135.173
21
-96.0433
0
LINE
8
BLACK
6
CONTINUOUS
10
135.173
20
-96.0433
11
135.174
21
-96.0372
0
LINE
8
BLACK
6
CONTINUOUS
10
135.174
20
-96.0372
11
135.174
21
-93.8852
0
LINE
8
BLACK
6
CONTINUOUS
10
135.174
20
-93.8852
11
135.109
21
-93.8585
0
LINE
8
BLACK
6
CONTINUOUS
10
135.109
20
-93.8585
11
135.044
21
-93.8147
0
LINE
8
BLACK
6
CONTINUOUS
10
135.044
20
-93.8147
11
134.988
21
-93.759
0
LINE
8
BLACK
6
CONTINUOUS
10
134.988
20
-93.759
11
134.944
21
-93.6935
0
LINE
8
BLACK
6
CONTINUOUS
10
134.944
20
-93.6935
11
134.914
21
-93.6207
0
LINE
8
BLACK
6
CONTINUOUS
10
134.914
20
-93.6207
11
134.899
21
-93.5434
0
LINE
8
BLACK
6
CONTINUOUS
10
134.899
20
-93.5434
11
134.899
21
-93.4646
0
LINE
8
BLACK
6
CONTINUOUS
10
134.899
20
-93.4646
11
134.914
21
-93.3873
0
LINE
8
BLACK
6
CONTINUOUS
10
134.914
20
-93.3873
11
134.944
21
-93.3145
0
LINE
8
BLACK
6
CONTINUOUS
10
134.944
20
-93.3145
11
134.988
21
-93.249
0
LINE
8
BLACK
6
CONTINUOUS
10
134.988
20
-93.249
11
135.044
21
-93.1933
0
LINE
8
BLACK
6
CONTINUOUS
10
135.044
20
-93.1933
11
135.109
21
-93.1495
0
LINE
8
BLACK
6
CONTINUOUS
10
135.109
20
-93.1495
11
135.182
21
-93.1194
0
LINE
8
BLACK
6
CONTINUOUS
10
135.182
20
-93.1194
11
135.259
21
-93.104
0
LINE
8
BLACK
6
CONTINUOUS
10
135.259
20
-93.104
11
135.338
21
-93.104
0
LINE
8
BLACK
6
CONTINUOUS
10
135.338
20
-93.104
11
135.415
21
-93.1194
0
LINE
8
BLACK
6
CONTINUOUS
10
143.668
20
-127.259
11
143.781
21
-127.293
0
LINE
8
BLACK
6
CONTINUOUS
10
143.781
20
-127.293
11
143.885
21
-127.349
0
LINE
8
BLACK
6
CONTINUOUS
10
143.885
20
-127.349
11
143.976
21
-127.424
0
LINE
8
BLACK
6
CONTINUOUS
10
143.976
20
-127.424
11
144.051
21
-127.515
0
LINE
8
BLACK
6
CONTINUOUS
10
144.051
20
-127.515
11
144.107
21
-127.619
0
LINE
8
BLACK
6
CONTINUOUS
10
144.107
20
-127.619
11
144.141
21
-127.732
0
LINE
8
BLACK
6
CONTINUOUS
10
144.141
20
-127.732
11
144.15
21
-127.821
0
LINE
8
BLACK
6
CONTINUOUS
10
144.15
20
-127.821
11
144.15
21
-129.079
0
LINE
8
BLACK
6
CONTINUOUS
10
144.15
20
-129.079
11
144.141
21
-129.168
0
LINE
8
BLACK
6
CONTINUOUS
10
144.141
20
-129.168
11
144.107
21
-129.281
0
LINE
8
BLACK
6
CONTINUOUS
10
144.107
20
-129.281
11
144.051
21
-129.385
0
LINE
8
BLACK
6
CONTINUOUS
10
144.051
20
-129.385
11
143.976
21
-129.476
0
LINE
8
BLACK
6
CONTINUOUS
10
143.976
20
-129.476
11
143.885
21
-129.551
0
LINE
8
BLACK
6
CONTINUOUS
10
143.885
20
-129.551
11
143.781
21
-129.607
0
LINE
8
BLACK
6
CONTINUOUS
10
143.781
20
-129.607
11
143.668
21
-129.641
0
LINE
8
BLACK
6
CONTINUOUS
10
143.668
20
-129.641
11
143.55
21
-129.653
0
LINE
8
BLACK
6
CONTINUOUS
10
143.55
20
-129.653
11
143.432
21
-129.641
0
LINE
8
BLACK
6
CONTINUOUS
10
143.432
20
-129.641
11
143.319
21
-129.607
0
LINE
8
BLACK
6
CONTINUOUS
10
143.319
20
-129.607
11
143.215
21
-129.551
0
LINE
8
BLACK
6
CONTINUOUS
10
143.215
20
-129.551
11
143.124
21
-129.476
0
LINE
8
BLACK
6
CONTINUOUS
10
143.124
20
-129.476
11
143.049
21
-129.385
0
LINE
8
BLACK
6
CONTINUOUS
10
143.049
20
-129.385
11
142.993
21
-129.281
0
LINE
8
BLACK
6
CONTINUOUS
10
142.993
20
-129.281
11
142.959
21
-129.168
0
LINE
8
BLACK
6
CONTINUOUS
10
142.959
20
-129.168
11
142.95
21
-129.079
0
LINE
8
BLACK
6
CONTINUOUS
10
142.95
20
-129.079
11
142.95
21
-127.821
0
LINE
8
BLACK
6
CONTINUOUS
10
142.95
20
-127.821
11
142.959
21
-127.732
0
LINE
8
BLACK
6
CONTINUOUS
10
142.959
20
-127.732
11
142.993
21
-127.619
0
LINE
8
BLACK
6
CONTINUOUS
10
142.993
20
-127.619
11
143.049
21
-127.515
0
LINE
8
BLACK
6
CONTINUOUS
10
143.049
20
-127.515
11
143.124
21
-127.424
0
LINE
8
BLACK
6
CONTINUOUS
10
143.124
20
-127.424
11
143.215
21
-127.349
0
LINE
8
BLACK
6
CONTINUOUS
10
143.215
20
-127.349
11
143.319
21
-127.293
0
LINE
8
BLACK
6
CONTINUOUS
10
143.319
20
-127.293
11
143.432
21
-127.259
0
LINE
8
BLACK
6
CONTINUOUS
10
143.432
20
-127.259
11
143.55
21
-127.247
0
LINE
8
BLACK
6
CONTINUOUS
10
143.55
20
-127.247
11
143.668
21
-127.259
0
LINE
8
BLACK
6
CONTINUOUS
10
153.568
20
-127.259
11
153.681
21
-127.293
0
LINE
8
BLACK
6
CONTINUOUS
10
153.681
20
-127.293
11
153.785
21
-127.349
0
LINE
8
BLACK
6
CONTINUOUS
10
153.785
20
-127.349
11
153.876
21
-127.424
0
LINE
8
BLACK
6
CONTINUOUS
10
153.876
20
-127.424
11
153.951
21
-127.515
0
LINE
8
BLACK
6
CONTINUOUS
10
153.951
20
-127.515
11
154.007
21
-127.619
0
LINE
8
BLACK
6
CONTINUOUS
10
154.007
20
-127.619
11
154.041
21
-127.732
0
LINE
8
BLACK
6
CONTINUOUS
10
154.041
20
-127.732
11
154.05
21
-127.821
0
LINE
8
BLACK
6
CONTINUOUS
10
154.05
20
-127.821
11
154.05
21
-129.079
0
LINE
8
BLACK
6
CONTINUOUS
10
154.05
20
-129.079
11
154.041
21
-129.168
0
LINE
8
BLACK
6
CONTINUOUS
10
154.041
20
-129.168
11
154.007
21
-129.281
0
LINE
8
BLACK
6
CONTINUOUS
10
154.007
20
-129.281
11
153.951
21
-129.385
0
LINE
8
BLACK
6
CONTINUOUS
10
153.951
20
-129.385
11
153.876
21
-129.476
0
LINE
8
BLACK
6
CONTINUOUS
10
153.876
20
-129.476
11
153.785
21
-129.551
0
LINE
8
BLACK
6
CONTINUOUS
10
153.785
20
-129.551
11
153.681
21
-129.607
0
LINE
8
BLACK
6
CONTINUOUS
10
153.681
20
-129.607
11
153.568
21
-129.641
0
LINE
8
BLACK
6
CONTINUOUS
10
153.568
20
-129.641
11
153.45
21
-129.653
0
LINE
8
BLACK
6
CONTINUOUS
10
153.45
20
-129.653
11
153.332
21
-129.641
0
LINE
8
BLACK
6
CONTINUOUS
10
153.332
20
-129.641
11
153.219
21
-129.607
0
LINE
8
BLACK
6
CONTINUOUS
10
153.219
20
-129.607
11
153.115
21
-129.551
0
LINE
8
BLACK
6
CONTINUOUS
10
153.115
20
-129.551
11
153.024
21
-129.476
0
LINE
8
BLACK
6
CONTINUOUS
10
153.024
20
-129.476
11
152.949
21
-129.385
0
LINE
8
BLACK
6
CONTINUOUS
10
152.949
20
-129.385
11
152.893
21
-129.281
0
LINE
8
BLACK
6
CONTINUOUS
10
152.893
20
-129.281
11
152.859
21
-129.168
0
LINE
8
BLACK
6
CONTINUOUS
10
152.859
20
-129.168
11
152.85
21
-129.079
0
LINE
8
BLACK
6
CONTINUOUS
10
152.85
20
-129.079
11
152.85
21
-127.821
0
LINE
8
BLACK
6
CONTINUOUS
10
152.85
20
-127.821
11
152.859
21
-127.732
0
LINE
8
BLACK
6
CONTINUOUS
10
152.859
20
-127.732
11
152.893
21
-127.619
0
LINE
8
BLACK
6
CONTINUOUS
10
152.893
20
-127.619
11
152.949
21
-127.515
0
LINE
8
BLACK
6
CONTINUOUS
10
152.949
20
-127.515
11
153.024
21
-127.424
0
LINE
8
BLACK
6
CONTINUOUS
10
153.024
20
-127.424
11
153.115
21
-127.349
0
LINE
8
BLACK
6
CONTINUOUS
10
153.115
20
-127.349
11
153.219
21
-127.293
0
LINE
8
BLACK
6
CONTINUOUS
10
153.219
20
-127.293
11
153.332
21
-127.259
0
LINE
8
BLACK
6
CONTINUOUS
10
153.332
20
-127.259
11
153.45
21
-127.247
0
LINE
8
BLACK
6
CONTINUOUS
10
153.45
20
-127.247
11
153.568
21
-127.259
0
CIRCLE
8
BLACK
10
149.752
20
-106.655
40
0.2
0
CIRCLE
8
BLACK
10
135.564
20
-108.971
40
0.2
0
CIRCLE
8
BLACK
10
135.299
20
-93.504
40
0.2
0
CIRCLE
8
BLACK
10
148.16
20
-108.904
40
0.2
  0
ENDSEC
  0
EOF
