G04 #@! TF.GenerationSoftware,KiCad,Pcbnew,(5.1.0)-1*
G04 #@! TF.CreationDate,2019-04-02T16:52:52+02:00*
G04 #@! TF.ProjectId,FrogINT_PCBProto_V1811062154,46726f67-494e-4545-9f50-434250726f74,rev?*
G04 #@! TF.SameCoordinates,Original*
G04 #@! TF.FileFunction,Paste,Top*
G04 #@! TF.FilePolarity,Positive*
%FSLAX46Y46*%
G04 Gerber Fmt 4.6, Leading zero omitted, Abs format (unit mm)*
G04 Created by KiCad (PCBNEW (5.1.0)-1) date 2019-04-02 16:52:52*
%MOMM*%
%LPD*%
G04 APERTURE LIST*
%ADD10O,2.900000X1.400000*%
%ADD11R,3.430000X0.850000*%
%ADD12R,0.450000X1.100000*%
%ADD13R,2.100000X1.725000*%
%ADD14C,0.100000*%
%ADD15C,1.050000*%
%ADD16C,0.875000*%
%ADD17R,1.500000X0.550000*%
%ADD18R,0.550000X1.500000*%
G04 APERTURE END LIST*
D10*
X166298000Y-104746000D03*
X166298000Y-106646000D03*
X169818000Y-106646000D03*
X169818000Y-104746000D03*
X169818000Y-102846000D03*
X166298000Y-102846000D03*
X154360000Y-88236000D03*
X154360000Y-90136000D03*
X157880000Y-90136000D03*
X157880000Y-88236000D03*
X157880000Y-86336000D03*
X154360000Y-86336000D03*
X133532000Y-92554000D03*
X133532000Y-94454000D03*
X137052000Y-94454000D03*
X137052000Y-92554000D03*
X137052000Y-90654000D03*
X133532000Y-90654000D03*
D11*
X142912000Y-120762000D03*
X142912000Y-116162000D03*
D12*
X149800000Y-122830000D03*
X149150000Y-122830000D03*
X148500000Y-122830000D03*
X147850000Y-122830000D03*
X147200000Y-122830000D03*
D13*
X157972000Y-104166500D03*
X160872000Y-104166500D03*
X160872000Y-106341500D03*
X157972000Y-106341500D03*
D14*
G36*
X138639505Y-118029204D02*
G01*
X138663773Y-118032804D01*
X138687572Y-118038765D01*
X138710671Y-118047030D01*
X138732850Y-118057520D01*
X138753893Y-118070132D01*
X138773599Y-118084747D01*
X138791777Y-118101223D01*
X138808253Y-118119401D01*
X138822868Y-118139107D01*
X138835480Y-118160150D01*
X138845970Y-118182329D01*
X138854235Y-118205428D01*
X138860196Y-118229227D01*
X138863796Y-118253495D01*
X138865000Y-118277999D01*
X138865000Y-118903001D01*
X138863796Y-118927505D01*
X138860196Y-118951773D01*
X138854235Y-118975572D01*
X138845970Y-118998671D01*
X138835480Y-119020850D01*
X138822868Y-119041893D01*
X138808253Y-119061599D01*
X138791777Y-119079777D01*
X138773599Y-119096253D01*
X138753893Y-119110868D01*
X138732850Y-119123480D01*
X138710671Y-119133970D01*
X138687572Y-119142235D01*
X138663773Y-119148196D01*
X138639505Y-119151796D01*
X138615001Y-119153000D01*
X138064999Y-119153000D01*
X138040495Y-119151796D01*
X138016227Y-119148196D01*
X137992428Y-119142235D01*
X137969329Y-119133970D01*
X137947150Y-119123480D01*
X137926107Y-119110868D01*
X137906401Y-119096253D01*
X137888223Y-119079777D01*
X137871747Y-119061599D01*
X137857132Y-119041893D01*
X137844520Y-119020850D01*
X137834030Y-118998671D01*
X137825765Y-118975572D01*
X137819804Y-118951773D01*
X137816204Y-118927505D01*
X137815000Y-118903001D01*
X137815000Y-118277999D01*
X137816204Y-118253495D01*
X137819804Y-118229227D01*
X137825765Y-118205428D01*
X137834030Y-118182329D01*
X137844520Y-118160150D01*
X137857132Y-118139107D01*
X137871747Y-118119401D01*
X137888223Y-118101223D01*
X137906401Y-118084747D01*
X137926107Y-118070132D01*
X137947150Y-118057520D01*
X137969329Y-118047030D01*
X137992428Y-118038765D01*
X138016227Y-118032804D01*
X138040495Y-118029204D01*
X138064999Y-118028000D01*
X138615001Y-118028000D01*
X138639505Y-118029204D01*
X138639505Y-118029204D01*
G37*
D15*
X138340000Y-118590500D03*
D14*
G36*
X138639505Y-119804204D02*
G01*
X138663773Y-119807804D01*
X138687572Y-119813765D01*
X138710671Y-119822030D01*
X138732850Y-119832520D01*
X138753893Y-119845132D01*
X138773599Y-119859747D01*
X138791777Y-119876223D01*
X138808253Y-119894401D01*
X138822868Y-119914107D01*
X138835480Y-119935150D01*
X138845970Y-119957329D01*
X138854235Y-119980428D01*
X138860196Y-120004227D01*
X138863796Y-120028495D01*
X138865000Y-120052999D01*
X138865000Y-120678001D01*
X138863796Y-120702505D01*
X138860196Y-120726773D01*
X138854235Y-120750572D01*
X138845970Y-120773671D01*
X138835480Y-120795850D01*
X138822868Y-120816893D01*
X138808253Y-120836599D01*
X138791777Y-120854777D01*
X138773599Y-120871253D01*
X138753893Y-120885868D01*
X138732850Y-120898480D01*
X138710671Y-120908970D01*
X138687572Y-120917235D01*
X138663773Y-120923196D01*
X138639505Y-120926796D01*
X138615001Y-120928000D01*
X138064999Y-120928000D01*
X138040495Y-120926796D01*
X138016227Y-120923196D01*
X137992428Y-120917235D01*
X137969329Y-120908970D01*
X137947150Y-120898480D01*
X137926107Y-120885868D01*
X137906401Y-120871253D01*
X137888223Y-120854777D01*
X137871747Y-120836599D01*
X137857132Y-120816893D01*
X137844520Y-120795850D01*
X137834030Y-120773671D01*
X137825765Y-120750572D01*
X137819804Y-120726773D01*
X137816204Y-120702505D01*
X137815000Y-120678001D01*
X137815000Y-120052999D01*
X137816204Y-120028495D01*
X137819804Y-120004227D01*
X137825765Y-119980428D01*
X137834030Y-119957329D01*
X137844520Y-119935150D01*
X137857132Y-119914107D01*
X137871747Y-119894401D01*
X137888223Y-119876223D01*
X137906401Y-119859747D01*
X137926107Y-119845132D01*
X137947150Y-119832520D01*
X137969329Y-119822030D01*
X137992428Y-119813765D01*
X138016227Y-119807804D01*
X138040495Y-119804204D01*
X138064999Y-119803000D01*
X138615001Y-119803000D01*
X138639505Y-119804204D01*
X138639505Y-119804204D01*
G37*
D15*
X138340000Y-120365500D03*
D14*
G36*
X147275505Y-95928204D02*
G01*
X147299773Y-95931804D01*
X147323572Y-95937765D01*
X147346671Y-95946030D01*
X147368850Y-95956520D01*
X147389893Y-95969132D01*
X147409599Y-95983747D01*
X147427777Y-96000223D01*
X147444253Y-96018401D01*
X147458868Y-96038107D01*
X147471480Y-96059150D01*
X147481970Y-96081329D01*
X147490235Y-96104428D01*
X147496196Y-96128227D01*
X147499796Y-96152495D01*
X147501000Y-96176999D01*
X147501000Y-96802001D01*
X147499796Y-96826505D01*
X147496196Y-96850773D01*
X147490235Y-96874572D01*
X147481970Y-96897671D01*
X147471480Y-96919850D01*
X147458868Y-96940893D01*
X147444253Y-96960599D01*
X147427777Y-96978777D01*
X147409599Y-96995253D01*
X147389893Y-97009868D01*
X147368850Y-97022480D01*
X147346671Y-97032970D01*
X147323572Y-97041235D01*
X147299773Y-97047196D01*
X147275505Y-97050796D01*
X147251001Y-97052000D01*
X146700999Y-97052000D01*
X146676495Y-97050796D01*
X146652227Y-97047196D01*
X146628428Y-97041235D01*
X146605329Y-97032970D01*
X146583150Y-97022480D01*
X146562107Y-97009868D01*
X146542401Y-96995253D01*
X146524223Y-96978777D01*
X146507747Y-96960599D01*
X146493132Y-96940893D01*
X146480520Y-96919850D01*
X146470030Y-96897671D01*
X146461765Y-96874572D01*
X146455804Y-96850773D01*
X146452204Y-96826505D01*
X146451000Y-96802001D01*
X146451000Y-96176999D01*
X146452204Y-96152495D01*
X146455804Y-96128227D01*
X146461765Y-96104428D01*
X146470030Y-96081329D01*
X146480520Y-96059150D01*
X146493132Y-96038107D01*
X146507747Y-96018401D01*
X146524223Y-96000223D01*
X146542401Y-95983747D01*
X146562107Y-95969132D01*
X146583150Y-95956520D01*
X146605329Y-95946030D01*
X146628428Y-95937765D01*
X146652227Y-95931804D01*
X146676495Y-95928204D01*
X146700999Y-95927000D01*
X147251001Y-95927000D01*
X147275505Y-95928204D01*
X147275505Y-95928204D01*
G37*
D15*
X146976000Y-96489500D03*
D14*
G36*
X147275505Y-94153204D02*
G01*
X147299773Y-94156804D01*
X147323572Y-94162765D01*
X147346671Y-94171030D01*
X147368850Y-94181520D01*
X147389893Y-94194132D01*
X147409599Y-94208747D01*
X147427777Y-94225223D01*
X147444253Y-94243401D01*
X147458868Y-94263107D01*
X147471480Y-94284150D01*
X147481970Y-94306329D01*
X147490235Y-94329428D01*
X147496196Y-94353227D01*
X147499796Y-94377495D01*
X147501000Y-94401999D01*
X147501000Y-95027001D01*
X147499796Y-95051505D01*
X147496196Y-95075773D01*
X147490235Y-95099572D01*
X147481970Y-95122671D01*
X147471480Y-95144850D01*
X147458868Y-95165893D01*
X147444253Y-95185599D01*
X147427777Y-95203777D01*
X147409599Y-95220253D01*
X147389893Y-95234868D01*
X147368850Y-95247480D01*
X147346671Y-95257970D01*
X147323572Y-95266235D01*
X147299773Y-95272196D01*
X147275505Y-95275796D01*
X147251001Y-95277000D01*
X146700999Y-95277000D01*
X146676495Y-95275796D01*
X146652227Y-95272196D01*
X146628428Y-95266235D01*
X146605329Y-95257970D01*
X146583150Y-95247480D01*
X146562107Y-95234868D01*
X146542401Y-95220253D01*
X146524223Y-95203777D01*
X146507747Y-95185599D01*
X146493132Y-95165893D01*
X146480520Y-95144850D01*
X146470030Y-95122671D01*
X146461765Y-95099572D01*
X146455804Y-95075773D01*
X146452204Y-95051505D01*
X146451000Y-95027001D01*
X146451000Y-94401999D01*
X146452204Y-94377495D01*
X146455804Y-94353227D01*
X146461765Y-94329428D01*
X146470030Y-94306329D01*
X146480520Y-94284150D01*
X146493132Y-94263107D01*
X146507747Y-94243401D01*
X146524223Y-94225223D01*
X146542401Y-94208747D01*
X146562107Y-94194132D01*
X146583150Y-94181520D01*
X146605329Y-94171030D01*
X146628428Y-94162765D01*
X146652227Y-94156804D01*
X146676495Y-94153204D01*
X146700999Y-94152000D01*
X147251001Y-94152000D01*
X147275505Y-94153204D01*
X147275505Y-94153204D01*
G37*
D15*
X146976000Y-94714500D03*
D14*
G36*
X154641505Y-101773204D02*
G01*
X154665773Y-101776804D01*
X154689572Y-101782765D01*
X154712671Y-101791030D01*
X154734850Y-101801520D01*
X154755893Y-101814132D01*
X154775599Y-101828747D01*
X154793777Y-101845223D01*
X154810253Y-101863401D01*
X154824868Y-101883107D01*
X154837480Y-101904150D01*
X154847970Y-101926329D01*
X154856235Y-101949428D01*
X154862196Y-101973227D01*
X154865796Y-101997495D01*
X154867000Y-102021999D01*
X154867000Y-102647001D01*
X154865796Y-102671505D01*
X154862196Y-102695773D01*
X154856235Y-102719572D01*
X154847970Y-102742671D01*
X154837480Y-102764850D01*
X154824868Y-102785893D01*
X154810253Y-102805599D01*
X154793777Y-102823777D01*
X154775599Y-102840253D01*
X154755893Y-102854868D01*
X154734850Y-102867480D01*
X154712671Y-102877970D01*
X154689572Y-102886235D01*
X154665773Y-102892196D01*
X154641505Y-102895796D01*
X154617001Y-102897000D01*
X154066999Y-102897000D01*
X154042495Y-102895796D01*
X154018227Y-102892196D01*
X153994428Y-102886235D01*
X153971329Y-102877970D01*
X153949150Y-102867480D01*
X153928107Y-102854868D01*
X153908401Y-102840253D01*
X153890223Y-102823777D01*
X153873747Y-102805599D01*
X153859132Y-102785893D01*
X153846520Y-102764850D01*
X153836030Y-102742671D01*
X153827765Y-102719572D01*
X153821804Y-102695773D01*
X153818204Y-102671505D01*
X153817000Y-102647001D01*
X153817000Y-102021999D01*
X153818204Y-101997495D01*
X153821804Y-101973227D01*
X153827765Y-101949428D01*
X153836030Y-101926329D01*
X153846520Y-101904150D01*
X153859132Y-101883107D01*
X153873747Y-101863401D01*
X153890223Y-101845223D01*
X153908401Y-101828747D01*
X153928107Y-101814132D01*
X153949150Y-101801520D01*
X153971329Y-101791030D01*
X153994428Y-101782765D01*
X154018227Y-101776804D01*
X154042495Y-101773204D01*
X154066999Y-101772000D01*
X154617001Y-101772000D01*
X154641505Y-101773204D01*
X154641505Y-101773204D01*
G37*
D15*
X154342000Y-102334500D03*
D14*
G36*
X154641505Y-103548204D02*
G01*
X154665773Y-103551804D01*
X154689572Y-103557765D01*
X154712671Y-103566030D01*
X154734850Y-103576520D01*
X154755893Y-103589132D01*
X154775599Y-103603747D01*
X154793777Y-103620223D01*
X154810253Y-103638401D01*
X154824868Y-103658107D01*
X154837480Y-103679150D01*
X154847970Y-103701329D01*
X154856235Y-103724428D01*
X154862196Y-103748227D01*
X154865796Y-103772495D01*
X154867000Y-103796999D01*
X154867000Y-104422001D01*
X154865796Y-104446505D01*
X154862196Y-104470773D01*
X154856235Y-104494572D01*
X154847970Y-104517671D01*
X154837480Y-104539850D01*
X154824868Y-104560893D01*
X154810253Y-104580599D01*
X154793777Y-104598777D01*
X154775599Y-104615253D01*
X154755893Y-104629868D01*
X154734850Y-104642480D01*
X154712671Y-104652970D01*
X154689572Y-104661235D01*
X154665773Y-104667196D01*
X154641505Y-104670796D01*
X154617001Y-104672000D01*
X154066999Y-104672000D01*
X154042495Y-104670796D01*
X154018227Y-104667196D01*
X153994428Y-104661235D01*
X153971329Y-104652970D01*
X153949150Y-104642480D01*
X153928107Y-104629868D01*
X153908401Y-104615253D01*
X153890223Y-104598777D01*
X153873747Y-104580599D01*
X153859132Y-104560893D01*
X153846520Y-104539850D01*
X153836030Y-104517671D01*
X153827765Y-104494572D01*
X153821804Y-104470773D01*
X153818204Y-104446505D01*
X153817000Y-104422001D01*
X153817000Y-103796999D01*
X153818204Y-103772495D01*
X153821804Y-103748227D01*
X153827765Y-103724428D01*
X153836030Y-103701329D01*
X153846520Y-103679150D01*
X153859132Y-103658107D01*
X153873747Y-103638401D01*
X153890223Y-103620223D01*
X153908401Y-103603747D01*
X153928107Y-103589132D01*
X153949150Y-103576520D01*
X153971329Y-103566030D01*
X153994428Y-103557765D01*
X154018227Y-103551804D01*
X154042495Y-103548204D01*
X154066999Y-103547000D01*
X154617001Y-103547000D01*
X154641505Y-103548204D01*
X154641505Y-103548204D01*
G37*
D15*
X154342000Y-104109500D03*
D14*
G36*
X154641505Y-107612204D02*
G01*
X154665773Y-107615804D01*
X154689572Y-107621765D01*
X154712671Y-107630030D01*
X154734850Y-107640520D01*
X154755893Y-107653132D01*
X154775599Y-107667747D01*
X154793777Y-107684223D01*
X154810253Y-107702401D01*
X154824868Y-107722107D01*
X154837480Y-107743150D01*
X154847970Y-107765329D01*
X154856235Y-107788428D01*
X154862196Y-107812227D01*
X154865796Y-107836495D01*
X154867000Y-107860999D01*
X154867000Y-108486001D01*
X154865796Y-108510505D01*
X154862196Y-108534773D01*
X154856235Y-108558572D01*
X154847970Y-108581671D01*
X154837480Y-108603850D01*
X154824868Y-108624893D01*
X154810253Y-108644599D01*
X154793777Y-108662777D01*
X154775599Y-108679253D01*
X154755893Y-108693868D01*
X154734850Y-108706480D01*
X154712671Y-108716970D01*
X154689572Y-108725235D01*
X154665773Y-108731196D01*
X154641505Y-108734796D01*
X154617001Y-108736000D01*
X154066999Y-108736000D01*
X154042495Y-108734796D01*
X154018227Y-108731196D01*
X153994428Y-108725235D01*
X153971329Y-108716970D01*
X153949150Y-108706480D01*
X153928107Y-108693868D01*
X153908401Y-108679253D01*
X153890223Y-108662777D01*
X153873747Y-108644599D01*
X153859132Y-108624893D01*
X153846520Y-108603850D01*
X153836030Y-108581671D01*
X153827765Y-108558572D01*
X153821804Y-108534773D01*
X153818204Y-108510505D01*
X153817000Y-108486001D01*
X153817000Y-107860999D01*
X153818204Y-107836495D01*
X153821804Y-107812227D01*
X153827765Y-107788428D01*
X153836030Y-107765329D01*
X153846520Y-107743150D01*
X153859132Y-107722107D01*
X153873747Y-107702401D01*
X153890223Y-107684223D01*
X153908401Y-107667747D01*
X153928107Y-107653132D01*
X153949150Y-107640520D01*
X153971329Y-107630030D01*
X153994428Y-107621765D01*
X154018227Y-107615804D01*
X154042495Y-107612204D01*
X154066999Y-107611000D01*
X154617001Y-107611000D01*
X154641505Y-107612204D01*
X154641505Y-107612204D01*
G37*
D15*
X154342000Y-108173500D03*
D14*
G36*
X154641505Y-105837204D02*
G01*
X154665773Y-105840804D01*
X154689572Y-105846765D01*
X154712671Y-105855030D01*
X154734850Y-105865520D01*
X154755893Y-105878132D01*
X154775599Y-105892747D01*
X154793777Y-105909223D01*
X154810253Y-105927401D01*
X154824868Y-105947107D01*
X154837480Y-105968150D01*
X154847970Y-105990329D01*
X154856235Y-106013428D01*
X154862196Y-106037227D01*
X154865796Y-106061495D01*
X154867000Y-106085999D01*
X154867000Y-106711001D01*
X154865796Y-106735505D01*
X154862196Y-106759773D01*
X154856235Y-106783572D01*
X154847970Y-106806671D01*
X154837480Y-106828850D01*
X154824868Y-106849893D01*
X154810253Y-106869599D01*
X154793777Y-106887777D01*
X154775599Y-106904253D01*
X154755893Y-106918868D01*
X154734850Y-106931480D01*
X154712671Y-106941970D01*
X154689572Y-106950235D01*
X154665773Y-106956196D01*
X154641505Y-106959796D01*
X154617001Y-106961000D01*
X154066999Y-106961000D01*
X154042495Y-106959796D01*
X154018227Y-106956196D01*
X153994428Y-106950235D01*
X153971329Y-106941970D01*
X153949150Y-106931480D01*
X153928107Y-106918868D01*
X153908401Y-106904253D01*
X153890223Y-106887777D01*
X153873747Y-106869599D01*
X153859132Y-106849893D01*
X153846520Y-106828850D01*
X153836030Y-106806671D01*
X153827765Y-106783572D01*
X153821804Y-106759773D01*
X153818204Y-106735505D01*
X153817000Y-106711001D01*
X153817000Y-106085999D01*
X153818204Y-106061495D01*
X153821804Y-106037227D01*
X153827765Y-106013428D01*
X153836030Y-105990329D01*
X153846520Y-105968150D01*
X153859132Y-105947107D01*
X153873747Y-105927401D01*
X153890223Y-105909223D01*
X153908401Y-105892747D01*
X153928107Y-105878132D01*
X153949150Y-105865520D01*
X153971329Y-105855030D01*
X153994428Y-105846765D01*
X154018227Y-105840804D01*
X154042495Y-105837204D01*
X154066999Y-105836000D01*
X154617001Y-105836000D01*
X154641505Y-105837204D01*
X154641505Y-105837204D01*
G37*
D15*
X154342000Y-106398500D03*
D14*
G36*
X161789505Y-117811204D02*
G01*
X161813773Y-117814804D01*
X161837572Y-117820765D01*
X161860671Y-117829030D01*
X161882850Y-117839520D01*
X161903893Y-117852132D01*
X161923599Y-117866747D01*
X161941777Y-117883223D01*
X161958253Y-117901401D01*
X161972868Y-117921107D01*
X161985480Y-117942150D01*
X161995970Y-117964329D01*
X162004235Y-117987428D01*
X162010196Y-118011227D01*
X162013796Y-118035495D01*
X162015000Y-118059999D01*
X162015000Y-118610001D01*
X162013796Y-118634505D01*
X162010196Y-118658773D01*
X162004235Y-118682572D01*
X161995970Y-118705671D01*
X161985480Y-118727850D01*
X161972868Y-118748893D01*
X161958253Y-118768599D01*
X161941777Y-118786777D01*
X161923599Y-118803253D01*
X161903893Y-118817868D01*
X161882850Y-118830480D01*
X161860671Y-118840970D01*
X161837572Y-118849235D01*
X161813773Y-118855196D01*
X161789505Y-118858796D01*
X161765001Y-118860000D01*
X161139999Y-118860000D01*
X161115495Y-118858796D01*
X161091227Y-118855196D01*
X161067428Y-118849235D01*
X161044329Y-118840970D01*
X161022150Y-118830480D01*
X161001107Y-118817868D01*
X160981401Y-118803253D01*
X160963223Y-118786777D01*
X160946747Y-118768599D01*
X160932132Y-118748893D01*
X160919520Y-118727850D01*
X160909030Y-118705671D01*
X160900765Y-118682572D01*
X160894804Y-118658773D01*
X160891204Y-118634505D01*
X160890000Y-118610001D01*
X160890000Y-118059999D01*
X160891204Y-118035495D01*
X160894804Y-118011227D01*
X160900765Y-117987428D01*
X160909030Y-117964329D01*
X160919520Y-117942150D01*
X160932132Y-117921107D01*
X160946747Y-117901401D01*
X160963223Y-117883223D01*
X160981401Y-117866747D01*
X161001107Y-117852132D01*
X161022150Y-117839520D01*
X161044329Y-117829030D01*
X161067428Y-117820765D01*
X161091227Y-117814804D01*
X161115495Y-117811204D01*
X161139999Y-117810000D01*
X161765001Y-117810000D01*
X161789505Y-117811204D01*
X161789505Y-117811204D01*
G37*
D15*
X161452500Y-118335000D03*
D14*
G36*
X160014505Y-117811204D02*
G01*
X160038773Y-117814804D01*
X160062572Y-117820765D01*
X160085671Y-117829030D01*
X160107850Y-117839520D01*
X160128893Y-117852132D01*
X160148599Y-117866747D01*
X160166777Y-117883223D01*
X160183253Y-117901401D01*
X160197868Y-117921107D01*
X160210480Y-117942150D01*
X160220970Y-117964329D01*
X160229235Y-117987428D01*
X160235196Y-118011227D01*
X160238796Y-118035495D01*
X160240000Y-118059999D01*
X160240000Y-118610001D01*
X160238796Y-118634505D01*
X160235196Y-118658773D01*
X160229235Y-118682572D01*
X160220970Y-118705671D01*
X160210480Y-118727850D01*
X160197868Y-118748893D01*
X160183253Y-118768599D01*
X160166777Y-118786777D01*
X160148599Y-118803253D01*
X160128893Y-118817868D01*
X160107850Y-118830480D01*
X160085671Y-118840970D01*
X160062572Y-118849235D01*
X160038773Y-118855196D01*
X160014505Y-118858796D01*
X159990001Y-118860000D01*
X159364999Y-118860000D01*
X159340495Y-118858796D01*
X159316227Y-118855196D01*
X159292428Y-118849235D01*
X159269329Y-118840970D01*
X159247150Y-118830480D01*
X159226107Y-118817868D01*
X159206401Y-118803253D01*
X159188223Y-118786777D01*
X159171747Y-118768599D01*
X159157132Y-118748893D01*
X159144520Y-118727850D01*
X159134030Y-118705671D01*
X159125765Y-118682572D01*
X159119804Y-118658773D01*
X159116204Y-118634505D01*
X159115000Y-118610001D01*
X159115000Y-118059999D01*
X159116204Y-118035495D01*
X159119804Y-118011227D01*
X159125765Y-117987428D01*
X159134030Y-117964329D01*
X159144520Y-117942150D01*
X159157132Y-117921107D01*
X159171747Y-117901401D01*
X159188223Y-117883223D01*
X159206401Y-117866747D01*
X159226107Y-117852132D01*
X159247150Y-117839520D01*
X159269329Y-117829030D01*
X159292428Y-117820765D01*
X159316227Y-117814804D01*
X159340495Y-117811204D01*
X159364999Y-117810000D01*
X159990001Y-117810000D01*
X160014505Y-117811204D01*
X160014505Y-117811204D01*
G37*
D15*
X159677500Y-118335000D03*
D14*
G36*
X159382691Y-120401053D02*
G01*
X159403926Y-120404203D01*
X159424750Y-120409419D01*
X159444962Y-120416651D01*
X159464368Y-120425830D01*
X159482781Y-120436866D01*
X159500024Y-120449654D01*
X159515930Y-120464070D01*
X159530346Y-120479976D01*
X159543134Y-120497219D01*
X159554170Y-120515632D01*
X159563349Y-120535038D01*
X159570581Y-120555250D01*
X159575797Y-120576074D01*
X159578947Y-120597309D01*
X159580000Y-120618750D01*
X159580000Y-121131250D01*
X159578947Y-121152691D01*
X159575797Y-121173926D01*
X159570581Y-121194750D01*
X159563349Y-121214962D01*
X159554170Y-121234368D01*
X159543134Y-121252781D01*
X159530346Y-121270024D01*
X159515930Y-121285930D01*
X159500024Y-121300346D01*
X159482781Y-121313134D01*
X159464368Y-121324170D01*
X159444962Y-121333349D01*
X159424750Y-121340581D01*
X159403926Y-121345797D01*
X159382691Y-121348947D01*
X159361250Y-121350000D01*
X158923750Y-121350000D01*
X158902309Y-121348947D01*
X158881074Y-121345797D01*
X158860250Y-121340581D01*
X158840038Y-121333349D01*
X158820632Y-121324170D01*
X158802219Y-121313134D01*
X158784976Y-121300346D01*
X158769070Y-121285930D01*
X158754654Y-121270024D01*
X158741866Y-121252781D01*
X158730830Y-121234368D01*
X158721651Y-121214962D01*
X158714419Y-121194750D01*
X158709203Y-121173926D01*
X158706053Y-121152691D01*
X158705000Y-121131250D01*
X158705000Y-120618750D01*
X158706053Y-120597309D01*
X158709203Y-120576074D01*
X158714419Y-120555250D01*
X158721651Y-120535038D01*
X158730830Y-120515632D01*
X158741866Y-120497219D01*
X158754654Y-120479976D01*
X158769070Y-120464070D01*
X158784976Y-120449654D01*
X158802219Y-120436866D01*
X158820632Y-120425830D01*
X158840038Y-120416651D01*
X158860250Y-120409419D01*
X158881074Y-120404203D01*
X158902309Y-120401053D01*
X158923750Y-120400000D01*
X159361250Y-120400000D01*
X159382691Y-120401053D01*
X159382691Y-120401053D01*
G37*
D16*
X159142500Y-120875000D03*
D14*
G36*
X160957691Y-120401053D02*
G01*
X160978926Y-120404203D01*
X160999750Y-120409419D01*
X161019962Y-120416651D01*
X161039368Y-120425830D01*
X161057781Y-120436866D01*
X161075024Y-120449654D01*
X161090930Y-120464070D01*
X161105346Y-120479976D01*
X161118134Y-120497219D01*
X161129170Y-120515632D01*
X161138349Y-120535038D01*
X161145581Y-120555250D01*
X161150797Y-120576074D01*
X161153947Y-120597309D01*
X161155000Y-120618750D01*
X161155000Y-121131250D01*
X161153947Y-121152691D01*
X161150797Y-121173926D01*
X161145581Y-121194750D01*
X161138349Y-121214962D01*
X161129170Y-121234368D01*
X161118134Y-121252781D01*
X161105346Y-121270024D01*
X161090930Y-121285930D01*
X161075024Y-121300346D01*
X161057781Y-121313134D01*
X161039368Y-121324170D01*
X161019962Y-121333349D01*
X160999750Y-121340581D01*
X160978926Y-121345797D01*
X160957691Y-121348947D01*
X160936250Y-121350000D01*
X160498750Y-121350000D01*
X160477309Y-121348947D01*
X160456074Y-121345797D01*
X160435250Y-121340581D01*
X160415038Y-121333349D01*
X160395632Y-121324170D01*
X160377219Y-121313134D01*
X160359976Y-121300346D01*
X160344070Y-121285930D01*
X160329654Y-121270024D01*
X160316866Y-121252781D01*
X160305830Y-121234368D01*
X160296651Y-121214962D01*
X160289419Y-121194750D01*
X160284203Y-121173926D01*
X160281053Y-121152691D01*
X160280000Y-121131250D01*
X160280000Y-120618750D01*
X160281053Y-120597309D01*
X160284203Y-120576074D01*
X160289419Y-120555250D01*
X160296651Y-120535038D01*
X160305830Y-120515632D01*
X160316866Y-120497219D01*
X160329654Y-120479976D01*
X160344070Y-120464070D01*
X160359976Y-120449654D01*
X160377219Y-120436866D01*
X160395632Y-120425830D01*
X160415038Y-120416651D01*
X160435250Y-120409419D01*
X160456074Y-120404203D01*
X160477309Y-120401053D01*
X160498750Y-120400000D01*
X160936250Y-120400000D01*
X160957691Y-120401053D01*
X160957691Y-120401053D01*
G37*
D16*
X160717500Y-120875000D03*
D14*
G36*
X150047691Y-119803053D02*
G01*
X150068926Y-119806203D01*
X150089750Y-119811419D01*
X150109962Y-119818651D01*
X150129368Y-119827830D01*
X150147781Y-119838866D01*
X150165024Y-119851654D01*
X150180930Y-119866070D01*
X150195346Y-119881976D01*
X150208134Y-119899219D01*
X150219170Y-119917632D01*
X150228349Y-119937038D01*
X150235581Y-119957250D01*
X150240797Y-119978074D01*
X150243947Y-119999309D01*
X150245000Y-120020750D01*
X150245000Y-120458250D01*
X150243947Y-120479691D01*
X150240797Y-120500926D01*
X150235581Y-120521750D01*
X150228349Y-120541962D01*
X150219170Y-120561368D01*
X150208134Y-120579781D01*
X150195346Y-120597024D01*
X150180930Y-120612930D01*
X150165024Y-120627346D01*
X150147781Y-120640134D01*
X150129368Y-120651170D01*
X150109962Y-120660349D01*
X150089750Y-120667581D01*
X150068926Y-120672797D01*
X150047691Y-120675947D01*
X150026250Y-120677000D01*
X149513750Y-120677000D01*
X149492309Y-120675947D01*
X149471074Y-120672797D01*
X149450250Y-120667581D01*
X149430038Y-120660349D01*
X149410632Y-120651170D01*
X149392219Y-120640134D01*
X149374976Y-120627346D01*
X149359070Y-120612930D01*
X149344654Y-120597024D01*
X149331866Y-120579781D01*
X149320830Y-120561368D01*
X149311651Y-120541962D01*
X149304419Y-120521750D01*
X149299203Y-120500926D01*
X149296053Y-120479691D01*
X149295000Y-120458250D01*
X149295000Y-120020750D01*
X149296053Y-119999309D01*
X149299203Y-119978074D01*
X149304419Y-119957250D01*
X149311651Y-119937038D01*
X149320830Y-119917632D01*
X149331866Y-119899219D01*
X149344654Y-119881976D01*
X149359070Y-119866070D01*
X149374976Y-119851654D01*
X149392219Y-119838866D01*
X149410632Y-119827830D01*
X149430038Y-119818651D01*
X149450250Y-119811419D01*
X149471074Y-119806203D01*
X149492309Y-119803053D01*
X149513750Y-119802000D01*
X150026250Y-119802000D01*
X150047691Y-119803053D01*
X150047691Y-119803053D01*
G37*
D16*
X149770000Y-120239500D03*
D14*
G36*
X150047691Y-118228053D02*
G01*
X150068926Y-118231203D01*
X150089750Y-118236419D01*
X150109962Y-118243651D01*
X150129368Y-118252830D01*
X150147781Y-118263866D01*
X150165024Y-118276654D01*
X150180930Y-118291070D01*
X150195346Y-118306976D01*
X150208134Y-118324219D01*
X150219170Y-118342632D01*
X150228349Y-118362038D01*
X150235581Y-118382250D01*
X150240797Y-118403074D01*
X150243947Y-118424309D01*
X150245000Y-118445750D01*
X150245000Y-118883250D01*
X150243947Y-118904691D01*
X150240797Y-118925926D01*
X150235581Y-118946750D01*
X150228349Y-118966962D01*
X150219170Y-118986368D01*
X150208134Y-119004781D01*
X150195346Y-119022024D01*
X150180930Y-119037930D01*
X150165024Y-119052346D01*
X150147781Y-119065134D01*
X150129368Y-119076170D01*
X150109962Y-119085349D01*
X150089750Y-119092581D01*
X150068926Y-119097797D01*
X150047691Y-119100947D01*
X150026250Y-119102000D01*
X149513750Y-119102000D01*
X149492309Y-119100947D01*
X149471074Y-119097797D01*
X149450250Y-119092581D01*
X149430038Y-119085349D01*
X149410632Y-119076170D01*
X149392219Y-119065134D01*
X149374976Y-119052346D01*
X149359070Y-119037930D01*
X149344654Y-119022024D01*
X149331866Y-119004781D01*
X149320830Y-118986368D01*
X149311651Y-118966962D01*
X149304419Y-118946750D01*
X149299203Y-118925926D01*
X149296053Y-118904691D01*
X149295000Y-118883250D01*
X149295000Y-118445750D01*
X149296053Y-118424309D01*
X149299203Y-118403074D01*
X149304419Y-118382250D01*
X149311651Y-118362038D01*
X149320830Y-118342632D01*
X149331866Y-118324219D01*
X149344654Y-118306976D01*
X149359070Y-118291070D01*
X149374976Y-118276654D01*
X149392219Y-118263866D01*
X149410632Y-118252830D01*
X149430038Y-118243651D01*
X149450250Y-118236419D01*
X149471074Y-118231203D01*
X149492309Y-118228053D01*
X149513750Y-118227000D01*
X150026250Y-118227000D01*
X150047691Y-118228053D01*
X150047691Y-118228053D01*
G37*
D16*
X149770000Y-118664500D03*
D14*
G36*
X148142691Y-119803053D02*
G01*
X148163926Y-119806203D01*
X148184750Y-119811419D01*
X148204962Y-119818651D01*
X148224368Y-119827830D01*
X148242781Y-119838866D01*
X148260024Y-119851654D01*
X148275930Y-119866070D01*
X148290346Y-119881976D01*
X148303134Y-119899219D01*
X148314170Y-119917632D01*
X148323349Y-119937038D01*
X148330581Y-119957250D01*
X148335797Y-119978074D01*
X148338947Y-119999309D01*
X148340000Y-120020750D01*
X148340000Y-120458250D01*
X148338947Y-120479691D01*
X148335797Y-120500926D01*
X148330581Y-120521750D01*
X148323349Y-120541962D01*
X148314170Y-120561368D01*
X148303134Y-120579781D01*
X148290346Y-120597024D01*
X148275930Y-120612930D01*
X148260024Y-120627346D01*
X148242781Y-120640134D01*
X148224368Y-120651170D01*
X148204962Y-120660349D01*
X148184750Y-120667581D01*
X148163926Y-120672797D01*
X148142691Y-120675947D01*
X148121250Y-120677000D01*
X147608750Y-120677000D01*
X147587309Y-120675947D01*
X147566074Y-120672797D01*
X147545250Y-120667581D01*
X147525038Y-120660349D01*
X147505632Y-120651170D01*
X147487219Y-120640134D01*
X147469976Y-120627346D01*
X147454070Y-120612930D01*
X147439654Y-120597024D01*
X147426866Y-120579781D01*
X147415830Y-120561368D01*
X147406651Y-120541962D01*
X147399419Y-120521750D01*
X147394203Y-120500926D01*
X147391053Y-120479691D01*
X147390000Y-120458250D01*
X147390000Y-120020750D01*
X147391053Y-119999309D01*
X147394203Y-119978074D01*
X147399419Y-119957250D01*
X147406651Y-119937038D01*
X147415830Y-119917632D01*
X147426866Y-119899219D01*
X147439654Y-119881976D01*
X147454070Y-119866070D01*
X147469976Y-119851654D01*
X147487219Y-119838866D01*
X147505632Y-119827830D01*
X147525038Y-119818651D01*
X147545250Y-119811419D01*
X147566074Y-119806203D01*
X147587309Y-119803053D01*
X147608750Y-119802000D01*
X148121250Y-119802000D01*
X148142691Y-119803053D01*
X148142691Y-119803053D01*
G37*
D16*
X147865000Y-120239500D03*
D14*
G36*
X148142691Y-118228053D02*
G01*
X148163926Y-118231203D01*
X148184750Y-118236419D01*
X148204962Y-118243651D01*
X148224368Y-118252830D01*
X148242781Y-118263866D01*
X148260024Y-118276654D01*
X148275930Y-118291070D01*
X148290346Y-118306976D01*
X148303134Y-118324219D01*
X148314170Y-118342632D01*
X148323349Y-118362038D01*
X148330581Y-118382250D01*
X148335797Y-118403074D01*
X148338947Y-118424309D01*
X148340000Y-118445750D01*
X148340000Y-118883250D01*
X148338947Y-118904691D01*
X148335797Y-118925926D01*
X148330581Y-118946750D01*
X148323349Y-118966962D01*
X148314170Y-118986368D01*
X148303134Y-119004781D01*
X148290346Y-119022024D01*
X148275930Y-119037930D01*
X148260024Y-119052346D01*
X148242781Y-119065134D01*
X148224368Y-119076170D01*
X148204962Y-119085349D01*
X148184750Y-119092581D01*
X148163926Y-119097797D01*
X148142691Y-119100947D01*
X148121250Y-119102000D01*
X147608750Y-119102000D01*
X147587309Y-119100947D01*
X147566074Y-119097797D01*
X147545250Y-119092581D01*
X147525038Y-119085349D01*
X147505632Y-119076170D01*
X147487219Y-119065134D01*
X147469976Y-119052346D01*
X147454070Y-119037930D01*
X147439654Y-119022024D01*
X147426866Y-119004781D01*
X147415830Y-118986368D01*
X147406651Y-118966962D01*
X147399419Y-118946750D01*
X147394203Y-118925926D01*
X147391053Y-118904691D01*
X147390000Y-118883250D01*
X147390000Y-118445750D01*
X147391053Y-118424309D01*
X147394203Y-118403074D01*
X147399419Y-118382250D01*
X147406651Y-118362038D01*
X147415830Y-118342632D01*
X147426866Y-118324219D01*
X147439654Y-118306976D01*
X147454070Y-118291070D01*
X147469976Y-118276654D01*
X147487219Y-118263866D01*
X147505632Y-118252830D01*
X147525038Y-118243651D01*
X147545250Y-118236419D01*
X147566074Y-118231203D01*
X147587309Y-118228053D01*
X147608750Y-118227000D01*
X148121250Y-118227000D01*
X148142691Y-118228053D01*
X148142691Y-118228053D01*
G37*
D16*
X147865000Y-118664500D03*
D14*
G36*
X149793691Y-94378053D02*
G01*
X149814926Y-94381203D01*
X149835750Y-94386419D01*
X149855962Y-94393651D01*
X149875368Y-94402830D01*
X149893781Y-94413866D01*
X149911024Y-94426654D01*
X149926930Y-94441070D01*
X149941346Y-94456976D01*
X149954134Y-94474219D01*
X149965170Y-94492632D01*
X149974349Y-94512038D01*
X149981581Y-94532250D01*
X149986797Y-94553074D01*
X149989947Y-94574309D01*
X149991000Y-94595750D01*
X149991000Y-95033250D01*
X149989947Y-95054691D01*
X149986797Y-95075926D01*
X149981581Y-95096750D01*
X149974349Y-95116962D01*
X149965170Y-95136368D01*
X149954134Y-95154781D01*
X149941346Y-95172024D01*
X149926930Y-95187930D01*
X149911024Y-95202346D01*
X149893781Y-95215134D01*
X149875368Y-95226170D01*
X149855962Y-95235349D01*
X149835750Y-95242581D01*
X149814926Y-95247797D01*
X149793691Y-95250947D01*
X149772250Y-95252000D01*
X149259750Y-95252000D01*
X149238309Y-95250947D01*
X149217074Y-95247797D01*
X149196250Y-95242581D01*
X149176038Y-95235349D01*
X149156632Y-95226170D01*
X149138219Y-95215134D01*
X149120976Y-95202346D01*
X149105070Y-95187930D01*
X149090654Y-95172024D01*
X149077866Y-95154781D01*
X149066830Y-95136368D01*
X149057651Y-95116962D01*
X149050419Y-95096750D01*
X149045203Y-95075926D01*
X149042053Y-95054691D01*
X149041000Y-95033250D01*
X149041000Y-94595750D01*
X149042053Y-94574309D01*
X149045203Y-94553074D01*
X149050419Y-94532250D01*
X149057651Y-94512038D01*
X149066830Y-94492632D01*
X149077866Y-94474219D01*
X149090654Y-94456976D01*
X149105070Y-94441070D01*
X149120976Y-94426654D01*
X149138219Y-94413866D01*
X149156632Y-94402830D01*
X149176038Y-94393651D01*
X149196250Y-94386419D01*
X149217074Y-94381203D01*
X149238309Y-94378053D01*
X149259750Y-94377000D01*
X149772250Y-94377000D01*
X149793691Y-94378053D01*
X149793691Y-94378053D01*
G37*
D16*
X149516000Y-94814500D03*
D14*
G36*
X149793691Y-95953053D02*
G01*
X149814926Y-95956203D01*
X149835750Y-95961419D01*
X149855962Y-95968651D01*
X149875368Y-95977830D01*
X149893781Y-95988866D01*
X149911024Y-96001654D01*
X149926930Y-96016070D01*
X149941346Y-96031976D01*
X149954134Y-96049219D01*
X149965170Y-96067632D01*
X149974349Y-96087038D01*
X149981581Y-96107250D01*
X149986797Y-96128074D01*
X149989947Y-96149309D01*
X149991000Y-96170750D01*
X149991000Y-96608250D01*
X149989947Y-96629691D01*
X149986797Y-96650926D01*
X149981581Y-96671750D01*
X149974349Y-96691962D01*
X149965170Y-96711368D01*
X149954134Y-96729781D01*
X149941346Y-96747024D01*
X149926930Y-96762930D01*
X149911024Y-96777346D01*
X149893781Y-96790134D01*
X149875368Y-96801170D01*
X149855962Y-96810349D01*
X149835750Y-96817581D01*
X149814926Y-96822797D01*
X149793691Y-96825947D01*
X149772250Y-96827000D01*
X149259750Y-96827000D01*
X149238309Y-96825947D01*
X149217074Y-96822797D01*
X149196250Y-96817581D01*
X149176038Y-96810349D01*
X149156632Y-96801170D01*
X149138219Y-96790134D01*
X149120976Y-96777346D01*
X149105070Y-96762930D01*
X149090654Y-96747024D01*
X149077866Y-96729781D01*
X149066830Y-96711368D01*
X149057651Y-96691962D01*
X149050419Y-96671750D01*
X149045203Y-96650926D01*
X149042053Y-96629691D01*
X149041000Y-96608250D01*
X149041000Y-96170750D01*
X149042053Y-96149309D01*
X149045203Y-96128074D01*
X149050419Y-96107250D01*
X149057651Y-96087038D01*
X149066830Y-96067632D01*
X149077866Y-96049219D01*
X149090654Y-96031976D01*
X149105070Y-96016070D01*
X149120976Y-96001654D01*
X149138219Y-95988866D01*
X149156632Y-95977830D01*
X149176038Y-95968651D01*
X149196250Y-95961419D01*
X149217074Y-95956203D01*
X149238309Y-95953053D01*
X149259750Y-95952000D01*
X149772250Y-95952000D01*
X149793691Y-95953053D01*
X149793691Y-95953053D01*
G37*
D16*
X149516000Y-96389500D03*
D14*
G36*
X154619691Y-111701053D02*
G01*
X154640926Y-111704203D01*
X154661750Y-111709419D01*
X154681962Y-111716651D01*
X154701368Y-111725830D01*
X154719781Y-111736866D01*
X154737024Y-111749654D01*
X154752930Y-111764070D01*
X154767346Y-111779976D01*
X154780134Y-111797219D01*
X154791170Y-111815632D01*
X154800349Y-111835038D01*
X154807581Y-111855250D01*
X154812797Y-111876074D01*
X154815947Y-111897309D01*
X154817000Y-111918750D01*
X154817000Y-112356250D01*
X154815947Y-112377691D01*
X154812797Y-112398926D01*
X154807581Y-112419750D01*
X154800349Y-112439962D01*
X154791170Y-112459368D01*
X154780134Y-112477781D01*
X154767346Y-112495024D01*
X154752930Y-112510930D01*
X154737024Y-112525346D01*
X154719781Y-112538134D01*
X154701368Y-112549170D01*
X154681962Y-112558349D01*
X154661750Y-112565581D01*
X154640926Y-112570797D01*
X154619691Y-112573947D01*
X154598250Y-112575000D01*
X154085750Y-112575000D01*
X154064309Y-112573947D01*
X154043074Y-112570797D01*
X154022250Y-112565581D01*
X154002038Y-112558349D01*
X153982632Y-112549170D01*
X153964219Y-112538134D01*
X153946976Y-112525346D01*
X153931070Y-112510930D01*
X153916654Y-112495024D01*
X153903866Y-112477781D01*
X153892830Y-112459368D01*
X153883651Y-112439962D01*
X153876419Y-112419750D01*
X153871203Y-112398926D01*
X153868053Y-112377691D01*
X153867000Y-112356250D01*
X153867000Y-111918750D01*
X153868053Y-111897309D01*
X153871203Y-111876074D01*
X153876419Y-111855250D01*
X153883651Y-111835038D01*
X153892830Y-111815632D01*
X153903866Y-111797219D01*
X153916654Y-111779976D01*
X153931070Y-111764070D01*
X153946976Y-111749654D01*
X153964219Y-111736866D01*
X153982632Y-111725830D01*
X154002038Y-111716651D01*
X154022250Y-111709419D01*
X154043074Y-111704203D01*
X154064309Y-111701053D01*
X154085750Y-111700000D01*
X154598250Y-111700000D01*
X154619691Y-111701053D01*
X154619691Y-111701053D01*
G37*
D16*
X154342000Y-112137500D03*
D14*
G36*
X154619691Y-110126053D02*
G01*
X154640926Y-110129203D01*
X154661750Y-110134419D01*
X154681962Y-110141651D01*
X154701368Y-110150830D01*
X154719781Y-110161866D01*
X154737024Y-110174654D01*
X154752930Y-110189070D01*
X154767346Y-110204976D01*
X154780134Y-110222219D01*
X154791170Y-110240632D01*
X154800349Y-110260038D01*
X154807581Y-110280250D01*
X154812797Y-110301074D01*
X154815947Y-110322309D01*
X154817000Y-110343750D01*
X154817000Y-110781250D01*
X154815947Y-110802691D01*
X154812797Y-110823926D01*
X154807581Y-110844750D01*
X154800349Y-110864962D01*
X154791170Y-110884368D01*
X154780134Y-110902781D01*
X154767346Y-110920024D01*
X154752930Y-110935930D01*
X154737024Y-110950346D01*
X154719781Y-110963134D01*
X154701368Y-110974170D01*
X154681962Y-110983349D01*
X154661750Y-110990581D01*
X154640926Y-110995797D01*
X154619691Y-110998947D01*
X154598250Y-111000000D01*
X154085750Y-111000000D01*
X154064309Y-110998947D01*
X154043074Y-110995797D01*
X154022250Y-110990581D01*
X154002038Y-110983349D01*
X153982632Y-110974170D01*
X153964219Y-110963134D01*
X153946976Y-110950346D01*
X153931070Y-110935930D01*
X153916654Y-110920024D01*
X153903866Y-110902781D01*
X153892830Y-110884368D01*
X153883651Y-110864962D01*
X153876419Y-110844750D01*
X153871203Y-110823926D01*
X153868053Y-110802691D01*
X153867000Y-110781250D01*
X153867000Y-110343750D01*
X153868053Y-110322309D01*
X153871203Y-110301074D01*
X153876419Y-110280250D01*
X153883651Y-110260038D01*
X153892830Y-110240632D01*
X153903866Y-110222219D01*
X153916654Y-110204976D01*
X153931070Y-110189070D01*
X153946976Y-110174654D01*
X153964219Y-110161866D01*
X153982632Y-110150830D01*
X154002038Y-110141651D01*
X154022250Y-110134419D01*
X154043074Y-110129203D01*
X154064309Y-110126053D01*
X154085750Y-110125000D01*
X154598250Y-110125000D01*
X154619691Y-110126053D01*
X154619691Y-110126053D01*
G37*
D16*
X154342000Y-110562500D03*
D17*
X139752000Y-109000000D03*
X139752000Y-108200000D03*
X139752000Y-107400000D03*
X139752000Y-106600000D03*
X139752000Y-105800000D03*
X139752000Y-105000000D03*
X139752000Y-104200000D03*
X139752000Y-103400000D03*
X139752000Y-102600000D03*
X139752000Y-101800000D03*
X139752000Y-101000000D03*
D18*
X141452000Y-99300000D03*
X142252000Y-99300000D03*
X143052000Y-99300000D03*
X143852000Y-99300000D03*
X144652000Y-99300000D03*
X145452000Y-99300000D03*
X146252000Y-99300000D03*
X147052000Y-99300000D03*
X147852000Y-99300000D03*
X148652000Y-99300000D03*
X149452000Y-99300000D03*
D17*
X151152000Y-101000000D03*
X151152000Y-101800000D03*
X151152000Y-102600000D03*
X151152000Y-103400000D03*
X151152000Y-104200000D03*
X151152000Y-105000000D03*
X151152000Y-105800000D03*
X151152000Y-106600000D03*
X151152000Y-107400000D03*
X151152000Y-108200000D03*
X151152000Y-109000000D03*
D18*
X149452000Y-110700000D03*
X148652000Y-110700000D03*
X147852000Y-110700000D03*
X147052000Y-110700000D03*
X146252000Y-110700000D03*
X145452000Y-110700000D03*
X144652000Y-110700000D03*
X143852000Y-110700000D03*
X143052000Y-110700000D03*
X142252000Y-110700000D03*
X141452000Y-110700000D03*
M02*
