<?xml version="1.0" standalone="no"?>
 <!DOCTYPE svg PUBLIC "-//W3C//DTD SVG 1.1//EN" 
 "http://www.w3.org/Graphics/SVG/1.1/DTD/svg11.dtd"> 
<svg xmlns="http://www.w3.org/2000/svg" version="1.1" 
    width="29.7002cm" height="21.0007cm" viewBox="0 0 116930 82680 ">
<title>SVG Picture created as FrogINT_PCBProto_V1811062154-B_Cu.svg date 2019/04/02 16:53:05 </title>
  <desc>Picture generated by PCBNEW </desc>
<g style="fill:#000000; fill-opacity:1;stroke:#000000; stroke-opacity:1;
stroke-linecap:round; stroke-linejoin:round; "
 transform="translate(0 0) scale(1 1)">
</g>
<g style="fill:#000000; fill-opacity:0.0; 
stroke:#000000; stroke-width:-0.000393701; stroke-opacity:1; 
stroke-linecap:round; stroke-linejoin:round;">
<g >
</g>
<g >
</g>
<g >
</g>
<g >
</g>
<g >
</g>
<g >
</g>
<g >
</g>
<g style="fill:#000000; fill-opacity:0.0; 
stroke:#000000; stroke-width:472.441; stroke-opacity:1; 
stroke-linecap:round; stroke-linejoin:round;">
<path d="M60413 50334
L60413 50807
" />
<path d="M56515 50334
L56515 50807
" />
<path d="M56515 48818
L56515 49173
" />
<path d="M60413 48818
L60413 49173
" />
</g>
<g >
</g>
<g >
</g>
<g >
</g>
<g >
</g>
<g >
</g>
<g >
</g>
<g >
</g>
<g style="fill:#000000; fill-opacity:0.0; 
stroke:#000000; stroke-width:669.291; stroke-opacity:1; 
stroke-linecap:round; stroke-linejoin:round;">
<path d="M52464 42338
L52464 42338
" />
<path d="M52464 41338
L52464 41338
" />
</g>
<g style="fill:#000000; fill-opacity:0.0; 
stroke:#000000; stroke-width:0; stroke-opacity:1; 
stroke-linecap:round; stroke-linejoin:round;">
</g>
<g style="fill:#000000; fill-opacity:1.0; 
stroke:#000000; stroke-width:0; stroke-opacity:1; 
stroke-linecap:round; stroke-linejoin:round;">
<path style="fill:#000000; fill-opacity:1.0; 
stroke:#000000; stroke-width:0; stroke-opacity:1; 
stroke-linecap:round; stroke-linejoin:round;fill-rule:evenodd;"
d="M 52129,40673
52129,40003
52799,40003
52799,40673
52129,40673
Z" /> 
</g>
<g >
<circle cx="51664.6" cy="44638.6" r="196.85" /> 
</g>
<g style="fill:#000000; fill-opacity:1.0; 
stroke:#000000; stroke-width:39.3701; stroke-opacity:1; 
stroke-linecap:round; stroke-linejoin:round;">
</g>
<g style="fill:#000000; fill-opacity:1.0; 
stroke:#000000; stroke-width:0; stroke-opacity:1; 
stroke-linecap:round; stroke-linejoin:round;">
<circle cx="52164.6" cy="44638.6" r="196.85" /> 
</g>
<g style="fill:#000000; fill-opacity:1.0; 
stroke:#000000; stroke-width:39.3701; stroke-opacity:1; 
stroke-linecap:round; stroke-linejoin:round;">
</g>
<g style="fill:#000000; fill-opacity:1.0; 
stroke:#000000; stroke-width:0; stroke-opacity:1; 
stroke-linecap:round; stroke-linejoin:round;">
<circle cx="51664.6" cy="45138.6" r="196.85" /> 
</g>
<g style="fill:#000000; fill-opacity:1.0; 
stroke:#000000; stroke-width:39.3701; stroke-opacity:1; 
stroke-linecap:round; stroke-linejoin:round;">
</g>
<g style="fill:#000000; fill-opacity:1.0; 
stroke:#000000; stroke-width:0; stroke-opacity:1; 
stroke-linecap:round; stroke-linejoin:round;">
<circle cx="52164.6" cy="45138.6" r="196.85" /> 
</g>
<g style="fill:#000000; fill-opacity:1.0; 
stroke:#000000; stroke-width:39.3701; stroke-opacity:1; 
stroke-linecap:round; stroke-linejoin:round;">
</g>
<g style="fill:#000000; fill-opacity:1.0; 
stroke:#000000; stroke-width:0; stroke-opacity:1; 
stroke-linecap:round; stroke-linejoin:round;">
<circle cx="51664.6" cy="45638.6" r="196.85" /> 
</g>
<g style="fill:#000000; fill-opacity:1.0; 
stroke:#000000; stroke-width:39.3701; stroke-opacity:1; 
stroke-linecap:round; stroke-linejoin:round;">
</g>
<g style="fill:#000000; fill-opacity:1.0; 
stroke:#000000; stroke-width:0; stroke-opacity:1; 
stroke-linecap:round; stroke-linejoin:round;">
<circle cx="52164.6" cy="45638.6" r="196.85" /> 
</g>
<g style="fill:#000000; fill-opacity:1.0; 
stroke:#000000; stroke-width:39.3701; stroke-opacity:1; 
stroke-linecap:round; stroke-linejoin:round;">
</g>
<g style="fill:#000000; fill-opacity:1.0; 
stroke:#000000; stroke-width:0; stroke-opacity:1; 
stroke-linecap:round; stroke-linejoin:round;">
<circle cx="51664.6" cy="46138.6" r="196.85" /> 
</g>
<g style="fill:#000000; fill-opacity:1.0; 
stroke:#000000; stroke-width:39.3701; stroke-opacity:1; 
stroke-linecap:round; stroke-linejoin:round;">
</g>
<g style="fill:#000000; fill-opacity:1.0; 
stroke:#000000; stroke-width:0; stroke-opacity:1; 
stroke-linecap:round; stroke-linejoin:round;">
<circle cx="52164.6" cy="46138.6" r="196.85" /> 
</g>
<g style="fill:#000000; fill-opacity:1.0; 
stroke:#000000; stroke-width:39.3701; stroke-opacity:1; 
stroke-linecap:round; stroke-linejoin:round;">
</g>
<g style="fill:#000000; fill-opacity:1.0; 
stroke:#000000; stroke-width:0; stroke-opacity:1; 
stroke-linecap:round; stroke-linejoin:round;">
<circle cx="51664.6" cy="46638.6" r="196.85" /> 
</g>
<g style="fill:#000000; fill-opacity:1.0; 
stroke:#000000; stroke-width:39.3701; stroke-opacity:1; 
stroke-linecap:round; stroke-linejoin:round;">
</g>
<g style="fill:#000000; fill-opacity:1.0; 
stroke:#000000; stroke-width:0; stroke-opacity:1; 
stroke-linecap:round; stroke-linejoin:round;">
<path style="fill:#000000; fill-opacity:1.0; 
stroke:#000000; stroke-width:0; stroke-opacity:1; 
stroke-linecap:round; stroke-linejoin:round;fill-rule:evenodd;"
d="M 52361,46441
52361,46835
51967,46835
51967,46441
52361,46441
Z" /> 
</g>
<g >
<circle cx="64714.6" cy="46588.6" r="492.126" /> 
</g>
<g style="fill:#000000; fill-opacity:1.0; 
stroke:#000000; stroke-width:39.3701; stroke-opacity:1; 
stroke-linecap:round; stroke-linejoin:round;">
</g>
<g >
</g>
<g >
</g>
<g >
</g>
<g >
</g>
<g >
</g>
<g >
</g>
<g >
</g>
<g style="fill:#000000; fill-opacity:1.0; 
stroke:#000000; stroke-width:0; stroke-opacity:1; 
stroke-linecap:round; stroke-linejoin:round;">
<circle cx="58957.3" cy="41990.2" r="157.48" /> 
</g>
<g style="fill:#000000; fill-opacity:1.0; 
stroke:#000000; stroke-width:39.3701; stroke-opacity:1; 
stroke-linecap:round; stroke-linejoin:round;">
</g>
<g style="fill:#000000; fill-opacity:1.0; 
stroke:#000000; stroke-width:0; stroke-opacity:1; 
stroke-linecap:round; stroke-linejoin:round;">
<circle cx="53371.5" cy="42901.9" r="157.48" /> 
</g>
<g style="fill:#000000; fill-opacity:1.0; 
stroke:#000000; stroke-width:39.3701; stroke-opacity:1; 
stroke-linecap:round; stroke-linejoin:round;">
</g>
<g style="fill:#000000; fill-opacity:1.0; 
stroke:#000000; stroke-width:0; stroke-opacity:1; 
stroke-linecap:round; stroke-linejoin:round;">
<circle cx="53267.2" cy="36812.6" r="157.48" /> 
</g>
<g style="fill:#000000; fill-opacity:1.0; 
stroke:#000000; stroke-width:39.3701; stroke-opacity:1; 
stroke-linecap:round; stroke-linejoin:round;">
</g>
<g style="fill:#000000; fill-opacity:1.0; 
stroke:#000000; stroke-width:0; stroke-opacity:1; 
stroke-linecap:round; stroke-linejoin:round;">
<circle cx="58330.6" cy="42875.8" r="157.48" /> 
</g>
<g style="fill:#000000; fill-opacity:1.0; 
stroke:#000000; stroke-width:39.3701; stroke-opacity:1; 
stroke-linecap:round; stroke-linejoin:round;">
</g>
<g >
</g>
<g style="fill:#000000; fill-opacity:1.0; 
stroke:#000000; stroke-width:98.4252; stroke-opacity:1; 
stroke-linecap:round; stroke-linejoin:round;">
</g>
<g style="fill:#000000; fill-opacity:0.0; 
stroke:#000000; stroke-width:98.4252; stroke-opacity:1; 
stroke-linecap:round; stroke-linejoin:round;">
<path d="M58957 41990
L58957 42654
" />
<path d="M58957 42654
L54648 46963
" />
<path d="M54648 46963
L51914 46963
" />
<path d="M51914 46963
L51664 46713
" />
<path d="M51664 46713
L51664 46638
" />
<path d="M51664 46638
L51154 46128
" />
<path d="M51154 46128
L51154 44111
" />
<path d="M51154 44111
L52464 42801
" />
<path d="M52464 42338
L52464 42801
" />
<path d="M52501 44291
L51539 44291
" />
<path d="M51539 44291
L51339 44491
" />
<path d="M51339 44491
L51339 45813
" />
<path d="M51339 45813
L51664 46138
" />
<path d="M52464 41801
L52609 41801
" />
<path d="M52609 41801
L52933 42126
" />
<path d="M52933 42126
L52933 43858
" />
<path d="M52933 43858
L52501 44291
" />
<path d="M52501 44291
L52501 44801
" />
<path d="M52501 44801
L52164 45138
" />
<path d="M52464 41338
L52464 41801
" />
<path d="M53371 42901
L53371 44931
" />
<path d="M53371 44931
L52164 46138
" />
<path d="M53267 36812
L53267 37812
" />
<path d="M53267 37812
L58330 42875
" />
</g>
<g >
</g>
<g style="fill:#000000; fill-opacity:1.0; 
stroke:#000000; stroke-width:100; stroke-opacity:1; 
stroke-linecap:round; stroke-linejoin:round;">
<path style="fill:#000000; fill-opacity:1.0; 
stroke:#000000; stroke-width:100; stroke-opacity:1; 
stroke-linecap:round; stroke-linejoin:round;fill-rule:evenodd;"
d="M 59236,31524
60004,31615
60762,31765
61506,31975
62231,32243
62933,32566
63608,32944
64251,33374
64858,33852
65425,34377
65950,34944
66429,35552
66858,36194
67236,36869
67559,37571
67827,38296
68037,39040
68188,39798
68278,40566
68309,41338
68278,42110
68188,42878
68037,43636
67827,44380
67559,45105
67236,45807
66858,46482
66429,47125
65950,47732
65425,48299
64858,48824
64251,49303
63608,49732
62933,50110
62231,50433
61506,50701
60895,50873
60899,50830
60899,50310
60892,50239
60864,50147
60819,50063
60758,49989
60684,49928
60600,49883
60508,49855
60413,49846
60318,49855
60226,49883
60141,49928
60067,49989
60007,50063
59962,50147
59934,50239
59927,50310
59927,50830
59934,50902
59962,50994
59998,51062
59236,51152
58464,51183
57692,51152
56930,51062
56967,50994
56994,50902
57001,50830
57001,50310
56994,50239
56967,50147
56921,50063
56861,49989
56787,49928
56702,49883
56611,49855
56515,49846
56420,49855
56328,49883
56244,49928
56170,49989
56109,50063
56064,50147
56036,50239
56029,50310
56029,50830
56033,50873
55422,50701
54697,50433
53995,50110
53320,49732
52677,49303
52070,48824
52038,48795
56029,48795
56029,49197
56036,49268
56064,49360
56109,49444
56170,49518
56244,49579
56328,49624
56420,49652
56515,49661
56611,49652
56702,49624
56787,49579
56861,49518
56921,49444
56967,49360
56994,49268
57001,49197
57001,48795
59927,48795
59927,49197
59934,49268
59962,49360
60007,49444
60067,49518
60141,49579
60226,49624
60318,49652
60413,49661
60508,49652
60600,49624
60684,49579
60758,49518
60819,49444
60864,49360
60892,49268
60899,49197
60899,48795
60892,48723
60864,48631
60819,48547
60758,48473
60684,48412
60600,48367
60508,48339
60413,48330
60318,48339
60226,48367
60141,48412
60067,48473
60007,48547
59962,48631
59934,48723
59927,48795
57001,48795
57001,48795
56994,48723
56967,48631
56921,48547
56861,48473
56787,48412
56702,48367
56611,48339
56515,48330
56420,48339
56328,48367
56244,48412
56170,48473
56109,48547
56064,48631
56036,48723
56029,48795
52038,48795
51503,48299
50978,47732
50500,47125
50070,46482
49692,45807
49369,45105
49142,44491
51038,44491
51040,44505
51040,45798
51038,45813
51044,45872
51061,45928
51089,45980
51112,46008
51126,46026
51138,46035
51217,46114
51217,46182
51234,46268
51268,46350
51309,46410
51274,46416
51238,46497
51219,46583
51216,46671
51231,46757
51263,46839
51274,46860
51358,46874
51593,46638
51588,46633
51635,46585
51693,46585
51716,46608
51716,46668
51670,46714
51664,46709
51428,46944
51442,47028
51523,47064
51609,47084
51697,47086
51783,47071
51839,47050
51871,47067
51918,47081
51967,47086
52361,47086
52410,47081
52457,47067
52500,47044
52539,47013
52570,46974
52593,46931
52607,46884
52612,46835
52612,46515
63972,46515
63972,46661
64000,46805
64056,46940
64138,47061
64241,47165
64363,47246
64498,47302
64641,47330
64787,47330
64931,47302
65066,47246
65187,47165
65291,47061
65372,46940
65428,46805
65456,46661
65456,46515
65428,46372
65372,46237
65291,46115
65187,46012
65066,45930
64931,45874
64787,45846
64641,45846
64498,45874
64363,45930
64241,46012
64138,46115
64056,46237
64000,46372
63972,46515
52612,46515
52612,46441
52607,46392
52593,46345
52576,46312
52594,46268
52611,46182
52611,46114
53572,45153
53584,45144
53621,45098
53649,45046
53666,44990
53670,44946
53670,44946
53672,44931
53670,44916
53670,43178
53687,43161
53732,43094
53763,43020
53778,42941
53778,42861
53763,42782
53732,42708
53687,42642
53631,42585
53564,42540
53490,42510
53411,42494
53331,42494
53252,42510
53233,42518
53233,42140
53234,42126
53233,42111
53233,42111
53228,42067
53211,42011
53183,41959
53146,41913
53135,41904
52927,41696
52953,41664
53007,41563
53040,41453
53052,41338
53040,41223
53007,41113
52953,41012
52879,40923
52868,40913
52895,40905
52938,40882
52976,40850
53008,40812
53031,40769
53045,40722
53050,40673
53050,40003
53045,39954
53031,39907
53008,39864
52976,39826
52938,39795
52895,39771
52848,39757
52799,39752
52129,39752
52080,39757
52033,39771
51990,39795
51952,39826
51921,39864
51897,39907
51883,39954
51878,40003
51878,40673
51883,40722
51897,40769
51921,40812
51952,40850
51990,40882
52033,40905
52060,40913
52049,40923
51976,41012
51921,41113
51888,41223
51877,41338
51888,41453
51921,41563
51976,41664
52049,41753
52138,41827
52163,41840
52117,41868
52032,41944
51963,42036
51914,42140
51897,42198
51944,42288
52414,42288
52414,42280
52514,42280
52514,42288
52522,42288
52522,42388
52514,42388
52514,42858
52605,42906
52634,42895
52634,43734
52377,43992
51553,43992
51539,43990
51524,43992
51524,43992
51480,43996
51423,44013
51372,44041
51355,44055
51326,44078
51317,44090
51138,44269
51126,44278
51105,44304
51089,44324
51085,44332
51061,44376
51044,44432
51040,44476
51040,44476
51038,44491
49142,44491
49101,44380
48891,43636
48741,42878
48693,42479
51897,42479
51914,42537
51963,42640
52032,42732
52117,42809
52216,42867
52324,42906
52414,42858
52414,42388
51944,42388
51897,42479
48693,42479
48650,42110
48619,41338
48650,40566
48741,39798
48891,39040
49101,38296
49369,37571
49692,36869
49747,36772
52859,36772
52859,36852
52875,36931
52906,37005
52950,37072
52967,37089
52967,37797
52966,37812
52972,37870
52989,37927
53017,37979
53045,38013
53054,38024
53065,38034
57923,42891
57923,42915
57938,42994
57969,43068
58014,43135
58070,43192
58137,43236
58211,43267
58290,43283
58370,43283
58449,43267
58523,43236
58590,43192
58647,43135
58691,43068
58722,42994
58738,42915
58738,42835
58722,42756
58691,42682
58647,42616
58590,42559
58523,42514
58449,42483
58370,42468
58346,42468
53566,37688
53566,37089
53583,37072
53628,37005
53658,36931
53674,36852
53674,36772
53658,36693
53628,36619
53583,36552
53526,36496
53460,36451
53386,36420
53307,36405
53227,36405
53148,36420
53074,36451
53007,36496
52950,36552
52906,36619
52875,36693
52859,36772
49747,36772
50070,36194
50500,35552
50978,34944
51503,34377
52070,33852
52677,33374
53320,32944
53995,32566
54697,32243
55422,31975
56166,31765
56924,31615
57692,31524
58464,31493
59236,31524
Z" /> 
<path style="fill:#000000; fill-opacity:1.0; 
stroke:#000000; stroke-width:100; stroke-opacity:1; 
stroke-linecap:round; stroke-linejoin:round;fill-rule:evenodd;"
d="M 51717,44609
51717,44667
51693,44691
51638,44691
51638,44615
51662,44590
51698,44590
51717,44609
Z" /> 
</g>
</g> 
</svg>
