<?xml version="1.0" standalone="no"?>
 <!DOCTYPE svg PUBLIC "-//W3C//DTD SVG 1.1//EN" 
 "http://www.w3.org/Graphics/SVG/1.1/DTD/svg11.dtd"> 
<svg xmlns="http://www.w3.org/2000/svg" version="1.1" 
    width="29.7002cm" height="21.0007cm" viewBox="0 0 116930 82680 ">
<title>SVG Picture created as FrogINT_PCBProto_V1811062154-F_Fab.svg date 2019/04/02 16:53:05 </title>
  <desc>Picture generated by PCBNEW </desc>
<g style="fill:#000000; fill-opacity:1;stroke:#000000; stroke-opacity:1;
stroke-linecap:round; stroke-linejoin:round; "
 transform="translate(0 0) scale(1 1)">
</g>
<g style="fill:#000000; fill-opacity:0.0; 
stroke:#000000; stroke-width:-0.000393701; stroke-opacity:1; 
stroke-linecap:round; stroke-linejoin:round;">
</g>
<g style="fill:#000000; fill-opacity:0.0; 
stroke:#000000; stroke-width:59.0551; stroke-opacity:1; 
stroke-linecap:round; stroke-linejoin:round;">
<path d="M56814 56595
L57058 56595
L56927 56745
L56983 56745
L57020 56764
L57039 56782
L57058 56820
L57058 56914
L57039 56951
L57020 56970
L56983 56989
L56871 56989
L56833 56970
L56814 56951
" />
<path d="M57283 56764
L57245 56745
L57227 56726
L57208 56689
L57208 56670
L57227 56632
L57245 56614
L57283 56595
L57358 56595
L57395 56614
L57414 56632
L57433 56670
L57433 56689
L57414 56726
L57395 56745
L57358 56764
L57283 56764
L57245 56782
L57227 56801
L57208 56839
L57208 56914
L57227 56951
L57245 56970
L57283 56989
L57358 56989
L57395 56970
L57414 56951
L57433 56914
L57433 56839
L57414 56801
L57395 56782
L57358 56764
" />
<path d="M57602 56951
L57620 56970
L57602 56989
L57583 56970
L57602 56951
L57602 56989
" />
<path d="M57864 56595
L57902 56595
L57939 56614
L57958 56632
L57977 56670
L57995 56745
L57995 56839
L57977 56914
L57958 56951
L57939 56970
L57902 56989
L57864 56989
L57827 56970
L57808 56951
L57789 56914
L57770 56839
L57770 56745
L57789 56670
L57808 56632
L57827 56614
L57864 56595
" />
<path d="M58239 56595
L58277 56595
L58314 56614
L58333 56632
L58352 56670
L58370 56745
L58370 56839
L58352 56914
L58333 56951
L58314 56970
L58277 56989
L58239 56989
L58202 56970
L58183 56951
L58164 56914
L58145 56839
L58145 56745
L58164 56670
L58183 56632
L58202 56614
L58239 56595
" />
<path d="M58614 56595
L58652 56595
L58689 56614
L58708 56632
L58727 56670
L58745 56745
L58745 56839
L58727 56914
L58708 56951
L58689 56970
L58652 56989
L58614 56989
L58577 56970
L58558 56951
L58539 56914
L58520 56839
L58520 56745
L58539 56670
L58558 56632
L58577 56614
L58614 56595
" />
<path d="M59214 56989
L59214 56726
" />
<path d="M59214 56764
L59233 56745
L59270 56726
L59326 56726
L59364 56745
L59383 56782
L59383 56989
" />
<path d="M59383 56782
L59401 56745
L59439 56726
L59495 56726
L59533 56745
L59551 56782
L59551 56989
" />
<path d="M59739 56989
L59739 56726
" />
<path d="M59739 56764
L59758 56745
L59795 56726
L59851 56726
L59889 56745
L59908 56782
L59908 56989
" />
<path d="M59908 56782
L59926 56745
L59964 56726
L60020 56726
L60058 56745
L60076 56782
L60076 56989
" />
<path d="M50984 56299
L65944 56299
" />
<path d="M50984 41338
L50984 56530
" />
<path d="M65944 41338
L65944 56530
" />
<path d="M65944 56299
L65501 56530
" />
<path d="M65944 56299
L65501 56068
" />
<path d="M50984 56299
L51427 56530
" />
<path d="M50984 56299
L51427 56068
" />
<path d="M62559 51338
L62303 51082
" />
<path d="M62814 51082
L62559 51338
" />
<path d="M62559 51338
L62814 51082
" />
<path d="M62559 50059
L62559 51338
" />
<path d="M54881 51338
L62559 51338
" />
</g>
<g style="fill:#000000; fill-opacity:0.0; 
stroke:#000000; stroke-width:39.3701; stroke-opacity:1; 
stroke-linecap:round; stroke-linejoin:round;">
<path d="M62134 41537
L62528 41930
" />
<path d="M62134 40985
L62174 40946
" />
<path d="M62134 41891
L62134 40985
" />
<path d="M62174 41930
L62134 41891
" />
<path d="M63355 41930
L62174 41930
" />
<path d="M63394 41891
L63355 41930
" />
<path d="M63394 40985
L63394 41891
" />
<path d="M63355 40946
L63394 40985
" />
<path d="M62174 40946
L63355 40946
" />
<path d="M54710 46644
L54218 46644
" />
<path d="M54710 47432
L54710 46644
" />
<path d="M54341 47432
L54710 47432
" />
<path d="M54218 47309
L54341 47432
" />
<path d="M54218 46644
L54218 47309
" />
<path d="M57618 38032
L58110 38032
" />
<path d="M57618 37244
L57618 38032
" />
<path d="M57987 37244
L57618 37244
" />
<path d="M58110 37367
L57987 37244
" />
<path d="M58110 38032
L58110 37367
" />
<path d="M61010 40244
L60518 40244
" />
<path d="M61010 41032
L61010 40244
" />
<path d="M60641 41032
L61010 41032
" />
<path d="M60518 40909
L60641 41032
" />
<path d="M60518 40244
L60518 40909
" />
<path d="M60518 42632
L61010 42632
" />
<path d="M60518 41844
L60518 42632
" />
<path d="M60887 41844
L60518 41844
" />
<path d="M61010 41967
L60887 41844
" />
<path d="M61010 42632
L61010 41967
" />
<path d="M63608 46834
L63608 46342
" />
<path d="M62820 46834
L63608 46834
" />
<path d="M62820 46465
L62820 46834
" />
<path d="M62943 46342
L62820 46465
" />
<path d="M63608 46342
L62943 46342
" />
<path d="M52464 42456
L52464 42220
" />
<path d="M51866 42456
L52464 42456
" />
<path d="M52464 42220
L51866 42220
" />
<path d="M52464 41456
L52464 41220
" />
<path d="M51866 41456
L52464 41456
" />
<path d="M52464 41220
L51866 41220
" />
<path d="M52464 40456
L52464 40220
" />
<path d="M51866 40456
L52464 40456
" />
<path d="M52464 40220
L51866 40220
" />
<path d="M48515 42838
L48515 39838
" />
<path d="M51866 42838
L48515 42838
" />
<path d="M51866 40220
L51866 42838
" />
<path d="M51484 39838
L51866 40220
" />
<path d="M48515 39838
L51484 39838
" />
<path d="M62649 47431
L63279 47431
" />
<path d="M62649 47746
L62649 47431
" />
<path d="M63279 47746
L62649 47746
" />
<path d="M63279 47431
L63279 47746
" />
<path d="M58807 47343
L58807 46713
" />
<path d="M59122 47343
L58807 47343
" />
<path d="M59122 46713
L59122 47343
" />
<path d="M58807 46713
L59122 46713
" />
<path d="M58057 47343
L58057 46713
" />
<path d="M58372 47343
L58057 47343
" />
<path d="M58372 46713
L58372 47343
" />
<path d="M58057 46713
L58372 46713
" />
<path d="M59022 37323
L59022 37953
" />
<path d="M58707 37323
L59022 37323
" />
<path d="M58707 37953
L58707 37323
" />
<path d="M59022 37953
L58707 37953
" />
<path d="M60607 44153
L60607 43523
" />
<path d="M60922 44153
L60607 44153
" />
<path d="M60922 43523
L60922 44153
" />
<path d="M60607 43523
L60922 43523
" />
</g>
<g style="fill:#000000; fill-opacity:0.0; 
stroke:#000000; stroke-width:59.0551; stroke-opacity:1; 
stroke-linecap:round; stroke-linejoin:round;">
<path d="M55689 43307
L55296 42913
" />
<path d="M59233 43307
L55689 43307
" />
<path d="M59233 39370
L59233 43307
" />
<path d="M55296 39370
L59233 39370
" />
<path d="M55296 42913
L55296 39370
" />
<g >
</g>
<g >
</g>
<g >
</g>
<g >
</g>
<g >
</g>
<g >
</g>
<g >
</g>
<g >
</g>
<g >
</g>
<g >
</g>
<g >
</g>
<g >
</g>
<g >
</g>
<g >
</g>
<g >
</g>
<g >
</g>
<g >
</g>
<g >
</g>
<g >
</g>
<g >
</g>
<g >
</g>
<g >
</g>
<path d="M65911 41219
L65723 41219
L65723 40826
" />
<path d="M66042 41013
L66173 41013
" />
<path d="M66230 41219
L66042 41219
L66042 40826
L66230 40826
" />
<path d="M66398 41219
L66398 40826
L66492 40826
L66548 40844
L66586 40882
L66605 40919
L66623 40994
L66623 41051
L66605 41126
L66586 41163
L66548 41201
L66492 41219
L66398 41219
" />
<path d="M61211 34719
L61023 34719
L61023 34326
" />
<path d="M61342 34513
L61473 34513
" />
<path d="M61530 34719
L61342 34719
L61342 34326
L61530 34326
" />
<path d="M61698 34719
L61698 34326
L61792 34326
L61848 34344
L61886 34382
L61905 34419
L61923 34494
L61923 34551
L61905 34626
L61886 34663
L61848 34701
L61792 34719
L61698 34719
" />
<path d="M53011 36419
L52823 36419
L52823 36026
" />
<path d="M53142 36213
L53273 36213
" />
<path d="M53330 36419
L53142 36419
L53142 36026
L53330 36026
" />
<path d="M53498 36419
L53498 36026
L53592 36026
L53648 36044
L53686 36082
L53705 36119
L53723 36194
L53723 36251
L53705 36326
L53686 36363
L53648 36401
L53592 36419
L53498 36419
" />
<path d="M56880 50926
L56880 51244
L56899 51282
L56917 51301
L56955 51319
L57030 51319
L57067 51301
L57086 51282
L57105 51244
L57105 50926
" />
<path d="M57274 51301
L57330 51319
L57424 51319
L57461 51301
L57480 51282
L57499 51244
L57499 51207
L57480 51169
L57461 51151
L57424 51132
L57349 51113
L57311 51094
L57292 51076
L57274 51038
L57274 51001
L57292 50963
L57311 50944
L57349 50926
L57442 50926
L57499 50944
" />
<path d="M57799 51113
L57855 51132
L57874 51151
L57892 51188
L57892 51244
L57874 51282
L57855 51301
L57817 51319
L57667 51319
L57667 50926
L57799 50926
L57836 50944
L57855 50963
L57874 51001
L57874 51038
L57855 51076
L57836 51094
L57799 51113
L57667 51113
" />
<path d="M57967 51357
L58267 51357
" />
<path d="M58492 51113
L58548 51132
L58567 51151
L58586 51188
L58586 51244
L58567 51282
L58548 51301
L58511 51319
L58361 51319
L58361 50926
L58492 50926
L58530 50944
L58548 50963
L58567 51001
L58567 51038
L58548 51076
L58530 51094
L58492 51113
L58361 51113
" />
<path d="M58661 51357
L58961 51357
" />
<path d="M59055 51319
L59055 50926
L59186 51207
L59317 50926
L59317 51319
" />
<path d="M59505 51319
L59505 51057
" />
<path d="M59505 50926
L59486 50944
L59505 50963
L59523 50944
L59505 50926
L59505 50963
" />
<path d="M59692 51057
L59692 51319
" />
<path d="M59692 51094
L59711 51076
L59748 51057
L59805 51057
L59842 51076
L59861 51113
L59861 51319
" />
<path d="M60048 51319
L60048 51057
" />
<path d="M60048 50926
L60029 50944
L60048 50963
L60067 50944
L60048 50926
L60048 50963
" />
<path d="M61368 49775
L61424 49793
L61443 49812
L61462 49850
L61462 49906
L61443 49943
L61424 49962
L61387 49981
L61237 49981
L61237 49587
L61368 49587
L61406 49606
L61424 49625
L61443 49662
L61443 49700
L61424 49737
L61406 49756
L61368 49775
L61237 49775
" />
<path d="M61687 49981
L61649 49962
L61631 49943
L61612 49906
L61612 49793
L61631 49756
L61649 49737
L61687 49718
L61743 49718
L61781 49737
L61799 49756
L61818 49793
L61818 49906
L61799 49943
L61781 49962
L61743 49981
L61687 49981
" />
<path d="M61987 49981
L61987 49718
" />
<path d="M61987 49793
L62005 49756
L62024 49737
L62062 49718
L62099 49718
" />
<path d="M62399 49981
L62399 49587
" />
<path d="M62399 49962
L62362 49981
L62287 49981
L62249 49962
L62230 49943
L62212 49906
L62212 49793
L62230 49756
L62249 49737
L62287 49718
L62362 49718
L62399 49737
" />
<path d="M62887 49981
L62887 49587
L63037 49587
L63074 49606
L63093 49625
L63112 49662
L63112 49718
L63093 49756
L63074 49775
L63037 49793
L62887 49793
" />
<path d="M63505 49943
L63487 49962
L63430 49981
L63393 49981
L63337 49962
L63299 49925
L63280 49887
L63262 49812
L63262 49756
L63280 49681
L63299 49643
L63337 49606
L63393 49587
L63430 49587
L63487 49606
L63505 49625
" />
<path d="M63805 49775
L63862 49793
L63880 49812
L63899 49850
L63899 49906
L63880 49943
L63862 49962
L63824 49981
L63674 49981
L63674 49587
L63805 49587
L63843 49606
L63862 49625
L63880 49662
L63880 49700
L63862 49737
L63843 49756
L63805 49775
L63674 49775
" />
<path d="M59418 42384
L59680 42778
" />
<path d="M59680 42384
L59418 42778
" />
<path d="M59774 42384
L59999 42384
" />
<path d="M59886 42778
L59886 42384
" />
<path d="M60299 42778
L60299 42571
L60280 42534
L60243 42515
L60168 42515
L60130 42534
" />
<path d="M60299 42759
L60261 42778
L60168 42778
L60130 42759
L60111 42721
L60111 42684
L60130 42646
L60168 42628
L60261 42628
L60299 42609
" />
<path d="M60542 42778
L60505 42759
L60486 42721
L60486 42384
" />
<path d="M60936 42384
L61161 42384
" />
<path d="M61049 42778
L61049 42384
" />
<path d="M61274 42759
L61330 42778
L61424 42778
L61461 42759
L61480 42740
L61499 42703
L61499 42665
L61480 42628
L61461 42609
L61424 42590
L61349 42571
L61311 42553
L61292 42534
L61274 42496
L61274 42459
L61292 42421
L61311 42403
L61349 42384
L61442 42384
L61499 42403
" />
<path d="M61630 42384
L61892 42778
" />
<path d="M61892 42384
L61630 42778
" />
<path d="M62042 42628
L62342 42628
" />
<path d="M62492 42384
L62736 42384
L62605 42534
L62661 42534
L62698 42553
L62717 42571
L62736 42609
L62736 42703
L62717 42740
L62698 42759
L62661 42778
L62548 42778
L62511 42759
L62492 42740
" />
<path d="M62886 42421
L62905 42403
L62942 42384
L63036 42384
L63073 42403
L63092 42421
L63111 42459
L63111 42496
L63092 42553
L62867 42778
L63111 42778
" />
<path d="M63261 42421
L63280 42403
L63317 42384
L63411 42384
L63448 42403
L63467 42421
L63486 42459
L63486 42496
L63467 42553
L63242 42778
L63486 42778
" />
<path d="M63842 42384
L63655 42384
L63636 42571
L63655 42553
L63692 42534
L63786 42534
L63823 42553
L63842 42571
L63861 42609
L63861 42703
L63842 42740
L63823 42759
L63786 42778
L63692 42778
L63655 42759
L63636 42740
" />
<path d="M64536 42778
L64311 42778
" />
<path d="M64423 42778
L64423 42384
L64386 42440
L64348 42478
L64311 42496
" />
<path d="M64873 42384
L64798 42384
L64761 42403
L64742 42421
L64704 42478
L64686 42553
L64686 42703
L64704 42740
L64723 42759
L64761 42778
L64836 42778
L64873 42759
L64892 42740
L64911 42703
L64911 42609
L64892 42571
L64873 42553
L64836 42534
L64761 42534
L64723 42553
L64704 42571
L64686 42609
" />
<path d="M65079 42778
L65079 42384
L65211 42665
L65342 42384
L65342 42778
" />
<path d="M65529 42778
L65529 42384
" />
<path d="M65529 42571
L65754 42571
" />
<path d="M65754 42778
L65754 42384
" />
<path d="M65904 42515
L66111 42515
L65904 42778
L66111 42778
" />
</g>
<g style="fill:#000000; fill-opacity:0.0; 
stroke:#000000; stroke-width:41.3386; stroke-opacity:1; 
stroke-linecap:round; stroke-linejoin:round;">
<path d="M62633 41306
L62633 41437
" />
<path d="M62541 41161
L62633 41306
L62725 41161
" />
<path d="M62961 41437
L62803 41437
" />
<path d="M62882 41437
L62882 41161
L62856 41201
L62830 41227
L62803 41240
" />
</g>
<g style="fill:#000000; fill-opacity:0.0; 
stroke:#000000; stroke-width:59.0551; stroke-opacity:1; 
stroke-linecap:round; stroke-linejoin:round;">
<path d="M54908 47713
L54889 47694
L54871 47657
L54871 47563
L54889 47526
L54908 47507
L54946 47488
L54983 47488
L55039 47507
L55264 47732
L55264 47488
" />
<path d="M54908 47338
L54889 47319
L54871 47282
L54871 47188
L54889 47151
L54908 47132
L54946 47113
L54983 47113
L55039 47132
L55264 47357
L55264 47113
" />
<path d="M55002 46944
L55395 46944
" />
<path d="M55208 46757
L55245 46738
L55264 46701
" />
<path d="M55208 46944
L55245 46926
L55264 46888
L55264 46813
L55245 46776
L55208 46757
L55002 46757
" />
<path d="M55058 46401
L55058 46532
" />
<path d="M55264 46532
L54871 46532
L54871 46344
" />
</g>
<g style="fill:#000000; fill-opacity:0.0; 
stroke:#000000; stroke-width:31.4961; stroke-opacity:1; 
stroke-linecap:round; stroke-linejoin:round;">
<path d="M54534 47071
L54544 47080
L54553 47108
L54553 47127
L54544 47155
L54525 47174
L54506 47183
L54469 47193
L54441 47193
L54403 47183
L54384 47174
L54366 47155
L54356 47127
L54356 47108
L54366 47080
L54375 47071
" />
<path d="M54553 46883
L54553 46996
" />
<path d="M54553 46940
L54356 46940
L54384 46958
L54403 46977
L54413 46996
" />
</g>
<g style="fill:#000000; fill-opacity:0.0; 
stroke:#000000; stroke-width:59.0551; stroke-opacity:1; 
stroke-linecap:round; stroke-linejoin:round;">
<path d="M57420 38247
L57420 38472
" />
<path d="M57420 38360
L57026 38360
L57083 38397
L57120 38435
L57139 38472
" />
<path d="M57026 38004
L57026 37966
L57045 37929
L57064 37910
L57101 37891
L57176 37872
L57270 37872
L57345 37891
L57383 37910
L57401 37929
L57420 37966
L57420 38004
L57401 38041
L57383 38060
L57345 38079
L57270 38097
L57176 38097
L57101 38079
L57064 38060
L57045 38041
L57026 38004
" />
<path d="M57026 37629
L57026 37591
L57045 37554
L57064 37535
L57101 37516
L57176 37497
L57270 37497
L57345 37516
L57383 37535
L57401 37554
L57420 37591
L57420 37629
L57401 37666
L57383 37685
L57345 37704
L57270 37722
L57176 37722
L57101 37704
L57064 37685
L57045 37666
L57026 37629
" />
<path d="M57158 37329
L57420 37329
" />
<path d="M57195 37329
L57176 37310
L57158 37273
L57158 37216
L57176 37179
L57214 37160
L57420 37160
" />
<path d="M57214 36841
L57214 36973
" />
<path d="M57420 36973
L57026 36973
L57026 36785
" />
</g>
<g style="fill:#000000; fill-opacity:0.0; 
stroke:#000000; stroke-width:31.4961; stroke-opacity:1; 
stroke-linecap:round; stroke-linejoin:round;">
<path d="M57934 37655
L57944 37665
L57953 37693
L57953 37711
L57944 37740
L57925 37758
L57906 37768
L57869 37777
L57841 37777
L57803 37768
L57784 37758
L57766 37740
L57756 37711
L57756 37693
L57766 37665
L57775 37655
" />
<path d="M57775 37580
L57766 37571
L57756 37552
L57756 37505
L57766 37486
L57775 37477
L57794 37468
L57813 37468
L57841 37477
L57953 37590
L57953 37468
" />
</g>
<g style="fill:#000000; fill-opacity:0.0; 
stroke:#000000; stroke-width:59.0551; stroke-opacity:1; 
stroke-linecap:round; stroke-linejoin:round;">
<path d="M61208 41285
L61189 41266
L61171 41229
L61171 41135
L61189 41097
L61208 41079
L61246 41060
L61283 41060
L61339 41079
L61564 41304
L61564 41060
" />
<path d="M61208 40910
L61189 40891
L61171 40854
L61171 40760
L61189 40722
L61208 40704
L61246 40685
L61283 40685
L61339 40704
L61564 40929
L61564 40685
" />
<path d="M61302 40516
L61695 40516
" />
<path d="M61320 40516
L61302 40479
L61302 40404
L61320 40366
L61339 40347
L61377 40329
L61489 40329
L61527 40347
L61545 40366
L61564 40404
L61564 40479
L61545 40516
" />
<path d="M61358 40029
L61358 40160
" />
<path d="M61564 40160
L61171 40160
L61171 39973
" />
</g>
<g style="fill:#000000; fill-opacity:0.0; 
stroke:#000000; stroke-width:31.4961; stroke-opacity:1; 
stroke-linecap:round; stroke-linejoin:round;">
<path d="M60934 40671
L60944 40680
L60953 40708
L60953 40727
L60944 40755
L60925 40774
L60906 40783
L60869 40793
L60841 40793
L60803 40783
L60784 40774
L60766 40755
L60756 40727
L60756 40708
L60766 40680
L60775 40671
" />
<path d="M60756 40493
L60756 40587
L60850 40596
L60841 40587
L60831 40568
L60831 40521
L60841 40502
L60850 40493
L60869 40483
L60916 40483
L60934 40493
L60944 40502
L60953 40521
L60953 40568
L60944 40587
L60934 40596
" />
</g>
<g style="fill:#000000; fill-opacity:0.0; 
stroke:#000000; stroke-width:59.0551; stroke-opacity:1; 
stroke-linecap:round; stroke-linejoin:round;">
<path d="M59964 42885
L59945 42866
L59926 42829
L59926 42735
L59945 42697
L59964 42679
L60001 42660
L60039 42660
L60095 42679
L60320 42904
L60320 42660
" />
<path d="M59964 42510
L59945 42491
L59926 42454
L59926 42360
L59945 42322
L59964 42304
L60001 42285
L60039 42285
L60095 42304
L60320 42529
L60320 42285
" />
<path d="M60058 42116
L60451 42116
" />
<path d="M60076 42116
L60058 42079
L60058 42004
L60076 41966
L60095 41947
L60133 41929
L60245 41929
L60283 41947
L60301 41966
L60320 42004
L60320 42079
L60301 42116
" />
<path d="M60114 41629
L60114 41760
" />
<path d="M60320 41760
L59926 41760
L59926 41573
" />
</g>
<g style="fill:#000000; fill-opacity:0.0; 
stroke:#000000; stroke-width:31.4961; stroke-opacity:1; 
stroke-linecap:round; stroke-linejoin:round;">
<path d="M60834 42271
L60844 42280
L60853 42308
L60853 42327
L60844 42355
L60825 42374
L60806 42383
L60769 42393
L60741 42393
L60703 42383
L60684 42374
L60666 42355
L60656 42327
L60656 42308
L60666 42280
L60675 42271
" />
<path d="M60656 42102
L60656 42140
L60666 42158
L60675 42168
L60703 42187
L60741 42196
L60816 42196
L60834 42187
L60844 42177
L60853 42158
L60853 42121
L60844 42102
L60834 42093
L60816 42083
L60769 42083
L60750 42093
L60741 42102
L60731 42121
L60731 42158
L60741 42177
L60750 42187
L60769 42196
" />
</g>
<g style="fill:#000000; fill-opacity:0.0; 
stroke:#000000; stroke-width:59.0551; stroke-opacity:1; 
stroke-linecap:round; stroke-linejoin:round;">
<path d="M62567 47032
L62586 47013
L62624 46995
L62717 46995
L62755 47013
L62773 47032
L62792 47070
L62792 47107
L62773 47163
L62549 47388
L62792 47388
" />
<path d="M62942 47032
L62961 47013
L62998 46995
L63092 46995
L63130 47013
L63148 47032
L63167 47070
L63167 47107
L63148 47163
L62923 47388
L63167 47388
" />
<path d="M63336 47126
L63336 47519
" />
<path d="M63336 47145
L63373 47126
L63448 47126
L63486 47145
L63505 47163
L63523 47201
L63523 47313
L63505 47351
L63486 47369
L63448 47388
L63373 47388
L63336 47369
" />
<path d="M63823 47182
L63692 47182
" />
<path d="M63692 47388
L63692 46995
L63880 46995
" />
</g>
<g style="fill:#000000; fill-opacity:0.0; 
stroke:#000000; stroke-width:31.4961; stroke-opacity:1; 
stroke-linecap:round; stroke-linejoin:round;">
<path d="M63088 46658
L63078 46668
L63050 46677
L63031 46677
L63003 46668
L62984 46649
L62975 46630
L62966 46593
L62966 46565
L62975 46527
L62984 46508
L63003 46490
L63031 46480
L63050 46480
L63078 46490
L63088 46499
" />
<path d="M63275 46677
L63163 46677
" />
<path d="M63219 46677
L63219 46480
L63200 46508
L63181 46527
L63163 46537
" />
<path d="M63462 46677
L63350 46677
" />
<path d="M63406 46677
L63406 46480
L63387 46508
L63369 46527
L63350 46537
" />
</g>
<g style="fill:#000000; fill-opacity:0.0; 
stroke:#000000; stroke-width:59.0551; stroke-opacity:1; 
stroke-linecap:round; stroke-linejoin:round;">
<path d="M49268 43569
L49249 43588
L49193 43607
L49155 43607
L49099 43588
L49062 43550
L49043 43513
L49024 43438
L49024 43382
L49043 43307
L49062 43269
L49099 43232
L49155 43213
L49193 43213
L49249 43232
L49268 43251
" />
<path d="M49493 43607
L49455 43588
L49437 43569
L49418 43532
L49418 43419
L49437 43382
L49455 43363
L49493 43344
L49549 43344
L49587 43363
L49605 43382
L49624 43419
L49624 43532
L49605 43569
L49587 43588
L49549 43607
L49493 43607
" />
<path d="M49793 43344
L49793 43607
" />
<path d="M49793 43382
L49812 43363
L49849 43344
L49905 43344
L49943 43363
L49962 43401
L49962 43607
" />
<path d="M50149 43344
L50149 43607
" />
<path d="M50149 43382
L50168 43363
L50205 43344
L50262 43344
L50299 43363
L50318 43401
L50318 43607
" />
<path d="M50412 43644
L50712 43644
" />
<path d="M50880 43213
L50918 43213
L50955 43232
L50974 43251
L50993 43288
L51011 43363
L51011 43457
L50993 43532
L50974 43569
L50955 43588
L50918 43607
L50880 43607
L50843 43588
L50824 43569
L50805 43532
L50787 43457
L50787 43363
L50805 43288
L50824 43251
L50843 43232
L50880 43213
" />
<path d="M51386 43607
L51161 43607
" />
<path d="M51274 43607
L51274 43213
L51236 43269
L51199 43307
L51161 43326
" />
<path d="M51518 43607
L51724 43344
" />
<path d="M51518 43344
L51724 43607
" />
<path d="M51949 43213
L51986 43213
L52024 43232
L52043 43251
L52061 43288
L52080 43363
L52080 43457
L52061 43532
L52043 43569
L52024 43588
L51986 43607
L51949 43607
L51911 43588
L51893 43569
L51874 43532
L51855 43457
L51855 43363
L51874 43288
L51893 43251
L51911 43232
L51949 43213
" />
<path d="M52211 43213
L52455 43213
L52324 43363
L52380 43363
L52418 43382
L52436 43401
L52455 43438
L52455 43532
L52436 43569
L52418 43588
L52380 43607
L52268 43607
L52230 43588
L52211 43569
" />
<path d="M50059 41122
L50059 41404
L50040 41460
L50003 41497
L49947 41516
L49909 41516
" />
<path d="M50209 41122
L50453 41122
L50322 41272
L50378 41272
L50415 41291
L50434 41310
L50453 41347
L50453 41441
L50434 41479
L50415 41497
L50378 41516
L50265 41516
L50228 41497
L50209 41479
" />
<path d="M62043 47615
L62024 47633
L61968 47652
L61930 47652
L61874 47633
L61836 47596
L61818 47558
L61799 47483
L61799 47427
L61818 47352
L61836 47315
L61874 47277
L61930 47258
L61968 47258
L62024 47277
L62043 47296
" />
<path d="M62267 47652
L62230 47633
L62211 47615
L62193 47577
L62193 47465
L62211 47427
L62230 47408
L62267 47390
L62324 47390
L62361 47408
L62380 47427
L62399 47465
L62399 47577
L62380 47615
L62361 47633
L62324 47652
L62267 47652
" />
<path d="M62567 47390
L62567 47652
" />
<path d="M62567 47427
L62586 47408
L62624 47390
L62680 47390
L62717 47408
L62736 47446
L62736 47652
" />
<path d="M62924 47390
L62924 47652
" />
<path d="M62924 47427
L62942 47408
L62980 47390
L63036 47390
L63074 47408
L63092 47446
L63092 47652
" />
<path d="M63186 47690
L63486 47690
" />
<path d="M63655 47258
L63692 47258
L63730 47277
L63749 47296
L63767 47333
L63786 47408
L63786 47502
L63767 47577
L63749 47615
L63730 47633
L63692 47652
L63655 47652
L63617 47633
L63599 47615
L63580 47577
L63561 47502
L63561 47408
L63580 47333
L63599 47296
L63617 47277
L63655 47258
" />
<path d="M64161 47652
L63936 47652
" />
<path d="M64049 47652
L64049 47258
L64011 47315
L63974 47352
L63936 47371
" />
<path d="M64292 47652
L64498 47390
" />
<path d="M64292 47390
L64498 47652
" />
<path d="M64723 47258
L64761 47258
L64798 47277
L64817 47296
L64836 47333
L64855 47408
L64855 47502
L64836 47577
L64817 47615
L64798 47633
L64761 47652
L64723 47652
L64686 47633
L64667 47615
L64648 47577
L64630 47502
L64630 47408
L64648 47333
L64667 47296
L64686 47277
L64723 47258
" />
<path d="M65230 47652
L65005 47652
" />
<path d="M65117 47652
L65117 47258
L65080 47315
L65042 47352
L65005 47371
" />
<path d="M65305 47690
L65605 47690
" />
<path d="M65830 47446
L65698 47446
" />
<path d="M65698 47652
L65698 47258
L65886 47258
" />
<path d="M66186 47633
L66148 47652
L66073 47652
L66036 47633
L66017 47596
L66017 47446
L66036 47408
L66073 47390
L66148 47390
L66186 47408
L66205 47446
L66205 47483
L66017 47521
" />
<path d="M66373 47652
L66373 47390
" />
<path d="M66373 47427
L66392 47408
L66429 47390
L66486 47390
L66523 47408
L66542 47446
L66542 47652
" />
<path d="M66542 47446
L66561 47408
L66598 47390
L66654 47390
L66692 47408
L66711 47446
L66711 47652
" />
<path d="M67067 47652
L67067 47446
L67048 47408
L67011 47390
L66936 47390
L66898 47408
" />
<path d="M67067 47633
L67029 47652
L66936 47652
L66898 47633
L66879 47596
L66879 47558
L66898 47521
L66936 47502
L67029 47502
L67067 47483
" />
<path d="M67311 47652
L67273 47633
L67254 47596
L67254 47258
" />
<path d="M67611 47633
L67573 47652
L67498 47652
L67461 47633
L67442 47596
L67442 47446
L67461 47408
L67498 47390
L67573 47390
L67611 47408
L67629 47446
L67629 47483
L67442 47521
" />
<path d="M64583 45526
L64583 45807
L64564 45863
L64527 45901
L64470 45920
L64433 45920
" />
<path d="M64958 45526
L64770 45526
L64752 45714
L64770 45695
L64808 45676
L64902 45676
L64939 45695
L64958 45714
L64977 45751
L64977 45845
L64958 45882
L64939 45901
L64902 45920
L64808 45920
L64770 45901
L64752 45882
" />
<path d="M62730 47203
L62505 47203
" />
<path d="M62617 47203
L62617 46809
L62580 46866
L62542 46903
L62505 46922
" />
<path d="M62973 46809
L63011 46809
L63048 46828
L63067 46847
L63086 46884
L63105 46959
L63105 47053
L63086 47128
L63067 47166
L63048 47184
L63011 47203
L62973 47203
L62936 47184
L62917 47166
L62898 47128
L62880 47053
L62880 46959
L62898 46884
L62917 46847
L62936 46828
L62973 46809
" />
<path d="M63273 47203
L63273 46809
" />
<path d="M63311 47053
L63423 47203
" />
<path d="M63423 46941
L63273 47091
" />
</g>
<g style="fill:#000000; fill-opacity:0.0; 
stroke:#000000; stroke-width:23.622; stroke-opacity:1; 
stroke-linecap:round; stroke-linejoin:round;">
<path d="M62938 47659
L62885 47584
" />
<path d="M62848 47659
L62848 47502
L62908 47502
L62923 47509
L62930 47517
L62938 47532
L62938 47554
L62930 47569
L62923 47577
L62908 47584
L62848 47584
" />
<path d="M63088 47659
L62998 47659
" />
<path d="M63043 47659
L63043 47502
L63028 47524
L63013 47539
L62998 47547
" />
</g>
<g style="fill:#000000; fill-opacity:0.0; 
stroke:#000000; stroke-width:59.0551; stroke-opacity:1; 
stroke-linecap:round; stroke-linejoin:round;">
<path d="M58223 47328
L58204 47309
L58185 47272
L58185 47178
L58204 47140
L58223 47122
L58260 47103
L58298 47103
L58354 47122
L58579 47347
L58579 47103
" />
<path d="M58223 46953
L58204 46934
L58185 46897
L58185 46803
L58204 46765
L58223 46747
L58260 46728
L58298 46728
L58354 46747
L58579 46972
L58579 46728
" />
</g>
<g style="fill:#000000; fill-opacity:0.0; 
stroke:#000000; stroke-width:23.622; stroke-opacity:1; 
stroke-linecap:round; stroke-linejoin:round;">
<path d="M59035 47054
L58960 47107
" />
<path d="M59035 47144
L58878 47144
L58878 47084
L58885 47069
L58893 47062
L58908 47054
L58930 47054
L58945 47062
L58953 47069
L58960 47084
L58960 47144
" />
<path d="M58893 46994
L58885 46987
L58878 46972
L58878 46934
L58885 46919
L58893 46912
L58908 46904
L58923 46904
L58945 46912
L59035 47002
L59035 46904
" />
</g>
<g style="fill:#000000; fill-opacity:0.0; 
stroke:#000000; stroke-width:59.0551; stroke-opacity:1; 
stroke-linecap:round; stroke-linejoin:round;">
<path d="M57473 47328
L57454 47309
L57435 47272
L57435 47178
L57454 47140
L57473 47122
L57510 47103
L57548 47103
L57604 47122
L57829 47347
L57829 47103
" />
<path d="M57473 46953
L57454 46934
L57435 46897
L57435 46803
L57454 46765
L57473 46747
L57510 46728
L57548 46728
L57604 46747
L57829 46972
L57829 46728
" />
</g>
<g style="fill:#000000; fill-opacity:0.0; 
stroke:#000000; stroke-width:23.622; stroke-opacity:1; 
stroke-linecap:round; stroke-linejoin:round;">
<path d="M58285 47054
L58210 47107
" />
<path d="M58285 47144
L58128 47144
L58128 47084
L58135 47069
L58143 47062
L58158 47054
L58180 47054
L58195 47062
L58203 47069
L58210 47084
L58210 47144
" />
<path d="M58128 47002
L58128 46904
L58188 46957
L58188 46934
L58195 46919
L58203 46912
L58218 46904
L58255 46904
L58270 46912
L58278 46919
L58285 46934
L58285 46979
L58278 46994
L58270 47002
" />
</g>
<g style="fill:#000000; fill-opacity:0.0; 
stroke:#000000; stroke-width:59.0551; stroke-opacity:1; 
stroke-linecap:round; stroke-linejoin:round;">
<path d="M59605 37872
L59605 38097
" />
<path d="M59605 37985
L59211 37985
L59268 38022
L59305 38060
L59324 38097
" />
<path d="M59211 37629
L59211 37591
L59230 37554
L59249 37535
L59286 37516
L59361 37497
L59455 37497
L59530 37516
L59568 37535
L59586 37554
L59605 37591
L59605 37629
L59586 37666
L59568 37685
L59530 37704
L59455 37722
L59361 37722
L59286 37704
L59249 37685
L59230 37666
L59211 37629
" />
<path d="M59605 37329
L59211 37329
" />
<path d="M59455 37291
L59605 37179
" />
<path d="M59343 37179
L59493 37329
" />
</g>
<g style="fill:#000000; fill-opacity:0.0; 
stroke:#000000; stroke-width:23.622; stroke-opacity:1; 
stroke-linecap:round; stroke-linejoin:round;">
<path d="M58935 37664
L58860 37717
" />
<path d="M58935 37754
L58778 37754
L58778 37694
L58785 37679
L58793 37672
L58808 37664
L58830 37664
L58845 37672
L58853 37679
L58860 37694
L58860 37754
" />
<path d="M58778 37522
L58778 37597
L58853 37604
L58845 37597
L58838 37582
L58838 37544
L58845 37529
L58853 37522
L58868 37514
L58905 37514
L58920 37522
L58928 37529
L58935 37544
L58935 37582
L58928 37597
L58920 37604
" />
</g>
<g style="fill:#000000; fill-opacity:0.0; 
stroke:#000000; stroke-width:59.0551; stroke-opacity:1; 
stroke-linecap:round; stroke-linejoin:round;">
<path d="M60379 44072
L60379 44297
" />
<path d="M60379 44185
L59985 44185
L60042 44222
L60079 44260
L60098 44297
" />
<path d="M59985 43829
L59985 43791
L60004 43754
L60023 43735
L60060 43716
L60135 43697
L60229 43697
L60304 43716
L60342 43735
L60360 43754
L60379 43791
L60379 43829
L60360 43866
L60342 43885
L60304 43904
L60229 43922
L60135 43922
L60060 43904
L60023 43885
L60004 43866
L59985 43829
" />
<path d="M60379 43529
L59985 43529
" />
<path d="M60229 43491
L60379 43379
" />
<path d="M60117 43379
L60267 43529
" />
</g>
<g style="fill:#000000; fill-opacity:0.0; 
stroke:#000000; stroke-width:23.622; stroke-opacity:1; 
stroke-linecap:round; stroke-linejoin:round;">
<path d="M60835 43864
L60760 43917
" />
<path d="M60835 43954
L60678 43954
L60678 43894
L60685 43879
L60693 43872
L60708 43864
L60730 43864
L60745 43872
L60753 43879
L60760 43894
L60760 43954
" />
<path d="M60678 43729
L60678 43759
L60685 43774
L60693 43782
L60715 43797
L60745 43804
L60805 43804
L60820 43797
L60828 43789
L60835 43774
L60835 43744
L60828 43729
L60820 43722
L60805 43714
L60768 43714
L60753 43722
L60745 43729
L60738 43744
L60738 43774
L60745 43789
L60753 43797
L60768 43804
" />
</g>
<g style="fill:#000000; fill-opacity:0.0; 
stroke:#000000; stroke-width:59.0551; stroke-opacity:1; 
stroke-linecap:round; stroke-linejoin:round;">
<path d="M60263 43757
L60263 43569
" />
<path d="M60375 43794
L59982 43663
L60375 43532
" />
<path d="M59982 43457
L59982 43232
" />
<path d="M60375 43344
L59982 43344
" />
<path d="M60375 43100
L60113 43100
" />
<path d="M60150 43100
L60132 43082
L60113 43044
L60113 42988
L60132 42950
L60169 42932
L60375 42932
" />
<path d="M60169 42932
L60132 42913
L60113 42875
L60113 42819
L60132 42782
L60169 42763
L60375 42763
" />
<path d="M60356 42425
L60375 42463
L60375 42538
L60356 42575
L60319 42594
L60169 42594
L60132 42575
L60113 42538
L60113 42463
L60132 42425
L60169 42407
L60207 42407
L60244 42594
" />
<path d="M60113 42069
L60431 42069
L60469 42088
L60488 42107
L60506 42144
L60506 42200
L60488 42238
" />
<path d="M60356 42069
L60375 42107
L60375 42182
L60356 42219
L60338 42238
L60300 42257
L60188 42257
L60150 42238
L60132 42219
L60113 42182
L60113 42107
L60132 42069
" />
<path d="M60375 41713
L60169 41713
L60132 41732
L60113 41769
L60113 41844
L60132 41882
" />
<path d="M60356 41713
L60375 41751
L60375 41844
L60356 41882
L60319 41901
L60282 41901
L60244 41882
L60225 41844
L60225 41751
L60207 41713
" />
<path d="M60375 41319
L60375 41544
" />
<path d="M60375 41432
L59982 41432
L60038 41469
L60075 41507
L60094 41544
" />
<path d="M59982 40982
L59982 41057
L60000 41094
L60019 41113
L60075 41151
L60150 41169
L60300 41169
L60338 41151
L60356 41132
L60375 41094
L60375 41019
L60356 40982
L60338 40963
L60300 40944
L60207 40944
L60169 40963
L60150 40982
L60132 41019
L60132 41094
L60150 41132
L60169 41151
L60207 41169
" />
<path d="M59982 40776
L60300 40776
L60338 40757
L60356 40738
L60375 40701
L60375 40626
L60356 40588
L60338 40569
L60300 40551
L59982 40551
" />
<path d="M60113 40194
L60375 40194
" />
<path d="M59963 40288
L60244 40382
L60244 40138
" />
<path d="M60225 39988
L60225 39688
" />
<path d="M60263 39520
L60263 39332
" />
<path d="M60375 39557
L59982 39426
L60375 39295
" />
<path d="M59982 39163
L60300 39163
L60338 39145
L60356 39126
L60375 39088
L60375 39013
L60356 38976
L60338 38957
L60300 38938
L59982 38938
" />
<path d="M57048 41638
L57367 41638
L57405 41619
L57423 41601
L57442 41563
L57442 41488
L57423 41451
L57405 41432
L57367 41413
L57048 41413
" />
<path d="M57048 41263
L57048 41019
L57198 41151
L57198 41094
L57217 41057
L57236 41038
L57273 41019
L57367 41019
L57405 41038
L57423 41057
L57442 41094
L57442 41207
L57423 41244
L57405 41263
" />
<g >
</g>
</g> 
</svg>
