G04 #@! TF.GenerationSoftware,KiCad,Pcbnew,(5.1.0)-1*
G04 #@! TF.CreationDate,2019-04-02T16:52:53+02:00*
G04 #@! TF.ProjectId,FrogINT_PCBProto_V1811062154,46726f67-494e-4545-9f50-434250726f74,rev?*
G04 #@! TF.SameCoordinates,Original*
G04 #@! TF.FileFunction,Legend,Top*
G04 #@! TF.FilePolarity,Positive*
%FSLAX46Y46*%
G04 Gerber Fmt 4.6, Leading zero omitted, Abs format (unit mm)*
G04 Created by KiCad (PCBNEW (5.1.0)-1) date 2019-04-02 16:52:53*
%MOMM*%
%LPD*%
G04 APERTURE LIST*
%ADD10C,0.150000*%
%ADD11C,0.200000*%
%ADD12C,0.120000*%
%ADD13C,0.254000*%
G04 APERTURE END LIST*
D10*
X174916000Y-104365000D02*
X175678000Y-103857000D01*
X174916000Y-103349000D02*
X174916000Y-104365000D01*
X173392000Y-103857000D02*
X175678000Y-103857000D01*
X175678000Y-103857000D02*
X174916000Y-103349000D01*
X161200000Y-104365000D02*
X161962000Y-103857000D01*
X161200000Y-103349000D02*
X161200000Y-104365000D01*
X161962000Y-103857000D02*
X161200000Y-103349000D01*
X159676000Y-103857000D02*
X161962000Y-103857000D01*
X162978000Y-109826000D02*
X162978000Y-99666000D01*
X173138000Y-109826000D02*
X162978000Y-109826000D01*
X173138000Y-99666000D02*
X173138000Y-109826000D01*
X162978000Y-99666000D02*
X173138000Y-99666000D01*
X162978000Y-87855000D02*
X163740000Y-87347000D01*
X162978000Y-86839000D02*
X162978000Y-87855000D01*
X161454000Y-87347000D02*
X163740000Y-87347000D01*
X163740000Y-87347000D02*
X162978000Y-86839000D01*
X149262000Y-87855000D02*
X150024000Y-87347000D01*
X149262000Y-86839000D02*
X149262000Y-87855000D01*
X150024000Y-87347000D02*
X149262000Y-86839000D01*
X147738000Y-87347000D02*
X150024000Y-87347000D01*
X151040000Y-93316000D02*
X151040000Y-83156000D01*
X161200000Y-93316000D02*
X151040000Y-93316000D01*
X161200000Y-83156000D02*
X161200000Y-93316000D01*
X151040000Y-83156000D02*
X161200000Y-83156000D01*
X142150000Y-92173000D02*
X142912000Y-91665000D01*
X142150000Y-91157000D02*
X142150000Y-92173000D01*
X140626000Y-91665000D02*
X142912000Y-91665000D01*
X142912000Y-91665000D02*
X142150000Y-91157000D01*
X128434000Y-92173000D02*
X129196000Y-91665000D01*
X128434000Y-91157000D02*
X128434000Y-92173000D01*
X129196000Y-91665000D02*
X128434000Y-91157000D01*
X126910000Y-91665000D02*
X129196000Y-91665000D01*
X130212000Y-97634000D02*
X130212000Y-87474000D01*
X140372000Y-97634000D02*
X130212000Y-97634000D01*
X140372000Y-87474000D02*
X140372000Y-97634000D01*
X130212000Y-87474000D02*
X140372000Y-87474000D01*
D11*
X144432000Y-118462000D02*
X141392000Y-118462000D01*
D12*
X156722000Y-107404000D02*
X162122000Y-107404000D01*
X156722000Y-103104000D02*
X156722000Y-107404000D01*
X139125000Y-121188000D02*
X139125000Y-118478000D01*
X137555000Y-121188000D02*
X139125000Y-121188000D01*
X137555000Y-118478000D02*
X137555000Y-121188000D01*
X146191000Y-93892000D02*
X146191000Y-96602000D01*
X147761000Y-93892000D02*
X146191000Y-93892000D01*
X147761000Y-96602000D02*
X147761000Y-93892000D01*
X155127000Y-104932000D02*
X155127000Y-102222000D01*
X153557000Y-104932000D02*
X155127000Y-104932000D01*
X153557000Y-102222000D02*
X153557000Y-104932000D01*
X153557000Y-105576000D02*
X153557000Y-108286000D01*
X155127000Y-105576000D02*
X153557000Y-105576000D01*
X155127000Y-108286000D02*
X155127000Y-105576000D01*
X158855000Y-119120000D02*
X161565000Y-119120000D01*
X158855000Y-117550000D02*
X158855000Y-119120000D01*
X161565000Y-117550000D02*
X158855000Y-117550000D01*
X133260000Y-101130000D02*
X134370000Y-101130000D01*
X134370000Y-101130000D02*
X134370000Y-102460000D01*
X123170000Y-101130000D02*
X123170000Y-108870000D01*
X123170000Y-108870000D02*
X131800000Y-108870000D01*
X131800000Y-101130000D02*
X131800000Y-108870000D01*
X123170000Y-101130000D02*
X131800000Y-101130000D01*
X123170000Y-106270000D02*
X131800000Y-106270000D01*
X123170000Y-103730000D02*
X131800000Y-103730000D01*
X131800000Y-107900000D02*
X132210000Y-107900000D01*
X131800000Y-107180000D02*
X132210000Y-107180000D01*
X131800000Y-105360000D02*
X132210000Y-105360000D01*
X131800000Y-104640000D02*
X132210000Y-104640000D01*
X131800000Y-102820000D02*
X132150000Y-102820000D01*
X131800000Y-102100000D02*
X132150000Y-102100000D01*
X123170000Y-103611900D02*
X131800000Y-103611900D01*
X123170000Y-103493805D02*
X131800000Y-103493805D01*
X123170000Y-103375710D02*
X131800000Y-103375710D01*
X123170000Y-103257615D02*
X131800000Y-103257615D01*
X123170000Y-103139520D02*
X131800000Y-103139520D01*
X123170000Y-103021425D02*
X131800000Y-103021425D01*
X123170000Y-102903330D02*
X131800000Y-102903330D01*
X123170000Y-102785235D02*
X131800000Y-102785235D01*
X123170000Y-102667140D02*
X131800000Y-102667140D01*
X123170000Y-102549045D02*
X131800000Y-102549045D01*
X123170000Y-102430950D02*
X131800000Y-102430950D01*
X123170000Y-102312855D02*
X131800000Y-102312855D01*
X123170000Y-102194760D02*
X131800000Y-102194760D01*
X123170000Y-102076665D02*
X131800000Y-102076665D01*
X123170000Y-101958570D02*
X131800000Y-101958570D01*
X123170000Y-101840475D02*
X131800000Y-101840475D01*
X123170000Y-101722380D02*
X131800000Y-101722380D01*
X123170000Y-101604285D02*
X131800000Y-101604285D01*
X123170000Y-101486190D02*
X131800000Y-101486190D01*
X123170000Y-101368095D02*
X131800000Y-101368095D01*
X123170000Y-101250000D02*
X131800000Y-101250000D01*
D11*
X130238000Y-112542000D02*
X130238000Y-118462000D01*
X133488000Y-112542000D02*
X130238000Y-112542000D01*
X133488000Y-119302000D02*
X133488000Y-112542000D01*
X132498000Y-119302000D02*
X133488000Y-119302000D01*
D12*
X165825000Y-118335000D02*
G75*
G03X165825000Y-118335000I-1450000J0D01*
G01*
X160092779Y-120365000D02*
X159767221Y-120365000D01*
X160092779Y-121385000D02*
X159767221Y-121385000D01*
X149260000Y-119289221D02*
X149260000Y-119614779D01*
X150280000Y-119289221D02*
X150280000Y-119614779D01*
X147355000Y-119289221D02*
X147355000Y-119614779D01*
X148375000Y-119289221D02*
X148375000Y-119614779D01*
X150026000Y-95764779D02*
X150026000Y-95439221D01*
X149006000Y-95764779D02*
X149006000Y-95439221D01*
X153832000Y-111187221D02*
X153832000Y-111512779D01*
X154852000Y-111187221D02*
X154852000Y-111512779D01*
D10*
X140852000Y-110175000D02*
X140852000Y-111450000D01*
X140277000Y-99825000D02*
X140277000Y-100500000D01*
X150627000Y-99825000D02*
X150627000Y-100500000D01*
X150627000Y-110175000D02*
X150627000Y-109500000D01*
X140277000Y-110175000D02*
X140277000Y-109500000D01*
X150627000Y-110175000D02*
X149952000Y-110175000D01*
X150627000Y-99825000D02*
X149952000Y-99825000D01*
X140277000Y-99825000D02*
X140952000Y-99825000D01*
X140277000Y-110175000D02*
X140852000Y-110175000D01*
X167891333Y-99102380D02*
X167415142Y-99102380D01*
X167415142Y-98102380D01*
X168129428Y-98102380D02*
X168748476Y-98102380D01*
X168415142Y-98483333D01*
X168558000Y-98483333D01*
X168653238Y-98530952D01*
X168700857Y-98578571D01*
X168748476Y-98673809D01*
X168748476Y-98911904D01*
X168700857Y-99007142D01*
X168653238Y-99054761D01*
X168558000Y-99102380D01*
X168272285Y-99102380D01*
X168177047Y-99054761D01*
X168129428Y-99007142D01*
X169725000Y-98102380D02*
X169915476Y-98102380D01*
X170010714Y-98150000D01*
X170105952Y-98245238D01*
X170153571Y-98435714D01*
X170153571Y-98769047D01*
X170105952Y-98959523D01*
X170010714Y-99054761D01*
X169915476Y-99102380D01*
X169725000Y-99102380D01*
X169629761Y-99054761D01*
X169534523Y-98959523D01*
X169486904Y-98769047D01*
X169486904Y-98435714D01*
X169534523Y-98245238D01*
X169629761Y-98150000D01*
X169725000Y-98102380D01*
X170582142Y-98102380D02*
X170582142Y-98911904D01*
X170629761Y-99007142D01*
X170677380Y-99054761D01*
X170772619Y-99102380D01*
X170963095Y-99102380D01*
X171058333Y-99054761D01*
X171105952Y-99007142D01*
X171153571Y-98911904D01*
X171153571Y-98102380D01*
X171486904Y-98102380D02*
X172058333Y-98102380D01*
X171772619Y-99102380D02*
X171772619Y-98102380D01*
X160494190Y-101398380D02*
X160494190Y-100398380D01*
X160970380Y-101398380D02*
X160970380Y-100398380D01*
X161541809Y-101398380D01*
X161541809Y-100398380D01*
X159684666Y-107998380D02*
X160018000Y-108998380D01*
X160351333Y-107998380D01*
X160684666Y-108998380D02*
X160684666Y-107998380D01*
X160922761Y-107998380D01*
X161065619Y-108046000D01*
X161160857Y-108141238D01*
X161208476Y-108236476D01*
X161256095Y-108426952D01*
X161256095Y-108569809D01*
X161208476Y-108760285D01*
X161160857Y-108855523D01*
X161065619Y-108950761D01*
X160922761Y-108998380D01*
X160684666Y-108998380D01*
X161684666Y-108998380D02*
X161684666Y-107998380D01*
X161922761Y-107998380D01*
X162065619Y-108046000D01*
X162160857Y-108141238D01*
X162208476Y-108236476D01*
X162256095Y-108426952D01*
X162256095Y-108569809D01*
X162208476Y-108760285D01*
X162160857Y-108855523D01*
X162065619Y-108950761D01*
X161922761Y-108998380D01*
X161684666Y-108998380D01*
X168756666Y-110167380D02*
X169090000Y-111167380D01*
X169423333Y-110167380D01*
X169756666Y-111167380D02*
X169756666Y-110167380D01*
X169994761Y-110167380D01*
X170137619Y-110215000D01*
X170232857Y-110310238D01*
X170280476Y-110405476D01*
X170328095Y-110595952D01*
X170328095Y-110738809D01*
X170280476Y-110929285D01*
X170232857Y-111024523D01*
X170137619Y-111119761D01*
X169994761Y-111167380D01*
X169756666Y-111167380D01*
X170756666Y-111167380D02*
X170756666Y-110167380D01*
X170994761Y-110167380D01*
X171137619Y-110215000D01*
X171232857Y-110310238D01*
X171280476Y-110405476D01*
X171328095Y-110595952D01*
X171328095Y-110738809D01*
X171280476Y-110929285D01*
X171232857Y-111024523D01*
X171137619Y-111119761D01*
X170994761Y-111167380D01*
X170756666Y-111167380D01*
X169963095Y-96880000D02*
X169867857Y-96832380D01*
X169725000Y-96832380D01*
X169582142Y-96880000D01*
X169486904Y-96975238D01*
X169439285Y-97070476D01*
X169391666Y-97260952D01*
X169391666Y-97403809D01*
X169439285Y-97594285D01*
X169486904Y-97689523D01*
X169582142Y-97784761D01*
X169725000Y-97832380D01*
X169820238Y-97832380D01*
X169963095Y-97784761D01*
X170010714Y-97737142D01*
X170010714Y-97403809D01*
X169820238Y-97403809D01*
X170439285Y-97832380D02*
X170439285Y-96832380D01*
X171010714Y-97832380D01*
X171010714Y-96832380D01*
X171486904Y-97832380D02*
X171486904Y-96832380D01*
X171725000Y-96832380D01*
X171867857Y-96880000D01*
X171963095Y-96975238D01*
X172010714Y-97070476D01*
X172058333Y-97260952D01*
X172058333Y-97403809D01*
X172010714Y-97594285D01*
X171963095Y-97689523D01*
X171867857Y-97784761D01*
X171725000Y-97832380D01*
X171486904Y-97832380D01*
X160256095Y-98546000D02*
X160160857Y-98498380D01*
X160018000Y-98498380D01*
X159875142Y-98546000D01*
X159779904Y-98641238D01*
X159732285Y-98736476D01*
X159684666Y-98926952D01*
X159684666Y-99069809D01*
X159732285Y-99260285D01*
X159779904Y-99355523D01*
X159875142Y-99450761D01*
X160018000Y-99498380D01*
X160113238Y-99498380D01*
X160256095Y-99450761D01*
X160303714Y-99403142D01*
X160303714Y-99069809D01*
X160113238Y-99069809D01*
X160732285Y-99498380D02*
X160732285Y-98498380D01*
X161303714Y-99498380D01*
X161303714Y-98498380D01*
X161779904Y-99498380D02*
X161779904Y-98498380D01*
X162018000Y-98498380D01*
X162160857Y-98546000D01*
X162256095Y-98641238D01*
X162303714Y-98736476D01*
X162351333Y-98926952D01*
X162351333Y-99069809D01*
X162303714Y-99260285D01*
X162256095Y-99355523D01*
X162160857Y-99450761D01*
X162018000Y-99498380D01*
X161779904Y-99498380D01*
X152433333Y-82338380D02*
X151957142Y-82338380D01*
X151957142Y-81338380D01*
X152719047Y-81433619D02*
X152766666Y-81386000D01*
X152861904Y-81338380D01*
X153100000Y-81338380D01*
X153195238Y-81386000D01*
X153242857Y-81433619D01*
X153290476Y-81528857D01*
X153290476Y-81624095D01*
X153242857Y-81766952D01*
X152671428Y-82338380D01*
X153290476Y-82338380D01*
X162105000Y-85402380D02*
X162295476Y-85402380D01*
X162390714Y-85450000D01*
X162485952Y-85545238D01*
X162533571Y-85735714D01*
X162533571Y-86069047D01*
X162485952Y-86259523D01*
X162390714Y-86354761D01*
X162295476Y-86402380D01*
X162105000Y-86402380D01*
X162009761Y-86354761D01*
X161914523Y-86259523D01*
X161866904Y-86069047D01*
X161866904Y-85735714D01*
X161914523Y-85545238D01*
X162009761Y-85450000D01*
X162105000Y-85402380D01*
X162962142Y-85402380D02*
X162962142Y-86211904D01*
X163009761Y-86307142D01*
X163057380Y-86354761D01*
X163152619Y-86402380D01*
X163343095Y-86402380D01*
X163438333Y-86354761D01*
X163485952Y-86307142D01*
X163533571Y-86211904D01*
X163533571Y-85402380D01*
X163866904Y-85402380D02*
X164438333Y-85402380D01*
X164152619Y-86402380D02*
X164152619Y-85402380D01*
X148556190Y-84888380D02*
X148556190Y-83888380D01*
X149032380Y-84888380D02*
X149032380Y-83888380D01*
X149603809Y-84888380D01*
X149603809Y-83888380D01*
X147746666Y-91488380D02*
X148080000Y-92488380D01*
X148413333Y-91488380D01*
X148746666Y-92488380D02*
X148746666Y-91488380D01*
X148984761Y-91488380D01*
X149127619Y-91536000D01*
X149222857Y-91631238D01*
X149270476Y-91726476D01*
X149318095Y-91916952D01*
X149318095Y-92059809D01*
X149270476Y-92250285D01*
X149222857Y-92345523D01*
X149127619Y-92440761D01*
X148984761Y-92488380D01*
X148746666Y-92488380D01*
X149746666Y-92488380D02*
X149746666Y-91488380D01*
X149984761Y-91488380D01*
X150127619Y-91536000D01*
X150222857Y-91631238D01*
X150270476Y-91726476D01*
X150318095Y-91916952D01*
X150318095Y-92059809D01*
X150270476Y-92250285D01*
X150222857Y-92345523D01*
X150127619Y-92440761D01*
X149984761Y-92488380D01*
X149746666Y-92488380D01*
X161826666Y-91488380D02*
X162160000Y-92488380D01*
X162493333Y-91488380D01*
X162826666Y-92488380D02*
X162826666Y-91488380D01*
X163064761Y-91488380D01*
X163207619Y-91536000D01*
X163302857Y-91631238D01*
X163350476Y-91726476D01*
X163398095Y-91916952D01*
X163398095Y-92059809D01*
X163350476Y-92250285D01*
X163302857Y-92345523D01*
X163207619Y-92440761D01*
X163064761Y-92488380D01*
X162826666Y-92488380D01*
X163826666Y-92488380D02*
X163826666Y-91488380D01*
X164064761Y-91488380D01*
X164207619Y-91536000D01*
X164302857Y-91631238D01*
X164350476Y-91726476D01*
X164398095Y-91916952D01*
X164398095Y-92059809D01*
X164350476Y-92250285D01*
X164302857Y-92345523D01*
X164207619Y-92440761D01*
X164064761Y-92488380D01*
X163826666Y-92488380D01*
X156628095Y-81640000D02*
X156532857Y-81592380D01*
X156390000Y-81592380D01*
X156247142Y-81640000D01*
X156151904Y-81735238D01*
X156104285Y-81830476D01*
X156056666Y-82020952D01*
X156056666Y-82163809D01*
X156104285Y-82354285D01*
X156151904Y-82449523D01*
X156247142Y-82544761D01*
X156390000Y-82592380D01*
X156485238Y-82592380D01*
X156628095Y-82544761D01*
X156675714Y-82497142D01*
X156675714Y-82163809D01*
X156485238Y-82163809D01*
X157104285Y-82592380D02*
X157104285Y-81592380D01*
X157675714Y-82592380D01*
X157675714Y-81592380D01*
X158151904Y-82592380D02*
X158151904Y-81592380D01*
X158390000Y-81592380D01*
X158532857Y-81640000D01*
X158628095Y-81735238D01*
X158675714Y-81830476D01*
X158723333Y-82020952D01*
X158723333Y-82163809D01*
X158675714Y-82354285D01*
X158628095Y-82449523D01*
X158532857Y-82544761D01*
X158390000Y-82592380D01*
X158151904Y-82592380D01*
X148318095Y-82036000D02*
X148222857Y-81988380D01*
X148080000Y-81988380D01*
X147937142Y-82036000D01*
X147841904Y-82131238D01*
X147794285Y-82226476D01*
X147746666Y-82416952D01*
X147746666Y-82559809D01*
X147794285Y-82750285D01*
X147841904Y-82845523D01*
X147937142Y-82940761D01*
X148080000Y-82988380D01*
X148175238Y-82988380D01*
X148318095Y-82940761D01*
X148365714Y-82893142D01*
X148365714Y-82559809D01*
X148175238Y-82559809D01*
X148794285Y-82988380D02*
X148794285Y-81988380D01*
X149365714Y-82988380D01*
X149365714Y-81988380D01*
X149841904Y-82988380D02*
X149841904Y-81988380D01*
X150080000Y-81988380D01*
X150222857Y-82036000D01*
X150318095Y-82131238D01*
X150365714Y-82226476D01*
X150413333Y-82416952D01*
X150413333Y-82559809D01*
X150365714Y-82750285D01*
X150318095Y-82845523D01*
X150222857Y-82940761D01*
X150080000Y-82988380D01*
X149841904Y-82988380D01*
X135633333Y-86910380D02*
X135157142Y-86910380D01*
X135157142Y-85910380D01*
X136490476Y-86910380D02*
X135919047Y-86910380D01*
X136204761Y-86910380D02*
X136204761Y-85910380D01*
X136109523Y-86053238D01*
X136014285Y-86148476D01*
X135919047Y-86196095D01*
X140896000Y-89720380D02*
X141086476Y-89720380D01*
X141181714Y-89768000D01*
X141276952Y-89863238D01*
X141324571Y-90053714D01*
X141324571Y-90387047D01*
X141276952Y-90577523D01*
X141181714Y-90672761D01*
X141086476Y-90720380D01*
X140896000Y-90720380D01*
X140800761Y-90672761D01*
X140705523Y-90577523D01*
X140657904Y-90387047D01*
X140657904Y-90053714D01*
X140705523Y-89863238D01*
X140800761Y-89768000D01*
X140896000Y-89720380D01*
X141753142Y-89720380D02*
X141753142Y-90529904D01*
X141800761Y-90625142D01*
X141848380Y-90672761D01*
X141943619Y-90720380D01*
X142134095Y-90720380D01*
X142229333Y-90672761D01*
X142276952Y-90625142D01*
X142324571Y-90529904D01*
X142324571Y-89720380D01*
X142657904Y-89720380D02*
X143229333Y-89720380D01*
X142943619Y-90720380D02*
X142943619Y-89720380D01*
X130704190Y-89206380D02*
X130704190Y-88206380D01*
X131180380Y-89206380D02*
X131180380Y-88206380D01*
X131751809Y-89206380D01*
X131751809Y-88206380D01*
X127100666Y-96324380D02*
X127434000Y-97324380D01*
X127767333Y-96324380D01*
X128100666Y-97324380D02*
X128100666Y-96324380D01*
X128338761Y-96324380D01*
X128481619Y-96372000D01*
X128576857Y-96467238D01*
X128624476Y-96562476D01*
X128672095Y-96752952D01*
X128672095Y-96895809D01*
X128624476Y-97086285D01*
X128576857Y-97181523D01*
X128481619Y-97276761D01*
X128338761Y-97324380D01*
X128100666Y-97324380D01*
X129100666Y-97324380D02*
X129100666Y-96324380D01*
X129338761Y-96324380D01*
X129481619Y-96372000D01*
X129576857Y-96467238D01*
X129624476Y-96562476D01*
X129672095Y-96752952D01*
X129672095Y-96895809D01*
X129624476Y-97086285D01*
X129576857Y-97181523D01*
X129481619Y-97276761D01*
X129338761Y-97324380D01*
X129100666Y-97324380D01*
X140998666Y-95806380D02*
X141332000Y-96806380D01*
X141665333Y-95806380D01*
X141998666Y-96806380D02*
X141998666Y-95806380D01*
X142236761Y-95806380D01*
X142379619Y-95854000D01*
X142474857Y-95949238D01*
X142522476Y-96044476D01*
X142570095Y-96234952D01*
X142570095Y-96377809D01*
X142522476Y-96568285D01*
X142474857Y-96663523D01*
X142379619Y-96758761D01*
X142236761Y-96806380D01*
X141998666Y-96806380D01*
X142998666Y-96806380D02*
X142998666Y-95806380D01*
X143236761Y-95806380D01*
X143379619Y-95854000D01*
X143474857Y-95949238D01*
X143522476Y-96044476D01*
X143570095Y-96234952D01*
X143570095Y-96377809D01*
X143522476Y-96568285D01*
X143474857Y-96663523D01*
X143379619Y-96758761D01*
X143236761Y-96806380D01*
X142998666Y-96806380D01*
X139102095Y-85958000D02*
X139006857Y-85910380D01*
X138864000Y-85910380D01*
X138721142Y-85958000D01*
X138625904Y-86053238D01*
X138578285Y-86148476D01*
X138530666Y-86338952D01*
X138530666Y-86481809D01*
X138578285Y-86672285D01*
X138625904Y-86767523D01*
X138721142Y-86862761D01*
X138864000Y-86910380D01*
X138959238Y-86910380D01*
X139102095Y-86862761D01*
X139149714Y-86815142D01*
X139149714Y-86481809D01*
X138959238Y-86481809D01*
X139578285Y-86910380D02*
X139578285Y-85910380D01*
X140149714Y-86910380D01*
X140149714Y-85910380D01*
X140625904Y-86910380D02*
X140625904Y-85910380D01*
X140864000Y-85910380D01*
X141006857Y-85958000D01*
X141102095Y-86053238D01*
X141149714Y-86148476D01*
X141197333Y-86338952D01*
X141197333Y-86481809D01*
X141149714Y-86672285D01*
X141102095Y-86767523D01*
X141006857Y-86862761D01*
X140864000Y-86910380D01*
X140625904Y-86910380D01*
X132244095Y-86212000D02*
X132148857Y-86164380D01*
X132006000Y-86164380D01*
X131863142Y-86212000D01*
X131767904Y-86307238D01*
X131720285Y-86402476D01*
X131672666Y-86592952D01*
X131672666Y-86735809D01*
X131720285Y-86926285D01*
X131767904Y-87021523D01*
X131863142Y-87116761D01*
X132006000Y-87164380D01*
X132101238Y-87164380D01*
X132244095Y-87116761D01*
X132291714Y-87069142D01*
X132291714Y-86735809D01*
X132101238Y-86735809D01*
X132720285Y-87164380D02*
X132720285Y-86164380D01*
X133291714Y-87164380D01*
X133291714Y-86164380D01*
X133767904Y-87164380D02*
X133767904Y-86164380D01*
X134006000Y-86164380D01*
X134148857Y-86212000D01*
X134244095Y-86307238D01*
X134291714Y-86402476D01*
X134339333Y-86592952D01*
X134339333Y-86735809D01*
X134291714Y-86926285D01*
X134244095Y-87021523D01*
X134148857Y-87116761D01*
X134006000Y-87164380D01*
X133767904Y-87164380D01*
D13*
X139948666Y-114307285D02*
X139525333Y-114307285D01*
X139525333Y-114972523D02*
X139525333Y-113702523D01*
X140130095Y-113702523D01*
X141279142Y-114972523D02*
X140553428Y-114972523D01*
X140916285Y-114972523D02*
X140916285Y-113702523D01*
X140795333Y-113883952D01*
X140674380Y-114004904D01*
X140553428Y-114065380D01*
D10*
X145654857Y-117120571D02*
X145321523Y-117120571D01*
X145321523Y-117644380D02*
X145321523Y-116644380D01*
X145797714Y-116644380D01*
X140546666Y-127312380D02*
X140546666Y-128026666D01*
X140499047Y-128169523D01*
X140403809Y-128264761D01*
X140260952Y-128312380D01*
X140165714Y-128312380D01*
X141546666Y-128312380D02*
X140975238Y-128312380D01*
X141260952Y-128312380D02*
X141260952Y-127312380D01*
X141165714Y-127455238D01*
X141070476Y-127550476D01*
X140975238Y-127598095D01*
X158945809Y-102280190D02*
X158945809Y-102756380D01*
X158612476Y-101756380D02*
X158945809Y-102280190D01*
X159279142Y-101756380D01*
X160136285Y-102756380D02*
X159564857Y-102756380D01*
X159850571Y-102756380D02*
X159850571Y-101756380D01*
X159755333Y-101899238D01*
X159660095Y-101994476D01*
X159564857Y-102042095D01*
X139443333Y-122375142D02*
X139395714Y-122422761D01*
X139252857Y-122470380D01*
X139157619Y-122470380D01*
X139014761Y-122422761D01*
X138919523Y-122327523D01*
X138871904Y-122232285D01*
X138824285Y-122041809D01*
X138824285Y-121898952D01*
X138871904Y-121708476D01*
X138919523Y-121613238D01*
X139014761Y-121518000D01*
X139157619Y-121470380D01*
X139252857Y-121470380D01*
X139395714Y-121518000D01*
X139443333Y-121565619D01*
X140395714Y-122470380D02*
X139824285Y-122470380D01*
X140110000Y-122470380D02*
X140110000Y-121470380D01*
X140014761Y-121613238D01*
X139919523Y-121708476D01*
X139824285Y-121756095D01*
X144777333Y-95705142D02*
X144729714Y-95752761D01*
X144586857Y-95800380D01*
X144491619Y-95800380D01*
X144348761Y-95752761D01*
X144253523Y-95657523D01*
X144205904Y-95562285D01*
X144158285Y-95371809D01*
X144158285Y-95228952D01*
X144205904Y-95038476D01*
X144253523Y-94943238D01*
X144348761Y-94848000D01*
X144491619Y-94800380D01*
X144586857Y-94800380D01*
X144729714Y-94848000D01*
X144777333Y-94895619D01*
X145158285Y-94895619D02*
X145205904Y-94848000D01*
X145301142Y-94800380D01*
X145539238Y-94800380D01*
X145634476Y-94848000D01*
X145682095Y-94895619D01*
X145729714Y-94990857D01*
X145729714Y-95086095D01*
X145682095Y-95228952D01*
X145110666Y-95800380D01*
X145729714Y-95800380D01*
X156207333Y-102563142D02*
X156159714Y-102610761D01*
X156016857Y-102658380D01*
X155921619Y-102658380D01*
X155778761Y-102610761D01*
X155683523Y-102515523D01*
X155635904Y-102420285D01*
X155588285Y-102229809D01*
X155588285Y-102086952D01*
X155635904Y-101896476D01*
X155683523Y-101801238D01*
X155778761Y-101706000D01*
X155921619Y-101658380D01*
X156016857Y-101658380D01*
X156159714Y-101706000D01*
X156207333Y-101753619D01*
X157112095Y-101658380D02*
X156635904Y-101658380D01*
X156588285Y-102134571D01*
X156635904Y-102086952D01*
X156731142Y-102039333D01*
X156969238Y-102039333D01*
X157064476Y-102086952D01*
X157112095Y-102134571D01*
X157159714Y-102229809D01*
X157159714Y-102467904D01*
X157112095Y-102563142D01*
X157064476Y-102610761D01*
X156969238Y-102658380D01*
X156731142Y-102658380D01*
X156635904Y-102610761D01*
X156588285Y-102563142D01*
X156207333Y-108659142D02*
X156159714Y-108706761D01*
X156016857Y-108754380D01*
X155921619Y-108754380D01*
X155778761Y-108706761D01*
X155683523Y-108611523D01*
X155635904Y-108516285D01*
X155588285Y-108325809D01*
X155588285Y-108182952D01*
X155635904Y-107992476D01*
X155683523Y-107897238D01*
X155778761Y-107802000D01*
X155921619Y-107754380D01*
X156016857Y-107754380D01*
X156159714Y-107802000D01*
X156207333Y-107849619D01*
X157064476Y-107754380D02*
X156874000Y-107754380D01*
X156778761Y-107802000D01*
X156731142Y-107849619D01*
X156635904Y-107992476D01*
X156588285Y-108182952D01*
X156588285Y-108563904D01*
X156635904Y-108659142D01*
X156683523Y-108706761D01*
X156778761Y-108754380D01*
X156969238Y-108754380D01*
X157064476Y-108706761D01*
X157112095Y-108659142D01*
X157159714Y-108563904D01*
X157159714Y-108325809D01*
X157112095Y-108230571D01*
X157064476Y-108182952D01*
X156969238Y-108135333D01*
X156778761Y-108135333D01*
X156683523Y-108182952D01*
X156635904Y-108230571D01*
X156588285Y-108325809D01*
X159252141Y-117042141D02*
X159204522Y-117089760D01*
X159061665Y-117137379D01*
X158966427Y-117137379D01*
X158823570Y-117089760D01*
X158728332Y-116994522D01*
X158680713Y-116899284D01*
X158633094Y-116708808D01*
X158633094Y-116565951D01*
X158680713Y-116375475D01*
X158728332Y-116280237D01*
X158823570Y-116184999D01*
X158966427Y-116137379D01*
X159061665Y-116137379D01*
X159204522Y-116184999D01*
X159252141Y-116232618D01*
X160204522Y-117137379D02*
X159633094Y-117137379D01*
X159918808Y-117137379D02*
X159918808Y-116137379D01*
X159823570Y-116280237D01*
X159728332Y-116375475D01*
X159633094Y-116423094D01*
X161156903Y-117137379D02*
X160585475Y-117137379D01*
X160871189Y-117137379D02*
X160871189Y-116137379D01*
X160775951Y-116280237D01*
X160680713Y-116375475D01*
X160585475Y-116423094D01*
X128546666Y-99142380D02*
X128546666Y-99856666D01*
X128499047Y-99999523D01*
X128403809Y-100094761D01*
X128260952Y-100142380D01*
X128165714Y-100142380D01*
X128927619Y-99142380D02*
X129546666Y-99142380D01*
X129213333Y-99523333D01*
X129356190Y-99523333D01*
X129451428Y-99570952D01*
X129499047Y-99618571D01*
X129546666Y-99713809D01*
X129546666Y-99951904D01*
X129499047Y-100047142D01*
X129451428Y-100094761D01*
X129356190Y-100142380D01*
X129070476Y-100142380D01*
X128975238Y-100094761D01*
X128927619Y-100047142D01*
D13*
X127629666Y-113956523D02*
X127629666Y-114863666D01*
X127569190Y-115045095D01*
X127448238Y-115166047D01*
X127266809Y-115226523D01*
X127145857Y-115226523D01*
X128778714Y-114379857D02*
X128778714Y-115226523D01*
X128476333Y-113896047D02*
X128173952Y-114803190D01*
X128960142Y-114803190D01*
D10*
X162771666Y-115639380D02*
X162771666Y-116353666D01*
X162724047Y-116496523D01*
X162628809Y-116591761D01*
X162485952Y-116639380D01*
X162390714Y-116639380D01*
X163724047Y-115639380D02*
X163247857Y-115639380D01*
X163200238Y-116115571D01*
X163247857Y-116067952D01*
X163343095Y-116020333D01*
X163581190Y-116020333D01*
X163676428Y-116067952D01*
X163724047Y-116115571D01*
X163771666Y-116210809D01*
X163771666Y-116448904D01*
X163724047Y-116544142D01*
X163676428Y-116591761D01*
X163581190Y-116639380D01*
X163343095Y-116639380D01*
X163247857Y-116591761D01*
X163200238Y-116544142D01*
X159763333Y-122757380D02*
X159430000Y-122281190D01*
X159191904Y-122757380D02*
X159191904Y-121757380D01*
X159572857Y-121757380D01*
X159668095Y-121805000D01*
X159715714Y-121852619D01*
X159763333Y-121947857D01*
X159763333Y-122090714D01*
X159715714Y-122185952D01*
X159668095Y-122233571D01*
X159572857Y-122281190D01*
X159191904Y-122281190D01*
X160715714Y-122757380D02*
X160144285Y-122757380D01*
X160430000Y-122757380D02*
X160430000Y-121757380D01*
X160334761Y-121900238D01*
X160239523Y-121995476D01*
X160144285Y-122043095D01*
X151508333Y-119904380D02*
X151175000Y-119428190D01*
X150936904Y-119904380D02*
X150936904Y-118904380D01*
X151317857Y-118904380D01*
X151413095Y-118952000D01*
X151460714Y-118999619D01*
X151508333Y-119094857D01*
X151508333Y-119237714D01*
X151460714Y-119332952D01*
X151413095Y-119380571D01*
X151317857Y-119428190D01*
X150936904Y-119428190D01*
X151889285Y-118999619D02*
X151936904Y-118952000D01*
X152032142Y-118904380D01*
X152270238Y-118904380D01*
X152365476Y-118952000D01*
X152413095Y-118999619D01*
X152460714Y-119094857D01*
X152460714Y-119190095D01*
X152413095Y-119332952D01*
X151841666Y-119904380D01*
X152460714Y-119904380D01*
X145793333Y-119421880D02*
X145460000Y-118945690D01*
X145221904Y-119421880D02*
X145221904Y-118421880D01*
X145602857Y-118421880D01*
X145698095Y-118469500D01*
X145745714Y-118517119D01*
X145793333Y-118612357D01*
X145793333Y-118755214D01*
X145745714Y-118850452D01*
X145698095Y-118898071D01*
X145602857Y-118945690D01*
X145221904Y-118945690D01*
X146126666Y-118421880D02*
X146745714Y-118421880D01*
X146412380Y-118802833D01*
X146555238Y-118802833D01*
X146650476Y-118850452D01*
X146698095Y-118898071D01*
X146745714Y-118993309D01*
X146745714Y-119231404D01*
X146698095Y-119326642D01*
X146650476Y-119374261D01*
X146555238Y-119421880D01*
X146269523Y-119421880D01*
X146174285Y-119374261D01*
X146126666Y-119326642D01*
X151127333Y-96308380D02*
X150794000Y-95832190D01*
X150555904Y-96308380D02*
X150555904Y-95308380D01*
X150936857Y-95308380D01*
X151032095Y-95356000D01*
X151079714Y-95403619D01*
X151127333Y-95498857D01*
X151127333Y-95641714D01*
X151079714Y-95736952D01*
X151032095Y-95784571D01*
X150936857Y-95832190D01*
X150555904Y-95832190D01*
X152032095Y-95308380D02*
X151555904Y-95308380D01*
X151508285Y-95784571D01*
X151555904Y-95736952D01*
X151651142Y-95689333D01*
X151889238Y-95689333D01*
X151984476Y-95736952D01*
X152032095Y-95784571D01*
X152079714Y-95879809D01*
X152079714Y-96117904D01*
X152032095Y-96213142D01*
X151984476Y-96260761D01*
X151889238Y-96308380D01*
X151651142Y-96308380D01*
X151555904Y-96260761D01*
X151508285Y-96213142D01*
X156207333Y-112310380D02*
X155874000Y-111834190D01*
X155635904Y-112310380D02*
X155635904Y-111310380D01*
X156016857Y-111310380D01*
X156112095Y-111358000D01*
X156159714Y-111405619D01*
X156207333Y-111500857D01*
X156207333Y-111643714D01*
X156159714Y-111738952D01*
X156112095Y-111786571D01*
X156016857Y-111834190D01*
X155635904Y-111834190D01*
X157064476Y-111310380D02*
X156874000Y-111310380D01*
X156778761Y-111358000D01*
X156731142Y-111405619D01*
X156635904Y-111548476D01*
X156588285Y-111738952D01*
X156588285Y-112119904D01*
X156635904Y-112215142D01*
X156683523Y-112262761D01*
X156778761Y-112310380D01*
X156969238Y-112310380D01*
X157064476Y-112262761D01*
X157112095Y-112215142D01*
X157159714Y-112119904D01*
X157159714Y-111881809D01*
X157112095Y-111786571D01*
X157064476Y-111738952D01*
X156969238Y-111691333D01*
X156778761Y-111691333D01*
X156683523Y-111738952D01*
X156635904Y-111786571D01*
X156588285Y-111881809D01*
X137454380Y-105761904D02*
X138263904Y-105761904D01*
X138359142Y-105714285D01*
X138406761Y-105666666D01*
X138454380Y-105571428D01*
X138454380Y-105380952D01*
X138406761Y-105285714D01*
X138359142Y-105238095D01*
X138263904Y-105190476D01*
X137454380Y-105190476D01*
X137454380Y-104809523D02*
X137454380Y-104190476D01*
X137835333Y-104523809D01*
X137835333Y-104380952D01*
X137882952Y-104285714D01*
X137930571Y-104238095D01*
X138025809Y-104190476D01*
X138263904Y-104190476D01*
X138359142Y-104238095D01*
X138406761Y-104285714D01*
X138454380Y-104380952D01*
X138454380Y-104666666D01*
X138406761Y-104761904D01*
X138359142Y-104809523D01*
M02*
