G04 #@! TF.GenerationSoftware,KiCad,Pcbnew,(5.1.0)-1*
G04 #@! TF.CreationDate,2019-04-02T16:52:52+02:00*
G04 #@! TF.ProjectId,FrogINT_PCBProto_V1811062154,46726f67-494e-4545-9f50-434250726f74,rev?*
G04 #@! TF.SameCoordinates,Original*
G04 #@! TF.FileFunction,Copper,L2,Bot*
G04 #@! TF.FilePolarity,Positive*
%FSLAX46Y46*%
G04 Gerber Fmt 4.6, Leading zero omitted, Abs format (unit mm)*
G04 Created by KiCad (PCBNEW (5.1.0)-1) date 2019-04-02 16:52:52*
%MOMM*%
%LPD*%
G04 APERTURE LIST*
%ADD10O,1.200000X2.400000*%
%ADD11O,1.200000X2.100000*%
%ADD12O,1.700000X1.700000*%
%ADD13R,1.700000X1.700000*%
%ADD14C,1.000000*%
%ADD15R,1.000000X1.000000*%
%ADD16C,2.500000*%
%ADD17C,0.800000*%
%ADD18C,0.250000*%
%ADD19C,0.254000*%
G04 APERTURE END LIST*
D10*
X153450000Y-128450000D03*
X143550000Y-128450000D03*
D11*
X143550000Y-124450000D03*
X153450000Y-124450000D03*
D12*
X133260000Y-107540000D03*
X133260000Y-105000000D03*
D13*
X133260000Y-102460000D03*
D14*
X131228000Y-113382000D03*
X132498000Y-113382000D03*
X131228000Y-114652000D03*
X132498000Y-114652000D03*
X131228000Y-115922000D03*
X132498000Y-115922000D03*
X131228000Y-117192000D03*
X132498000Y-117192000D03*
X131228000Y-118462000D03*
D15*
X132498000Y-118462000D03*
D16*
X164375000Y-118335000D03*
D17*
X149751600Y-106655000D03*
X135563500Y-108970700D03*
X135298600Y-93504000D03*
X148159800Y-108904500D03*
D18*
X149751600Y-106655000D02*
X149751600Y-108343500D01*
X149751600Y-108343500D02*
X138807700Y-119287400D01*
X138807700Y-119287400D02*
X131863000Y-119287400D01*
X131863000Y-119287400D02*
X131228000Y-118652400D01*
X131228000Y-118652400D02*
X131228000Y-118462000D01*
X131228000Y-118462000D02*
X129932600Y-117166600D01*
X129932600Y-117166600D02*
X129932600Y-112042700D01*
X129932600Y-112042700D02*
X133260000Y-108715300D01*
X133260000Y-107540000D02*
X133260000Y-108715300D01*
X133353000Y-112500600D02*
X130909200Y-112500600D01*
X130909200Y-112500600D02*
X130402500Y-113007300D01*
X130402500Y-113007300D02*
X130402500Y-116366500D01*
X130402500Y-116366500D02*
X131228000Y-117192000D01*
X133260000Y-106175300D02*
X133627300Y-106175300D01*
X133627300Y-106175300D02*
X134452200Y-107000200D01*
X134452200Y-107000200D02*
X134452200Y-111401400D01*
X134452200Y-111401400D02*
X133353000Y-112500600D01*
X133353000Y-112500600D02*
X133353000Y-113797000D01*
X133353000Y-113797000D02*
X132498000Y-114652000D01*
X133260000Y-105000000D02*
X133260000Y-106175300D01*
X135563500Y-108970700D02*
X135563500Y-114126500D01*
X135563500Y-114126500D02*
X132498000Y-117192000D01*
X135298600Y-93504000D02*
X135298600Y-96043300D01*
X135298600Y-96043300D02*
X148159800Y-108904500D01*
D19*
G36*
X150461912Y-80071544D02*
G01*
X152411728Y-80302320D01*
X154337427Y-80685365D01*
X156227137Y-81218318D01*
X158069206Y-81897893D01*
X159852278Y-82719901D01*
X161565359Y-83679272D01*
X163197888Y-84770093D01*
X164739799Y-85985638D01*
X166181587Y-87318413D01*
X167514362Y-88760201D01*
X168729907Y-90302112D01*
X169820728Y-91934641D01*
X170780099Y-93647722D01*
X171602107Y-95430794D01*
X172281682Y-97272863D01*
X172814635Y-99162573D01*
X173197680Y-101088272D01*
X173428456Y-103038088D01*
X173505540Y-105000000D01*
X173428456Y-106961912D01*
X173197680Y-108911728D01*
X172814635Y-110837427D01*
X172281682Y-112727137D01*
X171602107Y-114569206D01*
X170780099Y-116352278D01*
X169820728Y-118065359D01*
X168729907Y-119697888D01*
X167514362Y-121239799D01*
X166181587Y-122681587D01*
X164739799Y-124014362D01*
X163197888Y-125229907D01*
X161565359Y-126320728D01*
X159852278Y-127280099D01*
X158069206Y-128102107D01*
X156227137Y-128781682D01*
X154674267Y-129219636D01*
X154685000Y-129110665D01*
X154685000Y-127789335D01*
X154667130Y-127607898D01*
X154596511Y-127375099D01*
X154481833Y-127160551D01*
X154327502Y-126972498D01*
X154139448Y-126818167D01*
X153924900Y-126703489D01*
X153692101Y-126632870D01*
X153450000Y-126609025D01*
X153207898Y-126632870D01*
X152975099Y-126703489D01*
X152760551Y-126818167D01*
X152572498Y-126972498D01*
X152418167Y-127160552D01*
X152303489Y-127375100D01*
X152232870Y-127607899D01*
X152215000Y-127789336D01*
X152215000Y-129110665D01*
X152232870Y-129292102D01*
X152303489Y-129524901D01*
X152396787Y-129699448D01*
X150461912Y-129928456D01*
X148500000Y-130005540D01*
X146538088Y-129928456D01*
X144603214Y-129699448D01*
X144696511Y-129524901D01*
X144767130Y-129292102D01*
X144785000Y-129110665D01*
X144785000Y-127789335D01*
X144767130Y-127607898D01*
X144696511Y-127375099D01*
X144581833Y-127160551D01*
X144427502Y-126972498D01*
X144239448Y-126818167D01*
X144024900Y-126703489D01*
X143792101Y-126632870D01*
X143550000Y-126609025D01*
X143307898Y-126632870D01*
X143075099Y-126703489D01*
X142860551Y-126818167D01*
X142672498Y-126972498D01*
X142518167Y-127160552D01*
X142403489Y-127375100D01*
X142332870Y-127607899D01*
X142315000Y-127789336D01*
X142315000Y-129110665D01*
X142325733Y-129219636D01*
X140772863Y-128781682D01*
X138930794Y-128102107D01*
X137147722Y-127280099D01*
X135434641Y-126320728D01*
X133802112Y-125229907D01*
X132260201Y-124014362D01*
X132179039Y-123939336D01*
X142315000Y-123939336D01*
X142315000Y-124960665D01*
X142332870Y-125142102D01*
X142403489Y-125374901D01*
X142518168Y-125589449D01*
X142672499Y-125777502D01*
X142860552Y-125931833D01*
X143075100Y-126046511D01*
X143307899Y-126117130D01*
X143550000Y-126140975D01*
X143792102Y-126117130D01*
X144024901Y-126046511D01*
X144239449Y-125931833D01*
X144427502Y-125777502D01*
X144581833Y-125589449D01*
X144696511Y-125374901D01*
X144767130Y-125142102D01*
X144785000Y-124960664D01*
X144785000Y-123939336D01*
X152215000Y-123939336D01*
X152215000Y-124960665D01*
X152232870Y-125142102D01*
X152303489Y-125374901D01*
X152418168Y-125589449D01*
X152572499Y-125777502D01*
X152760552Y-125931833D01*
X152975100Y-126046511D01*
X153207899Y-126117130D01*
X153450000Y-126140975D01*
X153692102Y-126117130D01*
X153924901Y-126046511D01*
X154139449Y-125931833D01*
X154327502Y-125777502D01*
X154481833Y-125589449D01*
X154596511Y-125374901D01*
X154667130Y-125142102D01*
X154685000Y-124960664D01*
X154685000Y-123939335D01*
X154667130Y-123757898D01*
X154596511Y-123525099D01*
X154481833Y-123310551D01*
X154327502Y-123122498D01*
X154139448Y-122968167D01*
X153924900Y-122853489D01*
X153692101Y-122782870D01*
X153450000Y-122759025D01*
X153207898Y-122782870D01*
X152975099Y-122853489D01*
X152760551Y-122968167D01*
X152572498Y-123122498D01*
X152418167Y-123310552D01*
X152303489Y-123525100D01*
X152232870Y-123757899D01*
X152215000Y-123939336D01*
X144785000Y-123939336D01*
X144785000Y-123939335D01*
X144767130Y-123757898D01*
X144696511Y-123525099D01*
X144581833Y-123310551D01*
X144427502Y-123122498D01*
X144239448Y-122968167D01*
X144024900Y-122853489D01*
X143792101Y-122782870D01*
X143550000Y-122759025D01*
X143307898Y-122782870D01*
X143075099Y-122853489D01*
X142860551Y-122968167D01*
X142672498Y-123122498D01*
X142518167Y-123310552D01*
X142403489Y-123525100D01*
X142332870Y-123757899D01*
X142315000Y-123939336D01*
X132179039Y-123939336D01*
X130818413Y-122681587D01*
X129485638Y-121239799D01*
X128270093Y-119697888D01*
X127179272Y-118065359D01*
X126219901Y-116352278D01*
X125397893Y-114569206D01*
X124821676Y-113007300D01*
X129638824Y-113007300D01*
X129642500Y-113044623D01*
X129642501Y-116329168D01*
X129638824Y-116366500D01*
X129653498Y-116515485D01*
X129696954Y-116658746D01*
X129767526Y-116790776D01*
X129825103Y-116860933D01*
X129862500Y-116906501D01*
X129891498Y-116930299D01*
X130093000Y-117131801D01*
X130093000Y-117303788D01*
X130136617Y-117523067D01*
X130222176Y-117729624D01*
X130325280Y-117883930D01*
X130236412Y-117898550D01*
X130145542Y-118102826D01*
X130096269Y-118320905D01*
X130090489Y-118544406D01*
X130128423Y-118764740D01*
X130208613Y-118973440D01*
X130236412Y-119025450D01*
X130449834Y-119060561D01*
X131048395Y-118462000D01*
X131034253Y-118447858D01*
X131155110Y-118327000D01*
X131300890Y-118327000D01*
X131359928Y-118386038D01*
X131359928Y-118537962D01*
X131242143Y-118655748D01*
X131228000Y-118641605D01*
X130629439Y-119240166D01*
X130664550Y-119453588D01*
X130868826Y-119544458D01*
X131086905Y-119593731D01*
X131310406Y-119599511D01*
X131530740Y-119561577D01*
X131671491Y-119507495D01*
X131753820Y-119551502D01*
X131873518Y-119587812D01*
X131998000Y-119600072D01*
X132998000Y-119600072D01*
X133122482Y-119587812D01*
X133242180Y-119551502D01*
X133352494Y-119492537D01*
X133449185Y-119413185D01*
X133528537Y-119316494D01*
X133587502Y-119206180D01*
X133623812Y-119086482D01*
X133636072Y-118962000D01*
X133636072Y-118149344D01*
X162490000Y-118149344D01*
X162490000Y-118520656D01*
X162562439Y-118884834D01*
X162704534Y-119227882D01*
X162910825Y-119536618D01*
X163173382Y-119799175D01*
X163482118Y-120005466D01*
X163825166Y-120147561D01*
X164189344Y-120220000D01*
X164560656Y-120220000D01*
X164924834Y-120147561D01*
X165267882Y-120005466D01*
X165576618Y-119799175D01*
X165839175Y-119536618D01*
X166045466Y-119227882D01*
X166187561Y-118884834D01*
X166260000Y-118520656D01*
X166260000Y-118149344D01*
X166187561Y-117785166D01*
X166045466Y-117442118D01*
X165839175Y-117133382D01*
X165576618Y-116870825D01*
X165267882Y-116664534D01*
X164924834Y-116522439D01*
X164560656Y-116450000D01*
X164189344Y-116450000D01*
X163825166Y-116522439D01*
X163482118Y-116664534D01*
X163173382Y-116870825D01*
X162910825Y-117133382D01*
X162704534Y-117442118D01*
X162562439Y-117785166D01*
X162490000Y-118149344D01*
X133636072Y-118149344D01*
X133636072Y-117962000D01*
X133623812Y-117837518D01*
X133587502Y-117717820D01*
X133543112Y-117634774D01*
X133589383Y-117523067D01*
X133633000Y-117303788D01*
X133633000Y-117131801D01*
X136074503Y-114690299D01*
X136103501Y-114666501D01*
X136198474Y-114550776D01*
X136269046Y-114418747D01*
X136312503Y-114275486D01*
X136323500Y-114163833D01*
X136323500Y-114163825D01*
X136327176Y-114126500D01*
X136323500Y-114089175D01*
X136323500Y-109674411D01*
X136367437Y-109630474D01*
X136480705Y-109460956D01*
X136558726Y-109272598D01*
X136598500Y-109072639D01*
X136598500Y-108868761D01*
X136558726Y-108668802D01*
X136480705Y-108480444D01*
X136367437Y-108310926D01*
X136223274Y-108166763D01*
X136053756Y-108053495D01*
X135865398Y-107975474D01*
X135665439Y-107935700D01*
X135461561Y-107935700D01*
X135261602Y-107975474D01*
X135212200Y-107995937D01*
X135212200Y-107037525D01*
X135215876Y-107000200D01*
X135212200Y-106962875D01*
X135212200Y-106962867D01*
X135201203Y-106851214D01*
X135157746Y-106707953D01*
X135087174Y-106575924D01*
X134992201Y-106460199D01*
X134963204Y-106436402D01*
X134435396Y-105908595D01*
X134500706Y-105829014D01*
X134638599Y-105571034D01*
X134723513Y-105291111D01*
X134752185Y-105000000D01*
X134723513Y-104708889D01*
X134638599Y-104428966D01*
X134500706Y-104170986D01*
X134315134Y-103944866D01*
X134285313Y-103920393D01*
X134354180Y-103899502D01*
X134464494Y-103840537D01*
X134561185Y-103761185D01*
X134640537Y-103664494D01*
X134699502Y-103554180D01*
X134735812Y-103434482D01*
X134748072Y-103310000D01*
X134748072Y-101610000D01*
X134735812Y-101485518D01*
X134699502Y-101365820D01*
X134640537Y-101255506D01*
X134561185Y-101158815D01*
X134464494Y-101079463D01*
X134354180Y-101020498D01*
X134234482Y-100984188D01*
X134110000Y-100971928D01*
X132410000Y-100971928D01*
X132285518Y-100984188D01*
X132165820Y-101020498D01*
X132055506Y-101079463D01*
X131958815Y-101158815D01*
X131879463Y-101255506D01*
X131820498Y-101365820D01*
X131784188Y-101485518D01*
X131771928Y-101610000D01*
X131771928Y-103310000D01*
X131784188Y-103434482D01*
X131820498Y-103554180D01*
X131879463Y-103664494D01*
X131958815Y-103761185D01*
X132055506Y-103840537D01*
X132165820Y-103899502D01*
X132234687Y-103920393D01*
X132204866Y-103944866D01*
X132019294Y-104170986D01*
X131881401Y-104428966D01*
X131796487Y-104708889D01*
X131767815Y-105000000D01*
X131796487Y-105291111D01*
X131881401Y-105571034D01*
X132019294Y-105829014D01*
X132204866Y-106055134D01*
X132430986Y-106240706D01*
X132495523Y-106275201D01*
X132378645Y-106344822D01*
X132162412Y-106539731D01*
X131988359Y-106773080D01*
X131863175Y-107035901D01*
X131818524Y-107183110D01*
X131939845Y-107413000D01*
X133133000Y-107413000D01*
X133133000Y-107393000D01*
X133387000Y-107393000D01*
X133387000Y-107413000D01*
X133407000Y-107413000D01*
X133407000Y-107667000D01*
X133387000Y-107667000D01*
X133387000Y-108860814D01*
X133616891Y-108981481D01*
X133692200Y-108954767D01*
X133692201Y-111086597D01*
X133038199Y-111740600D01*
X130946522Y-111740600D01*
X130909199Y-111736924D01*
X130871877Y-111740600D01*
X130871867Y-111740600D01*
X130760214Y-111751597D01*
X130616953Y-111795054D01*
X130484923Y-111865626D01*
X130442346Y-111900569D01*
X130369199Y-111960599D01*
X130345396Y-111989603D01*
X129891503Y-112443496D01*
X129862499Y-112467299D01*
X129807371Y-112534474D01*
X129767526Y-112583024D01*
X129756403Y-112603834D01*
X129696954Y-112715054D01*
X129653497Y-112858315D01*
X129642500Y-112969968D01*
X129642500Y-112969978D01*
X129638824Y-113007300D01*
X124821676Y-113007300D01*
X124718318Y-112727137D01*
X124185365Y-110837427D01*
X123802320Y-108911728D01*
X123682206Y-107896890D01*
X131818524Y-107896890D01*
X131863175Y-108044099D01*
X131988359Y-108306920D01*
X132162412Y-108540269D01*
X132378645Y-108735178D01*
X132628748Y-108884157D01*
X132903109Y-108981481D01*
X133133000Y-108860814D01*
X133133000Y-107667000D01*
X131939845Y-107667000D01*
X131818524Y-107896890D01*
X123682206Y-107896890D01*
X123571544Y-106961912D01*
X123494460Y-105000000D01*
X123571544Y-103038088D01*
X123802320Y-101088272D01*
X124185365Y-99162573D01*
X124718318Y-97272863D01*
X125397893Y-95430794D01*
X126219901Y-93647722D01*
X126357477Y-93402061D01*
X134263600Y-93402061D01*
X134263600Y-93605939D01*
X134303374Y-93805898D01*
X134381395Y-93994256D01*
X134494663Y-94163774D01*
X134538600Y-94207711D01*
X134538601Y-96005968D01*
X134534924Y-96043300D01*
X134549598Y-96192285D01*
X134593054Y-96335546D01*
X134663626Y-96467576D01*
X134734801Y-96554302D01*
X134758600Y-96583301D01*
X134787598Y-96607099D01*
X147124800Y-108944303D01*
X147124800Y-109006439D01*
X147164574Y-109206398D01*
X147242595Y-109394756D01*
X147355863Y-109564274D01*
X147500026Y-109708437D01*
X147669544Y-109821705D01*
X147857902Y-109899726D01*
X148057861Y-109939500D01*
X148261739Y-109939500D01*
X148461698Y-109899726D01*
X148650056Y-109821705D01*
X148819574Y-109708437D01*
X148963737Y-109564274D01*
X149077005Y-109394756D01*
X149155026Y-109206398D01*
X149194800Y-109006439D01*
X149194800Y-108802561D01*
X149155026Y-108602602D01*
X149077005Y-108414244D01*
X148963737Y-108244726D01*
X148819574Y-108100563D01*
X148650056Y-107987295D01*
X148461698Y-107909274D01*
X148261739Y-107869500D01*
X148199603Y-107869500D01*
X136058600Y-95728499D01*
X136058600Y-94207711D01*
X136102537Y-94163774D01*
X136215805Y-93994256D01*
X136293826Y-93805898D01*
X136333600Y-93605939D01*
X136333600Y-93402061D01*
X136293826Y-93202102D01*
X136215805Y-93013744D01*
X136102537Y-92844226D01*
X135958374Y-92700063D01*
X135788856Y-92586795D01*
X135600498Y-92508774D01*
X135400539Y-92469000D01*
X135196661Y-92469000D01*
X134996702Y-92508774D01*
X134808344Y-92586795D01*
X134638826Y-92700063D01*
X134494663Y-92844226D01*
X134381395Y-93013744D01*
X134303374Y-93202102D01*
X134263600Y-93402061D01*
X126357477Y-93402061D01*
X127179272Y-91934641D01*
X128270093Y-90302112D01*
X129485638Y-88760201D01*
X130818413Y-87318413D01*
X132260201Y-85985638D01*
X133802112Y-84770093D01*
X135434641Y-83679272D01*
X137147722Y-82719901D01*
X138930794Y-81897893D01*
X140772863Y-81218318D01*
X142662573Y-80685365D01*
X144588272Y-80302320D01*
X146538088Y-80071544D01*
X148500000Y-79994460D01*
X150461912Y-80071544D01*
X150461912Y-80071544D01*
G37*
X150461912Y-80071544D02*
X152411728Y-80302320D01*
X154337427Y-80685365D01*
X156227137Y-81218318D01*
X158069206Y-81897893D01*
X159852278Y-82719901D01*
X161565359Y-83679272D01*
X163197888Y-84770093D01*
X164739799Y-85985638D01*
X166181587Y-87318413D01*
X167514362Y-88760201D01*
X168729907Y-90302112D01*
X169820728Y-91934641D01*
X170780099Y-93647722D01*
X171602107Y-95430794D01*
X172281682Y-97272863D01*
X172814635Y-99162573D01*
X173197680Y-101088272D01*
X173428456Y-103038088D01*
X173505540Y-105000000D01*
X173428456Y-106961912D01*
X173197680Y-108911728D01*
X172814635Y-110837427D01*
X172281682Y-112727137D01*
X171602107Y-114569206D01*
X170780099Y-116352278D01*
X169820728Y-118065359D01*
X168729907Y-119697888D01*
X167514362Y-121239799D01*
X166181587Y-122681587D01*
X164739799Y-124014362D01*
X163197888Y-125229907D01*
X161565359Y-126320728D01*
X159852278Y-127280099D01*
X158069206Y-128102107D01*
X156227137Y-128781682D01*
X154674267Y-129219636D01*
X154685000Y-129110665D01*
X154685000Y-127789335D01*
X154667130Y-127607898D01*
X154596511Y-127375099D01*
X154481833Y-127160551D01*
X154327502Y-126972498D01*
X154139448Y-126818167D01*
X153924900Y-126703489D01*
X153692101Y-126632870D01*
X153450000Y-126609025D01*
X153207898Y-126632870D01*
X152975099Y-126703489D01*
X152760551Y-126818167D01*
X152572498Y-126972498D01*
X152418167Y-127160552D01*
X152303489Y-127375100D01*
X152232870Y-127607899D01*
X152215000Y-127789336D01*
X152215000Y-129110665D01*
X152232870Y-129292102D01*
X152303489Y-129524901D01*
X152396787Y-129699448D01*
X150461912Y-129928456D01*
X148500000Y-130005540D01*
X146538088Y-129928456D01*
X144603214Y-129699448D01*
X144696511Y-129524901D01*
X144767130Y-129292102D01*
X144785000Y-129110665D01*
X144785000Y-127789335D01*
X144767130Y-127607898D01*
X144696511Y-127375099D01*
X144581833Y-127160551D01*
X144427502Y-126972498D01*
X144239448Y-126818167D01*
X144024900Y-126703489D01*
X143792101Y-126632870D01*
X143550000Y-126609025D01*
X143307898Y-126632870D01*
X143075099Y-126703489D01*
X142860551Y-126818167D01*
X142672498Y-126972498D01*
X142518167Y-127160552D01*
X142403489Y-127375100D01*
X142332870Y-127607899D01*
X142315000Y-127789336D01*
X142315000Y-129110665D01*
X142325733Y-129219636D01*
X140772863Y-128781682D01*
X138930794Y-128102107D01*
X137147722Y-127280099D01*
X135434641Y-126320728D01*
X133802112Y-125229907D01*
X132260201Y-124014362D01*
X132179039Y-123939336D01*
X142315000Y-123939336D01*
X142315000Y-124960665D01*
X142332870Y-125142102D01*
X142403489Y-125374901D01*
X142518168Y-125589449D01*
X142672499Y-125777502D01*
X142860552Y-125931833D01*
X143075100Y-126046511D01*
X143307899Y-126117130D01*
X143550000Y-126140975D01*
X143792102Y-126117130D01*
X144024901Y-126046511D01*
X144239449Y-125931833D01*
X144427502Y-125777502D01*
X144581833Y-125589449D01*
X144696511Y-125374901D01*
X144767130Y-125142102D01*
X144785000Y-124960664D01*
X144785000Y-123939336D01*
X152215000Y-123939336D01*
X152215000Y-124960665D01*
X152232870Y-125142102D01*
X152303489Y-125374901D01*
X152418168Y-125589449D01*
X152572499Y-125777502D01*
X152760552Y-125931833D01*
X152975100Y-126046511D01*
X153207899Y-126117130D01*
X153450000Y-126140975D01*
X153692102Y-126117130D01*
X153924901Y-126046511D01*
X154139449Y-125931833D01*
X154327502Y-125777502D01*
X154481833Y-125589449D01*
X154596511Y-125374901D01*
X154667130Y-125142102D01*
X154685000Y-124960664D01*
X154685000Y-123939335D01*
X154667130Y-123757898D01*
X154596511Y-123525099D01*
X154481833Y-123310551D01*
X154327502Y-123122498D01*
X154139448Y-122968167D01*
X153924900Y-122853489D01*
X153692101Y-122782870D01*
X153450000Y-122759025D01*
X153207898Y-122782870D01*
X152975099Y-122853489D01*
X152760551Y-122968167D01*
X152572498Y-123122498D01*
X152418167Y-123310552D01*
X152303489Y-123525100D01*
X152232870Y-123757899D01*
X152215000Y-123939336D01*
X144785000Y-123939336D01*
X144785000Y-123939335D01*
X144767130Y-123757898D01*
X144696511Y-123525099D01*
X144581833Y-123310551D01*
X144427502Y-123122498D01*
X144239448Y-122968167D01*
X144024900Y-122853489D01*
X143792101Y-122782870D01*
X143550000Y-122759025D01*
X143307898Y-122782870D01*
X143075099Y-122853489D01*
X142860551Y-122968167D01*
X142672498Y-123122498D01*
X142518167Y-123310552D01*
X142403489Y-123525100D01*
X142332870Y-123757899D01*
X142315000Y-123939336D01*
X132179039Y-123939336D01*
X130818413Y-122681587D01*
X129485638Y-121239799D01*
X128270093Y-119697888D01*
X127179272Y-118065359D01*
X126219901Y-116352278D01*
X125397893Y-114569206D01*
X124821676Y-113007300D01*
X129638824Y-113007300D01*
X129642500Y-113044623D01*
X129642501Y-116329168D01*
X129638824Y-116366500D01*
X129653498Y-116515485D01*
X129696954Y-116658746D01*
X129767526Y-116790776D01*
X129825103Y-116860933D01*
X129862500Y-116906501D01*
X129891498Y-116930299D01*
X130093000Y-117131801D01*
X130093000Y-117303788D01*
X130136617Y-117523067D01*
X130222176Y-117729624D01*
X130325280Y-117883930D01*
X130236412Y-117898550D01*
X130145542Y-118102826D01*
X130096269Y-118320905D01*
X130090489Y-118544406D01*
X130128423Y-118764740D01*
X130208613Y-118973440D01*
X130236412Y-119025450D01*
X130449834Y-119060561D01*
X131048395Y-118462000D01*
X131034253Y-118447858D01*
X131155110Y-118327000D01*
X131300890Y-118327000D01*
X131359928Y-118386038D01*
X131359928Y-118537962D01*
X131242143Y-118655748D01*
X131228000Y-118641605D01*
X130629439Y-119240166D01*
X130664550Y-119453588D01*
X130868826Y-119544458D01*
X131086905Y-119593731D01*
X131310406Y-119599511D01*
X131530740Y-119561577D01*
X131671491Y-119507495D01*
X131753820Y-119551502D01*
X131873518Y-119587812D01*
X131998000Y-119600072D01*
X132998000Y-119600072D01*
X133122482Y-119587812D01*
X133242180Y-119551502D01*
X133352494Y-119492537D01*
X133449185Y-119413185D01*
X133528537Y-119316494D01*
X133587502Y-119206180D01*
X133623812Y-119086482D01*
X133636072Y-118962000D01*
X133636072Y-118149344D01*
X162490000Y-118149344D01*
X162490000Y-118520656D01*
X162562439Y-118884834D01*
X162704534Y-119227882D01*
X162910825Y-119536618D01*
X163173382Y-119799175D01*
X163482118Y-120005466D01*
X163825166Y-120147561D01*
X164189344Y-120220000D01*
X164560656Y-120220000D01*
X164924834Y-120147561D01*
X165267882Y-120005466D01*
X165576618Y-119799175D01*
X165839175Y-119536618D01*
X166045466Y-119227882D01*
X166187561Y-118884834D01*
X166260000Y-118520656D01*
X166260000Y-118149344D01*
X166187561Y-117785166D01*
X166045466Y-117442118D01*
X165839175Y-117133382D01*
X165576618Y-116870825D01*
X165267882Y-116664534D01*
X164924834Y-116522439D01*
X164560656Y-116450000D01*
X164189344Y-116450000D01*
X163825166Y-116522439D01*
X163482118Y-116664534D01*
X163173382Y-116870825D01*
X162910825Y-117133382D01*
X162704534Y-117442118D01*
X162562439Y-117785166D01*
X162490000Y-118149344D01*
X133636072Y-118149344D01*
X133636072Y-117962000D01*
X133623812Y-117837518D01*
X133587502Y-117717820D01*
X133543112Y-117634774D01*
X133589383Y-117523067D01*
X133633000Y-117303788D01*
X133633000Y-117131801D01*
X136074503Y-114690299D01*
X136103501Y-114666501D01*
X136198474Y-114550776D01*
X136269046Y-114418747D01*
X136312503Y-114275486D01*
X136323500Y-114163833D01*
X136323500Y-114163825D01*
X136327176Y-114126500D01*
X136323500Y-114089175D01*
X136323500Y-109674411D01*
X136367437Y-109630474D01*
X136480705Y-109460956D01*
X136558726Y-109272598D01*
X136598500Y-109072639D01*
X136598500Y-108868761D01*
X136558726Y-108668802D01*
X136480705Y-108480444D01*
X136367437Y-108310926D01*
X136223274Y-108166763D01*
X136053756Y-108053495D01*
X135865398Y-107975474D01*
X135665439Y-107935700D01*
X135461561Y-107935700D01*
X135261602Y-107975474D01*
X135212200Y-107995937D01*
X135212200Y-107037525D01*
X135215876Y-107000200D01*
X135212200Y-106962875D01*
X135212200Y-106962867D01*
X135201203Y-106851214D01*
X135157746Y-106707953D01*
X135087174Y-106575924D01*
X134992201Y-106460199D01*
X134963204Y-106436402D01*
X134435396Y-105908595D01*
X134500706Y-105829014D01*
X134638599Y-105571034D01*
X134723513Y-105291111D01*
X134752185Y-105000000D01*
X134723513Y-104708889D01*
X134638599Y-104428966D01*
X134500706Y-104170986D01*
X134315134Y-103944866D01*
X134285313Y-103920393D01*
X134354180Y-103899502D01*
X134464494Y-103840537D01*
X134561185Y-103761185D01*
X134640537Y-103664494D01*
X134699502Y-103554180D01*
X134735812Y-103434482D01*
X134748072Y-103310000D01*
X134748072Y-101610000D01*
X134735812Y-101485518D01*
X134699502Y-101365820D01*
X134640537Y-101255506D01*
X134561185Y-101158815D01*
X134464494Y-101079463D01*
X134354180Y-101020498D01*
X134234482Y-100984188D01*
X134110000Y-100971928D01*
X132410000Y-100971928D01*
X132285518Y-100984188D01*
X132165820Y-101020498D01*
X132055506Y-101079463D01*
X131958815Y-101158815D01*
X131879463Y-101255506D01*
X131820498Y-101365820D01*
X131784188Y-101485518D01*
X131771928Y-101610000D01*
X131771928Y-103310000D01*
X131784188Y-103434482D01*
X131820498Y-103554180D01*
X131879463Y-103664494D01*
X131958815Y-103761185D01*
X132055506Y-103840537D01*
X132165820Y-103899502D01*
X132234687Y-103920393D01*
X132204866Y-103944866D01*
X132019294Y-104170986D01*
X131881401Y-104428966D01*
X131796487Y-104708889D01*
X131767815Y-105000000D01*
X131796487Y-105291111D01*
X131881401Y-105571034D01*
X132019294Y-105829014D01*
X132204866Y-106055134D01*
X132430986Y-106240706D01*
X132495523Y-106275201D01*
X132378645Y-106344822D01*
X132162412Y-106539731D01*
X131988359Y-106773080D01*
X131863175Y-107035901D01*
X131818524Y-107183110D01*
X131939845Y-107413000D01*
X133133000Y-107413000D01*
X133133000Y-107393000D01*
X133387000Y-107393000D01*
X133387000Y-107413000D01*
X133407000Y-107413000D01*
X133407000Y-107667000D01*
X133387000Y-107667000D01*
X133387000Y-108860814D01*
X133616891Y-108981481D01*
X133692200Y-108954767D01*
X133692201Y-111086597D01*
X133038199Y-111740600D01*
X130946522Y-111740600D01*
X130909199Y-111736924D01*
X130871877Y-111740600D01*
X130871867Y-111740600D01*
X130760214Y-111751597D01*
X130616953Y-111795054D01*
X130484923Y-111865626D01*
X130442346Y-111900569D01*
X130369199Y-111960599D01*
X130345396Y-111989603D01*
X129891503Y-112443496D01*
X129862499Y-112467299D01*
X129807371Y-112534474D01*
X129767526Y-112583024D01*
X129756403Y-112603834D01*
X129696954Y-112715054D01*
X129653497Y-112858315D01*
X129642500Y-112969968D01*
X129642500Y-112969978D01*
X129638824Y-113007300D01*
X124821676Y-113007300D01*
X124718318Y-112727137D01*
X124185365Y-110837427D01*
X123802320Y-108911728D01*
X123682206Y-107896890D01*
X131818524Y-107896890D01*
X131863175Y-108044099D01*
X131988359Y-108306920D01*
X132162412Y-108540269D01*
X132378645Y-108735178D01*
X132628748Y-108884157D01*
X132903109Y-108981481D01*
X133133000Y-108860814D01*
X133133000Y-107667000D01*
X131939845Y-107667000D01*
X131818524Y-107896890D01*
X123682206Y-107896890D01*
X123571544Y-106961912D01*
X123494460Y-105000000D01*
X123571544Y-103038088D01*
X123802320Y-101088272D01*
X124185365Y-99162573D01*
X124718318Y-97272863D01*
X125397893Y-95430794D01*
X126219901Y-93647722D01*
X126357477Y-93402061D01*
X134263600Y-93402061D01*
X134263600Y-93605939D01*
X134303374Y-93805898D01*
X134381395Y-93994256D01*
X134494663Y-94163774D01*
X134538600Y-94207711D01*
X134538601Y-96005968D01*
X134534924Y-96043300D01*
X134549598Y-96192285D01*
X134593054Y-96335546D01*
X134663626Y-96467576D01*
X134734801Y-96554302D01*
X134758600Y-96583301D01*
X134787598Y-96607099D01*
X147124800Y-108944303D01*
X147124800Y-109006439D01*
X147164574Y-109206398D01*
X147242595Y-109394756D01*
X147355863Y-109564274D01*
X147500026Y-109708437D01*
X147669544Y-109821705D01*
X147857902Y-109899726D01*
X148057861Y-109939500D01*
X148261739Y-109939500D01*
X148461698Y-109899726D01*
X148650056Y-109821705D01*
X148819574Y-109708437D01*
X148963737Y-109564274D01*
X149077005Y-109394756D01*
X149155026Y-109206398D01*
X149194800Y-109006439D01*
X149194800Y-108802561D01*
X149155026Y-108602602D01*
X149077005Y-108414244D01*
X148963737Y-108244726D01*
X148819574Y-108100563D01*
X148650056Y-107987295D01*
X148461698Y-107909274D01*
X148261739Y-107869500D01*
X148199603Y-107869500D01*
X136058600Y-95728499D01*
X136058600Y-94207711D01*
X136102537Y-94163774D01*
X136215805Y-93994256D01*
X136293826Y-93805898D01*
X136333600Y-93605939D01*
X136333600Y-93402061D01*
X136293826Y-93202102D01*
X136215805Y-93013744D01*
X136102537Y-92844226D01*
X135958374Y-92700063D01*
X135788856Y-92586795D01*
X135600498Y-92508774D01*
X135400539Y-92469000D01*
X135196661Y-92469000D01*
X134996702Y-92508774D01*
X134808344Y-92586795D01*
X134638826Y-92700063D01*
X134494663Y-92844226D01*
X134381395Y-93013744D01*
X134303374Y-93202102D01*
X134263600Y-93402061D01*
X126357477Y-93402061D01*
X127179272Y-91934641D01*
X128270093Y-90302112D01*
X129485638Y-88760201D01*
X130818413Y-87318413D01*
X132260201Y-85985638D01*
X133802112Y-84770093D01*
X135434641Y-83679272D01*
X137147722Y-82719901D01*
X138930794Y-81897893D01*
X140772863Y-81218318D01*
X142662573Y-80685365D01*
X144588272Y-80302320D01*
X146538088Y-80071544D01*
X148500000Y-79994460D01*
X150461912Y-80071544D01*
G36*
X131363000Y-113309110D02*
G01*
X131363000Y-113454890D01*
X131300890Y-113517000D01*
X131162500Y-113517000D01*
X131162500Y-113322101D01*
X131224001Y-113260600D01*
X131314490Y-113260600D01*
X131363000Y-113309110D01*
X131363000Y-113309110D01*
G37*
X131363000Y-113309110D02*
X131363000Y-113454890D01*
X131300890Y-113517000D01*
X131162500Y-113517000D01*
X131162500Y-113322101D01*
X131224001Y-113260600D01*
X131314490Y-113260600D01*
X131363000Y-113309110D01*
M02*
