  0
SECTION
  2
HEADER
  9
$ANGBASE
  50
0.0
  9
$ANGDIR
  70
  1
  9
$MEASUREMENT
  70
0
  0
ENDSEC
  0
SECTION
  2
TABLES
  0
TABLE
  2
LTYPE
  70
4
  0
LTYPE
  5
40F
  2
CONTINUOUS
  70
0
  3
Solid line
  72
65
  73
0
  40
0.0
  0
LTYPE
  5
410
  2
DASHDOT
 70
0
  3
Dash Dot ____ _ ____ _
 72
65
 73
4
 40
2.0
 49
1.25
 49
-0.25
 49
0.25
 49
-0.25
  0
LTYPE
  5
411
  2
DASHED
 70
0
  3
Dashed __ __ __ __ __
 72
65
 73
2
 40
0.75
 49
0.5
 49
-0.25
  0
LTYPE
  5
43B
  2
DOTTED
 70
0
  3
Dotted .  .  .  .
 72
65
 73
2
 40
0.2
 49
0.0
 49
-0.2
  0
ENDTAB
  0
TABLE
  2
STYLE
  70
4
  0
STYLE
  2
KICAD
  70
0
  40
0
  41
1
  42
1
  50
0
  71
0
  3
isocp.shx
  0
STYLE
  2
KICADB
  70
0
  40
0
  41
1
  42
1
  50
0
  71
0
  3
isocp.shx
  0
STYLE
  2
KICADI
  70
0
  40
0
  41
1
  42
1
  50
15
  71
0
  3
isocp.shx
  0
STYLE
  2
KICADBI
  70
0
  40
0
  41
1
  42
1
  50
15
  71
0
  3
isocp.shx
  0
ENDTAB
  0
TABLE
  2
LAYER
  70
30
  0
LAYER
  2
BLACK
  70
0
  62
7
  6
CONTINUOUS
  0
LAYER
  2
GRAY1
  70
0
  62
251
  6
CONTINUOUS
  0
LAYER
  2
GRAY2
  70
0
  62
8
  6
CONTINUOUS
  0
LAYER
  2
GRAY3
  70
0
  62
9
  6
CONTINUOUS
  0
LAYER
  2
WHITE
  70
0
  62
7
  6
CONTINUOUS
  0
LAYER
  2
LYELLOW
  70
0
  62
51
  6
CONTINUOUS
  0
LAYER
  2
BLUE1
  70
0
  62
178
  6
CONTINUOUS
  0
LAYER
  2
GREEN1
  70
0
  62
98
  6
CONTINUOUS
  0
LAYER
  2
CYAN1
  70
0
  62
138
  6
CONTINUOUS
  0
LAYER
  2
RED1
  70
0
  62
18
  6
CONTINUOUS
  0
LAYER
  2
MAGENTA1
  70
0
  62
228
  6
CONTINUOUS
  0
LAYER
  2
BROWN1
  70
0
  62
58
  6
CONTINUOUS
  0
LAYER
  2
BLUE2
  70
0
  62
5
  6
CONTINUOUS
  0
LAYER
  2
GREEN2
  70
0
  62
3
  6
CONTINUOUS
  0
LAYER
  2
CYAN2
  70
0
  62
4
  6
CONTINUOUS
  0
LAYER
  2
RED2
  70
0
  62
1
  6
CONTINUOUS
  0
LAYER
  2
MAGENTA2
  70
0
  62
6
  6
CONTINUOUS
  0
LAYER
  2
BROWN2
  70
0
  62
54
  6
CONTINUOUS
  0
LAYER
  2
BLUE3
  70
0
  62
171
  6
CONTINUOUS
  0
LAYER
  2
GREEN3
  70
0
  62
91
  6
CONTINUOUS
  0
LAYER
  2
CYAN3
  70
0
  62
131
  6
CONTINUOUS
  0
LAYER
  2
RED3
  70
0
  62
11
  6
CONTINUOUS
  0
LAYER
  2
MAGENTA3
  70
0
  62
221
  6
CONTINUOUS
  0
LAYER
  2
YELLOW3
  70
0
  62
2
  6
CONTINUOUS
  0
LAYER
  2
BLUE4
  70
0
  62
5
  6
CONTINUOUS
  0
LAYER
  2
GREEN4
  70
0
  62
3
  6
CONTINUOUS
  0
LAYER
  2
CYAN4
  70
0
  62
4
  6
CONTINUOUS
  0
LAYER
  2
RED4
  70
0
  62
1
  6
CONTINUOUS
  0
LAYER
  2
MAGENTA4
  70
0
  62
6
  6
CONTINUOUS
  0
LAYER
  2
YELLOW4
  70
0
  62
2
  6
CONTINUOUS
  0
ENDTAB
  0
ENDSEC
  0
SECTION
  2
ENTITIES
0
LINE
8
BLACK
6
CONTINUOUS
10
150.025
20
-123.38
11
149.575
21
-123.38
0
LINE
8
BLACK
6
CONTINUOUS
10
149.575
20
-123.38
11
149.575
21
-122.28
0
LINE
8
BLACK
6
CONTINUOUS
10
149.575
20
-122.28
11
150.025
21
-122.28
0
LINE
8
BLACK
6
CONTINUOUS
10
150.025
20
-122.28
11
150.025
21
-123.38
0
LINE
8
BLACK
6
CONTINUOUS
10
149.375
20
-123.38
11
148.925
21
-123.38
0
LINE
8
BLACK
6
CONTINUOUS
10
148.925
20
-123.38
11
148.925
21
-122.28
0
LINE
8
BLACK
6
CONTINUOUS
10
148.925
20
-122.28
11
149.375
21
-122.28
0
LINE
8
BLACK
6
CONTINUOUS
10
149.375
20
-122.28
11
149.375
21
-123.38
0
LINE
8
BLACK
6
CONTINUOUS
10
148.725
20
-123.38
11
148.275
21
-123.38
0
LINE
8
BLACK
6
CONTINUOUS
10
148.275
20
-123.38
11
148.275
21
-122.28
0
LINE
8
BLACK
6
CONTINUOUS
10
148.275
20
-122.28
11
148.725
21
-122.28
0
LINE
8
BLACK
6
CONTINUOUS
10
148.725
20
-122.28
11
148.725
21
-123.38
0
LINE
8
BLACK
6
CONTINUOUS
10
148.075
20
-123.38
11
147.625
21
-123.38
0
LINE
8
BLACK
6
CONTINUOUS
10
147.625
20
-123.38
11
147.625
21
-122.28
0
LINE
8
BLACK
6
CONTINUOUS
10
147.625
20
-122.28
11
148.075
21
-122.28
0
LINE
8
BLACK
6
CONTINUOUS
10
148.075
20
-122.28
11
148.075
21
-123.38
0
LINE
8
BLACK
6
CONTINUOUS
10
147.425
20
-123.38
11
146.975
21
-123.38
0
LINE
8
BLACK
6
CONTINUOUS
10
146.975
20
-123.38
11
146.975
21
-122.28
0
LINE
8
BLACK
6
CONTINUOUS
10
146.975
20
-122.28
11
147.425
21
-122.28
0
LINE
8
BLACK
6
CONTINUOUS
10
147.425
20
-122.28
11
147.425
21
-123.38
0
LINE
8
BLACK
6
CONTINUOUS
10
159.404
20
-120.404
11
159.445
21
-120.417
0
LINE
8
BLACK
6
CONTINUOUS
10
159.445
20
-120.417
11
159.483
21
-120.437
0
LINE
8
BLACK
6
CONTINUOUS
10
159.483
20
-120.437
11
159.516
21
-120.464
0
LINE
8
BLACK
6
CONTINUOUS
10
159.516
20
-120.464
11
159.543
21
-120.497
0
LINE
8
BLACK
6
CONTINUOUS
10
159.543
20
-120.497
11
159.563
21
-120.535
0
LINE
8
BLACK
6
CONTINUOUS
10
159.563
20
-120.535
11
159.576
21
-120.576
0
LINE
8
BLACK
6
CONTINUOUS
10
159.576
20
-120.576
11
159.58
21
-120.619
0
LINE
8
BLACK
6
CONTINUOUS
10
159.58
20
-120.619
11
159.58
21
-121.131
0
LINE
8
BLACK
6
CONTINUOUS
10
159.58
20
-121.131
11
159.576
21
-121.174
0
LINE
8
BLACK
6
CONTINUOUS
10
159.576
20
-121.174
11
159.563
21
-121.215
0
LINE
8
BLACK
6
CONTINUOUS
10
159.563
20
-121.215
11
159.543
21
-121.253
0
LINE
8
BLACK
6
CONTINUOUS
10
159.543
20
-121.253
11
159.516
21
-121.286
0
LINE
8
BLACK
6
CONTINUOUS
10
159.516
20
-121.286
11
159.483
21
-121.313
0
LINE
8
BLACK
6
CONTINUOUS
10
159.483
20
-121.313
11
159.445
21
-121.333
0
LINE
8
BLACK
6
CONTINUOUS
10
159.445
20
-121.333
11
159.404
21
-121.346
0
LINE
8
BLACK
6
CONTINUOUS
10
159.404
20
-121.346
11
159.361
21
-121.35
0
LINE
8
BLACK
6
CONTINUOUS
10
159.361
20
-121.35
11
158.924
21
-121.35
0
LINE
8
BLACK
6
CONTINUOUS
10
158.924
20
-121.35
11
158.881
21
-121.346
0
LINE
8
BLACK
6
CONTINUOUS
10
158.881
20
-121.346
11
158.84
21
-121.333
0
LINE
8
BLACK
6
CONTINUOUS
10
158.84
20
-121.333
11
158.802
21
-121.313
0
LINE
8
BLACK
6
CONTINUOUS
10
158.802
20
-121.313
11
158.769
21
-121.286
0
LINE
8
BLACK
6
CONTINUOUS
10
158.769
20
-121.286
11
158.742
21
-121.253
0
LINE
8
BLACK
6
CONTINUOUS
10
158.742
20
-121.253
11
158.722
21
-121.215
0
LINE
8
BLACK
6
CONTINUOUS
10
158.722
20
-121.215
11
158.709
21
-121.174
0
LINE
8
BLACK
6
CONTINUOUS
10
158.709
20
-121.174
11
158.705
21
-121.131
0
LINE
8
BLACK
6
CONTINUOUS
10
158.705
20
-121.131
11
158.705
21
-120.619
0
LINE
8
BLACK
6
CONTINUOUS
10
158.705
20
-120.619
11
158.709
21
-120.576
0
LINE
8
BLACK
6
CONTINUOUS
10
158.709
20
-120.576
11
158.722
21
-120.535
0
LINE
8
BLACK
6
CONTINUOUS
10
158.722
20
-120.535
11
158.742
21
-120.497
0
LINE
8
BLACK
6
CONTINUOUS
10
158.742
20
-120.497
11
158.769
21
-120.464
0
LINE
8
BLACK
6
CONTINUOUS
10
158.769
20
-120.464
11
158.802
21
-120.437
0
LINE
8
BLACK
6
CONTINUOUS
10
158.802
20
-120.437
11
158.84
21
-120.417
0
LINE
8
BLACK
6
CONTINUOUS
10
158.84
20
-120.417
11
158.881
21
-120.404
0
LINE
8
BLACK
6
CONTINUOUS
10
158.881
20
-120.404
11
158.924
21
-120.4
0
LINE
8
BLACK
6
CONTINUOUS
10
158.924
20
-120.4
11
159.361
21
-120.4
0
LINE
8
BLACK
6
CONTINUOUS
10
159.361
20
-120.4
11
159.404
21
-120.404
0
LINE
8
BLACK
6
CONTINUOUS
10
160.979
20
-120.404
11
161.02
21
-120.417
0
LINE
8
BLACK
6
CONTINUOUS
10
161.02
20
-120.417
11
161.058
21
-120.437
0
LINE
8
BLACK
6
CONTINUOUS
10
161.058
20
-120.437
11
161.091
21
-120.464
0
LINE
8
BLACK
6
CONTINUOUS
10
161.091
20
-120.464
11
161.118
21
-120.497
0
LINE
8
BLACK
6
CONTINUOUS
10
161.118
20
-120.497
11
161.138
21
-120.535
0
LINE
8
BLACK
6
CONTINUOUS
10
161.138
20
-120.535
11
161.151
21
-120.576
0
LINE
8
BLACK
6
CONTINUOUS
10
161.151
20
-120.576
11
161.155
21
-120.619
0
LINE
8
BLACK
6
CONTINUOUS
10
161.155
20
-120.619
11
161.155
21
-121.131
0
LINE
8
BLACK
6
CONTINUOUS
10
161.155
20
-121.131
11
161.151
21
-121.174
0
LINE
8
BLACK
6
CONTINUOUS
10
161.151
20
-121.174
11
161.138
21
-121.215
0
LINE
8
BLACK
6
CONTINUOUS
10
161.138
20
-121.215
11
161.118
21
-121.253
0
LINE
8
BLACK
6
CONTINUOUS
10
161.118
20
-121.253
11
161.091
21
-121.286
0
LINE
8
BLACK
6
CONTINUOUS
10
161.091
20
-121.286
11
161.058
21
-121.313
0
LINE
8
BLACK
6
CONTINUOUS
10
161.058
20
-121.313
11
161.02
21
-121.333
0
LINE
8
BLACK
6
CONTINUOUS
10
161.02
20
-121.333
11
160.979
21
-121.346
0
LINE
8
BLACK
6
CONTINUOUS
10
160.979
20
-121.346
11
160.936
21
-121.35
0
LINE
8
BLACK
6
CONTINUOUS
10
160.936
20
-121.35
11
160.499
21
-121.35
0
LINE
8
BLACK
6
CONTINUOUS
10
160.499
20
-121.35
11
160.456
21
-121.346
0
LINE
8
BLACK
6
CONTINUOUS
10
160.456
20
-121.346
11
160.415
21
-121.333
0
LINE
8
BLACK
6
CONTINUOUS
10
160.415
20
-121.333
11
160.377
21
-121.313
0
LINE
8
BLACK
6
CONTINUOUS
10
160.377
20
-121.313
11
160.344
21
-121.286
0
LINE
8
BLACK
6
CONTINUOUS
10
160.344
20
-121.286
11
160.317
21
-121.253
0
LINE
8
BLACK
6
CONTINUOUS
10
160.317
20
-121.253
11
160.297
21
-121.215
0
LINE
8
BLACK
6
CONTINUOUS
10
160.297
20
-121.215
11
160.284
21
-121.174
0
LINE
8
BLACK
6
CONTINUOUS
10
160.284
20
-121.174
11
160.28
21
-121.131
0
LINE
8
BLACK
6
CONTINUOUS
10
160.28
20
-121.131
11
160.28
21
-120.619
0
LINE
8
BLACK
6
CONTINUOUS
10
160.28
20
-120.619
11
160.284
21
-120.576
0
LINE
8
BLACK
6
CONTINUOUS
10
160.284
20
-120.576
11
160.297
21
-120.535
0
LINE
8
BLACK
6
CONTINUOUS
10
160.297
20
-120.535
11
160.317
21
-120.497
0
LINE
8
BLACK
6
CONTINUOUS
10
160.317
20
-120.497
11
160.344
21
-120.464
0
LINE
8
BLACK
6
CONTINUOUS
10
160.344
20
-120.464
11
160.377
21
-120.437
0
LINE
8
BLACK
6
CONTINUOUS
10
160.377
20
-120.437
11
160.415
21
-120.417
0
LINE
8
BLACK
6
CONTINUOUS
10
160.415
20
-120.417
11
160.456
21
-120.404
0
LINE
8
BLACK
6
CONTINUOUS
10
160.456
20
-120.404
11
160.499
21
-120.4
0
LINE
8
BLACK
6
CONTINUOUS
10
160.499
20
-120.4
11
160.936
21
-120.4
0
LINE
8
BLACK
6
CONTINUOUS
10
160.936
20
-120.4
11
160.979
21
-120.404
0
LINE
8
BLACK
6
CONTINUOUS
10
144.627
20
-121.187
11
141.197
21
-121.187
0
LINE
8
BLACK
6
CONTINUOUS
10
141.197
20
-121.187
11
141.197
21
-120.337
0
LINE
8
BLACK
6
CONTINUOUS
10
141.197
20
-120.337
11
144.627
21
-120.337
0
LINE
8
BLACK
6
CONTINUOUS
10
144.627
20
-120.337
11
144.627
21
-121.187
0
LINE
8
BLACK
6
CONTINUOUS
10
138.664
20
-119.808
11
138.711
21
-119.822
0
LINE
8
BLACK
6
CONTINUOUS
10
138.711
20
-119.822
11
138.754
21
-119.845
0
LINE
8
BLACK
6
CONTINUOUS
10
138.754
20
-119.845
11
138.792
21
-119.876
0
LINE
8
BLACK
6
CONTINUOUS
10
138.792
20
-119.876
11
138.823
21
-119.914
0
LINE
8
BLACK
6
CONTINUOUS
10
138.823
20
-119.914
11
138.846
21
-119.957
0
LINE
8
BLACK
6
CONTINUOUS
10
138.846
20
-119.957
11
138.86
21
-120.004
0
LINE
8
BLACK
6
CONTINUOUS
10
138.86
20
-120.004
11
138.865
21
-120.053
0
LINE
8
BLACK
6
CONTINUOUS
10
138.865
20
-120.053
11
138.865
21
-120.678
0
LINE
8
BLACK
6
CONTINUOUS
10
138.865
20
-120.678
11
138.86
21
-120.727
0
LINE
8
BLACK
6
CONTINUOUS
10
138.86
20
-120.727
11
138.846
21
-120.774
0
LINE
8
BLACK
6
CONTINUOUS
10
138.846
20
-120.774
11
138.823
21
-120.817
0
LINE
8
BLACK
6
CONTINUOUS
10
138.823
20
-120.817
11
138.792
21
-120.855
0
LINE
8
BLACK
6
CONTINUOUS
10
138.792
20
-120.855
11
138.754
21
-120.886
0
LINE
8
BLACK
6
CONTINUOUS
10
138.754
20
-120.886
11
138.711
21
-120.909
0
LINE
8
BLACK
6
CONTINUOUS
10
138.711
20
-120.909
11
138.664
21
-120.923
0
LINE
8
BLACK
6
CONTINUOUS
10
138.664
20
-120.923
11
138.615
21
-120.928
0
LINE
8
BLACK
6
CONTINUOUS
10
138.615
20
-120.928
11
138.065
21
-120.928
0
LINE
8
BLACK
6
CONTINUOUS
10
138.065
20
-120.928
11
138.016
21
-120.923
0
LINE
8
BLACK
6
CONTINUOUS
10
138.016
20
-120.923
11
137.969
21
-120.909
0
LINE
8
BLACK
6
CONTINUOUS
10
137.969
20
-120.909
11
137.926
21
-120.886
0
LINE
8
BLACK
6
CONTINUOUS
10
137.926
20
-120.886
11
137.888
21
-120.855
0
LINE
8
BLACK
6
CONTINUOUS
10
137.888
20
-120.855
11
137.857
21
-120.817
0
LINE
8
BLACK
6
CONTINUOUS
10
137.857
20
-120.817
11
137.834
21
-120.774
0
LINE
8
BLACK
6
CONTINUOUS
10
137.834
20
-120.774
11
137.82
21
-120.727
0
LINE
8
BLACK
6
CONTINUOUS
10
137.82
20
-120.727
11
137.815
21
-120.678
0
LINE
8
BLACK
6
CONTINUOUS
10
137.815
20
-120.678
11
137.815
21
-120.053
0
LINE
8
BLACK
6
CONTINUOUS
10
137.815
20
-120.053
11
137.82
21
-120.004
0
LINE
8
BLACK
6
CONTINUOUS
10
137.82
20
-120.004
11
137.834
21
-119.957
0
LINE
8
BLACK
6
CONTINUOUS
10
137.834
20
-119.957
11
137.857
21
-119.914
0
LINE
8
BLACK
6
CONTINUOUS
10
137.857
20
-119.914
11
137.888
21
-119.876
0
LINE
8
BLACK
6
CONTINUOUS
10
137.888
20
-119.876
11
137.926
21
-119.845
0
LINE
8
BLACK
6
CONTINUOUS
10
137.926
20
-119.845
11
137.969
21
-119.822
0
LINE
8
BLACK
6
CONTINUOUS
10
137.969
20
-119.822
11
138.016
21
-119.808
0
LINE
8
BLACK
6
CONTINUOUS
10
138.016
20
-119.808
11
138.065
21
-119.803
0
LINE
8
BLACK
6
CONTINUOUS
10
138.065
20
-119.803
11
138.615
21
-119.803
0
LINE
8
BLACK
6
CONTINUOUS
10
138.615
20
-119.803
11
138.664
21
-119.808
0
LINE
8
BLACK
6
CONTINUOUS
10
150.069
20
-119.806
11
150.11
21
-119.819
0
LINE
8
BLACK
6
CONTINUOUS
10
150.11
20
-119.819
11
150.148
21
-119.839
0
LINE
8
BLACK
6
CONTINUOUS
10
150.148
20
-119.839
11
150.181
21
-119.866
0
LINE
8
BLACK
6
CONTINUOUS
10
150.181
20
-119.866
11
150.208
21
-119.899
0
LINE
8
BLACK
6
CONTINUOUS
10
150.208
20
-119.899
11
150.228
21
-119.937
0
LINE
8
BLACK
6
CONTINUOUS
10
150.228
20
-119.937
11
150.241
21
-119.978
0
LINE
8
BLACK
6
CONTINUOUS
10
150.241
20
-119.978
11
150.245
21
-120.021
0
LINE
8
BLACK
6
CONTINUOUS
10
150.245
20
-120.021
11
150.245
21
-120.458
0
LINE
8
BLACK
6
CONTINUOUS
10
150.245
20
-120.458
11
150.241
21
-120.501
0
LINE
8
BLACK
6
CONTINUOUS
10
150.241
20
-120.501
11
150.228
21
-120.542
0
LINE
8
BLACK
6
CONTINUOUS
10
150.228
20
-120.542
11
150.208
21
-120.58
0
LINE
8
BLACK
6
CONTINUOUS
10
150.208
20
-120.58
11
150.181
21
-120.613
0
LINE
8
BLACK
6
CONTINUOUS
10
150.181
20
-120.613
11
150.148
21
-120.64
0
LINE
8
BLACK
6
CONTINUOUS
10
150.148
20
-120.64
11
150.11
21
-120.66
0
LINE
8
BLACK
6
CONTINUOUS
10
150.11
20
-120.66
11
150.069
21
-120.673
0
LINE
8
BLACK
6
CONTINUOUS
10
150.069
20
-120.673
11
150.026
21
-120.677
0
LINE
8
BLACK
6
CONTINUOUS
10
150.026
20
-120.677
11
149.514
21
-120.677
0
LINE
8
BLACK
6
CONTINUOUS
10
149.514
20
-120.677
11
149.471
21
-120.673
0
LINE
8
BLACK
6
CONTINUOUS
10
149.471
20
-120.673
11
149.43
21
-120.66
0
LINE
8
BLACK
6
CONTINUOUS
10
149.43
20
-120.66
11
149.392
21
-120.64
0
LINE
8
BLACK
6
CONTINUOUS
10
149.392
20
-120.64
11
149.359
21
-120.613
0
LINE
8
BLACK
6
CONTINUOUS
10
149.359
20
-120.613
11
149.332
21
-120.58
0
LINE
8
BLACK
6
CONTINUOUS
10
149.332
20
-120.58
11
149.312
21
-120.542
0
LINE
8
BLACK
6
CONTINUOUS
10
149.312
20
-120.542
11
149.299
21
-120.501
0
LINE
8
BLACK
6
CONTINUOUS
10
149.299
20
-120.501
11
149.295
21
-120.458
0
LINE
8
BLACK
6
CONTINUOUS
10
149.295
20
-120.458
11
149.295
21
-120.021
0
LINE
8
BLACK
6
CONTINUOUS
10
149.295
20
-120.021
11
149.299
21
-119.978
0
LINE
8
BLACK
6
CONTINUOUS
10
149.299
20
-119.978
11
149.312
21
-119.937
0
LINE
8
BLACK
6
CONTINUOUS
10
149.312
20
-119.937
11
149.332
21
-119.899
0
LINE
8
BLACK
6
CONTINUOUS
10
149.332
20
-119.899
11
149.359
21
-119.866
0
LINE
8
BLACK
6
CONTINUOUS
10
149.359
20
-119.866
11
149.392
21
-119.839
0
LINE
8
BLACK
6
CONTINUOUS
10
149.392
20
-119.839
11
149.43
21
-119.819
0
LINE
8
BLACK
6
CONTINUOUS
10
149.43
20
-119.819
11
149.471
21
-119.806
0
LINE
8
BLACK
6
CONTINUOUS
10
149.471
20
-119.806
11
149.514
21
-119.802
0
LINE
8
BLACK
6
CONTINUOUS
10
149.514
20
-119.802
11
150.026
21
-119.802
0
LINE
8
BLACK
6
CONTINUOUS
10
150.026
20
-119.802
11
150.069
21
-119.806
0
LINE
8
BLACK
6
CONTINUOUS
10
148.164
20
-119.806
11
148.205
21
-119.819
0
LINE
8
BLACK
6
CONTINUOUS
10
148.205
20
-119.819
11
148.243
21
-119.839
0
LINE
8
BLACK
6
CONTINUOUS
10
148.243
20
-119.839
11
148.276
21
-119.866
0
LINE
8
BLACK
6
CONTINUOUS
10
148.276
20
-119.866
11
148.303
21
-119.899
0
LINE
8
BLACK
6
CONTINUOUS
10
148.303
20
-119.899
11
148.323
21
-119.937
0
LINE
8
BLACK
6
CONTINUOUS
10
148.323
20
-119.937
11
148.336
21
-119.978
0
LINE
8
BLACK
6
CONTINUOUS
10
148.336
20
-119.978
11
148.34
21
-120.021
0
LINE
8
BLACK
6
CONTINUOUS
10
148.34
20
-120.021
11
148.34
21
-120.458
0
LINE
8
BLACK
6
CONTINUOUS
10
148.34
20
-120.458
11
148.336
21
-120.501
0
LINE
8
BLACK
6
CONTINUOUS
10
148.336
20
-120.501
11
148.323
21
-120.542
0
LINE
8
BLACK
6
CONTINUOUS
10
148.323
20
-120.542
11
148.303
21
-120.58
0
LINE
8
BLACK
6
CONTINUOUS
10
148.303
20
-120.58
11
148.276
21
-120.613
0
LINE
8
BLACK
6
CONTINUOUS
10
148.276
20
-120.613
11
148.243
21
-120.64
0
LINE
8
BLACK
6
CONTINUOUS
10
148.243
20
-120.64
11
148.205
21
-120.66
0
LINE
8
BLACK
6
CONTINUOUS
10
148.205
20
-120.66
11
148.164
21
-120.673
0
LINE
8
BLACK
6
CONTINUOUS
10
148.164
20
-120.673
11
148.121
21
-120.677
0
LINE
8
BLACK
6
CONTINUOUS
10
148.121
20
-120.677
11
147.609
21
-120.677
0
LINE
8
BLACK
6
CONTINUOUS
10
147.609
20
-120.677
11
147.566
21
-120.673
0
LINE
8
BLACK
6
CONTINUOUS
10
147.566
20
-120.673
11
147.525
21
-120.66
0
LINE
8
BLACK
6
CONTINUOUS
10
147.525
20
-120.66
11
147.487
21
-120.64
0
LINE
8
BLACK
6
CONTINUOUS
10
147.487
20
-120.64
11
147.454
21
-120.613
0
LINE
8
BLACK
6
CONTINUOUS
10
147.454
20
-120.613
11
147.427
21
-120.58
0
LINE
8
BLACK
6
CONTINUOUS
10
147.427
20
-120.58
11
147.407
21
-120.542
0
LINE
8
BLACK
6
CONTINUOUS
10
147.407
20
-120.542
11
147.394
21
-120.501
0
LINE
8
BLACK
6
CONTINUOUS
10
147.394
20
-120.501
11
147.39
21
-120.458
0
LINE
8
BLACK
6
CONTINUOUS
10
147.39
20
-120.458
11
147.39
21
-120.021
0
LINE
8
BLACK
6
CONTINUOUS
10
147.39
20
-120.021
11
147.394
21
-119.978
0
LINE
8
BLACK
6
CONTINUOUS
10
147.394
20
-119.978
11
147.407
21
-119.937
0
LINE
8
BLACK
6
CONTINUOUS
10
147.407
20
-119.937
11
147.427
21
-119.899
0
LINE
8
BLACK
6
CONTINUOUS
10
147.427
20
-119.899
11
147.454
21
-119.866
0
LINE
8
BLACK
6
CONTINUOUS
10
147.454
20
-119.866
11
147.487
21
-119.839
0
LINE
8
BLACK
6
CONTINUOUS
10
147.487
20
-119.839
11
147.525
21
-119.819
0
LINE
8
BLACK
6
CONTINUOUS
10
147.525
20
-119.819
11
147.566
21
-119.806
0
LINE
8
BLACK
6
CONTINUOUS
10
147.566
20
-119.806
11
147.609
21
-119.802
0
LINE
8
BLACK
6
CONTINUOUS
10
147.609
20
-119.802
11
148.121
21
-119.802
0
LINE
8
BLACK
6
CONTINUOUS
10
148.121
20
-119.802
11
148.164
21
-119.806
0
LINE
8
BLACK
6
CONTINUOUS
10
138.664
20
-118.033
11
138.711
21
-118.047
0
LINE
8
BLACK
6
CONTINUOUS
10
138.711
20
-118.047
11
138.754
21
-118.07
0
LINE
8
BLACK
6
CONTINUOUS
10
138.754
20
-118.07
11
138.792
21
-118.101
0
LINE
8
BLACK
6
CONTINUOUS
10
138.792
20
-118.101
11
138.823
21
-118.139
0
LINE
8
BLACK
6
CONTINUOUS
10
138.823
20
-118.139
11
138.846
21
-118.182
0
LINE
8
BLACK
6
CONTINUOUS
10
138.846
20
-118.182
11
138.86
21
-118.229
0
LINE
8
BLACK
6
CONTINUOUS
10
138.86
20
-118.229
11
138.865
21
-118.278
0
LINE
8
BLACK
6
CONTINUOUS
10
138.865
20
-118.278
11
138.865
21
-118.903
0
LINE
8
BLACK
6
CONTINUOUS
10
138.865
20
-118.903
11
138.86
21
-118.952
0
LINE
8
BLACK
6
CONTINUOUS
10
138.86
20
-118.952
11
138.846
21
-118.999
0
LINE
8
BLACK
6
CONTINUOUS
10
138.846
20
-118.999
11
138.823
21
-119.042
0
LINE
8
BLACK
6
CONTINUOUS
10
138.823
20
-119.042
11
138.792
21
-119.08
0
LINE
8
BLACK
6
CONTINUOUS
10
138.792
20
-119.08
11
138.754
21
-119.111
0
LINE
8
BLACK
6
CONTINUOUS
10
138.754
20
-119.111
11
138.711
21
-119.134
0
LINE
8
BLACK
6
CONTINUOUS
10
138.711
20
-119.134
11
138.664
21
-119.148
0
LINE
8
BLACK
6
CONTINUOUS
10
138.664
20
-119.148
11
138.615
21
-119.153
0
LINE
8
BLACK
6
CONTINUOUS
10
138.615
20
-119.153
11
138.065
21
-119.153
0
LINE
8
BLACK
6
CONTINUOUS
10
138.065
20
-119.153
11
138.016
21
-119.148
0
LINE
8
BLACK
6
CONTINUOUS
10
138.016
20
-119.148
11
137.969
21
-119.134
0
LINE
8
BLACK
6
CONTINUOUS
10
137.969
20
-119.134
11
137.926
21
-119.111
0
LINE
8
BLACK
6
CONTINUOUS
10
137.926
20
-119.111
11
137.888
21
-119.08
0
LINE
8
BLACK
6
CONTINUOUS
10
137.888
20
-119.08
11
137.857
21
-119.042
0
LINE
8
BLACK
6
CONTINUOUS
10
137.857
20
-119.042
11
137.834
21
-118.999
0
LINE
8
BLACK
6
CONTINUOUS
10
137.834
20
-118.999
11
137.82
21
-118.952
0
LINE
8
BLACK
6
CONTINUOUS
10
137.82
20
-118.952
11
137.815
21
-118.903
0
LINE
8
BLACK
6
CONTINUOUS
10
137.815
20
-118.903
11
137.815
21
-118.278
0
LINE
8
BLACK
6
CONTINUOUS
10
137.815
20
-118.278
11
137.82
21
-118.229
0
LINE
8
BLACK
6
CONTINUOUS
10
137.82
20
-118.229
11
137.834
21
-118.182
0
LINE
8
BLACK
6
CONTINUOUS
10
137.834
20
-118.182
11
137.857
21
-118.139
0
LINE
8
BLACK
6
CONTINUOUS
10
137.857
20
-118.139
11
137.888
21
-118.101
0
LINE
8
BLACK
6
CONTINUOUS
10
137.888
20
-118.101
11
137.926
21
-118.07
0
LINE
8
BLACK
6
CONTINUOUS
10
137.926
20
-118.07
11
137.969
21
-118.047
0
LINE
8
BLACK
6
CONTINUOUS
10
137.969
20
-118.047
11
138.016
21
-118.033
0
LINE
8
BLACK
6
CONTINUOUS
10
138.016
20
-118.033
11
138.065
21
-118.028
0
LINE
8
BLACK
6
CONTINUOUS
10
138.065
20
-118.028
11
138.615
21
-118.028
0
LINE
8
BLACK
6
CONTINUOUS
10
138.615
20
-118.028
11
138.664
21
-118.033
0
LINE
8
BLACK
6
CONTINUOUS
10
148.164
20
-118.231
11
148.205
21
-118.244
0
LINE
8
BLACK
6
CONTINUOUS
10
148.205
20
-118.244
11
148.243
21
-118.264
0
LINE
8
BLACK
6
CONTINUOUS
10
148.243
20
-118.264
11
148.276
21
-118.291
0
LINE
8
BLACK
6
CONTINUOUS
10
148.276
20
-118.291
11
148.303
21
-118.324
0
LINE
8
BLACK
6
CONTINUOUS
10
148.303
20
-118.324
11
148.323
21
-118.362
0
LINE
8
BLACK
6
CONTINUOUS
10
148.323
20
-118.362
11
148.336
21
-118.403
0
LINE
8
BLACK
6
CONTINUOUS
10
148.336
20
-118.403
11
148.34
21
-118.446
0
LINE
8
BLACK
6
CONTINUOUS
10
148.34
20
-118.446
11
148.34
21
-118.883
0
LINE
8
BLACK
6
CONTINUOUS
10
148.34
20
-118.883
11
148.336
21
-118.926
0
LINE
8
BLACK
6
CONTINUOUS
10
148.336
20
-118.926
11
148.323
21
-118.967
0
LINE
8
BLACK
6
CONTINUOUS
10
148.323
20
-118.967
11
148.303
21
-119.005
0
LINE
8
BLACK
6
CONTINUOUS
10
148.303
20
-119.005
11
148.276
21
-119.038
0
LINE
8
BLACK
6
CONTINUOUS
10
148.276
20
-119.038
11
148.243
21
-119.065
0
LINE
8
BLACK
6
CONTINUOUS
10
148.243
20
-119.065
11
148.205
21
-119.085
0
LINE
8
BLACK
6
CONTINUOUS
10
148.205
20
-119.085
11
148.164
21
-119.098
0
LINE
8
BLACK
6
CONTINUOUS
10
148.164
20
-119.098
11
148.121
21
-119.102
0
LINE
8
BLACK
6
CONTINUOUS
10
148.121
20
-119.102
11
147.609
21
-119.102
0
LINE
8
BLACK
6
CONTINUOUS
10
147.609
20
-119.102
11
147.566
21
-119.098
0
LINE
8
BLACK
6
CONTINUOUS
10
147.566
20
-119.098
11
147.525
21
-119.085
0
LINE
8
BLACK
6
CONTINUOUS
10
147.525
20
-119.085
11
147.487
21
-119.065
0
LINE
8
BLACK
6
CONTINUOUS
10
147.487
20
-119.065
11
147.454
21
-119.038
0
LINE
8
BLACK
6
CONTINUOUS
10
147.454
20
-119.038
11
147.427
21
-119.005
0
LINE
8
BLACK
6
CONTINUOUS
10
147.427
20
-119.005
11
147.407
21
-118.967
0
LINE
8
BLACK
6
CONTINUOUS
10
147.407
20
-118.967
11
147.394
21
-118.926
0
LINE
8
BLACK
6
CONTINUOUS
10
147.394
20
-118.926
11
147.39
21
-118.883
0
LINE
8
BLACK
6
CONTINUOUS
10
147.39
20
-118.883
11
147.39
21
-118.446
0
LINE
8
BLACK
6
CONTINUOUS
10
147.39
20
-118.446
11
147.394
21
-118.403
0
LINE
8
BLACK
6
CONTINUOUS
10
147.394
20
-118.403
11
147.407
21
-118.362
0
LINE
8
BLACK
6
CONTINUOUS
10
147.407
20
-118.362
11
147.427
21
-118.324
0
LINE
8
BLACK
6
CONTINUOUS
10
147.427
20
-118.324
11
147.454
21
-118.291
0
LINE
8
BLACK
6
CONTINUOUS
10
147.454
20
-118.291
11
147.487
21
-118.264
0
LINE
8
BLACK
6
CONTINUOUS
10
147.487
20
-118.264
11
147.525
21
-118.244
0
LINE
8
BLACK
6
CONTINUOUS
10
147.525
20
-118.244
11
147.566
21
-118.231
0
LINE
8
BLACK
6
CONTINUOUS
10
147.566
20
-118.231
11
147.609
21
-118.227
0
LINE
8
BLACK
6
CONTINUOUS
10
147.609
20
-118.227
11
148.121
21
-118.227
0
LINE
8
BLACK
6
CONTINUOUS
10
148.121
20
-118.227
11
148.164
21
-118.231
0
LINE
8
BLACK
6
CONTINUOUS
10
150.069
20
-118.231
11
150.11
21
-118.244
0
LINE
8
BLACK
6
CONTINUOUS
10
150.11
20
-118.244
11
150.148
21
-118.264
0
LINE
8
BLACK
6
CONTINUOUS
10
150.148
20
-118.264
11
150.181
21
-118.291
0
LINE
8
BLACK
6
CONTINUOUS
10
150.181
20
-118.291
11
150.208
21
-118.324
0
LINE
8
BLACK
6
CONTINUOUS
10
150.208
20
-118.324
11
150.228
21
-118.362
0
LINE
8
BLACK
6
CONTINUOUS
10
150.228
20
-118.362
11
150.241
21
-118.403
0
LINE
8
BLACK
6
CONTINUOUS
10
150.241
20
-118.403
11
150.245
21
-118.446
0
LINE
8
BLACK
6
CONTINUOUS
10
150.245
20
-118.446
11
150.245
21
-118.883
0
LINE
8
BLACK
6
CONTINUOUS
10
150.245
20
-118.883
11
150.241
21
-118.926
0
LINE
8
BLACK
6
CONTINUOUS
10
150.241
20
-118.926
11
150.228
21
-118.967
0
LINE
8
BLACK
6
CONTINUOUS
10
150.228
20
-118.967
11
150.208
21
-119.005
0
LINE
8
BLACK
6
CONTINUOUS
10
150.208
20
-119.005
11
150.181
21
-119.038
0
LINE
8
BLACK
6
CONTINUOUS
10
150.181
20
-119.038
11
150.148
21
-119.065
0
LINE
8
BLACK
6
CONTINUOUS
10
150.148
20
-119.065
11
150.11
21
-119.085
0
LINE
8
BLACK
6
CONTINUOUS
10
150.11
20
-119.085
11
150.069
21
-119.098
0
LINE
8
BLACK
6
CONTINUOUS
10
150.069
20
-119.098
11
150.026
21
-119.102
0
LINE
8
BLACK
6
CONTINUOUS
10
150.026
20
-119.102
11
149.514
21
-119.102
0
LINE
8
BLACK
6
CONTINUOUS
10
149.514
20
-119.102
11
149.471
21
-119.098
0
LINE
8
BLACK
6
CONTINUOUS
10
149.471
20
-119.098
11
149.43
21
-119.085
0
LINE
8
BLACK
6
CONTINUOUS
10
149.43
20
-119.085
11
149.392
21
-119.065
0
LINE
8
BLACK
6
CONTINUOUS
10
149.392
20
-119.065
11
149.359
21
-119.038
0
LINE
8
BLACK
6
CONTINUOUS
10
149.359
20
-119.038
11
149.332
21
-119.005
0
LINE
8
BLACK
6
CONTINUOUS
10
149.332
20
-119.005
11
149.312
21
-118.967
0
LINE
8
BLACK
6
CONTINUOUS
10
149.312
20
-118.967
11
149.299
21
-118.926
0
LINE
8
BLACK
6
CONTINUOUS
10
149.299
20
-118.926
11
149.295
21
-118.883
0
LINE
8
BLACK
6
CONTINUOUS
10
149.295
20
-118.883
11
149.295
21
-118.446
0
LINE
8
BLACK
6
CONTINUOUS
10
149.295
20
-118.446
11
149.299
21
-118.403
0
LINE
8
BLACK
6
CONTINUOUS
10
149.299
20
-118.403
11
149.312
21
-118.362
0
LINE
8
BLACK
6
CONTINUOUS
10
149.312
20
-118.362
11
149.332
21
-118.324
0
LINE
8
BLACK
6
CONTINUOUS
10
149.332
20
-118.324
11
149.359
21
-118.291
0
LINE
8
BLACK
6
CONTINUOUS
10
149.359
20
-118.291
11
149.392
21
-118.264
0
LINE
8
BLACK
6
CONTINUOUS
10
149.392
20
-118.264
11
149.43
21
-118.244
0
LINE
8
BLACK
6
CONTINUOUS
10
149.43
20
-118.244
11
149.471
21
-118.231
0
LINE
8
BLACK
6
CONTINUOUS
10
149.471
20
-118.231
11
149.514
21
-118.227
0
LINE
8
BLACK
6
CONTINUOUS
10
149.514
20
-118.227
11
150.026
21
-118.227
0
LINE
8
BLACK
6
CONTINUOUS
10
150.026
20
-118.227
11
150.069
21
-118.231
0
LINE
8
BLACK
6
CONTINUOUS
10
160.039
20
-117.815
11
160.086
21
-117.829
0
LINE
8
BLACK
6
CONTINUOUS
10
160.086
20
-117.829
11
160.129
21
-117.852
0
LINE
8
BLACK
6
CONTINUOUS
10
160.129
20
-117.852
11
160.167
21
-117.883
0
LINE
8
BLACK
6
CONTINUOUS
10
160.167
20
-117.883
11
160.198
21
-117.921
0
LINE
8
BLACK
6
CONTINUOUS
10
160.198
20
-117.921
11
160.221
21
-117.964
0
LINE
8
BLACK
6
CONTINUOUS
10
160.221
20
-117.964
11
160.235
21
-118.011
0
LINE
8
BLACK
6
CONTINUOUS
10
160.235
20
-118.011
11
160.24
21
-118.06
0
LINE
8
BLACK
6
CONTINUOUS
10
160.24
20
-118.06
11
160.24
21
-118.61
0
LINE
8
BLACK
6
CONTINUOUS
10
160.24
20
-118.61
11
160.235
21
-118.659
0
LINE
8
BLACK
6
CONTINUOUS
10
160.235
20
-118.659
11
160.221
21
-118.706
0
LINE
8
BLACK
6
CONTINUOUS
10
160.221
20
-118.706
11
160.198
21
-118.749
0
LINE
8
BLACK
6
CONTINUOUS
10
160.198
20
-118.749
11
160.167
21
-118.787
0
LINE
8
BLACK
6
CONTINUOUS
10
160.167
20
-118.787
11
160.129
21
-118.818
0
LINE
8
BLACK
6
CONTINUOUS
10
160.129
20
-118.818
11
160.086
21
-118.841
0
LINE
8
BLACK
6
CONTINUOUS
10
160.086
20
-118.841
11
160.039
21
-118.855
0
LINE
8
BLACK
6
CONTINUOUS
10
160.039
20
-118.855
11
159.99
21
-118.86
0
LINE
8
BLACK
6
CONTINUOUS
10
159.99
20
-118.86
11
159.365
21
-118.86
0
LINE
8
BLACK
6
CONTINUOUS
10
159.365
20
-118.86
11
159.316
21
-118.855
0
LINE
8
BLACK
6
CONTINUOUS
10
159.316
20
-118.855
11
159.269
21
-118.841
0
LINE
8
BLACK
6
CONTINUOUS
10
159.269
20
-118.841
11
159.226
21
-118.818
0
LINE
8
BLACK
6
CONTINUOUS
10
159.226
20
-118.818
11
159.188
21
-118.787
0
LINE
8
BLACK
6
CONTINUOUS
10
159.188
20
-118.787
11
159.157
21
-118.749
0
LINE
8
BLACK
6
CONTINUOUS
10
159.157
20
-118.749
11
159.134
21
-118.706
0
LINE
8
BLACK
6
CONTINUOUS
10
159.134
20
-118.706
11
159.12
21
-118.659
0
LINE
8
BLACK
6
CONTINUOUS
10
159.12
20
-118.659
11
159.115
21
-118.61
0
LINE
8
BLACK
6
CONTINUOUS
10
159.115
20
-118.61
11
159.115
21
-118.06
0
LINE
8
BLACK
6
CONTINUOUS
10
159.115
20
-118.06
11
159.12
21
-118.011
0
LINE
8
BLACK
6
CONTINUOUS
10
159.12
20
-118.011
11
159.134
21
-117.964
0
LINE
8
BLACK
6
CONTINUOUS
10
159.134
20
-117.964
11
159.157
21
-117.921
0
LINE
8
BLACK
6
CONTINUOUS
10
159.157
20
-117.921
11
159.188
21
-117.883
0
LINE
8
BLACK
6
CONTINUOUS
10
159.188
20
-117.883
11
159.226
21
-117.852
0
LINE
8
BLACK
6
CONTINUOUS
10
159.226
20
-117.852
11
159.269
21
-117.829
0
LINE
8
BLACK
6
CONTINUOUS
10
159.269
20
-117.829
11
159.316
21
-117.815
0
LINE
8
BLACK
6
CONTINUOUS
10
159.316
20
-117.815
11
159.365
21
-117.81
0
LINE
8
BLACK
6
CONTINUOUS
10
159.365
20
-117.81
11
159.99
21
-117.81
0
LINE
8
BLACK
6
CONTINUOUS
10
159.99
20
-117.81
11
160.039
21
-117.815
0
LINE
8
BLACK
6
CONTINUOUS
10
161.814
20
-117.815
11
161.861
21
-117.829
0
LINE
8
BLACK
6
CONTINUOUS
10
161.861
20
-117.829
11
161.904
21
-117.852
0
LINE
8
BLACK
6
CONTINUOUS
10
161.904
20
-117.852
11
161.942
21
-117.883
0
LINE
8
BLACK
6
CONTINUOUS
10
161.942
20
-117.883
11
161.973
21
-117.921
0
LINE
8
BLACK
6
CONTINUOUS
10
161.973
20
-117.921
11
161.996
21
-117.964
0
LINE
8
BLACK
6
CONTINUOUS
10
161.996
20
-117.964
11
162.01
21
-118.011
0
LINE
8
BLACK
6
CONTINUOUS
10
162.01
20
-118.011
11
162.015
21
-118.06
0
LINE
8
BLACK
6
CONTINUOUS
10
162.015
20
-118.06
11
162.015
21
-118.61
0
LINE
8
BLACK
6
CONTINUOUS
10
162.015
20
-118.61
11
162.01
21
-118.659
0
LINE
8
BLACK
6
CONTINUOUS
10
162.01
20
-118.659
11
161.996
21
-118.706
0
LINE
8
BLACK
6
CONTINUOUS
10
161.996
20
-118.706
11
161.973
21
-118.749
0
LINE
8
BLACK
6
CONTINUOUS
10
161.973
20
-118.749
11
161.942
21
-118.787
0
LINE
8
BLACK
6
CONTINUOUS
10
161.942
20
-118.787
11
161.904
21
-118.818
0
LINE
8
BLACK
6
CONTINUOUS
10
161.904
20
-118.818
11
161.861
21
-118.841
0
LINE
8
BLACK
6
CONTINUOUS
10
161.861
20
-118.841
11
161.814
21
-118.855
0
LINE
8
BLACK
6
CONTINUOUS
10
161.814
20
-118.855
11
161.765
21
-118.86
0
LINE
8
BLACK
6
CONTINUOUS
10
161.765
20
-118.86
11
161.14
21
-118.86
0
LINE
8
BLACK
6
CONTINUOUS
10
161.14
20
-118.86
11
161.091
21
-118.855
0
LINE
8
BLACK
6
CONTINUOUS
10
161.091
20
-118.855
11
161.044
21
-118.841
0
LINE
8
BLACK
6
CONTINUOUS
10
161.044
20
-118.841
11
161.001
21
-118.818
0
LINE
8
BLACK
6
CONTINUOUS
10
161.001
20
-118.818
11
160.963
21
-118.787
0
LINE
8
BLACK
6
CONTINUOUS
10
160.963
20
-118.787
11
160.932
21
-118.749
0
LINE
8
BLACK
6
CONTINUOUS
10
160.932
20
-118.749
11
160.909
21
-118.706
0
LINE
8
BLACK
6
CONTINUOUS
10
160.909
20
-118.706
11
160.895
21
-118.659
0
LINE
8
BLACK
6
CONTINUOUS
10
160.895
20
-118.659
11
160.89
21
-118.61
0
LINE
8
BLACK
6
CONTINUOUS
10
160.89
20
-118.61
11
160.89
21
-118.06
0
LINE
8
BLACK
6
CONTINUOUS
10
160.89
20
-118.06
11
160.895
21
-118.011
0
LINE
8
BLACK
6
CONTINUOUS
10
160.895
20
-118.011
11
160.909
21
-117.964
0
LINE
8
BLACK
6
CONTINUOUS
10
160.909
20
-117.964
11
160.932
21
-117.921
0
LINE
8
BLACK
6
CONTINUOUS
10
160.932
20
-117.921
11
160.963
21
-117.883
0
LINE
8
BLACK
6
CONTINUOUS
10
160.963
20
-117.883
11
161.001
21
-117.852
0
LINE
8
BLACK
6
CONTINUOUS
10
161.001
20
-117.852
11
161.044
21
-117.829
0
LINE
8
BLACK
6
CONTINUOUS
10
161.044
20
-117.829
11
161.091
21
-117.815
0
LINE
8
BLACK
6
CONTINUOUS
10
161.091
20
-117.815
11
161.14
21
-117.81
0
LINE
8
BLACK
6
CONTINUOUS
10
161.14
20
-117.81
11
161.765
21
-117.81
0
LINE
8
BLACK
6
CONTINUOUS
10
161.765
20
-117.81
11
161.814
21
-117.815
0
LINE
8
BLACK
6
CONTINUOUS
10
144.627
20
-116.587
11
141.197
21
-116.587
0
LINE
8
BLACK
6
CONTINUOUS
10
141.197
20
-116.587
11
141.197
21
-115.737
0
LINE
8
BLACK
6
CONTINUOUS
10
141.197
20
-115.737
11
144.627
21
-115.737
0
LINE
8
BLACK
6
CONTINUOUS
10
144.627
20
-115.737
11
144.627
21
-116.587
0
LINE
8
BLACK
6
CONTINUOUS
10
154.641
20
-111.704
11
154.682
21
-111.717
0
LINE
8
BLACK
6
CONTINUOUS
10
154.682
20
-111.717
11
154.72
21
-111.737
0
LINE
8
BLACK
6
CONTINUOUS
10
154.72
20
-111.737
11
154.753
21
-111.764
0
LINE
8
BLACK
6
CONTINUOUS
10
154.753
20
-111.764
11
154.78
21
-111.797
0
LINE
8
BLACK
6
CONTINUOUS
10
154.78
20
-111.797
11
154.8
21
-111.835
0
LINE
8
BLACK
6
CONTINUOUS
10
154.8
20
-111.835
11
154.813
21
-111.876
0
LINE
8
BLACK
6
CONTINUOUS
10
154.813
20
-111.876
11
154.817
21
-111.919
0
LINE
8
BLACK
6
CONTINUOUS
10
154.817
20
-111.919
11
154.817
21
-112.356
0
LINE
8
BLACK
6
CONTINUOUS
10
154.817
20
-112.356
11
154.813
21
-112.399
0
LINE
8
BLACK
6
CONTINUOUS
10
154.813
20
-112.399
11
154.8
21
-112.44
0
LINE
8
BLACK
6
CONTINUOUS
10
154.8
20
-112.44
11
154.78
21
-112.478
0
LINE
8
BLACK
6
CONTINUOUS
10
154.78
20
-112.478
11
154.753
21
-112.511
0
LINE
8
BLACK
6
CONTINUOUS
10
154.753
20
-112.511
11
154.72
21
-112.538
0
LINE
8
BLACK
6
CONTINUOUS
10
154.72
20
-112.538
11
154.682
21
-112.558
0
LINE
8
BLACK
6
CONTINUOUS
10
154.682
20
-112.558
11
154.641
21
-112.571
0
LINE
8
BLACK
6
CONTINUOUS
10
154.641
20
-112.571
11
154.598
21
-112.575
0
LINE
8
BLACK
6
CONTINUOUS
10
154.598
20
-112.575
11
154.086
21
-112.575
0
LINE
8
BLACK
6
CONTINUOUS
10
154.086
20
-112.575
11
154.043
21
-112.571
0
LINE
8
BLACK
6
CONTINUOUS
10
154.043
20
-112.571
11
154.002
21
-112.558
0
LINE
8
BLACK
6
CONTINUOUS
10
154.002
20
-112.558
11
153.964
21
-112.538
0
LINE
8
BLACK
6
CONTINUOUS
10
153.964
20
-112.538
11
153.931
21
-112.511
0
LINE
8
BLACK
6
CONTINUOUS
10
153.931
20
-112.511
11
153.904
21
-112.478
0
LINE
8
BLACK
6
CONTINUOUS
10
153.904
20
-112.478
11
153.884
21
-112.44
0
LINE
8
BLACK
6
CONTINUOUS
10
153.884
20
-112.44
11
153.871
21
-112.399
0
LINE
8
BLACK
6
CONTINUOUS
10
153.871
20
-112.399
11
153.867
21
-112.356
0
LINE
8
BLACK
6
CONTINUOUS
10
153.867
20
-112.356
11
153.867
21
-111.919
0
LINE
8
BLACK
6
CONTINUOUS
10
153.867
20
-111.919
11
153.871
21
-111.876
0
LINE
8
BLACK
6
CONTINUOUS
10
153.871
20
-111.876
11
153.884
21
-111.835
0
LINE
8
BLACK
6
CONTINUOUS
10
153.884
20
-111.835
11
153.904
21
-111.797
0
LINE
8
BLACK
6
CONTINUOUS
10
153.904
20
-111.797
11
153.931
21
-111.764
0
LINE
8
BLACK
6
CONTINUOUS
10
153.931
20
-111.764
11
153.964
21
-111.737
0
LINE
8
BLACK
6
CONTINUOUS
10
153.964
20
-111.737
11
154.002
21
-111.717
0
LINE
8
BLACK
6
CONTINUOUS
10
154.002
20
-111.717
11
154.043
21
-111.704
0
LINE
8
BLACK
6
CONTINUOUS
10
154.043
20
-111.704
11
154.086
21
-111.7
0
LINE
8
BLACK
6
CONTINUOUS
10
154.086
20
-111.7
11
154.598
21
-111.7
0
LINE
8
BLACK
6
CONTINUOUS
10
154.598
20
-111.7
11
154.641
21
-111.704
0
LINE
8
BLACK
6
CONTINUOUS
10
148.927
20
-111.45
11
148.377
21
-111.45
0
LINE
8
BLACK
6
CONTINUOUS
10
148.377
20
-111.45
11
148.377
21
-109.95
0
LINE
8
BLACK
6
CONTINUOUS
10
148.377
20
-109.95
11
148.927
21
-109.95
0
LINE
8
BLACK
6
CONTINUOUS
10
148.927
20
-109.95
11
148.927
21
-111.45
0
LINE
8
BLACK
6
CONTINUOUS
10
141.727
20
-111.45
11
141.177
21
-111.45
0
LINE
8
BLACK
6
CONTINUOUS
10
141.177
20
-111.45
11
141.177
21
-109.95
0
LINE
8
BLACK
6
CONTINUOUS
10
141.177
20
-109.95
11
141.727
21
-109.95
0
LINE
8
BLACK
6
CONTINUOUS
10
141.727
20
-109.95
11
141.727
21
-111.45
0
LINE
8
BLACK
6
CONTINUOUS
10
142.527
20
-111.45
11
141.977
21
-111.45
0
LINE
8
BLACK
6
CONTINUOUS
10
141.977
20
-111.45
11
141.977
21
-109.95
0
LINE
8
BLACK
6
CONTINUOUS
10
141.977
20
-109.95
11
142.527
21
-109.95
0
LINE
8
BLACK
6
CONTINUOUS
10
142.527
20
-109.95
11
142.527
21
-111.45
0
LINE
8
BLACK
6
CONTINUOUS
10
143.327
20
-111.45
11
142.777
21
-111.45
0
LINE
8
BLACK
6
CONTINUOUS
10
142.777
20
-111.45
11
142.777
21
-109.95
0
LINE
8
BLACK
6
CONTINUOUS
10
142.777
20
-109.95
11
143.327
21
-109.95
0
LINE
8
BLACK
6
CONTINUOUS
10
143.327
20
-109.95
11
143.327
21
-111.45
0
LINE
8
BLACK
6
CONTINUOUS
10
144.127
20
-111.45
11
143.577
21
-111.45
0
LINE
8
BLACK
6
CONTINUOUS
10
143.577
20
-111.45
11
143.577
21
-109.95
0
LINE
8
BLACK
6
CONTINUOUS
10
143.577
20
-109.95
11
144.127
21
-109.95
0
LINE
8
BLACK
6
CONTINUOUS
10
144.127
20
-109.95
11
144.127
21
-111.45
0
LINE
8
BLACK
6
CONTINUOUS
10
144.927
20
-111.45
11
144.377
21
-111.45
0
LINE
8
BLACK
6
CONTINUOUS
10
144.377
20
-111.45
11
144.377
21
-109.95
0
LINE
8
BLACK
6
CONTINUOUS
10
144.377
20
-109.95
11
144.927
21
-109.95
0
LINE
8
BLACK
6
CONTINUOUS
10
144.927
20
-109.95
11
144.927
21
-111.45
0
LINE
8
BLACK
6
CONTINUOUS
10
145.727
20
-111.45
11
145.177
21
-111.45
0
LINE
8
BLACK
6
CONTINUOUS
10
145.177
20
-111.45
11
145.177
21
-109.95
0
LINE
8
BLACK
6
CONTINUOUS
10
145.177
20
-109.95
11
145.727
21
-109.95
0
LINE
8
BLACK
6
CONTINUOUS
10
145.727
20
-109.95
11
145.727
21
-111.45
0
LINE
8
BLACK
6
CONTINUOUS
10
146.527
20
-111.45
11
145.977
21
-111.45
0
LINE
8
BLACK
6
CONTINUOUS
10
145.977
20
-111.45
11
145.977
21
-109.95
0
LINE
8
BLACK
6
CONTINUOUS
10
145.977
20
-109.95
11
146.527
21
-109.95
0
LINE
8
BLACK
6
CONTINUOUS
10
146.527
20
-109.95
11
146.527
21
-111.45
0
LINE
8
BLACK
6
CONTINUOUS
10
147.327
20
-111.45
11
146.777
21
-111.45
0
LINE
8
BLACK
6
CONTINUOUS
10
146.777
20
-111.45
11
146.777
21
-109.95
0
LINE
8
BLACK
6
CONTINUOUS
10
146.777
20
-109.95
11
147.327
21
-109.95
0
LINE
8
BLACK
6
CONTINUOUS
10
147.327
20
-109.95
11
147.327
21
-111.45
0
LINE
8
BLACK
6
CONTINUOUS
10
148.127
20
-111.45
11
147.577
21
-111.45
0
LINE
8
BLACK
6
CONTINUOUS
10
147.577
20
-111.45
11
147.577
21
-109.95
0
LINE
8
BLACK
6
CONTINUOUS
10
147.577
20
-109.95
11
148.127
21
-109.95
0
LINE
8
BLACK
6
CONTINUOUS
10
148.127
20
-109.95
11
148.127
21
-111.45
0
LINE
8
BLACK
6
CONTINUOUS
10
149.727
20
-111.45
11
149.177
21
-111.45
0
LINE
8
BLACK
6
CONTINUOUS
10
149.177
20
-111.45
11
149.177
21
-109.95
0
LINE
8
BLACK
6
CONTINUOUS
10
149.177
20
-109.95
11
149.727
21
-109.95
0
LINE
8
BLACK
6
CONTINUOUS
10
149.727
20
-109.95
11
149.727
21
-111.45
0
LINE
8
BLACK
6
CONTINUOUS
10
154.641
20
-110.129
11
154.682
21
-110.142
0
LINE
8
BLACK
6
CONTINUOUS
10
154.682
20
-110.142
11
154.72
21
-110.162
0
LINE
8
BLACK
6
CONTINUOUS
10
154.72
20
-110.162
11
154.753
21
-110.189
0
LINE
8
BLACK
6
CONTINUOUS
10
154.753
20
-110.189
11
154.78
21
-110.222
0
LINE
8
BLACK
6
CONTINUOUS
10
154.78
20
-110.222
11
154.8
21
-110.26
0
LINE
8
BLACK
6
CONTINUOUS
10
154.8
20
-110.26
11
154.813
21
-110.301
0
LINE
8
BLACK
6
CONTINUOUS
10
154.813
20
-110.301
11
154.817
21
-110.344
0
LINE
8
BLACK
6
CONTINUOUS
10
154.817
20
-110.344
11
154.817
21
-110.781
0
LINE
8
BLACK
6
CONTINUOUS
10
154.817
20
-110.781
11
154.813
21
-110.824
0
LINE
8
BLACK
6
CONTINUOUS
10
154.813
20
-110.824
11
154.8
21
-110.865
0
LINE
8
BLACK
6
CONTINUOUS
10
154.8
20
-110.865
11
154.78
21
-110.903
0
LINE
8
BLACK
6
CONTINUOUS
10
154.78
20
-110.903
11
154.753
21
-110.936
0
LINE
8
BLACK
6
CONTINUOUS
10
154.753
20
-110.936
11
154.72
21
-110.963
0
LINE
8
BLACK
6
CONTINUOUS
10
154.72
20
-110.963
11
154.682
21
-110.983
0
LINE
8
BLACK
6
CONTINUOUS
10
154.682
20
-110.983
11
154.641
21
-110.996
0
LINE
8
BLACK
6
CONTINUOUS
10
154.641
20
-110.996
11
154.598
21
-111
0
LINE
8
BLACK
6
CONTINUOUS
10
154.598
20
-111
11
154.086
21
-111
0
LINE
8
BLACK
6
CONTINUOUS
10
154.086
20
-111
11
154.043
21
-110.996
0
LINE
8
BLACK
6
CONTINUOUS
10
154.043
20
-110.996
11
154.002
21
-110.983
0
LINE
8
BLACK
6
CONTINUOUS
10
154.002
20
-110.983
11
153.964
21
-110.963
0
LINE
8
BLACK
6
CONTINUOUS
10
153.964
20
-110.963
11
153.931
21
-110.936
0
LINE
8
BLACK
6
CONTINUOUS
10
153.931
20
-110.936
11
153.904
21
-110.903
0
LINE
8
BLACK
6
CONTINUOUS
10
153.904
20
-110.903
11
153.884
21
-110.865
0
LINE
8
BLACK
6
CONTINUOUS
10
153.884
20
-110.865
11
153.871
21
-110.824
0
LINE
8
BLACK
6
CONTINUOUS
10
153.871
20
-110.824
11
153.867
21
-110.781
0
LINE
8
BLACK
6
CONTINUOUS
10
153.867
20
-110.781
11
153.867
21
-110.344
0
LINE
8
BLACK
6
CONTINUOUS
10
153.867
20
-110.344
11
153.871
21
-110.301
0
LINE
8
BLACK
6
CONTINUOUS
10
153.871
20
-110.301
11
153.884
21
-110.26
0
LINE
8
BLACK
6
CONTINUOUS
10
153.884
20
-110.26
11
153.904
21
-110.222
0
LINE
8
BLACK
6
CONTINUOUS
10
153.904
20
-110.222
11
153.931
21
-110.189
0
LINE
8
BLACK
6
CONTINUOUS
10
153.931
20
-110.189
11
153.964
21
-110.162
0
LINE
8
BLACK
6
CONTINUOUS
10
153.964
20
-110.162
11
154.002
21
-110.142
0
LINE
8
BLACK
6
CONTINUOUS
10
154.002
20
-110.142
11
154.043
21
-110.129
0
LINE
8
BLACK
6
CONTINUOUS
10
154.043
20
-110.129
11
154.086
21
-110.125
0
LINE
8
BLACK
6
CONTINUOUS
10
154.086
20
-110.125
11
154.598
21
-110.125
0
LINE
8
BLACK
6
CONTINUOUS
10
154.598
20
-110.125
11
154.641
21
-110.129
0
LINE
8
BLACK
6
CONTINUOUS
10
140.502
20
-109.275
11
139.002
21
-109.275
0
LINE
8
BLACK
6
CONTINUOUS
10
139.002
20
-109.275
11
139.002
21
-108.725
0
LINE
8
BLACK
6
CONTINUOUS
10
139.002
20
-108.725
11
140.502
21
-108.725
0
LINE
8
BLACK
6
CONTINUOUS
10
140.502
20
-108.725
11
140.502
21
-109.275
0
LINE
8
BLACK
6
CONTINUOUS
10
151.902
20
-109.275
11
150.402
21
-109.275
0
LINE
8
BLACK
6
CONTINUOUS
10
150.402
20
-109.275
11
150.402
21
-108.725
0
LINE
8
BLACK
6
CONTINUOUS
10
150.402
20
-108.725
11
151.902
21
-108.725
0
LINE
8
BLACK
6
CONTINUOUS
10
151.902
20
-108.725
11
151.902
21
-109.275
0
LINE
8
BLACK
6
CONTINUOUS
10
154.666
20
-107.616
11
154.713
21
-107.63
0
LINE
8
BLACK
6
CONTINUOUS
10
154.713
20
-107.63
11
154.756
21
-107.653
0
LINE
8
BLACK
6
CONTINUOUS
10
154.756
20
-107.653
11
154.794
21
-107.684
0
LINE
8
BLACK
6
CONTINUOUS
10
154.794
20
-107.684
11
154.825
21
-107.722
0
LINE
8
BLACK
6
CONTINUOUS
10
154.825
20
-107.722
11
154.848
21
-107.765
0
LINE
8
BLACK
6
CONTINUOUS
10
154.848
20
-107.765
11
154.862
21
-107.812
0
LINE
8
BLACK
6
CONTINUOUS
10
154.862
20
-107.812
11
154.867
21
-107.861
0
LINE
8
BLACK
6
CONTINUOUS
10
154.867
20
-107.861
11
154.867
21
-108.486
0
LINE
8
BLACK
6
CONTINUOUS
10
154.867
20
-108.486
11
154.862
21
-108.535
0
LINE
8
BLACK
6
CONTINUOUS
10
154.862
20
-108.535
11
154.848
21
-108.582
0
LINE
8
BLACK
6
CONTINUOUS
10
154.848
20
-108.582
11
154.825
21
-108.625
0
LINE
8
BLACK
6
CONTINUOUS
10
154.825
20
-108.625
11
154.794
21
-108.663
0
LINE
8
BLACK
6
CONTINUOUS
10
154.794
20
-108.663
11
154.756
21
-108.694
0
LINE
8
BLACK
6
CONTINUOUS
10
154.756
20
-108.694
11
154.713
21
-108.717
0
LINE
8
BLACK
6
CONTINUOUS
10
154.713
20
-108.717
11
154.666
21
-108.731
0
LINE
8
BLACK
6
CONTINUOUS
10
154.666
20
-108.731
11
154.617
21
-108.736
0
LINE
8
BLACK
6
CONTINUOUS
10
154.617
20
-108.736
11
154.067
21
-108.736
0
LINE
8
BLACK
6
CONTINUOUS
10
154.067
20
-108.736
11
154.018
21
-108.731
0
LINE
8
BLACK
6
CONTINUOUS
10
154.018
20
-108.731
11
153.971
21
-108.717
0
LINE
8
BLACK
6
CONTINUOUS
10
153.971
20
-108.717
11
153.928
21
-108.694
0
LINE
8
BLACK
6
CONTINUOUS
10
153.928
20
-108.694
11
153.89
21
-108.663
0
LINE
8
BLACK
6
CONTINUOUS
10
153.89
20
-108.663
11
153.859
21
-108.625
0
LINE
8
BLACK
6
CONTINUOUS
10
153.859
20
-108.625
11
153.836
21
-108.582
0
LINE
8
BLACK
6
CONTINUOUS
10
153.836
20
-108.582
11
153.822
21
-108.535
0
LINE
8
BLACK
6
CONTINUOUS
10
153.822
20
-108.535
11
153.817
21
-108.486
0
LINE
8
BLACK
6
CONTINUOUS
10
153.817
20
-108.486
11
153.817
21
-107.861
0
LINE
8
BLACK
6
CONTINUOUS
10
153.817
20
-107.861
11
153.822
21
-107.812
0
LINE
8
BLACK
6
CONTINUOUS
10
153.822
20
-107.812
11
153.836
21
-107.765
0
LINE
8
BLACK
6
CONTINUOUS
10
153.836
20
-107.765
11
153.859
21
-107.722
0
LINE
8
BLACK
6
CONTINUOUS
10
153.859
20
-107.722
11
153.89
21
-107.684
0
LINE
8
BLACK
6
CONTINUOUS
10
153.89
20
-107.684
11
153.928
21
-107.653
0
LINE
8
BLACK
6
CONTINUOUS
10
153.928
20
-107.653
11
153.971
21
-107.63
0
LINE
8
BLACK
6
CONTINUOUS
10
153.971
20
-107.63
11
154.018
21
-107.616
0
LINE
8
BLACK
6
CONTINUOUS
10
154.018
20
-107.616
11
154.067
21
-107.611
0
LINE
8
BLACK
6
CONTINUOUS
10
154.067
20
-107.611
11
154.617
21
-107.611
0
LINE
8
BLACK
6
CONTINUOUS
10
154.617
20
-107.611
11
154.666
21
-107.616
0
LINE
8
BLACK
6
CONTINUOUS
10
151.902
20
-108.475
11
150.402
21
-108.475
0
LINE
8
BLACK
6
CONTINUOUS
10
150.402
20
-108.475
11
150.402
21
-107.925
0
LINE
8
BLACK
6
CONTINUOUS
10
150.402
20
-107.925
11
151.902
21
-107.925
0
LINE
8
BLACK
6
CONTINUOUS
10
151.902
20
-107.925
11
151.902
21
-108.475
0
LINE
8
BLACK
6
CONTINUOUS
10
140.502
20
-108.475
11
139.002
21
-108.475
0
LINE
8
BLACK
6
CONTINUOUS
10
139.002
20
-108.475
11
139.002
21
-107.925
0
LINE
8
BLACK
6
CONTINUOUS
10
139.002
20
-107.925
11
140.502
21
-107.925
0
LINE
8
BLACK
6
CONTINUOUS
10
140.502
20
-107.925
11
140.502
21
-108.475
0
LINE
8
BLACK
6
CONTINUOUS
10
151.902
20
-107.675
11
150.402
21
-107.675
0
LINE
8
BLACK
6
CONTINUOUS
10
150.402
20
-107.675
11
150.402
21
-107.125
0
LINE
8
BLACK
6
CONTINUOUS
10
150.402
20
-107.125
11
151.902
21
-107.125
0
LINE
8
BLACK
6
CONTINUOUS
10
151.902
20
-107.125
11
151.902
21
-107.675
0
LINE
8
BLACK
6
CONTINUOUS
10
140.502
20
-107.675
11
139.002
21
-107.675
0
LINE
8
BLACK
6
CONTINUOUS
10
139.002
20
-107.675
11
139.002
21
-107.125
0
LINE
8
BLACK
6
CONTINUOUS
10
139.002
20
-107.125
11
140.502
21
-107.125
0
LINE
8
BLACK
6
CONTINUOUS
10
140.502
20
-107.125
11
140.502
21
-107.675
0
LINE
8
BLACK
6
CONTINUOUS
10
167.185
20
-105.956
11
167.317
21
-105.996
0
LINE
8
BLACK
6
CONTINUOUS
10
167.317
20
-105.996
11
167.439
21
-106.061
0
LINE
8
BLACK
6
CONTINUOUS
10
167.439
20
-106.061
11
167.545
21
-106.149
0
LINE
8
BLACK
6
CONTINUOUS
10
167.545
20
-106.149
11
167.633
21
-106.255
0
LINE
8
BLACK
6
CONTINUOUS
10
167.633
20
-106.255
11
167.698
21
-106.377
0
LINE
8
BLACK
6
CONTINUOUS
10
167.698
20
-106.377
11
167.738
21
-106.509
0
LINE
8
BLACK
6
CONTINUOUS
10
167.738
20
-106.509
11
167.751
21
-106.646
0
LINE
8
BLACK
6
CONTINUOUS
10
167.751
20
-106.646
11
167.738
21
-106.783
0
LINE
8
BLACK
6
CONTINUOUS
10
167.738
20
-106.783
11
167.698
21
-106.915
0
LINE
8
BLACK
6
CONTINUOUS
10
167.698
20
-106.915
11
167.633
21
-107.037
0
LINE
8
BLACK
6
CONTINUOUS
10
167.633
20
-107.037
11
167.545
21
-107.143
0
LINE
8
BLACK
6
CONTINUOUS
10
167.545
20
-107.143
11
167.439
21
-107.231
0
LINE
8
BLACK
6
CONTINUOUS
10
167.439
20
-107.231
11
167.317
21
-107.296
0
LINE
8
BLACK
6
CONTINUOUS
10
167.317
20
-107.296
11
167.185
21
-107.336
0
LINE
8
BLACK
6
CONTINUOUS
10
167.185
20
-107.336
11
167.082
21
-107.346
0
LINE
8
BLACK
6
CONTINUOUS
10
167.082
20
-107.346
11
165.514
21
-107.346
0
LINE
8
BLACK
6
CONTINUOUS
10
165.514
20
-107.346
11
165.411
21
-107.336
0
LINE
8
BLACK
6
CONTINUOUS
10
165.411
20
-107.336
11
165.279
21
-107.296
0
LINE
8
BLACK
6
CONTINUOUS
10
165.279
20
-107.296
11
165.157
21
-107.231
0
LINE
8
BLACK
6
CONTINUOUS
10
165.157
20
-107.231
11
165.051
21
-107.143
0
LINE
8
BLACK
6
CONTINUOUS
10
165.051
20
-107.143
11
164.963
21
-107.037
0
LINE
8
BLACK
6
CONTINUOUS
10
164.963
20
-107.037
11
164.898
21
-106.915
0
LINE
8
BLACK
6
CONTINUOUS
10
164.898
20
-106.915
11
164.858
21
-106.783
0
LINE
8
BLACK
6
CONTINUOUS
10
164.858
20
-106.783
11
164.845
21
-106.646
0
LINE
8
BLACK
6
CONTINUOUS
10
164.845
20
-106.646
11
164.858
21
-106.509
0
LINE
8
BLACK
6
CONTINUOUS
10
164.858
20
-106.509
11
164.898
21
-106.377
0
LINE
8
BLACK
6
CONTINUOUS
10
164.898
20
-106.377
11
164.963
21
-106.255
0
LINE
8
BLACK
6
CONTINUOUS
10
164.963
20
-106.255
11
165.051
21
-106.149
0
LINE
8
BLACK
6
CONTINUOUS
10
165.051
20
-106.149
11
165.157
21
-106.061
0
LINE
8
BLACK
6
CONTINUOUS
10
165.157
20
-106.061
11
165.279
21
-105.996
0
LINE
8
BLACK
6
CONTINUOUS
10
165.279
20
-105.996
11
165.411
21
-105.956
0
LINE
8
BLACK
6
CONTINUOUS
10
165.411
20
-105.956
11
165.514
21
-105.946
0
LINE
8
BLACK
6
CONTINUOUS
10
165.514
20
-105.946
11
167.082
21
-105.946
0
LINE
8
BLACK
6
CONTINUOUS
10
167.082
20
-105.946
11
167.185
21
-105.956
0
LINE
8
BLACK
6
CONTINUOUS
10
170.705
20
-105.956
11
170.837
21
-105.996
0
LINE
8
BLACK
6
CONTINUOUS
10
170.837
20
-105.996
11
170.959
21
-106.061
0
LINE
8
BLACK
6
CONTINUOUS
10
170.959
20
-106.061
11
171.065
21
-106.149
0
LINE
8
BLACK
6
CONTINUOUS
10
171.065
20
-106.149
11
171.153
21
-106.255
0
LINE
8
BLACK
6
CONTINUOUS
10
171.153
20
-106.255
11
171.218
21
-106.377
0
LINE
8
BLACK
6
CONTINUOUS
10
171.218
20
-106.377
11
171.258
21
-106.509
0
LINE
8
BLACK
6
CONTINUOUS
10
171.258
20
-106.509
11
171.271
21
-106.646
0
LINE
8
BLACK
6
CONTINUOUS
10
171.271
20
-106.646
11
171.258
21
-106.783
0
LINE
8
BLACK
6
CONTINUOUS
10
171.258
20
-106.783
11
171.218
21
-106.915
0
LINE
8
BLACK
6
CONTINUOUS
10
171.218
20
-106.915
11
171.153
21
-107.037
0
LINE
8
BLACK
6
CONTINUOUS
10
171.153
20
-107.037
11
171.065
21
-107.143
0
LINE
8
BLACK
6
CONTINUOUS
10
171.065
20
-107.143
11
170.959
21
-107.231
0
LINE
8
BLACK
6
CONTINUOUS
10
170.959
20
-107.231
11
170.837
21
-107.296
0
LINE
8
BLACK
6
CONTINUOUS
10
170.837
20
-107.296
11
170.705
21
-107.336
0
LINE
8
BLACK
6
CONTINUOUS
10
170.705
20
-107.336
11
170.602
21
-107.346
0
LINE
8
BLACK
6
CONTINUOUS
10
170.602
20
-107.346
11
169.034
21
-107.346
0
LINE
8
BLACK
6
CONTINUOUS
10
169.034
20
-107.346
11
168.931
21
-107.336
0
LINE
8
BLACK
6
CONTINUOUS
10
168.931
20
-107.336
11
168.799
21
-107.296
0
LINE
8
BLACK
6
CONTINUOUS
10
168.799
20
-107.296
11
168.677
21
-107.231
0
LINE
8
BLACK
6
CONTINUOUS
10
168.677
20
-107.231
11
168.571
21
-107.143
0
LINE
8
BLACK
6
CONTINUOUS
10
168.571
20
-107.143
11
168.483
21
-107.037
0
LINE
8
BLACK
6
CONTINUOUS
10
168.483
20
-107.037
11
168.418
21
-106.915
0
LINE
8
BLACK
6
CONTINUOUS
10
168.418
20
-106.915
11
168.378
21
-106.783
0
LINE
8
BLACK
6
CONTINUOUS
10
168.378
20
-106.783
11
168.365
21
-106.646
0
LINE
8
BLACK
6
CONTINUOUS
10
168.365
20
-106.646
11
168.378
21
-106.509
0
LINE
8
BLACK
6
CONTINUOUS
10
168.378
20
-106.509
11
168.418
21
-106.377
0
LINE
8
BLACK
6
CONTINUOUS
10
168.418
20
-106.377
11
168.483
21
-106.255
0
LINE
8
BLACK
6
CONTINUOUS
10
168.483
20
-106.255
11
168.571
21
-106.149
0
LINE
8
BLACK
6
CONTINUOUS
10
168.571
20
-106.149
11
168.677
21
-106.061
0
LINE
8
BLACK
6
CONTINUOUS
10
168.677
20
-106.061
11
168.799
21
-105.996
0
LINE
8
BLACK
6
CONTINUOUS
10
168.799
20
-105.996
11
168.931
21
-105.956
0
LINE
8
BLACK
6
CONTINUOUS
10
168.931
20
-105.956
11
169.034
21
-105.946
0
LINE
8
BLACK
6
CONTINUOUS
10
169.034
20
-105.946
11
170.602
21
-105.946
0
LINE
8
BLACK
6
CONTINUOUS
10
170.602
20
-105.946
11
170.705
21
-105.956
0
LINE
8
BLACK
6
CONTINUOUS
10
159.022
20
-107.204
11
156.922
21
-107.204
0
LINE
8
BLACK
6
CONTINUOUS
10
156.922
20
-107.204
11
156.922
21
-105.479
0
LINE
8
BLACK
6
CONTINUOUS
10
156.922
20
-105.479
11
159.022
21
-105.479
0
LINE
8
BLACK
6
CONTINUOUS
10
159.022
20
-105.479
11
159.022
21
-107.204
0
LINE
8
BLACK
6
CONTINUOUS
10
161.922
20
-107.204
11
159.822
21
-107.204
0
LINE
8
BLACK
6
CONTINUOUS
10
159.822
20
-107.204
11
159.822
21
-105.479
0
LINE
8
BLACK
6
CONTINUOUS
10
159.822
20
-105.479
11
161.922
21
-105.479
0
LINE
8
BLACK
6
CONTINUOUS
10
161.922
20
-105.479
11
161.922
21
-107.204
0
LINE
8
BLACK
6
CONTINUOUS
10
154.666
20
-105.841
11
154.713
21
-105.855
0
LINE
8
BLACK
6
CONTINUOUS
10
154.713
20
-105.855
11
154.756
21
-105.878
0
LINE
8
BLACK
6
CONTINUOUS
10
154.756
20
-105.878
11
154.794
21
-105.909
0
LINE
8
BLACK
6
CONTINUOUS
10
154.794
20
-105.909
11
154.825
21
-105.947
0
LINE
8
BLACK
6
CONTINUOUS
10
154.825
20
-105.947
11
154.848
21
-105.99
0
LINE
8
BLACK
6
CONTINUOUS
10
154.848
20
-105.99
11
154.862
21
-106.037
0
LINE
8
BLACK
6
CONTINUOUS
10
154.862
20
-106.037
11
154.867
21
-106.086
0
LINE
8
BLACK
6
CONTINUOUS
10
154.867
20
-106.086
11
154.867
21
-106.711
0
LINE
8
BLACK
6
CONTINUOUS
10
154.867
20
-106.711
11
154.862
21
-106.76
0
LINE
8
BLACK
6
CONTINUOUS
10
154.862
20
-106.76
11
154.848
21
-106.807
0
LINE
8
BLACK
6
CONTINUOUS
10
154.848
20
-106.807
11
154.825
21
-106.85
0
LINE
8
BLACK
6
CONTINUOUS
10
154.825
20
-106.85
11
154.794
21
-106.888
0
LINE
8
BLACK
6
CONTINUOUS
10
154.794
20
-106.888
11
154.756
21
-106.919
0
LINE
8
BLACK
6
CONTINUOUS
10
154.756
20
-106.919
11
154.713
21
-106.942
0
LINE
8
BLACK
6
CONTINUOUS
10
154.713
20
-106.942
11
154.666
21
-106.956
0
LINE
8
BLACK
6
CONTINUOUS
10
154.666
20
-106.956
11
154.617
21
-106.961
0
LINE
8
BLACK
6
CONTINUOUS
10
154.617
20
-106.961
11
154.067
21
-106.961
0
LINE
8
BLACK
6
CONTINUOUS
10
154.067
20
-106.961
11
154.018
21
-106.956
0
LINE
8
BLACK
6
CONTINUOUS
10
154.018
20
-106.956
11
153.971
21
-106.942
0
LINE
8
BLACK
6
CONTINUOUS
10
153.971
20
-106.942
11
153.928
21
-106.919
0
LINE
8
BLACK
6
CONTINUOUS
10
153.928
20
-106.919
11
153.89
21
-106.888
0
LINE
8
BLACK
6
CONTINUOUS
10
153.89
20
-106.888
11
153.859
21
-106.85
0
LINE
8
BLACK
6
CONTINUOUS
10
153.859
20
-106.85
11
153.836
21
-106.807
0
LINE
8
BLACK
6
CONTINUOUS
10
153.836
20
-106.807
11
153.822
21
-106.76
0
LINE
8
BLACK
6
CONTINUOUS
10
153.822
20
-106.76
11
153.817
21
-106.711
0
LINE
8
BLACK
6
CONTINUOUS
10
153.817
20
-106.711
11
153.817
21
-106.086
0
LINE
8
BLACK
6
CONTINUOUS
10
153.817
20
-106.086
11
153.822
21
-106.037
0
LINE
8
BLACK
6
CONTINUOUS
10
153.822
20
-106.037
11
153.836
21
-105.99
0
LINE
8
BLACK
6
CONTINUOUS
10
153.836
20
-105.99
11
153.859
21
-105.947
0
LINE
8
BLACK
6
CONTINUOUS
10
153.859
20
-105.947
11
153.89
21
-105.909
0
LINE
8
BLACK
6
CONTINUOUS
10
153.89
20
-105.909
11
153.928
21
-105.878
0
LINE
8
BLACK
6
CONTINUOUS
10
153.928
20
-105.878
11
153.971
21
-105.855
0
LINE
8
BLACK
6
CONTINUOUS
10
153.971
20
-105.855
11
154.018
21
-105.841
0
LINE
8
BLACK
6
CONTINUOUS
10
154.018
20
-105.841
11
154.067
21
-105.836
0
LINE
8
BLACK
6
CONTINUOUS
10
154.067
20
-105.836
11
154.617
21
-105.836
0
LINE
8
BLACK
6
CONTINUOUS
10
154.617
20
-105.836
11
154.666
21
-105.841
0
LINE
8
BLACK
6
CONTINUOUS
10
151.902
20
-106.875
11
150.402
21
-106.875
0
LINE
8
BLACK
6
CONTINUOUS
10
150.402
20
-106.875
11
150.402
21
-106.325
0
LINE
8
BLACK
6
CONTINUOUS
10
150.402
20
-106.325
11
151.902
21
-106.325
0
LINE
8
BLACK
6
CONTINUOUS
10
151.902
20
-106.325
11
151.902
21
-106.875
0
LINE
8
BLACK
6
CONTINUOUS
10
140.502
20
-106.875
11
139.002
21
-106.875
0
LINE
8
BLACK
6
CONTINUOUS
10
139.002
20
-106.875
11
139.002
21
-106.325
0
LINE
8
BLACK
6
CONTINUOUS
10
139.002
20
-106.325
11
140.502
21
-106.325
0
LINE
8
BLACK
6
CONTINUOUS
10
140.502
20
-106.325
11
140.502
21
-106.875
0
LINE
8
BLACK
6
CONTINUOUS
10
151.902
20
-106.075
11
150.402
21
-106.075
0
LINE
8
BLACK
6
CONTINUOUS
10
150.402
20
-106.075
11
150.402
21
-105.525
0
LINE
8
BLACK
6
CONTINUOUS
10
150.402
20
-105.525
11
151.902
21
-105.525
0
LINE
8
BLACK
6
CONTINUOUS
10
151.902
20
-105.525
11
151.902
21
-106.075
0
LINE
8
BLACK
6
CONTINUOUS
10
140.502
20
-106.075
11
139.002
21
-106.075
0
LINE
8
BLACK
6
CONTINUOUS
10
139.002
20
-106.075
11
139.002
21
-105.525
0
LINE
8
BLACK
6
CONTINUOUS
10
139.002
20
-105.525
11
140.502
21
-105.525
0
LINE
8
BLACK
6
CONTINUOUS
10
140.502
20
-105.525
11
140.502
21
-106.075
0
LINE
8
BLACK
6
CONTINUOUS
10
167.185
20
-104.056
11
167.317
21
-104.096
0
LINE
8
BLACK
6
CONTINUOUS
10
167.317
20
-104.096
11
167.439
21
-104.161
0
LINE
8
BLACK
6
CONTINUOUS
10
167.439
20
-104.161
11
167.545
21
-104.249
0
LINE
8
BLACK
6
CONTINUOUS
10
167.545
20
-104.249
11
167.633
21
-104.355
0
LINE
8
BLACK
6
CONTINUOUS
10
167.633
20
-104.355
11
167.698
21
-104.477
0
LINE
8
BLACK
6
CONTINUOUS
10
167.698
20
-104.477
11
167.738
21
-104.609
0
LINE
8
BLACK
6
CONTINUOUS
10
167.738
20
-104.609
11
167.751
21
-104.746
0
LINE
8
BLACK
6
CONTINUOUS
10
167.751
20
-104.746
11
167.738
21
-104.883
0
LINE
8
BLACK
6
CONTINUOUS
10
167.738
20
-104.883
11
167.698
21
-105.015
0
LINE
8
BLACK
6
CONTINUOUS
10
167.698
20
-105.015
11
167.633
21
-105.137
0
LINE
8
BLACK
6
CONTINUOUS
10
167.633
20
-105.137
11
167.545
21
-105.243
0
LINE
8
BLACK
6
CONTINUOUS
10
167.545
20
-105.243
11
167.439
21
-105.331
0
LINE
8
BLACK
6
CONTINUOUS
10
167.439
20
-105.331
11
167.317
21
-105.396
0
LINE
8
BLACK
6
CONTINUOUS
10
167.317
20
-105.396
11
167.185
21
-105.436
0
LINE
8
BLACK
6
CONTINUOUS
10
167.185
20
-105.436
11
167.082
21
-105.446
0
LINE
8
BLACK
6
CONTINUOUS
10
167.082
20
-105.446
11
165.514
21
-105.446
0
LINE
8
BLACK
6
CONTINUOUS
10
165.514
20
-105.446
11
165.411
21
-105.436
0
LINE
8
BLACK
6
CONTINUOUS
10
165.411
20
-105.436
11
165.279
21
-105.396
0
LINE
8
BLACK
6
CONTINUOUS
10
165.279
20
-105.396
11
165.157
21
-105.331
0
LINE
8
BLACK
6
CONTINUOUS
10
165.157
20
-105.331
11
165.051
21
-105.243
0
LINE
8
BLACK
6
CONTINUOUS
10
165.051
20
-105.243
11
164.963
21
-105.137
0
LINE
8
BLACK
6
CONTINUOUS
10
164.963
20
-105.137
11
164.898
21
-105.015
0
LINE
8
BLACK
6
CONTINUOUS
10
164.898
20
-105.015
11
164.858
21
-104.883
0
LINE
8
BLACK
6
CONTINUOUS
10
164.858
20
-104.883
11
164.845
21
-104.746
0
LINE
8
BLACK
6
CONTINUOUS
10
164.845
20
-104.746
11
164.858
21
-104.609
0
LINE
8
BLACK
6
CONTINUOUS
10
164.858
20
-104.609
11
164.898
21
-104.477
0
LINE
8
BLACK
6
CONTINUOUS
10
164.898
20
-104.477
11
164.963
21
-104.355
0
LINE
8
BLACK
6
CONTINUOUS
10
164.963
20
-104.355
11
165.051
21
-104.249
0
LINE
8
BLACK
6
CONTINUOUS
10
165.051
20
-104.249
11
165.157
21
-104.161
0
LINE
8
BLACK
6
CONTINUOUS
10
165.157
20
-104.161
11
165.279
21
-104.096
0
LINE
8
BLACK
6
CONTINUOUS
10
165.279
20
-104.096
11
165.411
21
-104.056
0
LINE
8
BLACK
6
CONTINUOUS
10
165.411
20
-104.056
11
165.514
21
-104.046
0
LINE
8
BLACK
6
CONTINUOUS
10
165.514
20
-104.046
11
167.082
21
-104.046
0
LINE
8
BLACK
6
CONTINUOUS
10
167.082
20
-104.046
11
167.185
21
-104.056
0
LINE
8
BLACK
6
CONTINUOUS
10
170.705
20
-104.056
11
170.837
21
-104.096
0
LINE
8
BLACK
6
CONTINUOUS
10
170.837
20
-104.096
11
170.959
21
-104.161
0
LINE
8
BLACK
6
CONTINUOUS
10
170.959
20
-104.161
11
171.065
21
-104.249
0
LINE
8
BLACK
6
CONTINUOUS
10
171.065
20
-104.249
11
171.153
21
-104.355
0
LINE
8
BLACK
6
CONTINUOUS
10
171.153
20
-104.355
11
171.218
21
-104.477
0
LINE
8
BLACK
6
CONTINUOUS
10
171.218
20
-104.477
11
171.258
21
-104.609
0
LINE
8
BLACK
6
CONTINUOUS
10
171.258
20
-104.609
11
171.271
21
-104.746
0
LINE
8
BLACK
6
CONTINUOUS
10
171.271
20
-104.746
11
171.258
21
-104.883
0
LINE
8
BLACK
6
CONTINUOUS
10
171.258
20
-104.883
11
171.218
21
-105.015
0
LINE
8
BLACK
6
CONTINUOUS
10
171.218
20
-105.015
11
171.153
21
-105.137
0
LINE
8
BLACK
6
CONTINUOUS
10
171.153
20
-105.137
11
171.065
21
-105.243
0
LINE
8
BLACK
6
CONTINUOUS
10
171.065
20
-105.243
11
170.959
21
-105.331
0
LINE
8
BLACK
6
CONTINUOUS
10
170.959
20
-105.331
11
170.837
21
-105.396
0
LINE
8
BLACK
6
CONTINUOUS
10
170.837
20
-105.396
11
170.705
21
-105.436
0
LINE
8
BLACK
6
CONTINUOUS
10
170.705
20
-105.436
11
170.602
21
-105.446
0
LINE
8
BLACK
6
CONTINUOUS
10
170.602
20
-105.446
11
169.034
21
-105.446
0
LINE
8
BLACK
6
CONTINUOUS
10
169.034
20
-105.446
11
168.931
21
-105.436
0
LINE
8
BLACK
6
CONTINUOUS
10
168.931
20
-105.436
11
168.799
21
-105.396
0
LINE
8
BLACK
6
CONTINUOUS
10
168.799
20
-105.396
11
168.677
21
-105.331
0
LINE
8
BLACK
6
CONTINUOUS
10
168.677
20
-105.331
11
168.571
21
-105.243
0
LINE
8
BLACK
6
CONTINUOUS
10
168.571
20
-105.243
11
168.483
21
-105.137
0
LINE
8
BLACK
6
CONTINUOUS
10
168.483
20
-105.137
11
168.418
21
-105.015
0
LINE
8
BLACK
6
CONTINUOUS
10
168.418
20
-105.015
11
168.378
21
-104.883
0
LINE
8
BLACK
6
CONTINUOUS
10
168.378
20
-104.883
11
168.365
21
-104.746
0
LINE
8
BLACK
6
CONTINUOUS
10
168.365
20
-104.746
11
168.378
21
-104.609
0
LINE
8
BLACK
6
CONTINUOUS
10
168.378
20
-104.609
11
168.418
21
-104.477
0
LINE
8
BLACK
6
CONTINUOUS
10
168.418
20
-104.477
11
168.483
21
-104.355
0
LINE
8
BLACK
6
CONTINUOUS
10
168.483
20
-104.355
11
168.571
21
-104.249
0
LINE
8
BLACK
6
CONTINUOUS
10
168.571
20
-104.249
11
168.677
21
-104.161
0
LINE
8
BLACK
6
CONTINUOUS
10
168.677
20
-104.161
11
168.799
21
-104.096
0
LINE
8
BLACK
6
CONTINUOUS
10
168.799
20
-104.096
11
168.931
21
-104.056
0
LINE
8
BLACK
6
CONTINUOUS
10
168.931
20
-104.056
11
169.034
21
-104.046
0
LINE
8
BLACK
6
CONTINUOUS
10
169.034
20
-104.046
11
170.602
21
-104.046
0
LINE
8
BLACK
6
CONTINUOUS
10
170.602
20
-104.046
11
170.705
21
-104.056
0
LINE
8
BLACK
6
CONTINUOUS
10
151.902
20
-105.275
11
150.402
21
-105.275
0
LINE
8
BLACK
6
CONTINUOUS
10
150.402
20
-105.275
11
150.402
21
-104.725
0
LINE
8
BLACK
6
CONTINUOUS
10
150.402
20
-104.725
11
151.902
21
-104.725
0
LINE
8
BLACK
6
CONTINUOUS
10
151.902
20
-104.725
11
151.902
21
-105.275
0
LINE
8
BLACK
6
CONTINUOUS
10
140.502
20
-105.275
11
139.002
21
-105.275
0
LINE
8
BLACK
6
CONTINUOUS
10
139.002
20
-105.275
11
139.002
21
-104.725
0
LINE
8
BLACK
6
CONTINUOUS
10
139.002
20
-104.725
11
140.502
21
-104.725
0
LINE
8
BLACK
6
CONTINUOUS
10
140.502
20
-104.725
11
140.502
21
-105.275
0
LINE
8
BLACK
6
CONTINUOUS
10
161.922
20
-105.029
11
159.822
21
-105.029
0
LINE
8
BLACK
6
CONTINUOUS
10
159.822
20
-105.029
11
159.822
21
-103.304
0
LINE
8
BLACK
6
CONTINUOUS
10
159.822
20
-103.304
11
161.922
21
-103.304
0
LINE
8
BLACK
6
CONTINUOUS
10
161.922
20
-103.304
11
161.922
21
-105.029
0
LINE
8
BLACK
6
CONTINUOUS
10
159.022
20
-105.029
11
156.922
21
-105.029
0
LINE
8
BLACK
6
CONTINUOUS
10
156.922
20
-105.029
11
156.922
21
-103.304
0
LINE
8
BLACK
6
CONTINUOUS
10
156.922
20
-103.304
11
159.022
21
-103.304
0
LINE
8
BLACK
6
CONTINUOUS
10
159.022
20
-103.304
11
159.022
21
-105.029
0
LINE
8
BLACK
6
CONTINUOUS
10
154.666
20
-103.552
11
154.713
21
-103.566
0
LINE
8
BLACK
6
CONTINUOUS
10
154.713
20
-103.566
11
154.756
21
-103.589
0
LINE
8
BLACK
6
CONTINUOUS
10
154.756
20
-103.589
11
154.794
21
-103.62
0
LINE
8
BLACK
6
CONTINUOUS
10
154.794
20
-103.62
11
154.825
21
-103.658
0
LINE
8
BLACK
6
CONTINUOUS
10
154.825
20
-103.658
11
154.848
21
-103.701
0
LINE
8
BLACK
6
CONTINUOUS
10
154.848
20
-103.701
11
154.862
21
-103.748
0
LINE
8
BLACK
6
CONTINUOUS
10
154.862
20
-103.748
11
154.867
21
-103.797
0
LINE
8
BLACK
6
CONTINUOUS
10
154.867
20
-103.797
11
154.867
21
-104.422
0
LINE
8
BLACK
6
CONTINUOUS
10
154.867
20
-104.422
11
154.862
21
-104.471
0
LINE
8
BLACK
6
CONTINUOUS
10
154.862
20
-104.471
11
154.848
21
-104.518
0
LINE
8
BLACK
6
CONTINUOUS
10
154.848
20
-104.518
11
154.825
21
-104.561
0
LINE
8
BLACK
6
CONTINUOUS
10
154.825
20
-104.561
11
154.794
21
-104.599
0
LINE
8
BLACK
6
CONTINUOUS
10
154.794
20
-104.599
11
154.756
21
-104.63
0
LINE
8
BLACK
6
CONTINUOUS
10
154.756
20
-104.63
11
154.713
21
-104.653
0
LINE
8
BLACK
6
CONTINUOUS
10
154.713
20
-104.653
11
154.666
21
-104.667
0
LINE
8
BLACK
6
CONTINUOUS
10
154.666
20
-104.667
11
154.617
21
-104.672
0
LINE
8
BLACK
6
CONTINUOUS
10
154.617
20
-104.672
11
154.067
21
-104.672
0
LINE
8
BLACK
6
CONTINUOUS
10
154.067
20
-104.672
11
154.018
21
-104.667
0
LINE
8
BLACK
6
CONTINUOUS
10
154.018
20
-104.667
11
153.971
21
-104.653
0
LINE
8
BLACK
6
CONTINUOUS
10
153.971
20
-104.653
11
153.928
21
-104.63
0
LINE
8
BLACK
6
CONTINUOUS
10
153.928
20
-104.63
11
153.89
21
-104.599
0
LINE
8
BLACK
6
CONTINUOUS
10
153.89
20
-104.599
11
153.859
21
-104.561
0
LINE
8
BLACK
6
CONTINUOUS
10
153.859
20
-104.561
11
153.836
21
-104.518
0
LINE
8
BLACK
6
CONTINUOUS
10
153.836
20
-104.518
11
153.822
21
-104.471
0
LINE
8
BLACK
6
CONTINUOUS
10
153.822
20
-104.471
11
153.817
21
-104.422
0
LINE
8
BLACK
6
CONTINUOUS
10
153.817
20
-104.422
11
153.817
21
-103.797
0
LINE
8
BLACK
6
CONTINUOUS
10
153.817
20
-103.797
11
153.822
21
-103.748
0
LINE
8
BLACK
6
CONTINUOUS
10
153.822
20
-103.748
11
153.836
21
-103.701
0
LINE
8
BLACK
6
CONTINUOUS
10
153.836
20
-103.701
11
153.859
21
-103.658
0
LINE
8
BLACK
6
CONTINUOUS
10
153.859
20
-103.658
11
153.89
21
-103.62
0
LINE
8
BLACK
6
CONTINUOUS
10
153.89
20
-103.62
11
153.928
21
-103.589
0
LINE
8
BLACK
6
CONTINUOUS
10
153.928
20
-103.589
11
153.971
21
-103.566
0
LINE
8
BLACK
6
CONTINUOUS
10
153.971
20
-103.566
11
154.018
21
-103.552
0
LINE
8
BLACK
6
CONTINUOUS
10
154.018
20
-103.552
11
154.067
21
-103.547
0
LINE
8
BLACK
6
CONTINUOUS
10
154.067
20
-103.547
11
154.617
21
-103.547
0
LINE
8
BLACK
6
CONTINUOUS
10
154.617
20
-103.547
11
154.666
21
-103.552
0
LINE
8
BLACK
6
CONTINUOUS
10
140.502
20
-104.475
11
139.002
21
-104.475
0
LINE
8
BLACK
6
CONTINUOUS
10
139.002
20
-104.475
11
139.002
21
-103.925
0
LINE
8
BLACK
6
CONTINUOUS
10
139.002
20
-103.925
11
140.502
21
-103.925
0
LINE
8
BLACK
6
CONTINUOUS
10
140.502
20
-103.925
11
140.502
21
-104.475
0
LINE
8
BLACK
6
CONTINUOUS
10
151.902
20
-104.475
11
150.402
21
-104.475
0
LINE
8
BLACK
6
CONTINUOUS
10
150.402
20
-104.475
11
150.402
21
-103.925
0
LINE
8
BLACK
6
CONTINUOUS
10
150.402
20
-103.925
11
151.902
21
-103.925
0
LINE
8
BLACK
6
CONTINUOUS
10
151.902
20
-103.925
11
151.902
21
-104.475
0
LINE
8
BLACK
6
CONTINUOUS
10
140.502
20
-103.675
11
139.002
21
-103.675
0
LINE
8
BLACK
6
CONTINUOUS
10
139.002
20
-103.675
11
139.002
21
-103.125
0
LINE
8
BLACK
6
CONTINUOUS
10
139.002
20
-103.125
11
140.502
21
-103.125
0
LINE
8
BLACK
6
CONTINUOUS
10
140.502
20
-103.125
11
140.502
21
-103.675
0
LINE
8
BLACK
6
CONTINUOUS
10
151.902
20
-103.675
11
150.402
21
-103.675
0
LINE
8
BLACK
6
CONTINUOUS
10
150.402
20
-103.675
11
150.402
21
-103.125
0
LINE
8
BLACK
6
CONTINUOUS
10
150.402
20
-103.125
11
151.902
21
-103.125
0
LINE
8
BLACK
6
CONTINUOUS
10
151.902
20
-103.125
11
151.902
21
-103.675
0
LINE
8
BLACK
6
CONTINUOUS
10
170.705
20
-102.156
11
170.837
21
-102.196
0
LINE
8
BLACK
6
CONTINUOUS
10
170.837
20
-102.196
11
170.959
21
-102.261
0
LINE
8
BLACK
6
CONTINUOUS
10
170.959
20
-102.261
11
171.065
21
-102.349
0
LINE
8
BLACK
6
CONTINUOUS
10
171.065
20
-102.349
11
171.153
21
-102.455
0
LINE
8
BLACK
6
CONTINUOUS
10
171.153
20
-102.455
11
171.218
21
-102.577
0
LINE
8
BLACK
6
CONTINUOUS
10
171.218
20
-102.577
11
171.258
21
-102.709
0
LINE
8
BLACK
6
CONTINUOUS
10
171.258
20
-102.709
11
171.271
21
-102.846
0
LINE
8
BLACK
6
CONTINUOUS
10
171.271
20
-102.846
11
171.258
21
-102.983
0
LINE
8
BLACK
6
CONTINUOUS
10
171.258
20
-102.983
11
171.218
21
-103.115
0
LINE
8
BLACK
6
CONTINUOUS
10
171.218
20
-103.115
11
171.153
21
-103.237
0
LINE
8
BLACK
6
CONTINUOUS
10
171.153
20
-103.237
11
171.065
21
-103.343
0
LINE
8
BLACK
6
CONTINUOUS
10
171.065
20
-103.343
11
170.959
21
-103.431
0
LINE
8
BLACK
6
CONTINUOUS
10
170.959
20
-103.431
11
170.837
21
-103.496
0
LINE
8
BLACK
6
CONTINUOUS
10
170.837
20
-103.496
11
170.705
21
-103.536
0
LINE
8
BLACK
6
CONTINUOUS
10
170.705
20
-103.536
11
170.602
21
-103.546
0
LINE
8
BLACK
6
CONTINUOUS
10
170.602
20
-103.546
11
169.034
21
-103.546
0
LINE
8
BLACK
6
CONTINUOUS
10
169.034
20
-103.546
11
168.931
21
-103.536
0
LINE
8
BLACK
6
CONTINUOUS
10
168.931
20
-103.536
11
168.799
21
-103.496
0
LINE
8
BLACK
6
CONTINUOUS
10
168.799
20
-103.496
11
168.677
21
-103.431
0
LINE
8
BLACK
6
CONTINUOUS
10
168.677
20
-103.431
11
168.571
21
-103.343
0
LINE
8
BLACK
6
CONTINUOUS
10
168.571
20
-103.343
11
168.483
21
-103.237
0
LINE
8
BLACK
6
CONTINUOUS
10
168.483
20
-103.237
11
168.418
21
-103.115
0
LINE
8
BLACK
6
CONTINUOUS
10
168.418
20
-103.115
11
168.378
21
-102.983
0
LINE
8
BLACK
6
CONTINUOUS
10
168.378
20
-102.983
11
168.365
21
-102.846
0
LINE
8
BLACK
6
CONTINUOUS
10
168.365
20
-102.846
11
168.378
21
-102.709
0
LINE
8
BLACK
6
CONTINUOUS
10
168.378
20
-102.709
11
168.418
21
-102.577
0
LINE
8
BLACK
6
CONTINUOUS
10
168.418
20
-102.577
11
168.483
21
-102.455
0
LINE
8
BLACK
6
CONTINUOUS
10
168.483
20
-102.455
11
168.571
21
-102.349
0
LINE
8
BLACK
6
CONTINUOUS
10
168.571
20
-102.349
11
168.677
21
-102.261
0
LINE
8
BLACK
6
CONTINUOUS
10
168.677
20
-102.261
11
168.799
21
-102.196
0
LINE
8
BLACK
6
CONTINUOUS
10
168.799
20
-102.196
11
168.931
21
-102.156
0
LINE
8
BLACK
6
CONTINUOUS
10
168.931
20
-102.156
11
169.034
21
-102.146
0
LINE
8
BLACK
6
CONTINUOUS
10
169.034
20
-102.146
11
170.602
21
-102.146
0
LINE
8
BLACK
6
CONTINUOUS
10
170.602
20
-102.146
11
170.705
21
-102.156
0
LINE
8
BLACK
6
CONTINUOUS
10
167.185
20
-102.156
11
167.317
21
-102.196
0
LINE
8
BLACK
6
CONTINUOUS
10
167.317
20
-102.196
11
167.439
21
-102.261
0
LINE
8
BLACK
6
CONTINUOUS
10
167.439
20
-102.261
11
167.545
21
-102.349
0
LINE
8
BLACK
6
CONTINUOUS
10
167.545
20
-102.349
11
167.633
21
-102.455
0
LINE
8
BLACK
6
CONTINUOUS
10
167.633
20
-102.455
11
167.698
21
-102.577
0
LINE
8
BLACK
6
CONTINUOUS
10
167.698
20
-102.577
11
167.738
21
-102.709
0
LINE
8
BLACK
6
CONTINUOUS
10
167.738
20
-102.709
11
167.751
21
-102.846
0
LINE
8
BLACK
6
CONTINUOUS
10
167.751
20
-102.846
11
167.738
21
-102.983
0
LINE
8
BLACK
6
CONTINUOUS
10
167.738
20
-102.983
11
167.698
21
-103.115
0
LINE
8
BLACK
6
CONTINUOUS
10
167.698
20
-103.115
11
167.633
21
-103.237
0
LINE
8
BLACK
6
CONTINUOUS
10
167.633
20
-103.237
11
167.545
21
-103.343
0
LINE
8
BLACK
6
CONTINUOUS
10
167.545
20
-103.343
11
167.439
21
-103.431
0
LINE
8
BLACK
6
CONTINUOUS
10
167.439
20
-103.431
11
167.317
21
-103.496
0
LINE
8
BLACK
6
CONTINUOUS
10
167.317
20
-103.496
11
167.185
21
-103.536
0
LINE
8
BLACK
6
CONTINUOUS
10
167.185
20
-103.536
11
167.082
21
-103.546
0
LINE
8
BLACK
6
CONTINUOUS
10
167.082
20
-103.546
11
165.514
21
-103.546
0
LINE
8
BLACK
6
CONTINUOUS
10
165.514
20
-103.546
11
165.411
21
-103.536
0
LINE
8
BLACK
6
CONTINUOUS
10
165.411
20
-103.536
11
165.279
21
-103.496
0
LINE
8
BLACK
6
CONTINUOUS
10
165.279
20
-103.496
11
165.157
21
-103.431
0
LINE
8
BLACK
6
CONTINUOUS
10
165.157
20
-103.431
11
165.051
21
-103.343
0
LINE
8
BLACK
6
CONTINUOUS
10
165.051
20
-103.343
11
164.963
21
-103.237
0
LINE
8
BLACK
6
CONTINUOUS
10
164.963
20
-103.237
11
164.898
21
-103.115
0
LINE
8
BLACK
6
CONTINUOUS
10
164.898
20
-103.115
11
164.858
21
-102.983
0
LINE
8
BLACK
6
CONTINUOUS
10
164.858
20
-102.983
11
164.845
21
-102.846
0
LINE
8
BLACK
6
CONTINUOUS
10
164.845
20
-102.846
11
164.858
21
-102.709
0
LINE
8
BLACK
6
CONTINUOUS
10
164.858
20
-102.709
11
164.898
21
-102.577
0
LINE
8
BLACK
6
CONTINUOUS
10
164.898
20
-102.577
11
164.963
21
-102.455
0
LINE
8
BLACK
6
CONTINUOUS
10
164.963
20
-102.455
11
165.051
21
-102.349
0
LINE
8
BLACK
6
CONTINUOUS
10
165.051
20
-102.349
11
165.157
21
-102.261
0
LINE
8
BLACK
6
CONTINUOUS
10
165.157
20
-102.261
11
165.279
21
-102.196
0
LINE
8
BLACK
6
CONTINUOUS
10
165.279
20
-102.196
11
165.411
21
-102.156
0
LINE
8
BLACK
6
CONTINUOUS
10
165.411
20
-102.156
11
165.514
21
-102.146
0
LINE
8
BLACK
6
CONTINUOUS
10
165.514
20
-102.146
11
167.082
21
-102.146
0
LINE
8
BLACK
6
CONTINUOUS
10
167.082
20
-102.146
11
167.185
21
-102.156
0
LINE
8
BLACK
6
CONTINUOUS
10
154.666
20
-101.777
11
154.713
21
-101.791
0
LINE
8
BLACK
6
CONTINUOUS
10
154.713
20
-101.791
11
154.756
21
-101.814
0
LINE
8
BLACK
6
CONTINUOUS
10
154.756
20
-101.814
11
154.794
21
-101.845
0
LINE
8
BLACK
6
CONTINUOUS
10
154.794
20
-101.845
11
154.825
21
-101.883
0
LINE
8
BLACK
6
CONTINUOUS
10
154.825
20
-101.883
11
154.848
21
-101.926
0
LINE
8
BLACK
6
CONTINUOUS
10
154.848
20
-101.926
11
154.862
21
-101.973
0
LINE
8
BLACK
6
CONTINUOUS
10
154.862
20
-101.973
11
154.867
21
-102.022
0
LINE
8
BLACK
6
CONTINUOUS
10
154.867
20
-102.022
11
154.867
21
-102.647
0
LINE
8
BLACK
6
CONTINUOUS
10
154.867
20
-102.647
11
154.862
21
-102.696
0
LINE
8
BLACK
6
CONTINUOUS
10
154.862
20
-102.696
11
154.848
21
-102.743
0
LINE
8
BLACK
6
CONTINUOUS
10
154.848
20
-102.743
11
154.825
21
-102.786
0
LINE
8
BLACK
6
CONTINUOUS
10
154.825
20
-102.786
11
154.794
21
-102.824
0
LINE
8
BLACK
6
CONTINUOUS
10
154.794
20
-102.824
11
154.756
21
-102.855
0
LINE
8
BLACK
6
CONTINUOUS
10
154.756
20
-102.855
11
154.713
21
-102.878
0
LINE
8
BLACK
6
CONTINUOUS
10
154.713
20
-102.878
11
154.666
21
-102.892
0
LINE
8
BLACK
6
CONTINUOUS
10
154.666
20
-102.892
11
154.617
21
-102.897
0
LINE
8
BLACK
6
CONTINUOUS
10
154.617
20
-102.897
11
154.067
21
-102.897
0
LINE
8
BLACK
6
CONTINUOUS
10
154.067
20
-102.897
11
154.018
21
-102.892
0
LINE
8
BLACK
6
CONTINUOUS
10
154.018
20
-102.892
11
153.971
21
-102.878
0
LINE
8
BLACK
6
CONTINUOUS
10
153.971
20
-102.878
11
153.928
21
-102.855
0
LINE
8
BLACK
6
CONTINUOUS
10
153.928
20
-102.855
11
153.89
21
-102.824
0
LINE
8
BLACK
6
CONTINUOUS
10
153.89
20
-102.824
11
153.859
21
-102.786
0
LINE
8
BLACK
6
CONTINUOUS
10
153.859
20
-102.786
11
153.836
21
-102.743
0
LINE
8
BLACK
6
CONTINUOUS
10
153.836
20
-102.743
11
153.822
21
-102.696
0
LINE
8
BLACK
6
CONTINUOUS
10
153.822
20
-102.696
11
153.817
21
-102.647
0
LINE
8
BLACK
6
CONTINUOUS
10
153.817
20
-102.647
11
153.817
21
-102.022
0
LINE
8
BLACK
6
CONTINUOUS
10
153.817
20
-102.022
11
153.822
21
-101.973
0
LINE
8
BLACK
6
CONTINUOUS
10
153.822
20
-101.973
11
153.836
21
-101.926
0
LINE
8
BLACK
6
CONTINUOUS
10
153.836
20
-101.926
11
153.859
21
-101.883
0
LINE
8
BLACK
6
CONTINUOUS
10
153.859
20
-101.883
11
153.89
21
-101.845
0
LINE
8
BLACK
6
CONTINUOUS
10
153.89
20
-101.845
11
153.928
21
-101.814
0
LINE
8
BLACK
6
CONTINUOUS
10
153.928
20
-101.814
11
153.971
21
-101.791
0
LINE
8
BLACK
6
CONTINUOUS
10
153.971
20
-101.791
11
154.018
21
-101.777
0
LINE
8
BLACK
6
CONTINUOUS
10
154.018
20
-101.777
11
154.067
21
-101.772
0
LINE
8
BLACK
6
CONTINUOUS
10
154.067
20
-101.772
11
154.617
21
-101.772
0
LINE
8
BLACK
6
CONTINUOUS
10
154.617
20
-101.772
11
154.666
21
-101.777
0
LINE
8
BLACK
6
CONTINUOUS
10
151.902
20
-102.875
11
150.402
21
-102.875
0
LINE
8
BLACK
6
CONTINUOUS
10
150.402
20
-102.875
11
150.402
21
-102.325
0
LINE
8
BLACK
6
CONTINUOUS
10
150.402
20
-102.325
11
151.902
21
-102.325
0
LINE
8
BLACK
6
CONTINUOUS
10
151.902
20
-102.325
11
151.902
21
-102.875
0
LINE
8
BLACK
6
CONTINUOUS
10
140.502
20
-102.875
11
139.002
21
-102.875
0
LINE
8
BLACK
6
CONTINUOUS
10
139.002
20
-102.875
11
139.002
21
-102.325
0
LINE
8
BLACK
6
CONTINUOUS
10
139.002
20
-102.325
11
140.502
21
-102.325
0
LINE
8
BLACK
6
CONTINUOUS
10
140.502
20
-102.325
11
140.502
21
-102.875
0
LINE
8
BLACK
6
CONTINUOUS
10
140.502
20
-102.075
11
139.002
21
-102.075
0
LINE
8
BLACK
6
CONTINUOUS
10
139.002
20
-102.075
11
139.002
21
-101.525
0
LINE
8
BLACK
6
CONTINUOUS
10
139.002
20
-101.525
11
140.502
21
-101.525
0
LINE
8
BLACK
6
CONTINUOUS
10
140.502
20
-101.525
11
140.502
21
-102.075
0
LINE
8
BLACK
6
CONTINUOUS
10
151.902
20
-102.075
11
150.402
21
-102.075
0
LINE
8
BLACK
6
CONTINUOUS
10
150.402
20
-102.075
11
150.402
21
-101.525
0
LINE
8
BLACK
6
CONTINUOUS
10
150.402
20
-101.525
11
151.902
21
-101.525
0
LINE
8
BLACK
6
CONTINUOUS
10
151.902
20
-101.525
11
151.902
21
-102.075
0
LINE
8
BLACK
6
CONTINUOUS
10
140.502
20
-101.275
11
139.002
21
-101.275
0
LINE
8
BLACK
6
CONTINUOUS
10
139.002
20
-101.275
11
139.002
21
-100.725
0
LINE
8
BLACK
6
CONTINUOUS
10
139.002
20
-100.725
11
140.502
21
-100.725
0
LINE
8
BLACK
6
CONTINUOUS
10
140.502
20
-100.725
11
140.502
21
-101.275
0
LINE
8
BLACK
6
CONTINUOUS
10
151.902
20
-101.275
11
150.402
21
-101.275
0
LINE
8
BLACK
6
CONTINUOUS
10
150.402
20
-101.275
11
150.402
21
-100.725
0
LINE
8
BLACK
6
CONTINUOUS
10
150.402
20
-100.725
11
151.902
21
-100.725
0
LINE
8
BLACK
6
CONTINUOUS
10
151.902
20
-100.725
11
151.902
21
-101.275
0
LINE
8
BLACK
6
CONTINUOUS
10
149.727
20
-100.05
11
149.177
21
-100.05
0
LINE
8
BLACK
6
CONTINUOUS
10
149.177
20
-100.05
11
149.177
21
-98.55
0
LINE
8
BLACK
6
CONTINUOUS
10
149.177
20
-98.55
11
149.727
21
-98.55
0
LINE
8
BLACK
6
CONTINUOUS
10
149.727
20
-98.55
11
149.727
21
-100.05
0
LINE
8
BLACK
6
CONTINUOUS
10
142.527
20
-100.05
11
141.977
21
-100.05
0
LINE
8
BLACK
6
CONTINUOUS
10
141.977
20
-100.05
11
141.977
21
-98.55
0
LINE
8
BLACK
6
CONTINUOUS
10
141.977
20
-98.55
11
142.527
21
-98.55
0
LINE
8
BLACK
6
CONTINUOUS
10
142.527
20
-98.55
11
142.527
21
-100.05
0
LINE
8
BLACK
6
CONTINUOUS
10
141.727
20
-100.05
11
141.177
21
-100.05
0
LINE
8
BLACK
6
CONTINUOUS
10
141.177
20
-100.05
11
141.177
21
-98.55
0
LINE
8
BLACK
6
CONTINUOUS
10
141.177
20
-98.55
11
141.727
21
-98.55
0
LINE
8
BLACK
6
CONTINUOUS
10
141.727
20
-98.55
11
141.727
21
-100.05
0
LINE
8
BLACK
6
CONTINUOUS
10
148.927
20
-100.05
11
148.377
21
-100.05
0
LINE
8
BLACK
6
CONTINUOUS
10
148.377
20
-100.05
11
148.377
21
-98.55
0
LINE
8
BLACK
6
CONTINUOUS
10
148.377
20
-98.55
11
148.927
21
-98.55
0
LINE
8
BLACK
6
CONTINUOUS
10
148.927
20
-98.55
11
148.927
21
-100.05
0
LINE
8
BLACK
6
CONTINUOUS
10
148.127
20
-100.05
11
147.577
21
-100.05
0
LINE
8
BLACK
6
CONTINUOUS
10
147.577
20
-100.05
11
147.577
21
-98.55
0
LINE
8
BLACK
6
CONTINUOUS
10
147.577
20
-98.55
11
148.127
21
-98.55
0
LINE
8
BLACK
6
CONTINUOUS
10
148.127
20
-98.55
11
148.127
21
-100.05
0
LINE
8
BLACK
6
CONTINUOUS
10
147.327
20
-100.05
11
146.777
21
-100.05
0
LINE
8
BLACK
6
CONTINUOUS
10
146.777
20
-100.05
11
146.777
21
-98.55
0
LINE
8
BLACK
6
CONTINUOUS
10
146.777
20
-98.55
11
147.327
21
-98.55
0
LINE
8
BLACK
6
CONTINUOUS
10
147.327
20
-98.55
11
147.327
21
-100.05
0
LINE
8
BLACK
6
CONTINUOUS
10
146.527
20
-100.05
11
145.977
21
-100.05
0
LINE
8
BLACK
6
CONTINUOUS
10
145.977
20
-100.05
11
145.977
21
-98.55
0
LINE
8
BLACK
6
CONTINUOUS
10
145.977
20
-98.55
11
146.527
21
-98.55
0
LINE
8
BLACK
6
CONTINUOUS
10
146.527
20
-98.55
11
146.527
21
-100.05
0
LINE
8
BLACK
6
CONTINUOUS
10
145.727
20
-100.05
11
145.177
21
-100.05
0
LINE
8
BLACK
6
CONTINUOUS
10
145.177
20
-100.05
11
145.177
21
-98.55
0
LINE
8
BLACK
6
CONTINUOUS
10
145.177
20
-98.55
11
145.727
21
-98.55
0
LINE
8
BLACK
6
CONTINUOUS
10
145.727
20
-98.55
11
145.727
21
-100.05
0
LINE
8
BLACK
6
CONTINUOUS
10
144.927
20
-100.05
11
144.377
21
-100.05
0
LINE
8
BLACK
6
CONTINUOUS
10
144.377
20
-100.05
11
144.377
21
-98.55
0
LINE
8
BLACK
6
CONTINUOUS
10
144.377
20
-98.55
11
144.927
21
-98.55
0
LINE
8
BLACK
6
CONTINUOUS
10
144.927
20
-98.55
11
144.927
21
-100.05
0
LINE
8
BLACK
6
CONTINUOUS
10
144.127
20
-100.05
11
143.577
21
-100.05
0
LINE
8
BLACK
6
CONTINUOUS
10
143.577
20
-100.05
11
143.577
21
-98.55
0
LINE
8
BLACK
6
CONTINUOUS
10
143.577
20
-98.55
11
144.127
21
-98.55
0
LINE
8
BLACK
6
CONTINUOUS
10
144.127
20
-98.55
11
144.127
21
-100.05
0
LINE
8
BLACK
6
CONTINUOUS
10
143.327
20
-100.05
11
142.777
21
-100.05
0
LINE
8
BLACK
6
CONTINUOUS
10
142.777
20
-100.05
11
142.777
21
-98.55
0
LINE
8
BLACK
6
CONTINUOUS
10
142.777
20
-98.55
11
143.327
21
-98.55
0
LINE
8
BLACK
6
CONTINUOUS
10
143.327
20
-98.55
11
143.327
21
-100.05
0
LINE
8
BLACK
6
CONTINUOUS
10
147.3
20
-95.9318
11
147.347
21
-95.946
0
LINE
8
BLACK
6
CONTINUOUS
10
147.347
20
-95.946
11
147.39
21
-95.9691
0
LINE
8
BLACK
6
CONTINUOUS
10
147.39
20
-95.9691
11
147.428
21
-96.0002
0
LINE
8
BLACK
6
CONTINUOUS
10
147.428
20
-96.0002
11
147.459
21
-96.0381
0
LINE
8
BLACK
6
CONTINUOUS
10
147.459
20
-96.0381
11
147.482
21
-96.0813
0
LINE
8
BLACK
6
CONTINUOUS
10
147.482
20
-96.0813
11
147.496
21
-96.1282
0
LINE
8
BLACK
6
CONTINUOUS
10
147.496
20
-96.1282
11
147.501
21
-96.177
0
LINE
8
BLACK
6
CONTINUOUS
10
147.501
20
-96.177
11
147.501
21
-96.802
0
LINE
8
BLACK
6
CONTINUOUS
10
147.501
20
-96.802
11
147.496
21
-96.8508
0
LINE
8
BLACK
6
CONTINUOUS
10
147.496
20
-96.8508
11
147.482
21
-96.8977
0
LINE
8
BLACK
6
CONTINUOUS
10
147.482
20
-96.8977
11
147.459
21
-96.9409
0
LINE
8
BLACK
6
CONTINUOUS
10
147.459
20
-96.9409
11
147.428
21
-96.9788
0
LINE
8
BLACK
6
CONTINUOUS
10
147.428
20
-96.9788
11
147.39
21
-97.0099
0
LINE
8
BLACK
6
CONTINUOUS
10
147.39
20
-97.0099
11
147.347
21
-97.033
0
LINE
8
BLACK
6
CONTINUOUS
10
147.347
20
-97.033
11
147.3
21
-97.0472
0
LINE
8
BLACK
6
CONTINUOUS
10
147.3
20
-97.0472
11
147.251
21
-97.052
0
LINE
8
BLACK
6
CONTINUOUS
10
147.251
20
-97.052
11
146.701
21
-97.052
0
LINE
8
BLACK
6
CONTINUOUS
10
146.701
20
-97.052
11
146.652
21
-97.0472
0
LINE
8
BLACK
6
CONTINUOUS
10
146.652
20
-97.0472
11
146.605
21
-97.033
0
LINE
8
BLACK
6
CONTINUOUS
10
146.605
20
-97.033
11
146.562
21
-97.0099
0
LINE
8
BLACK
6
CONTINUOUS
10
146.562
20
-97.0099
11
146.524
21
-96.9788
0
LINE
8
BLACK
6
CONTINUOUS
10
146.524
20
-96.9788
11
146.493
21
-96.9409
0
LINE
8
BLACK
6
CONTINUOUS
10
146.493
20
-96.9409
11
146.47
21
-96.8977
0
LINE
8
BLACK
6
CONTINUOUS
10
146.47
20
-96.8977
11
146.456
21
-96.8508
0
LINE
8
BLACK
6
CONTINUOUS
10
146.456
20
-96.8508
11
146.451
21
-96.802
0
LINE
8
BLACK
6
CONTINUOUS
10
146.451
20
-96.802
11
146.451
21
-96.177
0
LINE
8
BLACK
6
CONTINUOUS
10
146.451
20
-96.177
11
146.456
21
-96.1282
0
LINE
8
BLACK
6
CONTINUOUS
10
146.456
20
-96.1282
11
146.47
21
-96.0813
0
LINE
8
BLACK
6
CONTINUOUS
10
146.47
20
-96.0813
11
146.493
21
-96.0381
0
LINE
8
BLACK
6
CONTINUOUS
10
146.493
20
-96.0381
11
146.524
21
-96.0002
0
LINE
8
BLACK
6
CONTINUOUS
10
146.524
20
-96.0002
11
146.562
21
-95.9691
0
LINE
8
BLACK
6
CONTINUOUS
10
146.562
20
-95.9691
11
146.605
21
-95.946
0
LINE
8
BLACK
6
CONTINUOUS
10
146.605
20
-95.946
11
146.652
21
-95.9318
0
LINE
8
BLACK
6
CONTINUOUS
10
146.652
20
-95.9318
11
146.701
21
-95.927
0
LINE
8
BLACK
6
CONTINUOUS
10
146.701
20
-95.927
11
147.251
21
-95.927
0
LINE
8
BLACK
6
CONTINUOUS
10
147.251
20
-95.927
11
147.3
21
-95.9318
0
LINE
8
BLACK
6
CONTINUOUS
10
149.815
20
-95.9562
11
149.856
21
-95.9687
0
LINE
8
BLACK
6
CONTINUOUS
10
149.856
20
-95.9687
11
149.894
21
-95.9889
0
LINE
8
BLACK
6
CONTINUOUS
10
149.894
20
-95.9889
11
149.927
21
-96.0161
0
LINE
8
BLACK
6
CONTINUOUS
10
149.927
20
-96.0161
11
149.954
21
-96.0492
0
LINE
8
BLACK
6
CONTINUOUS
10
149.954
20
-96.0492
11
149.974
21
-96.087
0
LINE
8
BLACK
6
CONTINUOUS
10
149.974
20
-96.087
11
149.987
21
-96.1281
0
LINE
8
BLACK
6
CONTINUOUS
10
149.987
20
-96.1281
11
149.991
21
-96.1707
0
LINE
8
BLACK
6
CONTINUOUS
10
149.991
20
-96.1707
11
149.991
21
-96.6082
0
LINE
8
BLACK
6
CONTINUOUS
10
149.991
20
-96.6082
11
149.987
21
-96.6509
0
LINE
8
BLACK
6
CONTINUOUS
10
149.987
20
-96.6509
11
149.974
21
-96.692
0
LINE
8
BLACK
6
CONTINUOUS
10
149.974
20
-96.692
11
149.954
21
-96.7298
0
LINE
8
BLACK
6
CONTINUOUS
10
149.954
20
-96.7298
11
149.927
21
-96.7629
0
LINE
8
BLACK
6
CONTINUOUS
10
149.927
20
-96.7629
11
149.894
21
-96.7901
0
LINE
8
BLACK
6
CONTINUOUS
10
149.894
20
-96.7901
11
149.856
21
-96.8103
0
LINE
8
BLACK
6
CONTINUOUS
10
149.856
20
-96.8103
11
149.815
21
-96.8228
0
LINE
8
BLACK
6
CONTINUOUS
10
149.815
20
-96.8228
11
149.772
21
-96.827
0
LINE
8
BLACK
6
CONTINUOUS
10
149.772
20
-96.827
11
149.26
21
-96.827
0
LINE
8
BLACK
6
CONTINUOUS
10
149.26
20
-96.827
11
149.217
21
-96.8228
0
LINE
8
BLACK
6
CONTINUOUS
10
149.217
20
-96.8228
11
149.176
21
-96.8103
0
LINE
8
BLACK
6
CONTINUOUS
10
149.176
20
-96.8103
11
149.138
21
-96.7901
0
LINE
8
BLACK
6
CONTINUOUS
10
149.138
20
-96.7901
11
149.105
21
-96.7629
0
LINE
8
BLACK
6
CONTINUOUS
10
149.105
20
-96.7629
11
149.078
21
-96.7298
0
LINE
8
BLACK
6
CONTINUOUS
10
149.078
20
-96.7298
11
149.058
21
-96.692
0
LINE
8
BLACK
6
CONTINUOUS
10
149.058
20
-96.692
11
149.045
21
-96.6509
0
LINE
8
BLACK
6
CONTINUOUS
10
149.045
20
-96.6509
11
149.041
21
-96.6082
0
LINE
8
BLACK
6
CONTINUOUS
10
149.041
20
-96.6082
11
149.041
21
-96.1707
0
LINE
8
BLACK
6
CONTINUOUS
10
149.041
20
-96.1707
11
149.045
21
-96.1281
0
LINE
8
BLACK
6
CONTINUOUS
10
149.045
20
-96.1281
11
149.058
21
-96.087
0
LINE
8
BLACK
6
CONTINUOUS
10
149.058
20
-96.087
11
149.078
21
-96.0492
0
LINE
8
BLACK
6
CONTINUOUS
10
149.078
20
-96.0492
11
149.105
21
-96.0161
0
LINE
8
BLACK
6
CONTINUOUS
10
149.105
20
-96.0161
11
149.138
21
-95.9889
0
LINE
8
BLACK
6
CONTINUOUS
10
149.138
20
-95.9889
11
149.176
21
-95.9687
0
LINE
8
BLACK
6
CONTINUOUS
10
149.176
20
-95.9687
11
149.217
21
-95.9562
0
LINE
8
BLACK
6
CONTINUOUS
10
149.217
20
-95.9562
11
149.26
21
-95.952
0
LINE
8
BLACK
6
CONTINUOUS
10
149.26
20
-95.952
11
149.772
21
-95.952
0
LINE
8
BLACK
6
CONTINUOUS
10
149.772
20
-95.952
11
149.815
21
-95.9562
0
LINE
8
BLACK
6
CONTINUOUS
10
147.3
20
-94.1568
11
147.347
21
-94.171
0
LINE
8
BLACK
6
CONTINUOUS
10
147.347
20
-94.171
11
147.39
21
-94.1941
0
LINE
8
BLACK
6
CONTINUOUS
10
147.39
20
-94.1941
11
147.428
21
-94.2252
0
LINE
8
BLACK
6
CONTINUOUS
10
147.428
20
-94.2252
11
147.459
21
-94.2631
0
LINE
8
BLACK
6
CONTINUOUS
10
147.459
20
-94.2631
11
147.482
21
-94.3063
0
LINE
8
BLACK
6
CONTINUOUS
10
147.482
20
-94.3063
11
147.496
21
-94.3532
0
LINE
8
BLACK
6
CONTINUOUS
10
147.496
20
-94.3532
11
147.501
21
-94.402
0
LINE
8
BLACK
6
CONTINUOUS
10
147.501
20
-94.402
11
147.501
21
-95.027
0
LINE
8
BLACK
6
CONTINUOUS
10
147.501
20
-95.027
11
147.496
21
-95.0758
0
LINE
8
BLACK
6
CONTINUOUS
10
147.496
20
-95.0758
11
147.482
21
-95.1227
0
LINE
8
BLACK
6
CONTINUOUS
10
147.482
20
-95.1227
11
147.459
21
-95.1659
0
LINE
8
BLACK
6
CONTINUOUS
10
147.459
20
-95.1659
11
147.428
21
-95.2038
0
LINE
8
BLACK
6
CONTINUOUS
10
147.428
20
-95.2038
11
147.39
21
-95.2349
0
LINE
8
BLACK
6
CONTINUOUS
10
147.39
20
-95.2349
11
147.347
21
-95.258
0
LINE
8
BLACK
6
CONTINUOUS
10
147.347
20
-95.258
11
147.3
21
-95.2722
0
LINE
8
BLACK
6
CONTINUOUS
10
147.3
20
-95.2722
11
147.251
21
-95.277
0
LINE
8
BLACK
6
CONTINUOUS
10
147.251
20
-95.277
11
146.701
21
-95.277
0
LINE
8
BLACK
6
CONTINUOUS
10
146.701
20
-95.277
11
146.652
21
-95.2722
0
LINE
8
BLACK
6
CONTINUOUS
10
146.652
20
-95.2722
11
146.605
21
-95.258
0
LINE
8
BLACK
6
CONTINUOUS
10
146.605
20
-95.258
11
146.562
21
-95.2349
0
LINE
8
BLACK
6
CONTINUOUS
10
146.562
20
-95.2349
11
146.524
21
-95.2038
0
LINE
8
BLACK
6
CONTINUOUS
10
146.524
20
-95.2038
11
146.493
21
-95.1659
0
LINE
8
BLACK
6
CONTINUOUS
10
146.493
20
-95.1659
11
146.47
21
-95.1227
0
LINE
8
BLACK
6
CONTINUOUS
10
146.47
20
-95.1227
11
146.456
21
-95.0758
0
LINE
8
BLACK
6
CONTINUOUS
10
146.456
20
-95.0758
11
146.451
21
-95.027
0
LINE
8
BLACK
6
CONTINUOUS
10
146.451
20
-95.027
11
146.451
21
-94.402
0
LINE
8
BLACK
6
CONTINUOUS
10
146.451
20
-94.402
11
146.456
21
-94.3532
0
LINE
8
BLACK
6
CONTINUOUS
10
146.456
20
-94.3532
11
146.47
21
-94.3063
0
LINE
8
BLACK
6
CONTINUOUS
10
146.47
20
-94.3063
11
146.493
21
-94.2631
0
LINE
8
BLACK
6
CONTINUOUS
10
146.493
20
-94.2631
11
146.524
21
-94.2252
0
LINE
8
BLACK
6
CONTINUOUS
10
146.524
20
-94.2252
11
146.562
21
-94.1941
0
LINE
8
BLACK
6
CONTINUOUS
10
146.562
20
-94.1941
11
146.605
21
-94.171
0
LINE
8
BLACK
6
CONTINUOUS
10
146.605
20
-94.171
11
146.652
21
-94.1568
0
LINE
8
BLACK
6
CONTINUOUS
10
146.652
20
-94.1568
11
146.701
21
-94.152
0
LINE
8
BLACK
6
CONTINUOUS
10
146.701
20
-94.152
11
147.251
21
-94.152
0
LINE
8
BLACK
6
CONTINUOUS
10
147.251
20
-94.152
11
147.3
21
-94.1568
0
LINE
8
BLACK
6
CONTINUOUS
10
149.815
20
-94.3812
11
149.856
21
-94.3937
0
LINE
8
BLACK
6
CONTINUOUS
10
149.856
20
-94.3937
11
149.894
21
-94.4139
0
LINE
8
BLACK
6
CONTINUOUS
10
149.894
20
-94.4139
11
149.927
21
-94.4411
0
LINE
8
BLACK
6
CONTINUOUS
10
149.927
20
-94.4411
11
149.954
21
-94.4742
0
LINE
8
BLACK
6
CONTINUOUS
10
149.954
20
-94.4742
11
149.974
21
-94.512
0
LINE
8
BLACK
6
CONTINUOUS
10
149.974
20
-94.512
11
149.987
21
-94.5531
0
LINE
8
BLACK
6
CONTINUOUS
10
149.987
20
-94.5531
11
149.991
21
-94.5957
0
LINE
8
BLACK
6
CONTINUOUS
10
149.991
20
-94.5957
11
149.991
21
-95.0332
0
LINE
8
BLACK
6
CONTINUOUS
10
149.991
20
-95.0332
11
149.987
21
-95.0759
0
LINE
8
BLACK
6
CONTINUOUS
10
149.987
20
-95.0759
11
149.974
21
-95.117
0
LINE
8
BLACK
6
CONTINUOUS
10
149.974
20
-95.117
11
149.954
21
-95.1548
0
LINE
8
BLACK
6
CONTINUOUS
10
149.954
20
-95.1548
11
149.927
21
-95.1879
0
LINE
8
BLACK
6
CONTINUOUS
10
149.927
20
-95.1879
11
149.894
21
-95.2151
0
LINE
8
BLACK
6
CONTINUOUS
10
149.894
20
-95.2151
11
149.856
21
-95.2353
0
LINE
8
BLACK
6
CONTINUOUS
10
149.856
20
-95.2353
11
149.815
21
-95.2478
0
LINE
8
BLACK
6
CONTINUOUS
10
149.815
20
-95.2478
11
149.772
21
-95.252
0
LINE
8
BLACK
6
CONTINUOUS
10
149.772
20
-95.252
11
149.26
21
-95.252
0
LINE
8
BLACK
6
CONTINUOUS
10
149.26
20
-95.252
11
149.217
21
-95.2478
0
LINE
8
BLACK
6
CONTINUOUS
10
149.217
20
-95.2478
11
149.176
21
-95.2353
0
LINE
8
BLACK
6
CONTINUOUS
10
149.176
20
-95.2353
11
149.138
21
-95.2151
0
LINE
8
BLACK
6
CONTINUOUS
10
149.138
20
-95.2151
11
149.105
21
-95.1879
0
LINE
8
BLACK
6
CONTINUOUS
10
149.105
20
-95.1879
11
149.078
21
-95.1548
0
LINE
8
BLACK
6
CONTINUOUS
10
149.078
20
-95.1548
11
149.058
21
-95.117
0
LINE
8
BLACK
6
CONTINUOUS
10
149.058
20
-95.117
11
149.045
21
-95.0759
0
LINE
8
BLACK
6
CONTINUOUS
10
149.045
20
-95.0759
11
149.041
21
-95.0332
0
LINE
8
BLACK
6
CONTINUOUS
10
149.041
20
-95.0332
11
149.041
21
-94.5957
0
LINE
8
BLACK
6
CONTINUOUS
10
149.041
20
-94.5957
11
149.045
21
-94.5531
0
LINE
8
BLACK
6
CONTINUOUS
10
149.045
20
-94.5531
11
149.058
21
-94.512
0
LINE
8
BLACK
6
CONTINUOUS
10
149.058
20
-94.512
11
149.078
21
-94.4742
0
LINE
8
BLACK
6
CONTINUOUS
10
149.078
20
-94.4742
11
149.105
21
-94.4411
0
LINE
8
BLACK
6
CONTINUOUS
10
149.105
20
-94.4411
11
149.138
21
-94.4139
0
LINE
8
BLACK
6
CONTINUOUS
10
149.138
20
-94.4139
11
149.176
21
-94.3937
0
LINE
8
BLACK
6
CONTINUOUS
10
149.176
20
-94.3937
11
149.217
21
-94.3812
0
LINE
8
BLACK
6
CONTINUOUS
10
149.217
20
-94.3812
11
149.26
21
-94.377
0
LINE
8
BLACK
6
CONTINUOUS
10
149.26
20
-94.377
11
149.772
21
-94.377
0
LINE
8
BLACK
6
CONTINUOUS
10
149.772
20
-94.377
11
149.815
21
-94.3812
0
LINE
8
BLACK
6
CONTINUOUS
10
137.939
20
-93.7641
11
138.071
21
-93.8042
0
LINE
8
BLACK
6
CONTINUOUS
10
138.071
20
-93.8042
11
138.193
21
-93.8692
0
LINE
8
BLACK
6
CONTINUOUS
10
138.193
20
-93.8692
11
138.299
21
-93.9566
0
LINE
8
BLACK
6
CONTINUOUS
10
138.299
20
-93.9566
11
138.387
21
-94.0632
0
LINE
8
BLACK
6
CONTINUOUS
10
138.387
20
-94.0632
11
138.452
21
-94.1848
0
LINE
8
BLACK
6
CONTINUOUS
10
138.452
20
-94.1848
11
138.492
21
-94.3168
0
LINE
8
BLACK
6
CONTINUOUS
10
138.492
20
-94.3168
11
138.505
21
-94.454
0
LINE
8
BLACK
6
CONTINUOUS
10
138.505
20
-94.454
11
138.492
21
-94.5912
0
LINE
8
BLACK
6
CONTINUOUS
10
138.492
20
-94.5912
11
138.452
21
-94.7232
0
LINE
8
BLACK
6
CONTINUOUS
10
138.452
20
-94.7232
11
138.387
21
-94.8448
0
LINE
8
BLACK
6
CONTINUOUS
10
138.387
20
-94.8448
11
138.299
21
-94.9514
0
LINE
8
BLACK
6
CONTINUOUS
10
138.299
20
-94.9514
11
138.193
21
-95.0388
0
LINE
8
BLACK
6
CONTINUOUS
10
138.193
20
-95.0388
11
138.071
21
-95.1038
0
LINE
8
BLACK
6
CONTINUOUS
10
138.071
20
-95.1038
11
137.939
21
-95.1439
0
LINE
8
BLACK
6
CONTINUOUS
10
137.939
20
-95.1439
11
137.836
21
-95.154
0
LINE
8
BLACK
6
CONTINUOUS
10
137.836
20
-95.154
11
136.268
21
-95.154
0
LINE
8
BLACK
6
CONTINUOUS
10
136.268
20
-95.154
11
136.165
21
-95.1439
0
LINE
8
BLACK
6
CONTINUOUS
10
136.165
20
-95.1439
11
136.033
21
-95.1038
0
LINE
8
BLACK
6
CONTINUOUS
10
136.033
20
-95.1038
11
135.911
21
-95.0388
0
LINE
8
BLACK
6
CONTINUOUS
10
135.911
20
-95.0388
11
135.805
21
-94.9514
0
LINE
8
BLACK
6
CONTINUOUS
10
135.805
20
-94.9514
11
135.717
21
-94.8448
0
LINE
8
BLACK
6
CONTINUOUS
10
135.717
20
-94.8448
11
135.652
21
-94.7232
0
LINE
8
BLACK
6
CONTINUOUS
10
135.652
20
-94.7232
11
135.612
21
-94.5912
0
LINE
8
BLACK
6
CONTINUOUS
10
135.612
20
-94.5912
11
135.599
21
-94.454
0
LINE
8
BLACK
6
CONTINUOUS
10
135.599
20
-94.454
11
135.612
21
-94.3168
0
LINE
8
BLACK
6
CONTINUOUS
10
135.612
20
-94.3168
11
135.652
21
-94.1848
0
LINE
8
BLACK
6
CONTINUOUS
10
135.652
20
-94.1848
11
135.717
21
-94.0632
0
LINE
8
BLACK
6
CONTINUOUS
10
135.717
20
-94.0632
11
135.805
21
-93.9566
0
LINE
8
BLACK
6
CONTINUOUS
10
135.805
20
-93.9566
11
135.911
21
-93.8692
0
LINE
8
BLACK
6
CONTINUOUS
10
135.911
20
-93.8692
11
136.033
21
-93.8042
0
LINE
8
BLACK
6
CONTINUOUS
10
136.033
20
-93.8042
11
136.165
21
-93.7641
0
LINE
8
BLACK
6
CONTINUOUS
10
136.165
20
-93.7641
11
136.268
21
-93.754
0
LINE
8
BLACK
6
CONTINUOUS
10
136.268
20
-93.754
11
137.836
21
-93.754
0
LINE
8
BLACK
6
CONTINUOUS
10
137.836
20
-93.754
11
137.939
21
-93.7641
0
LINE
8
BLACK
6
CONTINUOUS
10
134.419
20
-93.7641
11
134.551
21
-93.8042
0
LINE
8
BLACK
6
CONTINUOUS
10
134.551
20
-93.8042
11
134.673
21
-93.8692
0
LINE
8
BLACK
6
CONTINUOUS
10
134.673
20
-93.8692
11
134.779
21
-93.9566
0
LINE
8
BLACK
6
CONTINUOUS
10
134.779
20
-93.9566
11
134.867
21
-94.0632
0
LINE
8
BLACK
6
CONTINUOUS
10
134.867
20
-94.0632
11
134.932
21
-94.1848
0
LINE
8
BLACK
6
CONTINUOUS
10
134.932
20
-94.1848
11
134.972
21
-94.3168
0
LINE
8
BLACK
6
CONTINUOUS
10
134.972
20
-94.3168
11
134.985
21
-94.454
0
LINE
8
BLACK
6
CONTINUOUS
10
134.985
20
-94.454
11
134.972
21
-94.5912
0
LINE
8
BLACK
6
CONTINUOUS
10
134.972
20
-94.5912
11
134.932
21
-94.7232
0
LINE
8
BLACK
6
CONTINUOUS
10
134.932
20
-94.7232
11
134.867
21
-94.8448
0
LINE
8
BLACK
6
CONTINUOUS
10
134.867
20
-94.8448
11
134.779
21
-94.9514
0
LINE
8
BLACK
6
CONTINUOUS
10
134.779
20
-94.9514
11
134.673
21
-95.0388
0
LINE
8
BLACK
6
CONTINUOUS
10
134.673
20
-95.0388
11
134.551
21
-95.1038
0
LINE
8
BLACK
6
CONTINUOUS
10
134.551
20
-95.1038
11
134.419
21
-95.1439
0
LINE
8
BLACK
6
CONTINUOUS
10
134.419
20
-95.1439
11
134.316
21
-95.154
0
LINE
8
BLACK
6
CONTINUOUS
10
134.316
20
-95.154
11
132.748
21
-95.154
0
LINE
8
BLACK
6
CONTINUOUS
10
132.748
20
-95.154
11
132.645
21
-95.1439
0
LINE
8
BLACK
6
CONTINUOUS
10
132.645
20
-95.1439
11
132.513
21
-95.1038
0
LINE
8
BLACK
6
CONTINUOUS
10
132.513
20
-95.1038
11
132.391
21
-95.0388
0
LINE
8
BLACK
6
CONTINUOUS
10
132.391
20
-95.0388
11
132.285
21
-94.9514
0
LINE
8
BLACK
6
CONTINUOUS
10
132.285
20
-94.9514
11
132.197
21
-94.8448
0
LINE
8
BLACK
6
CONTINUOUS
10
132.197
20
-94.8448
11
132.132
21
-94.7232
0
LINE
8
BLACK
6
CONTINUOUS
10
132.132
20
-94.7232
11
132.092
21
-94.5912
0
LINE
8
BLACK
6
CONTINUOUS
10
132.092
20
-94.5912
11
132.079
21
-94.454
0
LINE
8
BLACK
6
CONTINUOUS
10
132.079
20
-94.454
11
132.092
21
-94.3168
0
LINE
8
BLACK
6
CONTINUOUS
10
132.092
20
-94.3168
11
132.132
21
-94.1848
0
LINE
8
BLACK
6
CONTINUOUS
10
132.132
20
-94.1848
11
132.197
21
-94.0632
0
LINE
8
BLACK
6
CONTINUOUS
10
132.197
20
-94.0632
11
132.285
21
-93.9566
0
LINE
8
BLACK
6
CONTINUOUS
10
132.285
20
-93.9566
11
132.391
21
-93.8692
0
LINE
8
BLACK
6
CONTINUOUS
10
132.391
20
-93.8692
11
132.513
21
-93.8042
0
LINE
8
BLACK
6
CONTINUOUS
10
132.513
20
-93.8042
11
132.645
21
-93.7641
0
LINE
8
BLACK
6
CONTINUOUS
10
132.645
20
-93.7641
11
132.748
21
-93.754
0
LINE
8
BLACK
6
CONTINUOUS
10
132.748
20
-93.754
11
134.316
21
-93.754
0
LINE
8
BLACK
6
CONTINUOUS
10
134.316
20
-93.754
11
134.419
21
-93.7641
0
LINE
8
BLACK
6
CONTINUOUS
10
134.419
20
-91.8641
11
134.551
21
-91.9042
0
LINE
8
BLACK
6
CONTINUOUS
10
134.551
20
-91.9042
11
134.673
21
-91.9692
0
LINE
8
BLACK
6
CONTINUOUS
10
134.673
20
-91.9692
11
134.779
21
-92.0566
0
LINE
8
BLACK
6
CONTINUOUS
10
134.779
20
-92.0566
11
134.867
21
-92.1632
0
LINE
8
BLACK
6
CONTINUOUS
10
134.867
20
-92.1632
11
134.932
21
-92.2848
0
LINE
8
BLACK
6
CONTINUOUS
10
134.932
20
-92.2848
11
134.972
21
-92.4168
0
LINE
8
BLACK
6
CONTINUOUS
10
134.972
20
-92.4168
11
134.985
21
-92.554
0
LINE
8
BLACK
6
CONTINUOUS
10
134.985
20
-92.554
11
134.972
21
-92.6912
0
LINE
8
BLACK
6
CONTINUOUS
10
134.972
20
-92.6912
11
134.932
21
-92.8232
0
LINE
8
BLACK
6
CONTINUOUS
10
134.932
20
-92.8232
11
134.867
21
-92.9448
0
LINE
8
BLACK
6
CONTINUOUS
10
134.867
20
-92.9448
11
134.779
21
-93.0514
0
LINE
8
BLACK
6
CONTINUOUS
10
134.779
20
-93.0514
11
134.673
21
-93.1388
0
LINE
8
BLACK
6
CONTINUOUS
10
134.673
20
-93.1388
11
134.551
21
-93.2038
0
LINE
8
BLACK
6
CONTINUOUS
10
134.551
20
-93.2038
11
134.419
21
-93.2439
0
LINE
8
BLACK
6
CONTINUOUS
10
134.419
20
-93.2439
11
134.316
21
-93.254
0
LINE
8
BLACK
6
CONTINUOUS
10
134.316
20
-93.254
11
132.748
21
-93.254
0
LINE
8
BLACK
6
CONTINUOUS
10
132.748
20
-93.254
11
132.645
21
-93.2439
0
LINE
8
BLACK
6
CONTINUOUS
10
132.645
20
-93.2439
11
132.513
21
-93.2038
0
LINE
8
BLACK
6
CONTINUOUS
10
132.513
20
-93.2038
11
132.391
21
-93.1388
0
LINE
8
BLACK
6
CONTINUOUS
10
132.391
20
-93.1388
11
132.285
21
-93.0514
0
LINE
8
BLACK
6
CONTINUOUS
10
132.285
20
-93.0514
11
132.197
21
-92.9448
0
LINE
8
BLACK
6
CONTINUOUS
10
132.197
20
-92.9448
11
132.132
21
-92.8232
0
LINE
8
BLACK
6
CONTINUOUS
10
132.132
20
-92.8232
11
132.092
21
-92.6912
0
LINE
8
BLACK
6
CONTINUOUS
10
132.092
20
-92.6912
11
132.079
21
-92.554
0
LINE
8
BLACK
6
CONTINUOUS
10
132.079
20
-92.554
11
132.092
21
-92.4168
0
LINE
8
BLACK
6
CONTINUOUS
10
132.092
20
-92.4168
11
132.132
21
-92.2848
0
LINE
8
BLACK
6
CONTINUOUS
10
132.132
20
-92.2848
11
132.197
21
-92.1632
0
LINE
8
BLACK
6
CONTINUOUS
10
132.197
20
-92.1632
11
132.285
21
-92.0566
0
LINE
8
BLACK
6
CONTINUOUS
10
132.285
20
-92.0566
11
132.391
21
-91.9692
0
LINE
8
BLACK
6
CONTINUOUS
10
132.391
20
-91.9692
11
132.513
21
-91.9042
0
LINE
8
BLACK
6
CONTINUOUS
10
132.513
20
-91.9042
11
132.645
21
-91.8641
0
LINE
8
BLACK
6
CONTINUOUS
10
132.645
20
-91.8641
11
132.748
21
-91.854
0
LINE
8
BLACK
6
CONTINUOUS
10
132.748
20
-91.854
11
134.316
21
-91.854
0
LINE
8
BLACK
6
CONTINUOUS
10
134.316
20
-91.854
11
134.419
21
-91.8641
0
LINE
8
BLACK
6
CONTINUOUS
10
137.939
20
-91.8641
11
138.071
21
-91.9042
0
LINE
8
BLACK
6
CONTINUOUS
10
138.071
20
-91.9042
11
138.193
21
-91.9692
0
LINE
8
BLACK
6
CONTINUOUS
10
138.193
20
-91.9692
11
138.299
21
-92.0566
0
LINE
8
BLACK
6
CONTINUOUS
10
138.299
20
-92.0566
11
138.387
21
-92.1632
0
LINE
8
BLACK
6
CONTINUOUS
10
138.387
20
-92.1632
11
138.452
21
-92.2848
0
LINE
8
BLACK
6
CONTINUOUS
10
138.452
20
-92.2848
11
138.492
21
-92.4168
0
LINE
8
BLACK
6
CONTINUOUS
10
138.492
20
-92.4168
11
138.505
21
-92.554
0
LINE
8
BLACK
6
CONTINUOUS
10
138.505
20
-92.554
11
138.492
21
-92.6912
0
LINE
8
BLACK
6
CONTINUOUS
10
138.492
20
-92.6912
11
138.452
21
-92.8232
0
LINE
8
BLACK
6
CONTINUOUS
10
138.452
20
-92.8232
11
138.387
21
-92.9448
0
LINE
8
BLACK
6
CONTINUOUS
10
138.387
20
-92.9448
11
138.299
21
-93.0514
0
LINE
8
BLACK
6
CONTINUOUS
10
138.299
20
-93.0514
11
138.193
21
-93.1388
0
LINE
8
BLACK
6
CONTINUOUS
10
138.193
20
-93.1388
11
138.071
21
-93.2038
0
LINE
8
BLACK
6
CONTINUOUS
10
138.071
20
-93.2038
11
137.939
21
-93.2439
0
LINE
8
BLACK
6
CONTINUOUS
10
137.939
20
-93.2439
11
137.836
21
-93.254
0
LINE
8
BLACK
6
CONTINUOUS
10
137.836
20
-93.254
11
136.268
21
-93.254
0
LINE
8
BLACK
6
CONTINUOUS
10
136.268
20
-93.254
11
136.165
21
-93.2439
0
LINE
8
BLACK
6
CONTINUOUS
10
136.165
20
-93.2439
11
136.033
21
-93.2038
0
LINE
8
BLACK
6
CONTINUOUS
10
136.033
20
-93.2038
11
135.911
21
-93.1388
0
LINE
8
BLACK
6
CONTINUOUS
10
135.911
20
-93.1388
11
135.805
21
-93.0514
0
LINE
8
BLACK
6
CONTINUOUS
10
135.805
20
-93.0514
11
135.717
21
-92.9448
0
LINE
8
BLACK
6
CONTINUOUS
10
135.717
20
-92.9448
11
135.652
21
-92.8232
0
LINE
8
BLACK
6
CONTINUOUS
10
135.652
20
-92.8232
11
135.612
21
-92.6912
0
LINE
8
BLACK
6
CONTINUOUS
10
135.612
20
-92.6912
11
135.599
21
-92.554
0
LINE
8
BLACK
6
CONTINUOUS
10
135.599
20
-92.554
11
135.612
21
-92.4168
0
LINE
8
BLACK
6
CONTINUOUS
10
135.612
20
-92.4168
11
135.652
21
-92.2848
0
LINE
8
BLACK
6
CONTINUOUS
10
135.652
20
-92.2848
11
135.717
21
-92.1632
0
LINE
8
BLACK
6
CONTINUOUS
10
135.717
20
-92.1632
11
135.805
21
-92.0566
0
LINE
8
BLACK
6
CONTINUOUS
10
135.805
20
-92.0566
11
135.911
21
-91.9692
0
LINE
8
BLACK
6
CONTINUOUS
10
135.911
20
-91.9692
11
136.033
21
-91.9042
0
LINE
8
BLACK
6
CONTINUOUS
10
136.033
20
-91.9042
11
136.165
21
-91.8641
0
LINE
8
BLACK
6
CONTINUOUS
10
136.165
20
-91.8641
11
136.268
21
-91.854
0
LINE
8
BLACK
6
CONTINUOUS
10
136.268
20
-91.854
11
137.836
21
-91.854
0
LINE
8
BLACK
6
CONTINUOUS
10
137.836
20
-91.854
11
137.939
21
-91.8641
0
LINE
8
BLACK
6
CONTINUOUS
10
134.419
20
-89.9641
11
134.551
21
-90.0042
0
LINE
8
BLACK
6
CONTINUOUS
10
134.551
20
-90.0042
11
134.673
21
-90.0692
0
LINE
8
BLACK
6
CONTINUOUS
10
134.673
20
-90.0692
11
134.779
21
-90.1566
0
LINE
8
BLACK
6
CONTINUOUS
10
134.779
20
-90.1566
11
134.867
21
-90.2632
0
LINE
8
BLACK
6
CONTINUOUS
10
134.867
20
-90.2632
11
134.932
21
-90.3848
0
LINE
8
BLACK
6
CONTINUOUS
10
134.932
20
-90.3848
11
134.972
21
-90.5168
0
LINE
8
BLACK
6
CONTINUOUS
10
134.972
20
-90.5168
11
134.985
21
-90.654
0
LINE
8
BLACK
6
CONTINUOUS
10
134.985
20
-90.654
11
134.972
21
-90.7912
0
LINE
8
BLACK
6
CONTINUOUS
10
134.972
20
-90.7912
11
134.932
21
-90.9232
0
LINE
8
BLACK
6
CONTINUOUS
10
134.932
20
-90.9232
11
134.867
21
-91.0448
0
LINE
8
BLACK
6
CONTINUOUS
10
134.867
20
-91.0448
11
134.779
21
-91.1514
0
LINE
8
BLACK
6
CONTINUOUS
10
134.779
20
-91.1514
11
134.673
21
-91.2388
0
LINE
8
BLACK
6
CONTINUOUS
10
134.673
20
-91.2388
11
134.551
21
-91.3038
0
LINE
8
BLACK
6
CONTINUOUS
10
134.551
20
-91.3038
11
134.419
21
-91.3439
0
LINE
8
BLACK
6
CONTINUOUS
10
134.419
20
-91.3439
11
134.316
21
-91.354
0
LINE
8
BLACK
6
CONTINUOUS
10
134.316
20
-91.354
11
132.748
21
-91.354
0
LINE
8
BLACK
6
CONTINUOUS
10
132.748
20
-91.354
11
132.645
21
-91.3439
0
LINE
8
BLACK
6
CONTINUOUS
10
132.645
20
-91.3439
11
132.513
21
-91.3038
0
LINE
8
BLACK
6
CONTINUOUS
10
132.513
20
-91.3038
11
132.391
21
-91.2388
0
LINE
8
BLACK
6
CONTINUOUS
10
132.391
20
-91.2388
11
132.285
21
-91.1514
0
LINE
8
BLACK
6
CONTINUOUS
10
132.285
20
-91.1514
11
132.197
21
-91.0448
0
LINE
8
BLACK
6
CONTINUOUS
10
132.197
20
-91.0448
11
132.132
21
-90.9232
0
LINE
8
BLACK
6
CONTINUOUS
10
132.132
20
-90.9232
11
132.092
21
-90.7912
0
LINE
8
BLACK
6
CONTINUOUS
10
132.092
20
-90.7912
11
132.079
21
-90.654
0
LINE
8
BLACK
6
CONTINUOUS
10
132.079
20
-90.654
11
132.092
21
-90.5168
0
LINE
8
BLACK
6
CONTINUOUS
10
132.092
20
-90.5168
11
132.132
21
-90.3848
0
LINE
8
BLACK
6
CONTINUOUS
10
132.132
20
-90.3848
11
132.197
21
-90.2632
0
LINE
8
BLACK
6
CONTINUOUS
10
132.197
20
-90.2632
11
132.285
21
-90.1566
0
LINE
8
BLACK
6
CONTINUOUS
10
132.285
20
-90.1566
11
132.391
21
-90.0692
0
LINE
8
BLACK
6
CONTINUOUS
10
132.391
20
-90.0692
11
132.513
21
-90.0042
0
LINE
8
BLACK
6
CONTINUOUS
10
132.513
20
-90.0042
11
132.645
21
-89.9641
0
LINE
8
BLACK
6
CONTINUOUS
10
132.645
20
-89.9641
11
132.748
21
-89.954
0
LINE
8
BLACK
6
CONTINUOUS
10
132.748
20
-89.954
11
134.316
21
-89.954
0
LINE
8
BLACK
6
CONTINUOUS
10
134.316
20
-89.954
11
134.419
21
-89.9641
0
LINE
8
BLACK
6
CONTINUOUS
10
137.939
20
-89.9641
11
138.071
21
-90.0042
0
LINE
8
BLACK
6
CONTINUOUS
10
138.071
20
-90.0042
11
138.193
21
-90.0692
0
LINE
8
BLACK
6
CONTINUOUS
10
138.193
20
-90.0692
11
138.299
21
-90.1566
0
LINE
8
BLACK
6
CONTINUOUS
10
138.299
20
-90.1566
11
138.387
21
-90.2632
0
LINE
8
BLACK
6
CONTINUOUS
10
138.387
20
-90.2632
11
138.452
21
-90.3848
0
LINE
8
BLACK
6
CONTINUOUS
10
138.452
20
-90.3848
11
138.492
21
-90.5168
0
LINE
8
BLACK
6
CONTINUOUS
10
138.492
20
-90.5168
11
138.505
21
-90.654
0
LINE
8
BLACK
6
CONTINUOUS
10
138.505
20
-90.654
11
138.492
21
-90.7912
0
LINE
8
BLACK
6
CONTINUOUS
10
138.492
20
-90.7912
11
138.452
21
-90.9232
0
LINE
8
BLACK
6
CONTINUOUS
10
138.452
20
-90.9232
11
138.387
21
-91.0448
0
LINE
8
BLACK
6
CONTINUOUS
10
138.387
20
-91.0448
11
138.299
21
-91.1514
0
LINE
8
BLACK
6
CONTINUOUS
10
138.299
20
-91.1514
11
138.193
21
-91.2388
0
LINE
8
BLACK
6
CONTINUOUS
10
138.193
20
-91.2388
11
138.071
21
-91.3038
0
LINE
8
BLACK
6
CONTINUOUS
10
138.071
20
-91.3038
11
137.939
21
-91.3439
0
LINE
8
BLACK
6
CONTINUOUS
10
137.939
20
-91.3439
11
137.836
21
-91.354
0
LINE
8
BLACK
6
CONTINUOUS
10
137.836
20
-91.354
11
136.268
21
-91.354
0
LINE
8
BLACK
6
CONTINUOUS
10
136.268
20
-91.354
11
136.165
21
-91.3439
0
LINE
8
BLACK
6
CONTINUOUS
10
136.165
20
-91.3439
11
136.033
21
-91.3038
0
LINE
8
BLACK
6
CONTINUOUS
10
136.033
20
-91.3038
11
135.911
21
-91.2388
0
LINE
8
BLACK
6
CONTINUOUS
10
135.911
20
-91.2388
11
135.805
21
-91.1514
0
LINE
8
BLACK
6
CONTINUOUS
10
135.805
20
-91.1514
11
135.717
21
-91.0448
0
LINE
8
BLACK
6
CONTINUOUS
10
135.717
20
-91.0448
11
135.652
21
-90.9232
0
LINE
8
BLACK
6
CONTINUOUS
10
135.652
20
-90.9232
11
135.612
21
-90.7912
0
LINE
8
BLACK
6
CONTINUOUS
10
135.612
20
-90.7912
11
135.599
21
-90.654
0
LINE
8
BLACK
6
CONTINUOUS
10
135.599
20
-90.654
11
135.612
21
-90.5168
0
LINE
8
BLACK
6
CONTINUOUS
10
135.612
20
-90.5168
11
135.652
21
-90.3848
0
LINE
8
BLACK
6
CONTINUOUS
10
135.652
20
-90.3848
11
135.717
21
-90.2632
0
LINE
8
BLACK
6
CONTINUOUS
10
135.717
20
-90.2632
11
135.805
21
-90.1566
0
LINE
8
BLACK
6
CONTINUOUS
10
135.805
20
-90.1566
11
135.911
21
-90.0692
0
LINE
8
BLACK
6
CONTINUOUS
10
135.911
20
-90.0692
11
136.033
21
-90.0042
0
LINE
8
BLACK
6
CONTINUOUS
10
136.033
20
-90.0042
11
136.165
21
-89.9641
0
LINE
8
BLACK
6
CONTINUOUS
10
136.165
20
-89.9641
11
136.268
21
-89.954
0
LINE
8
BLACK
6
CONTINUOUS
10
136.268
20
-89.954
11
137.836
21
-89.954
0
LINE
8
BLACK
6
CONTINUOUS
10
137.836
20
-89.954
11
137.939
21
-89.9641
0
LINE
8
BLACK
6
CONTINUOUS
10
158.767
20
-89.4461
11
158.899
21
-89.4862
0
LINE
8
BLACK
6
CONTINUOUS
10
158.899
20
-89.4862
11
159.021
21
-89.5512
0
LINE
8
BLACK
6
CONTINUOUS
10
159.021
20
-89.5512
11
159.127
21
-89.6386
0
LINE
8
BLACK
6
CONTINUOUS
10
159.127
20
-89.6386
11
159.215
21
-89.7452
0
LINE
8
BLACK
6
CONTINUOUS
10
159.215
20
-89.7452
11
159.28
21
-89.8668
0
LINE
8
BLACK
6
CONTINUOUS
10
159.28
20
-89.8668
11
159.32
21
-89.9988
0
LINE
8
BLACK
6
CONTINUOUS
10
159.32
20
-89.9988
11
159.333
21
-90.136
0
LINE
8
BLACK
6
CONTINUOUS
10
159.333
20
-90.136
11
159.32
21
-90.2732
0
LINE
8
BLACK
6
CONTINUOUS
10
159.32
20
-90.2732
11
159.28
21
-90.4052
0
LINE
8
BLACK
6
CONTINUOUS
10
159.28
20
-90.4052
11
159.215
21
-90.5268
0
LINE
8
BLACK
6
CONTINUOUS
10
159.215
20
-90.5268
11
159.127
21
-90.6334
0
LINE
8
BLACK
6
CONTINUOUS
10
159.127
20
-90.6334
11
159.021
21
-90.7208
0
LINE
8
BLACK
6
CONTINUOUS
10
159.021
20
-90.7208
11
158.899
21
-90.7858
0
LINE
8
BLACK
6
CONTINUOUS
10
158.899
20
-90.7858
11
158.767
21
-90.8259
0
LINE
8
BLACK
6
CONTINUOUS
10
158.767
20
-90.8259
11
158.664
21
-90.836
0
LINE
8
BLACK
6
CONTINUOUS
10
158.664
20
-90.836
11
157.096
21
-90.836
0
LINE
8
BLACK
6
CONTINUOUS
10
157.096
20
-90.836
11
156.993
21
-90.8259
0
LINE
8
BLACK
6
CONTINUOUS
10
156.993
20
-90.8259
11
156.861
21
-90.7858
0
LINE
8
BLACK
6
CONTINUOUS
10
156.861
20
-90.7858
11
156.739
21
-90.7208
0
LINE
8
BLACK
6
CONTINUOUS
10
156.739
20
-90.7208
11
156.633
21
-90.6334
0
LINE
8
BLACK
6
CONTINUOUS
10
156.633
20
-90.6334
11
156.545
21
-90.5268
0
LINE
8
BLACK
6
CONTINUOUS
10
156.545
20
-90.5268
11
156.48
21
-90.4052
0
LINE
8
BLACK
6
CONTINUOUS
10
156.48
20
-90.4052
11
156.44
21
-90.2732
0
LINE
8
BLACK
6
CONTINUOUS
10
156.44
20
-90.2732
11
156.427
21
-90.136
0
LINE
8
BLACK
6
CONTINUOUS
10
156.427
20
-90.136
11
156.44
21
-89.9988
0
LINE
8
BLACK
6
CONTINUOUS
10
156.44
20
-89.9988
11
156.48
21
-89.8668
0
LINE
8
BLACK
6
CONTINUOUS
10
156.48
20
-89.8668
11
156.545
21
-89.7452
0
LINE
8
BLACK
6
CONTINUOUS
10
156.545
20
-89.7452
11
156.633
21
-89.6386
0
LINE
8
BLACK
6
CONTINUOUS
10
156.633
20
-89.6386
11
156.739
21
-89.5512
0
LINE
8
BLACK
6
CONTINUOUS
10
156.739
20
-89.5512
11
156.861
21
-89.4862
0
LINE
8
BLACK
6
CONTINUOUS
10
156.861
20
-89.4862
11
156.993
21
-89.4461
0
LINE
8
BLACK
6
CONTINUOUS
10
156.993
20
-89.4461
11
157.096
21
-89.436
0
LINE
8
BLACK
6
CONTINUOUS
10
157.096
20
-89.436
11
158.664
21
-89.436
0
LINE
8
BLACK
6
CONTINUOUS
10
158.664
20
-89.436
11
158.767
21
-89.4461
0
LINE
8
BLACK
6
CONTINUOUS
10
155.247
20
-89.4461
11
155.379
21
-89.4862
0
LINE
8
BLACK
6
CONTINUOUS
10
155.379
20
-89.4862
11
155.501
21
-89.5512
0
LINE
8
BLACK
6
CONTINUOUS
10
155.501
20
-89.5512
11
155.607
21
-89.6386
0
LINE
8
BLACK
6
CONTINUOUS
10
155.607
20
-89.6386
11
155.695
21
-89.7452
0
LINE
8
BLACK
6
CONTINUOUS
10
155.695
20
-89.7452
11
155.76
21
-89.8668
0
LINE
8
BLACK
6
CONTINUOUS
10
155.76
20
-89.8668
11
155.8
21
-89.9988
0
LINE
8
BLACK
6
CONTINUOUS
10
155.8
20
-89.9988
11
155.813
21
-90.136
0
LINE
8
BLACK
6
CONTINUOUS
10
155.813
20
-90.136
11
155.8
21
-90.2732
0
LINE
8
BLACK
6
CONTINUOUS
10
155.8
20
-90.2732
11
155.76
21
-90.4052
0
LINE
8
BLACK
6
CONTINUOUS
10
155.76
20
-90.4052
11
155.695
21
-90.5268
0
LINE
8
BLACK
6
CONTINUOUS
10
155.695
20
-90.5268
11
155.607
21
-90.6334
0
LINE
8
BLACK
6
CONTINUOUS
10
155.607
20
-90.6334
11
155.501
21
-90.7208
0
LINE
8
BLACK
6
CONTINUOUS
10
155.501
20
-90.7208
11
155.379
21
-90.7858
0
LINE
8
BLACK
6
CONTINUOUS
10
155.379
20
-90.7858
11
155.247
21
-90.8259
0
LINE
8
BLACK
6
CONTINUOUS
10
155.247
20
-90.8259
11
155.144
21
-90.836
0
LINE
8
BLACK
6
CONTINUOUS
10
155.144
20
-90.836
11
153.576
21
-90.836
0
LINE
8
BLACK
6
CONTINUOUS
10
153.576
20
-90.836
11
153.473
21
-90.8259
0
LINE
8
BLACK
6
CONTINUOUS
10
153.473
20
-90.8259
11
153.341
21
-90.7858
0
LINE
8
BLACK
6
CONTINUOUS
10
153.341
20
-90.7858
11
153.219
21
-90.7208
0
LINE
8
BLACK
6
CONTINUOUS
10
153.219
20
-90.7208
11
153.113
21
-90.6334
0
LINE
8
BLACK
6
CONTINUOUS
10
153.113
20
-90.6334
11
153.025
21
-90.5268
0
LINE
8
BLACK
6
CONTINUOUS
10
153.025
20
-90.5268
11
152.96
21
-90.4052
0
LINE
8
BLACK
6
CONTINUOUS
10
152.96
20
-90.4052
11
152.92
21
-90.2732
0
LINE
8
BLACK
6
CONTINUOUS
10
152.92
20
-90.2732
11
152.907
21
-90.136
0
LINE
8
BLACK
6
CONTINUOUS
10
152.907
20
-90.136
11
152.92
21
-89.9988
0
LINE
8
BLACK
6
CONTINUOUS
10
152.92
20
-89.9988
11
152.96
21
-89.8668
0
LINE
8
BLACK
6
CONTINUOUS
10
152.96
20
-89.8668
11
153.025
21
-89.7452
0
LINE
8
BLACK
6
CONTINUOUS
10
153.025
20
-89.7452
11
153.113
21
-89.6386
0
LINE
8
BLACK
6
CONTINUOUS
10
153.113
20
-89.6386
11
153.219
21
-89.5512
0
LINE
8
BLACK
6
CONTINUOUS
10
153.219
20
-89.5512
11
153.341
21
-89.4862
0
LINE
8
BLACK
6
CONTINUOUS
10
153.341
20
-89.4862
11
153.473
21
-89.4461
0
LINE
8
BLACK
6
CONTINUOUS
10
153.473
20
-89.4461
11
153.576
21
-89.436
0
LINE
8
BLACK
6
CONTINUOUS
10
153.576
20
-89.436
11
155.144
21
-89.436
0
LINE
8
BLACK
6
CONTINUOUS
10
155.144
20
-89.436
11
155.247
21
-89.4461
0
LINE
8
BLACK
6
CONTINUOUS
10
158.767
20
-87.5461
11
158.899
21
-87.5862
0
LINE
8
BLACK
6
CONTINUOUS
10
158.899
20
-87.5862
11
159.021
21
-87.6512
0
LINE
8
BLACK
6
CONTINUOUS
10
159.021
20
-87.6512
11
159.127
21
-87.7386
0
LINE
8
BLACK
6
CONTINUOUS
10
159.127
20
-87.7386
11
159.215
21
-87.8452
0
LINE
8
BLACK
6
CONTINUOUS
10
159.215
20
-87.8452
11
159.28
21
-87.9668
0
LINE
8
BLACK
6
CONTINUOUS
10
159.28
20
-87.9668
11
159.32
21
-88.0988
0
LINE
8
BLACK
6
CONTINUOUS
10
159.32
20
-88.0988
11
159.333
21
-88.236
0
LINE
8
BLACK
6
CONTINUOUS
10
159.333
20
-88.236
11
159.32
21
-88.3732
0
LINE
8
BLACK
6
CONTINUOUS
10
159.32
20
-88.3732
11
159.28
21
-88.5052
0
LINE
8
BLACK
6
CONTINUOUS
10
159.28
20
-88.5052
11
159.215
21
-88.6268
0
LINE
8
BLACK
6
CONTINUOUS
10
159.215
20
-88.6268
11
159.127
21
-88.7334
0
LINE
8
BLACK
6
CONTINUOUS
10
159.127
20
-88.7334
11
159.021
21
-88.8208
0
LINE
8
BLACK
6
CONTINUOUS
10
159.021
20
-88.8208
11
158.899
21
-88.8858
0
LINE
8
BLACK
6
CONTINUOUS
10
158.899
20
-88.8858
11
158.767
21
-88.9259
0
LINE
8
BLACK
6
CONTINUOUS
10
158.767
20
-88.9259
11
158.664
21
-88.936
0
LINE
8
BLACK
6
CONTINUOUS
10
158.664
20
-88.936
11
157.096
21
-88.936
0
LINE
8
BLACK
6
CONTINUOUS
10
157.096
20
-88.936
11
156.993
21
-88.9259
0
LINE
8
BLACK
6
CONTINUOUS
10
156.993
20
-88.9259
11
156.861
21
-88.8858
0
LINE
8
BLACK
6
CONTINUOUS
10
156.861
20
-88.8858
11
156.739
21
-88.8208
0
LINE
8
BLACK
6
CONTINUOUS
10
156.739
20
-88.8208
11
156.633
21
-88.7334
0
LINE
8
BLACK
6
CONTINUOUS
10
156.633
20
-88.7334
11
156.545
21
-88.6268
0
LINE
8
BLACK
6
CONTINUOUS
10
156.545
20
-88.6268
11
156.48
21
-88.5052
0
LINE
8
BLACK
6
CONTINUOUS
10
156.48
20
-88.5052
11
156.44
21
-88.3732
0
LINE
8
BLACK
6
CONTINUOUS
10
156.44
20
-88.3732
11
156.427
21
-88.236
0
LINE
8
BLACK
6
CONTINUOUS
10
156.427
20
-88.236
11
156.44
21
-88.0988
0
LINE
8
BLACK
6
CONTINUOUS
10
156.44
20
-88.0988
11
156.48
21
-87.9668
0
LINE
8
BLACK
6
CONTINUOUS
10
156.48
20
-87.9668
11
156.545
21
-87.8452
0
LINE
8
BLACK
6
CONTINUOUS
10
156.545
20
-87.8452
11
156.633
21
-87.7386
0
LINE
8
BLACK
6
CONTINUOUS
10
156.633
20
-87.7386
11
156.739
21
-87.6512
0
LINE
8
BLACK
6
CONTINUOUS
10
156.739
20
-87.6512
11
156.861
21
-87.5862
0
LINE
8
BLACK
6
CONTINUOUS
10
156.861
20
-87.5862
11
156.993
21
-87.5461
0
LINE
8
BLACK
6
CONTINUOUS
10
156.993
20
-87.5461
11
157.096
21
-87.536
0
LINE
8
BLACK
6
CONTINUOUS
10
157.096
20
-87.536
11
158.664
21
-87.536
0
LINE
8
BLACK
6
CONTINUOUS
10
158.664
20
-87.536
11
158.767
21
-87.5461
0
LINE
8
BLACK
6
CONTINUOUS
10
155.247
20
-87.5461
11
155.379
21
-87.5862
0
LINE
8
BLACK
6
CONTINUOUS
10
155.379
20
-87.5862
11
155.501
21
-87.6512
0
LINE
8
BLACK
6
CONTINUOUS
10
155.501
20
-87.6512
11
155.607
21
-87.7386
0
LINE
8
BLACK
6
CONTINUOUS
10
155.607
20
-87.7386
11
155.695
21
-87.8452
0
LINE
8
BLACK
6
CONTINUOUS
10
155.695
20
-87.8452
11
155.76
21
-87.9668
0
LINE
8
BLACK
6
CONTINUOUS
10
155.76
20
-87.9668
11
155.8
21
-88.0988
0
LINE
8
BLACK
6
CONTINUOUS
10
155.8
20
-88.0988
11
155.813
21
-88.236
0
LINE
8
BLACK
6
CONTINUOUS
10
155.813
20
-88.236
11
155.8
21
-88.3732
0
LINE
8
BLACK
6
CONTINUOUS
10
155.8
20
-88.3732
11
155.76
21
-88.5052
0
LINE
8
BLACK
6
CONTINUOUS
10
155.76
20
-88.5052
11
155.695
21
-88.6268
0
LINE
8
BLACK
6
CONTINUOUS
10
155.695
20
-88.6268
11
155.607
21
-88.7334
0
LINE
8
BLACK
6
CONTINUOUS
10
155.607
20
-88.7334
11
155.501
21
-88.8208
0
LINE
8
BLACK
6
CONTINUOUS
10
155.501
20
-88.8208
11
155.379
21
-88.8858
0
LINE
8
BLACK
6
CONTINUOUS
10
155.379
20
-88.8858
11
155.247
21
-88.9259
0
LINE
8
BLACK
6
CONTINUOUS
10
155.247
20
-88.9259
11
155.144
21
-88.936
0
LINE
8
BLACK
6
CONTINUOUS
10
155.144
20
-88.936
11
153.576
21
-88.936
0
LINE
8
BLACK
6
CONTINUOUS
10
153.576
20
-88.936
11
153.473
21
-88.9259
0
LINE
8
BLACK
6
CONTINUOUS
10
153.473
20
-88.9259
11
153.341
21
-88.8858
0
LINE
8
BLACK
6
CONTINUOUS
10
153.341
20
-88.8858
11
153.219
21
-88.8208
0
LINE
8
BLACK
6
CONTINUOUS
10
153.219
20
-88.8208
11
153.113
21
-88.7334
0
LINE
8
BLACK
6
CONTINUOUS
10
153.113
20
-88.7334
11
153.025
21
-88.6268
0
LINE
8
BLACK
6
CONTINUOUS
10
153.025
20
-88.6268
11
152.96
21
-88.5052
0
LINE
8
BLACK
6
CONTINUOUS
10
152.96
20
-88.5052
11
152.92
21
-88.3732
0
LINE
8
BLACK
6
CONTINUOUS
10
152.92
20
-88.3732
11
152.907
21
-88.236
0
LINE
8
BLACK
6
CONTINUOUS
10
152.907
20
-88.236
11
152.92
21
-88.0988
0
LINE
8
BLACK
6
CONTINUOUS
10
152.92
20
-88.0988
11
152.96
21
-87.9668
0
LINE
8
BLACK
6
CONTINUOUS
10
152.96
20
-87.9668
11
153.025
21
-87.8452
0
LINE
8
BLACK
6
CONTINUOUS
10
153.025
20
-87.8452
11
153.113
21
-87.7386
0
LINE
8
BLACK
6
CONTINUOUS
10
153.113
20
-87.7386
11
153.219
21
-87.6512
0
LINE
8
BLACK
6
CONTINUOUS
10
153.219
20
-87.6512
11
153.341
21
-87.5862
0
LINE
8
BLACK
6
CONTINUOUS
10
153.341
20
-87.5862
11
153.473
21
-87.5461
0
LINE
8
BLACK
6
CONTINUOUS
10
153.473
20
-87.5461
11
153.576
21
-87.536
0
LINE
8
BLACK
6
CONTINUOUS
10
153.576
20
-87.536
11
155.144
21
-87.536
0
LINE
8
BLACK
6
CONTINUOUS
10
155.144
20
-87.536
11
155.247
21
-87.5461
0
LINE
8
BLACK
6
CONTINUOUS
10
155.247
20
-85.6461
11
155.379
21
-85.6862
0
LINE
8
BLACK
6
CONTINUOUS
10
155.379
20
-85.6862
11
155.501
21
-85.7512
0
LINE
8
BLACK
6
CONTINUOUS
10
155.501
20
-85.7512
11
155.607
21
-85.8386
0
LINE
8
BLACK
6
CONTINUOUS
10
155.607
20
-85.8386
11
155.695
21
-85.9452
0
LINE
8
BLACK
6
CONTINUOUS
10
155.695
20
-85.9452
11
155.76
21
-86.0668
0
LINE
8
BLACK
6
CONTINUOUS
10
155.76
20
-86.0668
11
155.8
21
-86.1988
0
LINE
8
BLACK
6
CONTINUOUS
10
155.8
20
-86.1988
11
155.813
21
-86.336
0
LINE
8
BLACK
6
CONTINUOUS
10
155.813
20
-86.336
11
155.8
21
-86.4732
0
LINE
8
BLACK
6
CONTINUOUS
10
155.8
20
-86.4732
11
155.76
21
-86.6052
0
LINE
8
BLACK
6
CONTINUOUS
10
155.76
20
-86.6052
11
155.695
21
-86.7268
0
LINE
8
BLACK
6
CONTINUOUS
10
155.695
20
-86.7268
11
155.607
21
-86.8334
0
LINE
8
BLACK
6
CONTINUOUS
10
155.607
20
-86.8334
11
155.501
21
-86.9208
0
LINE
8
BLACK
6
CONTINUOUS
10
155.501
20
-86.9208
11
155.379
21
-86.9858
0
LINE
8
BLACK
6
CONTINUOUS
10
155.379
20
-86.9858
11
155.247
21
-87.0259
0
LINE
8
BLACK
6
CONTINUOUS
10
155.247
20
-87.0259
11
155.144
21
-87.036
0
LINE
8
BLACK
6
CONTINUOUS
10
155.144
20
-87.036
11
153.576
21
-87.036
0
LINE
8
BLACK
6
CONTINUOUS
10
153.576
20
-87.036
11
153.473
21
-87.0259
0
LINE
8
BLACK
6
CONTINUOUS
10
153.473
20
-87.0259
11
153.341
21
-86.9858
0
LINE
8
BLACK
6
CONTINUOUS
10
153.341
20
-86.9858
11
153.219
21
-86.9208
0
LINE
8
BLACK
6
CONTINUOUS
10
153.219
20
-86.9208
11
153.113
21
-86.8334
0
LINE
8
BLACK
6
CONTINUOUS
10
153.113
20
-86.8334
11
153.025
21
-86.7268
0
LINE
8
BLACK
6
CONTINUOUS
10
153.025
20
-86.7268
11
152.96
21
-86.6052
0
LINE
8
BLACK
6
CONTINUOUS
10
152.96
20
-86.6052
11
152.92
21
-86.4732
0
LINE
8
BLACK
6
CONTINUOUS
10
152.92
20
-86.4732
11
152.907
21
-86.336
0
LINE
8
BLACK
6
CONTINUOUS
10
152.907
20
-86.336
11
152.92
21
-86.1988
0
LINE
8
BLACK
6
CONTINUOUS
10
152.92
20
-86.1988
11
152.96
21
-86.0668
0
LINE
8
BLACK
6
CONTINUOUS
10
152.96
20
-86.0668
11
153.025
21
-85.9452
0
LINE
8
BLACK
6
CONTINUOUS
10
153.025
20
-85.9452
11
153.113
21
-85.8386
0
LINE
8
BLACK
6
CONTINUOUS
10
153.113
20
-85.8386
11
153.219
21
-85.7512
0
LINE
8
BLACK
6
CONTINUOUS
10
153.219
20
-85.7512
11
153.341
21
-85.6862
0
LINE
8
BLACK
6
CONTINUOUS
10
153.341
20
-85.6862
11
153.473
21
-85.6461
0
LINE
8
BLACK
6
CONTINUOUS
10
153.473
20
-85.6461
11
153.576
21
-85.636
0
LINE
8
BLACK
6
CONTINUOUS
10
153.576
20
-85.636
11
155.144
21
-85.636
0
LINE
8
BLACK
6
CONTINUOUS
10
155.144
20
-85.636
11
155.247
21
-85.6461
0
LINE
8
BLACK
6
CONTINUOUS
10
158.767
20
-85.6461
11
158.899
21
-85.6862
0
LINE
8
BLACK
6
CONTINUOUS
10
158.899
20
-85.6862
11
159.021
21
-85.7512
0
LINE
8
BLACK
6
CONTINUOUS
10
159.021
20
-85.7512
11
159.127
21
-85.8386
0
LINE
8
BLACK
6
CONTINUOUS
10
159.127
20
-85.8386
11
159.215
21
-85.9452
0
LINE
8
BLACK
6
CONTINUOUS
10
159.215
20
-85.9452
11
159.28
21
-86.0668
0
LINE
8
BLACK
6
CONTINUOUS
10
159.28
20
-86.0668
11
159.32
21
-86.1988
0
LINE
8
BLACK
6
CONTINUOUS
10
159.32
20
-86.1988
11
159.333
21
-86.336
0
LINE
8
BLACK
6
CONTINUOUS
10
159.333
20
-86.336
11
159.32
21
-86.4732
0
LINE
8
BLACK
6
CONTINUOUS
10
159.32
20
-86.4732
11
159.28
21
-86.6052
0
LINE
8
BLACK
6
CONTINUOUS
10
159.28
20
-86.6052
11
159.215
21
-86.7268
0
LINE
8
BLACK
6
CONTINUOUS
10
159.215
20
-86.7268
11
159.127
21
-86.8334
0
LINE
8
BLACK
6
CONTINUOUS
10
159.127
20
-86.8334
11
159.021
21
-86.9208
0
LINE
8
BLACK
6
CONTINUOUS
10
159.021
20
-86.9208
11
158.899
21
-86.9858
0
LINE
8
BLACK
6
CONTINUOUS
10
158.899
20
-86.9858
11
158.767
21
-87.0259
0
LINE
8
BLACK
6
CONTINUOUS
10
158.767
20
-87.0259
11
158.664
21
-87.036
0
LINE
8
BLACK
6
CONTINUOUS
10
158.664
20
-87.036
11
157.096
21
-87.036
0
LINE
8
BLACK
6
CONTINUOUS
10
157.096
20
-87.036
11
156.993
21
-87.0259
0
LINE
8
BLACK
6
CONTINUOUS
10
156.993
20
-87.0259
11
156.861
21
-86.9858
0
LINE
8
BLACK
6
CONTINUOUS
10
156.861
20
-86.9858
11
156.739
21
-86.9208
0
LINE
8
BLACK
6
CONTINUOUS
10
156.739
20
-86.9208
11
156.633
21
-86.8334
0
LINE
8
BLACK
6
CONTINUOUS
10
156.633
20
-86.8334
11
156.545
21
-86.7268
0
LINE
8
BLACK
6
CONTINUOUS
10
156.545
20
-86.7268
11
156.48
21
-86.6052
0
LINE
8
BLACK
6
CONTINUOUS
10
156.48
20
-86.6052
11
156.44
21
-86.4732
0
LINE
8
BLACK
6
CONTINUOUS
10
156.44
20
-86.4732
11
156.427
21
-86.336
0
LINE
8
BLACK
6
CONTINUOUS
10
156.427
20
-86.336
11
156.44
21
-86.1988
0
LINE
8
BLACK
6
CONTINUOUS
10
156.44
20
-86.1988
11
156.48
21
-86.0668
0
LINE
8
BLACK
6
CONTINUOUS
10
156.48
20
-86.0668
11
156.545
21
-85.9452
0
LINE
8
BLACK
6
CONTINUOUS
10
156.545
20
-85.9452
11
156.633
21
-85.8386
0
LINE
8
BLACK
6
CONTINUOUS
10
156.633
20
-85.8386
11
156.739
21
-85.7512
0
LINE
8
BLACK
6
CONTINUOUS
10
156.739
20
-85.7512
11
156.861
21
-85.6862
0
LINE
8
BLACK
6
CONTINUOUS
10
156.861
20
-85.6862
11
156.993
21
-85.6461
0
LINE
8
BLACK
6
CONTINUOUS
10
156.993
20
-85.6461
11
157.096
21
-85.636
0
LINE
8
BLACK
6
CONTINUOUS
10
157.096
20
-85.636
11
158.664
21
-85.636
0
LINE
8
BLACK
6
CONTINUOUS
10
158.664
20
-85.636
11
158.767
21
-85.6461
  0
ENDSEC
  0
EOF
