<?xml version="1.0" standalone="no"?>
 <!DOCTYPE svg PUBLIC "-//W3C//DTD SVG 1.1//EN" 
 "http://www.w3.org/Graphics/SVG/1.1/DTD/svg11.dtd"> 
<svg xmlns="http://www.w3.org/2000/svg" version="1.1" 
    width="29.7002cm" height="21.0007cm" viewBox="0 0 116930 82680 ">
<title>SVG Picture created as FrogINT_PCBProto_V1811062154-B_Mask.svg date 2019/04/02 16:53:05 </title>
  <desc>Picture generated by PCBNEW </desc>
<g style="fill:#000000; fill-opacity:1;stroke:#000000; stroke-opacity:1;
stroke-linecap:round; stroke-linejoin:round; "
 transform="translate(0 0) scale(1 1)">
</g>
<g style="fill:#000000; fill-opacity:0.0; 
stroke:#000000; stroke-width:-0.000393701; stroke-opacity:1; 
stroke-linecap:round; stroke-linejoin:round;">
</g>
<g style="fill:#000000; fill-opacity:1.0; 
stroke:#000000; stroke-width:0; stroke-opacity:1; 
stroke-linecap:round; stroke-linejoin:round;">
<path style="fill:#000000; fill-opacity:1.0; 
stroke:#000000; stroke-width:0; stroke-opacity:1; 
stroke-linecap:round; stroke-linejoin:round;fill-rule:evenodd;"
d="M 60475,50024
60534,50042
60534,50042
60589,50071
60589,50071
60589,50071
60637,50110
60669,50150
60676,50158
60705,50213
60705,50213
60723,50272
60728,50319
60728,50822
60723,50868
60705,50928
60705,50928
60676,50982
60637,51030
60589,51070
60534,51099
60534,51099
60475,51117
60413,51123
60351,51117
60292,51099
60292,51099
60237,51070
60189,51030
60150,50982
60120,50928
60120,50928
60102,50868
60098,50822
60098,50319
60102,50272
60120,50213
60150,50158
60189,50110
60237,50071
60237,50071
60237,50071
60292,50042
60292,50042
60351,50024
60413,50018
60475,50024
Z" /> 
<path style="fill:#000000; fill-opacity:1.0; 
stroke:#000000; stroke-width:0; stroke-opacity:1; 
stroke-linecap:round; stroke-linejoin:round;fill-rule:evenodd;"
d="M 56577,50024
56636,50042
56636,50042
56691,50071
56691,50071
56691,50071
56739,50110
56771,50150
56778,50158
56808,50213
56808,50213
56826,50272
56830,50319
56830,50822
56826,50868
56808,50928
56808,50928
56778,50982
56739,51030
56691,51070
56636,51099
56636,51099
56577,51117
56515,51123
56454,51117
56394,51099
56394,51099
56339,51070
56291,51030
56252,50982
56223,50928
56223,50928
56205,50868
56200,50822
56200,50319
56205,50272
56223,50213
56252,50158
56291,50110
56339,50071
56339,50071
56339,50071
56394,50042
56394,50042
56454,50024
56515,50018
56577,50024
Z" /> 
<path style="fill:#000000; fill-opacity:1.0; 
stroke:#000000; stroke-width:0; stroke-opacity:1; 
stroke-linecap:round; stroke-linejoin:round;fill-rule:evenodd;"
d="M 56577,48508
56636,48526
56636,48526
56691,48555
56691,48555
56691,48555
56739,48595
56771,48634
56778,48643
56808,48697
56808,48697
56826,48757
56830,48803
56830,49188
56826,49234
56808,49294
56808,49294
56778,49349
56739,49397
56691,49436
56636,49465
56636,49465
56577,49483
56515,49489
56454,49483
56394,49465
56394,49465
56339,49436
56291,49397
56252,49349
56223,49294
56223,49294
56205,49234
56200,49188
56200,48803
56205,48757
56223,48697
56252,48643
56291,48595
56339,48555
56339,48555
56339,48555
56394,48526
56394,48526
56454,48508
56515,48502
56577,48508
Z" /> 
<path style="fill:#000000; fill-opacity:1.0; 
stroke:#000000; stroke-width:0; stroke-opacity:1; 
stroke-linecap:round; stroke-linejoin:round;fill-rule:evenodd;"
d="M 60475,48508
60534,48526
60534,48526
60589,48555
60589,48555
60589,48555
60637,48595
60669,48634
60676,48643
60705,48697
60705,48697
60723,48757
60728,48803
60728,49188
60723,49234
60705,49294
60705,49294
60676,49349
60637,49397
60589,49436
60534,49465
60534,49465
60475,49483
60413,49489
60351,49483
60292,49465
60292,49465
60237,49436
60189,49397
60150,49349
60120,49294
60120,49294
60102,49234
60098,49188
60098,48803
60102,48757
60120,48697
60150,48643
60189,48595
60237,48555
60237,48555
60237,48555
60292,48526
60292,48526
60351,48508
60413,48502
60475,48508
Z" /> 
<path style="fill:#000000; fill-opacity:1.0; 
stroke:#000000; stroke-width:0; stroke-opacity:1; 
stroke-linecap:round; stroke-linejoin:round;fill-rule:evenodd;"
d="M 64881,46039
64984,46082
64984,46082
65078,46145
65157,46224
65204,46294
65220,46318
65263,46422
65285,46532
65285,46644
65263,46755
65220,46858
65220,46858
65157,46952
65078,47032
64984,47094
64984,47094
64984,47094
64881,47137
64770,47159
64658,47159
64548,47137
64444,47094
64444,47094
64444,47094
64350,47032
64271,46952
64208,46858
64208,46858
64165,46755
64143,46644
64143,46532
64165,46422
64208,46318
64224,46294
64271,46224
64350,46145
64444,46082
64444,46082
64548,46039
64658,46017
64770,46017
64881,46039
Z" /> 
<path style="fill:#000000; fill-opacity:1.0; 
stroke:#000000; stroke-width:0; stroke-opacity:1; 
stroke-linecap:round; stroke-linejoin:round;fill-rule:evenodd;"
d="M 51744,44373
51795,44394
51795,44394
51840,44424
51878,44462
51878,44462
51879,44464
51887,44470
51895,44474
51904,44477
51914,44478
51924,44477
51933,44474
51941,44470
51949,44464
51950,44462
51950,44462
51988,44424
52034,44394
52034,44394
52084,44373
52137,44362
52191,44362
52244,44373
52295,44394
52295,44394
52340,44424
52378,44462
52389,44478
52408,44508
52429,44558
52440,44611
52440,44665
52429,44718
52408,44769
52408,44769
52378,44814
52340,44852
52340,44852
52339,44853
52332,44861
52328,44869
52325,44878
52324,44888
52325,44898
52328,44907
52332,44915
52339,44923
52340,44924
52340,44924
52378,44962
52389,44978
52408,45008
52429,45058
52440,45111
52440,45165
52429,45218
52408,45269
52408,45269
52378,45314
52340,45352
52340,45352
52339,45353
52332,45361
52328,45369
52325,45378
52324,45388
52325,45398
52328,45407
52332,45415
52339,45423
52340,45424
52340,45424
52378,45462
52389,45478
52408,45508
52429,45558
52440,45611
52440,45665
52429,45718
52408,45769
52408,45769
52378,45814
52340,45852
52340,45852
52339,45853
52332,45861
52328,45869
52325,45878
52324,45888
52325,45898
52328,45907
52332,45915
52339,45923
52340,45924
52340,45924
52378,45962
52389,45978
52408,46008
52429,46058
52440,46111
52440,46165
52429,46218
52408,46269
52397,46286
52392,46294
52389,46304
52388,46313
52389,46323
52392,46332
52397,46341
52403,46348
52410,46354
52419,46359
52428,46362
52438,46362
52440,46362
52440,46914
51888,46914
51888,46912
51888,46902
51885,46893
51880,46884
51874,46877
51867,46871
51858,46866
51849,46863
51839,46862
51830,46863
51820,46866
51812,46871
51795,46882
51744,46903
51691,46914
51637,46914
51584,46903
51534,46882
51498,46858
51488,46852
51450,46814
51420,46769
51420,46769
51399,46718
51388,46665
51388,46611
51399,46558
51420,46508
51450,46462
51450,46462
51488,46424
51488,46424
51490,46423
51496,46415
51500,46407
51503,46398
51504,46388
51503,46378
51500,46369
51496,46361
51490,46353
51488,46352
51488,46352
51450,46314
51420,46269
51420,46269
51399,46218
51388,46165
51388,46111
51399,46058
51420,46008
51440,45978
51450,45962
51488,45924
51488,45924
51490,45923
51496,45915
51500,45907
51503,45898
51504,45888
51824,45888
51825,45898
51828,45907
51832,45915
51839,45923
51840,45924
51840,45924
51878,45962
51878,45962
51879,45964
51887,45970
51895,45974
51904,45977
51914,45978
51924,45977
51933,45974
51941,45970
51949,45964
51950,45962
51950,45962
51988,45924
51988,45924
51990,45923
51996,45915
52000,45907
52003,45898
52004,45888
52003,45878
52000,45869
51996,45861
51990,45853
51988,45852
51988,45852
51950,45814
51950,45814
51949,45813
51941,45807
51933,45802
51924,45799
51914,45798
51904,45799
51895,45802
51887,45807
51879,45813
51878,45814
51878,45814
51840,45852
51840,45852
51839,45853
51832,45861
51828,45869
51825,45878
51824,45888
51504,45888
51503,45878
51500,45869
51496,45861
51490,45853
51488,45852
51488,45852
51450,45814
51420,45769
51420,45769
51399,45718
51388,45665
51388,45611
51399,45558
51420,45508
51440,45478
51450,45462
51488,45424
51488,45424
51490,45423
51496,45415
51500,45407
51503,45398
51504,45388
51824,45388
51825,45398
51828,45407
51832,45415
51839,45423
51840,45424
51840,45424
51878,45462
51878,45462
51879,45464
51887,45470
51895,45474
51904,45477
51914,45478
51924,45477
51933,45474
51941,45470
51949,45464
51950,45462
51950,45462
51988,45424
51988,45424
51990,45423
51996,45415
52000,45407
52003,45398
52004,45388
52003,45378
52000,45369
51996,45361
51990,45353
51988,45352
51988,45352
51950,45314
51950,45314
51949,45313
51941,45307
51933,45302
51924,45299
51914,45298
51904,45299
51895,45302
51887,45307
51879,45313
51878,45314
51878,45314
51840,45352
51840,45352
51839,45353
51832,45361
51828,45369
51825,45378
51824,45388
51504,45388
51503,45378
51500,45369
51496,45361
51490,45353
51488,45352
51488,45352
51450,45314
51420,45269
51420,45269
51399,45218
51388,45165
51388,45111
51399,45058
51420,45008
51440,44978
51450,44962
51488,44924
51488,44924
51490,44923
51496,44915
51500,44907
51503,44898
51504,44888
51824,44888
51825,44898
51828,44907
51832,44915
51839,44923
51840,44924
51840,44924
51878,44962
51878,44962
51879,44964
51887,44970
51895,44974
51904,44977
51914,44978
51924,44977
51933,44974
51941,44970
51949,44964
51950,44962
51950,44962
51988,44924
51988,44924
51990,44923
51996,44915
52000,44907
52003,44898
52004,44888
52003,44878
52000,44869
51996,44861
51990,44853
51988,44852
51988,44852
51950,44814
51950,44814
51949,44813
51941,44807
51933,44802
51924,44799
51914,44798
51904,44799
51895,44802
51887,44807
51879,44813
51878,44814
51878,44814
51840,44852
51840,44852
51839,44853
51832,44861
51828,44869
51825,44878
51824,44888
51504,44888
51503,44878
51500,44869
51496,44861
51490,44853
51488,44852
51488,44852
51450,44814
51420,44769
51420,44769
51399,44718
51388,44665
51388,44611
51399,44558
51420,44508
51440,44478
51450,44462
51488,44424
51534,44394
51534,44394
51584,44373
51637,44362
51691,44362
51744,44373
Z" /> 
<path style="fill:#000000; fill-opacity:1.0; 
stroke:#000000; stroke-width:0; stroke-opacity:1; 
stroke-linecap:round; stroke-linejoin:round;fill-rule:evenodd;"
d="M 52515,41928
52545,41931
52623,41954
52623,41954
52695,41993
52758,42044
52809,42107
52848,42179
52848,42179
52871,42257
52879,42338
52871,42419
52848,42497
52848,42497
52809,42569
52758,42632
52695,42683
52623,42722
52623,42722
52545,42745
52515,42748
52484,42751
52444,42751
52413,42748
52383,42745
52305,42722
52305,42722
52233,42683
52170,42632
52119,42569
52080,42497
52080,42497
52057,42419
52049,42338
52057,42257
52080,42179
52080,42179
52119,42107
52170,42044
52233,41993
52305,41954
52305,41954
52383,41931
52413,41928
52444,41925
52484,41925
52515,41928
Z" /> 
<path style="fill:#000000; fill-opacity:1.0; 
stroke:#000000; stroke-width:0; stroke-opacity:1; 
stroke-linecap:round; stroke-linejoin:round;fill-rule:evenodd;"
d="M 52515,40928
52545,40931
52623,40954
52623,40954
52695,40993
52758,41044
52809,41107
52848,41179
52848,41179
52871,41257
52879,41338
52871,41419
52848,41497
52848,41497
52809,41569
52758,41632
52695,41683
52623,41722
52623,41722
52545,41745
52515,41748
52484,41751
52444,41751
52413,41748
52383,41745
52305,41722
52305,41722
52233,41683
52170,41632
52119,41569
52080,41497
52080,41497
52057,41419
52049,41338
52057,41257
52080,41179
52080,41179
52119,41107
52170,41044
52233,40993
52305,40954
52305,40954
52383,40931
52413,40928
52444,40925
52484,40925
52515,40928
Z" /> 
<path style="fill:#000000; fill-opacity:1.0; 
stroke:#000000; stroke-width:0; stroke-opacity:1; 
stroke-linecap:round; stroke-linejoin:round;fill-rule:evenodd;"
d="M 52877,40751
52051,40751
52051,39925
52877,39925
52877,40751
Z" /> 
</g> 
</svg>
