  0
SECTION
  2
HEADER
  9
$ANGBASE
  50
0.0
  9
$ANGDIR
  70
  1
  9
$MEASUREMENT
  70
0
  0
ENDSEC
  0
SECTION
  2
TABLES
  0
TABLE
  2
LTYPE
  70
4
  0
LTYPE
  5
40F
  2
CONTINUOUS
  70
0
  3
Solid line
  72
65
  73
0
  40
0.0
  0
LTYPE
  5
410
  2
DASHDOT
 70
0
  3
Dash Dot ____ _ ____ _
 72
65
 73
4
 40
2.0
 49
1.25
 49
-0.25
 49
0.25
 49
-0.25
  0
LTYPE
  5
411
  2
DASHED
 70
0
  3
Dashed __ __ __ __ __
 72
65
 73
2
 40
0.75
 49
0.5
 49
-0.25
  0
LTYPE
  5
43B
  2
DOTTED
 70
0
  3
Dotted .  .  .  .
 72
65
 73
2
 40
0.2
 49
0.0
 49
-0.2
  0
ENDTAB
  0
TABLE
  2
STYLE
  70
4
  0
STYLE
  2
KICAD
  70
0
  40
0
  41
1
  42
1
  50
0
  71
0
  3
isocp.shx
  0
STYLE
  2
KICADB
  70
0
  40
0
  41
1
  42
1
  50
0
  71
0
  3
isocp.shx
  0
STYLE
  2
KICADI
  70
0
  40
0
  41
1
  42
1
  50
15
  71
0
  3
isocp.shx
  0
STYLE
  2
KICADBI
  70
0
  40
0
  41
1
  42
1
  50
15
  71
0
  3
isocp.shx
  0
ENDTAB
  0
TABLE
  2
LAYER
  70
30
  0
LAYER
  2
BLACK
  70
0
  62
7
  6
CONTINUOUS
  0
LAYER
  2
GRAY1
  70
0
  62
251
  6
CONTINUOUS
  0
LAYER
  2
GRAY2
  70
0
  62
8
  6
CONTINUOUS
  0
LAYER
  2
GRAY3
  70
0
  62
9
  6
CONTINUOUS
  0
LAYER
  2
WHITE
  70
0
  62
7
  6
CONTINUOUS
  0
LAYER
  2
LYELLOW
  70
0
  62
51
  6
CONTINUOUS
  0
LAYER
  2
BLUE1
  70
0
  62
178
  6
CONTINUOUS
  0
LAYER
  2
GREEN1
  70
0
  62
98
  6
CONTINUOUS
  0
LAYER
  2
CYAN1
  70
0
  62
138
  6
CONTINUOUS
  0
LAYER
  2
RED1
  70
0
  62
18
  6
CONTINUOUS
  0
LAYER
  2
MAGENTA1
  70
0
  62
228
  6
CONTINUOUS
  0
LAYER
  2
BROWN1
  70
0
  62
58
  6
CONTINUOUS
  0
LAYER
  2
BLUE2
  70
0
  62
5
  6
CONTINUOUS
  0
LAYER
  2
GREEN2
  70
0
  62
3
  6
CONTINUOUS
  0
LAYER
  2
CYAN2
  70
0
  62
4
  6
CONTINUOUS
  0
LAYER
  2
RED2
  70
0
  62
1
  6
CONTINUOUS
  0
LAYER
  2
MAGENTA2
  70
0
  62
6
  6
CONTINUOUS
  0
LAYER
  2
BROWN2
  70
0
  62
54
  6
CONTINUOUS
  0
LAYER
  2
BLUE3
  70
0
  62
171
  6
CONTINUOUS
  0
LAYER
  2
GREEN3
  70
0
  62
91
  6
CONTINUOUS
  0
LAYER
  2
CYAN3
  70
0
  62
131
  6
CONTINUOUS
  0
LAYER
  2
RED3
  70
0
  62
11
  6
CONTINUOUS
  0
LAYER
  2
MAGENTA3
  70
0
  62
221
  6
CONTINUOUS
  0
LAYER
  2
YELLOW3
  70
0
  62
2
  6
CONTINUOUS
  0
LAYER
  2
BLUE4
  70
0
  62
5
  6
CONTINUOUS
  0
LAYER
  2
GREEN4
  70
0
  62
3
  6
CONTINUOUS
  0
LAYER
  2
CYAN4
  70
0
  62
4
  6
CONTINUOUS
  0
LAYER
  2
RED4
  70
0
  62
1
  6
CONTINUOUS
  0
LAYER
  2
MAGENTA4
  70
0
  62
6
  6
CONTINUOUS
  0
LAYER
  2
YELLOW4
  70
0
  62
2
  6
CONTINUOUS
  0
ENDTAB
  0
ENDSEC
  0
SECTION
  2
ENTITIES
0
LINE
8
BLACK
6
CONTINUOUS
10
153.607
20
-127.062
11
153.758
21
-127.107
0
LINE
8
BLACK
6
CONTINUOUS
10
153.758
20
-127.107
11
153.758
21
-127.107
0
LINE
8
BLACK
6
CONTINUOUS
10
153.758
20
-127.107
11
153.897
21
-127.182
0
LINE
8
BLACK
6
CONTINUOUS
10
153.897
20
-127.182
11
153.897
21
-127.182
0
LINE
8
BLACK
6
CONTINUOUS
10
153.897
20
-127.182
11
153.897
21
-127.182
0
LINE
8
BLACK
6
CONTINUOUS
10
153.897
20
-127.182
11
154.018
21
-127.282
0
LINE
8
BLACK
6
CONTINUOUS
10
154.018
20
-127.282
11
154.1
21
-127.382
0
LINE
8
BLACK
6
CONTINUOUS
10
154.1
20
-127.382
11
154.118
21
-127.403
0
LINE
8
BLACK
6
CONTINUOUS
10
154.118
20
-127.403
11
154.193
21
-127.542
0
LINE
8
BLACK
6
CONTINUOUS
10
154.193
20
-127.542
11
154.193
21
-127.542
0
LINE
8
BLACK
6
CONTINUOUS
10
154.193
20
-127.542
11
154.238
21
-127.693
0
LINE
8
BLACK
6
CONTINUOUS
10
154.238
20
-127.693
11
154.25
21
-127.811
0
LINE
8
BLACK
6
CONTINUOUS
10
154.25
20
-127.811
11
154.25
21
-129.089
0
LINE
8
BLACK
6
CONTINUOUS
10
154.25
20
-129.089
11
154.238
21
-129.207
0
LINE
8
BLACK
6
CONTINUOUS
10
154.238
20
-129.207
11
154.193
21
-129.358
0
LINE
8
BLACK
6
CONTINUOUS
10
154.193
20
-129.358
11
154.193
21
-129.358
0
LINE
8
BLACK
6
CONTINUOUS
10
154.193
20
-129.358
11
154.118
21
-129.497
0
LINE
8
BLACK
6
CONTINUOUS
10
154.118
20
-129.497
11
154.018
21
-129.618
0
LINE
8
BLACK
6
CONTINUOUS
10
154.018
20
-129.618
11
153.897
21
-129.718
0
LINE
8
BLACK
6
CONTINUOUS
10
153.897
20
-129.718
11
153.758
21
-129.793
0
LINE
8
BLACK
6
CONTINUOUS
10
153.758
20
-129.793
11
153.758
21
-129.793
0
LINE
8
BLACK
6
CONTINUOUS
10
153.758
20
-129.793
11
153.607
21
-129.838
0
LINE
8
BLACK
6
CONTINUOUS
10
153.607
20
-129.838
11
153.45
21
-129.854
0
LINE
8
BLACK
6
CONTINUOUS
10
153.45
20
-129.854
11
153.293
21
-129.838
0
LINE
8
BLACK
6
CONTINUOUS
10
153.293
20
-129.838
11
153.142
21
-129.793
0
LINE
8
BLACK
6
CONTINUOUS
10
153.142
20
-129.793
11
153.142
21
-129.793
0
LINE
8
BLACK
6
CONTINUOUS
10
153.142
20
-129.793
11
153.003
21
-129.718
0
LINE
8
BLACK
6
CONTINUOUS
10
153.003
20
-129.718
11
152.882
21
-129.618
0
LINE
8
BLACK
6
CONTINUOUS
10
152.882
20
-129.618
11
152.782
21
-129.497
0
LINE
8
BLACK
6
CONTINUOUS
10
152.782
20
-129.497
11
152.707
21
-129.358
0
LINE
8
BLACK
6
CONTINUOUS
10
152.707
20
-129.358
11
152.707
21
-129.358
0
LINE
8
BLACK
6
CONTINUOUS
10
152.707
20
-129.358
11
152.662
21
-129.207
0
LINE
8
BLACK
6
CONTINUOUS
10
152.662
20
-129.207
11
152.65
21
-129.089
0
LINE
8
BLACK
6
CONTINUOUS
10
152.65
20
-129.089
11
152.65
21
-127.811
0
LINE
8
BLACK
6
CONTINUOUS
10
152.65
20
-127.811
11
152.662
21
-127.693
0
LINE
8
BLACK
6
CONTINUOUS
10
152.662
20
-127.693
11
152.707
21
-127.542
0
LINE
8
BLACK
6
CONTINUOUS
10
152.707
20
-127.542
11
152.782
21
-127.403
0
LINE
8
BLACK
6
CONTINUOUS
10
152.782
20
-127.403
11
152.882
21
-127.282
0
LINE
8
BLACK
6
CONTINUOUS
10
152.882
20
-127.282
11
153.003
21
-127.182
0
LINE
8
BLACK
6
CONTINUOUS
10
153.003
20
-127.182
11
153.003
21
-127.182
0
LINE
8
BLACK
6
CONTINUOUS
10
153.003
20
-127.182
11
153.003
21
-127.182
0
LINE
8
BLACK
6
CONTINUOUS
10
153.003
20
-127.182
11
153.142
21
-127.107
0
LINE
8
BLACK
6
CONTINUOUS
10
153.142
20
-127.107
11
153.142
21
-127.107
0
LINE
8
BLACK
6
CONTINUOUS
10
153.142
20
-127.107
11
153.293
21
-127.062
0
LINE
8
BLACK
6
CONTINUOUS
10
153.293
20
-127.062
11
153.45
21
-127.046
0
LINE
8
BLACK
6
CONTINUOUS
10
153.45
20
-127.046
11
153.607
21
-127.062
0
LINE
8
BLACK
6
CONTINUOUS
10
143.707
20
-127.062
11
143.858
21
-127.107
0
LINE
8
BLACK
6
CONTINUOUS
10
143.858
20
-127.107
11
143.858
21
-127.107
0
LINE
8
BLACK
6
CONTINUOUS
10
143.858
20
-127.107
11
143.997
21
-127.182
0
LINE
8
BLACK
6
CONTINUOUS
10
143.997
20
-127.182
11
143.997
21
-127.182
0
LINE
8
BLACK
6
CONTINUOUS
10
143.997
20
-127.182
11
143.997
21
-127.182
0
LINE
8
BLACK
6
CONTINUOUS
10
143.997
20
-127.182
11
144.118
21
-127.282
0
LINE
8
BLACK
6
CONTINUOUS
10
144.118
20
-127.282
11
144.2
21
-127.382
0
LINE
8
BLACK
6
CONTINUOUS
10
144.2
20
-127.382
11
144.218
21
-127.403
0
LINE
8
BLACK
6
CONTINUOUS
10
144.218
20
-127.403
11
144.293
21
-127.542
0
LINE
8
BLACK
6
CONTINUOUS
10
144.293
20
-127.542
11
144.293
21
-127.542
0
LINE
8
BLACK
6
CONTINUOUS
10
144.293
20
-127.542
11
144.338
21
-127.693
0
LINE
8
BLACK
6
CONTINUOUS
10
144.338
20
-127.693
11
144.35
21
-127.811
0
LINE
8
BLACK
6
CONTINUOUS
10
144.35
20
-127.811
11
144.35
21
-129.089
0
LINE
8
BLACK
6
CONTINUOUS
10
144.35
20
-129.089
11
144.338
21
-129.207
0
LINE
8
BLACK
6
CONTINUOUS
10
144.338
20
-129.207
11
144.293
21
-129.358
0
LINE
8
BLACK
6
CONTINUOUS
10
144.293
20
-129.358
11
144.293
21
-129.358
0
LINE
8
BLACK
6
CONTINUOUS
10
144.293
20
-129.358
11
144.218
21
-129.497
0
LINE
8
BLACK
6
CONTINUOUS
10
144.218
20
-129.497
11
144.118
21
-129.618
0
LINE
8
BLACK
6
CONTINUOUS
10
144.118
20
-129.618
11
143.997
21
-129.718
0
LINE
8
BLACK
6
CONTINUOUS
10
143.997
20
-129.718
11
143.858
21
-129.793
0
LINE
8
BLACK
6
CONTINUOUS
10
143.858
20
-129.793
11
143.858
21
-129.793
0
LINE
8
BLACK
6
CONTINUOUS
10
143.858
20
-129.793
11
143.707
21
-129.838
0
LINE
8
BLACK
6
CONTINUOUS
10
143.707
20
-129.838
11
143.55
21
-129.854
0
LINE
8
BLACK
6
CONTINUOUS
10
143.55
20
-129.854
11
143.393
21
-129.838
0
LINE
8
BLACK
6
CONTINUOUS
10
143.393
20
-129.838
11
143.242
21
-129.793
0
LINE
8
BLACK
6
CONTINUOUS
10
143.242
20
-129.793
11
143.242
21
-129.793
0
LINE
8
BLACK
6
CONTINUOUS
10
143.242
20
-129.793
11
143.103
21
-129.718
0
LINE
8
BLACK
6
CONTINUOUS
10
143.103
20
-129.718
11
142.982
21
-129.618
0
LINE
8
BLACK
6
CONTINUOUS
10
142.982
20
-129.618
11
142.882
21
-129.497
0
LINE
8
BLACK
6
CONTINUOUS
10
142.882
20
-129.497
11
142.807
21
-129.358
0
LINE
8
BLACK
6
CONTINUOUS
10
142.807
20
-129.358
11
142.807
21
-129.358
0
LINE
8
BLACK
6
CONTINUOUS
10
142.807
20
-129.358
11
142.762
21
-129.207
0
LINE
8
BLACK
6
CONTINUOUS
10
142.762
20
-129.207
11
142.75
21
-129.089
0
LINE
8
BLACK
6
CONTINUOUS
10
142.75
20
-129.089
11
142.75
21
-127.811
0
LINE
8
BLACK
6
CONTINUOUS
10
142.75
20
-127.811
11
142.762
21
-127.693
0
LINE
8
BLACK
6
CONTINUOUS
10
142.762
20
-127.693
11
142.807
21
-127.542
0
LINE
8
BLACK
6
CONTINUOUS
10
142.807
20
-127.542
11
142.882
21
-127.403
0
LINE
8
BLACK
6
CONTINUOUS
10
142.882
20
-127.403
11
142.982
21
-127.282
0
LINE
8
BLACK
6
CONTINUOUS
10
142.982
20
-127.282
11
143.103
21
-127.182
0
LINE
8
BLACK
6
CONTINUOUS
10
143.103
20
-127.182
11
143.103
21
-127.182
0
LINE
8
BLACK
6
CONTINUOUS
10
143.103
20
-127.182
11
143.103
21
-127.182
0
LINE
8
BLACK
6
CONTINUOUS
10
143.103
20
-127.182
11
143.242
21
-127.107
0
LINE
8
BLACK
6
CONTINUOUS
10
143.242
20
-127.107
11
143.242
21
-127.107
0
LINE
8
BLACK
6
CONTINUOUS
10
143.242
20
-127.107
11
143.393
21
-127.062
0
LINE
8
BLACK
6
CONTINUOUS
10
143.393
20
-127.062
11
143.55
21
-127.046
0
LINE
8
BLACK
6
CONTINUOUS
10
143.55
20
-127.046
11
143.707
21
-127.062
0
LINE
8
BLACK
6
CONTINUOUS
10
143.707
20
-123.212
11
143.858
21
-123.257
0
LINE
8
BLACK
6
CONTINUOUS
10
143.858
20
-123.257
11
143.858
21
-123.257
0
LINE
8
BLACK
6
CONTINUOUS
10
143.858
20
-123.257
11
143.997
21
-123.332
0
LINE
8
BLACK
6
CONTINUOUS
10
143.997
20
-123.332
11
143.997
21
-123.332
0
LINE
8
BLACK
6
CONTINUOUS
10
143.997
20
-123.332
11
143.997
21
-123.332
0
LINE
8
BLACK
6
CONTINUOUS
10
143.997
20
-123.332
11
144.118
21
-123.432
0
LINE
8
BLACK
6
CONTINUOUS
10
144.118
20
-123.432
11
144.2
21
-123.532
0
LINE
8
BLACK
6
CONTINUOUS
10
144.2
20
-123.532
11
144.218
21
-123.553
0
LINE
8
BLACK
6
CONTINUOUS
10
144.218
20
-123.553
11
144.293
21
-123.692
0
LINE
8
BLACK
6
CONTINUOUS
10
144.293
20
-123.692
11
144.293
21
-123.692
0
LINE
8
BLACK
6
CONTINUOUS
10
144.293
20
-123.692
11
144.338
21
-123.843
0
LINE
8
BLACK
6
CONTINUOUS
10
144.338
20
-123.843
11
144.35
21
-123.961
0
LINE
8
BLACK
6
CONTINUOUS
10
144.35
20
-123.961
11
144.35
21
-124.939
0
LINE
8
BLACK
6
CONTINUOUS
10
144.35
20
-124.939
11
144.338
21
-125.057
0
LINE
8
BLACK
6
CONTINUOUS
10
144.338
20
-125.057
11
144.293
21
-125.208
0
LINE
8
BLACK
6
CONTINUOUS
10
144.293
20
-125.208
11
144.293
21
-125.208
0
LINE
8
BLACK
6
CONTINUOUS
10
144.293
20
-125.208
11
144.218
21
-125.347
0
LINE
8
BLACK
6
CONTINUOUS
10
144.218
20
-125.347
11
144.118
21
-125.468
0
LINE
8
BLACK
6
CONTINUOUS
10
144.118
20
-125.468
11
143.997
21
-125.568
0
LINE
8
BLACK
6
CONTINUOUS
10
143.997
20
-125.568
11
143.858
21
-125.643
0
LINE
8
BLACK
6
CONTINUOUS
10
143.858
20
-125.643
11
143.858
21
-125.643
0
LINE
8
BLACK
6
CONTINUOUS
10
143.858
20
-125.643
11
143.707
21
-125.688
0
LINE
8
BLACK
6
CONTINUOUS
10
143.707
20
-125.688
11
143.55
21
-125.704
0
LINE
8
BLACK
6
CONTINUOUS
10
143.55
20
-125.704
11
143.393
21
-125.688
0
LINE
8
BLACK
6
CONTINUOUS
10
143.393
20
-125.688
11
143.242
21
-125.643
0
LINE
8
BLACK
6
CONTINUOUS
10
143.242
20
-125.643
11
143.242
21
-125.643
0
LINE
8
BLACK
6
CONTINUOUS
10
143.242
20
-125.643
11
143.103
21
-125.568
0
LINE
8
BLACK
6
CONTINUOUS
10
143.103
20
-125.568
11
142.982
21
-125.468
0
LINE
8
BLACK
6
CONTINUOUS
10
142.982
20
-125.468
11
142.882
21
-125.347
0
LINE
8
BLACK
6
CONTINUOUS
10
142.882
20
-125.347
11
142.807
21
-125.208
0
LINE
8
BLACK
6
CONTINUOUS
10
142.807
20
-125.208
11
142.807
21
-125.208
0
LINE
8
BLACK
6
CONTINUOUS
10
142.807
20
-125.208
11
142.762
21
-125.057
0
LINE
8
BLACK
6
CONTINUOUS
10
142.762
20
-125.057
11
142.75
21
-124.939
0
LINE
8
BLACK
6
CONTINUOUS
10
142.75
20
-124.939
11
142.75
21
-123.961
0
LINE
8
BLACK
6
CONTINUOUS
10
142.75
20
-123.961
11
142.762
21
-123.843
0
LINE
8
BLACK
6
CONTINUOUS
10
142.762
20
-123.843
11
142.807
21
-123.692
0
LINE
8
BLACK
6
CONTINUOUS
10
142.807
20
-123.692
11
142.882
21
-123.553
0
LINE
8
BLACK
6
CONTINUOUS
10
142.882
20
-123.553
11
142.982
21
-123.432
0
LINE
8
BLACK
6
CONTINUOUS
10
142.982
20
-123.432
11
143.103
21
-123.332
0
LINE
8
BLACK
6
CONTINUOUS
10
143.103
20
-123.332
11
143.103
21
-123.332
0
LINE
8
BLACK
6
CONTINUOUS
10
143.103
20
-123.332
11
143.103
21
-123.332
0
LINE
8
BLACK
6
CONTINUOUS
10
143.103
20
-123.332
11
143.242
21
-123.257
0
LINE
8
BLACK
6
CONTINUOUS
10
143.242
20
-123.257
11
143.242
21
-123.257
0
LINE
8
BLACK
6
CONTINUOUS
10
143.242
20
-123.257
11
143.393
21
-123.212
0
LINE
8
BLACK
6
CONTINUOUS
10
143.393
20
-123.212
11
143.55
21
-123.196
0
LINE
8
BLACK
6
CONTINUOUS
10
143.55
20
-123.196
11
143.707
21
-123.212
0
LINE
8
BLACK
6
CONTINUOUS
10
153.607
20
-123.212
11
153.758
21
-123.257
0
LINE
8
BLACK
6
CONTINUOUS
10
153.758
20
-123.257
11
153.758
21
-123.257
0
LINE
8
BLACK
6
CONTINUOUS
10
153.758
20
-123.257
11
153.897
21
-123.332
0
LINE
8
BLACK
6
CONTINUOUS
10
153.897
20
-123.332
11
153.897
21
-123.332
0
LINE
8
BLACK
6
CONTINUOUS
10
153.897
20
-123.332
11
153.897
21
-123.332
0
LINE
8
BLACK
6
CONTINUOUS
10
153.897
20
-123.332
11
154.018
21
-123.432
0
LINE
8
BLACK
6
CONTINUOUS
10
154.018
20
-123.432
11
154.1
21
-123.532
0
LINE
8
BLACK
6
CONTINUOUS
10
154.1
20
-123.532
11
154.118
21
-123.553
0
LINE
8
BLACK
6
CONTINUOUS
10
154.118
20
-123.553
11
154.193
21
-123.692
0
LINE
8
BLACK
6
CONTINUOUS
10
154.193
20
-123.692
11
154.193
21
-123.692
0
LINE
8
BLACK
6
CONTINUOUS
10
154.193
20
-123.692
11
154.238
21
-123.843
0
LINE
8
BLACK
6
CONTINUOUS
10
154.238
20
-123.843
11
154.25
21
-123.961
0
LINE
8
BLACK
6
CONTINUOUS
10
154.25
20
-123.961
11
154.25
21
-124.939
0
LINE
8
BLACK
6
CONTINUOUS
10
154.25
20
-124.939
11
154.238
21
-125.057
0
LINE
8
BLACK
6
CONTINUOUS
10
154.238
20
-125.057
11
154.193
21
-125.208
0
LINE
8
BLACK
6
CONTINUOUS
10
154.193
20
-125.208
11
154.193
21
-125.208
0
LINE
8
BLACK
6
CONTINUOUS
10
154.193
20
-125.208
11
154.118
21
-125.347
0
LINE
8
BLACK
6
CONTINUOUS
10
154.118
20
-125.347
11
154.018
21
-125.468
0
LINE
8
BLACK
6
CONTINUOUS
10
154.018
20
-125.468
11
153.897
21
-125.568
0
LINE
8
BLACK
6
CONTINUOUS
10
153.897
20
-125.568
11
153.758
21
-125.643
0
LINE
8
BLACK
6
CONTINUOUS
10
153.758
20
-125.643
11
153.758
21
-125.643
0
LINE
8
BLACK
6
CONTINUOUS
10
153.758
20
-125.643
11
153.607
21
-125.688
0
LINE
8
BLACK
6
CONTINUOUS
10
153.607
20
-125.688
11
153.45
21
-125.704
0
LINE
8
BLACK
6
CONTINUOUS
10
153.45
20
-125.704
11
153.293
21
-125.688
0
LINE
8
BLACK
6
CONTINUOUS
10
153.293
20
-125.688
11
153.142
21
-125.643
0
LINE
8
BLACK
6
CONTINUOUS
10
153.142
20
-125.643
11
153.142
21
-125.643
0
LINE
8
BLACK
6
CONTINUOUS
10
153.142
20
-125.643
11
153.003
21
-125.568
0
LINE
8
BLACK
6
CONTINUOUS
10
153.003
20
-125.568
11
152.882
21
-125.468
0
LINE
8
BLACK
6
CONTINUOUS
10
152.882
20
-125.468
11
152.782
21
-125.347
0
LINE
8
BLACK
6
CONTINUOUS
10
152.782
20
-125.347
11
152.707
21
-125.208
0
LINE
8
BLACK
6
CONTINUOUS
10
152.707
20
-125.208
11
152.707
21
-125.208
0
LINE
8
BLACK
6
CONTINUOUS
10
152.707
20
-125.208
11
152.662
21
-125.057
0
LINE
8
BLACK
6
CONTINUOUS
10
152.662
20
-125.057
11
152.65
21
-124.939
0
LINE
8
BLACK
6
CONTINUOUS
10
152.65
20
-124.939
11
152.65
21
-123.961
0
LINE
8
BLACK
6
CONTINUOUS
10
152.65
20
-123.961
11
152.662
21
-123.843
0
LINE
8
BLACK
6
CONTINUOUS
10
152.662
20
-123.843
11
152.707
21
-123.692
0
LINE
8
BLACK
6
CONTINUOUS
10
152.707
20
-123.692
11
152.782
21
-123.553
0
LINE
8
BLACK
6
CONTINUOUS
10
152.782
20
-123.553
11
152.882
21
-123.432
0
LINE
8
BLACK
6
CONTINUOUS
10
152.882
20
-123.432
11
153.003
21
-123.332
0
LINE
8
BLACK
6
CONTINUOUS
10
153.003
20
-123.332
11
153.003
21
-123.332
0
LINE
8
BLACK
6
CONTINUOUS
10
153.003
20
-123.332
11
153.003
21
-123.332
0
LINE
8
BLACK
6
CONTINUOUS
10
153.003
20
-123.332
11
153.142
21
-123.257
0
LINE
8
BLACK
6
CONTINUOUS
10
153.142
20
-123.257
11
153.142
21
-123.257
0
LINE
8
BLACK
6
CONTINUOUS
10
153.142
20
-123.257
11
153.293
21
-123.212
0
LINE
8
BLACK
6
CONTINUOUS
10
153.293
20
-123.212
11
153.45
21
-123.196
0
LINE
8
BLACK
6
CONTINUOUS
10
153.45
20
-123.196
11
153.607
21
-123.212
0
LINE
8
BLACK
6
CONTINUOUS
10
164.798
20
-116.941
11
165.062
21
-117.05
0
LINE
8
BLACK
6
CONTINUOUS
10
165.062
20
-117.05
11
165.062
21
-117.05
0
LINE
8
BLACK
6
CONTINUOUS
10
165.062
20
-117.05
11
165.299
21
-117.209
0
LINE
8
BLACK
6
CONTINUOUS
10
165.299
20
-117.209
11
165.501
21
-117.411
0
LINE
8
BLACK
6
CONTINUOUS
10
165.501
20
-117.411
11
165.621
21
-117.589
0
LINE
8
BLACK
6
CONTINUOUS
10
165.621
20
-117.589
11
165.66
21
-117.648
0
LINE
8
BLACK
6
CONTINUOUS
10
165.66
20
-117.648
11
165.769
21
-117.912
0
LINE
8
BLACK
6
CONTINUOUS
10
165.769
20
-117.912
11
165.825
21
-118.192
0
LINE
8
BLACK
6
CONTINUOUS
10
165.825
20
-118.192
11
165.825
21
-118.478
0
LINE
8
BLACK
6
CONTINUOUS
10
165.825
20
-118.478
11
165.769
21
-118.758
0
LINE
8
BLACK
6
CONTINUOUS
10
165.769
20
-118.758
11
165.66
21
-119.022
0
LINE
8
BLACK
6
CONTINUOUS
10
165.66
20
-119.022
11
165.66
21
-119.022
0
LINE
8
BLACK
6
CONTINUOUS
10
165.66
20
-119.022
11
165.501
21
-119.259
0
LINE
8
BLACK
6
CONTINUOUS
10
165.501
20
-119.259
11
165.299
21
-119.461
0
LINE
8
BLACK
6
CONTINUOUS
10
165.299
20
-119.461
11
165.062
21
-119.62
0
LINE
8
BLACK
6
CONTINUOUS
10
165.062
20
-119.62
11
165.062
21
-119.62
0
LINE
8
BLACK
6
CONTINUOUS
10
165.062
20
-119.62
11
165.062
21
-119.62
0
LINE
8
BLACK
6
CONTINUOUS
10
165.062
20
-119.62
11
164.798
21
-119.729
0
LINE
8
BLACK
6
CONTINUOUS
10
164.798
20
-119.729
11
164.518
21
-119.785
0
LINE
8
BLACK
6
CONTINUOUS
10
164.518
20
-119.785
11
164.232
21
-119.785
0
LINE
8
BLACK
6
CONTINUOUS
10
164.232
20
-119.785
11
163.952
21
-119.729
0
LINE
8
BLACK
6
CONTINUOUS
10
163.952
20
-119.729
11
163.688
21
-119.62
0
LINE
8
BLACK
6
CONTINUOUS
10
163.688
20
-119.62
11
163.688
21
-119.62
0
LINE
8
BLACK
6
CONTINUOUS
10
163.688
20
-119.62
11
163.688
21
-119.62
0
LINE
8
BLACK
6
CONTINUOUS
10
163.688
20
-119.62
11
163.451
21
-119.461
0
LINE
8
BLACK
6
CONTINUOUS
10
163.451
20
-119.461
11
163.249
21
-119.259
0
LINE
8
BLACK
6
CONTINUOUS
10
163.249
20
-119.259
11
163.09
21
-119.022
0
LINE
8
BLACK
6
CONTINUOUS
10
163.09
20
-119.022
11
163.09
21
-119.022
0
LINE
8
BLACK
6
CONTINUOUS
10
163.09
20
-119.022
11
162.981
21
-118.758
0
LINE
8
BLACK
6
CONTINUOUS
10
162.981
20
-118.758
11
162.925
21
-118.478
0
LINE
8
BLACK
6
CONTINUOUS
10
162.925
20
-118.478
11
162.925
21
-118.192
0
LINE
8
BLACK
6
CONTINUOUS
10
162.925
20
-118.192
11
162.981
21
-117.912
0
LINE
8
BLACK
6
CONTINUOUS
10
162.981
20
-117.912
11
163.09
21
-117.648
0
LINE
8
BLACK
6
CONTINUOUS
10
163.09
20
-117.648
11
163.129
21
-117.589
0
LINE
8
BLACK
6
CONTINUOUS
10
163.129
20
-117.589
11
163.249
21
-117.411
0
LINE
8
BLACK
6
CONTINUOUS
10
163.249
20
-117.411
11
163.451
21
-117.209
0
LINE
8
BLACK
6
CONTINUOUS
10
163.451
20
-117.209
11
163.688
21
-117.05
0
LINE
8
BLACK
6
CONTINUOUS
10
163.688
20
-117.05
11
163.688
21
-117.05
0
LINE
8
BLACK
6
CONTINUOUS
10
163.688
20
-117.05
11
163.952
21
-116.941
0
LINE
8
BLACK
6
CONTINUOUS
10
163.952
20
-116.941
11
164.232
21
-116.885
0
LINE
8
BLACK
6
CONTINUOUS
10
164.232
20
-116.885
11
164.518
21
-116.885
0
LINE
8
BLACK
6
CONTINUOUS
10
164.518
20
-116.885
11
164.798
21
-116.941
0
LINE
8
BLACK
6
CONTINUOUS
10
131.432
20
-112.709
11
131.56
21
-112.762
0
LINE
8
BLACK
6
CONTINUOUS
10
131.56
20
-112.762
11
131.56
21
-112.762
0
LINE
8
BLACK
6
CONTINUOUS
10
131.56
20
-112.762
11
131.674
21
-112.838
0
LINE
8
BLACK
6
CONTINUOUS
10
131.674
20
-112.838
11
131.772
21
-112.936
0
LINE
8
BLACK
6
CONTINUOUS
10
131.772
20
-112.936
11
131.772
21
-112.936
0
LINE
8
BLACK
6
CONTINUOUS
10
131.772
20
-112.936
11
131.775
21
-112.939
0
LINE
8
BLACK
6
CONTINUOUS
10
131.775
20
-112.939
11
131.794
21
-112.954
0
LINE
8
BLACK
6
CONTINUOUS
10
131.794
20
-112.954
11
131.815
21
-112.966
0
LINE
8
BLACK
6
CONTINUOUS
10
131.815
20
-112.966
11
131.839
21
-112.973
0
LINE
8
BLACK
6
CONTINUOUS
10
131.839
20
-112.973
11
131.863
21
-112.975
0
LINE
8
BLACK
6
CONTINUOUS
10
131.863
20
-112.975
11
131.887
21
-112.973
0
LINE
8
BLACK
6
CONTINUOUS
10
131.887
20
-112.973
11
131.911
21
-112.966
0
LINE
8
BLACK
6
CONTINUOUS
10
131.911
20
-112.966
11
131.932
21
-112.954
0
LINE
8
BLACK
6
CONTINUOUS
10
131.932
20
-112.954
11
131.951
21
-112.939
0
LINE
8
BLACK
6
CONTINUOUS
10
131.951
20
-112.939
11
131.954
21
-112.936
0
LINE
8
BLACK
6
CONTINUOUS
10
131.954
20
-112.936
11
131.954
21
-112.936
0
LINE
8
BLACK
6
CONTINUOUS
10
131.954
20
-112.936
11
132.052
21
-112.838
0
LINE
8
BLACK
6
CONTINUOUS
10
132.052
20
-112.838
11
132.166
21
-112.762
0
LINE
8
BLACK
6
CONTINUOUS
10
132.166
20
-112.762
11
132.166
21
-112.762
0
LINE
8
BLACK
6
CONTINUOUS
10
132.166
20
-112.762
11
132.294
21
-112.709
0
LINE
8
BLACK
6
CONTINUOUS
10
132.294
20
-112.709
11
132.429
21
-112.682
0
LINE
8
BLACK
6
CONTINUOUS
10
132.429
20
-112.682
11
132.567
21
-112.682
0
LINE
8
BLACK
6
CONTINUOUS
10
132.567
20
-112.682
11
132.702
21
-112.709
0
LINE
8
BLACK
6
CONTINUOUS
10
132.702
20
-112.709
11
132.83
21
-112.762
0
LINE
8
BLACK
6
CONTINUOUS
10
132.83
20
-112.762
11
132.83
21
-112.762
0
LINE
8
BLACK
6
CONTINUOUS
10
132.83
20
-112.762
11
132.944
21
-112.838
0
LINE
8
BLACK
6
CONTINUOUS
10
132.944
20
-112.838
11
133.042
21
-112.936
0
LINE
8
BLACK
6
CONTINUOUS
10
133.042
20
-112.936
11
133.068
21
-112.975
0
LINE
8
BLACK
6
CONTINUOUS
10
133.068
20
-112.975
11
133.118
21
-113.05
0
LINE
8
BLACK
6
CONTINUOUS
10
133.118
20
-113.05
11
133.171
21
-113.178
0
LINE
8
BLACK
6
CONTINUOUS
10
133.171
20
-113.178
11
133.198
21
-113.313
0
LINE
8
BLACK
6
CONTINUOUS
10
133.198
20
-113.313
11
133.198
21
-113.451
0
LINE
8
BLACK
6
CONTINUOUS
10
133.198
20
-113.451
11
133.171
21
-113.586
0
LINE
8
BLACK
6
CONTINUOUS
10
133.171
20
-113.586
11
133.118
21
-113.714
0
LINE
8
BLACK
6
CONTINUOUS
10
133.118
20
-113.714
11
133.118
21
-113.714
0
LINE
8
BLACK
6
CONTINUOUS
10
133.118
20
-113.714
11
133.042
21
-113.828
0
LINE
8
BLACK
6
CONTINUOUS
10
133.042
20
-113.828
11
132.944
21
-113.926
0
LINE
8
BLACK
6
CONTINUOUS
10
132.944
20
-113.926
11
132.944
21
-113.926
0
LINE
8
BLACK
6
CONTINUOUS
10
132.944
20
-113.926
11
132.941
21
-113.929
0
LINE
8
BLACK
6
CONTINUOUS
10
132.941
20
-113.929
11
132.926
21
-113.948
0
LINE
8
BLACK
6
CONTINUOUS
10
132.926
20
-113.948
11
132.914
21
-113.969
0
LINE
8
BLACK
6
CONTINUOUS
10
132.914
20
-113.969
11
132.907
21
-113.993
0
LINE
8
BLACK
6
CONTINUOUS
10
132.907
20
-113.993
11
132.905
21
-114.017
0
LINE
8
BLACK
6
CONTINUOUS
10
132.905
20
-114.017
11
132.907
21
-114.041
0
LINE
8
BLACK
6
CONTINUOUS
10
132.907
20
-114.041
11
132.914
21
-114.065
0
LINE
8
BLACK
6
CONTINUOUS
10
132.914
20
-114.065
11
132.926
21
-114.086
0
LINE
8
BLACK
6
CONTINUOUS
10
132.926
20
-114.086
11
132.941
21
-114.105
0
LINE
8
BLACK
6
CONTINUOUS
10
132.941
20
-114.105
11
132.944
21
-114.108
0
LINE
8
BLACK
6
CONTINUOUS
10
132.944
20
-114.108
11
132.944
21
-114.108
0
LINE
8
BLACK
6
CONTINUOUS
10
132.944
20
-114.108
11
133.042
21
-114.206
0
LINE
8
BLACK
6
CONTINUOUS
10
133.042
20
-114.206
11
133.068
21
-114.245
0
LINE
8
BLACK
6
CONTINUOUS
10
133.068
20
-114.245
11
133.118
21
-114.32
0
LINE
8
BLACK
6
CONTINUOUS
10
133.118
20
-114.32
11
133.171
21
-114.448
0
LINE
8
BLACK
6
CONTINUOUS
10
133.171
20
-114.448
11
133.198
21
-114.583
0
LINE
8
BLACK
6
CONTINUOUS
10
133.198
20
-114.583
11
133.198
21
-114.721
0
LINE
8
BLACK
6
CONTINUOUS
10
133.198
20
-114.721
11
133.171
21
-114.856
0
LINE
8
BLACK
6
CONTINUOUS
10
133.171
20
-114.856
11
133.118
21
-114.984
0
LINE
8
BLACK
6
CONTINUOUS
10
133.118
20
-114.984
11
133.118
21
-114.984
0
LINE
8
BLACK
6
CONTINUOUS
10
133.118
20
-114.984
11
133.042
21
-115.098
0
LINE
8
BLACK
6
CONTINUOUS
10
133.042
20
-115.098
11
132.944
21
-115.196
0
LINE
8
BLACK
6
CONTINUOUS
10
132.944
20
-115.196
11
132.944
21
-115.196
0
LINE
8
BLACK
6
CONTINUOUS
10
132.944
20
-115.196
11
132.941
21
-115.199
0
LINE
8
BLACK
6
CONTINUOUS
10
132.941
20
-115.199
11
132.926
21
-115.218
0
LINE
8
BLACK
6
CONTINUOUS
10
132.926
20
-115.218
11
132.914
21
-115.239
0
LINE
8
BLACK
6
CONTINUOUS
10
132.914
20
-115.239
11
132.907
21
-115.263
0
LINE
8
BLACK
6
CONTINUOUS
10
132.907
20
-115.263
11
132.905
21
-115.287
0
LINE
8
BLACK
6
CONTINUOUS
10
132.905
20
-115.287
11
132.907
21
-115.311
0
LINE
8
BLACK
6
CONTINUOUS
10
132.907
20
-115.311
11
132.914
21
-115.335
0
LINE
8
BLACK
6
CONTINUOUS
10
132.914
20
-115.335
11
132.926
21
-115.356
0
LINE
8
BLACK
6
CONTINUOUS
10
132.926
20
-115.356
11
132.941
21
-115.375
0
LINE
8
BLACK
6
CONTINUOUS
10
132.941
20
-115.375
11
132.944
21
-115.378
0
LINE
8
BLACK
6
CONTINUOUS
10
132.944
20
-115.378
11
132.944
21
-115.378
0
LINE
8
BLACK
6
CONTINUOUS
10
132.944
20
-115.378
11
133.042
21
-115.476
0
LINE
8
BLACK
6
CONTINUOUS
10
133.042
20
-115.476
11
133.068
21
-115.515
0
LINE
8
BLACK
6
CONTINUOUS
10
133.068
20
-115.515
11
133.118
21
-115.59
0
LINE
8
BLACK
6
CONTINUOUS
10
133.118
20
-115.59
11
133.171
21
-115.718
0
LINE
8
BLACK
6
CONTINUOUS
10
133.171
20
-115.718
11
133.198
21
-115.853
0
LINE
8
BLACK
6
CONTINUOUS
10
133.198
20
-115.853
11
133.198
21
-115.991
0
LINE
8
BLACK
6
CONTINUOUS
10
133.198
20
-115.991
11
133.171
21
-116.126
0
LINE
8
BLACK
6
CONTINUOUS
10
133.171
20
-116.126
11
133.118
21
-116.254
0
LINE
8
BLACK
6
CONTINUOUS
10
133.118
20
-116.254
11
133.118
21
-116.254
0
LINE
8
BLACK
6
CONTINUOUS
10
133.118
20
-116.254
11
133.042
21
-116.368
0
LINE
8
BLACK
6
CONTINUOUS
10
133.042
20
-116.368
11
132.944
21
-116.466
0
LINE
8
BLACK
6
CONTINUOUS
10
132.944
20
-116.466
11
132.944
21
-116.466
0
LINE
8
BLACK
6
CONTINUOUS
10
132.944
20
-116.466
11
132.941
21
-116.469
0
LINE
8
BLACK
6
CONTINUOUS
10
132.941
20
-116.469
11
132.926
21
-116.488
0
LINE
8
BLACK
6
CONTINUOUS
10
132.926
20
-116.488
11
132.914
21
-116.509
0
LINE
8
BLACK
6
CONTINUOUS
10
132.914
20
-116.509
11
132.907
21
-116.533
0
LINE
8
BLACK
6
CONTINUOUS
10
132.907
20
-116.533
11
132.905
21
-116.557
0
LINE
8
BLACK
6
CONTINUOUS
10
132.905
20
-116.557
11
132.907
21
-116.581
0
LINE
8
BLACK
6
CONTINUOUS
10
132.907
20
-116.581
11
132.914
21
-116.605
0
LINE
8
BLACK
6
CONTINUOUS
10
132.914
20
-116.605
11
132.926
21
-116.626
0
LINE
8
BLACK
6
CONTINUOUS
10
132.926
20
-116.626
11
132.941
21
-116.645
0
LINE
8
BLACK
6
CONTINUOUS
10
132.941
20
-116.645
11
132.944
21
-116.648
0
LINE
8
BLACK
6
CONTINUOUS
10
132.944
20
-116.648
11
132.944
21
-116.648
0
LINE
8
BLACK
6
CONTINUOUS
10
132.944
20
-116.648
11
133.042
21
-116.746
0
LINE
8
BLACK
6
CONTINUOUS
10
133.042
20
-116.746
11
133.068
21
-116.785
0
LINE
8
BLACK
6
CONTINUOUS
10
133.068
20
-116.785
11
133.118
21
-116.86
0
LINE
8
BLACK
6
CONTINUOUS
10
133.118
20
-116.86
11
133.171
21
-116.988
0
LINE
8
BLACK
6
CONTINUOUS
10
133.171
20
-116.988
11
133.198
21
-117.123
0
LINE
8
BLACK
6
CONTINUOUS
10
133.198
20
-117.123
11
133.198
21
-117.261
0
LINE
8
BLACK
6
CONTINUOUS
10
133.198
20
-117.261
11
133.171
21
-117.396
0
LINE
8
BLACK
6
CONTINUOUS
10
133.171
20
-117.396
11
133.118
21
-117.524
0
LINE
8
BLACK
6
CONTINUOUS
10
133.118
20
-117.524
11
133.089
21
-117.568
0
LINE
8
BLACK
6
CONTINUOUS
10
133.089
20
-117.568
11
133.077
21
-117.589
0
LINE
8
BLACK
6
CONTINUOUS
10
133.077
20
-117.589
11
133.07
21
-117.613
0
LINE
8
BLACK
6
CONTINUOUS
10
133.07
20
-117.613
11
133.068
21
-117.637
0
LINE
8
BLACK
6
CONTINUOUS
10
133.068
20
-117.637
11
133.07
21
-117.661
0
LINE
8
BLACK
6
CONTINUOUS
10
133.07
20
-117.661
11
133.077
21
-117.685
0
LINE
8
BLACK
6
CONTINUOUS
10
133.077
20
-117.685
11
133.089
21
-117.706
0
LINE
8
BLACK
6
CONTINUOUS
10
133.089
20
-117.706
11
133.104
21
-117.725
0
LINE
8
BLACK
6
CONTINUOUS
10
133.104
20
-117.725
11
133.123
21
-117.741
0
LINE
8
BLACK
6
CONTINUOUS
10
133.123
20
-117.741
11
133.145
21
-117.752
0
LINE
8
BLACK
6
CONTINUOUS
10
133.145
20
-117.752
11
133.168
21
-117.76
0
LINE
8
BLACK
6
CONTINUOUS
10
133.168
20
-117.76
11
133.193
21
-117.762
0
LINE
8
BLACK
6
CONTINUOUS
10
133.193
20
-117.762
11
133.198
21
-117.762
0
LINE
8
BLACK
6
CONTINUOUS
10
133.198
20
-117.762
11
133.198
21
-119.162
0
LINE
8
BLACK
6
CONTINUOUS
10
133.198
20
-119.162
11
131.798
21
-119.162
0
LINE
8
BLACK
6
CONTINUOUS
10
131.798
20
-119.162
11
131.798
21
-119.157
0
LINE
8
BLACK
6
CONTINUOUS
10
131.798
20
-119.157
11
131.796
21
-119.132
0
LINE
8
BLACK
6
CONTINUOUS
10
131.796
20
-119.132
11
131.788
21
-119.109
0
LINE
8
BLACK
6
CONTINUOUS
10
131.788
20
-119.109
11
131.777
21
-119.087
0
LINE
8
BLACK
6
CONTINUOUS
10
131.777
20
-119.087
11
131.761
21
-119.068
0
LINE
8
BLACK
6
CONTINUOUS
10
131.761
20
-119.068
11
131.742
21
-119.053
0
LINE
8
BLACK
6
CONTINUOUS
10
131.742
20
-119.053
11
131.721
21
-119.041
0
LINE
8
BLACK
6
CONTINUOUS
10
131.721
20
-119.041
11
131.697
21
-119.034
0
LINE
8
BLACK
6
CONTINUOUS
10
131.697
20
-119.034
11
131.673
21
-119.032
0
LINE
8
BLACK
6
CONTINUOUS
10
131.673
20
-119.032
11
131.649
21
-119.034
0
LINE
8
BLACK
6
CONTINUOUS
10
131.649
20
-119.034
11
131.625
21
-119.041
0
LINE
8
BLACK
6
CONTINUOUS
10
131.625
20
-119.041
11
131.604
21
-119.053
0
LINE
8
BLACK
6
CONTINUOUS
10
131.604
20
-119.053
11
131.56
21
-119.082
0
LINE
8
BLACK
6
CONTINUOUS
10
131.56
20
-119.082
11
131.432
21
-119.135
0
LINE
8
BLACK
6
CONTINUOUS
10
131.432
20
-119.135
11
131.297
21
-119.162
0
LINE
8
BLACK
6
CONTINUOUS
10
131.297
20
-119.162
11
131.159
21
-119.162
0
LINE
8
BLACK
6
CONTINUOUS
10
131.159
20
-119.162
11
131.024
21
-119.135
0
LINE
8
BLACK
6
CONTINUOUS
10
131.024
20
-119.135
11
130.896
21
-119.082
0
LINE
8
BLACK
6
CONTINUOUS
10
130.896
20
-119.082
11
130.806
21
-119.022
0
LINE
8
BLACK
6
CONTINUOUS
10
130.806
20
-119.022
11
130.782
21
-119.006
0
LINE
8
BLACK
6
CONTINUOUS
10
130.782
20
-119.006
11
130.684
21
-118.908
0
LINE
8
BLACK
6
CONTINUOUS
10
130.684
20
-118.908
11
130.608
21
-118.794
0
LINE
8
BLACK
6
CONTINUOUS
10
130.608
20
-118.794
11
130.608
21
-118.794
0
LINE
8
BLACK
6
CONTINUOUS
10
130.608
20
-118.794
11
130.555
21
-118.666
0
LINE
8
BLACK
6
CONTINUOUS
10
130.555
20
-118.666
11
130.528
21
-118.531
0
LINE
8
BLACK
6
CONTINUOUS
10
130.528
20
-118.531
11
130.528
21
-118.393
0
LINE
8
BLACK
6
CONTINUOUS
10
130.528
20
-118.393
11
130.555
21
-118.258
0
LINE
8
BLACK
6
CONTINUOUS
10
130.555
20
-118.258
11
130.608
21
-118.13
0
LINE
8
BLACK
6
CONTINUOUS
10
130.608
20
-118.13
11
130.684
21
-118.016
0
LINE
8
BLACK
6
CONTINUOUS
10
130.684
20
-118.016
11
130.684
21
-118.016
0
LINE
8
BLACK
6
CONTINUOUS
10
130.684
20
-118.016
11
130.782
21
-117.918
0
LINE
8
BLACK
6
CONTINUOUS
10
130.782
20
-117.918
11
130.782
21
-117.918
0
LINE
8
BLACK
6
CONTINUOUS
10
130.782
20
-117.918
11
130.785
21
-117.915
0
LINE
8
BLACK
6
CONTINUOUS
10
130.785
20
-117.915
11
130.8
21
-117.896
0
LINE
8
BLACK
6
CONTINUOUS
10
130.8
20
-117.896
11
130.812
21
-117.875
0
LINE
8
BLACK
6
CONTINUOUS
10
130.812
20
-117.875
11
130.819
21
-117.851
0
LINE
8
BLACK
6
CONTINUOUS
10
130.819
20
-117.851
11
130.821
21
-117.827
0
LINE
8
BLACK
6
CONTINUOUS
10
130.821
20
-117.827
11
130.819
21
-117.803
0
LINE
8
BLACK
6
CONTINUOUS
10
130.819
20
-117.803
11
130.812
21
-117.779
0
LINE
8
BLACK
6
CONTINUOUS
10
130.812
20
-117.779
11
130.8
21
-117.758
0
LINE
8
BLACK
6
CONTINUOUS
10
130.8
20
-117.758
11
130.785
21
-117.739
0
LINE
8
BLACK
6
CONTINUOUS
10
130.785
20
-117.739
11
130.782
21
-117.736
0
LINE
8
BLACK
6
CONTINUOUS
10
130.782
20
-117.736
11
130.782
21
-117.736
0
LINE
8
BLACK
6
CONTINUOUS
10
130.782
20
-117.736
11
130.684
21
-117.638
0
LINE
8
BLACK
6
CONTINUOUS
10
130.684
20
-117.638
11
130.608
21
-117.524
0
LINE
8
BLACK
6
CONTINUOUS
10
130.608
20
-117.524
11
130.608
21
-117.524
0
LINE
8
BLACK
6
CONTINUOUS
10
130.608
20
-117.524
11
130.555
21
-117.396
0
LINE
8
BLACK
6
CONTINUOUS
10
130.555
20
-117.396
11
130.528
21
-117.261
0
LINE
8
BLACK
6
CONTINUOUS
10
130.528
20
-117.261
11
130.528
21
-117.123
0
LINE
8
BLACK
6
CONTINUOUS
10
130.528
20
-117.123
11
130.555
21
-116.988
0
LINE
8
BLACK
6
CONTINUOUS
10
130.555
20
-116.988
11
130.608
21
-116.86
0
LINE
8
BLACK
6
CONTINUOUS
10
130.608
20
-116.86
11
130.658
21
-116.785
0
LINE
8
BLACK
6
CONTINUOUS
10
130.658
20
-116.785
11
130.684
21
-116.746
0
LINE
8
BLACK
6
CONTINUOUS
10
130.684
20
-116.746
11
130.782
21
-116.648
0
LINE
8
BLACK
6
CONTINUOUS
10
130.782
20
-116.648
11
130.782
21
-116.648
0
LINE
8
BLACK
6
CONTINUOUS
10
130.782
20
-116.648
11
130.785
21
-116.645
0
LINE
8
BLACK
6
CONTINUOUS
10
130.785
20
-116.645
11
130.8
21
-116.626
0
LINE
8
BLACK
6
CONTINUOUS
10
130.8
20
-116.626
11
130.812
21
-116.605
0
LINE
8
BLACK
6
CONTINUOUS
10
130.812
20
-116.605
11
130.819
21
-116.581
0
LINE
8
BLACK
6
CONTINUOUS
10
130.819
20
-116.581
11
130.821
21
-116.557
0
LINE
8
BLACK
6
CONTINUOUS
10
130.821
20
-116.557
11
131.635
21
-116.557
0
LINE
8
BLACK
6
CONTINUOUS
10
131.635
20
-116.557
11
131.637
21
-116.581
0
LINE
8
BLACK
6
CONTINUOUS
10
131.637
20
-116.581
11
131.644
21
-116.605
0
LINE
8
BLACK
6
CONTINUOUS
10
131.644
20
-116.605
11
131.656
21
-116.626
0
LINE
8
BLACK
6
CONTINUOUS
10
131.656
20
-116.626
11
131.671
21
-116.645
0
LINE
8
BLACK
6
CONTINUOUS
10
131.671
20
-116.645
11
131.674
21
-116.648
0
LINE
8
BLACK
6
CONTINUOUS
10
131.674
20
-116.648
11
131.674
21
-116.648
0
LINE
8
BLACK
6
CONTINUOUS
10
131.674
20
-116.648
11
131.772
21
-116.746
0
LINE
8
BLACK
6
CONTINUOUS
10
131.772
20
-116.746
11
131.772
21
-116.746
0
LINE
8
BLACK
6
CONTINUOUS
10
131.772
20
-116.746
11
131.775
21
-116.749
0
LINE
8
BLACK
6
CONTINUOUS
10
131.775
20
-116.749
11
131.794
21
-116.764
0
LINE
8
BLACK
6
CONTINUOUS
10
131.794
20
-116.764
11
131.815
21
-116.776
0
LINE
8
BLACK
6
CONTINUOUS
10
131.815
20
-116.776
11
131.839
21
-116.783
0
LINE
8
BLACK
6
CONTINUOUS
10
131.839
20
-116.783
11
131.863
21
-116.785
0
LINE
8
BLACK
6
CONTINUOUS
10
131.863
20
-116.785
11
131.887
21
-116.783
0
LINE
8
BLACK
6
CONTINUOUS
10
131.887
20
-116.783
11
131.911
21
-116.776
0
LINE
8
BLACK
6
CONTINUOUS
10
131.911
20
-116.776
11
131.932
21
-116.764
0
LINE
8
BLACK
6
CONTINUOUS
10
131.932
20
-116.764
11
131.951
21
-116.749
0
LINE
8
BLACK
6
CONTINUOUS
10
131.951
20
-116.749
11
131.954
21
-116.746
0
LINE
8
BLACK
6
CONTINUOUS
10
131.954
20
-116.746
11
131.954
21
-116.746
0
LINE
8
BLACK
6
CONTINUOUS
10
131.954
20
-116.746
11
132.052
21
-116.648
0
LINE
8
BLACK
6
CONTINUOUS
10
132.052
20
-116.648
11
132.052
21
-116.648
0
LINE
8
BLACK
6
CONTINUOUS
10
132.052
20
-116.648
11
132.055
21
-116.645
0
LINE
8
BLACK
6
CONTINUOUS
10
132.055
20
-116.645
11
132.07
21
-116.626
0
LINE
8
BLACK
6
CONTINUOUS
10
132.07
20
-116.626
11
132.082
21
-116.605
0
LINE
8
BLACK
6
CONTINUOUS
10
132.082
20
-116.605
11
132.089
21
-116.581
0
LINE
8
BLACK
6
CONTINUOUS
10
132.089
20
-116.581
11
132.091
21
-116.557
0
LINE
8
BLACK
6
CONTINUOUS
10
132.091
20
-116.557
11
132.089
21
-116.533
0
LINE
8
BLACK
6
CONTINUOUS
10
132.089
20
-116.533
11
132.082
21
-116.509
0
LINE
8
BLACK
6
CONTINUOUS
10
132.082
20
-116.509
11
132.07
21
-116.488
0
LINE
8
BLACK
6
CONTINUOUS
10
132.07
20
-116.488
11
132.055
21
-116.469
0
LINE
8
BLACK
6
CONTINUOUS
10
132.055
20
-116.469
11
132.052
21
-116.466
0
LINE
8
BLACK
6
CONTINUOUS
10
132.052
20
-116.466
11
132.052
21
-116.466
0
LINE
8
BLACK
6
CONTINUOUS
10
132.052
20
-116.466
11
131.954
21
-116.368
0
LINE
8
BLACK
6
CONTINUOUS
10
131.954
20
-116.368
11
131.954
21
-116.368
0
LINE
8
BLACK
6
CONTINUOUS
10
131.954
20
-116.368
11
131.951
21
-116.365
0
LINE
8
BLACK
6
CONTINUOUS
10
131.951
20
-116.365
11
131.932
21
-116.35
0
LINE
8
BLACK
6
CONTINUOUS
10
131.932
20
-116.35
11
131.911
21
-116.338
0
LINE
8
BLACK
6
CONTINUOUS
10
131.911
20
-116.338
11
131.887
21
-116.331
0
LINE
8
BLACK
6
CONTINUOUS
10
131.887
20
-116.331
11
131.863
21
-116.329
0
LINE
8
BLACK
6
CONTINUOUS
10
131.863
20
-116.329
11
131.839
21
-116.331
0
LINE
8
BLACK
6
CONTINUOUS
10
131.839
20
-116.331
11
131.815
21
-116.338
0
LINE
8
BLACK
6
CONTINUOUS
10
131.815
20
-116.338
11
131.794
21
-116.35
0
LINE
8
BLACK
6
CONTINUOUS
10
131.794
20
-116.35
11
131.775
21
-116.365
0
LINE
8
BLACK
6
CONTINUOUS
10
131.775
20
-116.365
11
131.772
21
-116.368
0
LINE
8
BLACK
6
CONTINUOUS
10
131.772
20
-116.368
11
131.772
21
-116.368
0
LINE
8
BLACK
6
CONTINUOUS
10
131.772
20
-116.368
11
131.674
21
-116.466
0
LINE
8
BLACK
6
CONTINUOUS
10
131.674
20
-116.466
11
131.674
21
-116.466
0
LINE
8
BLACK
6
CONTINUOUS
10
131.674
20
-116.466
11
131.671
21
-116.469
0
LINE
8
BLACK
6
CONTINUOUS
10
131.671
20
-116.469
11
131.656
21
-116.488
0
LINE
8
BLACK
6
CONTINUOUS
10
131.656
20
-116.488
11
131.644
21
-116.509
0
LINE
8
BLACK
6
CONTINUOUS
10
131.644
20
-116.509
11
131.637
21
-116.533
0
LINE
8
BLACK
6
CONTINUOUS
10
131.637
20
-116.533
11
131.635
21
-116.557
0
LINE
8
BLACK
6
CONTINUOUS
10
131.635
20
-116.557
11
130.821
21
-116.557
0
LINE
8
BLACK
6
CONTINUOUS
10
130.821
20
-116.557
11
130.819
21
-116.533
0
LINE
8
BLACK
6
CONTINUOUS
10
130.819
20
-116.533
11
130.812
21
-116.509
0
LINE
8
BLACK
6
CONTINUOUS
10
130.812
20
-116.509
11
130.8
21
-116.488
0
LINE
8
BLACK
6
CONTINUOUS
10
130.8
20
-116.488
11
130.785
21
-116.469
0
LINE
8
BLACK
6
CONTINUOUS
10
130.785
20
-116.469
11
130.782
21
-116.466
0
LINE
8
BLACK
6
CONTINUOUS
10
130.782
20
-116.466
11
130.782
21
-116.466
0
LINE
8
BLACK
6
CONTINUOUS
10
130.782
20
-116.466
11
130.684
21
-116.368
0
LINE
8
BLACK
6
CONTINUOUS
10
130.684
20
-116.368
11
130.608
21
-116.254
0
LINE
8
BLACK
6
CONTINUOUS
10
130.608
20
-116.254
11
130.608
21
-116.254
0
LINE
8
BLACK
6
CONTINUOUS
10
130.608
20
-116.254
11
130.555
21
-116.126
0
LINE
8
BLACK
6
CONTINUOUS
10
130.555
20
-116.126
11
130.528
21
-115.991
0
LINE
8
BLACK
6
CONTINUOUS
10
130.528
20
-115.991
11
130.528
21
-115.853
0
LINE
8
BLACK
6
CONTINUOUS
10
130.528
20
-115.853
11
130.555
21
-115.718
0
LINE
8
BLACK
6
CONTINUOUS
10
130.555
20
-115.718
11
130.608
21
-115.59
0
LINE
8
BLACK
6
CONTINUOUS
10
130.608
20
-115.59
11
130.658
21
-115.515
0
LINE
8
BLACK
6
CONTINUOUS
10
130.658
20
-115.515
11
130.684
21
-115.476
0
LINE
8
BLACK
6
CONTINUOUS
10
130.684
20
-115.476
11
130.782
21
-115.378
0
LINE
8
BLACK
6
CONTINUOUS
10
130.782
20
-115.378
11
130.782
21
-115.378
0
LINE
8
BLACK
6
CONTINUOUS
10
130.782
20
-115.378
11
130.785
21
-115.375
0
LINE
8
BLACK
6
CONTINUOUS
10
130.785
20
-115.375
11
130.8
21
-115.356
0
LINE
8
BLACK
6
CONTINUOUS
10
130.8
20
-115.356
11
130.812
21
-115.335
0
LINE
8
BLACK
6
CONTINUOUS
10
130.812
20
-115.335
11
130.819
21
-115.311
0
LINE
8
BLACK
6
CONTINUOUS
10
130.819
20
-115.311
11
130.821
21
-115.287
0
LINE
8
BLACK
6
CONTINUOUS
10
130.821
20
-115.287
11
131.635
21
-115.287
0
LINE
8
BLACK
6
CONTINUOUS
10
131.635
20
-115.287
11
131.637
21
-115.311
0
LINE
8
BLACK
6
CONTINUOUS
10
131.637
20
-115.311
11
131.644
21
-115.335
0
LINE
8
BLACK
6
CONTINUOUS
10
131.644
20
-115.335
11
131.656
21
-115.356
0
LINE
8
BLACK
6
CONTINUOUS
10
131.656
20
-115.356
11
131.671
21
-115.375
0
LINE
8
BLACK
6
CONTINUOUS
10
131.671
20
-115.375
11
131.674
21
-115.378
0
LINE
8
BLACK
6
CONTINUOUS
10
131.674
20
-115.378
11
131.674
21
-115.378
0
LINE
8
BLACK
6
CONTINUOUS
10
131.674
20
-115.378
11
131.772
21
-115.476
0
LINE
8
BLACK
6
CONTINUOUS
10
131.772
20
-115.476
11
131.772
21
-115.476
0
LINE
8
BLACK
6
CONTINUOUS
10
131.772
20
-115.476
11
131.775
21
-115.479
0
LINE
8
BLACK
6
CONTINUOUS
10
131.775
20
-115.479
11
131.794
21
-115.494
0
LINE
8
BLACK
6
CONTINUOUS
10
131.794
20
-115.494
11
131.815
21
-115.506
0
LINE
8
BLACK
6
CONTINUOUS
10
131.815
20
-115.506
11
131.839
21
-115.513
0
LINE
8
BLACK
6
CONTINUOUS
10
131.839
20
-115.513
11
131.863
21
-115.515
0
LINE
8
BLACK
6
CONTINUOUS
10
131.863
20
-115.515
11
131.887
21
-115.513
0
LINE
8
BLACK
6
CONTINUOUS
10
131.887
20
-115.513
11
131.911
21
-115.506
0
LINE
8
BLACK
6
CONTINUOUS
10
131.911
20
-115.506
11
131.932
21
-115.494
0
LINE
8
BLACK
6
CONTINUOUS
10
131.932
20
-115.494
11
131.951
21
-115.479
0
LINE
8
BLACK
6
CONTINUOUS
10
131.951
20
-115.479
11
131.954
21
-115.476
0
LINE
8
BLACK
6
CONTINUOUS
10
131.954
20
-115.476
11
131.954
21
-115.476
0
LINE
8
BLACK
6
CONTINUOUS
10
131.954
20
-115.476
11
132.052
21
-115.378
0
LINE
8
BLACK
6
CONTINUOUS
10
132.052
20
-115.378
11
132.052
21
-115.378
0
LINE
8
BLACK
6
CONTINUOUS
10
132.052
20
-115.378
11
132.055
21
-115.375
0
LINE
8
BLACK
6
CONTINUOUS
10
132.055
20
-115.375
11
132.07
21
-115.356
0
LINE
8
BLACK
6
CONTINUOUS
10
132.07
20
-115.356
11
132.082
21
-115.335
0
LINE
8
BLACK
6
CONTINUOUS
10
132.082
20
-115.335
11
132.089
21
-115.311
0
LINE
8
BLACK
6
CONTINUOUS
10
132.089
20
-115.311
11
132.091
21
-115.287
0
LINE
8
BLACK
6
CONTINUOUS
10
132.091
20
-115.287
11
132.089
21
-115.263
0
LINE
8
BLACK
6
CONTINUOUS
10
132.089
20
-115.263
11
132.082
21
-115.239
0
LINE
8
BLACK
6
CONTINUOUS
10
132.082
20
-115.239
11
132.07
21
-115.218
0
LINE
8
BLACK
6
CONTINUOUS
10
132.07
20
-115.218
11
132.055
21
-115.199
0
LINE
8
BLACK
6
CONTINUOUS
10
132.055
20
-115.199
11
132.052
21
-115.196
0
LINE
8
BLACK
6
CONTINUOUS
10
132.052
20
-115.196
11
132.052
21
-115.196
0
LINE
8
BLACK
6
CONTINUOUS
10
132.052
20
-115.196
11
131.954
21
-115.098
0
LINE
8
BLACK
6
CONTINUOUS
10
131.954
20
-115.098
11
131.954
21
-115.098
0
LINE
8
BLACK
6
CONTINUOUS
10
131.954
20
-115.098
11
131.951
21
-115.095
0
LINE
8
BLACK
6
CONTINUOUS
10
131.951
20
-115.095
11
131.932
21
-115.08
0
LINE
8
BLACK
6
CONTINUOUS
10
131.932
20
-115.08
11
131.911
21
-115.068
0
LINE
8
BLACK
6
CONTINUOUS
10
131.911
20
-115.068
11
131.887
21
-115.061
0
LINE
8
BLACK
6
CONTINUOUS
10
131.887
20
-115.061
11
131.863
21
-115.059
0
LINE
8
BLACK
6
CONTINUOUS
10
131.863
20
-115.059
11
131.839
21
-115.061
0
LINE
8
BLACK
6
CONTINUOUS
10
131.839
20
-115.061
11
131.815
21
-115.068
0
LINE
8
BLACK
6
CONTINUOUS
10
131.815
20
-115.068
11
131.794
21
-115.08
0
LINE
8
BLACK
6
CONTINUOUS
10
131.794
20
-115.08
11
131.775
21
-115.095
0
LINE
8
BLACK
6
CONTINUOUS
10
131.775
20
-115.095
11
131.772
21
-115.098
0
LINE
8
BLACK
6
CONTINUOUS
10
131.772
20
-115.098
11
131.772
21
-115.098
0
LINE
8
BLACK
6
CONTINUOUS
10
131.772
20
-115.098
11
131.674
21
-115.196
0
LINE
8
BLACK
6
CONTINUOUS
10
131.674
20
-115.196
11
131.674
21
-115.196
0
LINE
8
BLACK
6
CONTINUOUS
10
131.674
20
-115.196
11
131.671
21
-115.199
0
LINE
8
BLACK
6
CONTINUOUS
10
131.671
20
-115.199
11
131.656
21
-115.218
0
LINE
8
BLACK
6
CONTINUOUS
10
131.656
20
-115.218
11
131.644
21
-115.239
0
LINE
8
BLACK
6
CONTINUOUS
10
131.644
20
-115.239
11
131.637
21
-115.263
0
LINE
8
BLACK
6
CONTINUOUS
10
131.637
20
-115.263
11
131.635
21
-115.287
0
LINE
8
BLACK
6
CONTINUOUS
10
131.635
20
-115.287
11
130.821
21
-115.287
0
LINE
8
BLACK
6
CONTINUOUS
10
130.821
20
-115.287
11
130.819
21
-115.263
0
LINE
8
BLACK
6
CONTINUOUS
10
130.819
20
-115.263
11
130.812
21
-115.239
0
LINE
8
BLACK
6
CONTINUOUS
10
130.812
20
-115.239
11
130.8
21
-115.218
0
LINE
8
BLACK
6
CONTINUOUS
10
130.8
20
-115.218
11
130.785
21
-115.199
0
LINE
8
BLACK
6
CONTINUOUS
10
130.785
20
-115.199
11
130.782
21
-115.196
0
LINE
8
BLACK
6
CONTINUOUS
10
130.782
20
-115.196
11
130.782
21
-115.196
0
LINE
8
BLACK
6
CONTINUOUS
10
130.782
20
-115.196
11
130.684
21
-115.098
0
LINE
8
BLACK
6
CONTINUOUS
10
130.684
20
-115.098
11
130.608
21
-114.984
0
LINE
8
BLACK
6
CONTINUOUS
10
130.608
20
-114.984
11
130.608
21
-114.984
0
LINE
8
BLACK
6
CONTINUOUS
10
130.608
20
-114.984
11
130.555
21
-114.856
0
LINE
8
BLACK
6
CONTINUOUS
10
130.555
20
-114.856
11
130.528
21
-114.721
0
LINE
8
BLACK
6
CONTINUOUS
10
130.528
20
-114.721
11
130.528
21
-114.583
0
LINE
8
BLACK
6
CONTINUOUS
10
130.528
20
-114.583
11
130.555
21
-114.448
0
LINE
8
BLACK
6
CONTINUOUS
10
130.555
20
-114.448
11
130.608
21
-114.32
0
LINE
8
BLACK
6
CONTINUOUS
10
130.608
20
-114.32
11
130.658
21
-114.245
0
LINE
8
BLACK
6
CONTINUOUS
10
130.658
20
-114.245
11
130.684
21
-114.206
0
LINE
8
BLACK
6
CONTINUOUS
10
130.684
20
-114.206
11
130.782
21
-114.108
0
LINE
8
BLACK
6
CONTINUOUS
10
130.782
20
-114.108
11
130.782
21
-114.108
0
LINE
8
BLACK
6
CONTINUOUS
10
130.782
20
-114.108
11
130.785
21
-114.105
0
LINE
8
BLACK
6
CONTINUOUS
10
130.785
20
-114.105
11
130.8
21
-114.086
0
LINE
8
BLACK
6
CONTINUOUS
10
130.8
20
-114.086
11
130.812
21
-114.065
0
LINE
8
BLACK
6
CONTINUOUS
10
130.812
20
-114.065
11
130.819
21
-114.041
0
LINE
8
BLACK
6
CONTINUOUS
10
130.819
20
-114.041
11
130.821
21
-114.017
0
LINE
8
BLACK
6
CONTINUOUS
10
130.821
20
-114.017
11
131.635
21
-114.017
0
LINE
8
BLACK
6
CONTINUOUS
10
131.635
20
-114.017
11
131.637
21
-114.041
0
LINE
8
BLACK
6
CONTINUOUS
10
131.637
20
-114.041
11
131.644
21
-114.065
0
LINE
8
BLACK
6
CONTINUOUS
10
131.644
20
-114.065
11
131.656
21
-114.086
0
LINE
8
BLACK
6
CONTINUOUS
10
131.656
20
-114.086
11
131.671
21
-114.105
0
LINE
8
BLACK
6
CONTINUOUS
10
131.671
20
-114.105
11
131.674
21
-114.108
0
LINE
8
BLACK
6
CONTINUOUS
10
131.674
20
-114.108
11
131.674
21
-114.108
0
LINE
8
BLACK
6
CONTINUOUS
10
131.674
20
-114.108
11
131.772
21
-114.206
0
LINE
8
BLACK
6
CONTINUOUS
10
131.772
20
-114.206
11
131.772
21
-114.206
0
LINE
8
BLACK
6
CONTINUOUS
10
131.772
20
-114.206
11
131.775
21
-114.209
0
LINE
8
BLACK
6
CONTINUOUS
10
131.775
20
-114.209
11
131.794
21
-114.224
0
LINE
8
BLACK
6
CONTINUOUS
10
131.794
20
-114.224
11
131.815
21
-114.236
0
LINE
8
BLACK
6
CONTINUOUS
10
131.815
20
-114.236
11
131.839
21
-114.243
0
LINE
8
BLACK
6
CONTINUOUS
10
131.839
20
-114.243
11
131.863
21
-114.245
0
LINE
8
BLACK
6
CONTINUOUS
10
131.863
20
-114.245
11
131.887
21
-114.243
0
LINE
8
BLACK
6
CONTINUOUS
10
131.887
20
-114.243
11
131.911
21
-114.236
0
LINE
8
BLACK
6
CONTINUOUS
10
131.911
20
-114.236
11
131.932
21
-114.224
0
LINE
8
BLACK
6
CONTINUOUS
10
131.932
20
-114.224
11
131.951
21
-114.209
0
LINE
8
BLACK
6
CONTINUOUS
10
131.951
20
-114.209
11
131.954
21
-114.206
0
LINE
8
BLACK
6
CONTINUOUS
10
131.954
20
-114.206
11
131.954
21
-114.206
0
LINE
8
BLACK
6
CONTINUOUS
10
131.954
20
-114.206
11
132.052
21
-114.108
0
LINE
8
BLACK
6
CONTINUOUS
10
132.052
20
-114.108
11
132.052
21
-114.108
0
LINE
8
BLACK
6
CONTINUOUS
10
132.052
20
-114.108
11
132.055
21
-114.105
0
LINE
8
BLACK
6
CONTINUOUS
10
132.055
20
-114.105
11
132.07
21
-114.086
0
LINE
8
BLACK
6
CONTINUOUS
10
132.07
20
-114.086
11
132.082
21
-114.065
0
LINE
8
BLACK
6
CONTINUOUS
10
132.082
20
-114.065
11
132.089
21
-114.041
0
LINE
8
BLACK
6
CONTINUOUS
10
132.089
20
-114.041
11
132.091
21
-114.017
0
LINE
8
BLACK
6
CONTINUOUS
10
132.091
20
-114.017
11
132.089
21
-113.993
0
LINE
8
BLACK
6
CONTINUOUS
10
132.089
20
-113.993
11
132.082
21
-113.969
0
LINE
8
BLACK
6
CONTINUOUS
10
132.082
20
-113.969
11
132.07
21
-113.948
0
LINE
8
BLACK
6
CONTINUOUS
10
132.07
20
-113.948
11
132.055
21
-113.929
0
LINE
8
BLACK
6
CONTINUOUS
10
132.055
20
-113.929
11
132.052
21
-113.926
0
LINE
8
BLACK
6
CONTINUOUS
10
132.052
20
-113.926
11
132.052
21
-113.926
0
LINE
8
BLACK
6
CONTINUOUS
10
132.052
20
-113.926
11
131.954
21
-113.828
0
LINE
8
BLACK
6
CONTINUOUS
10
131.954
20
-113.828
11
131.954
21
-113.828
0
LINE
8
BLACK
6
CONTINUOUS
10
131.954
20
-113.828
11
131.951
21
-113.825
0
LINE
8
BLACK
6
CONTINUOUS
10
131.951
20
-113.825
11
131.932
21
-113.81
0
LINE
8
BLACK
6
CONTINUOUS
10
131.932
20
-113.81
11
131.911
21
-113.798
0
LINE
8
BLACK
6
CONTINUOUS
10
131.911
20
-113.798
11
131.887
21
-113.791
0
LINE
8
BLACK
6
CONTINUOUS
10
131.887
20
-113.791
11
131.863
21
-113.789
0
LINE
8
BLACK
6
CONTINUOUS
10
131.863
20
-113.789
11
131.839
21
-113.791
0
LINE
8
BLACK
6
CONTINUOUS
10
131.839
20
-113.791
11
131.815
21
-113.798
0
LINE
8
BLACK
6
CONTINUOUS
10
131.815
20
-113.798
11
131.794
21
-113.81
0
LINE
8
BLACK
6
CONTINUOUS
10
131.794
20
-113.81
11
131.775
21
-113.825
0
LINE
8
BLACK
6
CONTINUOUS
10
131.775
20
-113.825
11
131.772
21
-113.828
0
LINE
8
BLACK
6
CONTINUOUS
10
131.772
20
-113.828
11
131.772
21
-113.828
0
LINE
8
BLACK
6
CONTINUOUS
10
131.772
20
-113.828
11
131.674
21
-113.926
0
LINE
8
BLACK
6
CONTINUOUS
10
131.674
20
-113.926
11
131.674
21
-113.926
0
LINE
8
BLACK
6
CONTINUOUS
10
131.674
20
-113.926
11
131.671
21
-113.929
0
LINE
8
BLACK
6
CONTINUOUS
10
131.671
20
-113.929
11
131.656
21
-113.948
0
LINE
8
BLACK
6
CONTINUOUS
10
131.656
20
-113.948
11
131.644
21
-113.969
0
LINE
8
BLACK
6
CONTINUOUS
10
131.644
20
-113.969
11
131.637
21
-113.993
0
LINE
8
BLACK
6
CONTINUOUS
10
131.637
20
-113.993
11
131.635
21
-114.017
0
LINE
8
BLACK
6
CONTINUOUS
10
131.635
20
-114.017
11
130.821
21
-114.017
0
LINE
8
BLACK
6
CONTINUOUS
10
130.821
20
-114.017
11
130.819
21
-113.993
0
LINE
8
BLACK
6
CONTINUOUS
10
130.819
20
-113.993
11
130.812
21
-113.969
0
LINE
8
BLACK
6
CONTINUOUS
10
130.812
20
-113.969
11
130.8
21
-113.948
0
LINE
8
BLACK
6
CONTINUOUS
10
130.8
20
-113.948
11
130.785
21
-113.929
0
LINE
8
BLACK
6
CONTINUOUS
10
130.785
20
-113.929
11
130.782
21
-113.926
0
LINE
8
BLACK
6
CONTINUOUS
10
130.782
20
-113.926
11
130.782
21
-113.926
0
LINE
8
BLACK
6
CONTINUOUS
10
130.782
20
-113.926
11
130.684
21
-113.828
0
LINE
8
BLACK
6
CONTINUOUS
10
130.684
20
-113.828
11
130.608
21
-113.714
0
LINE
8
BLACK
6
CONTINUOUS
10
130.608
20
-113.714
11
130.608
21
-113.714
0
LINE
8
BLACK
6
CONTINUOUS
10
130.608
20
-113.714
11
130.555
21
-113.586
0
LINE
8
BLACK
6
CONTINUOUS
10
130.555
20
-113.586
11
130.528
21
-113.451
0
LINE
8
BLACK
6
CONTINUOUS
10
130.528
20
-113.451
11
130.528
21
-113.313
0
LINE
8
BLACK
6
CONTINUOUS
10
130.528
20
-113.313
11
130.555
21
-113.178
0
LINE
8
BLACK
6
CONTINUOUS
10
130.555
20
-113.178
11
130.608
21
-113.05
0
LINE
8
BLACK
6
CONTINUOUS
10
130.608
20
-113.05
11
130.658
21
-112.975
0
LINE
8
BLACK
6
CONTINUOUS
10
130.658
20
-112.975
11
130.684
21
-112.936
0
LINE
8
BLACK
6
CONTINUOUS
10
130.684
20
-112.936
11
130.782
21
-112.838
0
LINE
8
BLACK
6
CONTINUOUS
10
130.782
20
-112.838
11
130.896
21
-112.762
0
LINE
8
BLACK
6
CONTINUOUS
10
130.896
20
-112.762
11
130.896
21
-112.762
0
LINE
8
BLACK
6
CONTINUOUS
10
130.896
20
-112.762
11
131.024
21
-112.709
0
LINE
8
BLACK
6
CONTINUOUS
10
131.024
20
-112.709
11
131.159
21
-112.682
0
LINE
8
BLACK
6
CONTINUOUS
10
131.159
20
-112.682
11
131.297
21
-112.682
0
LINE
8
BLACK
6
CONTINUOUS
10
131.297
20
-112.682
11
131.432
21
-112.709
0
LINE
8
BLACK
6
CONTINUOUS
10
133.389
20
-106.498
11
133.466
21
-106.505
0
LINE
8
BLACK
6
CONTINUOUS
10
133.466
20
-106.505
11
133.664
21
-106.565
0
LINE
8
BLACK
6
CONTINUOUS
10
133.664
20
-106.565
11
133.664
21
-106.565
0
LINE
8
BLACK
6
CONTINUOUS
10
133.664
20
-106.565
11
133.846
21
-106.663
0
LINE
8
BLACK
6
CONTINUOUS
10
133.846
20
-106.663
11
134.006
21
-106.794
0
LINE
8
BLACK
6
CONTINUOUS
10
134.006
20
-106.794
11
134.137
21
-106.954
0
LINE
8
BLACK
6
CONTINUOUS
10
134.137
20
-106.954
11
134.235
21
-107.136
0
LINE
8
BLACK
6
CONTINUOUS
10
134.235
20
-107.136
11
134.235
21
-107.136
0
LINE
8
BLACK
6
CONTINUOUS
10
134.235
20
-107.136
11
134.295
21
-107.334
0
LINE
8
BLACK
6
CONTINUOUS
10
134.295
20
-107.334
11
134.315
21
-107.54
0
LINE
8
BLACK
6
CONTINUOUS
10
134.315
20
-107.54
11
134.295
21
-107.746
0
LINE
8
BLACK
6
CONTINUOUS
10
134.295
20
-107.746
11
134.235
21
-107.944
0
LINE
8
BLACK
6
CONTINUOUS
10
134.235
20
-107.944
11
134.235
21
-107.944
0
LINE
8
BLACK
6
CONTINUOUS
10
134.235
20
-107.944
11
134.137
21
-108.126
0
LINE
8
BLACK
6
CONTINUOUS
10
134.137
20
-108.126
11
134.006
21
-108.286
0
LINE
8
BLACK
6
CONTINUOUS
10
134.006
20
-108.286
11
133.846
21
-108.417
0
LINE
8
BLACK
6
CONTINUOUS
10
133.846
20
-108.417
11
133.664
21
-108.515
0
LINE
8
BLACK
6
CONTINUOUS
10
133.664
20
-108.515
11
133.664
21
-108.515
0
LINE
8
BLACK
6
CONTINUOUS
10
133.664
20
-108.515
11
133.466
21
-108.575
0
LINE
8
BLACK
6
CONTINUOUS
10
133.466
20
-108.575
11
133.389
21
-108.582
0
LINE
8
BLACK
6
CONTINUOUS
10
133.389
20
-108.582
11
133.312
21
-108.59
0
LINE
8
BLACK
6
CONTINUOUS
10
133.312
20
-108.59
11
133.208
21
-108.59
0
LINE
8
BLACK
6
CONTINUOUS
10
133.208
20
-108.59
11
133.131
21
-108.582
0
LINE
8
BLACK
6
CONTINUOUS
10
133.131
20
-108.582
11
133.054
21
-108.575
0
LINE
8
BLACK
6
CONTINUOUS
10
133.054
20
-108.575
11
132.856
21
-108.515
0
LINE
8
BLACK
6
CONTINUOUS
10
132.856
20
-108.515
11
132.856
21
-108.515
0
LINE
8
BLACK
6
CONTINUOUS
10
132.856
20
-108.515
11
132.674
21
-108.417
0
LINE
8
BLACK
6
CONTINUOUS
10
132.674
20
-108.417
11
132.514
21
-108.286
0
LINE
8
BLACK
6
CONTINUOUS
10
132.514
20
-108.286
11
132.383
21
-108.126
0
LINE
8
BLACK
6
CONTINUOUS
10
132.383
20
-108.126
11
132.285
21
-107.944
0
LINE
8
BLACK
6
CONTINUOUS
10
132.285
20
-107.944
11
132.285
21
-107.944
0
LINE
8
BLACK
6
CONTINUOUS
10
132.285
20
-107.944
11
132.225
21
-107.746
0
LINE
8
BLACK
6
CONTINUOUS
10
132.225
20
-107.746
11
132.205
21
-107.54
0
LINE
8
BLACK
6
CONTINUOUS
10
132.205
20
-107.54
11
132.225
21
-107.334
0
LINE
8
BLACK
6
CONTINUOUS
10
132.225
20
-107.334
11
132.285
21
-107.136
0
LINE
8
BLACK
6
CONTINUOUS
10
132.285
20
-107.136
11
132.285
21
-107.136
0
LINE
8
BLACK
6
CONTINUOUS
10
132.285
20
-107.136
11
132.383
21
-106.954
0
LINE
8
BLACK
6
CONTINUOUS
10
132.383
20
-106.954
11
132.514
21
-106.794
0
LINE
8
BLACK
6
CONTINUOUS
10
132.514
20
-106.794
11
132.674
21
-106.663
0
LINE
8
BLACK
6
CONTINUOUS
10
132.674
20
-106.663
11
132.856
21
-106.565
0
LINE
8
BLACK
6
CONTINUOUS
10
132.856
20
-106.565
11
132.856
21
-106.565
0
LINE
8
BLACK
6
CONTINUOUS
10
132.856
20
-106.565
11
133.054
21
-106.505
0
LINE
8
BLACK
6
CONTINUOUS
10
133.054
20
-106.505
11
133.131
21
-106.498
0
LINE
8
BLACK
6
CONTINUOUS
10
133.131
20
-106.498
11
133.208
21
-106.49
0
LINE
8
BLACK
6
CONTINUOUS
10
133.208
20
-106.49
11
133.312
21
-106.49
0
LINE
8
BLACK
6
CONTINUOUS
10
133.312
20
-106.49
11
133.389
21
-106.498
0
LINE
8
BLACK
6
CONTINUOUS
10
133.389
20
-103.958
11
133.466
21
-103.965
0
LINE
8
BLACK
6
CONTINUOUS
10
133.466
20
-103.965
11
133.664
21
-104.025
0
LINE
8
BLACK
6
CONTINUOUS
10
133.664
20
-104.025
11
133.664
21
-104.025
0
LINE
8
BLACK
6
CONTINUOUS
10
133.664
20
-104.025
11
133.846
21
-104.123
0
LINE
8
BLACK
6
CONTINUOUS
10
133.846
20
-104.123
11
134.006
21
-104.254
0
LINE
8
BLACK
6
CONTINUOUS
10
134.006
20
-104.254
11
134.137
21
-104.414
0
LINE
8
BLACK
6
CONTINUOUS
10
134.137
20
-104.414
11
134.235
21
-104.596
0
LINE
8
BLACK
6
CONTINUOUS
10
134.235
20
-104.596
11
134.235
21
-104.596
0
LINE
8
BLACK
6
CONTINUOUS
10
134.235
20
-104.596
11
134.295
21
-104.794
0
LINE
8
BLACK
6
CONTINUOUS
10
134.295
20
-104.794
11
134.315
21
-105
0
LINE
8
BLACK
6
CONTINUOUS
10
134.315
20
-105
11
134.295
21
-105.206
0
LINE
8
BLACK
6
CONTINUOUS
10
134.295
20
-105.206
11
134.235
21
-105.404
0
LINE
8
BLACK
6
CONTINUOUS
10
134.235
20
-105.404
11
134.235
21
-105.404
0
LINE
8
BLACK
6
CONTINUOUS
10
134.235
20
-105.404
11
134.137
21
-105.586
0
LINE
8
BLACK
6
CONTINUOUS
10
134.137
20
-105.586
11
134.006
21
-105.746
0
LINE
8
BLACK
6
CONTINUOUS
10
134.006
20
-105.746
11
133.846
21
-105.877
0
LINE
8
BLACK
6
CONTINUOUS
10
133.846
20
-105.877
11
133.664
21
-105.975
0
LINE
8
BLACK
6
CONTINUOUS
10
133.664
20
-105.975
11
133.664
21
-105.975
0
LINE
8
BLACK
6
CONTINUOUS
10
133.664
20
-105.975
11
133.466
21
-106.035
0
LINE
8
BLACK
6
CONTINUOUS
10
133.466
20
-106.035
11
133.389
21
-106.042
0
LINE
8
BLACK
6
CONTINUOUS
10
133.389
20
-106.042
11
133.312
21
-106.05
0
LINE
8
BLACK
6
CONTINUOUS
10
133.312
20
-106.05
11
133.208
21
-106.05
0
LINE
8
BLACK
6
CONTINUOUS
10
133.208
20
-106.05
11
133.131
21
-106.042
0
LINE
8
BLACK
6
CONTINUOUS
10
133.131
20
-106.042
11
133.054
21
-106.035
0
LINE
8
BLACK
6
CONTINUOUS
10
133.054
20
-106.035
11
132.856
21
-105.975
0
LINE
8
BLACK
6
CONTINUOUS
10
132.856
20
-105.975
11
132.856
21
-105.975
0
LINE
8
BLACK
6
CONTINUOUS
10
132.856
20
-105.975
11
132.674
21
-105.877
0
LINE
8
BLACK
6
CONTINUOUS
10
132.674
20
-105.877
11
132.514
21
-105.746
0
LINE
8
BLACK
6
CONTINUOUS
10
132.514
20
-105.746
11
132.383
21
-105.586
0
LINE
8
BLACK
6
CONTINUOUS
10
132.383
20
-105.586
11
132.285
21
-105.404
0
LINE
8
BLACK
6
CONTINUOUS
10
132.285
20
-105.404
11
132.285
21
-105.404
0
LINE
8
BLACK
6
CONTINUOUS
10
132.285
20
-105.404
11
132.225
21
-105.206
0
LINE
8
BLACK
6
CONTINUOUS
10
132.225
20
-105.206
11
132.205
21
-105
0
LINE
8
BLACK
6
CONTINUOUS
10
132.205
20
-105
11
132.225
21
-104.794
0
LINE
8
BLACK
6
CONTINUOUS
10
132.225
20
-104.794
11
132.285
21
-104.596
0
LINE
8
BLACK
6
CONTINUOUS
10
132.285
20
-104.596
11
132.285
21
-104.596
0
LINE
8
BLACK
6
CONTINUOUS
10
132.285
20
-104.596
11
132.383
21
-104.414
0
LINE
8
BLACK
6
CONTINUOUS
10
132.383
20
-104.414
11
132.514
21
-104.254
0
LINE
8
BLACK
6
CONTINUOUS
10
132.514
20
-104.254
11
132.674
21
-104.123
0
LINE
8
BLACK
6
CONTINUOUS
10
132.674
20
-104.123
11
132.856
21
-104.025
0
LINE
8
BLACK
6
CONTINUOUS
10
132.856
20
-104.025
11
132.856
21
-104.025
0
LINE
8
BLACK
6
CONTINUOUS
10
132.856
20
-104.025
11
133.054
21
-103.965
0
LINE
8
BLACK
6
CONTINUOUS
10
133.054
20
-103.965
11
133.131
21
-103.958
0
LINE
8
BLACK
6
CONTINUOUS
10
133.131
20
-103.958
11
133.208
21
-103.95
0
LINE
8
BLACK
6
CONTINUOUS
10
133.208
20
-103.95
11
133.312
21
-103.95
0
LINE
8
BLACK
6
CONTINUOUS
10
133.312
20
-103.95
11
133.389
21
-103.958
0
LINE
8
BLACK
6
CONTINUOUS
10
134.31
20
-103.51
11
132.21
21
-103.51
0
LINE
8
BLACK
6
CONTINUOUS
10
132.21
20
-103.51
11
132.21
21
-101.41
0
LINE
8
BLACK
6
CONTINUOUS
10
132.21
20
-101.41
11
134.31
21
-101.41
0
LINE
8
BLACK
6
CONTINUOUS
10
134.31
20
-101.41
11
134.31
21
-103.51
  0
ENDSEC
  0
EOF
