<?xml version="1.0" standalone="no"?>
 <!DOCTYPE svg PUBLIC "-//W3C//DTD SVG 1.1//EN" 
 "http://www.w3.org/Graphics/SVG/1.1/DTD/svg11.dtd"> 
<svg xmlns="http://www.w3.org/2000/svg" version="1.1" 
    width="29.7002cm" height="21.0007cm" viewBox="0 0 116930 82680 ">
<title>SVG Picture created as FrogINT_PCBProto_V1811062154-F_Cu.svg date 2019/04/02 16:53:05 </title>
  <desc>Picture generated by PCBNEW </desc>
<g style="fill:#000000; fill-opacity:1;stroke:#000000; stroke-opacity:1;
stroke-linecap:round; stroke-linejoin:round; "
 transform="translate(0 0) scale(1 1)">
</g>
<g style="fill:#000000; fill-opacity:0.0; 
stroke:#000000; stroke-width:-0.000393701; stroke-opacity:1; 
stroke-linecap:round; stroke-linejoin:round;">
<g >
</g>
<g >
</g>
<g >
</g>
<g style="fill:#000000; fill-opacity:0.0; 
stroke:#000000; stroke-width:551.181; stroke-opacity:1; 
stroke-linecap:round; stroke-linejoin:round;">
<path d="M65176 41238
L65766 41238
" />
<path d="M65176 41986
L65766 41986
" />
<path d="M66562 41986
L67152 41986
" />
<path d="M66562 41238
L67152 41238
" />
<path d="M66562 40490
L67152 40490
" />
<path d="M65176 40490
L65766 40490
" />
</g>
<g >
<path d="M60476 34738
L61066 34738
" />
<path d="M60476 35486
L61066 35486
" />
<path d="M61862 35486
L62452 35486
" />
<path d="M61862 34738
L62452 34738
" />
<path d="M61862 33990
L62452 33990
" />
<path d="M60476 33990
L61066 33990
" />
</g>
<g >
<path d="M52276 36438
L52866 36438
" />
<path d="M52276 37186
L52866 37186
" />
<path d="M53662 37186
L54252 37186
" />
<path d="M53662 36438
L54252 36438
" />
<path d="M53662 35690
L54252 35690
" />
<path d="M52276 35690
L52866 35690
" />
</g>
<g >
</g>
<g style="fill:#000000; fill-opacity:0.0; 
stroke:#000000; stroke-width:0; stroke-opacity:1; 
stroke-linecap:round; stroke-linejoin:round;">
</g>
<g style="fill:#000000; fill-opacity:1.0; 
stroke:#000000; stroke-width:0; stroke-opacity:1; 
stroke-linecap:round; stroke-linejoin:round;">
<path style="fill:#000000; fill-opacity:1.0; 
stroke:#000000; stroke-width:0; stroke-opacity:1; 
stroke-linecap:round; stroke-linejoin:round;fill-rule:evenodd;"
d="M 55589,47376
56939,47376
56939,47711
55589,47711
55589,47376
Z" /> 
<path style="fill:#000000; fill-opacity:1.0; 
stroke:#000000; stroke-width:0; stroke-opacity:1; 
stroke-linecap:round; stroke-linejoin:round;fill-rule:evenodd;"
d="M 55589,45565
56939,45565
56939,45900
55589,45900
55589,45565
Z" /> 
</g>
<g >
</g>
<g style="fill:#000000; fill-opacity:1.0; 
stroke:#000000; stroke-width:472.441; stroke-opacity:1; 
stroke-linecap:round; stroke-linejoin:round;">
</g>
<g style="fill:#000000; fill-opacity:0.0; 
stroke:#000000; stroke-width:472.441; stroke-opacity:1; 
stroke-linecap:round; stroke-linejoin:round;">
<path d="M60413 50334
L60413 50807
" />
<path d="M56515 50334
L56515 50807
" />
<path d="M56515 48818
L56515 49173
" />
<path d="M60413 48818
L60413 49173
" />
</g>
<g style="fill:#000000; fill-opacity:0.0; 
stroke:#000000; stroke-width:0; stroke-opacity:1; 
stroke-linecap:round; stroke-linejoin:round;">
</g>
<g style="fill:#000000; fill-opacity:1.0; 
stroke:#000000; stroke-width:0; stroke-opacity:1; 
stroke-linecap:round; stroke-linejoin:round;">
<path style="fill:#000000; fill-opacity:1.0; 
stroke:#000000; stroke-width:0; stroke-opacity:1; 
stroke-linecap:round; stroke-linejoin:round;fill-rule:evenodd;"
d="M 58887,48574
58887,48141
59064,48141
59064,48574
58887,48574
Z" /> 
<path style="fill:#000000; fill-opacity:1.0; 
stroke:#000000; stroke-width:0; stroke-opacity:1; 
stroke-linecap:round; stroke-linejoin:round;fill-rule:evenodd;"
d="M 58631,48574
58631,48141
58809,48141
58809,48574
58631,48574
Z" /> 
<path style="fill:#000000; fill-opacity:1.0; 
stroke:#000000; stroke-width:0; stroke-opacity:1; 
stroke-linecap:round; stroke-linejoin:round;fill-rule:evenodd;"
d="M 58375,48574
58375,48141
58553,48141
58553,48574
58375,48574
Z" /> 
<path style="fill:#000000; fill-opacity:1.0; 
stroke:#000000; stroke-width:0; stroke-opacity:1; 
stroke-linecap:round; stroke-linejoin:round;fill-rule:evenodd;"
d="M 58120,48574
58120,48141
58297,48141
58297,48574
58120,48574
Z" /> 
<path style="fill:#000000; fill-opacity:1.0; 
stroke:#000000; stroke-width:0; stroke-opacity:1; 
stroke-linecap:round; stroke-linejoin:round;fill-rule:evenodd;"
d="M 57864,48574
57864,48141
58041,48141
58041,48574
57864,48574
Z" /> 
</g>
<g >
<path style="fill:#000000; fill-opacity:1.0; 
stroke:#000000; stroke-width:0; stroke-opacity:1; 
stroke-linecap:round; stroke-linejoin:round;fill-rule:evenodd;"
d="M 61780,41350
61780,40670
62607,40670
62607,41350
61780,41350
Z" /> 
<path style="fill:#000000; fill-opacity:1.0; 
stroke:#000000; stroke-width:0; stroke-opacity:1; 
stroke-linecap:round; stroke-linejoin:round;fill-rule:evenodd;"
d="M 62922,41350
62922,40670
63748,40670
63748,41350
62922,41350
Z" /> 
<path style="fill:#000000; fill-opacity:1.0; 
stroke:#000000; stroke-width:0; stroke-opacity:1; 
stroke-linecap:round; stroke-linejoin:round;fill-rule:evenodd;"
d="M 62922,42206
62922,41527
63748,41527
63748,42206
62922,42206
Z" /> 
<path style="fill:#000000; fill-opacity:1.0; 
stroke:#000000; stroke-width:0; stroke-opacity:1; 
stroke-linecap:round; stroke-linejoin:round;fill-rule:evenodd;"
d="M 61780,42206
61780,41527
62607,41527
62607,42206
61780,42206
Z" /> 
</g>
<g >
<path style="fill:#000000; fill-opacity:1.0; 
stroke:#000000; stroke-width:0; stroke-opacity:1; 
stroke-linecap:round; stroke-linejoin:round;fill-rule:evenodd;"
d="M 54582,46468
54592,46469
54601,46471
54610,46475
54619,46479
54627,46484
54635,46490
54642,46496
54648,46503
54654,46511
54659,46519
54663,46528
54667,46537
54669,46546
54670,46556
54671,46566
54671,46812
54670,46821
54669,46831
54667,46840
54663,46849
54659,46858
54654,46866
54648,46874
54642,46881
54635,46888
54627,46894
54619,46899
54610,46903
54601,46906
54592,46908
54582,46910
54572,46910
54356,46910
54346,46910
54337,46908
54327,46906
54318,46903
54309,46899
54301,46894
54293,46888
54286,46881
54280,46874
54274,46866
54269,46858
54265,46849
54262,46840
54259,46831
54258,46821
54257,46812
54257,46566
54258,46556
54259,46546
54262,46537
54265,46528
54269,46519
54274,46511
54280,46503
54286,46496
54293,46490
54301,46484
54309,46479
54318,46475
54327,46471
54337,46469
54346,46468
54356,46467
54572,46467
54582,46468
Z" /> 
<path style="fill:#000000; fill-opacity:1.0; 
stroke:#000000; stroke-width:0; stroke-opacity:1; 
stroke-linecap:round; stroke-linejoin:round;fill-rule:evenodd;"
d="M 54582,47167
54592,47168
54601,47170
54610,47174
54619,47178
54627,47183
54635,47188
54642,47195
54648,47202
54654,47210
54659,47218
54663,47227
54667,47236
54669,47245
54670,47255
54671,47264
54671,47511
54670,47520
54669,47530
54667,47539
54663,47548
54659,47557
54654,47565
54648,47573
54642,47580
54635,47587
54627,47592
54619,47597
54610,47601
54601,47605
54592,47607
54582,47608
54572,47609
54356,47609
54346,47608
54337,47607
54327,47605
54318,47601
54309,47597
54301,47592
54293,47587
54286,47580
54280,47573
54274,47565
54269,47557
54265,47548
54262,47539
54259,47530
54258,47520
54257,47511
54257,47264
54258,47255
54259,47245
54262,47236
54265,47227
54269,47218
54274,47210
54280,47202
54286,47195
54293,47188
54301,47183
54309,47178
54318,47174
54327,47170
54337,47168
54346,47167
54356,47166
54572,47166
54582,47167
Z" /> 
</g>
<g >
<path style="fill:#000000; fill-opacity:1.0; 
stroke:#000000; stroke-width:0; stroke-opacity:1; 
stroke-linecap:round; stroke-linejoin:round;fill-rule:evenodd;"
d="M 57982,37767
57992,37768
58001,37770
58010,37774
58019,37778
58027,37783
58035,37788
58042,37795
58048,37802
58054,37810
58059,37818
58063,37827
58067,37836
58069,37845
58070,37855
58071,37864
58071,38111
58070,38120
58069,38130
58067,38139
58063,38148
58059,38157
58054,38165
58048,38173
58042,38180
58035,38187
58027,38192
58019,38197
58010,38201
58001,38205
57992,38207
57982,38208
57972,38209
57756,38209
57746,38208
57737,38207
57727,38205
57718,38201
57709,38197
57701,38192
57693,38187
57686,38180
57680,38173
57674,38165
57669,38157
57665,38148
57662,38139
57659,38130
57658,38120
57657,38111
57657,37864
57658,37855
57659,37845
57662,37836
57665,37827
57669,37818
57674,37810
57680,37802
57686,37795
57693,37788
57701,37783
57709,37778
57718,37774
57727,37770
57737,37768
57746,37767
57756,37766
57972,37766
57982,37767
Z" /> 
<path style="fill:#000000; fill-opacity:1.0; 
stroke:#000000; stroke-width:0; stroke-opacity:1; 
stroke-linecap:round; stroke-linejoin:round;fill-rule:evenodd;"
d="M 57982,37068
57992,37069
58001,37071
58010,37075
58019,37079
58027,37084
58035,37090
58042,37096
58048,37103
58054,37111
58059,37119
58063,37128
58067,37137
58069,37146
58070,37156
58071,37166
58071,37412
58070,37421
58069,37431
58067,37440
58063,37449
58059,37458
58054,37466
58048,37474
58042,37481
58035,37488
58027,37494
58019,37499
58010,37503
58001,37506
57992,37508
57982,37510
57972,37510
57756,37510
57746,37510
57737,37508
57727,37506
57718,37503
57709,37499
57701,37494
57693,37488
57686,37481
57680,37474
57674,37466
57669,37458
57665,37449
57662,37440
57659,37431
57658,37421
57657,37412
57657,37166
57658,37156
57659,37146
57662,37137
57665,37128
57669,37119
57674,37111
57680,37103
57686,37096
57693,37090
57701,37084
57709,37079
57718,37075
57727,37071
57737,37069
57746,37068
57756,37067
57972,37067
57982,37068
Z" /> 
</g>
<g >
<path style="fill:#000000; fill-opacity:1.0; 
stroke:#000000; stroke-width:0; stroke-opacity:1; 
stroke-linecap:round; stroke-linejoin:round;fill-rule:evenodd;"
d="M 60882,40068
60892,40069
60901,40071
60910,40075
60919,40079
60927,40084
60935,40090
60942,40096
60948,40103
60954,40111
60959,40119
60963,40128
60967,40137
60969,40146
60970,40156
60971,40166
60971,40412
60970,40421
60969,40431
60967,40440
60963,40449
60959,40458
60954,40466
60948,40474
60942,40481
60935,40488
60927,40494
60919,40499
60910,40503
60901,40506
60892,40508
60882,40510
60872,40510
60656,40510
60646,40510
60637,40508
60627,40506
60618,40503
60609,40499
60601,40494
60593,40488
60586,40481
60580,40474
60574,40466
60569,40458
60565,40449
60562,40440
60559,40431
60558,40421
60557,40412
60557,40166
60558,40156
60559,40146
60562,40137
60565,40128
60569,40119
60574,40111
60580,40103
60586,40096
60593,40090
60601,40084
60609,40079
60618,40075
60627,40071
60637,40069
60646,40068
60656,40067
60872,40067
60882,40068
Z" /> 
<path style="fill:#000000; fill-opacity:1.0; 
stroke:#000000; stroke-width:0; stroke-opacity:1; 
stroke-linecap:round; stroke-linejoin:round;fill-rule:evenodd;"
d="M 60882,40767
60892,40768
60901,40770
60910,40774
60919,40778
60927,40783
60935,40788
60942,40795
60948,40802
60954,40810
60959,40818
60963,40827
60967,40836
60969,40845
60970,40855
60971,40864
60971,41111
60970,41120
60969,41130
60967,41139
60963,41148
60959,41157
60954,41165
60948,41173
60942,41180
60935,41187
60927,41192
60919,41197
60910,41201
60901,41205
60892,41207
60882,41208
60872,41209
60656,41209
60646,41208
60637,41207
60627,41205
60618,41201
60609,41197
60601,41192
60593,41187
60586,41180
60580,41173
60574,41165
60569,41157
60565,41148
60562,41139
60559,41130
60558,41120
60557,41111
60557,40864
60558,40855
60559,40845
60562,40836
60565,40827
60569,40818
60574,40810
60580,40802
60586,40795
60593,40788
60601,40783
60609,40778
60618,40774
60627,40770
60637,40768
60646,40767
60656,40766
60872,40766
60882,40767
Z" /> 
</g>
<g >
<path style="fill:#000000; fill-opacity:1.0; 
stroke:#000000; stroke-width:0; stroke-opacity:1; 
stroke-linecap:round; stroke-linejoin:round;fill-rule:evenodd;"
d="M 60882,42367
60892,42368
60901,42370
60910,42374
60919,42378
60927,42383
60935,42388
60942,42395
60948,42402
60954,42410
60959,42418
60963,42427
60967,42436
60969,42445
60970,42455
60971,42464
60971,42711
60970,42720
60969,42730
60967,42739
60963,42748
60959,42757
60954,42765
60948,42773
60942,42780
60935,42787
60927,42792
60919,42797
60910,42801
60901,42805
60892,42807
60882,42808
60872,42809
60656,42809
60646,42808
60637,42807
60627,42805
60618,42801
60609,42797
60601,42792
60593,42787
60586,42780
60580,42773
60574,42765
60569,42757
60565,42748
60562,42739
60559,42730
60558,42720
60557,42711
60557,42464
60558,42455
60559,42445
60562,42436
60565,42427
60569,42418
60574,42410
60580,42402
60586,42395
60593,42388
60601,42383
60609,42378
60618,42374
60627,42370
60637,42368
60646,42367
60656,42366
60872,42366
60882,42367
Z" /> 
<path style="fill:#000000; fill-opacity:1.0; 
stroke:#000000; stroke-width:0; stroke-opacity:1; 
stroke-linecap:round; stroke-linejoin:round;fill-rule:evenodd;"
d="M 60882,41668
60892,41669
60901,41671
60910,41675
60919,41679
60927,41684
60935,41690
60942,41696
60948,41703
60954,41711
60959,41719
60963,41728
60967,41737
60969,41746
60970,41756
60971,41766
60971,42012
60970,42021
60969,42031
60967,42040
60963,42049
60959,42058
60954,42066
60948,42074
60942,42081
60935,42088
60927,42094
60919,42099
60910,42103
60901,42106
60892,42108
60882,42110
60872,42110
60656,42110
60646,42110
60637,42108
60627,42106
60618,42103
60609,42099
60601,42094
60593,42088
60586,42081
60580,42074
60574,42066
60569,42058
60565,42049
60562,42040
60559,42031
60558,42021
60557,42012
60557,41766
60558,41756
60559,41746
60562,41737
60565,41728
60569,41719
60574,41711
60580,41703
60586,41696
60593,41690
60601,41684
60609,41679
60618,41675
60627,41671
60637,41669
60646,41668
60656,41667
60872,41667
60882,41668
Z" /> 
</g>
<g >
<path style="fill:#000000; fill-opacity:1.0; 
stroke:#000000; stroke-width:0; stroke-opacity:1; 
stroke-linecap:round; stroke-linejoin:round;fill-rule:evenodd;"
d="M 63696,46382
63706,46383
63715,46386
63724,46389
63733,46393
63741,46398
63749,46404
63756,46410
63763,46417
63768,46425
63773,46433
63777,46442
63781,46451
63783,46461
63784,46470
63785,46480
63785,46696
63784,46706
63783,46716
63781,46725
63777,46734
63773,46743
63768,46751
63763,46759
63756,46766
63749,46772
63741,46778
63733,46783
63724,46787
63715,46791
63706,46793
63696,46794
63687,46795
63440,46795
63431,46794
63421,46793
63412,46791
63403,46787
63394,46783
63386,46778
63378,46772
63371,46766
63364,46759
63359,46751
63354,46743
63350,46734
63346,46725
63344,46716
63342,46706
63342,46696
63342,46480
63342,46470
63344,46461
63346,46451
63350,46442
63354,46433
63359,46425
63364,46417
63371,46410
63378,46404
63386,46398
63394,46393
63403,46389
63412,46386
63421,46383
63431,46382
63440,46381
63687,46381
63696,46382
Z" /> 
<path style="fill:#000000; fill-opacity:1.0; 
stroke:#000000; stroke-width:0; stroke-opacity:1; 
stroke-linecap:round; stroke-linejoin:round;fill-rule:evenodd;"
d="M 62997,46382
63007,46383
63016,46386
63025,46389
63034,46393
63042,46398
63050,46404
63057,46410
63064,46417
63070,46425
63074,46433
63079,46442
63082,46451
63084,46461
63086,46470
63086,46480
63086,46696
63086,46706
63084,46716
63082,46725
63079,46734
63074,46743
63070,46751
63064,46759
63057,46766
63050,46772
63042,46778
63034,46783
63025,46787
63016,46791
63007,46793
62997,46794
62988,46795
62742,46795
62732,46794
62722,46793
62713,46791
62704,46787
62695,46783
62687,46778
62679,46772
62672,46766
62666,46759
62660,46751
62655,46743
62651,46734
62647,46725
62645,46716
62644,46706
62643,46696
62643,46480
62644,46470
62645,46461
62647,46451
62651,46442
62655,46433
62660,46425
62666,46417
62672,46410
62679,46404
62687,46398
62695,46393
62704,46389
62713,46386
62722,46383
62732,46382
62742,46381
62988,46381
62997,46382
Z" /> 
</g>
<g >
</g>
<g style="fill:#000000; fill-opacity:1.0; 
stroke:#000000; stroke-width:669.291; stroke-opacity:1; 
stroke-linecap:round; stroke-linejoin:round;">
</g>
<g style="fill:#000000; fill-opacity:0.0; 
stroke:#000000; stroke-width:669.291; stroke-opacity:1; 
stroke-linecap:round; stroke-linejoin:round;">
<path d="M52464 42338
L52464 42338
" />
<path d="M52464 41338
L52464 41338
" />
</g>
<g style="fill:#000000; fill-opacity:0.0; 
stroke:#000000; stroke-width:0; stroke-opacity:1; 
stroke-linecap:round; stroke-linejoin:round;">
</g>
<g style="fill:#000000; fill-opacity:1.0; 
stroke:#000000; stroke-width:0; stroke-opacity:1; 
stroke-linecap:round; stroke-linejoin:round;">
<path style="fill:#000000; fill-opacity:1.0; 
stroke:#000000; stroke-width:0; stroke-opacity:1; 
stroke-linecap:round; stroke-linejoin:round;fill-rule:evenodd;"
d="M 52129,40673
52129,40003
52799,40003
52799,40673
52129,40673
Z" /> 
</g>
<g >
<circle cx="51664.6" cy="44638.6" r="196.85" /> 
</g>
<g style="fill:#000000; fill-opacity:1.0; 
stroke:#000000; stroke-width:39.3701; stroke-opacity:1; 
stroke-linecap:round; stroke-linejoin:round;">
</g>
<g style="fill:#000000; fill-opacity:1.0; 
stroke:#000000; stroke-width:0; stroke-opacity:1; 
stroke-linecap:round; stroke-linejoin:round;">
<circle cx="52164.6" cy="44638.6" r="196.85" /> 
</g>
<g style="fill:#000000; fill-opacity:1.0; 
stroke:#000000; stroke-width:39.3701; stroke-opacity:1; 
stroke-linecap:round; stroke-linejoin:round;">
</g>
<g style="fill:#000000; fill-opacity:1.0; 
stroke:#000000; stroke-width:0; stroke-opacity:1; 
stroke-linecap:round; stroke-linejoin:round;">
<circle cx="51664.6" cy="45138.6" r="196.85" /> 
</g>
<g style="fill:#000000; fill-opacity:1.0; 
stroke:#000000; stroke-width:39.3701; stroke-opacity:1; 
stroke-linecap:round; stroke-linejoin:round;">
</g>
<g style="fill:#000000; fill-opacity:1.0; 
stroke:#000000; stroke-width:0; stroke-opacity:1; 
stroke-linecap:round; stroke-linejoin:round;">
<circle cx="52164.6" cy="45138.6" r="196.85" /> 
</g>
<g style="fill:#000000; fill-opacity:1.0; 
stroke:#000000; stroke-width:39.3701; stroke-opacity:1; 
stroke-linecap:round; stroke-linejoin:round;">
</g>
<g style="fill:#000000; fill-opacity:1.0; 
stroke:#000000; stroke-width:0; stroke-opacity:1; 
stroke-linecap:round; stroke-linejoin:round;">
<circle cx="51664.6" cy="45638.6" r="196.85" /> 
</g>
<g style="fill:#000000; fill-opacity:1.0; 
stroke:#000000; stroke-width:39.3701; stroke-opacity:1; 
stroke-linecap:round; stroke-linejoin:round;">
</g>
<g style="fill:#000000; fill-opacity:1.0; 
stroke:#000000; stroke-width:0; stroke-opacity:1; 
stroke-linecap:round; stroke-linejoin:round;">
<circle cx="52164.6" cy="45638.6" r="196.85" /> 
</g>
<g style="fill:#000000; fill-opacity:1.0; 
stroke:#000000; stroke-width:39.3701; stroke-opacity:1; 
stroke-linecap:round; stroke-linejoin:round;">
</g>
<g style="fill:#000000; fill-opacity:1.0; 
stroke:#000000; stroke-width:0; stroke-opacity:1; 
stroke-linecap:round; stroke-linejoin:round;">
<circle cx="51664.6" cy="46138.6" r="196.85" /> 
</g>
<g style="fill:#000000; fill-opacity:1.0; 
stroke:#000000; stroke-width:39.3701; stroke-opacity:1; 
stroke-linecap:round; stroke-linejoin:round;">
</g>
<g style="fill:#000000; fill-opacity:1.0; 
stroke:#000000; stroke-width:0; stroke-opacity:1; 
stroke-linecap:round; stroke-linejoin:round;">
<circle cx="52164.6" cy="46138.6" r="196.85" /> 
</g>
<g style="fill:#000000; fill-opacity:1.0; 
stroke:#000000; stroke-width:39.3701; stroke-opacity:1; 
stroke-linecap:round; stroke-linejoin:round;">
</g>
<g style="fill:#000000; fill-opacity:1.0; 
stroke:#000000; stroke-width:0; stroke-opacity:1; 
stroke-linecap:round; stroke-linejoin:round;">
<circle cx="51664.6" cy="46638.6" r="196.85" /> 
</g>
<g style="fill:#000000; fill-opacity:1.0; 
stroke:#000000; stroke-width:39.3701; stroke-opacity:1; 
stroke-linecap:round; stroke-linejoin:round;">
</g>
<g style="fill:#000000; fill-opacity:1.0; 
stroke:#000000; stroke-width:0; stroke-opacity:1; 
stroke-linecap:round; stroke-linejoin:round;">
<path style="fill:#000000; fill-opacity:1.0; 
stroke:#000000; stroke-width:0; stroke-opacity:1; 
stroke-linecap:round; stroke-linejoin:round;fill-rule:evenodd;"
d="M 52361,46441
52361,46835
51967,46835
51967,46441
52361,46441
Z" /> 
</g>
<g >
<circle cx="64714.6" cy="46588.6" r="492.126" /> 
</g>
<g style="fill:#000000; fill-opacity:1.0; 
stroke:#000000; stroke-width:39.3701; stroke-opacity:1; 
stroke-linecap:round; stroke-linejoin:round;">
</g>
<g >
</g>
<g style="fill:#000000; fill-opacity:1.0; 
stroke:#000000; stroke-width:0; stroke-opacity:1; 
stroke-linecap:round; stroke-linejoin:round;">
<path style="fill:#000000; fill-opacity:1.0; 
stroke:#000000; stroke-width:0; stroke-opacity:1; 
stroke-linecap:round; stroke-linejoin:round;fill-rule:evenodd;"
d="M 62749,47401
62757,47403
62765,47405
62773,47408
62781,47411
62788,47416
62795,47421
62801,47426
62807,47433
62812,47439
62816,47447
62820,47454
62823,47462
62825,47470
62826,47479
62826,47487
62826,47689
62826,47697
62825,47706
62823,47714
62820,47722
62816,47730
62812,47737
62807,47744
62801,47750
62795,47756
62788,47761
62781,47765
62773,47769
62765,47771
62757,47773
62749,47775
62740,47775
62568,47775
62559,47775
62551,47773
62543,47771
62535,47769
62527,47765
62520,47761
62513,47756
62507,47750
62501,47744
62496,47737
62492,47730
62488,47722
62485,47714
62483,47706
62482,47697
62482,47689
62482,47487
62482,47479
62483,47470
62485,47462
62488,47454
62492,47447
62496,47439
62501,47433
62507,47426
62513,47421
62520,47416
62527,47411
62535,47408
62543,47405
62551,47403
62559,47401
62568,47401
62740,47401
62749,47401
Z" /> 
<path style="fill:#000000; fill-opacity:1.0; 
stroke:#000000; stroke-width:0; stroke-opacity:1; 
stroke-linecap:round; stroke-linejoin:round;fill-rule:evenodd;"
d="M 63369,47401
63377,47403
63385,47405
63393,47408
63401,47411
63408,47416
63415,47421
63421,47426
63427,47433
63432,47439
63436,47447
63440,47454
63443,47462
63445,47470
63446,47479
63446,47487
63446,47689
63446,47697
63445,47706
63443,47714
63440,47722
63436,47730
63432,47737
63427,47744
63421,47750
63415,47756
63408,47761
63401,47765
63393,47769
63385,47771
63377,47773
63369,47775
63360,47775
63188,47775
63180,47775
63171,47773
63163,47771
63155,47769
63147,47765
63140,47761
63133,47756
63127,47750
63121,47744
63116,47737
63112,47730
63108,47722
63106,47714
63104,47706
63102,47697
63102,47689
63102,47487
63102,47479
63104,47470
63106,47462
63108,47454
63112,47447
63116,47439
63121,47433
63127,47426
63133,47421
63140,47416
63147,47411
63155,47408
63163,47405
63171,47403
63180,47401
63188,47401
63360,47401
63369,47401
Z" /> 
</g>
<g >
<path style="fill:#000000; fill-opacity:1.0; 
stroke:#000000; stroke-width:0; stroke-opacity:1; 
stroke-linecap:round; stroke-linejoin:round;fill-rule:evenodd;"
d="M 59073,47166
59082,47167
59090,47169
59098,47172
59106,47176
59113,47180
59120,47185
59126,47191
59132,47197
59137,47204
59141,47211
59145,47219
59147,47227
59149,47235
59151,47243
59151,47252
59151,47424
59151,47432
59149,47441
59147,47449
59145,47457
59141,47465
59137,47472
59132,47479
59126,47485
59120,47491
59113,47496
59106,47500
59098,47504
59090,47506
59082,47508
59073,47510
59065,47510
58863,47510
58855,47510
58846,47508
58838,47506
58830,47504
58823,47500
58815,47496
58809,47491
58802,47485
58797,47479
58792,47472
58787,47465
58784,47457
58781,47449
58779,47441
58777,47432
58777,47424
58777,47252
58777,47243
58779,47235
58781,47227
58784,47219
58787,47211
58792,47204
58797,47197
58802,47191
58809,47185
58815,47180
58823,47176
58830,47172
58838,47169
58846,47167
58855,47166
58863,47166
59065,47166
59073,47166
Z" /> 
<path style="fill:#000000; fill-opacity:1.0; 
stroke:#000000; stroke-width:0; stroke-opacity:1; 
stroke-linecap:round; stroke-linejoin:round;fill-rule:evenodd;"
d="M 59073,46546
59082,46547
59090,46549
59098,46552
59106,46556
59113,46560
59120,46565
59126,46571
59132,46577
59137,46584
59141,46591
59145,46599
59147,46607
59149,46615
59151,46623
59151,46632
59151,46804
59151,46812
59149,46821
59147,46829
59145,46837
59141,46845
59137,46852
59132,46859
59126,46865
59120,46871
59113,46876
59106,46880
59098,46883
59090,46886
59082,46888
59073,46890
59065,46890
58863,46890
58855,46890
58846,46888
58838,46886
58830,46883
58823,46880
58815,46876
58809,46871
58802,46865
58797,46859
58792,46852
58787,46845
58784,46837
58781,46829
58779,46821
58777,46812
58777,46804
58777,46632
58777,46623
58779,46615
58781,46607
58784,46599
58787,46591
58792,46584
58797,46577
58802,46571
58809,46565
58815,46560
58823,46556
58830,46552
58838,46549
58846,46547
58855,46546
58863,46546
59065,46546
59073,46546
Z" /> 
</g>
<g >
<path style="fill:#000000; fill-opacity:1.0; 
stroke:#000000; stroke-width:0; stroke-opacity:1; 
stroke-linecap:round; stroke-linejoin:round;fill-rule:evenodd;"
d="M 58323,47166
58332,47167
58340,47169
58348,47172
58356,47176
58363,47180
58370,47185
58376,47191
58382,47197
58387,47204
58391,47211
58395,47219
58397,47227
58399,47235
58401,47243
58401,47252
58401,47424
58401,47432
58399,47441
58397,47449
58395,47457
58391,47465
58387,47472
58382,47479
58376,47485
58370,47491
58363,47496
58356,47500
58348,47504
58340,47506
58332,47508
58323,47510
58315,47510
58113,47510
58105,47510
58096,47508
58088,47506
58080,47504
58073,47500
58065,47496
58059,47491
58052,47485
58047,47479
58042,47472
58037,47465
58034,47457
58031,47449
58029,47441
58027,47432
58027,47424
58027,47252
58027,47243
58029,47235
58031,47227
58034,47219
58037,47211
58042,47204
58047,47197
58052,47191
58059,47185
58065,47180
58073,47176
58080,47172
58088,47169
58096,47167
58105,47166
58113,47166
58315,47166
58323,47166
Z" /> 
<path style="fill:#000000; fill-opacity:1.0; 
stroke:#000000; stroke-width:0; stroke-opacity:1; 
stroke-linecap:round; stroke-linejoin:round;fill-rule:evenodd;"
d="M 58323,46546
58332,46547
58340,46549
58348,46552
58356,46556
58363,46560
58370,46565
58376,46571
58382,46577
58387,46584
58391,46591
58395,46599
58397,46607
58399,46615
58401,46623
58401,46632
58401,46804
58401,46812
58399,46821
58397,46829
58395,46837
58391,46845
58387,46852
58382,46859
58376,46865
58370,46871
58363,46876
58356,46880
58348,46883
58340,46886
58332,46888
58323,46890
58315,46890
58113,46890
58105,46890
58096,46888
58088,46886
58080,46883
58073,46880
58065,46876
58059,46871
58052,46865
58047,46859
58042,46852
58037,46845
58034,46837
58031,46829
58029,46821
58027,46812
58027,46804
58027,46632
58027,46623
58029,46615
58031,46607
58034,46599
58037,46591
58042,46584
58047,46577
58052,46571
58059,46565
58065,46560
58073,46556
58080,46552
58088,46549
58096,46547
58105,46546
58113,46546
58315,46546
58323,46546
Z" /> 
</g>
<g >
<path style="fill:#000000; fill-opacity:1.0; 
stroke:#000000; stroke-width:0; stroke-opacity:1; 
stroke-linecap:round; stroke-linejoin:round;fill-rule:evenodd;"
d="M 58973,37156
58982,37157
58990,37160
58998,37162
59006,37166
59013,37170
59020,37175
59026,37181
59032,37187
59037,37194
59041,37201
59045,37209
59047,37217
59049,37225
59051,37233
59051,37242
59051,37414
59051,37423
59049,37431
59047,37439
59045,37447
59041,37455
59037,37462
59032,37469
59026,37475
59020,37481
59013,37486
59006,37490
58998,37494
58990,37497
58982,37499
58973,37500
58965,37500
58763,37500
58755,37500
58746,37499
58738,37497
58730,37494
58723,37490
58715,37486
58709,37481
58702,37475
58697,37469
58692,37462
58687,37455
58684,37447
58681,37439
58679,37431
58677,37423
58677,37414
58677,37242
58677,37233
58679,37225
58681,37217
58684,37209
58687,37201
58692,37194
58697,37187
58702,37181
58709,37175
58715,37170
58723,37166
58730,37162
58738,37160
58746,37157
58755,37156
58763,37156
58965,37156
58973,37156
Z" /> 
<path style="fill:#000000; fill-opacity:1.0; 
stroke:#000000; stroke-width:0; stroke-opacity:1; 
stroke-linecap:round; stroke-linejoin:round;fill-rule:evenodd;"
d="M 58973,37776
58982,37778
58990,37780
58998,37782
59006,37786
59013,37790
59020,37795
59026,37801
59032,37807
59037,37814
59041,37821
59045,37829
59047,37837
59049,37845
59051,37854
59051,37862
59051,38034
59051,38043
59049,38051
59047,38059
59045,38067
59041,38075
59037,38082
59032,38089
59026,38095
59020,38101
59013,38106
59006,38110
58998,38114
58990,38117
58982,38119
58973,38120
58965,38120
58763,38120
58755,38120
58746,38119
58738,38117
58730,38114
58723,38110
58715,38106
58709,38101
58702,38095
58697,38089
58692,38082
58687,38075
58684,38067
58681,38059
58679,38051
58677,38043
58677,38034
58677,37862
58677,37854
58679,37845
58681,37837
58684,37829
58687,37821
58692,37814
58697,37807
58702,37801
58709,37795
58715,37790
58723,37786
58730,37782
58738,37780
58746,37778
58755,37776
58763,37776
58965,37776
58973,37776
Z" /> 
</g>
<g >
<path style="fill:#000000; fill-opacity:1.0; 
stroke:#000000; stroke-width:0; stroke-opacity:1; 
stroke-linecap:round; stroke-linejoin:round;fill-rule:evenodd;"
d="M 60873,43976
60882,43978
60890,43980
60898,43982
60906,43986
60913,43990
60920,43995
60926,44001
60932,44007
60937,44014
60941,44021
60945,44029
60947,44037
60949,44045
60951,44054
60951,44062
60951,44234
60951,44243
60949,44251
60947,44259
60945,44267
60941,44275
60937,44282
60932,44289
60926,44295
60920,44301
60913,44306
60906,44310
60898,44314
60890,44317
60882,44319
60873,44320
60865,44320
60663,44320
60655,44320
60646,44319
60638,44317
60630,44314
60623,44310
60615,44306
60609,44301
60602,44295
60597,44289
60592,44282
60587,44275
60584,44267
60581,44259
60579,44251
60577,44243
60577,44234
60577,44062
60577,44054
60579,44045
60581,44037
60584,44029
60587,44021
60592,44014
60597,44007
60602,44001
60609,43995
60615,43990
60623,43986
60630,43982
60638,43980
60646,43978
60655,43976
60663,43976
60865,43976
60873,43976
Z" /> 
<path style="fill:#000000; fill-opacity:1.0; 
stroke:#000000; stroke-width:0; stroke-opacity:1; 
stroke-linecap:round; stroke-linejoin:round;fill-rule:evenodd;"
d="M 60873,43356
60882,43357
60890,43360
60898,43362
60906,43366
60913,43370
60920,43375
60926,43381
60932,43387
60937,43394
60941,43401
60945,43409
60947,43417
60949,43425
60951,43433
60951,43442
60951,43614
60951,43623
60949,43631
60947,43639
60945,43647
60941,43655
60937,43662
60932,43669
60926,43675
60920,43681
60913,43686
60906,43690
60898,43694
60890,43697
60882,43699
60873,43700
60865,43700
60663,43700
60655,43700
60646,43699
60638,43697
60630,43694
60623,43690
60615,43686
60609,43681
60602,43675
60597,43669
60592,43662
60587,43655
60584,43647
60581,43639
60579,43631
60577,43623
60577,43614
60577,43442
60577,43433
60579,43425
60581,43417
60584,43409
60587,43401
60592,43394
60597,43387
60602,43381
60609,43375
60615,43370
60623,43366
60630,43362
60638,43360
60646,43357
60655,43356
60663,43356
60865,43356
60873,43356
Z" /> 
</g>
<g >
<path style="fill:#000000; fill-opacity:1.0; 
stroke:#000000; stroke-width:0; stroke-opacity:1; 
stroke-linecap:round; stroke-linejoin:round;fill-rule:evenodd;"
d="M 55315,42805
55315,43021
54725,43021
54725,42805
55315,42805
Z" /> 
<path style="fill:#000000; fill-opacity:1.0; 
stroke:#000000; stroke-width:0; stroke-opacity:1; 
stroke-linecap:round; stroke-linejoin:round;fill-rule:evenodd;"
d="M 55315,42490
55315,42706
54725,42706
54725,42490
55315,42490
Z" /> 
<path style="fill:#000000; fill-opacity:1.0; 
stroke:#000000; stroke-width:0; stroke-opacity:1; 
stroke-linecap:round; stroke-linejoin:round;fill-rule:evenodd;"
d="M 55315,42175
55315,42391
54725,42391
54725,42175
55315,42175
Z" /> 
<path style="fill:#000000; fill-opacity:1.0; 
stroke:#000000; stroke-width:0; stroke-opacity:1; 
stroke-linecap:round; stroke-linejoin:round;fill-rule:evenodd;"
d="M 55315,41860
55315,42076
54725,42076
54725,41860
55315,41860
Z" /> 
<path style="fill:#000000; fill-opacity:1.0; 
stroke:#000000; stroke-width:0; stroke-opacity:1; 
stroke-linecap:round; stroke-linejoin:round;fill-rule:evenodd;"
d="M 55315,41545
55315,41761
54725,41761
54725,41545
55315,41545
Z" /> 
<path style="fill:#000000; fill-opacity:1.0; 
stroke:#000000; stroke-width:0; stroke-opacity:1; 
stroke-linecap:round; stroke-linejoin:round;fill-rule:evenodd;"
d="M 55315,41230
55315,41446
54725,41446
54725,41230
55315,41230
Z" /> 
<path style="fill:#000000; fill-opacity:1.0; 
stroke:#000000; stroke-width:0; stroke-opacity:1; 
stroke-linecap:round; stroke-linejoin:round;fill-rule:evenodd;"
d="M 55315,40915
55315,41131
54725,41131
54725,40915
55315,40915
Z" /> 
<path style="fill:#000000; fill-opacity:1.0; 
stroke:#000000; stroke-width:0; stroke-opacity:1; 
stroke-linecap:round; stroke-linejoin:round;fill-rule:evenodd;"
d="M 55315,40600
55315,40816
54725,40816
54725,40600
55315,40600
Z" /> 
<path style="fill:#000000; fill-opacity:1.0; 
stroke:#000000; stroke-width:0; stroke-opacity:1; 
stroke-linecap:round; stroke-linejoin:round;fill-rule:evenodd;"
d="M 55315,40285
55315,40501
54725,40501
54725,40285
55315,40285
Z" /> 
<path style="fill:#000000; fill-opacity:1.0; 
stroke:#000000; stroke-width:0; stroke-opacity:1; 
stroke-linecap:round; stroke-linejoin:round;fill-rule:evenodd;"
d="M 55315,39970
55315,40187
54725,40187
54725,39970
55315,39970
Z" /> 
<path style="fill:#000000; fill-opacity:1.0; 
stroke:#000000; stroke-width:0; stroke-opacity:1; 
stroke-linecap:round; stroke-linejoin:round;fill-rule:evenodd;"
d="M 55315,39655
55315,39872
54725,39872
54725,39655
55315,39655
Z" /> 
<path style="fill:#000000; fill-opacity:1.0; 
stroke:#000000; stroke-width:0; stroke-opacity:1; 
stroke-linecap:round; stroke-linejoin:round;fill-rule:evenodd;"
d="M 55798,39389
55581,39389
55581,38799
55798,38799
55798,39389
Z" /> 
<path style="fill:#000000; fill-opacity:1.0; 
stroke:#000000; stroke-width:0; stroke-opacity:1; 
stroke-linecap:round; stroke-linejoin:round;fill-rule:evenodd;"
d="M 56112,39389
55896,39389
55896,38799
56112,38799
56112,39389
Z" /> 
<path style="fill:#000000; fill-opacity:1.0; 
stroke:#000000; stroke-width:0; stroke-opacity:1; 
stroke-linecap:round; stroke-linejoin:round;fill-rule:evenodd;"
d="M 56427,39389
56211,39389
56211,38799
56427,38799
56427,39389
Z" /> 
<path style="fill:#000000; fill-opacity:1.0; 
stroke:#000000; stroke-width:0; stroke-opacity:1; 
stroke-linecap:round; stroke-linejoin:round;fill-rule:evenodd;"
d="M 56742,39389
56526,39389
56526,38799
56742,38799
56742,39389
Z" /> 
<path style="fill:#000000; fill-opacity:1.0; 
stroke:#000000; stroke-width:0; stroke-opacity:1; 
stroke-linecap:round; stroke-linejoin:round;fill-rule:evenodd;"
d="M 57057,39389
56841,39389
56841,38799
57057,38799
57057,39389
Z" /> 
<path style="fill:#000000; fill-opacity:1.0; 
stroke:#000000; stroke-width:0; stroke-opacity:1; 
stroke-linecap:round; stroke-linejoin:round;fill-rule:evenodd;"
d="M 57372,39389
57156,39389
57156,38799
57372,38799
57372,39389
Z" /> 
<path style="fill:#000000; fill-opacity:1.0; 
stroke:#000000; stroke-width:0; stroke-opacity:1; 
stroke-linecap:round; stroke-linejoin:round;fill-rule:evenodd;"
d="M 57687,39389
57471,39389
57471,38799
57687,38799
57687,39389
Z" /> 
<path style="fill:#000000; fill-opacity:1.0; 
stroke:#000000; stroke-width:0; stroke-opacity:1; 
stroke-linecap:round; stroke-linejoin:round;fill-rule:evenodd;"
d="M 58002,39389
57786,39389
57786,38799
58002,38799
58002,39389
Z" /> 
<path style="fill:#000000; fill-opacity:1.0; 
stroke:#000000; stroke-width:0; stroke-opacity:1; 
stroke-linecap:round; stroke-linejoin:round;fill-rule:evenodd;"
d="M 58317,39389
58101,39389
58101,38799
58317,38799
58317,39389
Z" /> 
<path style="fill:#000000; fill-opacity:1.0; 
stroke:#000000; stroke-width:0; stroke-opacity:1; 
stroke-linecap:round; stroke-linejoin:round;fill-rule:evenodd;"
d="M 58632,39389
58416,39389
58416,38799
58632,38799
58632,39389
Z" /> 
<path style="fill:#000000; fill-opacity:1.0; 
stroke:#000000; stroke-width:0; stroke-opacity:1; 
stroke-linecap:round; stroke-linejoin:round;fill-rule:evenodd;"
d="M 58947,39389
58731,39389
58731,38799
58947,38799
58947,39389
Z" /> 
<path style="fill:#000000; fill-opacity:1.0; 
stroke:#000000; stroke-width:0; stroke-opacity:1; 
stroke-linecap:round; stroke-linejoin:round;fill-rule:evenodd;"
d="M 59803,39655
59803,39872
59213,39872
59213,39655
59803,39655
Z" /> 
<path style="fill:#000000; fill-opacity:1.0; 
stroke:#000000; stroke-width:0; stroke-opacity:1; 
stroke-linecap:round; stroke-linejoin:round;fill-rule:evenodd;"
d="M 59803,39970
59803,40187
59213,40187
59213,39970
59803,39970
Z" /> 
<path style="fill:#000000; fill-opacity:1.0; 
stroke:#000000; stroke-width:0; stroke-opacity:1; 
stroke-linecap:round; stroke-linejoin:round;fill-rule:evenodd;"
d="M 59803,40285
59803,40501
59213,40501
59213,40285
59803,40285
Z" /> 
<path style="fill:#000000; fill-opacity:1.0; 
stroke:#000000; stroke-width:0; stroke-opacity:1; 
stroke-linecap:round; stroke-linejoin:round;fill-rule:evenodd;"
d="M 59803,40600
59803,40816
59213,40816
59213,40600
59803,40600
Z" /> 
<path style="fill:#000000; fill-opacity:1.0; 
stroke:#000000; stroke-width:0; stroke-opacity:1; 
stroke-linecap:round; stroke-linejoin:round;fill-rule:evenodd;"
d="M 59803,40915
59803,41131
59213,41131
59213,40915
59803,40915
Z" /> 
<path style="fill:#000000; fill-opacity:1.0; 
stroke:#000000; stroke-width:0; stroke-opacity:1; 
stroke-linecap:round; stroke-linejoin:round;fill-rule:evenodd;"
d="M 59803,41230
59803,41446
59213,41446
59213,41230
59803,41230
Z" /> 
<path style="fill:#000000; fill-opacity:1.0; 
stroke:#000000; stroke-width:0; stroke-opacity:1; 
stroke-linecap:round; stroke-linejoin:round;fill-rule:evenodd;"
d="M 59803,41545
59803,41761
59213,41761
59213,41545
59803,41545
Z" /> 
<path style="fill:#000000; fill-opacity:1.0; 
stroke:#000000; stroke-width:0; stroke-opacity:1; 
stroke-linecap:round; stroke-linejoin:round;fill-rule:evenodd;"
d="M 59803,41860
59803,42076
59213,42076
59213,41860
59803,41860
Z" /> 
<path style="fill:#000000; fill-opacity:1.0; 
stroke:#000000; stroke-width:0; stroke-opacity:1; 
stroke-linecap:round; stroke-linejoin:round;fill-rule:evenodd;"
d="M 59803,42175
59803,42391
59213,42391
59213,42175
59803,42175
Z" /> 
<path style="fill:#000000; fill-opacity:1.0; 
stroke:#000000; stroke-width:0; stroke-opacity:1; 
stroke-linecap:round; stroke-linejoin:round;fill-rule:evenodd;"
d="M 59803,42490
59803,42706
59213,42706
59213,42490
59803,42490
Z" /> 
<path style="fill:#000000; fill-opacity:1.0; 
stroke:#000000; stroke-width:0; stroke-opacity:1; 
stroke-linecap:round; stroke-linejoin:round;fill-rule:evenodd;"
d="M 59803,42805
59803,43021
59213,43021
59213,42805
59803,42805
Z" /> 
<path style="fill:#000000; fill-opacity:1.0; 
stroke:#000000; stroke-width:0; stroke-opacity:1; 
stroke-linecap:round; stroke-linejoin:round;fill-rule:evenodd;"
d="M 58947,43877
58731,43877
58731,43287
58947,43287
58947,43877
Z" /> 
<path style="fill:#000000; fill-opacity:1.0; 
stroke:#000000; stroke-width:0; stroke-opacity:1; 
stroke-linecap:round; stroke-linejoin:round;fill-rule:evenodd;"
d="M 58632,43877
58416,43877
58416,43287
58632,43287
58632,43877
Z" /> 
<path style="fill:#000000; fill-opacity:1.0; 
stroke:#000000; stroke-width:0; stroke-opacity:1; 
stroke-linecap:round; stroke-linejoin:round;fill-rule:evenodd;"
d="M 58317,43877
58101,43877
58101,43287
58317,43287
58317,43877
Z" /> 
<path style="fill:#000000; fill-opacity:1.0; 
stroke:#000000; stroke-width:0; stroke-opacity:1; 
stroke-linecap:round; stroke-linejoin:round;fill-rule:evenodd;"
d="M 58002,43877
57786,43877
57786,43287
58002,43287
58002,43877
Z" /> 
<path style="fill:#000000; fill-opacity:1.0; 
stroke:#000000; stroke-width:0; stroke-opacity:1; 
stroke-linecap:round; stroke-linejoin:round;fill-rule:evenodd;"
d="M 57687,43877
57471,43877
57471,43287
57687,43287
57687,43877
Z" /> 
<path style="fill:#000000; fill-opacity:1.0; 
stroke:#000000; stroke-width:0; stroke-opacity:1; 
stroke-linecap:round; stroke-linejoin:round;fill-rule:evenodd;"
d="M 57372,43877
57156,43877
57156,43287
57372,43287
57372,43877
Z" /> 
<path style="fill:#000000; fill-opacity:1.0; 
stroke:#000000; stroke-width:0; stroke-opacity:1; 
stroke-linecap:round; stroke-linejoin:round;fill-rule:evenodd;"
d="M 57057,43877
56841,43877
56841,43287
57057,43287
57057,43877
Z" /> 
<path style="fill:#000000; fill-opacity:1.0; 
stroke:#000000; stroke-width:0; stroke-opacity:1; 
stroke-linecap:round; stroke-linejoin:round;fill-rule:evenodd;"
d="M 56742,43877
56526,43877
56526,43287
56742,43287
56742,43877
Z" /> 
<path style="fill:#000000; fill-opacity:1.0; 
stroke:#000000; stroke-width:0; stroke-opacity:1; 
stroke-linecap:round; stroke-linejoin:round;fill-rule:evenodd;"
d="M 56427,43877
56211,43877
56211,43287
56427,43287
56427,43877
Z" /> 
<path style="fill:#000000; fill-opacity:1.0; 
stroke:#000000; stroke-width:0; stroke-opacity:1; 
stroke-linecap:round; stroke-linejoin:round;fill-rule:evenodd;"
d="M 56112,43877
55896,43877
55896,43287
56112,43287
56112,43877
Z" /> 
<path style="fill:#000000; fill-opacity:1.0; 
stroke:#000000; stroke-width:0; stroke-opacity:1; 
stroke-linecap:round; stroke-linejoin:round;fill-rule:evenodd;"
d="M 55798,43877
55581,43877
55581,43287
55798,43287
55798,43877
Z" /> 
</g>
<g >
<circle cx="58957.3" cy="41990.2" r="157.48" /> 
</g>
<g style="fill:#000000; fill-opacity:1.0; 
stroke:#000000; stroke-width:39.3701; stroke-opacity:1; 
stroke-linecap:round; stroke-linejoin:round;">
</g>
<g style="fill:#000000; fill-opacity:1.0; 
stroke:#000000; stroke-width:0; stroke-opacity:1; 
stroke-linecap:round; stroke-linejoin:round;">
<circle cx="53371.5" cy="42901.9" r="157.48" /> 
</g>
<g style="fill:#000000; fill-opacity:1.0; 
stroke:#000000; stroke-width:39.3701; stroke-opacity:1; 
stroke-linecap:round; stroke-linejoin:round;">
</g>
<g style="fill:#000000; fill-opacity:1.0; 
stroke:#000000; stroke-width:0; stroke-opacity:1; 
stroke-linecap:round; stroke-linejoin:round;">
<circle cx="53267.2" cy="36812.6" r="157.48" /> 
</g>
<g style="fill:#000000; fill-opacity:1.0; 
stroke:#000000; stroke-width:39.3701; stroke-opacity:1; 
stroke-linecap:round; stroke-linejoin:round;">
</g>
<g style="fill:#000000; fill-opacity:1.0; 
stroke:#000000; stroke-width:0; stroke-opacity:1; 
stroke-linecap:round; stroke-linejoin:round;">
<circle cx="58330.6" cy="42875.8" r="157.48" /> 
</g>
<g style="fill:#000000; fill-opacity:1.0; 
stroke:#000000; stroke-width:39.3701; stroke-opacity:1; 
stroke-linecap:round; stroke-linejoin:round;">
</g>
<g >
</g>
<g style="fill:#000000; fill-opacity:1.0; 
stroke:#000000; stroke-width:98.4252; stroke-opacity:1; 
stroke-linecap:round; stroke-linejoin:round;">
</g>
<g style="fill:#000000; fill-opacity:0.0; 
stroke:#000000; stroke-width:98.4252; stroke-opacity:1; 
stroke-linecap:round; stroke-linejoin:round;">
<path d="M63335 41866
L62793 41866
" />
<path d="M62193 41010
L62735 41010
" />
<path d="M62735 41010
L62735 41807
" />
<path d="M62735 41807
L62793 41866
" />
<path d="M60764 40289
L61485 41010
" />
<path d="M61485 41010
L62193 41010
" />
<path d="M58957 39635
L59065 39527
" />
<path d="M59065 39527
L60002 39527
" />
<path d="M60002 39527
L60764 40289
" />
<path d="M58957 39635
L58839 39517
" />
<path d="M58957 41990
L58957 39635
" />
<path d="M58839 39094
L58839 39517
" />
<path d="M58957 41990
L59063 41990
" />
<path d="M59063 41990
L59085 41968
" />
<path d="M54115 47038
L51989 47038
" />
<path d="M51989 47038
L51664 46713
" />
<path d="M51664 46713
L51664 46638
" />
<path d="M54115 47038
L54464 46689
" />
<path d="M58976 48702
L57784 48702
" />
<path d="M57784 48702
L56928 47846
" />
<path d="M56928 47846
L54364 47846
" />
<path d="M54364 47846
L54115 47597
" />
<path d="M54115 47597
L54115 47038
" />
<path d="M54597 40078
L52800 41875
" />
<path d="M52800 41875
L52464 41875
" />
<path d="M55020 42598
L55443 42598
" />
<path d="M55020 40078
L55443 40078
" />
<path d="M55443 40078
L55443 42598
" />
<path d="M54808 40078
L55020 40078
" />
<path d="M54808 40078
L54597 40078
" />
<path d="M52464 42338
L52464 42801
" />
<path d="M51664 44638
L51664 43601
" />
<path d="M51664 43601
L52464 42801
" />
<path d="M59508 41968
L59932 41968
" />
<path d="M60764 42587
L60145 41968
" />
<path d="M60145 41968
L59932 41968
" />
<path d="M65471 40490
L65471 36605
" />
<path d="M65471 36605
L62856 33990
" />
<path d="M59508 41968
L59085 41968
" />
<path d="M62157 33990
L62856 33990
" />
<path d="M60771 33990
L62157 33990
" />
<path d="M60771 33990
L55657 33990
" />
<path d="M55657 33990
L53957 35690
" />
<path d="M58976 48358
L58976 48013
" />
<path d="M56949 43582
L56949 44006
" />
<path d="M56949 44006
L59281 46338
" />
<path d="M59281 46338
L59281 47708
" />
<path d="M59281 47708
L58976 48013
" />
<path d="M58540 37328
L57903 37328
" />
<path d="M57903 37328
L57864 37289
" />
<path d="M58864 37328
L58540 37328
" />
<path d="M58839 38671
L58540 38372
" />
<path d="M58540 38372
L58540 37328
" />
<path d="M58839 39094
L58839 38671
" />
<path d="M52464 42107
L52464 41875
" />
<path d="M52464 41875
L52319 41875
" />
<path d="M52319 41875
L51872 41428
" />
<path d="M51872 41428
L51872 35690
" />
<path d="M52571 35690
L51872 35690
" />
<path d="M52464 42107
L52464 42338
" />
<path d="M58976 48358
L58976 48702
" />
<path d="M65471 40490
L65876 40085
" />
<path d="M65876 40085
L67333 40085
" />
<path d="M67333 40085
L67574 40326
" />
<path d="M67574 40326
L67574 44607
" />
<path d="M67574 44607
L64264 47917
" />
<path d="M64264 47917
L62983 47917
" />
<path d="M62983 47917
L62654 47588
" />
<path d="M53957 35690
L52571 35690
" />
<path d="M62865 46588
L62654 46799
" />
<path d="M62654 46799
L62654 47588
" />
<path d="M56264 47544
L55461 47544
" />
<path d="M54464 47387
L55305 47387
" />
<path d="M55305 47387
L55461 47544
" />
<path d="M57952 48358
L57952 48013
" />
<path d="M56264 47544
L57483 47544
" />
<path d="M57483 47544
L57952 48013
" />
<path d="M59183 37048
L59209 37048
" />
<path d="M59209 37048
L60771 35486
" />
<path d="M57515 37186
L57515 37062
" />
<path d="M57515 37062
L57639 36938
" />
<path d="M57639 36938
L59074 36938
" />
<path d="M59074 36938
L59183 37048
" />
<path d="M59183 37048
L59183 37629
" />
<path d="M59183 37629
L58864 37948
" />
<path d="M57515 37186
L57515 37639
" />
<path d="M57515 37639
L57864 37987
" />
<path d="M53957 37186
L57515 37186
" />
<path d="M58524 39763
L58524 39517
" />
<path d="M58524 42283
L58524 39763
" />
<path d="M58524 39763
L55443 39763
" />
<path d="M55020 39763
L55443 39763
" />
<path d="M58524 42283
L58455 42283
" />
<path d="M58455 42283
L57579 43159
" />
<path d="M59508 42283
L58524 42283
" />
<path d="M58524 39094
L58524 39517
" />
<path d="M56004 43159
L57579 43159
" />
<path d="M55443 42913
L55758 42913
" />
<path d="M55758 42913
L56004 43159
" />
<path d="M52927 41338
L54502 39763
" />
<path d="M54502 39763
L55020 39763
" />
<path d="M59932 42283
L59932 42370
" />
<path d="M59932 42370
L60764 43203
" />
<path d="M52464 41338
L52927 41338
" />
<path d="M57579 43582
L57579 43159
" />
<path d="M53270 37186
L53957 37186
" />
<path d="M55020 42913
L55443 42913
" />
<path d="M56004 43582
L56004 43159
" />
<path d="M55461 45733
L55461 45437
" />
<path d="M55461 45437
L56004 44894
" />
<path d="M56004 44894
L56004 43582
" />
<path d="M57864 37987
L58524 38647
" />
<path d="M58524 38647
L58524 39094
" />
<path d="M56264 45733
L55461 45733
" />
<path d="M60771 35486
L61458 35486
" />
<path d="M52571 37186
L53270 37186
" />
<path d="M62157 35486
L61458 35486
" />
<path d="M55020 42283
L54597 42283
" />
<path d="M55020 42913
L54597 42913
" />
<path d="M54597 42913
L54597 42283
" />
<path d="M60764 43203
L64255 43203
" />
<path d="M64255 43203
L65471 41986
" />
<path d="M60764 43203
L60764 43528
" />
<path d="M59508 42283
L59932 42283
" />
<path d="M60764 41163
L60948 41163
" />
<path d="M60948 41163
L61652 41866
" />
<path d="M59508 41338
L60589 41338
" />
<path d="M60589 41338
L60764 41163
" />
<path d="M60764 41163
L60764 40987
" />
<path d="M62193 41866
L61652 41866
" />
<path d="M63335 41010
L63876 41010
" />
<path d="M63876 41010
L63876 42278
" />
<path d="M63876 42278
L63821 42334
" />
<path d="M63821 42334
L61209 42334
" />
<path d="M61209 42334
L60764 41889
" />
<path d="M59508 41653
L60528 41653
" />
<path d="M60528 41653
L60764 41889
" />
<path d="M51664 45638
L51664 45138
" />
<path d="M60046 44148
L60046 47897
" />
<path d="M60046 47897
L59061 48883
" />
<path d="M59061 48883
L57493 48883
" />
<path d="M57493 48883
L57043 48433
" />
<path d="M57043 48433
L52998 48433
" />
<path d="M52998 48433
L51332 46766
" />
<path d="M51332 46766
L51332 45970
" />
<path d="M51332 45970
L51664 45638
" />
<path d="M59085 42598
L59085 43186
" />
<path d="M59085 43186
L60046 44148
" />
<path d="M60046 44148
L60764 44148
" />
<path d="M59508 42598
L59085 42598
" />
<path d="M64714 46588
L63563 46588
" />
<path d="M63274 47588
L63563 47299
" />
<path d="M63563 47299
L63563 46588
" />
<path d="M59508 42913
L59932 42913
" />
<path d="M59932 42913
L59932 43191
" />
<path d="M59932 43191
L60579 43838
" />
<path d="M60579 43838
L60964 43838
" />
<path d="M60964 43838
L63563 46438
" />
<path d="M63563 46438
L63563 46588
" />
<path d="M58964 47338
L58964 46718
" />
<path d="M58964 47338
L58964 47338
" />
</g>
<g style="fill:#000000; fill-opacity:0.0; 
stroke:#000000; stroke-width:78.7402; stroke-opacity:1; 
stroke-linecap:round; stroke-linejoin:round;">
<path d="M58964 46718
L56565 44319
" />
<path d="M56565 44319
L56565 44094
" />
<path d="M56565 44094
L56634 44025
" />
<path d="M56634 44025
L56634 43582
" />
<path d="M58964 46718
L58964 46718
" />
</g>
<g style="fill:#000000; fill-opacity:0.0; 
stroke:#000000; stroke-width:98.4252; stroke-opacity:1; 
stroke-linecap:round; stroke-linejoin:round;">
<path d="M58964 46718
L58964 46718
" />
</g>
<g style="fill:#000000; fill-opacity:0.0; 
stroke:#000000; stroke-width:78.7402; stroke-opacity:1; 
stroke-linecap:round; stroke-linejoin:round;">
<path d="M58464 48358
L58464 48352
" />
<path d="M58464 48352
L58513 48303
" />
<path d="M58513 48303
L58513 48047
" />
<path d="M58513 48047
L58677 47882
" />
<path d="M58677 47882
L58677 47625
" />
<path d="M58677 47625
L58964 47338
" />
</g>
<g style="fill:#000000; fill-opacity:0.0; 
stroke:#000000; stroke-width:98.4252; stroke-opacity:1; 
stroke-linecap:round; stroke-linejoin:round;">
<path d="M58214 47338
L58214 47338
" />
</g>
<g style="fill:#000000; fill-opacity:0.0; 
stroke:#000000; stroke-width:78.7402; stroke-opacity:1; 
stroke-linecap:round; stroke-linejoin:round;">
<path d="M58208 48358
L58257 48309
" />
<path d="M58257 48309
L58257 48047
" />
<path d="M58257 48047
L58500 47803
" />
<path d="M58500 47803
L58500 47625
" />
<path d="M58500 47625
L58214 47338
" />
</g>
<g style="fill:#000000; fill-opacity:0.0; 
stroke:#000000; stroke-width:98.4252; stroke-opacity:1; 
stroke-linecap:round; stroke-linejoin:round;">
<path d="M58214 46718
L58214 47338
" />
</g>
<g style="fill:#000000; fill-opacity:0.0; 
stroke:#000000; stroke-width:78.7402; stroke-opacity:1; 
stroke-linecap:round; stroke-linejoin:round;">
<path d="M58214 46718
L58214 46718
" />
<path d="M58214 46718
L58214 46218
" />
<path d="M58214 46218
L56388 44392
" />
<path d="M56388 44392
L56388 44094
" />
<path d="M56388 44094
L56319 44025
" />
<path d="M56319 44025
L56319 43582
" />
</g>
<g style="fill:#000000; fill-opacity:0.0; 
stroke:#000000; stroke-width:98.4252; stroke-opacity:1; 
stroke-linecap:round; stroke-linejoin:round;">
<path d="M52464 40338
L52927 40338
" />
<path d="M56634 39094
L56634 39517
" />
<path d="M56634 39517
L53748 39517
" />
<path d="M53748 39517
L52927 40338
" />
<path d="M52164 46638
L54415 44387
" />
<path d="M54415 44387
L54415 41520
" />
<path d="M54415 41520
L54597 41338
" />
<path d="M55020 41338
L54597 41338
" />
<path d="M55020 40708
L54597 40708
" />
<path d="M54597 40708
L53371 41934
" />
<path d="M53371 41934
L53371 42901
" />
<path d="M52164 45638
L53875 43927
" />
<path d="M53875 43927
L53875 41745
" />
<path d="M53875 41745
L54597 41023
" />
<path d="M55020 41023
L54597 41023
" />
<path d="M54597 40393
L53044 41946
" />
<path d="M53044 41946
L53044 43758
" />
<path d="M53044 43758
L52164 44638
" />
<path d="M55020 40393
L54597 40393
" />
<path d="M57894 43582
L57894 43159
" />
<path d="M57894 43159
L58047 43159
" />
<path d="M58047 43159
L58330 42875
" />
<path d="M53267 36812
L52893 36438
" />
<path d="M52893 36438
L52571 36438
" />
<path d="M53957 36438
L57875 36438
" />
<path d="M57875 36438
L59575 34738
" />
<path d="M59575 34738
L60771 34738
" />
<path d="M65471 41238
L64772 41238
" />
<path d="M62157 34738
L62856 34738
" />
<path d="M62856 34738
L62856 39322
" />
<path d="M62856 39322
L64772 41238
" />
</g>
<g >
</g>
<g style="fill:#000000; fill-opacity:1.0; 
stroke:#000000; stroke-width:100; stroke-opacity:1; 
stroke-linecap:round; stroke-linejoin:round;">
<path style="fill:#000000; fill-opacity:1.0; 
stroke:#000000; stroke-width:100; stroke-opacity:1; 
stroke-linecap:round; stroke-linejoin:round;fill-rule:evenodd;"
d="M 59236,31524
60004,31615
60762,31765
61506,31975
62231,32243
62933,32566
63608,32944
64251,33374
64858,33852
65425,34377
65950,34944
66429,35552
66858,36194
67236,36869
67559,37571
67827,38296
68037,39040
68188,39798
68278,40566
68309,41338
68278,42110
68188,42878
68037,43636
67827,44380
67559,45105
67236,45807
66858,46482
66429,47125
65950,47732
65425,48299
64858,48824
64251,49303
63608,49732
62933,50110
62231,50433
61506,50701
60895,50873
60899,50830
60899,50310
60892,50239
60864,50147
60819,50063
60758,49989
60684,49928
60600,49883
60508,49855
60413,49846
60318,49855
60226,49883
60141,49928
60067,49989
60007,50063
59962,50147
59934,50239
59927,50310
59927,50830
59934,50902
59962,50994
59998,51062
59236,51152
58464,51183
57692,51152
56930,51062
56967,50994
56994,50902
57001,50830
57001,50310
56994,50239
56967,50147
56921,50063
56861,49989
56787,49928
56702,49883
56611,49855
56515,49846
56420,49855
56328,49883
56244,49928
56170,49989
56109,50063
56064,50147
56036,50239
56029,50310
56029,50830
56033,50873
55422,50701
54697,50433
53995,50110
53320,49732
52677,49303
52070,48824
51503,48299
50978,47732
50500,47125
50070,46482
49784,45970
51031,45970
51033,45985
51033,46752
51031,46766
51033,46781
51033,46781
51037,46825
51054,46881
51082,46933
51091,46944
51119,46979
51131,46988
52776,48634
52785,48645
52831,48683
52883,48710
52939,48727
52983,48732
52983,48732
52998,48733
53013,48732
56035,48732
56029,48795
56029,49197
56036,49268
56064,49360
56109,49444
56170,49518
56244,49579
56328,49624
56420,49652
56515,49661
56611,49652
56702,49624
56787,49579
56861,49518
56921,49444
56967,49360
56994,49268
57001,49197
57001,48814
57271,49084
57280,49095
57326,49133
57378,49160
57434,49177
57478,49182
57478,49182
57493,49183
57508,49182
59046,49182
59061,49183
59075,49182
59075,49182
59119,49177
59176,49160
59228,49133
59273,49095
59283,49084
59572,48795
59927,48795
59927,49197
59934,49268
59962,49360
60007,49444
60067,49518
60141,49579
60226,49624
60318,49652
60413,49661
60508,49652
60600,49624
60684,49579
60758,49518
60819,49444
60864,49360
60892,49268
60899,49197
60899,48795
60892,48723
60864,48631
60819,48547
60758,48473
60684,48412
60600,48367
60508,48339
60413,48330
60318,48339
60226,48367
60141,48412
60067,48473
60007,48547
59962,48631
59934,48723
59927,48795
59572,48795
60248,48119
60259,48109
60268,48098
60268,48098
60296,48064
60296,48064
60324,48012
60341,47956
60346,47912
60346,47912
60347,47897
60346,47882
60346,47775
62231,47775
62235,47824
62250,47871
62273,47915
62304,47953
62342,47984
62386,48007
62433,48021
62482,48026
62542,48025
62604,47963
62604,47638
62294,47638
62232,47701
62231,47775
60346,47775
60346,47401
62231,47401
62232,47476
62294,47538
62604,47538
62604,47214
62542,47151
62482,47150
62433,47155
62386,47169
62342,47192
62304,47223
62273,47262
62250,47305
62235,47352
62231,47401
60346,47401
60346,46795
62392,46795
62397,46844
62411,46891
62434,46934
62466,46972
62504,47004
62547,47027
62594,47041
62643,47046
62752,47045
62815,46982
62815,46638
62456,46638
62393,46701
62392,46795
60346,46795
60346,44447
60404,44447
60425,44473
60476,44515
60534,44546
60597,44565
60663,44572
60865,44572
60931,44565
60994,44546
61052,44515
61103,44473
61136,44433
62834,46131
62815,46131
62815,46194
62752,46131
62643,46130
62594,46135
62547,46149
62504,46173
62466,46204
62434,46242
62411,46285
62397,46332
62392,46381
62393,46476
62456,46538
62815,46538
62815,46530
62915,46530
62915,46538
62923,46538
62923,46638
62915,46638
62915,46982
62977,47045
63086,47046
63135,47041
63182,47027
63226,47004
63246,46987
63246,46987
63264,46997
63264,47150
63188,47150
63122,47156
63059,47176
63001,47207
62992,47214
62966,47192
62922,47169
62875,47155
62826,47150
62767,47151
62704,47214
62704,47538
62712,47538
62712,47638
62704,47638
62704,47963
62767,48025
62826,48026
62875,48021
62922,48007
62966,47984
62992,47962
63001,47969
63059,48001
63122,48020
63188,48026
63360,48026
63426,48020
63489,48001
63548,47969
63599,47927
63641,47876
63672,47818
63691,47755
63698,47689
63698,47588
63765,47521
63776,47511
63786,47499
63813,47466
63841,47414
63846,47397
63858,47357
63863,47313
63863,47313
63864,47299
63863,47284
63863,46997
63881,46987
63934,46944
63977,46891
63979,46887
64035,46887
64056,46940
64138,47061
64241,47165
64363,47246
64498,47302
64641,47330
64787,47330
64931,47302
65066,47246
65187,47165
65291,47061
65372,46940
65428,46805
65456,46661
65456,46515
65428,46372
65372,46237
65291,46115
65187,46012
65066,45930
64931,45874
64787,45846
64641,45846
64498,45874
64363,45930
64241,46012
64138,46115
64056,46237
64035,46289
63979,46289
63977,46286
63934,46233
63881,46189
63820,46157
63755,46137
63687,46130
63679,46130
61199,43650
61202,43614
61202,43502
64240,43502
64255,43503
64269,43502
64269,43502
64313,43497
64370,43480
64422,43453
64467,43415
64477,43404
65369,42512
65792,42512
65869,42504
65969,42474
66060,42425
66140,42360
66164,42330
66188,42360
66268,42425
66360,42474
66459,42504
66536,42512
67178,42512
67255,42504
67354,42474
67446,42425
67526,42360
67591,42280
67640,42188
67670,42089
67680,41986
67670,41883
67640,41784
67591,41693
67526,41613
67525,41612
67526,41612
67591,41531
67640,41440
67670,41341
67680,41238
67670,41135
67640,41036
67591,40945
67526,40865
67525,40864
67526,40863
67591,40783
67640,40692
67670,40593
67680,40490
67670,40387
67640,40288
67591,40197
67526,40117
67446,40051
67354,40002
67255,39972
67178,39964
66536,39964
66459,39972
66360,40002
66268,40051
66188,40117
66165,40145
66100,40081
66014,40024
65918,39984
65816,39964
65521,39964
65521,40440
65529,40440
65529,40540
65521,40540
65521,40548
65421,40548
65421,40540
64715,40540
64667,40621
64671,40645
64711,40740
64739,40781
64316,40359
64667,40359
64715,40440
65421,40440
65421,39964
65126,39964
65024,39984
64929,40024
64842,40081
64769,40154
64711,40240
64671,40335
64667,40359
64316,40359
63155,39198
63155,34753
63157,34738
63151,34679
63134,34623
63106,34571
63069,34525
63023,34488
62971,34460
62915,34443
62888,34441
62826,34365
62823,34362
62859,34326
62917,34240
62957,34145
62961,34121
62913,34040
62207,34040
62207,34048
62107,34048
62107,34040
60821,34040
60821,34048
60721,34048
60721,34040
60015,34040
59967,34121
59971,34145
60011,34240
60069,34326
60105,34362
60102,34365
60042,34439
59590,34439
59575,34437
59560,34439
59560,34439
59516,34443
59460,34460
59408,34488
59362,34525
59353,34537
57751,36139
54687,36139
54626,36065
54623,36062
54659,36026
54717,35940
54757,35845
54761,35821
54713,35740
54007,35740
54007,35748
53907,35748
53907,35740
52621,35740
52621,35748
52521,35748
52521,35740
51815,35740
51767,35821
51771,35845
51811,35940
51869,36026
51905,36062
51902,36065
51837,36145
51788,36236
51758,36335
51748,36438
51758,36541
51788,36640
51837,36731
51902,36812
51903,36812
51902,36813
51837,36893
51788,36984
51758,37083
51748,37186
51758,37289
51788,37388
51837,37480
51902,37560
51982,37625
52074,37674
52173,37704
52250,37712
52892,37712
52969,37704
53069,37674
53160,37625
53240,37560
53264,37530
53288,37560
53368,37625
53460,37674
53559,37704
53636,37712
54278,37712
54355,37704
54454,37674
54546,37625
54626,37560
54687,37485
57216,37485
57216,37624
57215,37639
57220,37697
57237,37754
57265,37806
57288,37833
57303,37851
57314,37861
57406,37953
57406,38111
57413,38179
57433,38244
57465,38305
57509,38358
57562,38401
57622,38434
57688,38453
57756,38460
57914,38460
58001,38548
57786,38548
57737,38552
57737,38552
57736,38552
57687,38548
57471,38548
57422,38552
57422,38552
57421,38552
57372,38548
57156,38548
57107,38552
57107,38552
57106,38552
57057,38548
56841,38548
56792,38552
56792,38552
56791,38552
56742,38548
56526,38548
56477,38552
56477,38552
56476,38552
56427,38548
56211,38548
56162,38552
56162,38552
56162,38552
56112,38548
55896,38548
55847,38552
55847,38552
55847,38552
55798,38548
55581,38548
55532,38552
55485,38567
55441,38590
55403,38621
55372,38659
55349,38703
55335,38750
55330,38799
55330,39218
53762,39218
53748,39217
53733,39218
53733,39218
53689,39222
53632,39240
53580,39267
53548,39294
53535,39305
53526,39316
52994,39848
52976,39826
52938,39795
52895,39771
52848,39757
52799,39752
52129,39752
52080,39757
52033,39771
51990,39795
51952,39826
51921,39864
51897,39907
51883,39954
51878,40003
51878,40673
51883,40722
51897,40769
51921,40812
51952,40850
51990,40882
52033,40905
52060,40913
52049,40923
51976,41012
51921,41113
51888,41223
51877,41338
51888,41453
51921,41563
51976,41664
52049,41753
52138,41827
52163,41840
52117,41868
52032,41944
51963,42036
51914,42140
51897,42198
51944,42288
52414,42288
52414,42280
52514,42280
52514,42288
52522,42288
52522,42388
52514,42388
52514,42858
52605,42906
52713,42867
52745,42848
52745,43634
52188,44191
52120,44191
52034,44208
51952,44242
51892,44283
51886,44248
51805,44212
51720,44193
51632,44190
51545,44205
51463,44237
51442,44248
51428,44332
51664,44567
51670,44562
51717,44609
51717,44667
51693,44691
51635,44691
51588,44644
51593,44638
51358,44402
51274,44416
51238,44497
51219,44583
51216,44671
51231,44757
51263,44839
51274,44860
51309,44866
51268,44926
51234,45008
51217,45094
51217,45182
51234,45268
51268,45350
51294,45388
51268,45426
51234,45508
51217,45594
51217,45662
51131,45748
51119,45758
51110,45769
51110,45769
51082,45803
51054,45855
51044,45888
51037,45912
51035,45933
51031,45970
49784,45970
49692,45807
49369,45105
49101,44380
48891,43636
48741,42878
48693,42479
51897,42479
51914,42537
51963,42640
52032,42732
52117,42809
52216,42867
52324,42906
52414,42858
52414,42388
51944,42388
51897,42479
48693,42479
48650,42110
48619,41338
48650,40566
48741,39798
48891,39040
49101,38296
49369,37571
49692,36869
50070,36194
50495,35559
51767,35559
51815,35640
52521,35640
52521,35632
52621,35632
52621,35640
53907,35640
53907,35632
54007,35632
54007,35640
54713,35640
54761,35559
54757,35535
54717,35440
54659,35354
54586,35281
54500,35224
54404,35184
54302,35164
53612,35164
53510,35184
53414,35224
53328,35281
53264,35344
53200,35281
53114,35224
53018,35184
52916,35164
52226,35164
52124,35184
52029,35224
51942,35281
51869,35354
51811,35440
51771,35535
51767,35559
50495,35559
50500,35552
50978,34944
51503,34377
52063,33859
59967,33859
60015,33940
60721,33940
60721,33932
60821,33932
60821,33940
62107,33940
62107,33932
62207,33932
62207,33940
62913,33940
62961,33859
62957,33835
62917,33740
62859,33654
62786,33581
62700,33524
62604,33484
62502,33464
61812,33464
61710,33484
61614,33524
61528,33581
61464,33644
61400,33581
61314,33524
61218,33484
61116,33464
60426,33464
60324,33484
60229,33524
60142,33581
60069,33654
60011,33740
59971,33835
59967,33859
52063,33859
52070,33852
52677,33374
53320,32944
53995,32566
54697,32243
55422,31975
56166,31765
56924,31615
57692,31524
58464,31493
59236,31524
Z" /> 
<path style="fill:#000000; fill-opacity:1.0; 
stroke:#000000; stroke-width:100; stroke-opacity:1; 
stroke-linecap:round; stroke-linejoin:round;fill-rule:evenodd;"
d="M 55330,43287
55330,43877
55335,43926
55349,43974
55372,44017
55403,44055
55441,44086
55485,44110
55532,44124
55581,44129
55705,44129
55705,44770
55260,45215
55248,45225
55239,45236
55239,45236
55211,45270
55183,45322
55177,45342
55166,45379
55162,45422
55162,45422
55160,45437
55162,45452
55162,45718
55160,45733
55166,45791
55183,45848
55211,45900
55243,45939
55248,45945
55294,45983
55346,46010
55368,46017
55380,46039
55411,46078
55449,46109
55493,46132
55540,46146
55589,46151
56939,46151
56988,46146
57035,46132
57079,46109
57117,46078
57148,46039
57171,45996
57186,45949
57190,45900
57190,45604
57925,46338
57925,46352
57875,46393
57833,46444
57802,46503
57782,46566
57776,46632
57776,46804
57782,46870
57802,46933
57833,46991
57863,47028
57833,47064
57802,47123
57782,47186
57776,47252
57776,47414
57705,47342
57695,47331
57650,47294
57598,47266
57541,47249
57497,47244
57497,47244
57483,47243
57468,47244
57152,47244
57148,47237
57117,47199
57079,47167
57035,47144
56988,47130
56939,47125
55589,47125
55540,47130
55493,47144
55485,47148
55472,47138
55420,47110
55363,47093
55319,47088
55319,47088
55305,47087
55290,47088
54873,47088
54863,47070
54863,47070
54880,47050
54903,47006
54917,46959
54922,46910
54921,46801
54858,46739
54514,46739
54514,46747
54414,46747
54414,46739
54070,46739
54007,46801
54006,46910
54011,46959
54025,47006
54049,47050
54065,47070
54065,47070
54033,47131
54013,47196
54006,47264
54006,47511
54013,47579
54033,47644
54065,47705
54109,47758
54162,47801
54222,47834
54288,47853
54356,47860
54572,47860
54641,47853
54706,47834
54767,47801
54820,47758
54863,47705
54873,47687
55181,47687
55239,47745
55248,47756
55294,47794
55346,47821
55368,47828
55380,47850
55411,47889
55449,47920
55493,47943
55540,47957
55589,47962
56939,47962
56988,47957
57035,47943
57079,47920
57117,47889
57148,47850
57152,47843
57359,47843
57616,48101
57612,48141
57612,48574
57613,48579
57265,48231
57256,48220
57210,48183
57158,48155
57102,48138
57058,48133
57058,48133
57043,48132
57028,48133
53122,48133
52075,47086
52361,47086
52410,47081
52457,47067
52500,47044
52539,47013
52570,46974
52593,46931
52607,46884
52612,46835
52612,46613
52758,46467
54006,46467
54007,46576
54070,46639
54414,46639
54414,46280
54514,46280
54514,46639
54858,46639
54921,46576
54922,46467
54917,46418
54903,46371
54880,46328
54848,46290
54810,46258
54767,46235
54720,46221
54671,46216
54577,46217
54514,46280
54414,46280
54352,46217
54257,46216
54208,46221
54161,46235
54118,46258
54080,46290
54049,46328
54025,46371
54011,46418
54006,46467
52758,46467
54616,44609
54628,44600
54637,44588
54637,44588
54665,44554
54665,44554
54693,44502
54710,44446
54714,44402
54714,44402
54716,44387
54714,44372
54714,43271
54725,43272
55315,43272
55331,43271
55330,43287
Z" /> 
<path style="fill:#000000; fill-opacity:1.0; 
stroke:#000000; stroke-width:100; stroke-opacity:1; 
stroke-linecap:round; stroke-linejoin:round;fill-rule:evenodd;"
d="M 59747,44272
59747,47773
59315,48205
59316,48146
59312,48097
59298,48049
59276,48006
59245,47967
59208,47935
59165,47911
59118,47896
59077,47891
59014,47954
59014,47998
58986,47964
58961,47943
58963,47939
58963,47939
58963,47939
58965,47910
58967,47896
58967,47896
58968,47882
58967,47868
58967,47761
59065,47761
59131,47755
59194,47736
59252,47704
59303,47663
59345,47611
59377,47553
59396,47490
59402,47424
59402,47252
59396,47186
59377,47123
59345,47064
59315,47028
59345,46991
59377,46933
59396,46870
59402,46804
59402,46632
59396,46566
59377,46503
59345,46444
59303,46393
59252,46351
59194,46320
59131,46301
59065,46294
58950,46294
56861,44205
56876,44187
56903,44136
56919,44082
56922,44052
56949,44020
56978,44055
57016,44086
57025,44091
57062,44127
57106,44124
57107,44124
57156,44129
57372,44129
57421,44124
57422,44124
57422,44124
57471,44129
57687,44129
57736,44124
57737,44124
57737,44124
57786,44129
58002,44129
58051,44124
58051,44124
58052,44124
58101,44129
58317,44129
58366,44124
58366,44124
58367,44124
58416,44129
58632,44129
58681,44124
58681,44124
58682,44124
58731,44129
58947,44129
58996,44124
59043,44110
59087,44086
59125,44055
59156,44017
59179,43974
59194,43926
59198,43877
59198,43723
59747,44272
Z" /> 
<path style="fill:#000000; fill-opacity:1.0; 
stroke:#000000; stroke-width:100; stroke-opacity:1; 
stroke-linecap:round; stroke-linejoin:round;fill-rule:evenodd;"
d="M 51716,46608
51716,46668
51686,46698
51631,46642
51631,46589
51635,46585
51693,46585
51716,46608
Z" /> 
<path style="fill:#000000; fill-opacity:1.0; 
stroke:#000000; stroke-width:100; stroke-opacity:1; 
stroke-linecap:round; stroke-linejoin:round;fill-rule:evenodd;"
d="M 58225,42090
57455,42860
56128,42860
55980,42712
55971,42700
55925,42663
55873,42635
55817,42618
55773,42614
55773,42614
55758,42612
55744,42614
55477,42614
55457,42598
55493,42569
55524,42531
55529,42522
55565,42485
55561,42441
55562,42440
55566,42391
55566,42175
55562,42126
55562,42125
55562,42125
55566,42076
55566,41860
55562,41811
55562,41811
55562,41810
55566,41761
55566,41545
55562,41496
55562,41496
55562,41495
55566,41446
55566,41230
55562,41181
55562,41181
55562,41180
55566,41131
55566,40915
55562,40866
55562,40866
55562,40865
55566,40816
55566,40600
55562,40551
55562,40551
55562,40550
55566,40501
55566,40285
55562,40236
55561,40235
55565,40191
55529,40154
55524,40145
55493,40107
55457,40078
55477,40062
58225,40062
58225,42090
Z" /> 
<path style="fill:#000000; fill-opacity:1.0; 
stroke:#000000; stroke-width:100; stroke-opacity:1; 
stroke-linecap:round; stroke-linejoin:round;fill-rule:evenodd;"
d="M 60814,42537
60822,42537
60822,42637
60814,42637
60814,42645
60714,42645
60714,42637
60706,42637
60706,42537
60714,42537
60714,42530
60814,42530
60814,42537
Z" /> 
<path style="fill:#000000; fill-opacity:1.0; 
stroke:#000000; stroke-width:100; stroke-opacity:1; 
stroke-linecap:round; stroke-linejoin:round;fill-rule:evenodd;"
d="M 60306,42012
60313,42080
60333,42146
60365,42206
60365,42206
60349,42226
60325,42270
60311,42317
60310,42326
60228,42244
60226,42224
60209,42168
60181,42116
60144,42070
60127,42056
60099,42033
60047,42005
59990,41988
59967,41986
59946,41968
59965,41952
60306,41952
60306,42012
Z" /> 
<path style="fill:#000000; fill-opacity:1.0; 
stroke:#000000; stroke-width:100; stroke-opacity:1; 
stroke-linecap:round; stroke-linejoin:round;fill-rule:evenodd;"
d="M 61488,35860
61568,35925
61660,35974
61759,36004
61836,36012
62478,36012
62555,36004
62557,36004
62557,39307
62555,39322
62557,39336
62561,39380
62564,39389
62578,39437
62606,39489
62634,39523
62643,39534
62655,39544
63530,40419
62922,40419
62873,40424
62825,40438
62782,40461
62764,40476
62746,40461
62703,40438
62656,40424
62607,40419
62306,40420
62243,40483
62243,40960
62251,40960
62251,41060
62243,41060
62243,41068
62143,41068
62143,41060
61592,41060
61530,41122
61529,41320
61222,41013
61222,40864
61215,40796
61195,40731
61163,40670
61529,40670
61530,40897
61592,40960
62143,40960
62143,40483
62081,40420
61780,40419
61731,40424
61684,40438
61640,40461
61602,40493
61571,40531
61548,40574
61533,40621
61529,40670
61163,40670
61163,40670
61163,40670
61180,40650
61203,40606
61217,40559
61222,40510
61221,40401
61158,40339
60814,40339
60814,40347
60714,40347
60714,40339
60370,40339
60307,40401
60306,40510
60311,40559
60325,40606
60349,40650
60365,40670
60365,40670
60333,40731
60313,40796
60306,40864
60306,41039
60055,41039
60055,40915
60050,40866
60050,40866
60050,40865
60055,40816
60055,40600
60050,40551
60050,40551
60050,40550
60055,40501
60055,40285
60050,40236
60050,40236
60050,40236
60055,40187
60055,40067
60306,40067
60307,40176
60370,40239
60714,40239
60714,39880
60814,39880
60814,40239
61158,40239
61221,40176
61222,40067
61217,40018
61203,39971
61180,39928
61148,39890
61110,39858
61067,39835
61020,39821
60971,39816
60877,39817
60814,39880
60714,39880
60652,39817
60557,39816
60508,39821
60461,39835
60418,39858
60380,39890
60349,39928
60325,39971
60311,40018
60306,40067
60055,40067
60055,39970
60050,39921
60050,39921
60050,39921
60055,39872
60055,39655
60050,39606
60036,39559
60012,39515
59981,39477
59943,39446
59900,39423
59852,39409
59803,39404
59213,39404
59197,39405
59198,39388
59197,39206
59135,39144
58889,39144
58889,39577
58951,39639
58963,39638
58962,39655
58962,39872
58967,39921
58967,39921
58967,39921
58962,39970
58962,40187
58967,40236
58967,40236
58967,40236
58962,40285
58962,40501
58967,40550
58967,40551
58967,40551
58962,40600
58962,40816
58967,40865
58967,40866
58967,40866
58962,40915
58962,41131
58967,41180
58967,41181
58967,41181
58962,41230
58962,41446
58967,41495
58967,41496
58967,41496
58962,41545
58962,41761
58967,41810
58967,41811
58963,41856
58999,41892
59004,41901
59035,41939
59071,41968
59051,41984
58823,41984
58823,39778
58825,39763
58823,39749
58823,39551
58841,39529
58864,39485
58879,39438
58883,39389
58883,38799
58879,38750
58864,38703
58841,38659
58824,38638
58823,38633
58823,38633
58821,38611
58889,38611
58889,39044
59135,39044
59197,38981
59198,38800
59194,38751
59180,38704
59157,38660
59126,38622
59088,38591
59044,38567
58997,38553
58951,38549
58889,38611
58821,38611
58819,38589
58802,38532
58774,38480
58774,38480
58746,38446
58737,38435
58725,38425
58651,38351
58697,38365
58763,38372
58965,38372
59031,38365
59094,38346
59152,38315
59203,38273
59245,38222
59277,38163
59296,38100
59302,38034
59302,37933
59385,37851
59396,37841
59405,37830
59405,37830
59428,37802
59433,37796
59461,37744
59478,37687
59483,37643
59483,37643
59484,37629
59483,37614
59483,37198
60669,36012
61092,36012
61169,36004
61269,35974
61360,35925
61440,35860
61464,35830
61488,35860
Z" /> 
<path style="fill:#000000; fill-opacity:1.0; 
stroke:#000000; stroke-width:100; stroke-opacity:1; 
stroke-linecap:round; stroke-linejoin:round;fill-rule:evenodd;"
d="M 63385,41816
63393,41816
63393,41916
63385,41916
63385,41924
63285,41924
63285,41916
63277,41916
63277,41816
63285,41816
63285,41808
63385,41808
63385,41816
Z" /> 
<path style="fill:#000000; fill-opacity:1.0; 
stroke:#000000; stroke-width:100; stroke-opacity:1; 
stroke-linecap:round; stroke-linejoin:round;fill-rule:evenodd;"
d="M 57914,37239
58258,37239
58260,37237
58449,37237
58490,37278
58814,37278
58814,37270
58884,37270
58884,37386
58814,37386
58814,37378
58490,37378
58427,37441
58426,37500
58431,37549
58445,37596
58468,37640
58490,37666
58483,37675
58452,37733
58432,37796
58426,37862
58426,38034
58432,38100
58447,38147
58322,38022
58322,37864
58315,37796
58295,37731
58263,37670
58263,37670
58280,37650
58303,37606
58317,37559
58322,37510
58321,37401
58258,37339
57914,37339
57914,37347
57814,37347
57814,37237
57914,37237
57914,37239
Z" /> 
</g>
</g> 
</svg>
