  0
SECTION
  2
HEADER
  9
$ANGBASE
  50
0.0
  9
$ANGDIR
  70
  1
  9
$MEASUREMENT
  70
0
  0
ENDSEC
  0
SECTION
  2
TABLES
  0
TABLE
  2
LTYPE
  70
4
  0
LTYPE
  5
40F
  2
CONTINUOUS
  70
0
  3
Solid line
  72
65
  73
0
  40
0.0
  0
LTYPE
  5
410
  2
DASHDOT
 70
0
  3
Dash Dot ____ _ ____ _
 72
65
 73
4
 40
2.0
 49
1.25
 49
-0.25
 49
0.25
 49
-0.25
  0
LTYPE
  5
411
  2
DASHED
 70
0
  3
Dashed __ __ __ __ __
 72
65
 73
2
 40
0.75
 49
0.5
 49
-0.25
  0
LTYPE
  5
43B
  2
DOTTED
 70
0
  3
Dotted .  .  .  .
 72
65
 73
2
 40
0.2
 49
0.0
 49
-0.2
  0
ENDTAB
  0
TABLE
  2
STYLE
  70
4
  0
STYLE
  2
KICAD
  70
0
  40
0
  41
1
  42
1
  50
0
  71
0
  3
isocp.shx
  0
STYLE
  2
KICADB
  70
0
  40
0
  41
1
  42
1
  50
0
  71
0
  3
isocp.shx
  0
STYLE
  2
KICADI
  70
0
  40
0
  41
1
  42
1
  50
15
  71
0
  3
isocp.shx
  0
STYLE
  2
KICADBI
  70
0
  40
0
  41
1
  42
1
  50
15
  71
0
  3
isocp.shx
  0
ENDTAB
  0
TABLE
  2
LAYER
  70
30
  0
LAYER
  2
BLACK
  70
0
  62
7
  6
CONTINUOUS
  0
LAYER
  2
GRAY1
  70
0
  62
251
  6
CONTINUOUS
  0
LAYER
  2
GRAY2
  70
0
  62
8
  6
CONTINUOUS
  0
LAYER
  2
GRAY3
  70
0
  62
9
  6
CONTINUOUS
  0
LAYER
  2
WHITE
  70
0
  62
7
  6
CONTINUOUS
  0
LAYER
  2
LYELLOW
  70
0
  62
51
  6
CONTINUOUS
  0
LAYER
  2
BLUE1
  70
0
  62
178
  6
CONTINUOUS
  0
LAYER
  2
GREEN1
  70
0
  62
98
  6
CONTINUOUS
  0
LAYER
  2
CYAN1
  70
0
  62
138
  6
CONTINUOUS
  0
LAYER
  2
RED1
  70
0
  62
18
  6
CONTINUOUS
  0
LAYER
  2
MAGENTA1
  70
0
  62
228
  6
CONTINUOUS
  0
LAYER
  2
BROWN1
  70
0
  62
58
  6
CONTINUOUS
  0
LAYER
  2
BLUE2
  70
0
  62
5
  6
CONTINUOUS
  0
LAYER
  2
GREEN2
  70
0
  62
3
  6
CONTINUOUS
  0
LAYER
  2
CYAN2
  70
0
  62
4
  6
CONTINUOUS
  0
LAYER
  2
RED2
  70
0
  62
1
  6
CONTINUOUS
  0
LAYER
  2
MAGENTA2
  70
0
  62
6
  6
CONTINUOUS
  0
LAYER
  2
BROWN2
  70
0
  62
54
  6
CONTINUOUS
  0
LAYER
  2
BLUE3
  70
0
  62
171
  6
CONTINUOUS
  0
LAYER
  2
GREEN3
  70
0
  62
91
  6
CONTINUOUS
  0
LAYER
  2
CYAN3
  70
0
  62
131
  6
CONTINUOUS
  0
LAYER
  2
RED3
  70
0
  62
11
  6
CONTINUOUS
  0
LAYER
  2
MAGENTA3
  70
0
  62
221
  6
CONTINUOUS
  0
LAYER
  2
YELLOW3
  70
0
  62
2
  6
CONTINUOUS
  0
LAYER
  2
BLUE4
  70
0
  62
5
  6
CONTINUOUS
  0
LAYER
  2
GREEN4
  70
0
  62
3
  6
CONTINUOUS
  0
LAYER
  2
CYAN4
  70
0
  62
4
  6
CONTINUOUS
  0
LAYER
  2
RED4
  70
0
  62
1
  6
CONTINUOUS
  0
LAYER
  2
MAGENTA4
  70
0
  62
6
  6
CONTINUOUS
  0
LAYER
  2
YELLOW4
  70
0
  62
2
  6
CONTINUOUS
  0
ENDTAB
  0
ENDSEC
  0
SECTION
  2
ENTITIES
0
LINE
8
BLACK
6
CONTINUOUS
10
173.993
20
-109.038
11
173.597
21
-111.025
0
LINE
8
BLACK
6
CONTINUOUS
10
173.597
20
-111.025
11
173.047
21
-112.976
0
LINE
8
BLACK
6
CONTINUOUS
10
173.047
20
-112.976
11
172.346
21
-114.877
0
LINE
8
BLACK
6
CONTINUOUS
10
172.346
20
-114.877
11
171.497
21
-116.718
0
LINE
8
BLACK
6
CONTINUOUS
10
171.497
20
-116.718
11
170.507
21
-118.486
0
LINE
8
BLACK
6
CONTINUOUS
10
170.507
20
-118.486
11
169.381
21
-120.171
0
LINE
8
BLACK
6
CONTINUOUS
10
169.381
20
-120.171
11
168.126
21
-121.763
0
LINE
8
BLACK
6
CONTINUOUS
10
168.126
20
-121.763
11
166.751
21
-123.251
0
LINE
8
BLACK
6
CONTINUOUS
10
166.751
20
-123.251
11
165.263
21
-124.626
0
LINE
8
BLACK
6
CONTINUOUS
10
165.263
20
-124.626
11
163.671
21
-125.881
0
LINE
8
BLACK
6
CONTINUOUS
10
163.671
20
-125.881
11
161.986
21
-127.007
0
LINE
8
BLACK
6
CONTINUOUS
10
161.986
20
-127.007
11
160.218
21
-127.997
0
LINE
8
BLACK
6
CONTINUOUS
10
160.218
20
-127.997
11
158.377
21
-128.846
0
LINE
8
BLACK
6
CONTINUOUS
10
158.377
20
-128.846
11
156.476
21
-129.547
0
LINE
8
BLACK
6
CONTINUOUS
10
156.476
20
-129.547
11
154.525
21
-130.097
0
LINE
8
BLACK
6
CONTINUOUS
10
154.525
20
-130.097
11
152.538
21
-130.493
0
LINE
8
BLACK
6
CONTINUOUS
10
152.538
20
-130.493
11
150.525
21
-130.731
0
LINE
8
BLACK
6
CONTINUOUS
10
150.525
20
-130.731
11
148.5
21
-130.811
0
LINE
8
BLACK
6
CONTINUOUS
10
148.5
20
-130.811
11
146.475
21
-130.731
0
LINE
8
BLACK
6
CONTINUOUS
10
146.475
20
-130.731
11
144.462
21
-130.493
0
LINE
8
BLACK
6
CONTINUOUS
10
144.462
20
-130.493
11
142.475
21
-130.097
0
LINE
8
BLACK
6
CONTINUOUS
10
142.475
20
-130.097
11
140.524
21
-129.547
0
LINE
8
BLACK
6
CONTINUOUS
10
140.524
20
-129.547
11
138.623
21
-128.846
0
LINE
8
BLACK
6
CONTINUOUS
10
138.623
20
-128.846
11
136.782
21
-127.997
0
LINE
8
BLACK
6
CONTINUOUS
10
136.782
20
-127.997
11
135.014
21
-127.007
0
LINE
8
BLACK
6
CONTINUOUS
10
135.014
20
-127.007
11
133.329
21
-125.881
0
LINE
8
BLACK
6
CONTINUOUS
10
133.329
20
-125.881
11
131.737
21
-124.626
0
LINE
8
BLACK
6
CONTINUOUS
10
131.737
20
-124.626
11
130.249
21
-123.251
0
LINE
8
BLACK
6
CONTINUOUS
10
130.249
20
-123.251
11
128.874
21
-121.763
0
LINE
8
BLACK
6
CONTINUOUS
10
128.874
20
-121.763
11
127.619
21
-120.171
0
LINE
8
BLACK
6
CONTINUOUS
10
127.619
20
-120.171
11
126.493
21
-118.486
0
LINE
8
BLACK
6
CONTINUOUS
10
126.493
20
-118.486
11
125.503
21
-116.718
0
LINE
8
BLACK
6
CONTINUOUS
10
125.503
20
-116.718
11
124.654
21
-114.877
0
LINE
8
BLACK
6
CONTINUOUS
10
124.654
20
-114.877
11
123.953
21
-112.976
0
LINE
8
BLACK
6
CONTINUOUS
10
123.953
20
-112.976
11
123.403
21
-111.025
0
LINE
8
BLACK
6
CONTINUOUS
10
123.403
20
-111.025
11
123.007
21
-109.038
0
LINE
8
BLACK
6
CONTINUOUS
10
123.007
20
-109.038
11
122.769
21
-107.025
0
LINE
8
BLACK
6
CONTINUOUS
10
122.769
20
-107.025
11
122.689
21
-105
0
LINE
8
BLACK
6
CONTINUOUS
10
122.689
20
-105
11
122.769
21
-102.975
0
LINE
8
BLACK
6
CONTINUOUS
10
122.769
20
-102.975
11
123.007
21
-100.962
0
LINE
8
BLACK
6
CONTINUOUS
10
123.007
20
-100.962
11
123.403
21
-98.9746
0
LINE
8
BLACK
6
CONTINUOUS
10
123.403
20
-98.9746
11
123.953
21
-97.0241
0
LINE
8
BLACK
6
CONTINUOUS
10
123.953
20
-97.0241
11
124.654
21
-95.1227
0
LINE
8
BLACK
6
CONTINUOUS
10
124.654
20
-95.1227
11
125.503
21
-93.2823
0
LINE
8
BLACK
6
CONTINUOUS
10
125.503
20
-93.2823
11
126.493
21
-91.514
0
LINE
8
BLACK
6
CONTINUOUS
10
126.493
20
-91.514
11
127.619
21
-89.8289
0
LINE
8
BLACK
6
CONTINUOUS
10
127.619
20
-89.8289
11
128.874
21
-88.2374
0
LINE
8
BLACK
6
CONTINUOUS
10
128.874
20
-88.2374
11
130.249
21
-86.7492
0
LINE
8
BLACK
6
CONTINUOUS
10
130.249
20
-86.7492
11
131.737
21
-85.3735
0
LINE
8
BLACK
6
CONTINUOUS
10
131.737
20
-85.3735
11
133.329
21
-84.1188
0
LINE
8
BLACK
6
CONTINUOUS
10
133.329
20
-84.1188
11
135.014
21
-82.9929
0
LINE
8
BLACK
6
CONTINUOUS
10
135.014
20
-82.9929
11
136.782
21
-82.0026
0
LINE
8
BLACK
6
CONTINUOUS
10
136.782
20
-82.0026
11
138.623
21
-81.1542
0
LINE
8
BLACK
6
CONTINUOUS
10
138.623
20
-81.1542
11
140.524
21
-80.4527
0
LINE
8
BLACK
6
CONTINUOUS
10
140.524
20
-80.4527
11
142.475
21
-79.9026
0
LINE
8
BLACK
6
CONTINUOUS
10
142.475
20
-79.9026
11
144.462
21
-79.5072
0
LINE
8
BLACK
6
CONTINUOUS
10
144.462
20
-79.5072
11
146.475
21
-79.269
0
LINE
8
BLACK
6
CONTINUOUS
10
146.475
20
-79.269
11
148.5
21
-79.1895
0
LINE
8
BLACK
6
CONTINUOUS
10
148.5
20
-79.1895
11
150.525
21
-79.269
0
LINE
8
BLACK
6
CONTINUOUS
10
150.525
20
-79.269
11
152.538
21
-79.5072
0
LINE
8
BLACK
6
CONTINUOUS
10
152.538
20
-79.5072
11
154.525
21
-79.9026
0
LINE
8
BLACK
6
CONTINUOUS
10
154.525
20
-79.9026
11
156.476
21
-80.4527
0
LINE
8
BLACK
6
CONTINUOUS
10
156.476
20
-80.4527
11
158.377
21
-81.1542
0
LINE
8
BLACK
6
CONTINUOUS
10
158.377
20
-81.1542
11
160.218
21
-82.0026
0
LINE
8
BLACK
6
CONTINUOUS
10
160.218
20
-82.0026
11
161.986
21
-82.9929
0
LINE
8
BLACK
6
CONTINUOUS
10
161.986
20
-82.9929
11
163.671
21
-84.1188
0
LINE
8
BLACK
6
CONTINUOUS
10
163.671
20
-84.1188
11
165.263
21
-85.3735
0
LINE
8
BLACK
6
CONTINUOUS
10
165.263
20
-85.3735
11
166.751
21
-86.7492
0
LINE
8
BLACK
6
CONTINUOUS
10
166.751
20
-86.7492
11
168.126
21
-88.2374
0
LINE
8
BLACK
6
CONTINUOUS
10
168.126
20
-88.2374
11
169.381
21
-89.8289
0
LINE
8
BLACK
6
CONTINUOUS
10
169.381
20
-89.8289
11
170.507
21
-91.514
0
LINE
8
BLACK
6
CONTINUOUS
10
170.507
20
-91.514
11
171.497
21
-93.2823
0
LINE
8
BLACK
6
CONTINUOUS
10
171.497
20
-93.2823
11
172.346
21
-95.1227
0
LINE
8
BLACK
6
CONTINUOUS
10
172.346
20
-95.1227
11
173.047
21
-97.0241
0
LINE
8
BLACK
6
CONTINUOUS
10
173.047
20
-97.0241
11
173.597
21
-98.9746
0
LINE
8
BLACK
6
CONTINUOUS
10
173.597
20
-98.9746
11
173.993
21
-100.962
0
LINE
8
BLACK
6
CONTINUOUS
10
173.993
20
-100.962
11
174.231
21
-102.975
0
LINE
8
BLACK
6
CONTINUOUS
10
174.231
20
-102.975
11
174.311
21
-105
0
LINE
8
BLACK
6
CONTINUOUS
10
174.311
20
-105
11
174.231
21
-107.025
0
LINE
8
BLACK
6
CONTINUOUS
10
174.231
20
-107.025
11
173.993
21
-109.038
0
LINE
8
BLACK
6
CONTINUOUS
10
173.825
20
-100.989
11
173.432
21
-99.0143
0
LINE
8
BLACK
6
CONTINUOUS
10
173.432
20
-99.0143
11
172.886
21
-97.0766
0
LINE
8
BLACK
6
CONTINUOUS
10
172.886
20
-97.0766
11
172.189
21
-95.1878
0
LINE
8
BLACK
6
CONTINUOUS
10
172.189
20
-95.1878
11
171.346
21
-93.3594
0
LINE
8
BLACK
6
CONTINUOUS
10
171.346
20
-93.3594
11
170.362
21
-91.6029
0
LINE
8
BLACK
6
CONTINUOUS
10
170.362
20
-91.6029
11
169.244
21
-89.9289
0
LINE
8
BLACK
6
CONTINUOUS
10
169.244
20
-89.9289
11
167.997
21
-88.3478
0
LINE
8
BLACK
6
CONTINUOUS
10
167.997
20
-88.3478
11
166.631
21
-86.8694
0
LINE
8
BLACK
6
CONTINUOUS
10
166.631
20
-86.8694
11
165.152
21
-85.5028
0
LINE
8
BLACK
6
CONTINUOUS
10
165.152
20
-85.5028
11
163.571
21
-84.2564
0
LINE
8
BLACK
6
CONTINUOUS
10
163.571
20
-84.2564
11
161.897
21
-83.1378
0
LINE
8
BLACK
6
CONTINUOUS
10
161.897
20
-83.1378
11
160.141
21
-82.1541
0
LINE
8
BLACK
6
CONTINUOUS
10
160.141
20
-82.1541
11
158.312
21
-81.3112
0
LINE
8
BLACK
6
CONTINUOUS
10
158.312
20
-81.3112
11
156.423
21
-80.6144
0
LINE
8
BLACK
6
CONTINUOUS
10
156.423
20
-80.6144
11
154.486
21
-80.0679
0
LINE
8
BLACK
6
CONTINUOUS
10
154.486
20
-80.0679
11
152.511
21
-79.6751
0
LINE
8
BLACK
6
CONTINUOUS
10
152.511
20
-79.6751
11
150.512
21
-79.4385
0
LINE
8
BLACK
6
CONTINUOUS
10
150.512
20
-79.4385
11
148.5
21
-79.3595
0
LINE
8
BLACK
6
CONTINUOUS
10
148.5
20
-79.3595
11
146.488
21
-79.4385
0
LINE
8
BLACK
6
CONTINUOUS
10
146.488
20
-79.4385
11
144.489
21
-79.6751
0
LINE
8
BLACK
6
CONTINUOUS
10
144.489
20
-79.6751
11
142.514
21
-80.0679
0
LINE
8
BLACK
6
CONTINUOUS
10
142.514
20
-80.0679
11
140.577
21
-80.6144
0
LINE
8
BLACK
6
CONTINUOUS
10
140.577
20
-80.6144
11
138.688
21
-81.3112
0
LINE
8
BLACK
6
CONTINUOUS
10
138.688
20
-81.3112
11
136.859
21
-82.1541
0
LINE
8
BLACK
6
CONTINUOUS
10
136.859
20
-82.1541
11
135.103
21
-83.1378
0
LINE
8
BLACK
6
CONTINUOUS
10
135.103
20
-83.1378
11
133.429
21
-84.2564
0
LINE
8
BLACK
6
CONTINUOUS
10
133.429
20
-84.2564
11
131.848
21
-85.5028
0
LINE
8
BLACK
6
CONTINUOUS
10
131.848
20
-85.5028
11
130.369
21
-86.8694
0
LINE
8
BLACK
6
CONTINUOUS
10
130.369
20
-86.8694
11
129.003
21
-88.3478
0
LINE
8
BLACK
6
CONTINUOUS
10
129.003
20
-88.3478
11
127.756
21
-89.9289
0
LINE
8
BLACK
6
CONTINUOUS
10
127.756
20
-89.9289
11
126.638
21
-91.6029
0
LINE
8
BLACK
6
CONTINUOUS
10
126.638
20
-91.6029
11
125.654
21
-93.3594
0
LINE
8
BLACK
6
CONTINUOUS
10
125.654
20
-93.3594
11
124.811
21
-95.1878
0
LINE
8
BLACK
6
CONTINUOUS
10
124.811
20
-95.1878
11
124.114
21
-97.0766
0
LINE
8
BLACK
6
CONTINUOUS
10
124.114
20
-97.0766
11
123.568
21
-99.0143
0
LINE
8
BLACK
6
CONTINUOUS
10
123.568
20
-99.0143
11
123.175
21
-100.989
0
LINE
8
BLACK
6
CONTINUOUS
10
123.175
20
-100.989
11
122.939
21
-102.988
0
LINE
8
BLACK
6
CONTINUOUS
10
122.939
20
-102.988
11
122.859
21
-105
0
LINE
8
BLACK
6
CONTINUOUS
10
122.859
20
-105
11
122.939
21
-107.012
0
LINE
8
BLACK
6
CONTINUOUS
10
122.939
20
-107.012
11
123.175
21
-109.011
0
LINE
8
BLACK
6
CONTINUOUS
10
123.175
20
-109.011
11
123.568
21
-110.986
0
LINE
8
BLACK
6
CONTINUOUS
10
123.568
20
-110.986
11
124.114
21
-112.923
0
LINE
8
BLACK
6
CONTINUOUS
10
124.114
20
-112.923
11
124.811
21
-114.812
0
LINE
8
BLACK
6
CONTINUOUS
10
124.811
20
-114.812
11
125.654
21
-116.641
0
LINE
8
BLACK
6
CONTINUOUS
10
125.654
20
-116.641
11
126.638
21
-118.397
0
LINE
8
BLACK
6
CONTINUOUS
10
126.638
20
-118.397
11
127.756
21
-120.071
0
LINE
8
BLACK
6
CONTINUOUS
10
127.756
20
-120.071
11
129.003
21
-121.652
0
LINE
8
BLACK
6
CONTINUOUS
10
129.003
20
-121.652
11
130.369
21
-123.131
0
LINE
8
BLACK
6
CONTINUOUS
10
130.369
20
-123.131
11
131.848
21
-124.497
0
LINE
8
BLACK
6
CONTINUOUS
10
131.848
20
-124.497
11
133.429
21
-125.744
0
LINE
8
BLACK
6
CONTINUOUS
10
133.429
20
-125.744
11
135.103
21
-126.862
0
LINE
8
BLACK
6
CONTINUOUS
10
135.103
20
-126.862
11
136.859
21
-127.846
0
LINE
8
BLACK
6
CONTINUOUS
10
136.859
20
-127.846
11
138.688
21
-128.689
0
LINE
8
BLACK
6
CONTINUOUS
10
138.688
20
-128.689
11
140.577
21
-129.386
0
LINE
8
BLACK
6
CONTINUOUS
10
140.577
20
-129.386
11
142.514
21
-129.932
0
LINE
8
BLACK
6
CONTINUOUS
10
142.514
20
-129.932
11
144.489
21
-130.325
0
LINE
8
BLACK
6
CONTINUOUS
10
144.489
20
-130.325
11
146.488
21
-130.561
0
LINE
8
BLACK
6
CONTINUOUS
10
146.488
20
-130.561
11
148.5
21
-130.641
0
LINE
8
BLACK
6
CONTINUOUS
10
148.5
20
-130.641
11
150.512
21
-130.561
0
LINE
8
BLACK
6
CONTINUOUS
10
150.512
20
-130.561
11
152.511
21
-130.325
0
LINE
8
BLACK
6
CONTINUOUS
10
152.511
20
-130.325
11
154.486
21
-129.932
0
LINE
8
BLACK
6
CONTINUOUS
10
154.486
20
-129.932
11
156.423
21
-129.386
0
LINE
8
BLACK
6
CONTINUOUS
10
156.423
20
-129.386
11
158.312
21
-128.689
0
LINE
8
BLACK
6
CONTINUOUS
10
158.312
20
-128.689
11
160.141
21
-127.846
0
LINE
8
BLACK
6
CONTINUOUS
10
160.141
20
-127.846
11
161.897
21
-126.862
0
LINE
8
BLACK
6
CONTINUOUS
10
161.897
20
-126.862
11
163.571
21
-125.744
0
LINE
8
BLACK
6
CONTINUOUS
10
163.571
20
-125.744
11
165.152
21
-124.497
0
LINE
8
BLACK
6
CONTINUOUS
10
165.152
20
-124.497
11
166.631
21
-123.131
0
LINE
8
BLACK
6
CONTINUOUS
10
166.631
20
-123.131
11
167.997
21
-121.652
0
LINE
8
BLACK
6
CONTINUOUS
10
167.997
20
-121.652
11
169.244
21
-120.071
0
LINE
8
BLACK
6
CONTINUOUS
10
169.244
20
-120.071
11
170.362
21
-118.397
0
LINE
8
BLACK
6
CONTINUOUS
10
170.362
20
-118.397
11
171.346
21
-116.641
0
LINE
8
BLACK
6
CONTINUOUS
10
171.346
20
-116.641
11
172.189
21
-114.812
0
LINE
8
BLACK
6
CONTINUOUS
10
172.189
20
-114.812
11
172.886
21
-112.923
0
LINE
8
BLACK
6
CONTINUOUS
10
172.886
20
-112.923
11
173.432
21
-110.986
0
LINE
8
BLACK
6
CONTINUOUS
10
173.432
20
-110.986
11
173.825
21
-109.011
0
LINE
8
BLACK
6
CONTINUOUS
10
173.825
20
-109.011
11
174.061
21
-107.012
0
LINE
8
BLACK
6
CONTINUOUS
10
174.061
20
-107.012
11
174.141
21
-105
0
LINE
8
BLACK
6
CONTINUOUS
10
174.141
20
-105
11
174.061
21
-102.988
0
LINE
8
BLACK
6
CONTINUOUS
10
174.061
20
-102.988
11
173.825
21
-100.989
  0
ENDSEC
  0
EOF
