G04 #@! TF.GenerationSoftware,KiCad,Pcbnew,(5.1.0)-1*
G04 #@! TF.CreationDate,2019-04-02T16:52:52+02:00*
G04 #@! TF.ProjectId,FrogINT_PCBProto_V1811062154,46726f67-494e-4545-9f50-434250726f74,rev?*
G04 #@! TF.SameCoordinates,Original*
G04 #@! TF.FileFunction,Copper,L1,Top*
G04 #@! TF.FilePolarity,Positive*
%FSLAX46Y46*%
G04 Gerber Fmt 4.6, Leading zero omitted, Abs format (unit mm)*
G04 Created by KiCad (PCBNEW (5.1.0)-1) date 2019-04-02 16:52:52*
%MOMM*%
%LPD*%
G04 APERTURE LIST*
%ADD10O,2.900000X1.400000*%
%ADD11R,3.430000X0.850000*%
%ADD12O,1.200000X2.400000*%
%ADD13O,1.200000X2.100000*%
%ADD14R,0.450000X1.100000*%
%ADD15R,2.100000X1.725000*%
%ADD16C,0.100000*%
%ADD17C,1.050000*%
%ADD18O,1.700000X1.700000*%
%ADD19R,1.700000X1.700000*%
%ADD20C,1.000000*%
%ADD21R,1.000000X1.000000*%
%ADD22C,2.500000*%
%ADD23C,0.875000*%
%ADD24R,1.500000X0.550000*%
%ADD25R,0.550000X1.500000*%
%ADD26C,0.800000*%
%ADD27C,0.250000*%
%ADD28C,0.200000*%
%ADD29C,0.254000*%
G04 APERTURE END LIST*
D10*
X166298000Y-104746000D03*
X166298000Y-106646000D03*
X169818000Y-106646000D03*
X169818000Y-104746000D03*
X169818000Y-102846000D03*
X166298000Y-102846000D03*
X154360000Y-88236000D03*
X154360000Y-90136000D03*
X157880000Y-90136000D03*
X157880000Y-88236000D03*
X157880000Y-86336000D03*
X154360000Y-86336000D03*
X133532000Y-92554000D03*
X133532000Y-94454000D03*
X137052000Y-94454000D03*
X137052000Y-92554000D03*
X137052000Y-90654000D03*
X133532000Y-90654000D03*
D11*
X142912000Y-120762000D03*
X142912000Y-116162000D03*
D12*
X153450000Y-128450000D03*
X143550000Y-128450000D03*
D13*
X143550000Y-124450000D03*
X153450000Y-124450000D03*
D14*
X149800000Y-122830000D03*
X149150000Y-122830000D03*
X148500000Y-122830000D03*
X147850000Y-122830000D03*
X147200000Y-122830000D03*
D15*
X157972000Y-104166500D03*
X160872000Y-104166500D03*
X160872000Y-106341500D03*
X157972000Y-106341500D03*
D16*
G36*
X138639505Y-118029204D02*
G01*
X138663773Y-118032804D01*
X138687572Y-118038765D01*
X138710671Y-118047030D01*
X138732850Y-118057520D01*
X138753893Y-118070132D01*
X138773599Y-118084747D01*
X138791777Y-118101223D01*
X138808253Y-118119401D01*
X138822868Y-118139107D01*
X138835480Y-118160150D01*
X138845970Y-118182329D01*
X138854235Y-118205428D01*
X138860196Y-118229227D01*
X138863796Y-118253495D01*
X138865000Y-118277999D01*
X138865000Y-118903001D01*
X138863796Y-118927505D01*
X138860196Y-118951773D01*
X138854235Y-118975572D01*
X138845970Y-118998671D01*
X138835480Y-119020850D01*
X138822868Y-119041893D01*
X138808253Y-119061599D01*
X138791777Y-119079777D01*
X138773599Y-119096253D01*
X138753893Y-119110868D01*
X138732850Y-119123480D01*
X138710671Y-119133970D01*
X138687572Y-119142235D01*
X138663773Y-119148196D01*
X138639505Y-119151796D01*
X138615001Y-119153000D01*
X138064999Y-119153000D01*
X138040495Y-119151796D01*
X138016227Y-119148196D01*
X137992428Y-119142235D01*
X137969329Y-119133970D01*
X137947150Y-119123480D01*
X137926107Y-119110868D01*
X137906401Y-119096253D01*
X137888223Y-119079777D01*
X137871747Y-119061599D01*
X137857132Y-119041893D01*
X137844520Y-119020850D01*
X137834030Y-118998671D01*
X137825765Y-118975572D01*
X137819804Y-118951773D01*
X137816204Y-118927505D01*
X137815000Y-118903001D01*
X137815000Y-118277999D01*
X137816204Y-118253495D01*
X137819804Y-118229227D01*
X137825765Y-118205428D01*
X137834030Y-118182329D01*
X137844520Y-118160150D01*
X137857132Y-118139107D01*
X137871747Y-118119401D01*
X137888223Y-118101223D01*
X137906401Y-118084747D01*
X137926107Y-118070132D01*
X137947150Y-118057520D01*
X137969329Y-118047030D01*
X137992428Y-118038765D01*
X138016227Y-118032804D01*
X138040495Y-118029204D01*
X138064999Y-118028000D01*
X138615001Y-118028000D01*
X138639505Y-118029204D01*
X138639505Y-118029204D01*
G37*
D17*
X138340000Y-118590500D03*
D16*
G36*
X138639505Y-119804204D02*
G01*
X138663773Y-119807804D01*
X138687572Y-119813765D01*
X138710671Y-119822030D01*
X138732850Y-119832520D01*
X138753893Y-119845132D01*
X138773599Y-119859747D01*
X138791777Y-119876223D01*
X138808253Y-119894401D01*
X138822868Y-119914107D01*
X138835480Y-119935150D01*
X138845970Y-119957329D01*
X138854235Y-119980428D01*
X138860196Y-120004227D01*
X138863796Y-120028495D01*
X138865000Y-120052999D01*
X138865000Y-120678001D01*
X138863796Y-120702505D01*
X138860196Y-120726773D01*
X138854235Y-120750572D01*
X138845970Y-120773671D01*
X138835480Y-120795850D01*
X138822868Y-120816893D01*
X138808253Y-120836599D01*
X138791777Y-120854777D01*
X138773599Y-120871253D01*
X138753893Y-120885868D01*
X138732850Y-120898480D01*
X138710671Y-120908970D01*
X138687572Y-120917235D01*
X138663773Y-120923196D01*
X138639505Y-120926796D01*
X138615001Y-120928000D01*
X138064999Y-120928000D01*
X138040495Y-120926796D01*
X138016227Y-120923196D01*
X137992428Y-120917235D01*
X137969329Y-120908970D01*
X137947150Y-120898480D01*
X137926107Y-120885868D01*
X137906401Y-120871253D01*
X137888223Y-120854777D01*
X137871747Y-120836599D01*
X137857132Y-120816893D01*
X137844520Y-120795850D01*
X137834030Y-120773671D01*
X137825765Y-120750572D01*
X137819804Y-120726773D01*
X137816204Y-120702505D01*
X137815000Y-120678001D01*
X137815000Y-120052999D01*
X137816204Y-120028495D01*
X137819804Y-120004227D01*
X137825765Y-119980428D01*
X137834030Y-119957329D01*
X137844520Y-119935150D01*
X137857132Y-119914107D01*
X137871747Y-119894401D01*
X137888223Y-119876223D01*
X137906401Y-119859747D01*
X137926107Y-119845132D01*
X137947150Y-119832520D01*
X137969329Y-119822030D01*
X137992428Y-119813765D01*
X138016227Y-119807804D01*
X138040495Y-119804204D01*
X138064999Y-119803000D01*
X138615001Y-119803000D01*
X138639505Y-119804204D01*
X138639505Y-119804204D01*
G37*
D17*
X138340000Y-120365500D03*
D16*
G36*
X147275505Y-95928204D02*
G01*
X147299773Y-95931804D01*
X147323572Y-95937765D01*
X147346671Y-95946030D01*
X147368850Y-95956520D01*
X147389893Y-95969132D01*
X147409599Y-95983747D01*
X147427777Y-96000223D01*
X147444253Y-96018401D01*
X147458868Y-96038107D01*
X147471480Y-96059150D01*
X147481970Y-96081329D01*
X147490235Y-96104428D01*
X147496196Y-96128227D01*
X147499796Y-96152495D01*
X147501000Y-96176999D01*
X147501000Y-96802001D01*
X147499796Y-96826505D01*
X147496196Y-96850773D01*
X147490235Y-96874572D01*
X147481970Y-96897671D01*
X147471480Y-96919850D01*
X147458868Y-96940893D01*
X147444253Y-96960599D01*
X147427777Y-96978777D01*
X147409599Y-96995253D01*
X147389893Y-97009868D01*
X147368850Y-97022480D01*
X147346671Y-97032970D01*
X147323572Y-97041235D01*
X147299773Y-97047196D01*
X147275505Y-97050796D01*
X147251001Y-97052000D01*
X146700999Y-97052000D01*
X146676495Y-97050796D01*
X146652227Y-97047196D01*
X146628428Y-97041235D01*
X146605329Y-97032970D01*
X146583150Y-97022480D01*
X146562107Y-97009868D01*
X146542401Y-96995253D01*
X146524223Y-96978777D01*
X146507747Y-96960599D01*
X146493132Y-96940893D01*
X146480520Y-96919850D01*
X146470030Y-96897671D01*
X146461765Y-96874572D01*
X146455804Y-96850773D01*
X146452204Y-96826505D01*
X146451000Y-96802001D01*
X146451000Y-96176999D01*
X146452204Y-96152495D01*
X146455804Y-96128227D01*
X146461765Y-96104428D01*
X146470030Y-96081329D01*
X146480520Y-96059150D01*
X146493132Y-96038107D01*
X146507747Y-96018401D01*
X146524223Y-96000223D01*
X146542401Y-95983747D01*
X146562107Y-95969132D01*
X146583150Y-95956520D01*
X146605329Y-95946030D01*
X146628428Y-95937765D01*
X146652227Y-95931804D01*
X146676495Y-95928204D01*
X146700999Y-95927000D01*
X147251001Y-95927000D01*
X147275505Y-95928204D01*
X147275505Y-95928204D01*
G37*
D17*
X146976000Y-96489500D03*
D16*
G36*
X147275505Y-94153204D02*
G01*
X147299773Y-94156804D01*
X147323572Y-94162765D01*
X147346671Y-94171030D01*
X147368850Y-94181520D01*
X147389893Y-94194132D01*
X147409599Y-94208747D01*
X147427777Y-94225223D01*
X147444253Y-94243401D01*
X147458868Y-94263107D01*
X147471480Y-94284150D01*
X147481970Y-94306329D01*
X147490235Y-94329428D01*
X147496196Y-94353227D01*
X147499796Y-94377495D01*
X147501000Y-94401999D01*
X147501000Y-95027001D01*
X147499796Y-95051505D01*
X147496196Y-95075773D01*
X147490235Y-95099572D01*
X147481970Y-95122671D01*
X147471480Y-95144850D01*
X147458868Y-95165893D01*
X147444253Y-95185599D01*
X147427777Y-95203777D01*
X147409599Y-95220253D01*
X147389893Y-95234868D01*
X147368850Y-95247480D01*
X147346671Y-95257970D01*
X147323572Y-95266235D01*
X147299773Y-95272196D01*
X147275505Y-95275796D01*
X147251001Y-95277000D01*
X146700999Y-95277000D01*
X146676495Y-95275796D01*
X146652227Y-95272196D01*
X146628428Y-95266235D01*
X146605329Y-95257970D01*
X146583150Y-95247480D01*
X146562107Y-95234868D01*
X146542401Y-95220253D01*
X146524223Y-95203777D01*
X146507747Y-95185599D01*
X146493132Y-95165893D01*
X146480520Y-95144850D01*
X146470030Y-95122671D01*
X146461765Y-95099572D01*
X146455804Y-95075773D01*
X146452204Y-95051505D01*
X146451000Y-95027001D01*
X146451000Y-94401999D01*
X146452204Y-94377495D01*
X146455804Y-94353227D01*
X146461765Y-94329428D01*
X146470030Y-94306329D01*
X146480520Y-94284150D01*
X146493132Y-94263107D01*
X146507747Y-94243401D01*
X146524223Y-94225223D01*
X146542401Y-94208747D01*
X146562107Y-94194132D01*
X146583150Y-94181520D01*
X146605329Y-94171030D01*
X146628428Y-94162765D01*
X146652227Y-94156804D01*
X146676495Y-94153204D01*
X146700999Y-94152000D01*
X147251001Y-94152000D01*
X147275505Y-94153204D01*
X147275505Y-94153204D01*
G37*
D17*
X146976000Y-94714500D03*
D16*
G36*
X154641505Y-101773204D02*
G01*
X154665773Y-101776804D01*
X154689572Y-101782765D01*
X154712671Y-101791030D01*
X154734850Y-101801520D01*
X154755893Y-101814132D01*
X154775599Y-101828747D01*
X154793777Y-101845223D01*
X154810253Y-101863401D01*
X154824868Y-101883107D01*
X154837480Y-101904150D01*
X154847970Y-101926329D01*
X154856235Y-101949428D01*
X154862196Y-101973227D01*
X154865796Y-101997495D01*
X154867000Y-102021999D01*
X154867000Y-102647001D01*
X154865796Y-102671505D01*
X154862196Y-102695773D01*
X154856235Y-102719572D01*
X154847970Y-102742671D01*
X154837480Y-102764850D01*
X154824868Y-102785893D01*
X154810253Y-102805599D01*
X154793777Y-102823777D01*
X154775599Y-102840253D01*
X154755893Y-102854868D01*
X154734850Y-102867480D01*
X154712671Y-102877970D01*
X154689572Y-102886235D01*
X154665773Y-102892196D01*
X154641505Y-102895796D01*
X154617001Y-102897000D01*
X154066999Y-102897000D01*
X154042495Y-102895796D01*
X154018227Y-102892196D01*
X153994428Y-102886235D01*
X153971329Y-102877970D01*
X153949150Y-102867480D01*
X153928107Y-102854868D01*
X153908401Y-102840253D01*
X153890223Y-102823777D01*
X153873747Y-102805599D01*
X153859132Y-102785893D01*
X153846520Y-102764850D01*
X153836030Y-102742671D01*
X153827765Y-102719572D01*
X153821804Y-102695773D01*
X153818204Y-102671505D01*
X153817000Y-102647001D01*
X153817000Y-102021999D01*
X153818204Y-101997495D01*
X153821804Y-101973227D01*
X153827765Y-101949428D01*
X153836030Y-101926329D01*
X153846520Y-101904150D01*
X153859132Y-101883107D01*
X153873747Y-101863401D01*
X153890223Y-101845223D01*
X153908401Y-101828747D01*
X153928107Y-101814132D01*
X153949150Y-101801520D01*
X153971329Y-101791030D01*
X153994428Y-101782765D01*
X154018227Y-101776804D01*
X154042495Y-101773204D01*
X154066999Y-101772000D01*
X154617001Y-101772000D01*
X154641505Y-101773204D01*
X154641505Y-101773204D01*
G37*
D17*
X154342000Y-102334500D03*
D16*
G36*
X154641505Y-103548204D02*
G01*
X154665773Y-103551804D01*
X154689572Y-103557765D01*
X154712671Y-103566030D01*
X154734850Y-103576520D01*
X154755893Y-103589132D01*
X154775599Y-103603747D01*
X154793777Y-103620223D01*
X154810253Y-103638401D01*
X154824868Y-103658107D01*
X154837480Y-103679150D01*
X154847970Y-103701329D01*
X154856235Y-103724428D01*
X154862196Y-103748227D01*
X154865796Y-103772495D01*
X154867000Y-103796999D01*
X154867000Y-104422001D01*
X154865796Y-104446505D01*
X154862196Y-104470773D01*
X154856235Y-104494572D01*
X154847970Y-104517671D01*
X154837480Y-104539850D01*
X154824868Y-104560893D01*
X154810253Y-104580599D01*
X154793777Y-104598777D01*
X154775599Y-104615253D01*
X154755893Y-104629868D01*
X154734850Y-104642480D01*
X154712671Y-104652970D01*
X154689572Y-104661235D01*
X154665773Y-104667196D01*
X154641505Y-104670796D01*
X154617001Y-104672000D01*
X154066999Y-104672000D01*
X154042495Y-104670796D01*
X154018227Y-104667196D01*
X153994428Y-104661235D01*
X153971329Y-104652970D01*
X153949150Y-104642480D01*
X153928107Y-104629868D01*
X153908401Y-104615253D01*
X153890223Y-104598777D01*
X153873747Y-104580599D01*
X153859132Y-104560893D01*
X153846520Y-104539850D01*
X153836030Y-104517671D01*
X153827765Y-104494572D01*
X153821804Y-104470773D01*
X153818204Y-104446505D01*
X153817000Y-104422001D01*
X153817000Y-103796999D01*
X153818204Y-103772495D01*
X153821804Y-103748227D01*
X153827765Y-103724428D01*
X153836030Y-103701329D01*
X153846520Y-103679150D01*
X153859132Y-103658107D01*
X153873747Y-103638401D01*
X153890223Y-103620223D01*
X153908401Y-103603747D01*
X153928107Y-103589132D01*
X153949150Y-103576520D01*
X153971329Y-103566030D01*
X153994428Y-103557765D01*
X154018227Y-103551804D01*
X154042495Y-103548204D01*
X154066999Y-103547000D01*
X154617001Y-103547000D01*
X154641505Y-103548204D01*
X154641505Y-103548204D01*
G37*
D17*
X154342000Y-104109500D03*
D16*
G36*
X154641505Y-107612204D02*
G01*
X154665773Y-107615804D01*
X154689572Y-107621765D01*
X154712671Y-107630030D01*
X154734850Y-107640520D01*
X154755893Y-107653132D01*
X154775599Y-107667747D01*
X154793777Y-107684223D01*
X154810253Y-107702401D01*
X154824868Y-107722107D01*
X154837480Y-107743150D01*
X154847970Y-107765329D01*
X154856235Y-107788428D01*
X154862196Y-107812227D01*
X154865796Y-107836495D01*
X154867000Y-107860999D01*
X154867000Y-108486001D01*
X154865796Y-108510505D01*
X154862196Y-108534773D01*
X154856235Y-108558572D01*
X154847970Y-108581671D01*
X154837480Y-108603850D01*
X154824868Y-108624893D01*
X154810253Y-108644599D01*
X154793777Y-108662777D01*
X154775599Y-108679253D01*
X154755893Y-108693868D01*
X154734850Y-108706480D01*
X154712671Y-108716970D01*
X154689572Y-108725235D01*
X154665773Y-108731196D01*
X154641505Y-108734796D01*
X154617001Y-108736000D01*
X154066999Y-108736000D01*
X154042495Y-108734796D01*
X154018227Y-108731196D01*
X153994428Y-108725235D01*
X153971329Y-108716970D01*
X153949150Y-108706480D01*
X153928107Y-108693868D01*
X153908401Y-108679253D01*
X153890223Y-108662777D01*
X153873747Y-108644599D01*
X153859132Y-108624893D01*
X153846520Y-108603850D01*
X153836030Y-108581671D01*
X153827765Y-108558572D01*
X153821804Y-108534773D01*
X153818204Y-108510505D01*
X153817000Y-108486001D01*
X153817000Y-107860999D01*
X153818204Y-107836495D01*
X153821804Y-107812227D01*
X153827765Y-107788428D01*
X153836030Y-107765329D01*
X153846520Y-107743150D01*
X153859132Y-107722107D01*
X153873747Y-107702401D01*
X153890223Y-107684223D01*
X153908401Y-107667747D01*
X153928107Y-107653132D01*
X153949150Y-107640520D01*
X153971329Y-107630030D01*
X153994428Y-107621765D01*
X154018227Y-107615804D01*
X154042495Y-107612204D01*
X154066999Y-107611000D01*
X154617001Y-107611000D01*
X154641505Y-107612204D01*
X154641505Y-107612204D01*
G37*
D17*
X154342000Y-108173500D03*
D16*
G36*
X154641505Y-105837204D02*
G01*
X154665773Y-105840804D01*
X154689572Y-105846765D01*
X154712671Y-105855030D01*
X154734850Y-105865520D01*
X154755893Y-105878132D01*
X154775599Y-105892747D01*
X154793777Y-105909223D01*
X154810253Y-105927401D01*
X154824868Y-105947107D01*
X154837480Y-105968150D01*
X154847970Y-105990329D01*
X154856235Y-106013428D01*
X154862196Y-106037227D01*
X154865796Y-106061495D01*
X154867000Y-106085999D01*
X154867000Y-106711001D01*
X154865796Y-106735505D01*
X154862196Y-106759773D01*
X154856235Y-106783572D01*
X154847970Y-106806671D01*
X154837480Y-106828850D01*
X154824868Y-106849893D01*
X154810253Y-106869599D01*
X154793777Y-106887777D01*
X154775599Y-106904253D01*
X154755893Y-106918868D01*
X154734850Y-106931480D01*
X154712671Y-106941970D01*
X154689572Y-106950235D01*
X154665773Y-106956196D01*
X154641505Y-106959796D01*
X154617001Y-106961000D01*
X154066999Y-106961000D01*
X154042495Y-106959796D01*
X154018227Y-106956196D01*
X153994428Y-106950235D01*
X153971329Y-106941970D01*
X153949150Y-106931480D01*
X153928107Y-106918868D01*
X153908401Y-106904253D01*
X153890223Y-106887777D01*
X153873747Y-106869599D01*
X153859132Y-106849893D01*
X153846520Y-106828850D01*
X153836030Y-106806671D01*
X153827765Y-106783572D01*
X153821804Y-106759773D01*
X153818204Y-106735505D01*
X153817000Y-106711001D01*
X153817000Y-106085999D01*
X153818204Y-106061495D01*
X153821804Y-106037227D01*
X153827765Y-106013428D01*
X153836030Y-105990329D01*
X153846520Y-105968150D01*
X153859132Y-105947107D01*
X153873747Y-105927401D01*
X153890223Y-105909223D01*
X153908401Y-105892747D01*
X153928107Y-105878132D01*
X153949150Y-105865520D01*
X153971329Y-105855030D01*
X153994428Y-105846765D01*
X154018227Y-105840804D01*
X154042495Y-105837204D01*
X154066999Y-105836000D01*
X154617001Y-105836000D01*
X154641505Y-105837204D01*
X154641505Y-105837204D01*
G37*
D17*
X154342000Y-106398500D03*
D16*
G36*
X161789505Y-117811204D02*
G01*
X161813773Y-117814804D01*
X161837572Y-117820765D01*
X161860671Y-117829030D01*
X161882850Y-117839520D01*
X161903893Y-117852132D01*
X161923599Y-117866747D01*
X161941777Y-117883223D01*
X161958253Y-117901401D01*
X161972868Y-117921107D01*
X161985480Y-117942150D01*
X161995970Y-117964329D01*
X162004235Y-117987428D01*
X162010196Y-118011227D01*
X162013796Y-118035495D01*
X162015000Y-118059999D01*
X162015000Y-118610001D01*
X162013796Y-118634505D01*
X162010196Y-118658773D01*
X162004235Y-118682572D01*
X161995970Y-118705671D01*
X161985480Y-118727850D01*
X161972868Y-118748893D01*
X161958253Y-118768599D01*
X161941777Y-118786777D01*
X161923599Y-118803253D01*
X161903893Y-118817868D01*
X161882850Y-118830480D01*
X161860671Y-118840970D01*
X161837572Y-118849235D01*
X161813773Y-118855196D01*
X161789505Y-118858796D01*
X161765001Y-118860000D01*
X161139999Y-118860000D01*
X161115495Y-118858796D01*
X161091227Y-118855196D01*
X161067428Y-118849235D01*
X161044329Y-118840970D01*
X161022150Y-118830480D01*
X161001107Y-118817868D01*
X160981401Y-118803253D01*
X160963223Y-118786777D01*
X160946747Y-118768599D01*
X160932132Y-118748893D01*
X160919520Y-118727850D01*
X160909030Y-118705671D01*
X160900765Y-118682572D01*
X160894804Y-118658773D01*
X160891204Y-118634505D01*
X160890000Y-118610001D01*
X160890000Y-118059999D01*
X160891204Y-118035495D01*
X160894804Y-118011227D01*
X160900765Y-117987428D01*
X160909030Y-117964329D01*
X160919520Y-117942150D01*
X160932132Y-117921107D01*
X160946747Y-117901401D01*
X160963223Y-117883223D01*
X160981401Y-117866747D01*
X161001107Y-117852132D01*
X161022150Y-117839520D01*
X161044329Y-117829030D01*
X161067428Y-117820765D01*
X161091227Y-117814804D01*
X161115495Y-117811204D01*
X161139999Y-117810000D01*
X161765001Y-117810000D01*
X161789505Y-117811204D01*
X161789505Y-117811204D01*
G37*
D17*
X161452500Y-118335000D03*
D16*
G36*
X160014505Y-117811204D02*
G01*
X160038773Y-117814804D01*
X160062572Y-117820765D01*
X160085671Y-117829030D01*
X160107850Y-117839520D01*
X160128893Y-117852132D01*
X160148599Y-117866747D01*
X160166777Y-117883223D01*
X160183253Y-117901401D01*
X160197868Y-117921107D01*
X160210480Y-117942150D01*
X160220970Y-117964329D01*
X160229235Y-117987428D01*
X160235196Y-118011227D01*
X160238796Y-118035495D01*
X160240000Y-118059999D01*
X160240000Y-118610001D01*
X160238796Y-118634505D01*
X160235196Y-118658773D01*
X160229235Y-118682572D01*
X160220970Y-118705671D01*
X160210480Y-118727850D01*
X160197868Y-118748893D01*
X160183253Y-118768599D01*
X160166777Y-118786777D01*
X160148599Y-118803253D01*
X160128893Y-118817868D01*
X160107850Y-118830480D01*
X160085671Y-118840970D01*
X160062572Y-118849235D01*
X160038773Y-118855196D01*
X160014505Y-118858796D01*
X159990001Y-118860000D01*
X159364999Y-118860000D01*
X159340495Y-118858796D01*
X159316227Y-118855196D01*
X159292428Y-118849235D01*
X159269329Y-118840970D01*
X159247150Y-118830480D01*
X159226107Y-118817868D01*
X159206401Y-118803253D01*
X159188223Y-118786777D01*
X159171747Y-118768599D01*
X159157132Y-118748893D01*
X159144520Y-118727850D01*
X159134030Y-118705671D01*
X159125765Y-118682572D01*
X159119804Y-118658773D01*
X159116204Y-118634505D01*
X159115000Y-118610001D01*
X159115000Y-118059999D01*
X159116204Y-118035495D01*
X159119804Y-118011227D01*
X159125765Y-117987428D01*
X159134030Y-117964329D01*
X159144520Y-117942150D01*
X159157132Y-117921107D01*
X159171747Y-117901401D01*
X159188223Y-117883223D01*
X159206401Y-117866747D01*
X159226107Y-117852132D01*
X159247150Y-117839520D01*
X159269329Y-117829030D01*
X159292428Y-117820765D01*
X159316227Y-117814804D01*
X159340495Y-117811204D01*
X159364999Y-117810000D01*
X159990001Y-117810000D01*
X160014505Y-117811204D01*
X160014505Y-117811204D01*
G37*
D17*
X159677500Y-118335000D03*
D18*
X133260000Y-107540000D03*
X133260000Y-105000000D03*
D19*
X133260000Y-102460000D03*
D20*
X131228000Y-113382000D03*
X132498000Y-113382000D03*
X131228000Y-114652000D03*
X132498000Y-114652000D03*
X131228000Y-115922000D03*
X132498000Y-115922000D03*
X131228000Y-117192000D03*
X132498000Y-117192000D03*
X131228000Y-118462000D03*
D21*
X132498000Y-118462000D03*
D22*
X164375000Y-118335000D03*
D16*
G36*
X159382691Y-120401053D02*
G01*
X159403926Y-120404203D01*
X159424750Y-120409419D01*
X159444962Y-120416651D01*
X159464368Y-120425830D01*
X159482781Y-120436866D01*
X159500024Y-120449654D01*
X159515930Y-120464070D01*
X159530346Y-120479976D01*
X159543134Y-120497219D01*
X159554170Y-120515632D01*
X159563349Y-120535038D01*
X159570581Y-120555250D01*
X159575797Y-120576074D01*
X159578947Y-120597309D01*
X159580000Y-120618750D01*
X159580000Y-121131250D01*
X159578947Y-121152691D01*
X159575797Y-121173926D01*
X159570581Y-121194750D01*
X159563349Y-121214962D01*
X159554170Y-121234368D01*
X159543134Y-121252781D01*
X159530346Y-121270024D01*
X159515930Y-121285930D01*
X159500024Y-121300346D01*
X159482781Y-121313134D01*
X159464368Y-121324170D01*
X159444962Y-121333349D01*
X159424750Y-121340581D01*
X159403926Y-121345797D01*
X159382691Y-121348947D01*
X159361250Y-121350000D01*
X158923750Y-121350000D01*
X158902309Y-121348947D01*
X158881074Y-121345797D01*
X158860250Y-121340581D01*
X158840038Y-121333349D01*
X158820632Y-121324170D01*
X158802219Y-121313134D01*
X158784976Y-121300346D01*
X158769070Y-121285930D01*
X158754654Y-121270024D01*
X158741866Y-121252781D01*
X158730830Y-121234368D01*
X158721651Y-121214962D01*
X158714419Y-121194750D01*
X158709203Y-121173926D01*
X158706053Y-121152691D01*
X158705000Y-121131250D01*
X158705000Y-120618750D01*
X158706053Y-120597309D01*
X158709203Y-120576074D01*
X158714419Y-120555250D01*
X158721651Y-120535038D01*
X158730830Y-120515632D01*
X158741866Y-120497219D01*
X158754654Y-120479976D01*
X158769070Y-120464070D01*
X158784976Y-120449654D01*
X158802219Y-120436866D01*
X158820632Y-120425830D01*
X158840038Y-120416651D01*
X158860250Y-120409419D01*
X158881074Y-120404203D01*
X158902309Y-120401053D01*
X158923750Y-120400000D01*
X159361250Y-120400000D01*
X159382691Y-120401053D01*
X159382691Y-120401053D01*
G37*
D23*
X159142500Y-120875000D03*
D16*
G36*
X160957691Y-120401053D02*
G01*
X160978926Y-120404203D01*
X160999750Y-120409419D01*
X161019962Y-120416651D01*
X161039368Y-120425830D01*
X161057781Y-120436866D01*
X161075024Y-120449654D01*
X161090930Y-120464070D01*
X161105346Y-120479976D01*
X161118134Y-120497219D01*
X161129170Y-120515632D01*
X161138349Y-120535038D01*
X161145581Y-120555250D01*
X161150797Y-120576074D01*
X161153947Y-120597309D01*
X161155000Y-120618750D01*
X161155000Y-121131250D01*
X161153947Y-121152691D01*
X161150797Y-121173926D01*
X161145581Y-121194750D01*
X161138349Y-121214962D01*
X161129170Y-121234368D01*
X161118134Y-121252781D01*
X161105346Y-121270024D01*
X161090930Y-121285930D01*
X161075024Y-121300346D01*
X161057781Y-121313134D01*
X161039368Y-121324170D01*
X161019962Y-121333349D01*
X160999750Y-121340581D01*
X160978926Y-121345797D01*
X160957691Y-121348947D01*
X160936250Y-121350000D01*
X160498750Y-121350000D01*
X160477309Y-121348947D01*
X160456074Y-121345797D01*
X160435250Y-121340581D01*
X160415038Y-121333349D01*
X160395632Y-121324170D01*
X160377219Y-121313134D01*
X160359976Y-121300346D01*
X160344070Y-121285930D01*
X160329654Y-121270024D01*
X160316866Y-121252781D01*
X160305830Y-121234368D01*
X160296651Y-121214962D01*
X160289419Y-121194750D01*
X160284203Y-121173926D01*
X160281053Y-121152691D01*
X160280000Y-121131250D01*
X160280000Y-120618750D01*
X160281053Y-120597309D01*
X160284203Y-120576074D01*
X160289419Y-120555250D01*
X160296651Y-120535038D01*
X160305830Y-120515632D01*
X160316866Y-120497219D01*
X160329654Y-120479976D01*
X160344070Y-120464070D01*
X160359976Y-120449654D01*
X160377219Y-120436866D01*
X160395632Y-120425830D01*
X160415038Y-120416651D01*
X160435250Y-120409419D01*
X160456074Y-120404203D01*
X160477309Y-120401053D01*
X160498750Y-120400000D01*
X160936250Y-120400000D01*
X160957691Y-120401053D01*
X160957691Y-120401053D01*
G37*
D23*
X160717500Y-120875000D03*
D16*
G36*
X150047691Y-119803053D02*
G01*
X150068926Y-119806203D01*
X150089750Y-119811419D01*
X150109962Y-119818651D01*
X150129368Y-119827830D01*
X150147781Y-119838866D01*
X150165024Y-119851654D01*
X150180930Y-119866070D01*
X150195346Y-119881976D01*
X150208134Y-119899219D01*
X150219170Y-119917632D01*
X150228349Y-119937038D01*
X150235581Y-119957250D01*
X150240797Y-119978074D01*
X150243947Y-119999309D01*
X150245000Y-120020750D01*
X150245000Y-120458250D01*
X150243947Y-120479691D01*
X150240797Y-120500926D01*
X150235581Y-120521750D01*
X150228349Y-120541962D01*
X150219170Y-120561368D01*
X150208134Y-120579781D01*
X150195346Y-120597024D01*
X150180930Y-120612930D01*
X150165024Y-120627346D01*
X150147781Y-120640134D01*
X150129368Y-120651170D01*
X150109962Y-120660349D01*
X150089750Y-120667581D01*
X150068926Y-120672797D01*
X150047691Y-120675947D01*
X150026250Y-120677000D01*
X149513750Y-120677000D01*
X149492309Y-120675947D01*
X149471074Y-120672797D01*
X149450250Y-120667581D01*
X149430038Y-120660349D01*
X149410632Y-120651170D01*
X149392219Y-120640134D01*
X149374976Y-120627346D01*
X149359070Y-120612930D01*
X149344654Y-120597024D01*
X149331866Y-120579781D01*
X149320830Y-120561368D01*
X149311651Y-120541962D01*
X149304419Y-120521750D01*
X149299203Y-120500926D01*
X149296053Y-120479691D01*
X149295000Y-120458250D01*
X149295000Y-120020750D01*
X149296053Y-119999309D01*
X149299203Y-119978074D01*
X149304419Y-119957250D01*
X149311651Y-119937038D01*
X149320830Y-119917632D01*
X149331866Y-119899219D01*
X149344654Y-119881976D01*
X149359070Y-119866070D01*
X149374976Y-119851654D01*
X149392219Y-119838866D01*
X149410632Y-119827830D01*
X149430038Y-119818651D01*
X149450250Y-119811419D01*
X149471074Y-119806203D01*
X149492309Y-119803053D01*
X149513750Y-119802000D01*
X150026250Y-119802000D01*
X150047691Y-119803053D01*
X150047691Y-119803053D01*
G37*
D23*
X149770000Y-120239500D03*
D16*
G36*
X150047691Y-118228053D02*
G01*
X150068926Y-118231203D01*
X150089750Y-118236419D01*
X150109962Y-118243651D01*
X150129368Y-118252830D01*
X150147781Y-118263866D01*
X150165024Y-118276654D01*
X150180930Y-118291070D01*
X150195346Y-118306976D01*
X150208134Y-118324219D01*
X150219170Y-118342632D01*
X150228349Y-118362038D01*
X150235581Y-118382250D01*
X150240797Y-118403074D01*
X150243947Y-118424309D01*
X150245000Y-118445750D01*
X150245000Y-118883250D01*
X150243947Y-118904691D01*
X150240797Y-118925926D01*
X150235581Y-118946750D01*
X150228349Y-118966962D01*
X150219170Y-118986368D01*
X150208134Y-119004781D01*
X150195346Y-119022024D01*
X150180930Y-119037930D01*
X150165024Y-119052346D01*
X150147781Y-119065134D01*
X150129368Y-119076170D01*
X150109962Y-119085349D01*
X150089750Y-119092581D01*
X150068926Y-119097797D01*
X150047691Y-119100947D01*
X150026250Y-119102000D01*
X149513750Y-119102000D01*
X149492309Y-119100947D01*
X149471074Y-119097797D01*
X149450250Y-119092581D01*
X149430038Y-119085349D01*
X149410632Y-119076170D01*
X149392219Y-119065134D01*
X149374976Y-119052346D01*
X149359070Y-119037930D01*
X149344654Y-119022024D01*
X149331866Y-119004781D01*
X149320830Y-118986368D01*
X149311651Y-118966962D01*
X149304419Y-118946750D01*
X149299203Y-118925926D01*
X149296053Y-118904691D01*
X149295000Y-118883250D01*
X149295000Y-118445750D01*
X149296053Y-118424309D01*
X149299203Y-118403074D01*
X149304419Y-118382250D01*
X149311651Y-118362038D01*
X149320830Y-118342632D01*
X149331866Y-118324219D01*
X149344654Y-118306976D01*
X149359070Y-118291070D01*
X149374976Y-118276654D01*
X149392219Y-118263866D01*
X149410632Y-118252830D01*
X149430038Y-118243651D01*
X149450250Y-118236419D01*
X149471074Y-118231203D01*
X149492309Y-118228053D01*
X149513750Y-118227000D01*
X150026250Y-118227000D01*
X150047691Y-118228053D01*
X150047691Y-118228053D01*
G37*
D23*
X149770000Y-118664500D03*
D16*
G36*
X148142691Y-119803053D02*
G01*
X148163926Y-119806203D01*
X148184750Y-119811419D01*
X148204962Y-119818651D01*
X148224368Y-119827830D01*
X148242781Y-119838866D01*
X148260024Y-119851654D01*
X148275930Y-119866070D01*
X148290346Y-119881976D01*
X148303134Y-119899219D01*
X148314170Y-119917632D01*
X148323349Y-119937038D01*
X148330581Y-119957250D01*
X148335797Y-119978074D01*
X148338947Y-119999309D01*
X148340000Y-120020750D01*
X148340000Y-120458250D01*
X148338947Y-120479691D01*
X148335797Y-120500926D01*
X148330581Y-120521750D01*
X148323349Y-120541962D01*
X148314170Y-120561368D01*
X148303134Y-120579781D01*
X148290346Y-120597024D01*
X148275930Y-120612930D01*
X148260024Y-120627346D01*
X148242781Y-120640134D01*
X148224368Y-120651170D01*
X148204962Y-120660349D01*
X148184750Y-120667581D01*
X148163926Y-120672797D01*
X148142691Y-120675947D01*
X148121250Y-120677000D01*
X147608750Y-120677000D01*
X147587309Y-120675947D01*
X147566074Y-120672797D01*
X147545250Y-120667581D01*
X147525038Y-120660349D01*
X147505632Y-120651170D01*
X147487219Y-120640134D01*
X147469976Y-120627346D01*
X147454070Y-120612930D01*
X147439654Y-120597024D01*
X147426866Y-120579781D01*
X147415830Y-120561368D01*
X147406651Y-120541962D01*
X147399419Y-120521750D01*
X147394203Y-120500926D01*
X147391053Y-120479691D01*
X147390000Y-120458250D01*
X147390000Y-120020750D01*
X147391053Y-119999309D01*
X147394203Y-119978074D01*
X147399419Y-119957250D01*
X147406651Y-119937038D01*
X147415830Y-119917632D01*
X147426866Y-119899219D01*
X147439654Y-119881976D01*
X147454070Y-119866070D01*
X147469976Y-119851654D01*
X147487219Y-119838866D01*
X147505632Y-119827830D01*
X147525038Y-119818651D01*
X147545250Y-119811419D01*
X147566074Y-119806203D01*
X147587309Y-119803053D01*
X147608750Y-119802000D01*
X148121250Y-119802000D01*
X148142691Y-119803053D01*
X148142691Y-119803053D01*
G37*
D23*
X147865000Y-120239500D03*
D16*
G36*
X148142691Y-118228053D02*
G01*
X148163926Y-118231203D01*
X148184750Y-118236419D01*
X148204962Y-118243651D01*
X148224368Y-118252830D01*
X148242781Y-118263866D01*
X148260024Y-118276654D01*
X148275930Y-118291070D01*
X148290346Y-118306976D01*
X148303134Y-118324219D01*
X148314170Y-118342632D01*
X148323349Y-118362038D01*
X148330581Y-118382250D01*
X148335797Y-118403074D01*
X148338947Y-118424309D01*
X148340000Y-118445750D01*
X148340000Y-118883250D01*
X148338947Y-118904691D01*
X148335797Y-118925926D01*
X148330581Y-118946750D01*
X148323349Y-118966962D01*
X148314170Y-118986368D01*
X148303134Y-119004781D01*
X148290346Y-119022024D01*
X148275930Y-119037930D01*
X148260024Y-119052346D01*
X148242781Y-119065134D01*
X148224368Y-119076170D01*
X148204962Y-119085349D01*
X148184750Y-119092581D01*
X148163926Y-119097797D01*
X148142691Y-119100947D01*
X148121250Y-119102000D01*
X147608750Y-119102000D01*
X147587309Y-119100947D01*
X147566074Y-119097797D01*
X147545250Y-119092581D01*
X147525038Y-119085349D01*
X147505632Y-119076170D01*
X147487219Y-119065134D01*
X147469976Y-119052346D01*
X147454070Y-119037930D01*
X147439654Y-119022024D01*
X147426866Y-119004781D01*
X147415830Y-118986368D01*
X147406651Y-118966962D01*
X147399419Y-118946750D01*
X147394203Y-118925926D01*
X147391053Y-118904691D01*
X147390000Y-118883250D01*
X147390000Y-118445750D01*
X147391053Y-118424309D01*
X147394203Y-118403074D01*
X147399419Y-118382250D01*
X147406651Y-118362038D01*
X147415830Y-118342632D01*
X147426866Y-118324219D01*
X147439654Y-118306976D01*
X147454070Y-118291070D01*
X147469976Y-118276654D01*
X147487219Y-118263866D01*
X147505632Y-118252830D01*
X147525038Y-118243651D01*
X147545250Y-118236419D01*
X147566074Y-118231203D01*
X147587309Y-118228053D01*
X147608750Y-118227000D01*
X148121250Y-118227000D01*
X148142691Y-118228053D01*
X148142691Y-118228053D01*
G37*
D23*
X147865000Y-118664500D03*
D16*
G36*
X149793691Y-94378053D02*
G01*
X149814926Y-94381203D01*
X149835750Y-94386419D01*
X149855962Y-94393651D01*
X149875368Y-94402830D01*
X149893781Y-94413866D01*
X149911024Y-94426654D01*
X149926930Y-94441070D01*
X149941346Y-94456976D01*
X149954134Y-94474219D01*
X149965170Y-94492632D01*
X149974349Y-94512038D01*
X149981581Y-94532250D01*
X149986797Y-94553074D01*
X149989947Y-94574309D01*
X149991000Y-94595750D01*
X149991000Y-95033250D01*
X149989947Y-95054691D01*
X149986797Y-95075926D01*
X149981581Y-95096750D01*
X149974349Y-95116962D01*
X149965170Y-95136368D01*
X149954134Y-95154781D01*
X149941346Y-95172024D01*
X149926930Y-95187930D01*
X149911024Y-95202346D01*
X149893781Y-95215134D01*
X149875368Y-95226170D01*
X149855962Y-95235349D01*
X149835750Y-95242581D01*
X149814926Y-95247797D01*
X149793691Y-95250947D01*
X149772250Y-95252000D01*
X149259750Y-95252000D01*
X149238309Y-95250947D01*
X149217074Y-95247797D01*
X149196250Y-95242581D01*
X149176038Y-95235349D01*
X149156632Y-95226170D01*
X149138219Y-95215134D01*
X149120976Y-95202346D01*
X149105070Y-95187930D01*
X149090654Y-95172024D01*
X149077866Y-95154781D01*
X149066830Y-95136368D01*
X149057651Y-95116962D01*
X149050419Y-95096750D01*
X149045203Y-95075926D01*
X149042053Y-95054691D01*
X149041000Y-95033250D01*
X149041000Y-94595750D01*
X149042053Y-94574309D01*
X149045203Y-94553074D01*
X149050419Y-94532250D01*
X149057651Y-94512038D01*
X149066830Y-94492632D01*
X149077866Y-94474219D01*
X149090654Y-94456976D01*
X149105070Y-94441070D01*
X149120976Y-94426654D01*
X149138219Y-94413866D01*
X149156632Y-94402830D01*
X149176038Y-94393651D01*
X149196250Y-94386419D01*
X149217074Y-94381203D01*
X149238309Y-94378053D01*
X149259750Y-94377000D01*
X149772250Y-94377000D01*
X149793691Y-94378053D01*
X149793691Y-94378053D01*
G37*
D23*
X149516000Y-94814500D03*
D16*
G36*
X149793691Y-95953053D02*
G01*
X149814926Y-95956203D01*
X149835750Y-95961419D01*
X149855962Y-95968651D01*
X149875368Y-95977830D01*
X149893781Y-95988866D01*
X149911024Y-96001654D01*
X149926930Y-96016070D01*
X149941346Y-96031976D01*
X149954134Y-96049219D01*
X149965170Y-96067632D01*
X149974349Y-96087038D01*
X149981581Y-96107250D01*
X149986797Y-96128074D01*
X149989947Y-96149309D01*
X149991000Y-96170750D01*
X149991000Y-96608250D01*
X149989947Y-96629691D01*
X149986797Y-96650926D01*
X149981581Y-96671750D01*
X149974349Y-96691962D01*
X149965170Y-96711368D01*
X149954134Y-96729781D01*
X149941346Y-96747024D01*
X149926930Y-96762930D01*
X149911024Y-96777346D01*
X149893781Y-96790134D01*
X149875368Y-96801170D01*
X149855962Y-96810349D01*
X149835750Y-96817581D01*
X149814926Y-96822797D01*
X149793691Y-96825947D01*
X149772250Y-96827000D01*
X149259750Y-96827000D01*
X149238309Y-96825947D01*
X149217074Y-96822797D01*
X149196250Y-96817581D01*
X149176038Y-96810349D01*
X149156632Y-96801170D01*
X149138219Y-96790134D01*
X149120976Y-96777346D01*
X149105070Y-96762930D01*
X149090654Y-96747024D01*
X149077866Y-96729781D01*
X149066830Y-96711368D01*
X149057651Y-96691962D01*
X149050419Y-96671750D01*
X149045203Y-96650926D01*
X149042053Y-96629691D01*
X149041000Y-96608250D01*
X149041000Y-96170750D01*
X149042053Y-96149309D01*
X149045203Y-96128074D01*
X149050419Y-96107250D01*
X149057651Y-96087038D01*
X149066830Y-96067632D01*
X149077866Y-96049219D01*
X149090654Y-96031976D01*
X149105070Y-96016070D01*
X149120976Y-96001654D01*
X149138219Y-95988866D01*
X149156632Y-95977830D01*
X149176038Y-95968651D01*
X149196250Y-95961419D01*
X149217074Y-95956203D01*
X149238309Y-95953053D01*
X149259750Y-95952000D01*
X149772250Y-95952000D01*
X149793691Y-95953053D01*
X149793691Y-95953053D01*
G37*
D23*
X149516000Y-96389500D03*
D16*
G36*
X154619691Y-111701053D02*
G01*
X154640926Y-111704203D01*
X154661750Y-111709419D01*
X154681962Y-111716651D01*
X154701368Y-111725830D01*
X154719781Y-111736866D01*
X154737024Y-111749654D01*
X154752930Y-111764070D01*
X154767346Y-111779976D01*
X154780134Y-111797219D01*
X154791170Y-111815632D01*
X154800349Y-111835038D01*
X154807581Y-111855250D01*
X154812797Y-111876074D01*
X154815947Y-111897309D01*
X154817000Y-111918750D01*
X154817000Y-112356250D01*
X154815947Y-112377691D01*
X154812797Y-112398926D01*
X154807581Y-112419750D01*
X154800349Y-112439962D01*
X154791170Y-112459368D01*
X154780134Y-112477781D01*
X154767346Y-112495024D01*
X154752930Y-112510930D01*
X154737024Y-112525346D01*
X154719781Y-112538134D01*
X154701368Y-112549170D01*
X154681962Y-112558349D01*
X154661750Y-112565581D01*
X154640926Y-112570797D01*
X154619691Y-112573947D01*
X154598250Y-112575000D01*
X154085750Y-112575000D01*
X154064309Y-112573947D01*
X154043074Y-112570797D01*
X154022250Y-112565581D01*
X154002038Y-112558349D01*
X153982632Y-112549170D01*
X153964219Y-112538134D01*
X153946976Y-112525346D01*
X153931070Y-112510930D01*
X153916654Y-112495024D01*
X153903866Y-112477781D01*
X153892830Y-112459368D01*
X153883651Y-112439962D01*
X153876419Y-112419750D01*
X153871203Y-112398926D01*
X153868053Y-112377691D01*
X153867000Y-112356250D01*
X153867000Y-111918750D01*
X153868053Y-111897309D01*
X153871203Y-111876074D01*
X153876419Y-111855250D01*
X153883651Y-111835038D01*
X153892830Y-111815632D01*
X153903866Y-111797219D01*
X153916654Y-111779976D01*
X153931070Y-111764070D01*
X153946976Y-111749654D01*
X153964219Y-111736866D01*
X153982632Y-111725830D01*
X154002038Y-111716651D01*
X154022250Y-111709419D01*
X154043074Y-111704203D01*
X154064309Y-111701053D01*
X154085750Y-111700000D01*
X154598250Y-111700000D01*
X154619691Y-111701053D01*
X154619691Y-111701053D01*
G37*
D23*
X154342000Y-112137500D03*
D16*
G36*
X154619691Y-110126053D02*
G01*
X154640926Y-110129203D01*
X154661750Y-110134419D01*
X154681962Y-110141651D01*
X154701368Y-110150830D01*
X154719781Y-110161866D01*
X154737024Y-110174654D01*
X154752930Y-110189070D01*
X154767346Y-110204976D01*
X154780134Y-110222219D01*
X154791170Y-110240632D01*
X154800349Y-110260038D01*
X154807581Y-110280250D01*
X154812797Y-110301074D01*
X154815947Y-110322309D01*
X154817000Y-110343750D01*
X154817000Y-110781250D01*
X154815947Y-110802691D01*
X154812797Y-110823926D01*
X154807581Y-110844750D01*
X154800349Y-110864962D01*
X154791170Y-110884368D01*
X154780134Y-110902781D01*
X154767346Y-110920024D01*
X154752930Y-110935930D01*
X154737024Y-110950346D01*
X154719781Y-110963134D01*
X154701368Y-110974170D01*
X154681962Y-110983349D01*
X154661750Y-110990581D01*
X154640926Y-110995797D01*
X154619691Y-110998947D01*
X154598250Y-111000000D01*
X154085750Y-111000000D01*
X154064309Y-110998947D01*
X154043074Y-110995797D01*
X154022250Y-110990581D01*
X154002038Y-110983349D01*
X153982632Y-110974170D01*
X153964219Y-110963134D01*
X153946976Y-110950346D01*
X153931070Y-110935930D01*
X153916654Y-110920024D01*
X153903866Y-110902781D01*
X153892830Y-110884368D01*
X153883651Y-110864962D01*
X153876419Y-110844750D01*
X153871203Y-110823926D01*
X153868053Y-110802691D01*
X153867000Y-110781250D01*
X153867000Y-110343750D01*
X153868053Y-110322309D01*
X153871203Y-110301074D01*
X153876419Y-110280250D01*
X153883651Y-110260038D01*
X153892830Y-110240632D01*
X153903866Y-110222219D01*
X153916654Y-110204976D01*
X153931070Y-110189070D01*
X153946976Y-110174654D01*
X153964219Y-110161866D01*
X153982632Y-110150830D01*
X154002038Y-110141651D01*
X154022250Y-110134419D01*
X154043074Y-110129203D01*
X154064309Y-110126053D01*
X154085750Y-110125000D01*
X154598250Y-110125000D01*
X154619691Y-110126053D01*
X154619691Y-110126053D01*
G37*
D23*
X154342000Y-110562500D03*
D24*
X139752000Y-109000000D03*
X139752000Y-108200000D03*
X139752000Y-107400000D03*
X139752000Y-106600000D03*
X139752000Y-105800000D03*
X139752000Y-105000000D03*
X139752000Y-104200000D03*
X139752000Y-103400000D03*
X139752000Y-102600000D03*
X139752000Y-101800000D03*
X139752000Y-101000000D03*
D25*
X141452000Y-99300000D03*
X142252000Y-99300000D03*
X143052000Y-99300000D03*
X143852000Y-99300000D03*
X144652000Y-99300000D03*
X145452000Y-99300000D03*
X146252000Y-99300000D03*
X147052000Y-99300000D03*
X147852000Y-99300000D03*
X148652000Y-99300000D03*
X149452000Y-99300000D03*
D24*
X151152000Y-101000000D03*
X151152000Y-101800000D03*
X151152000Y-102600000D03*
X151152000Y-103400000D03*
X151152000Y-104200000D03*
X151152000Y-105000000D03*
X151152000Y-105800000D03*
X151152000Y-106600000D03*
X151152000Y-107400000D03*
X151152000Y-108200000D03*
X151152000Y-109000000D03*
D25*
X149452000Y-110700000D03*
X148652000Y-110700000D03*
X147852000Y-110700000D03*
X147052000Y-110700000D03*
X146252000Y-110700000D03*
X145452000Y-110700000D03*
X144652000Y-110700000D03*
X143852000Y-110700000D03*
X143052000Y-110700000D03*
X142252000Y-110700000D03*
X141452000Y-110700000D03*
D26*
X149751600Y-106655000D03*
X135563500Y-108970700D03*
X135298600Y-93504000D03*
X148159800Y-108904500D03*
D27*
X160872000Y-106341500D02*
X159496700Y-106341500D01*
X157972000Y-104166500D02*
X159347300Y-104166500D01*
X159347300Y-104166500D02*
X159347300Y-106192100D01*
X159347300Y-106192100D02*
X159496700Y-106341500D01*
X154342000Y-102334500D02*
X156174000Y-104166500D01*
X156174000Y-104166500D02*
X157972000Y-104166500D01*
X149751600Y-100674900D02*
X150026900Y-100399600D01*
X150026900Y-100399600D02*
X152407100Y-100399600D01*
X152407100Y-100399600D02*
X154342000Y-102334500D01*
X149751600Y-100674900D02*
X149452000Y-100375300D01*
X149751600Y-106655000D02*
X149751600Y-100674900D01*
X149452000Y-99300000D02*
X149452000Y-100375300D01*
X149751600Y-106655000D02*
X150021700Y-106655000D01*
X150021700Y-106655000D02*
X150076700Y-106600000D01*
X137453900Y-119476600D02*
X132052500Y-119476600D01*
X132052500Y-119476600D02*
X131228000Y-118652100D01*
X131228000Y-118652100D02*
X131228000Y-118462000D01*
X137453900Y-119476600D02*
X138340000Y-118590500D01*
X149800000Y-123705300D02*
X146773600Y-123705300D01*
X146773600Y-123705300D02*
X144598600Y-121530300D01*
X144598600Y-121530300D02*
X138086900Y-121530300D01*
X138086900Y-121530300D02*
X137453900Y-120897300D01*
X137453900Y-120897300D02*
X137453900Y-119476600D01*
X138676700Y-101800000D02*
X134112000Y-106364700D01*
X134112000Y-106364700D02*
X133260000Y-106364700D01*
X139752000Y-108200000D02*
X140827300Y-108200000D01*
X139752000Y-101800000D02*
X140827300Y-101800000D01*
X140827300Y-101800000D02*
X140827300Y-108200000D01*
X139214400Y-101800000D02*
X139752000Y-101800000D01*
X139214400Y-101800000D02*
X138676700Y-101800000D01*
X133260000Y-107540000D02*
X133260000Y-108715300D01*
X131228000Y-113382000D02*
X131228000Y-110747300D01*
X131228000Y-110747300D02*
X133260000Y-108715300D01*
X151152000Y-106600000D02*
X152227300Y-106600000D01*
X154342000Y-108173500D02*
X152768500Y-106600000D01*
X152768500Y-106600000D02*
X152227300Y-106600000D01*
X166298000Y-102846000D02*
X166298000Y-92978700D01*
X166298000Y-92978700D02*
X159655300Y-86336000D01*
X151152000Y-106600000D02*
X150076700Y-106600000D01*
X157880000Y-86336000D02*
X159655300Y-86336000D01*
X154360000Y-86336000D02*
X157880000Y-86336000D01*
X154360000Y-86336000D02*
X141370000Y-86336000D01*
X141370000Y-86336000D02*
X137052000Y-90654000D01*
X149800000Y-122830000D02*
X149800000Y-121954700D01*
X144652000Y-110700000D02*
X144652000Y-111775300D01*
X144652000Y-111775300D02*
X150576200Y-117699500D01*
X150576200Y-117699500D02*
X150576200Y-121178500D01*
X150576200Y-121178500D02*
X149800000Y-121954700D01*
X148692900Y-94814500D02*
X147076000Y-94814500D01*
X147076000Y-94814500D02*
X146976000Y-94714500D01*
X149516000Y-94814500D02*
X148692900Y-94814500D01*
X149452000Y-98224700D02*
X148692900Y-97465600D01*
X148692900Y-97465600D02*
X148692900Y-94814500D01*
X149452000Y-99300000D02*
X149452000Y-98224700D01*
X133260000Y-106952300D02*
X133260000Y-106364700D01*
X133260000Y-106364700D02*
X132892700Y-106364700D01*
X132892700Y-106364700D02*
X131756700Y-105228700D01*
X131756700Y-105228700D02*
X131756700Y-90654000D01*
X133532000Y-90654000D02*
X131756700Y-90654000D01*
X133260000Y-106952300D02*
X133260000Y-107540000D01*
X149800000Y-122830000D02*
X149800000Y-123705300D01*
X166298000Y-102846000D02*
X167326800Y-101817200D01*
X167326800Y-101817200D02*
X171026800Y-101817200D01*
X171026800Y-101817200D02*
X171640000Y-102430400D01*
X171640000Y-102430400D02*
X171640000Y-113302800D01*
X171640000Y-113302800D02*
X163233000Y-121709800D01*
X163233000Y-121709800D02*
X159977300Y-121709800D01*
X159977300Y-121709800D02*
X159142500Y-120875000D01*
X137052000Y-90654000D02*
X133532000Y-90654000D01*
X159677500Y-118335000D02*
X159142500Y-118870000D01*
X159142500Y-118870000D02*
X159142500Y-120875000D01*
X142912000Y-120762000D02*
X140871700Y-120762000D01*
X138340000Y-120365500D02*
X140475200Y-120365500D01*
X140475200Y-120365500D02*
X140871700Y-120762000D01*
X147200000Y-122830000D02*
X147200000Y-121954700D01*
X142912000Y-120762000D02*
X146007300Y-120762000D01*
X146007300Y-120762000D02*
X147200000Y-121954700D01*
X150327300Y-94102700D02*
X150393300Y-94102700D01*
X150393300Y-94102700D02*
X154360000Y-90136000D01*
X146089900Y-94454000D02*
X146089900Y-94139000D01*
X146089900Y-94139000D02*
X146404700Y-93824200D01*
X146404700Y-93824200D02*
X150048800Y-93824200D01*
X150048800Y-93824200D02*
X150327300Y-94102700D01*
X150327300Y-94102700D02*
X150327300Y-95578200D01*
X150327300Y-95578200D02*
X149516000Y-96389500D01*
X146089900Y-94454000D02*
X146089900Y-95603400D01*
X146089900Y-95603400D02*
X146976000Y-96489500D01*
X137052000Y-94454000D02*
X146089900Y-94454000D01*
X148652000Y-101000000D02*
X148652000Y-100375300D01*
X148652000Y-107400000D02*
X148652000Y-101000000D01*
X148652000Y-101000000D02*
X140827300Y-101000000D01*
X139752000Y-101000000D02*
X140827300Y-101000000D01*
X148652000Y-107400000D02*
X148476700Y-107400000D01*
X148476700Y-107400000D02*
X146252000Y-109624700D01*
X151152000Y-107400000D02*
X148652000Y-107400000D01*
X148652000Y-99300000D02*
X148652000Y-100375300D01*
X142252000Y-109624700D02*
X146252000Y-109624700D01*
X140827300Y-109000000D02*
X141627300Y-109000000D01*
X141627300Y-109000000D02*
X142252000Y-109624700D01*
X134435300Y-105000000D02*
X138435300Y-101000000D01*
X138435300Y-101000000D02*
X139752000Y-101000000D01*
X152227300Y-107400000D02*
X152227300Y-107621200D01*
X152227300Y-107621200D02*
X154342000Y-109735900D01*
X133260000Y-105000000D02*
X134435300Y-105000000D01*
X146252000Y-110700000D02*
X146252000Y-109624700D01*
X135307300Y-94454000D02*
X137052000Y-94454000D01*
X139752000Y-109000000D02*
X140827300Y-109000000D01*
X142252000Y-110700000D02*
X142252000Y-109624700D01*
X140871700Y-116162000D02*
X140871700Y-115411700D01*
X140871700Y-115411700D02*
X142252000Y-114031400D01*
X142252000Y-114031400D02*
X142252000Y-110700000D01*
X146976000Y-96489500D02*
X148652000Y-98165500D01*
X148652000Y-98165500D02*
X148652000Y-99300000D01*
X142912000Y-116162000D02*
X140871700Y-116162000D01*
X154360000Y-90136000D02*
X156104700Y-90136000D01*
X133532000Y-94454000D02*
X135307300Y-94454000D01*
X157880000Y-90136000D02*
X156104700Y-90136000D01*
X139752000Y-107400000D02*
X138676700Y-107400000D01*
X139752000Y-109000000D02*
X138676700Y-109000000D01*
X138676700Y-109000000D02*
X138676700Y-107400000D01*
X154342000Y-109735900D02*
X163208100Y-109735900D01*
X163208100Y-109735900D02*
X166298000Y-106646000D01*
X154342000Y-109735900D02*
X154342000Y-110562500D01*
X151152000Y-107400000D02*
X152227300Y-107400000D01*
X154342000Y-104554700D02*
X154809900Y-104554700D01*
X154809900Y-104554700D02*
X156596700Y-106341500D01*
X151152000Y-105000000D02*
X153896700Y-105000000D01*
X153896700Y-105000000D02*
X154342000Y-104554700D01*
X154342000Y-104554700D02*
X154342000Y-104109500D01*
X157972000Y-106341500D02*
X156596700Y-106341500D01*
X160872000Y-104166500D02*
X162247300Y-104166500D01*
X162247300Y-104166500D02*
X162247300Y-107387800D01*
X162247300Y-107387800D02*
X162105700Y-107529400D01*
X162105700Y-107529400D02*
X155472900Y-107529400D01*
X155472900Y-107529400D02*
X154342000Y-106398500D01*
X151152000Y-105800000D02*
X153743500Y-105800000D01*
X153743500Y-105800000D02*
X154342000Y-106398500D01*
X131228000Y-115922000D02*
X131228000Y-114652000D01*
X152519300Y-112137500D02*
X152519300Y-121659300D01*
X152519300Y-121659300D02*
X150015600Y-124163000D01*
X150015600Y-124163000D02*
X146033400Y-124163000D01*
X146033400Y-124163000D02*
X144890500Y-123020100D01*
X144890500Y-123020100D02*
X134616000Y-123020100D01*
X134616000Y-123020100D02*
X130383900Y-118788000D01*
X130383900Y-118788000D02*
X130383900Y-116766100D01*
X130383900Y-116766100D02*
X131228000Y-115922000D01*
X150076700Y-108200000D02*
X150076700Y-109694900D01*
X150076700Y-109694900D02*
X152519300Y-112137500D01*
X152519300Y-112137500D02*
X154342000Y-112137500D01*
X151152000Y-108200000D02*
X150076700Y-108200000D01*
X164375000Y-118335000D02*
X161452500Y-118335000D01*
X160717500Y-120875000D02*
X161452500Y-120140000D01*
X161452500Y-120140000D02*
X161452500Y-118335000D01*
X151152000Y-109000000D02*
X152227300Y-109000000D01*
X152227300Y-109000000D02*
X152227300Y-109705700D01*
X152227300Y-109705700D02*
X153871600Y-111350000D01*
X153871600Y-111350000D02*
X154848700Y-111350000D01*
X154848700Y-111350000D02*
X161452500Y-117953800D01*
X161452500Y-117953800D02*
X161452500Y-118335000D01*
X149770000Y-120239500D02*
X149770000Y-118665000D01*
X149770000Y-120240000D02*
X149770000Y-120239500D01*
D28*
X149769800Y-118664700D02*
X143677000Y-112572000D01*
X143677000Y-112572000D02*
X143677000Y-112000000D01*
X143677000Y-112000000D02*
X143852000Y-111825000D01*
X143852000Y-111825000D02*
X143852000Y-110700000D01*
X149770000Y-118665000D02*
X149769800Y-118664700D01*
D27*
X149770000Y-118664500D02*
X149769800Y-118664700D01*
D28*
X148500000Y-122830000D02*
X148500000Y-122816000D01*
X148500000Y-122816000D02*
X148625000Y-122691000D01*
X148625000Y-122691000D02*
X148625000Y-122040000D01*
X148625000Y-122040000D02*
X149042000Y-121622000D01*
X149042000Y-121622000D02*
X149042000Y-120968000D01*
X149042000Y-120968000D02*
X149770000Y-120240000D01*
D27*
X147865000Y-120240000D02*
X147865000Y-120239500D01*
D28*
X147850000Y-122830000D02*
X147975000Y-122705000D01*
X147975000Y-122705000D02*
X147975000Y-122040000D01*
X147975000Y-122040000D02*
X148592000Y-121422000D01*
X148592000Y-121422000D02*
X148592000Y-120968000D01*
X148592000Y-120968000D02*
X147865000Y-120240000D01*
D27*
X147865000Y-118665000D02*
X147865000Y-120239500D01*
D28*
X147865000Y-118665000D02*
X147865000Y-118664500D01*
X147865000Y-118664500D02*
X147865000Y-117396000D01*
X147865000Y-117396000D02*
X143227000Y-112758000D01*
X143227000Y-112758000D02*
X143227000Y-112000000D01*
X143227000Y-112000000D02*
X143052000Y-111825000D01*
X143052000Y-111825000D02*
X143052000Y-110700000D01*
D27*
X133260000Y-102460000D02*
X134435300Y-102460000D01*
X143852000Y-99300000D02*
X143852000Y-100375300D01*
X143852000Y-100375300D02*
X136520000Y-100375300D01*
X136520000Y-100375300D02*
X134435300Y-102460000D01*
X132498000Y-118462000D02*
X138215600Y-112744400D01*
X138215600Y-112744400D02*
X138215600Y-105461100D01*
X138215600Y-105461100D02*
X138676700Y-105000000D01*
X139752000Y-105000000D02*
X138676700Y-105000000D01*
X139752000Y-103400000D02*
X138676700Y-103400000D01*
X138676700Y-103400000D02*
X135563500Y-106513200D01*
X135563500Y-106513200D02*
X135563500Y-108970700D01*
X132498000Y-115922000D02*
X136844300Y-111575700D01*
X136844300Y-111575700D02*
X136844300Y-106032400D01*
X136844300Y-106032400D02*
X138676700Y-104200000D01*
X139752000Y-104200000D02*
X138676700Y-104200000D01*
X138676700Y-102600000D02*
X134732900Y-106543800D01*
X134732900Y-106543800D02*
X134732900Y-111147100D01*
X134732900Y-111147100D02*
X132498000Y-113382000D01*
X139752000Y-102600000D02*
X138676700Y-102600000D01*
X147052000Y-110700000D02*
X147052000Y-109624700D01*
X147052000Y-109624700D02*
X147439600Y-109624700D01*
X147439600Y-109624700D02*
X148159800Y-108904500D01*
X135298600Y-93504000D02*
X134348600Y-92554000D01*
X134348600Y-92554000D02*
X133532000Y-92554000D01*
X137052000Y-92554000D02*
X147003600Y-92554000D01*
X147003600Y-92554000D02*
X151321600Y-88236000D01*
X151321600Y-88236000D02*
X154360000Y-88236000D01*
X166298000Y-104746000D02*
X164522700Y-104746000D01*
X157880000Y-88236000D02*
X159655300Y-88236000D01*
X159655300Y-88236000D02*
X159655300Y-99878600D01*
X159655300Y-99878600D02*
X164522700Y-104746000D01*
D29*
G36*
X150461912Y-80071544D02*
G01*
X152411728Y-80302320D01*
X154337427Y-80685365D01*
X156227137Y-81218318D01*
X158069206Y-81897893D01*
X159852278Y-82719901D01*
X161565359Y-83679272D01*
X163197888Y-84770093D01*
X164739799Y-85985638D01*
X166181587Y-87318413D01*
X167514362Y-88760201D01*
X168729907Y-90302112D01*
X169820728Y-91934641D01*
X170780099Y-93647722D01*
X171602107Y-95430794D01*
X172281682Y-97272863D01*
X172814635Y-99162573D01*
X173197680Y-101088272D01*
X173428456Y-103038088D01*
X173505540Y-105000000D01*
X173428456Y-106961912D01*
X173197680Y-108911728D01*
X172814635Y-110837427D01*
X172281682Y-112727137D01*
X171602107Y-114569206D01*
X170780099Y-116352278D01*
X169820728Y-118065359D01*
X168729907Y-119697888D01*
X167514362Y-121239799D01*
X166181587Y-122681587D01*
X164739799Y-124014362D01*
X163197888Y-125229907D01*
X161565359Y-126320728D01*
X159852278Y-127280099D01*
X158069206Y-128102107D01*
X156227137Y-128781682D01*
X154674267Y-129219636D01*
X154685000Y-129110665D01*
X154685000Y-127789335D01*
X154667130Y-127607898D01*
X154596511Y-127375099D01*
X154481833Y-127160551D01*
X154327502Y-126972498D01*
X154139448Y-126818167D01*
X153924900Y-126703489D01*
X153692101Y-126632870D01*
X153450000Y-126609025D01*
X153207898Y-126632870D01*
X152975099Y-126703489D01*
X152760551Y-126818167D01*
X152572498Y-126972498D01*
X152418167Y-127160552D01*
X152303489Y-127375100D01*
X152232870Y-127607899D01*
X152215000Y-127789336D01*
X152215000Y-129110665D01*
X152232870Y-129292102D01*
X152303489Y-129524901D01*
X152396787Y-129699448D01*
X150461912Y-129928456D01*
X148500000Y-130005540D01*
X146538088Y-129928456D01*
X144603214Y-129699448D01*
X144696511Y-129524901D01*
X144767130Y-129292102D01*
X144785000Y-129110665D01*
X144785000Y-127789335D01*
X144767130Y-127607898D01*
X144696511Y-127375099D01*
X144581833Y-127160551D01*
X144427502Y-126972498D01*
X144239448Y-126818167D01*
X144024900Y-126703489D01*
X143792101Y-126632870D01*
X143550000Y-126609025D01*
X143307898Y-126632870D01*
X143075099Y-126703489D01*
X142860551Y-126818167D01*
X142672498Y-126972498D01*
X142518167Y-127160552D01*
X142403489Y-127375100D01*
X142332870Y-127607899D01*
X142315000Y-127789336D01*
X142315000Y-129110665D01*
X142325733Y-129219636D01*
X140772863Y-128781682D01*
X138930794Y-128102107D01*
X137147722Y-127280099D01*
X135434641Y-126320728D01*
X133802112Y-125229907D01*
X132260201Y-124014362D01*
X130818413Y-122681587D01*
X129485638Y-121239799D01*
X128270093Y-119697888D01*
X127179272Y-118065359D01*
X126451653Y-116766100D01*
X129620224Y-116766100D01*
X129623901Y-116803432D01*
X129623900Y-118750677D01*
X129620224Y-118788000D01*
X129623900Y-118825322D01*
X129623900Y-118825332D01*
X129634897Y-118936985D01*
X129678354Y-119080246D01*
X129748926Y-119212276D01*
X129771815Y-119240166D01*
X129843899Y-119328001D01*
X129872903Y-119351804D01*
X134052200Y-123531102D01*
X134075999Y-123560101D01*
X134191724Y-123655074D01*
X134323753Y-123725646D01*
X134467014Y-123769103D01*
X134578667Y-123780100D01*
X134578676Y-123780100D01*
X134615999Y-123783776D01*
X134653322Y-123780100D01*
X142330683Y-123780100D01*
X142315000Y-123939336D01*
X142315000Y-124960665D01*
X142332870Y-125142102D01*
X142403489Y-125374901D01*
X142518168Y-125589449D01*
X142672499Y-125777502D01*
X142860552Y-125931833D01*
X143075100Y-126046511D01*
X143307899Y-126117130D01*
X143550000Y-126140975D01*
X143792102Y-126117130D01*
X144024901Y-126046511D01*
X144239449Y-125931833D01*
X144427502Y-125777502D01*
X144581833Y-125589449D01*
X144696511Y-125374901D01*
X144767130Y-125142102D01*
X144785000Y-124960664D01*
X144785000Y-123989401D01*
X145469601Y-124674003D01*
X145493399Y-124703001D01*
X145609124Y-124797974D01*
X145741153Y-124868546D01*
X145884414Y-124912003D01*
X145996067Y-124923000D01*
X145996075Y-124923000D01*
X146033400Y-124926676D01*
X146070725Y-124923000D01*
X149978278Y-124923000D01*
X150015600Y-124926676D01*
X150052922Y-124923000D01*
X150052933Y-124923000D01*
X150164586Y-124912003D01*
X150307847Y-124868546D01*
X150439876Y-124797974D01*
X150555601Y-124703001D01*
X150579404Y-124673997D01*
X151314065Y-123939336D01*
X152215000Y-123939336D01*
X152215000Y-124960665D01*
X152232870Y-125142102D01*
X152303489Y-125374901D01*
X152418168Y-125589449D01*
X152572499Y-125777502D01*
X152760552Y-125931833D01*
X152975100Y-126046511D01*
X153207899Y-126117130D01*
X153450000Y-126140975D01*
X153692102Y-126117130D01*
X153924901Y-126046511D01*
X154139449Y-125931833D01*
X154327502Y-125777502D01*
X154481833Y-125589449D01*
X154596511Y-125374901D01*
X154667130Y-125142102D01*
X154685000Y-124960664D01*
X154685000Y-123939335D01*
X154667130Y-123757898D01*
X154596511Y-123525099D01*
X154481833Y-123310551D01*
X154327502Y-123122498D01*
X154139448Y-122968167D01*
X153924900Y-122853489D01*
X153692101Y-122782870D01*
X153450000Y-122759025D01*
X153207898Y-122782870D01*
X152975099Y-122853489D01*
X152760551Y-122968167D01*
X152572498Y-123122498D01*
X152418167Y-123310552D01*
X152303489Y-123525100D01*
X152232870Y-123757899D01*
X152215000Y-123939336D01*
X151314065Y-123939336D01*
X153030308Y-122223095D01*
X153059301Y-122199301D01*
X153083095Y-122170308D01*
X153083099Y-122170304D01*
X153154273Y-122083577D01*
X153154274Y-122083576D01*
X153224846Y-121951547D01*
X153268303Y-121808286D01*
X153279300Y-121696633D01*
X153279300Y-121696624D01*
X153282976Y-121659301D01*
X153279300Y-121621978D01*
X153279300Y-121350000D01*
X158066928Y-121350000D01*
X158079188Y-121474482D01*
X158115498Y-121594180D01*
X158174463Y-121704494D01*
X158253815Y-121801185D01*
X158350506Y-121880537D01*
X158460820Y-121939502D01*
X158580518Y-121975812D01*
X158705000Y-121988072D01*
X158856750Y-121985000D01*
X159015500Y-121826250D01*
X159015500Y-121002000D01*
X158228750Y-121002000D01*
X158070000Y-121160750D01*
X158066928Y-121350000D01*
X153279300Y-121350000D01*
X153279300Y-120400000D01*
X158066928Y-120400000D01*
X158070000Y-120589250D01*
X158228750Y-120748000D01*
X159015500Y-120748000D01*
X159015500Y-119923750D01*
X158856750Y-119765000D01*
X158705000Y-119761928D01*
X158580518Y-119774188D01*
X158460820Y-119810498D01*
X158350506Y-119869463D01*
X158253815Y-119948815D01*
X158174463Y-120045506D01*
X158115498Y-120155820D01*
X158079188Y-120275518D01*
X158066928Y-120400000D01*
X153279300Y-120400000D01*
X153279300Y-118860000D01*
X158476928Y-118860000D01*
X158489188Y-118984482D01*
X158525498Y-119104180D01*
X158584463Y-119214494D01*
X158663815Y-119311185D01*
X158760506Y-119390537D01*
X158870820Y-119449502D01*
X158990518Y-119485812D01*
X159115000Y-119498072D01*
X159391750Y-119495000D01*
X159550500Y-119336250D01*
X159550500Y-118462000D01*
X158638750Y-118462000D01*
X158480000Y-118620750D01*
X158476928Y-118860000D01*
X153279300Y-118860000D01*
X153279300Y-112897500D01*
X153426857Y-112897500D01*
X153479885Y-112962115D01*
X153609725Y-113068671D01*
X153757858Y-113147850D01*
X153918592Y-113196608D01*
X154085750Y-113213072D01*
X154598250Y-113213072D01*
X154765408Y-113196608D01*
X154926142Y-113147850D01*
X155074275Y-113068671D01*
X155204115Y-112962115D01*
X155286106Y-112862207D01*
X159598898Y-117175000D01*
X159550498Y-117175000D01*
X159550498Y-117333748D01*
X159391750Y-117175000D01*
X159115000Y-117171928D01*
X158990518Y-117184188D01*
X158870820Y-117220498D01*
X158760506Y-117279463D01*
X158663815Y-117358815D01*
X158584463Y-117455506D01*
X158525498Y-117565820D01*
X158489188Y-117685518D01*
X158476928Y-117810000D01*
X158480000Y-118049250D01*
X158638750Y-118208000D01*
X159550500Y-118208000D01*
X159550500Y-118188000D01*
X159804500Y-118188000D01*
X159804500Y-118208000D01*
X159824500Y-118208000D01*
X159824500Y-118462000D01*
X159804500Y-118462000D01*
X159804500Y-119336250D01*
X159963250Y-119495000D01*
X160240000Y-119498072D01*
X160364482Y-119485812D01*
X160484180Y-119449502D01*
X160594494Y-119390537D01*
X160646223Y-119348085D01*
X160646613Y-119348405D01*
X160692500Y-119372932D01*
X160692500Y-119761928D01*
X160498750Y-119761928D01*
X160331592Y-119778392D01*
X160170858Y-119827150D01*
X160022725Y-119906329D01*
X160001070Y-119924100D01*
X159934494Y-119869463D01*
X159824180Y-119810498D01*
X159704482Y-119774188D01*
X159580000Y-119761928D01*
X159428250Y-119765000D01*
X159269500Y-119923750D01*
X159269500Y-120748000D01*
X159289500Y-120748000D01*
X159289500Y-121002000D01*
X159269500Y-121002000D01*
X159269500Y-121826250D01*
X159428250Y-121985000D01*
X159580000Y-121988072D01*
X159704482Y-121975812D01*
X159824180Y-121939502D01*
X159934494Y-121880537D01*
X160001070Y-121825900D01*
X160022725Y-121843671D01*
X160170858Y-121922850D01*
X160331592Y-121971608D01*
X160498750Y-121988072D01*
X160936250Y-121988072D01*
X161103408Y-121971608D01*
X161264142Y-121922850D01*
X161412275Y-121843671D01*
X161542115Y-121737115D01*
X161648671Y-121607275D01*
X161727850Y-121459142D01*
X161776608Y-121298408D01*
X161793072Y-121131250D01*
X161793072Y-120874230D01*
X161963504Y-120703798D01*
X161992501Y-120680001D01*
X162018832Y-120647917D01*
X162087474Y-120564277D01*
X162158046Y-120432247D01*
X162171169Y-120388985D01*
X162201503Y-120288986D01*
X162212500Y-120177333D01*
X162212500Y-120177323D01*
X162216176Y-120140000D01*
X162212500Y-120102677D01*
X162212500Y-119372932D01*
X162258387Y-119348405D01*
X162392962Y-119237962D01*
X162503405Y-119103387D01*
X162507888Y-119095000D01*
X162649493Y-119095000D01*
X162704534Y-119227882D01*
X162910825Y-119536618D01*
X163173382Y-119799175D01*
X163482118Y-120005466D01*
X163825166Y-120147561D01*
X164189344Y-120220000D01*
X164560656Y-120220000D01*
X164924834Y-120147561D01*
X165267882Y-120005466D01*
X165576618Y-119799175D01*
X165839175Y-119536618D01*
X166045466Y-119227882D01*
X166187561Y-118884834D01*
X166260000Y-118520656D01*
X166260000Y-118149344D01*
X166187561Y-117785166D01*
X166045466Y-117442118D01*
X165839175Y-117133382D01*
X165576618Y-116870825D01*
X165267882Y-116664534D01*
X164924834Y-116522439D01*
X164560656Y-116450000D01*
X164189344Y-116450000D01*
X163825166Y-116522439D01*
X163482118Y-116664534D01*
X163173382Y-116870825D01*
X162910825Y-117133382D01*
X162704534Y-117442118D01*
X162649493Y-117575000D01*
X162507888Y-117575000D01*
X162503405Y-117566613D01*
X162392962Y-117432038D01*
X162258387Y-117321595D01*
X162104851Y-117239528D01*
X161938255Y-117188992D01*
X161765001Y-117171928D01*
X161745430Y-117171928D01*
X155446077Y-110872576D01*
X155455072Y-110781250D01*
X155455072Y-110495900D01*
X163170778Y-110495900D01*
X163208100Y-110499576D01*
X163245422Y-110495900D01*
X163245433Y-110495900D01*
X163357086Y-110484903D01*
X163500347Y-110441446D01*
X163632376Y-110370874D01*
X163748101Y-110275901D01*
X163771904Y-110246897D01*
X166037802Y-107981000D01*
X167113579Y-107981000D01*
X167309706Y-107961683D01*
X167561354Y-107885347D01*
X167793275Y-107761382D01*
X167996555Y-107594555D01*
X168058000Y-107519684D01*
X168119445Y-107594555D01*
X168322725Y-107761382D01*
X168554646Y-107885347D01*
X168806294Y-107961683D01*
X169002421Y-107981000D01*
X170633579Y-107981000D01*
X170829706Y-107961683D01*
X171081354Y-107885347D01*
X171313275Y-107761382D01*
X171516555Y-107594555D01*
X171683382Y-107391275D01*
X171807347Y-107159354D01*
X171883683Y-106907706D01*
X171909459Y-106646000D01*
X171883683Y-106384294D01*
X171807347Y-106132646D01*
X171683382Y-105900725D01*
X171516555Y-105697445D01*
X171514794Y-105696000D01*
X171516555Y-105694555D01*
X171683382Y-105491275D01*
X171807347Y-105259354D01*
X171883683Y-105007706D01*
X171909459Y-104746000D01*
X171883683Y-104484294D01*
X171807347Y-104232646D01*
X171683382Y-104000725D01*
X171516555Y-103797445D01*
X171514794Y-103796000D01*
X171516555Y-103794555D01*
X171683382Y-103591275D01*
X171807347Y-103359354D01*
X171883683Y-103107706D01*
X171909459Y-102846000D01*
X171883683Y-102584294D01*
X171807347Y-102332646D01*
X171683382Y-102100725D01*
X171516555Y-101897445D01*
X171313275Y-101730618D01*
X171081354Y-101606653D01*
X170829706Y-101530317D01*
X170633579Y-101511000D01*
X169002421Y-101511000D01*
X168806294Y-101530317D01*
X168554646Y-101606653D01*
X168322725Y-101730618D01*
X168119445Y-101897445D01*
X168059869Y-101970039D01*
X167895283Y-101806545D01*
X167676215Y-101661221D01*
X167433005Y-101561428D01*
X167175000Y-101511000D01*
X166425000Y-101511000D01*
X166425000Y-102719000D01*
X166445000Y-102719000D01*
X166445000Y-102973000D01*
X166425000Y-102973000D01*
X166425000Y-102993000D01*
X166171000Y-102993000D01*
X166171000Y-102973000D01*
X164378626Y-102973000D01*
X164255284Y-103179329D01*
X164266020Y-103239550D01*
X164367431Y-103482090D01*
X164437077Y-103585575D01*
X163364173Y-102512671D01*
X164255284Y-102512671D01*
X164378626Y-102719000D01*
X166171000Y-102719000D01*
X166171000Y-101511000D01*
X165421000Y-101511000D01*
X165162995Y-101561428D01*
X164919785Y-101661221D01*
X164700717Y-101806545D01*
X164514210Y-101991815D01*
X164367431Y-102209910D01*
X164266020Y-102452450D01*
X164255284Y-102512671D01*
X163364173Y-102512671D01*
X160415300Y-99563799D01*
X160415300Y-88273333D01*
X160418977Y-88236000D01*
X160404303Y-88087014D01*
X160360846Y-87943753D01*
X160290274Y-87811724D01*
X160195301Y-87695999D01*
X160079576Y-87601026D01*
X159947547Y-87530454D01*
X159804286Y-87486997D01*
X159736874Y-87480357D01*
X159578555Y-87287445D01*
X159571615Y-87281749D01*
X159663790Y-87190185D01*
X159810569Y-86972090D01*
X159911980Y-86729550D01*
X159922716Y-86669329D01*
X159799374Y-86463000D01*
X158007000Y-86463000D01*
X158007000Y-86483000D01*
X157753000Y-86483000D01*
X157753000Y-86463000D01*
X154487000Y-86463000D01*
X154487000Y-86483000D01*
X154233000Y-86483000D01*
X154233000Y-86463000D01*
X152440626Y-86463000D01*
X152317284Y-86669329D01*
X152328020Y-86729550D01*
X152429431Y-86972090D01*
X152576210Y-87190185D01*
X152668385Y-87281749D01*
X152661445Y-87287445D01*
X152506702Y-87476000D01*
X151358922Y-87476000D01*
X151321599Y-87472324D01*
X151284276Y-87476000D01*
X151284267Y-87476000D01*
X151172614Y-87486997D01*
X151029353Y-87530454D01*
X150897324Y-87601026D01*
X150781599Y-87695999D01*
X150757801Y-87724997D01*
X146688799Y-91794000D01*
X138905298Y-91794000D01*
X138750555Y-91605445D01*
X138743615Y-91599749D01*
X138835790Y-91508185D01*
X138982569Y-91290090D01*
X139083980Y-91047550D01*
X139094716Y-90987329D01*
X138971374Y-90781000D01*
X137179000Y-90781000D01*
X137179000Y-90801000D01*
X136925000Y-90801000D01*
X136925000Y-90781000D01*
X133659000Y-90781000D01*
X133659000Y-90801000D01*
X133405000Y-90801000D01*
X133405000Y-90781000D01*
X131612626Y-90781000D01*
X131489284Y-90987329D01*
X131500020Y-91047550D01*
X131601431Y-91290090D01*
X131748210Y-91508185D01*
X131840385Y-91599749D01*
X131833445Y-91605445D01*
X131666618Y-91808725D01*
X131542653Y-92040646D01*
X131466317Y-92292294D01*
X131440541Y-92554000D01*
X131466317Y-92815706D01*
X131542653Y-93067354D01*
X131666618Y-93299275D01*
X131833445Y-93502555D01*
X131835206Y-93504000D01*
X131833445Y-93505445D01*
X131666618Y-93708725D01*
X131542653Y-93940646D01*
X131466317Y-94192294D01*
X131440541Y-94454000D01*
X131466317Y-94715706D01*
X131542653Y-94967354D01*
X131666618Y-95199275D01*
X131833445Y-95402555D01*
X132036725Y-95569382D01*
X132268646Y-95693347D01*
X132520294Y-95769683D01*
X132716421Y-95789000D01*
X134347579Y-95789000D01*
X134543706Y-95769683D01*
X134795354Y-95693347D01*
X135027275Y-95569382D01*
X135230555Y-95402555D01*
X135292000Y-95327684D01*
X135353445Y-95402555D01*
X135556725Y-95569382D01*
X135788646Y-95693347D01*
X136040294Y-95769683D01*
X136236421Y-95789000D01*
X137867579Y-95789000D01*
X138063706Y-95769683D01*
X138315354Y-95693347D01*
X138547275Y-95569382D01*
X138750555Y-95402555D01*
X138905298Y-95214000D01*
X145329901Y-95214000D01*
X145329901Y-95566068D01*
X145326224Y-95603400D01*
X145340898Y-95752385D01*
X145384354Y-95895646D01*
X145454926Y-96027676D01*
X145512028Y-96097254D01*
X145549900Y-96143401D01*
X145578898Y-96167199D01*
X145812928Y-96401229D01*
X145812928Y-96802001D01*
X145829992Y-96975255D01*
X145880528Y-97141851D01*
X145962595Y-97295387D01*
X146073038Y-97429962D01*
X146207613Y-97540405D01*
X146361149Y-97622472D01*
X146527745Y-97673008D01*
X146700999Y-97690072D01*
X147101771Y-97690072D01*
X147323626Y-97911928D01*
X146777000Y-97911928D01*
X146652518Y-97924188D01*
X146652000Y-97924345D01*
X146651482Y-97924188D01*
X146527000Y-97911928D01*
X145977000Y-97911928D01*
X145852518Y-97924188D01*
X145852000Y-97924345D01*
X145851482Y-97924188D01*
X145727000Y-97911928D01*
X145177000Y-97911928D01*
X145052518Y-97924188D01*
X145052000Y-97924345D01*
X145051482Y-97924188D01*
X144927000Y-97911928D01*
X144377000Y-97911928D01*
X144252518Y-97924188D01*
X144252000Y-97924345D01*
X144251482Y-97924188D01*
X144127000Y-97911928D01*
X143577000Y-97911928D01*
X143452518Y-97924188D01*
X143452000Y-97924345D01*
X143451482Y-97924188D01*
X143327000Y-97911928D01*
X142777000Y-97911928D01*
X142652518Y-97924188D01*
X142652000Y-97924345D01*
X142651482Y-97924188D01*
X142527000Y-97911928D01*
X141977000Y-97911928D01*
X141852518Y-97924188D01*
X141852000Y-97924345D01*
X141851482Y-97924188D01*
X141727000Y-97911928D01*
X141177000Y-97911928D01*
X141052518Y-97924188D01*
X140932820Y-97960498D01*
X140822506Y-98019463D01*
X140725815Y-98098815D01*
X140646463Y-98195506D01*
X140587498Y-98305820D01*
X140551188Y-98425518D01*
X140538928Y-98550000D01*
X140538928Y-99615300D01*
X136557322Y-99615300D01*
X136519999Y-99611624D01*
X136482677Y-99615300D01*
X136482667Y-99615300D01*
X136371014Y-99626297D01*
X136227753Y-99669754D01*
X136095723Y-99740326D01*
X136012083Y-99808968D01*
X135979999Y-99835299D01*
X135956201Y-99864297D01*
X134606485Y-101214014D01*
X134561185Y-101158815D01*
X134464494Y-101079463D01*
X134354180Y-101020498D01*
X134234482Y-100984188D01*
X134110000Y-100971928D01*
X132410000Y-100971928D01*
X132285518Y-100984188D01*
X132165820Y-101020498D01*
X132055506Y-101079463D01*
X131958815Y-101158815D01*
X131879463Y-101255506D01*
X131820498Y-101365820D01*
X131784188Y-101485518D01*
X131771928Y-101610000D01*
X131771928Y-103310000D01*
X131784188Y-103434482D01*
X131820498Y-103554180D01*
X131879463Y-103664494D01*
X131958815Y-103761185D01*
X132055506Y-103840537D01*
X132165820Y-103899502D01*
X132234687Y-103920393D01*
X132204866Y-103944866D01*
X132019294Y-104170986D01*
X131881401Y-104428966D01*
X131796487Y-104708889D01*
X131767815Y-105000000D01*
X131796487Y-105291111D01*
X131881401Y-105571034D01*
X132019294Y-105829014D01*
X132204866Y-106055134D01*
X132430986Y-106240706D01*
X132495523Y-106275201D01*
X132378645Y-106344822D01*
X132162412Y-106539731D01*
X131988359Y-106773080D01*
X131863175Y-107035901D01*
X131818524Y-107183110D01*
X131939845Y-107413000D01*
X133133000Y-107413000D01*
X133133000Y-107393000D01*
X133387000Y-107393000D01*
X133387000Y-107413000D01*
X133407000Y-107413000D01*
X133407000Y-107667000D01*
X133387000Y-107667000D01*
X133387000Y-108860814D01*
X133616891Y-108981481D01*
X133891252Y-108884157D01*
X133972900Y-108835521D01*
X133972901Y-110832297D01*
X132558199Y-112247000D01*
X132386212Y-112247000D01*
X132166933Y-112290617D01*
X131960376Y-112376176D01*
X131806070Y-112479280D01*
X131791450Y-112390412D01*
X131587174Y-112299542D01*
X131369095Y-112250269D01*
X131145594Y-112244489D01*
X130925260Y-112282423D01*
X130716560Y-112362613D01*
X130664550Y-112390412D01*
X130629439Y-112603834D01*
X131228000Y-113202395D01*
X131242143Y-113188253D01*
X131363000Y-113309110D01*
X131363000Y-113454890D01*
X131300890Y-113517000D01*
X131155110Y-113517000D01*
X131034253Y-113396143D01*
X131048395Y-113382000D01*
X130449834Y-112783439D01*
X130236412Y-112818550D01*
X130145542Y-113022826D01*
X130096269Y-113240905D01*
X130090489Y-113464406D01*
X130128423Y-113684740D01*
X130208613Y-113893440D01*
X130236412Y-113945450D01*
X130325280Y-113960070D01*
X130222176Y-114114376D01*
X130136617Y-114320933D01*
X130093000Y-114540212D01*
X130093000Y-114763788D01*
X130136617Y-114983067D01*
X130222176Y-115189624D01*
X130287241Y-115287000D01*
X130222176Y-115384376D01*
X130136617Y-115590933D01*
X130093000Y-115810212D01*
X130093000Y-115982199D01*
X129872898Y-116202301D01*
X129843900Y-116226099D01*
X129820102Y-116255097D01*
X129820101Y-116255098D01*
X129748926Y-116341824D01*
X129678354Y-116473854D01*
X129653141Y-116556974D01*
X129634898Y-116617114D01*
X129629590Y-116671003D01*
X129620224Y-116766100D01*
X126451653Y-116766100D01*
X126219901Y-116352278D01*
X125397893Y-114569206D01*
X124718318Y-112727137D01*
X124185365Y-110837427D01*
X123802320Y-108911728D01*
X123682206Y-107896890D01*
X131818524Y-107896890D01*
X131863175Y-108044099D01*
X131988359Y-108306920D01*
X132162412Y-108540269D01*
X132378645Y-108735178D01*
X132628748Y-108884157D01*
X132903109Y-108981481D01*
X133133000Y-108860814D01*
X133133000Y-107667000D01*
X131939845Y-107667000D01*
X131818524Y-107896890D01*
X123682206Y-107896890D01*
X123571544Y-106961912D01*
X123494460Y-105000000D01*
X123571544Y-103038088D01*
X123802320Y-101088272D01*
X124185365Y-99162573D01*
X124718318Y-97272863D01*
X125397893Y-95430794D01*
X126219901Y-93647722D01*
X127179272Y-91934641D01*
X128257692Y-90320671D01*
X131489284Y-90320671D01*
X131612626Y-90527000D01*
X133405000Y-90527000D01*
X133405000Y-90507000D01*
X133659000Y-90507000D01*
X133659000Y-90527000D01*
X136925000Y-90527000D01*
X136925000Y-90507000D01*
X137179000Y-90507000D01*
X137179000Y-90527000D01*
X138971374Y-90527000D01*
X139094716Y-90320671D01*
X139083980Y-90260450D01*
X138982569Y-90017910D01*
X138835790Y-89799815D01*
X138649283Y-89614545D01*
X138430215Y-89469221D01*
X138187005Y-89369428D01*
X137929000Y-89319000D01*
X136175000Y-89319000D01*
X135916995Y-89369428D01*
X135673785Y-89469221D01*
X135454717Y-89614545D01*
X135292000Y-89776183D01*
X135129283Y-89614545D01*
X134910215Y-89469221D01*
X134667005Y-89369428D01*
X134409000Y-89319000D01*
X132655000Y-89319000D01*
X132396995Y-89369428D01*
X132153785Y-89469221D01*
X131934717Y-89614545D01*
X131748210Y-89799815D01*
X131601431Y-90017910D01*
X131500020Y-90260450D01*
X131489284Y-90320671D01*
X128257692Y-90320671D01*
X128270093Y-90302112D01*
X129485638Y-88760201D01*
X130818413Y-87318413D01*
X132241774Y-86002671D01*
X152317284Y-86002671D01*
X152440626Y-86209000D01*
X154233000Y-86209000D01*
X154233000Y-86189000D01*
X154487000Y-86189000D01*
X154487000Y-86209000D01*
X157753000Y-86209000D01*
X157753000Y-86189000D01*
X158007000Y-86189000D01*
X158007000Y-86209000D01*
X159799374Y-86209000D01*
X159922716Y-86002671D01*
X159911980Y-85942450D01*
X159810569Y-85699910D01*
X159663790Y-85481815D01*
X159477283Y-85296545D01*
X159258215Y-85151221D01*
X159015005Y-85051428D01*
X158757000Y-85001000D01*
X157003000Y-85001000D01*
X156744995Y-85051428D01*
X156501785Y-85151221D01*
X156282717Y-85296545D01*
X156120000Y-85458183D01*
X155957283Y-85296545D01*
X155738215Y-85151221D01*
X155495005Y-85051428D01*
X155237000Y-85001000D01*
X153483000Y-85001000D01*
X153224995Y-85051428D01*
X152981785Y-85151221D01*
X152762717Y-85296545D01*
X152576210Y-85481815D01*
X152429431Y-85699910D01*
X152328020Y-85942450D01*
X152317284Y-86002671D01*
X132241774Y-86002671D01*
X132260201Y-85985638D01*
X133802112Y-84770093D01*
X135434641Y-83679272D01*
X137147722Y-82719901D01*
X138930794Y-81897893D01*
X140772863Y-81218318D01*
X142662573Y-80685365D01*
X144588272Y-80302320D01*
X146538088Y-80071544D01*
X148500000Y-79994460D01*
X150461912Y-80071544D01*
X150461912Y-80071544D01*
G37*
X150461912Y-80071544D02*
X152411728Y-80302320D01*
X154337427Y-80685365D01*
X156227137Y-81218318D01*
X158069206Y-81897893D01*
X159852278Y-82719901D01*
X161565359Y-83679272D01*
X163197888Y-84770093D01*
X164739799Y-85985638D01*
X166181587Y-87318413D01*
X167514362Y-88760201D01*
X168729907Y-90302112D01*
X169820728Y-91934641D01*
X170780099Y-93647722D01*
X171602107Y-95430794D01*
X172281682Y-97272863D01*
X172814635Y-99162573D01*
X173197680Y-101088272D01*
X173428456Y-103038088D01*
X173505540Y-105000000D01*
X173428456Y-106961912D01*
X173197680Y-108911728D01*
X172814635Y-110837427D01*
X172281682Y-112727137D01*
X171602107Y-114569206D01*
X170780099Y-116352278D01*
X169820728Y-118065359D01*
X168729907Y-119697888D01*
X167514362Y-121239799D01*
X166181587Y-122681587D01*
X164739799Y-124014362D01*
X163197888Y-125229907D01*
X161565359Y-126320728D01*
X159852278Y-127280099D01*
X158069206Y-128102107D01*
X156227137Y-128781682D01*
X154674267Y-129219636D01*
X154685000Y-129110665D01*
X154685000Y-127789335D01*
X154667130Y-127607898D01*
X154596511Y-127375099D01*
X154481833Y-127160551D01*
X154327502Y-126972498D01*
X154139448Y-126818167D01*
X153924900Y-126703489D01*
X153692101Y-126632870D01*
X153450000Y-126609025D01*
X153207898Y-126632870D01*
X152975099Y-126703489D01*
X152760551Y-126818167D01*
X152572498Y-126972498D01*
X152418167Y-127160552D01*
X152303489Y-127375100D01*
X152232870Y-127607899D01*
X152215000Y-127789336D01*
X152215000Y-129110665D01*
X152232870Y-129292102D01*
X152303489Y-129524901D01*
X152396787Y-129699448D01*
X150461912Y-129928456D01*
X148500000Y-130005540D01*
X146538088Y-129928456D01*
X144603214Y-129699448D01*
X144696511Y-129524901D01*
X144767130Y-129292102D01*
X144785000Y-129110665D01*
X144785000Y-127789335D01*
X144767130Y-127607898D01*
X144696511Y-127375099D01*
X144581833Y-127160551D01*
X144427502Y-126972498D01*
X144239448Y-126818167D01*
X144024900Y-126703489D01*
X143792101Y-126632870D01*
X143550000Y-126609025D01*
X143307898Y-126632870D01*
X143075099Y-126703489D01*
X142860551Y-126818167D01*
X142672498Y-126972498D01*
X142518167Y-127160552D01*
X142403489Y-127375100D01*
X142332870Y-127607899D01*
X142315000Y-127789336D01*
X142315000Y-129110665D01*
X142325733Y-129219636D01*
X140772863Y-128781682D01*
X138930794Y-128102107D01*
X137147722Y-127280099D01*
X135434641Y-126320728D01*
X133802112Y-125229907D01*
X132260201Y-124014362D01*
X130818413Y-122681587D01*
X129485638Y-121239799D01*
X128270093Y-119697888D01*
X127179272Y-118065359D01*
X126451653Y-116766100D01*
X129620224Y-116766100D01*
X129623901Y-116803432D01*
X129623900Y-118750677D01*
X129620224Y-118788000D01*
X129623900Y-118825322D01*
X129623900Y-118825332D01*
X129634897Y-118936985D01*
X129678354Y-119080246D01*
X129748926Y-119212276D01*
X129771815Y-119240166D01*
X129843899Y-119328001D01*
X129872903Y-119351804D01*
X134052200Y-123531102D01*
X134075999Y-123560101D01*
X134191724Y-123655074D01*
X134323753Y-123725646D01*
X134467014Y-123769103D01*
X134578667Y-123780100D01*
X134578676Y-123780100D01*
X134615999Y-123783776D01*
X134653322Y-123780100D01*
X142330683Y-123780100D01*
X142315000Y-123939336D01*
X142315000Y-124960665D01*
X142332870Y-125142102D01*
X142403489Y-125374901D01*
X142518168Y-125589449D01*
X142672499Y-125777502D01*
X142860552Y-125931833D01*
X143075100Y-126046511D01*
X143307899Y-126117130D01*
X143550000Y-126140975D01*
X143792102Y-126117130D01*
X144024901Y-126046511D01*
X144239449Y-125931833D01*
X144427502Y-125777502D01*
X144581833Y-125589449D01*
X144696511Y-125374901D01*
X144767130Y-125142102D01*
X144785000Y-124960664D01*
X144785000Y-123989401D01*
X145469601Y-124674003D01*
X145493399Y-124703001D01*
X145609124Y-124797974D01*
X145741153Y-124868546D01*
X145884414Y-124912003D01*
X145996067Y-124923000D01*
X145996075Y-124923000D01*
X146033400Y-124926676D01*
X146070725Y-124923000D01*
X149978278Y-124923000D01*
X150015600Y-124926676D01*
X150052922Y-124923000D01*
X150052933Y-124923000D01*
X150164586Y-124912003D01*
X150307847Y-124868546D01*
X150439876Y-124797974D01*
X150555601Y-124703001D01*
X150579404Y-124673997D01*
X151314065Y-123939336D01*
X152215000Y-123939336D01*
X152215000Y-124960665D01*
X152232870Y-125142102D01*
X152303489Y-125374901D01*
X152418168Y-125589449D01*
X152572499Y-125777502D01*
X152760552Y-125931833D01*
X152975100Y-126046511D01*
X153207899Y-126117130D01*
X153450000Y-126140975D01*
X153692102Y-126117130D01*
X153924901Y-126046511D01*
X154139449Y-125931833D01*
X154327502Y-125777502D01*
X154481833Y-125589449D01*
X154596511Y-125374901D01*
X154667130Y-125142102D01*
X154685000Y-124960664D01*
X154685000Y-123939335D01*
X154667130Y-123757898D01*
X154596511Y-123525099D01*
X154481833Y-123310551D01*
X154327502Y-123122498D01*
X154139448Y-122968167D01*
X153924900Y-122853489D01*
X153692101Y-122782870D01*
X153450000Y-122759025D01*
X153207898Y-122782870D01*
X152975099Y-122853489D01*
X152760551Y-122968167D01*
X152572498Y-123122498D01*
X152418167Y-123310552D01*
X152303489Y-123525100D01*
X152232870Y-123757899D01*
X152215000Y-123939336D01*
X151314065Y-123939336D01*
X153030308Y-122223095D01*
X153059301Y-122199301D01*
X153083095Y-122170308D01*
X153083099Y-122170304D01*
X153154273Y-122083577D01*
X153154274Y-122083576D01*
X153224846Y-121951547D01*
X153268303Y-121808286D01*
X153279300Y-121696633D01*
X153279300Y-121696624D01*
X153282976Y-121659301D01*
X153279300Y-121621978D01*
X153279300Y-121350000D01*
X158066928Y-121350000D01*
X158079188Y-121474482D01*
X158115498Y-121594180D01*
X158174463Y-121704494D01*
X158253815Y-121801185D01*
X158350506Y-121880537D01*
X158460820Y-121939502D01*
X158580518Y-121975812D01*
X158705000Y-121988072D01*
X158856750Y-121985000D01*
X159015500Y-121826250D01*
X159015500Y-121002000D01*
X158228750Y-121002000D01*
X158070000Y-121160750D01*
X158066928Y-121350000D01*
X153279300Y-121350000D01*
X153279300Y-120400000D01*
X158066928Y-120400000D01*
X158070000Y-120589250D01*
X158228750Y-120748000D01*
X159015500Y-120748000D01*
X159015500Y-119923750D01*
X158856750Y-119765000D01*
X158705000Y-119761928D01*
X158580518Y-119774188D01*
X158460820Y-119810498D01*
X158350506Y-119869463D01*
X158253815Y-119948815D01*
X158174463Y-120045506D01*
X158115498Y-120155820D01*
X158079188Y-120275518D01*
X158066928Y-120400000D01*
X153279300Y-120400000D01*
X153279300Y-118860000D01*
X158476928Y-118860000D01*
X158489188Y-118984482D01*
X158525498Y-119104180D01*
X158584463Y-119214494D01*
X158663815Y-119311185D01*
X158760506Y-119390537D01*
X158870820Y-119449502D01*
X158990518Y-119485812D01*
X159115000Y-119498072D01*
X159391750Y-119495000D01*
X159550500Y-119336250D01*
X159550500Y-118462000D01*
X158638750Y-118462000D01*
X158480000Y-118620750D01*
X158476928Y-118860000D01*
X153279300Y-118860000D01*
X153279300Y-112897500D01*
X153426857Y-112897500D01*
X153479885Y-112962115D01*
X153609725Y-113068671D01*
X153757858Y-113147850D01*
X153918592Y-113196608D01*
X154085750Y-113213072D01*
X154598250Y-113213072D01*
X154765408Y-113196608D01*
X154926142Y-113147850D01*
X155074275Y-113068671D01*
X155204115Y-112962115D01*
X155286106Y-112862207D01*
X159598898Y-117175000D01*
X159550498Y-117175000D01*
X159550498Y-117333748D01*
X159391750Y-117175000D01*
X159115000Y-117171928D01*
X158990518Y-117184188D01*
X158870820Y-117220498D01*
X158760506Y-117279463D01*
X158663815Y-117358815D01*
X158584463Y-117455506D01*
X158525498Y-117565820D01*
X158489188Y-117685518D01*
X158476928Y-117810000D01*
X158480000Y-118049250D01*
X158638750Y-118208000D01*
X159550500Y-118208000D01*
X159550500Y-118188000D01*
X159804500Y-118188000D01*
X159804500Y-118208000D01*
X159824500Y-118208000D01*
X159824500Y-118462000D01*
X159804500Y-118462000D01*
X159804500Y-119336250D01*
X159963250Y-119495000D01*
X160240000Y-119498072D01*
X160364482Y-119485812D01*
X160484180Y-119449502D01*
X160594494Y-119390537D01*
X160646223Y-119348085D01*
X160646613Y-119348405D01*
X160692500Y-119372932D01*
X160692500Y-119761928D01*
X160498750Y-119761928D01*
X160331592Y-119778392D01*
X160170858Y-119827150D01*
X160022725Y-119906329D01*
X160001070Y-119924100D01*
X159934494Y-119869463D01*
X159824180Y-119810498D01*
X159704482Y-119774188D01*
X159580000Y-119761928D01*
X159428250Y-119765000D01*
X159269500Y-119923750D01*
X159269500Y-120748000D01*
X159289500Y-120748000D01*
X159289500Y-121002000D01*
X159269500Y-121002000D01*
X159269500Y-121826250D01*
X159428250Y-121985000D01*
X159580000Y-121988072D01*
X159704482Y-121975812D01*
X159824180Y-121939502D01*
X159934494Y-121880537D01*
X160001070Y-121825900D01*
X160022725Y-121843671D01*
X160170858Y-121922850D01*
X160331592Y-121971608D01*
X160498750Y-121988072D01*
X160936250Y-121988072D01*
X161103408Y-121971608D01*
X161264142Y-121922850D01*
X161412275Y-121843671D01*
X161542115Y-121737115D01*
X161648671Y-121607275D01*
X161727850Y-121459142D01*
X161776608Y-121298408D01*
X161793072Y-121131250D01*
X161793072Y-120874230D01*
X161963504Y-120703798D01*
X161992501Y-120680001D01*
X162018832Y-120647917D01*
X162087474Y-120564277D01*
X162158046Y-120432247D01*
X162171169Y-120388985D01*
X162201503Y-120288986D01*
X162212500Y-120177333D01*
X162212500Y-120177323D01*
X162216176Y-120140000D01*
X162212500Y-120102677D01*
X162212500Y-119372932D01*
X162258387Y-119348405D01*
X162392962Y-119237962D01*
X162503405Y-119103387D01*
X162507888Y-119095000D01*
X162649493Y-119095000D01*
X162704534Y-119227882D01*
X162910825Y-119536618D01*
X163173382Y-119799175D01*
X163482118Y-120005466D01*
X163825166Y-120147561D01*
X164189344Y-120220000D01*
X164560656Y-120220000D01*
X164924834Y-120147561D01*
X165267882Y-120005466D01*
X165576618Y-119799175D01*
X165839175Y-119536618D01*
X166045466Y-119227882D01*
X166187561Y-118884834D01*
X166260000Y-118520656D01*
X166260000Y-118149344D01*
X166187561Y-117785166D01*
X166045466Y-117442118D01*
X165839175Y-117133382D01*
X165576618Y-116870825D01*
X165267882Y-116664534D01*
X164924834Y-116522439D01*
X164560656Y-116450000D01*
X164189344Y-116450000D01*
X163825166Y-116522439D01*
X163482118Y-116664534D01*
X163173382Y-116870825D01*
X162910825Y-117133382D01*
X162704534Y-117442118D01*
X162649493Y-117575000D01*
X162507888Y-117575000D01*
X162503405Y-117566613D01*
X162392962Y-117432038D01*
X162258387Y-117321595D01*
X162104851Y-117239528D01*
X161938255Y-117188992D01*
X161765001Y-117171928D01*
X161745430Y-117171928D01*
X155446077Y-110872576D01*
X155455072Y-110781250D01*
X155455072Y-110495900D01*
X163170778Y-110495900D01*
X163208100Y-110499576D01*
X163245422Y-110495900D01*
X163245433Y-110495900D01*
X163357086Y-110484903D01*
X163500347Y-110441446D01*
X163632376Y-110370874D01*
X163748101Y-110275901D01*
X163771904Y-110246897D01*
X166037802Y-107981000D01*
X167113579Y-107981000D01*
X167309706Y-107961683D01*
X167561354Y-107885347D01*
X167793275Y-107761382D01*
X167996555Y-107594555D01*
X168058000Y-107519684D01*
X168119445Y-107594555D01*
X168322725Y-107761382D01*
X168554646Y-107885347D01*
X168806294Y-107961683D01*
X169002421Y-107981000D01*
X170633579Y-107981000D01*
X170829706Y-107961683D01*
X171081354Y-107885347D01*
X171313275Y-107761382D01*
X171516555Y-107594555D01*
X171683382Y-107391275D01*
X171807347Y-107159354D01*
X171883683Y-106907706D01*
X171909459Y-106646000D01*
X171883683Y-106384294D01*
X171807347Y-106132646D01*
X171683382Y-105900725D01*
X171516555Y-105697445D01*
X171514794Y-105696000D01*
X171516555Y-105694555D01*
X171683382Y-105491275D01*
X171807347Y-105259354D01*
X171883683Y-105007706D01*
X171909459Y-104746000D01*
X171883683Y-104484294D01*
X171807347Y-104232646D01*
X171683382Y-104000725D01*
X171516555Y-103797445D01*
X171514794Y-103796000D01*
X171516555Y-103794555D01*
X171683382Y-103591275D01*
X171807347Y-103359354D01*
X171883683Y-103107706D01*
X171909459Y-102846000D01*
X171883683Y-102584294D01*
X171807347Y-102332646D01*
X171683382Y-102100725D01*
X171516555Y-101897445D01*
X171313275Y-101730618D01*
X171081354Y-101606653D01*
X170829706Y-101530317D01*
X170633579Y-101511000D01*
X169002421Y-101511000D01*
X168806294Y-101530317D01*
X168554646Y-101606653D01*
X168322725Y-101730618D01*
X168119445Y-101897445D01*
X168059869Y-101970039D01*
X167895283Y-101806545D01*
X167676215Y-101661221D01*
X167433005Y-101561428D01*
X167175000Y-101511000D01*
X166425000Y-101511000D01*
X166425000Y-102719000D01*
X166445000Y-102719000D01*
X166445000Y-102973000D01*
X166425000Y-102973000D01*
X166425000Y-102993000D01*
X166171000Y-102993000D01*
X166171000Y-102973000D01*
X164378626Y-102973000D01*
X164255284Y-103179329D01*
X164266020Y-103239550D01*
X164367431Y-103482090D01*
X164437077Y-103585575D01*
X163364173Y-102512671D01*
X164255284Y-102512671D01*
X164378626Y-102719000D01*
X166171000Y-102719000D01*
X166171000Y-101511000D01*
X165421000Y-101511000D01*
X165162995Y-101561428D01*
X164919785Y-101661221D01*
X164700717Y-101806545D01*
X164514210Y-101991815D01*
X164367431Y-102209910D01*
X164266020Y-102452450D01*
X164255284Y-102512671D01*
X163364173Y-102512671D01*
X160415300Y-99563799D01*
X160415300Y-88273333D01*
X160418977Y-88236000D01*
X160404303Y-88087014D01*
X160360846Y-87943753D01*
X160290274Y-87811724D01*
X160195301Y-87695999D01*
X160079576Y-87601026D01*
X159947547Y-87530454D01*
X159804286Y-87486997D01*
X159736874Y-87480357D01*
X159578555Y-87287445D01*
X159571615Y-87281749D01*
X159663790Y-87190185D01*
X159810569Y-86972090D01*
X159911980Y-86729550D01*
X159922716Y-86669329D01*
X159799374Y-86463000D01*
X158007000Y-86463000D01*
X158007000Y-86483000D01*
X157753000Y-86483000D01*
X157753000Y-86463000D01*
X154487000Y-86463000D01*
X154487000Y-86483000D01*
X154233000Y-86483000D01*
X154233000Y-86463000D01*
X152440626Y-86463000D01*
X152317284Y-86669329D01*
X152328020Y-86729550D01*
X152429431Y-86972090D01*
X152576210Y-87190185D01*
X152668385Y-87281749D01*
X152661445Y-87287445D01*
X152506702Y-87476000D01*
X151358922Y-87476000D01*
X151321599Y-87472324D01*
X151284276Y-87476000D01*
X151284267Y-87476000D01*
X151172614Y-87486997D01*
X151029353Y-87530454D01*
X150897324Y-87601026D01*
X150781599Y-87695999D01*
X150757801Y-87724997D01*
X146688799Y-91794000D01*
X138905298Y-91794000D01*
X138750555Y-91605445D01*
X138743615Y-91599749D01*
X138835790Y-91508185D01*
X138982569Y-91290090D01*
X139083980Y-91047550D01*
X139094716Y-90987329D01*
X138971374Y-90781000D01*
X137179000Y-90781000D01*
X137179000Y-90801000D01*
X136925000Y-90801000D01*
X136925000Y-90781000D01*
X133659000Y-90781000D01*
X133659000Y-90801000D01*
X133405000Y-90801000D01*
X133405000Y-90781000D01*
X131612626Y-90781000D01*
X131489284Y-90987329D01*
X131500020Y-91047550D01*
X131601431Y-91290090D01*
X131748210Y-91508185D01*
X131840385Y-91599749D01*
X131833445Y-91605445D01*
X131666618Y-91808725D01*
X131542653Y-92040646D01*
X131466317Y-92292294D01*
X131440541Y-92554000D01*
X131466317Y-92815706D01*
X131542653Y-93067354D01*
X131666618Y-93299275D01*
X131833445Y-93502555D01*
X131835206Y-93504000D01*
X131833445Y-93505445D01*
X131666618Y-93708725D01*
X131542653Y-93940646D01*
X131466317Y-94192294D01*
X131440541Y-94454000D01*
X131466317Y-94715706D01*
X131542653Y-94967354D01*
X131666618Y-95199275D01*
X131833445Y-95402555D01*
X132036725Y-95569382D01*
X132268646Y-95693347D01*
X132520294Y-95769683D01*
X132716421Y-95789000D01*
X134347579Y-95789000D01*
X134543706Y-95769683D01*
X134795354Y-95693347D01*
X135027275Y-95569382D01*
X135230555Y-95402555D01*
X135292000Y-95327684D01*
X135353445Y-95402555D01*
X135556725Y-95569382D01*
X135788646Y-95693347D01*
X136040294Y-95769683D01*
X136236421Y-95789000D01*
X137867579Y-95789000D01*
X138063706Y-95769683D01*
X138315354Y-95693347D01*
X138547275Y-95569382D01*
X138750555Y-95402555D01*
X138905298Y-95214000D01*
X145329901Y-95214000D01*
X145329901Y-95566068D01*
X145326224Y-95603400D01*
X145340898Y-95752385D01*
X145384354Y-95895646D01*
X145454926Y-96027676D01*
X145512028Y-96097254D01*
X145549900Y-96143401D01*
X145578898Y-96167199D01*
X145812928Y-96401229D01*
X145812928Y-96802001D01*
X145829992Y-96975255D01*
X145880528Y-97141851D01*
X145962595Y-97295387D01*
X146073038Y-97429962D01*
X146207613Y-97540405D01*
X146361149Y-97622472D01*
X146527745Y-97673008D01*
X146700999Y-97690072D01*
X147101771Y-97690072D01*
X147323626Y-97911928D01*
X146777000Y-97911928D01*
X146652518Y-97924188D01*
X146652000Y-97924345D01*
X146651482Y-97924188D01*
X146527000Y-97911928D01*
X145977000Y-97911928D01*
X145852518Y-97924188D01*
X145852000Y-97924345D01*
X145851482Y-97924188D01*
X145727000Y-97911928D01*
X145177000Y-97911928D01*
X145052518Y-97924188D01*
X145052000Y-97924345D01*
X145051482Y-97924188D01*
X144927000Y-97911928D01*
X144377000Y-97911928D01*
X144252518Y-97924188D01*
X144252000Y-97924345D01*
X144251482Y-97924188D01*
X144127000Y-97911928D01*
X143577000Y-97911928D01*
X143452518Y-97924188D01*
X143452000Y-97924345D01*
X143451482Y-97924188D01*
X143327000Y-97911928D01*
X142777000Y-97911928D01*
X142652518Y-97924188D01*
X142652000Y-97924345D01*
X142651482Y-97924188D01*
X142527000Y-97911928D01*
X141977000Y-97911928D01*
X141852518Y-97924188D01*
X141852000Y-97924345D01*
X141851482Y-97924188D01*
X141727000Y-97911928D01*
X141177000Y-97911928D01*
X141052518Y-97924188D01*
X140932820Y-97960498D01*
X140822506Y-98019463D01*
X140725815Y-98098815D01*
X140646463Y-98195506D01*
X140587498Y-98305820D01*
X140551188Y-98425518D01*
X140538928Y-98550000D01*
X140538928Y-99615300D01*
X136557322Y-99615300D01*
X136519999Y-99611624D01*
X136482677Y-99615300D01*
X136482667Y-99615300D01*
X136371014Y-99626297D01*
X136227753Y-99669754D01*
X136095723Y-99740326D01*
X136012083Y-99808968D01*
X135979999Y-99835299D01*
X135956201Y-99864297D01*
X134606485Y-101214014D01*
X134561185Y-101158815D01*
X134464494Y-101079463D01*
X134354180Y-101020498D01*
X134234482Y-100984188D01*
X134110000Y-100971928D01*
X132410000Y-100971928D01*
X132285518Y-100984188D01*
X132165820Y-101020498D01*
X132055506Y-101079463D01*
X131958815Y-101158815D01*
X131879463Y-101255506D01*
X131820498Y-101365820D01*
X131784188Y-101485518D01*
X131771928Y-101610000D01*
X131771928Y-103310000D01*
X131784188Y-103434482D01*
X131820498Y-103554180D01*
X131879463Y-103664494D01*
X131958815Y-103761185D01*
X132055506Y-103840537D01*
X132165820Y-103899502D01*
X132234687Y-103920393D01*
X132204866Y-103944866D01*
X132019294Y-104170986D01*
X131881401Y-104428966D01*
X131796487Y-104708889D01*
X131767815Y-105000000D01*
X131796487Y-105291111D01*
X131881401Y-105571034D01*
X132019294Y-105829014D01*
X132204866Y-106055134D01*
X132430986Y-106240706D01*
X132495523Y-106275201D01*
X132378645Y-106344822D01*
X132162412Y-106539731D01*
X131988359Y-106773080D01*
X131863175Y-107035901D01*
X131818524Y-107183110D01*
X131939845Y-107413000D01*
X133133000Y-107413000D01*
X133133000Y-107393000D01*
X133387000Y-107393000D01*
X133387000Y-107413000D01*
X133407000Y-107413000D01*
X133407000Y-107667000D01*
X133387000Y-107667000D01*
X133387000Y-108860814D01*
X133616891Y-108981481D01*
X133891252Y-108884157D01*
X133972900Y-108835521D01*
X133972901Y-110832297D01*
X132558199Y-112247000D01*
X132386212Y-112247000D01*
X132166933Y-112290617D01*
X131960376Y-112376176D01*
X131806070Y-112479280D01*
X131791450Y-112390412D01*
X131587174Y-112299542D01*
X131369095Y-112250269D01*
X131145594Y-112244489D01*
X130925260Y-112282423D01*
X130716560Y-112362613D01*
X130664550Y-112390412D01*
X130629439Y-112603834D01*
X131228000Y-113202395D01*
X131242143Y-113188253D01*
X131363000Y-113309110D01*
X131363000Y-113454890D01*
X131300890Y-113517000D01*
X131155110Y-113517000D01*
X131034253Y-113396143D01*
X131048395Y-113382000D01*
X130449834Y-112783439D01*
X130236412Y-112818550D01*
X130145542Y-113022826D01*
X130096269Y-113240905D01*
X130090489Y-113464406D01*
X130128423Y-113684740D01*
X130208613Y-113893440D01*
X130236412Y-113945450D01*
X130325280Y-113960070D01*
X130222176Y-114114376D01*
X130136617Y-114320933D01*
X130093000Y-114540212D01*
X130093000Y-114763788D01*
X130136617Y-114983067D01*
X130222176Y-115189624D01*
X130287241Y-115287000D01*
X130222176Y-115384376D01*
X130136617Y-115590933D01*
X130093000Y-115810212D01*
X130093000Y-115982199D01*
X129872898Y-116202301D01*
X129843900Y-116226099D01*
X129820102Y-116255097D01*
X129820101Y-116255098D01*
X129748926Y-116341824D01*
X129678354Y-116473854D01*
X129653141Y-116556974D01*
X129634898Y-116617114D01*
X129629590Y-116671003D01*
X129620224Y-116766100D01*
X126451653Y-116766100D01*
X126219901Y-116352278D01*
X125397893Y-114569206D01*
X124718318Y-112727137D01*
X124185365Y-110837427D01*
X123802320Y-108911728D01*
X123682206Y-107896890D01*
X131818524Y-107896890D01*
X131863175Y-108044099D01*
X131988359Y-108306920D01*
X132162412Y-108540269D01*
X132378645Y-108735178D01*
X132628748Y-108884157D01*
X132903109Y-108981481D01*
X133133000Y-108860814D01*
X133133000Y-107667000D01*
X131939845Y-107667000D01*
X131818524Y-107896890D01*
X123682206Y-107896890D01*
X123571544Y-106961912D01*
X123494460Y-105000000D01*
X123571544Y-103038088D01*
X123802320Y-101088272D01*
X124185365Y-99162573D01*
X124718318Y-97272863D01*
X125397893Y-95430794D01*
X126219901Y-93647722D01*
X127179272Y-91934641D01*
X128257692Y-90320671D01*
X131489284Y-90320671D01*
X131612626Y-90527000D01*
X133405000Y-90527000D01*
X133405000Y-90507000D01*
X133659000Y-90507000D01*
X133659000Y-90527000D01*
X136925000Y-90527000D01*
X136925000Y-90507000D01*
X137179000Y-90507000D01*
X137179000Y-90527000D01*
X138971374Y-90527000D01*
X139094716Y-90320671D01*
X139083980Y-90260450D01*
X138982569Y-90017910D01*
X138835790Y-89799815D01*
X138649283Y-89614545D01*
X138430215Y-89469221D01*
X138187005Y-89369428D01*
X137929000Y-89319000D01*
X136175000Y-89319000D01*
X135916995Y-89369428D01*
X135673785Y-89469221D01*
X135454717Y-89614545D01*
X135292000Y-89776183D01*
X135129283Y-89614545D01*
X134910215Y-89469221D01*
X134667005Y-89369428D01*
X134409000Y-89319000D01*
X132655000Y-89319000D01*
X132396995Y-89369428D01*
X132153785Y-89469221D01*
X131934717Y-89614545D01*
X131748210Y-89799815D01*
X131601431Y-90017910D01*
X131500020Y-90260450D01*
X131489284Y-90320671D01*
X128257692Y-90320671D01*
X128270093Y-90302112D01*
X129485638Y-88760201D01*
X130818413Y-87318413D01*
X132241774Y-86002671D01*
X152317284Y-86002671D01*
X152440626Y-86209000D01*
X154233000Y-86209000D01*
X154233000Y-86189000D01*
X154487000Y-86189000D01*
X154487000Y-86209000D01*
X157753000Y-86209000D01*
X157753000Y-86189000D01*
X158007000Y-86189000D01*
X158007000Y-86209000D01*
X159799374Y-86209000D01*
X159922716Y-86002671D01*
X159911980Y-85942450D01*
X159810569Y-85699910D01*
X159663790Y-85481815D01*
X159477283Y-85296545D01*
X159258215Y-85151221D01*
X159015005Y-85051428D01*
X158757000Y-85001000D01*
X157003000Y-85001000D01*
X156744995Y-85051428D01*
X156501785Y-85151221D01*
X156282717Y-85296545D01*
X156120000Y-85458183D01*
X155957283Y-85296545D01*
X155738215Y-85151221D01*
X155495005Y-85051428D01*
X155237000Y-85001000D01*
X153483000Y-85001000D01*
X153224995Y-85051428D01*
X152981785Y-85151221D01*
X152762717Y-85296545D01*
X152576210Y-85481815D01*
X152429431Y-85699910D01*
X152328020Y-85942450D01*
X152317284Y-86002671D01*
X132241774Y-86002671D01*
X132260201Y-85985638D01*
X133802112Y-84770093D01*
X135434641Y-83679272D01*
X137147722Y-82719901D01*
X138930794Y-81897893D01*
X140772863Y-81218318D01*
X142662573Y-80685365D01*
X144588272Y-80302320D01*
X146538088Y-80071544D01*
X148500000Y-79994460D01*
X150461912Y-80071544D01*
G36*
X140538928Y-109950000D02*
G01*
X140538928Y-111450000D01*
X140551188Y-111574482D01*
X140587498Y-111694180D01*
X140646463Y-111804494D01*
X140725815Y-111901185D01*
X140822506Y-111980537D01*
X140932820Y-112039502D01*
X141052518Y-112075812D01*
X141177000Y-112088072D01*
X141492001Y-112088072D01*
X141492000Y-113716598D01*
X140360698Y-114847901D01*
X140331700Y-114871699D01*
X140307902Y-114900697D01*
X140307901Y-114900698D01*
X140236726Y-114987424D01*
X140166154Y-115119454D01*
X140151017Y-115169356D01*
X140122697Y-115262714D01*
X140111700Y-115374367D01*
X140111700Y-115374378D01*
X140108024Y-115411700D01*
X140111700Y-115449022D01*
X140111700Y-116124667D01*
X140108023Y-116162000D01*
X140122697Y-116310986D01*
X140166154Y-116454247D01*
X140236726Y-116586276D01*
X140318302Y-116685677D01*
X140331699Y-116702001D01*
X140447424Y-116796974D01*
X140579453Y-116867546D01*
X140636125Y-116884737D01*
X140666463Y-116941494D01*
X140745815Y-117038185D01*
X140842506Y-117117537D01*
X140952820Y-117176502D01*
X141072518Y-117212812D01*
X141197000Y-117225072D01*
X144627000Y-117225072D01*
X144751482Y-117212812D01*
X144871180Y-117176502D01*
X144981494Y-117117537D01*
X145078185Y-117038185D01*
X145157537Y-116941494D01*
X145216502Y-116831180D01*
X145252812Y-116711482D01*
X145265072Y-116587000D01*
X145265072Y-115835519D01*
X147130001Y-117700448D01*
X147130001Y-117735565D01*
X147002885Y-117839885D01*
X146896329Y-117969725D01*
X146817150Y-118117858D01*
X146768392Y-118278592D01*
X146751928Y-118445750D01*
X146751928Y-118883250D01*
X146768392Y-119050408D01*
X146817150Y-119211142D01*
X146896329Y-119359275D01*
X146972426Y-119452000D01*
X146896329Y-119544725D01*
X146817150Y-119692858D01*
X146768392Y-119853592D01*
X146751928Y-120020750D01*
X146751928Y-120431827D01*
X146571104Y-120251003D01*
X146547301Y-120221999D01*
X146431576Y-120127026D01*
X146299547Y-120056454D01*
X146156286Y-120012997D01*
X146044633Y-120002000D01*
X146044622Y-120002000D01*
X146007300Y-119998324D01*
X145969978Y-120002000D01*
X145167957Y-120002000D01*
X145157537Y-119982506D01*
X145078185Y-119885815D01*
X144981494Y-119806463D01*
X144871180Y-119747498D01*
X144751482Y-119711188D01*
X144627000Y-119698928D01*
X141197000Y-119698928D01*
X141072518Y-119711188D01*
X140952820Y-119747498D01*
X140933040Y-119758071D01*
X140899476Y-119730526D01*
X140767447Y-119659954D01*
X140624186Y-119616497D01*
X140512533Y-119605500D01*
X140512522Y-119605500D01*
X140475200Y-119601824D01*
X140437878Y-119605500D01*
X139377932Y-119605500D01*
X139353405Y-119559613D01*
X139353085Y-119559223D01*
X139395537Y-119507494D01*
X139454502Y-119397180D01*
X139490812Y-119277482D01*
X139503072Y-119153000D01*
X139500000Y-118876250D01*
X139341250Y-118717500D01*
X138467000Y-118717500D01*
X138467000Y-118737500D01*
X138213000Y-118737500D01*
X138213000Y-118717500D01*
X137338750Y-118717500D01*
X137180000Y-118876250D01*
X137176928Y-119153000D01*
X137189188Y-119277482D01*
X137225498Y-119397180D01*
X137284463Y-119507494D01*
X137326915Y-119559223D01*
X137326595Y-119559613D01*
X137244528Y-119713149D01*
X137193992Y-119879745D01*
X137176928Y-120052999D01*
X137176928Y-120678001D01*
X137193992Y-120851255D01*
X137244528Y-121017851D01*
X137326595Y-121171387D01*
X137437038Y-121305962D01*
X137571613Y-121416405D01*
X137725149Y-121498472D01*
X137891745Y-121549008D01*
X138064999Y-121566072D01*
X138615001Y-121566072D01*
X138788255Y-121549008D01*
X138954851Y-121498472D01*
X139108387Y-121416405D01*
X139242962Y-121305962D01*
X139353405Y-121171387D01*
X139377932Y-121125500D01*
X140160399Y-121125500D01*
X140307896Y-121272997D01*
X140331699Y-121302001D01*
X140447424Y-121396974D01*
X140579453Y-121467546D01*
X140636125Y-121484737D01*
X140666463Y-121541494D01*
X140745815Y-121638185D01*
X140842506Y-121717537D01*
X140952820Y-121776502D01*
X141072518Y-121812812D01*
X141197000Y-121825072D01*
X144627000Y-121825072D01*
X144751482Y-121812812D01*
X144871180Y-121776502D01*
X144981494Y-121717537D01*
X145078185Y-121638185D01*
X145157537Y-121541494D01*
X145167957Y-121522000D01*
X145692499Y-121522000D01*
X146347110Y-122176612D01*
X146336928Y-122280000D01*
X146336928Y-123380000D01*
X146338209Y-123393007D01*
X145454304Y-122509102D01*
X145430501Y-122480099D01*
X145314776Y-122385126D01*
X145182747Y-122314554D01*
X145039486Y-122271097D01*
X144927833Y-122260100D01*
X144927822Y-122260100D01*
X144890500Y-122256424D01*
X144853178Y-122260100D01*
X134930802Y-122260100D01*
X132270773Y-119600072D01*
X132998000Y-119600072D01*
X133122482Y-119587812D01*
X133242180Y-119551502D01*
X133352494Y-119492537D01*
X133449185Y-119413185D01*
X133528537Y-119316494D01*
X133587502Y-119206180D01*
X133623812Y-119086482D01*
X133636072Y-118962000D01*
X133636072Y-118398729D01*
X134006801Y-118028000D01*
X137176928Y-118028000D01*
X137180000Y-118304750D01*
X137338750Y-118463500D01*
X138213000Y-118463500D01*
X138213000Y-117551750D01*
X138467000Y-117551750D01*
X138467000Y-118463500D01*
X139341250Y-118463500D01*
X139500000Y-118304750D01*
X139503072Y-118028000D01*
X139490812Y-117903518D01*
X139454502Y-117783820D01*
X139395537Y-117673506D01*
X139316185Y-117576815D01*
X139219494Y-117497463D01*
X139109180Y-117438498D01*
X138989482Y-117402188D01*
X138865000Y-117389928D01*
X138625750Y-117393000D01*
X138467000Y-117551750D01*
X138213000Y-117551750D01*
X138054250Y-117393000D01*
X137815000Y-117389928D01*
X137690518Y-117402188D01*
X137570820Y-117438498D01*
X137460506Y-117497463D01*
X137363815Y-117576815D01*
X137284463Y-117673506D01*
X137225498Y-117783820D01*
X137189188Y-117903518D01*
X137176928Y-118028000D01*
X134006801Y-118028000D01*
X138726609Y-113308194D01*
X138755601Y-113284401D01*
X138779395Y-113255408D01*
X138779399Y-113255404D01*
X138850573Y-113168677D01*
X138850574Y-113168676D01*
X138921146Y-113036647D01*
X138964603Y-112893386D01*
X138975600Y-112781733D01*
X138975600Y-112781724D01*
X138979276Y-112744401D01*
X138975600Y-112707078D01*
X138975600Y-109910472D01*
X139002000Y-109913072D01*
X140502000Y-109913072D01*
X140542962Y-109909038D01*
X140538928Y-109950000D01*
X140538928Y-109950000D01*
G37*
X140538928Y-109950000D02*
X140538928Y-111450000D01*
X140551188Y-111574482D01*
X140587498Y-111694180D01*
X140646463Y-111804494D01*
X140725815Y-111901185D01*
X140822506Y-111980537D01*
X140932820Y-112039502D01*
X141052518Y-112075812D01*
X141177000Y-112088072D01*
X141492001Y-112088072D01*
X141492000Y-113716598D01*
X140360698Y-114847901D01*
X140331700Y-114871699D01*
X140307902Y-114900697D01*
X140307901Y-114900698D01*
X140236726Y-114987424D01*
X140166154Y-115119454D01*
X140151017Y-115169356D01*
X140122697Y-115262714D01*
X140111700Y-115374367D01*
X140111700Y-115374378D01*
X140108024Y-115411700D01*
X140111700Y-115449022D01*
X140111700Y-116124667D01*
X140108023Y-116162000D01*
X140122697Y-116310986D01*
X140166154Y-116454247D01*
X140236726Y-116586276D01*
X140318302Y-116685677D01*
X140331699Y-116702001D01*
X140447424Y-116796974D01*
X140579453Y-116867546D01*
X140636125Y-116884737D01*
X140666463Y-116941494D01*
X140745815Y-117038185D01*
X140842506Y-117117537D01*
X140952820Y-117176502D01*
X141072518Y-117212812D01*
X141197000Y-117225072D01*
X144627000Y-117225072D01*
X144751482Y-117212812D01*
X144871180Y-117176502D01*
X144981494Y-117117537D01*
X145078185Y-117038185D01*
X145157537Y-116941494D01*
X145216502Y-116831180D01*
X145252812Y-116711482D01*
X145265072Y-116587000D01*
X145265072Y-115835519D01*
X147130001Y-117700448D01*
X147130001Y-117735565D01*
X147002885Y-117839885D01*
X146896329Y-117969725D01*
X146817150Y-118117858D01*
X146768392Y-118278592D01*
X146751928Y-118445750D01*
X146751928Y-118883250D01*
X146768392Y-119050408D01*
X146817150Y-119211142D01*
X146896329Y-119359275D01*
X146972426Y-119452000D01*
X146896329Y-119544725D01*
X146817150Y-119692858D01*
X146768392Y-119853592D01*
X146751928Y-120020750D01*
X146751928Y-120431827D01*
X146571104Y-120251003D01*
X146547301Y-120221999D01*
X146431576Y-120127026D01*
X146299547Y-120056454D01*
X146156286Y-120012997D01*
X146044633Y-120002000D01*
X146044622Y-120002000D01*
X146007300Y-119998324D01*
X145969978Y-120002000D01*
X145167957Y-120002000D01*
X145157537Y-119982506D01*
X145078185Y-119885815D01*
X144981494Y-119806463D01*
X144871180Y-119747498D01*
X144751482Y-119711188D01*
X144627000Y-119698928D01*
X141197000Y-119698928D01*
X141072518Y-119711188D01*
X140952820Y-119747498D01*
X140933040Y-119758071D01*
X140899476Y-119730526D01*
X140767447Y-119659954D01*
X140624186Y-119616497D01*
X140512533Y-119605500D01*
X140512522Y-119605500D01*
X140475200Y-119601824D01*
X140437878Y-119605500D01*
X139377932Y-119605500D01*
X139353405Y-119559613D01*
X139353085Y-119559223D01*
X139395537Y-119507494D01*
X139454502Y-119397180D01*
X139490812Y-119277482D01*
X139503072Y-119153000D01*
X139500000Y-118876250D01*
X139341250Y-118717500D01*
X138467000Y-118717500D01*
X138467000Y-118737500D01*
X138213000Y-118737500D01*
X138213000Y-118717500D01*
X137338750Y-118717500D01*
X137180000Y-118876250D01*
X137176928Y-119153000D01*
X137189188Y-119277482D01*
X137225498Y-119397180D01*
X137284463Y-119507494D01*
X137326915Y-119559223D01*
X137326595Y-119559613D01*
X137244528Y-119713149D01*
X137193992Y-119879745D01*
X137176928Y-120052999D01*
X137176928Y-120678001D01*
X137193992Y-120851255D01*
X137244528Y-121017851D01*
X137326595Y-121171387D01*
X137437038Y-121305962D01*
X137571613Y-121416405D01*
X137725149Y-121498472D01*
X137891745Y-121549008D01*
X138064999Y-121566072D01*
X138615001Y-121566072D01*
X138788255Y-121549008D01*
X138954851Y-121498472D01*
X139108387Y-121416405D01*
X139242962Y-121305962D01*
X139353405Y-121171387D01*
X139377932Y-121125500D01*
X140160399Y-121125500D01*
X140307896Y-121272997D01*
X140331699Y-121302001D01*
X140447424Y-121396974D01*
X140579453Y-121467546D01*
X140636125Y-121484737D01*
X140666463Y-121541494D01*
X140745815Y-121638185D01*
X140842506Y-121717537D01*
X140952820Y-121776502D01*
X141072518Y-121812812D01*
X141197000Y-121825072D01*
X144627000Y-121825072D01*
X144751482Y-121812812D01*
X144871180Y-121776502D01*
X144981494Y-121717537D01*
X145078185Y-121638185D01*
X145157537Y-121541494D01*
X145167957Y-121522000D01*
X145692499Y-121522000D01*
X146347110Y-122176612D01*
X146336928Y-122280000D01*
X146336928Y-123380000D01*
X146338209Y-123393007D01*
X145454304Y-122509102D01*
X145430501Y-122480099D01*
X145314776Y-122385126D01*
X145182747Y-122314554D01*
X145039486Y-122271097D01*
X144927833Y-122260100D01*
X144927822Y-122260100D01*
X144890500Y-122256424D01*
X144853178Y-122260100D01*
X134930802Y-122260100D01*
X132270773Y-119600072D01*
X132998000Y-119600072D01*
X133122482Y-119587812D01*
X133242180Y-119551502D01*
X133352494Y-119492537D01*
X133449185Y-119413185D01*
X133528537Y-119316494D01*
X133587502Y-119206180D01*
X133623812Y-119086482D01*
X133636072Y-118962000D01*
X133636072Y-118398729D01*
X134006801Y-118028000D01*
X137176928Y-118028000D01*
X137180000Y-118304750D01*
X137338750Y-118463500D01*
X138213000Y-118463500D01*
X138213000Y-117551750D01*
X138467000Y-117551750D01*
X138467000Y-118463500D01*
X139341250Y-118463500D01*
X139500000Y-118304750D01*
X139503072Y-118028000D01*
X139490812Y-117903518D01*
X139454502Y-117783820D01*
X139395537Y-117673506D01*
X139316185Y-117576815D01*
X139219494Y-117497463D01*
X139109180Y-117438498D01*
X138989482Y-117402188D01*
X138865000Y-117389928D01*
X138625750Y-117393000D01*
X138467000Y-117551750D01*
X138213000Y-117551750D01*
X138054250Y-117393000D01*
X137815000Y-117389928D01*
X137690518Y-117402188D01*
X137570820Y-117438498D01*
X137460506Y-117497463D01*
X137363815Y-117576815D01*
X137284463Y-117673506D01*
X137225498Y-117783820D01*
X137189188Y-117903518D01*
X137176928Y-118028000D01*
X134006801Y-118028000D01*
X138726609Y-113308194D01*
X138755601Y-113284401D01*
X138779395Y-113255408D01*
X138779399Y-113255404D01*
X138850573Y-113168677D01*
X138850574Y-113168676D01*
X138921146Y-113036647D01*
X138964603Y-112893386D01*
X138975600Y-112781733D01*
X138975600Y-112781724D01*
X138979276Y-112744401D01*
X138975600Y-112707078D01*
X138975600Y-109910472D01*
X139002000Y-109913072D01*
X140502000Y-109913072D01*
X140542962Y-109909038D01*
X140538928Y-109950000D01*
G36*
X151759300Y-112452302D02*
G01*
X151759301Y-121344496D01*
X150661193Y-122442605D01*
X150662965Y-122291675D01*
X150652984Y-122166989D01*
X150618871Y-122046647D01*
X150561935Y-121935273D01*
X150484365Y-121837146D01*
X150389142Y-121756037D01*
X150279925Y-121695065D01*
X150160911Y-121656571D01*
X150056750Y-121645000D01*
X149898000Y-121803750D01*
X149898000Y-121916322D01*
X149826185Y-121828815D01*
X149763053Y-121777004D01*
X149766365Y-121766085D01*
X149766408Y-121765643D01*
X149766537Y-121765218D01*
X149773488Y-121693767D01*
X149777000Y-121658105D01*
X149777000Y-121657661D01*
X149780555Y-121621116D01*
X149777000Y-121585458D01*
X149777000Y-121315072D01*
X150026250Y-121315072D01*
X150193408Y-121298608D01*
X150354142Y-121249850D01*
X150502275Y-121170671D01*
X150632115Y-121064115D01*
X150738671Y-120934275D01*
X150817850Y-120786142D01*
X150866608Y-120625408D01*
X150883072Y-120458250D01*
X150883072Y-120020750D01*
X150866608Y-119853592D01*
X150817850Y-119692858D01*
X150738671Y-119544725D01*
X150662574Y-119452000D01*
X150738671Y-119359275D01*
X150817850Y-119211142D01*
X150866608Y-119050408D01*
X150883072Y-118883250D01*
X150883072Y-118445750D01*
X150866608Y-118278592D01*
X150817850Y-118117858D01*
X150738671Y-117969725D01*
X150632115Y-117839885D01*
X150502275Y-117733329D01*
X150354142Y-117654150D01*
X150193408Y-117605392D01*
X150026250Y-117588928D01*
X149733465Y-117588928D01*
X144427179Y-112282729D01*
X144466087Y-112235320D01*
X144534337Y-112107633D01*
X144576365Y-111969085D01*
X144583716Y-111894445D01*
X144652000Y-111811241D01*
X144725815Y-111901185D01*
X144822506Y-111980537D01*
X144845667Y-111992917D01*
X144937750Y-112085000D01*
X145051337Y-112075454D01*
X145052518Y-112075812D01*
X145177000Y-112088072D01*
X145727000Y-112088072D01*
X145851482Y-112075812D01*
X145852000Y-112075655D01*
X145852518Y-112075812D01*
X145977000Y-112088072D01*
X146527000Y-112088072D01*
X146651482Y-112075812D01*
X146652000Y-112075655D01*
X146652518Y-112075812D01*
X146777000Y-112088072D01*
X147327000Y-112088072D01*
X147451482Y-112075812D01*
X147452000Y-112075655D01*
X147452518Y-112075812D01*
X147577000Y-112088072D01*
X148127000Y-112088072D01*
X148251482Y-112075812D01*
X148252000Y-112075655D01*
X148252518Y-112075812D01*
X148377000Y-112088072D01*
X148927000Y-112088072D01*
X149051482Y-112075812D01*
X149052000Y-112075655D01*
X149052518Y-112075812D01*
X149177000Y-112088072D01*
X149727000Y-112088072D01*
X149851482Y-112075812D01*
X149971180Y-112039502D01*
X150081494Y-111980537D01*
X150178185Y-111901185D01*
X150257537Y-111804494D01*
X150316502Y-111694180D01*
X150352812Y-111574482D01*
X150365072Y-111450000D01*
X150365072Y-111058073D01*
X151759300Y-112452302D01*
X151759300Y-112452302D01*
G37*
X151759300Y-112452302D02*
X151759301Y-121344496D01*
X150661193Y-122442605D01*
X150662965Y-122291675D01*
X150652984Y-122166989D01*
X150618871Y-122046647D01*
X150561935Y-121935273D01*
X150484365Y-121837146D01*
X150389142Y-121756037D01*
X150279925Y-121695065D01*
X150160911Y-121656571D01*
X150056750Y-121645000D01*
X149898000Y-121803750D01*
X149898000Y-121916322D01*
X149826185Y-121828815D01*
X149763053Y-121777004D01*
X149766365Y-121766085D01*
X149766408Y-121765643D01*
X149766537Y-121765218D01*
X149773488Y-121693767D01*
X149777000Y-121658105D01*
X149777000Y-121657661D01*
X149780555Y-121621116D01*
X149777000Y-121585458D01*
X149777000Y-121315072D01*
X150026250Y-121315072D01*
X150193408Y-121298608D01*
X150354142Y-121249850D01*
X150502275Y-121170671D01*
X150632115Y-121064115D01*
X150738671Y-120934275D01*
X150817850Y-120786142D01*
X150866608Y-120625408D01*
X150883072Y-120458250D01*
X150883072Y-120020750D01*
X150866608Y-119853592D01*
X150817850Y-119692858D01*
X150738671Y-119544725D01*
X150662574Y-119452000D01*
X150738671Y-119359275D01*
X150817850Y-119211142D01*
X150866608Y-119050408D01*
X150883072Y-118883250D01*
X150883072Y-118445750D01*
X150866608Y-118278592D01*
X150817850Y-118117858D01*
X150738671Y-117969725D01*
X150632115Y-117839885D01*
X150502275Y-117733329D01*
X150354142Y-117654150D01*
X150193408Y-117605392D01*
X150026250Y-117588928D01*
X149733465Y-117588928D01*
X144427179Y-112282729D01*
X144466087Y-112235320D01*
X144534337Y-112107633D01*
X144576365Y-111969085D01*
X144583716Y-111894445D01*
X144652000Y-111811241D01*
X144725815Y-111901185D01*
X144822506Y-111980537D01*
X144845667Y-111992917D01*
X144937750Y-112085000D01*
X145051337Y-112075454D01*
X145052518Y-112075812D01*
X145177000Y-112088072D01*
X145727000Y-112088072D01*
X145851482Y-112075812D01*
X145852000Y-112075655D01*
X145852518Y-112075812D01*
X145977000Y-112088072D01*
X146527000Y-112088072D01*
X146651482Y-112075812D01*
X146652000Y-112075655D01*
X146652518Y-112075812D01*
X146777000Y-112088072D01*
X147327000Y-112088072D01*
X147451482Y-112075812D01*
X147452000Y-112075655D01*
X147452518Y-112075812D01*
X147577000Y-112088072D01*
X148127000Y-112088072D01*
X148251482Y-112075812D01*
X148252000Y-112075655D01*
X148252518Y-112075812D01*
X148377000Y-112088072D01*
X148927000Y-112088072D01*
X149051482Y-112075812D01*
X149052000Y-112075655D01*
X149052518Y-112075812D01*
X149177000Y-112088072D01*
X149727000Y-112088072D01*
X149851482Y-112075812D01*
X149971180Y-112039502D01*
X150081494Y-111980537D01*
X150178185Y-111901185D01*
X150257537Y-111804494D01*
X150316502Y-111694180D01*
X150352812Y-111574482D01*
X150365072Y-111450000D01*
X150365072Y-111058073D01*
X151759300Y-112452302D01*
G36*
X131359928Y-118386038D02*
G01*
X131359928Y-118537962D01*
X131284296Y-118613595D01*
X131143900Y-118473199D01*
X131143900Y-118338210D01*
X131155110Y-118327000D01*
X131300890Y-118327000D01*
X131359928Y-118386038D01*
X131359928Y-118386038D01*
G37*
X131359928Y-118386038D02*
X131359928Y-118537962D01*
X131284296Y-118613595D01*
X131143900Y-118473199D01*
X131143900Y-118338210D01*
X131155110Y-118327000D01*
X131300890Y-118327000D01*
X131359928Y-118386038D01*
G36*
X147892000Y-106909898D02*
G01*
X145937199Y-108864700D01*
X142566802Y-108864700D01*
X142191103Y-108489002D01*
X142167301Y-108459999D01*
X142051576Y-108365026D01*
X141919547Y-108294454D01*
X141776286Y-108250997D01*
X141664633Y-108240000D01*
X141664622Y-108240000D01*
X141627300Y-108236324D01*
X141589978Y-108240000D01*
X140911981Y-108240000D01*
X140863241Y-108200000D01*
X140953185Y-108126185D01*
X141032537Y-108029494D01*
X141044917Y-108006333D01*
X141137000Y-107914250D01*
X141127454Y-107800663D01*
X141127812Y-107799482D01*
X141140072Y-107675000D01*
X141140072Y-107125000D01*
X141127812Y-107000518D01*
X141127655Y-107000000D01*
X141127812Y-106999482D01*
X141140072Y-106875000D01*
X141140072Y-106325000D01*
X141127812Y-106200518D01*
X141127655Y-106200000D01*
X141127812Y-106199482D01*
X141140072Y-106075000D01*
X141140072Y-105525000D01*
X141127812Y-105400518D01*
X141127655Y-105400000D01*
X141127812Y-105399482D01*
X141140072Y-105275000D01*
X141140072Y-104725000D01*
X141127812Y-104600518D01*
X141127655Y-104600000D01*
X141127812Y-104599482D01*
X141140072Y-104475000D01*
X141140072Y-103925000D01*
X141127812Y-103800518D01*
X141127655Y-103800000D01*
X141127812Y-103799482D01*
X141140072Y-103675000D01*
X141140072Y-103125000D01*
X141127812Y-103000518D01*
X141127655Y-103000000D01*
X141127812Y-102999482D01*
X141140072Y-102875000D01*
X141140072Y-102325000D01*
X141127812Y-102200518D01*
X141127454Y-102199337D01*
X141137000Y-102085750D01*
X141044917Y-101993667D01*
X141032537Y-101970506D01*
X140953185Y-101873815D01*
X140863241Y-101800000D01*
X140911981Y-101760000D01*
X147892001Y-101760000D01*
X147892000Y-106909898D01*
X147892000Y-106909898D01*
G37*
X147892000Y-106909898D02*
X145937199Y-108864700D01*
X142566802Y-108864700D01*
X142191103Y-108489002D01*
X142167301Y-108459999D01*
X142051576Y-108365026D01*
X141919547Y-108294454D01*
X141776286Y-108250997D01*
X141664633Y-108240000D01*
X141664622Y-108240000D01*
X141627300Y-108236324D01*
X141589978Y-108240000D01*
X140911981Y-108240000D01*
X140863241Y-108200000D01*
X140953185Y-108126185D01*
X141032537Y-108029494D01*
X141044917Y-108006333D01*
X141137000Y-107914250D01*
X141127454Y-107800663D01*
X141127812Y-107799482D01*
X141140072Y-107675000D01*
X141140072Y-107125000D01*
X141127812Y-107000518D01*
X141127655Y-107000000D01*
X141127812Y-106999482D01*
X141140072Y-106875000D01*
X141140072Y-106325000D01*
X141127812Y-106200518D01*
X141127655Y-106200000D01*
X141127812Y-106199482D01*
X141140072Y-106075000D01*
X141140072Y-105525000D01*
X141127812Y-105400518D01*
X141127655Y-105400000D01*
X141127812Y-105399482D01*
X141140072Y-105275000D01*
X141140072Y-104725000D01*
X141127812Y-104600518D01*
X141127655Y-104600000D01*
X141127812Y-104599482D01*
X141140072Y-104475000D01*
X141140072Y-103925000D01*
X141127812Y-103800518D01*
X141127655Y-103800000D01*
X141127812Y-103799482D01*
X141140072Y-103675000D01*
X141140072Y-103125000D01*
X141127812Y-103000518D01*
X141127655Y-103000000D01*
X141127812Y-102999482D01*
X141140072Y-102875000D01*
X141140072Y-102325000D01*
X141127812Y-102200518D01*
X141127454Y-102199337D01*
X141137000Y-102085750D01*
X141044917Y-101993667D01*
X141032537Y-101970506D01*
X140953185Y-101873815D01*
X140863241Y-101800000D01*
X140911981Y-101760000D01*
X147892001Y-101760000D01*
X147892000Y-106909898D01*
G36*
X154469000Y-108046500D02*
G01*
X154489000Y-108046500D01*
X154489000Y-108300500D01*
X154469000Y-108300500D01*
X154469000Y-108320500D01*
X154215000Y-108320500D01*
X154215000Y-108300500D01*
X154195000Y-108300500D01*
X154195000Y-108046500D01*
X154215000Y-108046500D01*
X154215000Y-108026500D01*
X154469000Y-108026500D01*
X154469000Y-108046500D01*
X154469000Y-108046500D01*
G37*
X154469000Y-108046500D02*
X154489000Y-108046500D01*
X154489000Y-108300500D01*
X154469000Y-108300500D01*
X154469000Y-108320500D01*
X154215000Y-108320500D01*
X154215000Y-108300500D01*
X154195000Y-108300500D01*
X154195000Y-108046500D01*
X154215000Y-108046500D01*
X154215000Y-108026500D01*
X154469000Y-108026500D01*
X154469000Y-108046500D01*
G36*
X153178928Y-106711001D02*
G01*
X153195992Y-106884255D01*
X153246528Y-107050851D01*
X153328595Y-107204387D01*
X153328915Y-107204777D01*
X153286463Y-107256506D01*
X153227498Y-107366820D01*
X153191188Y-107486518D01*
X153189057Y-107508156D01*
X152981153Y-107300251D01*
X152976303Y-107251014D01*
X152932846Y-107107753D01*
X152862274Y-106975724D01*
X152767301Y-106859999D01*
X152723258Y-106823854D01*
X152651576Y-106765026D01*
X152519547Y-106694454D01*
X152376286Y-106650997D01*
X152318439Y-106645299D01*
X152263241Y-106600000D01*
X152311981Y-106560000D01*
X153178928Y-106560000D01*
X153178928Y-106711001D01*
X153178928Y-106711001D01*
G37*
X153178928Y-106711001D02*
X153195992Y-106884255D01*
X153246528Y-107050851D01*
X153328595Y-107204387D01*
X153328915Y-107204777D01*
X153286463Y-107256506D01*
X153227498Y-107366820D01*
X153191188Y-107486518D01*
X153189057Y-107508156D01*
X152981153Y-107300251D01*
X152976303Y-107251014D01*
X152932846Y-107107753D01*
X152862274Y-106975724D01*
X152767301Y-106859999D01*
X152723258Y-106823854D01*
X152651576Y-106765026D01*
X152519547Y-106694454D01*
X152376286Y-106650997D01*
X152318439Y-106645299D01*
X152263241Y-106600000D01*
X152311981Y-106560000D01*
X153178928Y-106560000D01*
X153178928Y-106711001D01*
G36*
X156181445Y-91084555D02*
G01*
X156384725Y-91251382D01*
X156616646Y-91375347D01*
X156868294Y-91451683D01*
X157064421Y-91471000D01*
X158695579Y-91471000D01*
X158891706Y-91451683D01*
X158895300Y-91450593D01*
X158895301Y-99841268D01*
X158891624Y-99878600D01*
X158895301Y-99915933D01*
X158906298Y-100027586D01*
X158912795Y-100049003D01*
X158949754Y-100170846D01*
X159020326Y-100302876D01*
X159091501Y-100389602D01*
X159115300Y-100418601D01*
X159144298Y-100442399D01*
X161367827Y-102665928D01*
X159822000Y-102665928D01*
X159697518Y-102678188D01*
X159577820Y-102714498D01*
X159467506Y-102773463D01*
X159422000Y-102810809D01*
X159376494Y-102773463D01*
X159266180Y-102714498D01*
X159146482Y-102678188D01*
X159022000Y-102665928D01*
X158257750Y-102669000D01*
X158099000Y-102827750D01*
X158099000Y-104039500D01*
X158119000Y-104039500D01*
X158119000Y-104293500D01*
X158099000Y-104293500D01*
X158099000Y-104313500D01*
X157845000Y-104313500D01*
X157845000Y-104293500D01*
X156445750Y-104293500D01*
X156287000Y-104452250D01*
X156284326Y-104954324D01*
X155505072Y-104175071D01*
X155505072Y-103796999D01*
X155488008Y-103623745D01*
X155437472Y-103457149D01*
X155355612Y-103304000D01*
X156283928Y-103304000D01*
X156287000Y-103880750D01*
X156445750Y-104039500D01*
X157845000Y-104039500D01*
X157845000Y-102827750D01*
X157686250Y-102669000D01*
X156922000Y-102665928D01*
X156797518Y-102678188D01*
X156677820Y-102714498D01*
X156567506Y-102773463D01*
X156470815Y-102852815D01*
X156391463Y-102949506D01*
X156332498Y-103059820D01*
X156296188Y-103179518D01*
X156283928Y-103304000D01*
X155355612Y-103304000D01*
X155355405Y-103303613D01*
X155355085Y-103303223D01*
X155397537Y-103251494D01*
X155456502Y-103141180D01*
X155492812Y-103021482D01*
X155505072Y-102897000D01*
X155502000Y-102620250D01*
X155343250Y-102461500D01*
X154469000Y-102461500D01*
X154469000Y-102481500D01*
X154215000Y-102481500D01*
X154215000Y-102461500D01*
X153340750Y-102461500D01*
X153182000Y-102620250D01*
X153178928Y-102897000D01*
X153191188Y-103021482D01*
X153227498Y-103141180D01*
X153286463Y-103251494D01*
X153328915Y-103303223D01*
X153328595Y-103303613D01*
X153246528Y-103457149D01*
X153195992Y-103623745D01*
X153178928Y-103796999D01*
X153178928Y-104240000D01*
X152540072Y-104240000D01*
X152540072Y-103925000D01*
X152527812Y-103800518D01*
X152527655Y-103800000D01*
X152527812Y-103799482D01*
X152540072Y-103675000D01*
X152540072Y-103125000D01*
X152527812Y-103000518D01*
X152527655Y-103000000D01*
X152527812Y-102999482D01*
X152540072Y-102875000D01*
X152540072Y-102325000D01*
X152527812Y-102200518D01*
X152527655Y-102200000D01*
X152527812Y-102199482D01*
X152540072Y-102075000D01*
X152540072Y-101772000D01*
X153178928Y-101772000D01*
X153182000Y-102048750D01*
X153340750Y-102207500D01*
X154215000Y-102207500D01*
X154215000Y-101295750D01*
X154469000Y-101295750D01*
X154469000Y-102207500D01*
X155343250Y-102207500D01*
X155502000Y-102048750D01*
X155505072Y-101772000D01*
X155492812Y-101647518D01*
X155456502Y-101527820D01*
X155397537Y-101417506D01*
X155318185Y-101320815D01*
X155221494Y-101241463D01*
X155111180Y-101182498D01*
X154991482Y-101146188D01*
X154867000Y-101133928D01*
X154627750Y-101137000D01*
X154469000Y-101295750D01*
X154215000Y-101295750D01*
X154056250Y-101137000D01*
X153817000Y-101133928D01*
X153692518Y-101146188D01*
X153572820Y-101182498D01*
X153462506Y-101241463D01*
X153365815Y-101320815D01*
X153286463Y-101417506D01*
X153227498Y-101527820D01*
X153191188Y-101647518D01*
X153178928Y-101772000D01*
X152540072Y-101772000D01*
X152540072Y-101525000D01*
X152527812Y-101400518D01*
X152527655Y-101400000D01*
X152527812Y-101399482D01*
X152540072Y-101275000D01*
X152540072Y-100725000D01*
X152527812Y-100600518D01*
X152491502Y-100480820D01*
X152432537Y-100370506D01*
X152353185Y-100273815D01*
X152256494Y-100194463D01*
X152146180Y-100135498D01*
X152026482Y-100099188D01*
X151902000Y-100086928D01*
X150402000Y-100086928D01*
X150360936Y-100090972D01*
X150365064Y-100046787D01*
X150362000Y-99585750D01*
X150203250Y-99427000D01*
X149579000Y-99427000D01*
X149579000Y-100526250D01*
X149737750Y-100685000D01*
X149768119Y-100682448D01*
X149763928Y-100725000D01*
X149763928Y-101275000D01*
X149776188Y-101399482D01*
X149776345Y-101400000D01*
X149776188Y-101400518D01*
X149763928Y-101525000D01*
X149763928Y-102075000D01*
X149776188Y-102199482D01*
X149776345Y-102200000D01*
X149776188Y-102200518D01*
X149763928Y-102325000D01*
X149763928Y-102875000D01*
X149776188Y-102999482D01*
X149776345Y-103000000D01*
X149776188Y-103000518D01*
X149763928Y-103125000D01*
X149763928Y-103675000D01*
X149776188Y-103799482D01*
X149776345Y-103800000D01*
X149776188Y-103800518D01*
X149763928Y-103925000D01*
X149763928Y-104475000D01*
X149776188Y-104599482D01*
X149776345Y-104600000D01*
X149776188Y-104600518D01*
X149763928Y-104725000D01*
X149763928Y-105275000D01*
X149776188Y-105399482D01*
X149776345Y-105400000D01*
X149776188Y-105400518D01*
X149763928Y-105525000D01*
X149763928Y-106075000D01*
X149776188Y-106199482D01*
X149776546Y-106200663D01*
X149767000Y-106314250D01*
X149859083Y-106406333D01*
X149871463Y-106429494D01*
X149950815Y-106526185D01*
X150040759Y-106600000D01*
X149992019Y-106640000D01*
X149412000Y-106640000D01*
X149412000Y-101037332D01*
X149415677Y-101000000D01*
X149412000Y-100962667D01*
X149412000Y-100459981D01*
X149457537Y-100404494D01*
X149516502Y-100294180D01*
X149552812Y-100174482D01*
X149565072Y-100050000D01*
X149565072Y-98550000D01*
X149552812Y-98425518D01*
X149516502Y-98305820D01*
X149457537Y-98195506D01*
X149413325Y-98141634D01*
X149412000Y-98128177D01*
X149412000Y-98128167D01*
X149406641Y-98073750D01*
X149579000Y-98073750D01*
X149579000Y-99173000D01*
X150203250Y-99173000D01*
X150362000Y-99014250D01*
X150365064Y-98553213D01*
X150353430Y-98428671D01*
X150317724Y-98308792D01*
X150259316Y-98198182D01*
X150180451Y-98101092D01*
X150084161Y-98021254D01*
X149974145Y-97961735D01*
X149854631Y-97924823D01*
X149737750Y-97915000D01*
X149579000Y-98073750D01*
X149406641Y-98073750D01*
X149401003Y-98016514D01*
X149357546Y-97873253D01*
X149286975Y-97741225D01*
X149286974Y-97741223D01*
X149215799Y-97654497D01*
X149192001Y-97625499D01*
X149163004Y-97601702D01*
X148973907Y-97412606D01*
X149092592Y-97448608D01*
X149259750Y-97465072D01*
X149772250Y-97465072D01*
X149939408Y-97448608D01*
X150100142Y-97399850D01*
X150248275Y-97320671D01*
X150378115Y-97214115D01*
X150484671Y-97084275D01*
X150563850Y-96936142D01*
X150612608Y-96775408D01*
X150629072Y-96608250D01*
X150629072Y-96351230D01*
X150838308Y-96141995D01*
X150867301Y-96118201D01*
X150891095Y-96089208D01*
X150891099Y-96089204D01*
X150949111Y-96018515D01*
X150962274Y-96002476D01*
X151032846Y-95870447D01*
X151076303Y-95727186D01*
X151087300Y-95615533D01*
X151087300Y-95615524D01*
X151090976Y-95578201D01*
X151087300Y-95540878D01*
X151087300Y-94483501D01*
X154099802Y-91471000D01*
X155175579Y-91471000D01*
X155371706Y-91451683D01*
X155623354Y-91375347D01*
X155855275Y-91251382D01*
X156058555Y-91084555D01*
X156120000Y-91009684D01*
X156181445Y-91084555D01*
X156181445Y-91084555D01*
G37*
X156181445Y-91084555D02*
X156384725Y-91251382D01*
X156616646Y-91375347D01*
X156868294Y-91451683D01*
X157064421Y-91471000D01*
X158695579Y-91471000D01*
X158891706Y-91451683D01*
X158895300Y-91450593D01*
X158895301Y-99841268D01*
X158891624Y-99878600D01*
X158895301Y-99915933D01*
X158906298Y-100027586D01*
X158912795Y-100049003D01*
X158949754Y-100170846D01*
X159020326Y-100302876D01*
X159091501Y-100389602D01*
X159115300Y-100418601D01*
X159144298Y-100442399D01*
X161367827Y-102665928D01*
X159822000Y-102665928D01*
X159697518Y-102678188D01*
X159577820Y-102714498D01*
X159467506Y-102773463D01*
X159422000Y-102810809D01*
X159376494Y-102773463D01*
X159266180Y-102714498D01*
X159146482Y-102678188D01*
X159022000Y-102665928D01*
X158257750Y-102669000D01*
X158099000Y-102827750D01*
X158099000Y-104039500D01*
X158119000Y-104039500D01*
X158119000Y-104293500D01*
X158099000Y-104293500D01*
X158099000Y-104313500D01*
X157845000Y-104313500D01*
X157845000Y-104293500D01*
X156445750Y-104293500D01*
X156287000Y-104452250D01*
X156284326Y-104954324D01*
X155505072Y-104175071D01*
X155505072Y-103796999D01*
X155488008Y-103623745D01*
X155437472Y-103457149D01*
X155355612Y-103304000D01*
X156283928Y-103304000D01*
X156287000Y-103880750D01*
X156445750Y-104039500D01*
X157845000Y-104039500D01*
X157845000Y-102827750D01*
X157686250Y-102669000D01*
X156922000Y-102665928D01*
X156797518Y-102678188D01*
X156677820Y-102714498D01*
X156567506Y-102773463D01*
X156470815Y-102852815D01*
X156391463Y-102949506D01*
X156332498Y-103059820D01*
X156296188Y-103179518D01*
X156283928Y-103304000D01*
X155355612Y-103304000D01*
X155355405Y-103303613D01*
X155355085Y-103303223D01*
X155397537Y-103251494D01*
X155456502Y-103141180D01*
X155492812Y-103021482D01*
X155505072Y-102897000D01*
X155502000Y-102620250D01*
X155343250Y-102461500D01*
X154469000Y-102461500D01*
X154469000Y-102481500D01*
X154215000Y-102481500D01*
X154215000Y-102461500D01*
X153340750Y-102461500D01*
X153182000Y-102620250D01*
X153178928Y-102897000D01*
X153191188Y-103021482D01*
X153227498Y-103141180D01*
X153286463Y-103251494D01*
X153328915Y-103303223D01*
X153328595Y-103303613D01*
X153246528Y-103457149D01*
X153195992Y-103623745D01*
X153178928Y-103796999D01*
X153178928Y-104240000D01*
X152540072Y-104240000D01*
X152540072Y-103925000D01*
X152527812Y-103800518D01*
X152527655Y-103800000D01*
X152527812Y-103799482D01*
X152540072Y-103675000D01*
X152540072Y-103125000D01*
X152527812Y-103000518D01*
X152527655Y-103000000D01*
X152527812Y-102999482D01*
X152540072Y-102875000D01*
X152540072Y-102325000D01*
X152527812Y-102200518D01*
X152527655Y-102200000D01*
X152527812Y-102199482D01*
X152540072Y-102075000D01*
X152540072Y-101772000D01*
X153178928Y-101772000D01*
X153182000Y-102048750D01*
X153340750Y-102207500D01*
X154215000Y-102207500D01*
X154215000Y-101295750D01*
X154469000Y-101295750D01*
X154469000Y-102207500D01*
X155343250Y-102207500D01*
X155502000Y-102048750D01*
X155505072Y-101772000D01*
X155492812Y-101647518D01*
X155456502Y-101527820D01*
X155397537Y-101417506D01*
X155318185Y-101320815D01*
X155221494Y-101241463D01*
X155111180Y-101182498D01*
X154991482Y-101146188D01*
X154867000Y-101133928D01*
X154627750Y-101137000D01*
X154469000Y-101295750D01*
X154215000Y-101295750D01*
X154056250Y-101137000D01*
X153817000Y-101133928D01*
X153692518Y-101146188D01*
X153572820Y-101182498D01*
X153462506Y-101241463D01*
X153365815Y-101320815D01*
X153286463Y-101417506D01*
X153227498Y-101527820D01*
X153191188Y-101647518D01*
X153178928Y-101772000D01*
X152540072Y-101772000D01*
X152540072Y-101525000D01*
X152527812Y-101400518D01*
X152527655Y-101400000D01*
X152527812Y-101399482D01*
X152540072Y-101275000D01*
X152540072Y-100725000D01*
X152527812Y-100600518D01*
X152491502Y-100480820D01*
X152432537Y-100370506D01*
X152353185Y-100273815D01*
X152256494Y-100194463D01*
X152146180Y-100135498D01*
X152026482Y-100099188D01*
X151902000Y-100086928D01*
X150402000Y-100086928D01*
X150360936Y-100090972D01*
X150365064Y-100046787D01*
X150362000Y-99585750D01*
X150203250Y-99427000D01*
X149579000Y-99427000D01*
X149579000Y-100526250D01*
X149737750Y-100685000D01*
X149768119Y-100682448D01*
X149763928Y-100725000D01*
X149763928Y-101275000D01*
X149776188Y-101399482D01*
X149776345Y-101400000D01*
X149776188Y-101400518D01*
X149763928Y-101525000D01*
X149763928Y-102075000D01*
X149776188Y-102199482D01*
X149776345Y-102200000D01*
X149776188Y-102200518D01*
X149763928Y-102325000D01*
X149763928Y-102875000D01*
X149776188Y-102999482D01*
X149776345Y-103000000D01*
X149776188Y-103000518D01*
X149763928Y-103125000D01*
X149763928Y-103675000D01*
X149776188Y-103799482D01*
X149776345Y-103800000D01*
X149776188Y-103800518D01*
X149763928Y-103925000D01*
X149763928Y-104475000D01*
X149776188Y-104599482D01*
X149776345Y-104600000D01*
X149776188Y-104600518D01*
X149763928Y-104725000D01*
X149763928Y-105275000D01*
X149776188Y-105399482D01*
X149776345Y-105400000D01*
X149776188Y-105400518D01*
X149763928Y-105525000D01*
X149763928Y-106075000D01*
X149776188Y-106199482D01*
X149776546Y-106200663D01*
X149767000Y-106314250D01*
X149859083Y-106406333D01*
X149871463Y-106429494D01*
X149950815Y-106526185D01*
X150040759Y-106600000D01*
X149992019Y-106640000D01*
X149412000Y-106640000D01*
X149412000Y-101037332D01*
X149415677Y-101000000D01*
X149412000Y-100962667D01*
X149412000Y-100459981D01*
X149457537Y-100404494D01*
X149516502Y-100294180D01*
X149552812Y-100174482D01*
X149565072Y-100050000D01*
X149565072Y-98550000D01*
X149552812Y-98425518D01*
X149516502Y-98305820D01*
X149457537Y-98195506D01*
X149413325Y-98141634D01*
X149412000Y-98128177D01*
X149412000Y-98128167D01*
X149406641Y-98073750D01*
X149579000Y-98073750D01*
X149579000Y-99173000D01*
X150203250Y-99173000D01*
X150362000Y-99014250D01*
X150365064Y-98553213D01*
X150353430Y-98428671D01*
X150317724Y-98308792D01*
X150259316Y-98198182D01*
X150180451Y-98101092D01*
X150084161Y-98021254D01*
X149974145Y-97961735D01*
X149854631Y-97924823D01*
X149737750Y-97915000D01*
X149579000Y-98073750D01*
X149406641Y-98073750D01*
X149401003Y-98016514D01*
X149357546Y-97873253D01*
X149286975Y-97741225D01*
X149286974Y-97741223D01*
X149215799Y-97654497D01*
X149192001Y-97625499D01*
X149163004Y-97601702D01*
X148973907Y-97412606D01*
X149092592Y-97448608D01*
X149259750Y-97465072D01*
X149772250Y-97465072D01*
X149939408Y-97448608D01*
X150100142Y-97399850D01*
X150248275Y-97320671D01*
X150378115Y-97214115D01*
X150484671Y-97084275D01*
X150563850Y-96936142D01*
X150612608Y-96775408D01*
X150629072Y-96608250D01*
X150629072Y-96351230D01*
X150838308Y-96141995D01*
X150867301Y-96118201D01*
X150891095Y-96089208D01*
X150891099Y-96089204D01*
X150949111Y-96018515D01*
X150962274Y-96002476D01*
X151032846Y-95870447D01*
X151076303Y-95727186D01*
X151087300Y-95615533D01*
X151087300Y-95615524D01*
X151090976Y-95578201D01*
X151087300Y-95540878D01*
X151087300Y-94483501D01*
X154099802Y-91471000D01*
X155175579Y-91471000D01*
X155371706Y-91451683D01*
X155623354Y-91375347D01*
X155855275Y-91251382D01*
X156058555Y-91084555D01*
X156120000Y-91009684D01*
X156181445Y-91084555D01*
G36*
X160999000Y-106214500D02*
G01*
X161019000Y-106214500D01*
X161019000Y-106468500D01*
X160999000Y-106468500D01*
X160999000Y-106488500D01*
X160745000Y-106488500D01*
X160745000Y-106468500D01*
X160725000Y-106468500D01*
X160725000Y-106214500D01*
X160745000Y-106214500D01*
X160745000Y-106194500D01*
X160999000Y-106194500D01*
X160999000Y-106214500D01*
X160999000Y-106214500D01*
G37*
X160999000Y-106214500D02*
X161019000Y-106214500D01*
X161019000Y-106468500D01*
X160999000Y-106468500D01*
X160999000Y-106488500D01*
X160745000Y-106488500D01*
X160745000Y-106468500D01*
X160725000Y-106468500D01*
X160725000Y-106214500D01*
X160745000Y-106214500D01*
X160745000Y-106194500D01*
X160999000Y-106194500D01*
X160999000Y-106214500D01*
G36*
X147103000Y-94587500D02*
G01*
X147977250Y-94587500D01*
X147980550Y-94584200D01*
X148461450Y-94584200D01*
X148564750Y-94687500D01*
X149389000Y-94687500D01*
X149389000Y-94667500D01*
X149567300Y-94667500D01*
X149567301Y-94961500D01*
X149389000Y-94961500D01*
X149389000Y-94941500D01*
X148564750Y-94941500D01*
X148406000Y-95100250D01*
X148402928Y-95252000D01*
X148415188Y-95376482D01*
X148451498Y-95496180D01*
X148510463Y-95606494D01*
X148565100Y-95673070D01*
X148547329Y-95694725D01*
X148468150Y-95842858D01*
X148419392Y-96003592D01*
X148402928Y-96170750D01*
X148402928Y-96608250D01*
X148419392Y-96775408D01*
X148455395Y-96894093D01*
X148139072Y-96577771D01*
X148139072Y-96176999D01*
X148122008Y-96003745D01*
X148071472Y-95837149D01*
X147989405Y-95683613D01*
X147989085Y-95683223D01*
X148031537Y-95631494D01*
X148090502Y-95521180D01*
X148126812Y-95401482D01*
X148139072Y-95277000D01*
X148136000Y-95000250D01*
X147977250Y-94841500D01*
X147103000Y-94841500D01*
X147103000Y-94861500D01*
X146849900Y-94861500D01*
X146849900Y-94584200D01*
X147103000Y-94584200D01*
X147103000Y-94587500D01*
X147103000Y-94587500D01*
G37*
X147103000Y-94587500D02*
X147977250Y-94587500D01*
X147980550Y-94584200D01*
X148461450Y-94584200D01*
X148564750Y-94687500D01*
X149389000Y-94687500D01*
X149389000Y-94667500D01*
X149567300Y-94667500D01*
X149567301Y-94961500D01*
X149389000Y-94961500D01*
X149389000Y-94941500D01*
X148564750Y-94941500D01*
X148406000Y-95100250D01*
X148402928Y-95252000D01*
X148415188Y-95376482D01*
X148451498Y-95496180D01*
X148510463Y-95606494D01*
X148565100Y-95673070D01*
X148547329Y-95694725D01*
X148468150Y-95842858D01*
X148419392Y-96003592D01*
X148402928Y-96170750D01*
X148402928Y-96608250D01*
X148419392Y-96775408D01*
X148455395Y-96894093D01*
X148139072Y-96577771D01*
X148139072Y-96176999D01*
X148122008Y-96003745D01*
X148071472Y-95837149D01*
X147989405Y-95683613D01*
X147989085Y-95683223D01*
X148031537Y-95631494D01*
X148090502Y-95521180D01*
X148126812Y-95401482D01*
X148139072Y-95277000D01*
X148136000Y-95000250D01*
X147977250Y-94841500D01*
X147103000Y-94841500D01*
X147103000Y-94861500D01*
X146849900Y-94861500D01*
X146849900Y-94584200D01*
X147103000Y-94584200D01*
X147103000Y-94587500D01*
M02*
