<?xml version="1.0" standalone="no"?>
 <!DOCTYPE svg PUBLIC "-//W3C//DTD SVG 1.1//EN" 
 "http://www.w3.org/Graphics/SVG/1.1/DTD/svg11.dtd"> 
<svg xmlns="http://www.w3.org/2000/svg" version="1.1" 
    width="29.7002cm" height="21.0007cm" viewBox="0 0 116930 82680 ">
<title>SVG Picture created as FrogINT_PCBProto_V1811062154-F_SilkS.svg date 2019/04/02 16:53:05 </title>
  <desc>Picture generated by PCBNEW </desc>
<g style="fill:#000000; fill-opacity:1;stroke:#000000; stroke-opacity:1;
stroke-linecap:round; stroke-linejoin:round; "
 transform="translate(0 0) scale(1 1)">
</g>
<g style="fill:#000000; fill-opacity:0.0; 
stroke:#000000; stroke-width:-0.000393701; stroke-opacity:1; 
stroke-linecap:round; stroke-linejoin:round;">
</g>
<g style="fill:#000000; fill-opacity:0.0; 
stroke:#000000; stroke-width:59.0551; stroke-opacity:1; 
stroke-linecap:round; stroke-linejoin:round;">
<path d="M68864 41088
L69164 40888
" />
<path d="M68864 40688
L68864 41088
" />
<path d="M68264 40888
L69164 40888
" />
<path d="M69164 40888
L68864 40688
" />
<path d="M63464 41088
L63764 40888
" />
<path d="M63464 40688
L63464 41088
" />
<path d="M63764 40888
L63464 40688
" />
<path d="M62864 40888
L63764 40888
" />
<path d="M64164 43238
L64164 39238
" />
<path d="M68164 43238
L64164 43238
" />
<path d="M68164 39238
L68164 43238
" />
<path d="M64164 39238
L68164 39238
" />
<path d="M64164 34588
L64464 34388
" />
<path d="M64164 34188
L64164 34588
" />
<path d="M63564 34388
L64464 34388
" />
<path d="M64464 34388
L64164 34188
" />
<path d="M58764 34588
L59064 34388
" />
<path d="M58764 34188
L58764 34588
" />
<path d="M59064 34388
L58764 34188
" />
<path d="M58164 34388
L59064 34388
" />
<path d="M59464 36738
L59464 32738
" />
<path d="M63464 36738
L59464 36738
" />
<path d="M63464 32738
L63464 36738
" />
<path d="M59464 32738
L63464 32738
" />
<path d="M55964 36288
L56264 36088
" />
<path d="M55964 35888
L55964 36288
" />
<path d="M55364 36088
L56264 36088
" />
<path d="M56264 36088
L55964 35888
" />
<path d="M50564 36288
L50864 36088
" />
<path d="M50564 35888
L50564 36288
" />
<path d="M50864 36088
L50564 35888
" />
<path d="M49964 36088
L50864 36088
" />
<path d="M51264 38438
L51264 34438
" />
<path d="M55264 38438
L51264 38438
" />
<path d="M55264 34438
L55264 38438
" />
<path d="M51264 34438
L55264 34438
" />
</g>
<g style="fill:#000000; fill-opacity:0.0; 
stroke:#000000; stroke-width:78.7402; stroke-opacity:1; 
stroke-linecap:round; stroke-linejoin:round;">
<path d="M56862 46638
L55666 46638
" />
</g>
<g style="fill:#000000; fill-opacity:0.0; 
stroke:#000000; stroke-width:47.2441; stroke-opacity:1; 
stroke-linecap:round; stroke-linejoin:round;">
<path d="M61701 42285
L63827 42285
" />
<path d="M61701 40592
L61701 42285
" />
<path d="M54773 47711
L54773 46644
" />
<path d="M54155 47711
L54773 47711
" />
<path d="M54155 46644
L54155 47711
" />
<path d="M57555 36965
L57555 38032
" />
<path d="M58173 36965
L57555 36965
" />
<path d="M58173 38032
L58173 36965
" />
<path d="M61073 41311
L61073 40244
" />
<path d="M60455 41311
L61073 41311
" />
<path d="M60455 40244
L60455 41311
" />
<path d="M60455 41565
L60455 42632
" />
<path d="M61073 41565
L60455 41565
" />
<path d="M61073 42632
L61073 41565
" />
<path d="M62541 46897
L63608 46897
" />
<path d="M62541 46279
L62541 46897
" />
<path d="M63608 46279
L62541 46279
" />
<path d="M52464 39814
L52901 39814
" />
<path d="M52901 39814
L52901 40338
" />
<path d="M48492 39814
L48492 42862
" />
<path d="M48492 42862
L51889 42862
" />
<path d="M51889 39814
L51889 42862
" />
<path d="M48492 39814
L51889 39814
" />
<path d="M48492 41838
L51889 41838
" />
<path d="M48492 40838
L51889 40838
" />
<path d="M51889 42480
L52051 42480
" />
<path d="M51889 42196
L52051 42196
" />
<path d="M51889 41480
L52051 41480
" />
<path d="M51889 41196
L52051 41196
" />
<path d="M51889 40480
L52027 40480
" />
<path d="M51889 40196
L52027 40196
" />
<path d="M48492 40792
L51889 40792
" />
<path d="M48492 40745
L51889 40745
" />
<path d="M48492 40699
L51889 40699
" />
<path d="M48492 40652
L51889 40652
" />
<path d="M48492 40606
L51889 40606
" />
<path d="M48492 40559
L51889 40559
" />
<path d="M48492 40513
L51889 40513
" />
<path d="M48492 40466
L51889 40466
" />
<path d="M48492 40420
L51889 40420
" />
<path d="M48492 40373
L51889 40373
" />
<path d="M48492 40327
L51889 40327
" />
<path d="M48492 40280
L51889 40280
" />
<path d="M48492 40234
L51889 40234
" />
<path d="M48492 40187
L51889 40187
" />
<path d="M48492 40141
L51889 40141
" />
<path d="M48492 40094
L51889 40094
" />
<path d="M48492 40048
L51889 40048
" />
<path d="M48492 40001
L51889 40001
" />
<path d="M48492 39955
L51889 39955
" />
<path d="M48492 39908
L51889 39908
" />
<path d="M48492 39862
L51889 39862
" />
</g>
<g style="fill:#000000; fill-opacity:0.0; 
stroke:#000000; stroke-width:78.7402; stroke-opacity:1; 
stroke-linecap:round; stroke-linejoin:round;">
<path d="M51274 44307
L51274 46638
" />
<path d="M52554 44307
L51274 44307
" />
<path d="M52554 46969
L52554 44307
" />
<path d="M52164 46969
L52554 46969
" />
</g>
<g style="fill:#000000; fill-opacity:0.0; 
stroke:#000000; stroke-width:47.2441; stroke-opacity:1; 
stroke-linecap:round; stroke-linejoin:round;">
<circle cx="64714.6" cy="46588.6" r="570.866" /> 
<path d="M63028 47387
L62900 47387
" />
<path d="M63028 47789
L62900 47789
" />
<path d="M58763 46964
L58763 47092
" />
<path d="M59165 46964
L59165 47092
" />
<path d="M58013 46964
L58013 47092
" />
<path d="M58415 46964
L58415 47092
" />
<path d="M59065 37702
L59065 37574
" />
<path d="M58663 37702
L58663 37574
" />
<path d="M60563 43774
L60563 43902
" />
<path d="M60965 43774
L60965 43902
" />
</g>
<g style="fill:#000000; fill-opacity:0.0; 
stroke:#000000; stroke-width:59.0551; stroke-opacity:1; 
stroke-linecap:round; stroke-linejoin:round;">
<path d="M55453 43375
L55453 43877
" />
<path d="M55227 39301
L55227 39566
" />
<path d="M59301 39301
L59301 39566
" />
<path d="M59301 43375
L59301 43110
" />
<path d="M55227 43375
L55227 43110
" />
<path d="M59301 43375
L59036 43375
" />
<path d="M59301 39301
L59036 39301
" />
<path d="M55227 39301
L55492 39301
" />
<path d="M55227 43375
L55453 43375
" />
<path d="M66098 39016
L65911 39016
L65911 38622
" />
<path d="M66192 38622
L66436 38622
L66305 38772
L66361 38772
L66398 38791
L66417 38810
L66436 38847
L66436 38941
L66417 38979
L66398 38997
L66361 39016
L66248 39016
L66211 38997
L66192 38979
" />
<path d="M66820 38622
L66895 38622
L66933 38641
L66970 38679
L66989 38754
L66989 38885
L66970 38960
L66933 38997
L66895 39016
L66820 39016
L66783 38997
L66745 38960
L66727 38885
L66727 38754
L66745 38679
L66783 38641
L66820 38622
" />
<path d="M67158 38622
L67158 38941
L67177 38979
L67195 38997
L67233 39016
L67308 39016
L67345 38997
L67364 38979
L67383 38941
L67383 38622
" />
<path d="M67514 38622
L67739 38622
" />
<path d="M67627 39016
L67627 38622
" />
<path d="M63186 39920
L63186 39526
" />
<path d="M63374 39920
L63374 39526
L63599 39920
L63599 39526
" />
<path d="M62867 42519
L62999 42912
L63130 42519
" />
<path d="M63261 42912
L63261 42519
L63355 42519
L63411 42537
L63449 42575
L63467 42612
L63486 42687
L63486 42744
L63467 42819
L63449 42856
L63411 42894
L63355 42912
L63261 42912
" />
<path d="M63655 42912
L63655 42519
L63749 42519
L63805 42537
L63842 42575
L63861 42612
L63880 42687
L63880 42744
L63861 42819
L63842 42856
L63805 42894
L63749 42912
L63655 42912
" />
<path d="M66439 43372
L66570 43766
L66702 43372
" />
<path d="M66833 43766
L66833 43372
L66927 43372
L66983 43391
L67020 43429
L67039 43466
L67058 43541
L67058 43597
L67039 43672
L67020 43710
L66983 43747
L66927 43766
L66833 43766
" />
<path d="M67227 43766
L67227 43372
L67320 43372
L67377 43391
L67414 43429
L67433 43466
L67452 43541
L67452 43597
L67433 43672
L67414 43710
L67377 43747
L67320 43766
L67227 43766
" />
<path d="M66914 38141
L66877 38122
L66820 38122
L66764 38141
L66727 38179
L66708 38216
L66689 38291
L66689 38347
L66708 38422
L66727 38460
L66764 38497
L66820 38516
L66858 38516
L66914 38497
L66933 38479
L66933 38347
L66858 38347
" />
<path d="M67102 38516
L67102 38122
L67327 38516
L67327 38122
" />
<path d="M67514 38516
L67514 38122
L67608 38122
L67664 38141
L67702 38179
L67720 38216
L67739 38291
L67739 38347
L67720 38422
L67702 38460
L67664 38497
L67608 38516
L67514 38516
" />
<path d="M63092 38797
L63055 38778
L62999 38778
L62942 38797
L62905 38835
L62886 38872
L62867 38947
L62867 39003
L62886 39078
L62905 39116
L62942 39153
L62999 39172
L63036 39172
L63092 39153
L63111 39135
L63111 39003
L63036 39003
" />
<path d="M63280 39172
L63280 38778
L63505 39172
L63505 38778
" />
<path d="M63692 39172
L63692 38778
L63786 38778
L63842 38797
L63880 38835
L63899 38872
L63917 38947
L63917 39003
L63899 39078
L63880 39116
L63842 39153
L63786 39172
L63692 39172
" />
<path d="M60013 32416
L59825 32416
L59825 32022
" />
<path d="M60125 32060
L60144 32041
L60181 32022
L60275 32022
L60313 32041
L60331 32060
L60350 32097
L60350 32135
L60331 32191
L60106 32416
L60350 32416
" />
<path d="M63820 33622
L63895 33622
L63933 33641
L63970 33679
L63989 33754
L63989 33885
L63970 33960
L63933 33997
L63895 34016
L63820 34016
L63783 33997
L63745 33960
L63727 33885
L63727 33754
L63745 33679
L63783 33641
L63820 33622
" />
<path d="M64158 33622
L64158 33941
L64177 33979
L64195 33997
L64233 34016
L64308 34016
L64345 33997
L64364 33979
L64383 33941
L64383 33622
" />
<path d="M64514 33622
L64739 33622
" />
<path d="M64627 34016
L64627 33622
" />
<path d="M58486 33420
L58486 33026
" />
<path d="M58674 33420
L58674 33026
L58899 33420
L58899 33026
" />
<path d="M58167 36019
L58299 36412
L58430 36019
" />
<path d="M58561 36412
L58561 36019
L58655 36019
L58711 36037
L58749 36075
L58767 36112
L58786 36187
L58786 36244
L58767 36319
L58749 36356
L58711 36394
L58655 36412
L58561 36412
" />
<path d="M58955 36412
L58955 36019
L59049 36019
L59105 36037
L59142 36075
L59161 36112
L59180 36187
L59180 36244
L59161 36319
L59142 36356
L59105 36394
L59049 36412
L58955 36412
" />
<path d="M63711 36019
L63842 36412
L63973 36019
" />
<path d="M64104 36412
L64104 36019
L64198 36019
L64254 36037
L64292 36075
L64311 36112
L64329 36187
L64329 36244
L64311 36319
L64292 36356
L64254 36394
L64198 36412
L64104 36412
" />
<path d="M64498 36412
L64498 36019
L64592 36019
L64648 36037
L64686 36075
L64704 36112
L64723 36187
L64723 36244
L64704 36319
L64686 36356
L64648 36394
L64592 36412
L64498 36412
" />
<path d="M61664 32141
L61627 32122
L61570 32122
L61514 32141
L61477 32179
L61458 32216
L61439 32291
L61439 32347
L61458 32422
L61477 32460
L61514 32497
L61570 32516
L61608 32516
L61664 32497
L61683 32479
L61683 32347
L61608 32347
" />
<path d="M61852 32516
L61852 32122
L62077 32516
L62077 32122
" />
<path d="M62264 32516
L62264 32122
L62358 32122
L62414 32141
L62452 32179
L62470 32216
L62489 32291
L62489 32347
L62470 32422
L62452 32460
L62414 32497
L62358 32516
L62264 32516
" />
<path d="M58392 32297
L58355 32278
L58299 32278
L58242 32297
L58205 32335
L58186 32372
L58167 32447
L58167 32503
L58186 32578
L58205 32616
L58242 32653
L58299 32672
L58336 32672
L58392 32653
L58411 32635
L58411 32503
L58336 32503
" />
<path d="M58580 32672
L58580 32278
L58805 32672
L58805 32278
" />
<path d="M58992 32672
L58992 32278
L59086 32278
L59142 32297
L59180 32335
L59199 32372
L59217 32447
L59217 32503
L59199 32578
L59180 32616
L59142 32653
L59086 32672
L58992 32672
" />
<path d="M53398 34216
L53211 34216
L53211 33822
" />
<path d="M53736 34216
L53511 34216
" />
<path d="M53623 34216
L53623 33822
L53586 33879
L53548 33916
L53511 33935
" />
<path d="M55470 35322
L55545 35322
L55583 35341
L55620 35379
L55639 35454
L55639 35585
L55620 35660
L55583 35697
L55545 35716
L55470 35716
L55433 35697
L55395 35660
L55377 35585
L55377 35454
L55395 35379
L55433 35341
L55470 35322
" />
<path d="M55808 35322
L55808 35641
L55827 35679
L55845 35697
L55883 35716
L55958 35716
L55995 35697
L56014 35679
L56033 35641
L56033 35322
" />
<path d="M56164 35322
L56389 35322
" />
<path d="M56277 35716
L56277 35322
" />
<path d="M51458 35120
L51458 34726
" />
<path d="M51645 35120
L51645 34726
L51870 35120
L51870 34726
" />
<path d="M50039 37922
L50170 38316
L50302 37922
" />
<path d="M50433 38316
L50433 37922
L50527 37922
L50583 37941
L50620 37979
L50639 38016
L50658 38091
L50658 38147
L50639 38222
L50620 38260
L50583 38297
L50527 38316
L50433 38316
" />
<path d="M50827 38316
L50827 37922
L50920 37922
L50977 37941
L51014 37979
L51033 38016
L51052 38091
L51052 38147
L51033 38222
L51014 38260
L50977 38297
L50920 38316
L50827 38316
" />
<path d="M55511 37719
L55642 38112
L55773 37719
" />
<path d="M55904 38112
L55904 37719
L55998 37719
L56054 37737
L56092 37775
L56111 37812
L56129 37887
L56129 37944
L56111 38019
L56092 38056
L56054 38094
L55998 38112
L55904 38112
" />
<path d="M56298 38112
L56298 37719
L56392 37719
L56448 37737
L56486 37775
L56504 37812
L56523 37887
L56523 37944
L56504 38019
L56486 38056
L56448 38094
L56392 38112
L56298 38112
" />
<path d="M54764 33841
L54727 33822
L54670 33822
L54614 33841
L54577 33879
L54558 33916
L54539 33991
L54539 34047
L54558 34122
L54577 34160
L54614 34197
L54670 34216
L54708 34216
L54764 34197
L54783 34179
L54783 34047
L54708 34047
" />
<path d="M54952 34216
L54952 33822
L55177 34216
L55177 33822
" />
<path d="M55364 34216
L55364 33822
L55458 33822
L55514 33841
L55552 33879
L55570 33916
L55589 33991
L55589 34047
L55570 34122
L55552 34160
L55514 34197
L55458 34216
L55364 34216
" />
<path d="M52064 33941
L52027 33922
L51970 33922
L51914 33941
L51877 33979
L51858 34016
L51839 34091
L51839 34147
L51858 34222
L51877 34260
L51914 34297
L51970 34316
L52008 34316
L52064 34297
L52083 34279
L52083 34147
L52008 34147
" />
<path d="M52252 34316
L52252 33922
L52477 34316
L52477 33922
" />
<path d="M52664 34316
L52664 33922
L52758 33922
L52814 33941
L52852 33979
L52870 34016
L52889 34091
L52889 34147
L52870 34222
L52852 34260
L52814 34297
L52758 34316
L52664 34316
" />
</g>
<g style="fill:#000000; fill-opacity:0.0; 
stroke:#000000; stroke-width:100; stroke-opacity:1; 
stroke-linecap:round; stroke-linejoin:round;">
<path d="M55097 45002
L54931 45002
" />
<path d="M54931 45264
L54931 44764
L55169 44764
" />
<path d="M55621 45264
L55335 45264
" />
<path d="M55478 45264
L55478 44764
L55431 44836
L55383 44883
L55335 44907
" />
</g>
<g style="fill:#000000; fill-opacity:0.0; 
stroke:#000000; stroke-width:59.0551; stroke-opacity:1; 
stroke-linecap:round; stroke-linejoin:round;">
<path d="M57344 46110
L57213 46110
" />
<path d="M57213 46316
L57213 45922
L57400 45922
" />
<path d="M55333 50122
L55333 50404
L55314 50460
L55277 50497
L55220 50516
L55183 50516
" />
<path d="M55727 50516
L55502 50516
" />
<path d="M55614 50516
L55614 50122
L55577 50179
L55539 50216
L55502 50235
" />
<path d="M62577 40267
L62577 40455
" />
<path d="M62445 40061
L62577 40267
L62708 40061
" />
<path d="M63045 40455
L62820 40455
" />
<path d="M62933 40455
L62933 40061
L62895 40117
L62858 40155
L62820 40174
" />
<path d="M54898 48179
L54880 48197
L54823 48216
L54786 48216
L54730 48197
L54692 48160
L54673 48122
L54655 48047
L54655 47991
L54673 47916
L54692 47879
L54730 47841
L54786 47822
L54823 47822
L54880 47841
L54898 47860
" />
<path d="M55273 48216
L55048 48216
" />
<path d="M55161 48216
L55161 47822
L55123 47879
L55086 47916
L55048 47935
" />
<path d="M56998 37679
L56980 37697
L56923 37716
L56886 37716
L56830 37697
L56792 37660
L56773 37622
L56755 37547
L56755 37491
L56773 37416
L56792 37379
L56830 37341
L56886 37322
L56923 37322
L56980 37341
L56998 37360
" />
<path d="M57148 37360
L57167 37341
L57205 37322
L57298 37322
L57336 37341
L57355 37360
L57373 37397
L57373 37435
L57355 37491
L57130 37716
L57373 37716
" />
<path d="M61498 40379
L61480 40397
L61423 40416
L61386 40416
L61330 40397
L61292 40360
L61273 40322
L61255 40247
L61255 40191
L61273 40116
L61292 40079
L61330 40041
L61386 40022
L61423 40022
L61480 40041
L61498 40060
" />
<path d="M61855 40022
L61667 40022
L61648 40210
L61667 40191
L61705 40172
L61798 40172
L61836 40191
L61855 40210
L61873 40247
L61873 40341
L61855 40379
L61836 40397
L61798 40416
L61705 40416
L61667 40397
L61648 40379
" />
<path d="M61498 42779
L61480 42797
L61423 42816
L61386 42816
L61330 42797
L61292 42760
L61273 42722
L61255 42647
L61255 42591
L61273 42516
L61292 42479
L61330 42441
L61386 42422
L61423 42422
L61480 42441
L61498 42460
" />
<path d="M61836 42422
L61761 42422
L61723 42441
L61705 42460
L61667 42516
L61648 42591
L61648 42741
L61667 42779
L61686 42797
L61723 42816
L61798 42816
L61836 42797
L61855 42779
L61873 42741
L61873 42647
L61855 42610
L61836 42591
L61798 42572
L61723 42572
L61686 42591
L61667 42610
L61648 42647
" />
<path d="M62697 46079
L62678 46098
L62622 46117
L62585 46117
L62528 46098
L62491 46060
L62472 46023
L62453 45948
L62453 45892
L62472 45817
L62491 45779
L62528 45742
L62585 45723
L62622 45723
L62678 45742
L62697 45760
" />
<path d="M63072 46117
L62847 46117
" />
<path d="M62960 46117
L62960 45723
L62922 45779
L62885 45817
L62847 45835
" />
<path d="M63447 46117
L63222 46117
" />
<path d="M63335 46117
L63335 45723
L63297 45779
L63260 45817
L63222 45835
" />
<path d="M50608 39032
L50608 39313
L50590 39369
L50552 39407
L50496 39426
L50458 39426
" />
<path d="M50758 39032
L51002 39032
L50871 39182
L50927 39182
L50965 39201
L50983 39219
L51002 39257
L51002 39351
L50983 39388
L50965 39407
L50927 39426
L50815 39426
L50777 39407
L50758 39388
" />
</g>
<g style="fill:#000000; fill-opacity:0.0; 
stroke:#000000; stroke-width:100; stroke-opacity:1; 
stroke-linecap:round; stroke-linejoin:round;">
<path d="M50247 44864
L50247 45221
L50224 45293
L50176 45340
L50105 45364
L50057 45364
" />
<path d="M50700 45031
L50700 45364
" />
<path d="M50581 44840
L50462 45198
L50771 45198
" />
</g>
<g style="fill:#000000; fill-opacity:0.0; 
stroke:#000000; stroke-width:59.0551; stroke-opacity:1; 
stroke-linecap:round; stroke-linejoin:round;">
<path d="M64083 45527
L64083 45808
L64064 45864
L64027 45902
L63970 45921
L63933 45921
" />
<path d="M64458 45527
L64270 45527
L64252 45714
L64270 45696
L64308 45677
L64402 45677
L64439 45696
L64458 45714
L64477 45752
L64477 45846
L64458 45883
L64439 45902
L64402 45921
L64308 45921
L64270 45902
L64252 45883
" />
<path d="M62898 48329
L62767 48142
" />
<path d="M62673 48329
L62673 47935
L62823 47935
L62861 47954
L62880 47973
L62898 48010
L62898 48067
L62880 48104
L62861 48123
L62823 48142
L62673 48142
" />
<path d="M63273 48329
L63048 48329
" />
<path d="M63161 48329
L63161 47935
L63123 47992
L63086 48029
L63048 48048
" />
<path d="M59648 47206
L59517 47018
" />
<path d="M59423 47206
L59423 46812
L59573 46812
L59611 46831
L59630 46850
L59648 46887
L59648 46943
L59630 46981
L59611 47000
L59573 47018
L59423 47018
" />
<path d="M59798 46850
L59817 46831
L59855 46812
L59948 46812
L59986 46831
L60005 46850
L60023 46887
L60023 46925
L60005 46981
L59780 47206
L60023 47206
" />
<path d="M57398 47016
L57267 46829
" />
<path d="M57173 47016
L57173 46622
L57323 46622
L57361 46641
L57380 46660
L57398 46697
L57398 46754
L57380 46791
L57361 46810
L57323 46829
L57173 46829
" />
<path d="M57530 46622
L57773 46622
L57642 46772
L57698 46772
L57736 46791
L57755 46810
L57773 46847
L57773 46941
L57755 46978
L57736 46997
L57698 47016
L57586 47016
L57548 46997
L57530 46978
" />
<path d="M59498 37916
L59367 37729
" />
<path d="M59273 37916
L59273 37522
L59423 37522
L59461 37541
L59480 37560
L59498 37597
L59498 37654
L59480 37691
L59461 37710
L59423 37729
L59273 37729
" />
<path d="M59855 37522
L59667 37522
L59648 37710
L59667 37691
L59705 37672
L59798 37672
L59836 37691
L59855 37710
L59873 37747
L59873 37841
L59855 37879
L59836 37897
L59798 37916
L59705 37916
L59667 37897
L59648 37879
" />
<path d="M61498 44216
L61367 44029
" />
<path d="M61273 44216
L61273 43822
L61423 43822
L61461 43841
L61480 43860
L61498 43897
L61498 43954
L61480 43991
L61461 44010
L61423 44029
L61273 44029
" />
<path d="M61836 43822
L61761 43822
L61723 43841
L61705 43860
L61667 43916
L61648 43991
L61648 44141
L61667 44179
L61686 44197
L61723 44216
L61798 44216
L61836 44197
L61855 44179
L61873 44141
L61873 44047
L61855 44010
L61836 43991
L61798 43972
L61723 43972
L61686 43991
L61667 44010
L61648 44047
" />
<path d="M54115 41638
L54434 41638
L54472 41619
L54490 41601
L54509 41563
L54509 41488
L54490 41451
L54472 41432
L54434 41413
L54115 41413
" />
<path d="M54115 41263
L54115 41019
L54265 41151
L54265 41094
L54284 41057
L54303 41038
L54340 41019
L54434 41019
L54472 41038
L54490 41057
L54509 41094
L54509 41207
L54490 41244
L54472 41263
" />
<g >
</g>
</g> 
</svg>
