<?xml version="1.0" standalone="no"?>
 <!DOCTYPE svg PUBLIC "-//W3C//DTD SVG 1.1//EN" 
 "http://www.w3.org/Graphics/SVG/1.1/DTD/svg11.dtd"> 
<svg xmlns="http://www.w3.org/2000/svg" version="1.1" 
    width="29.7002cm" height="21.0007cm" viewBox="0 0 116930 82680 ">
<title>SVG Picture created as FrogINT_PCBProto_V1811062154-F_Mask.svg date 2019/04/02 16:53:05 </title>
  <desc>Picture generated by PCBNEW </desc>
<g style="fill:#000000; fill-opacity:1;stroke:#000000; stroke-opacity:1;
stroke-linecap:round; stroke-linejoin:round; "
 transform="translate(0 0) scale(1 1)">
</g>
<g style="fill:#000000; fill-opacity:0.0; 
stroke:#000000; stroke-width:-0.000393701; stroke-opacity:1; 
stroke-linecap:round; stroke-linejoin:round;">
</g>
<g style="fill:#000000; fill-opacity:1.0; 
stroke:#000000; stroke-width:0; stroke-opacity:1; 
stroke-linecap:round; stroke-linejoin:round;">
<path style="fill:#000000; fill-opacity:1.0; 
stroke:#000000; stroke-width:0; stroke-opacity:1; 
stroke-linecap:round; stroke-linejoin:round;fill-rule:evenodd;"
d="M 56577,50024
56636,50042
56636,50042
56691,50071
56691,50071
56691,50071
56739,50110
56771,50150
56778,50158
56808,50213
56808,50213
56826,50272
56830,50319
56830,50822
56826,50868
56808,50928
56808,50928
56778,50982
56739,51030
56691,51070
56636,51099
56636,51099
56577,51117
56515,51123
56454,51117
56394,51099
56394,51099
56339,51070
56291,51030
56252,50982
56223,50928
56223,50928
56205,50868
56200,50822
56200,50319
56205,50272
56223,50213
56252,50158
56291,50110
56339,50071
56339,50071
56339,50071
56394,50042
56394,50042
56454,50024
56515,50018
56577,50024
Z" /> 
<path style="fill:#000000; fill-opacity:1.0; 
stroke:#000000; stroke-width:0; stroke-opacity:1; 
stroke-linecap:round; stroke-linejoin:round;fill-rule:evenodd;"
d="M 60475,50024
60534,50042
60534,50042
60589,50071
60589,50071
60589,50071
60637,50110
60669,50150
60676,50158
60705,50213
60705,50213
60723,50272
60728,50319
60728,50822
60723,50868
60705,50928
60705,50928
60676,50982
60637,51030
60589,51070
60534,51099
60534,51099
60475,51117
60413,51123
60351,51117
60292,51099
60292,51099
60237,51070
60189,51030
60150,50982
60120,50928
60120,50928
60102,50868
60098,50822
60098,50319
60102,50272
60120,50213
60150,50158
60189,50110
60237,50071
60237,50071
60237,50071
60292,50042
60292,50042
60351,50024
60413,50018
60475,50024
Z" /> 
<path style="fill:#000000; fill-opacity:1.0; 
stroke:#000000; stroke-width:0; stroke-opacity:1; 
stroke-linecap:round; stroke-linejoin:round;fill-rule:evenodd;"
d="M 60475,48508
60534,48526
60534,48526
60589,48555
60589,48555
60589,48555
60637,48595
60669,48634
60676,48643
60705,48697
60705,48697
60723,48757
60728,48803
60728,49188
60723,49234
60705,49294
60705,49294
60676,49349
60637,49397
60589,49436
60534,49465
60534,49465
60475,49483
60413,49489
60351,49483
60292,49465
60292,49465
60237,49436
60189,49397
60150,49349
60120,49294
60120,49294
60102,49234
60098,49188
60098,48803
60102,48757
60120,48697
60150,48643
60189,48595
60237,48555
60237,48555
60237,48555
60292,48526
60292,48526
60351,48508
60413,48502
60475,48508
Z" /> 
<path style="fill:#000000; fill-opacity:1.0; 
stroke:#000000; stroke-width:0; stroke-opacity:1; 
stroke-linecap:round; stroke-linejoin:round;fill-rule:evenodd;"
d="M 56577,48508
56636,48526
56636,48526
56691,48555
56691,48555
56691,48555
56739,48595
56771,48634
56778,48643
56808,48697
56808,48697
56826,48757
56830,48803
56830,49188
56826,49234
56808,49294
56808,49294
56778,49349
56739,49397
56691,49436
56636,49465
56636,49465
56577,49483
56515,49489
56454,49483
56394,49465
56394,49465
56339,49436
56291,49397
56252,49349
56223,49294
56223,49294
56205,49234
56200,49188
56200,48803
56205,48757
56223,48697
56252,48643
56291,48595
56339,48555
56339,48555
56339,48555
56394,48526
56394,48526
56454,48508
56515,48502
56577,48508
Z" /> 
<path style="fill:#000000; fill-opacity:1.0; 
stroke:#000000; stroke-width:0; stroke-opacity:1; 
stroke-linecap:round; stroke-linejoin:round;fill-rule:evenodd;"
d="M 59143,48653
57785,48653
57785,48062
59143,48062
59143,48653
Z" /> 
<path style="fill:#000000; fill-opacity:1.0; 
stroke:#000000; stroke-width:0; stroke-opacity:1; 
stroke-linecap:round; stroke-linejoin:round;fill-rule:evenodd;"
d="M 62824,47325
62843,47330
62860,47340
62875,47352
62888,47367
62897,47385
62903,47404
62905,47426
62905,47751
62903,47773
62897,47791
62888,47809
62875,47824
62860,47837
62843,47846
62824,47852
62802,47854
62506,47854
62484,47852
62465,47846
62448,47837
62433,47824
62420,47809
62411,47791
62405,47773
62403,47751
62403,47426
62405,47404
62411,47385
62420,47367
62433,47352
62448,47340
62465,47330
62484,47325
62506,47322
62802,47322
62824,47325
Z" /> 
<path style="fill:#000000; fill-opacity:1.0; 
stroke:#000000; stroke-width:0; stroke-opacity:1; 
stroke-linecap:round; stroke-linejoin:round;fill-rule:evenodd;"
d="M 63444,47325
63463,47330
63480,47340
63495,47352
63508,47367
63517,47385
63523,47404
63525,47426
63525,47751
63523,47773
63517,47791
63508,47809
63495,47824
63480,47837
63463,47846
63444,47852
63422,47854
63126,47854
63104,47852
63085,47846
63068,47837
63053,47824
63040,47809
63031,47791
63025,47773
63023,47751
63023,47426
63025,47404
63031,47385
63040,47367
63053,47352
63068,47340
63085,47330
63104,47325
63126,47322
63422,47322
63444,47325
Z" /> 
<path style="fill:#000000; fill-opacity:1.0; 
stroke:#000000; stroke-width:0; stroke-opacity:1; 
stroke-linecap:round; stroke-linejoin:round;fill-rule:evenodd;"
d="M 57018,47790
55510,47790
55510,47298
57018,47298
57018,47790
Z" /> 
<path style="fill:#000000; fill-opacity:1.0; 
stroke:#000000; stroke-width:0; stroke-opacity:1; 
stroke-linecap:round; stroke-linejoin:round;fill-rule:evenodd;"
d="M 54661,47090
54681,47096
54700,47106
54717,47120
54731,47136
54741,47155
54747,47176
54750,47200
54750,47575
54747,47599
54741,47620
54731,47639
54717,47655
54700,47669
54681,47679
54661,47685
54637,47688
54291,47688
54267,47685
54247,47679
54228,47669
54211,47655
54197,47639
54187,47620
54181,47599
54179,47575
54179,47200
54181,47176
54187,47155
54197,47136
54211,47120
54228,47106
54247,47096
54267,47090
54291,47087
54637,47087
54661,47090
Z" /> 
<path style="fill:#000000; fill-opacity:1.0; 
stroke:#000000; stroke-width:0; stroke-opacity:1; 
stroke-linecap:round; stroke-linejoin:round;fill-rule:evenodd;"
d="M 59149,47089
59167,47095
59185,47104
59200,47117
59213,47132
59222,47149
59228,47168
59230,47190
59230,47486
59228,47508
59222,47527
59213,47544
59200,47559
59185,47572
59167,47581
59149,47587
59127,47589
58802,47589
58780,47587
58761,47581
58743,47572
58728,47559
58716,47544
58706,47527
58700,47508
58698,47486
58698,47190
58700,47168
58706,47149
58716,47132
58728,47117
58743,47104
58761,47095
58780,47089
58802,47087
59127,47087
59149,47089
Z" /> 
<path style="fill:#000000; fill-opacity:1.0; 
stroke:#000000; stroke-width:0; stroke-opacity:1; 
stroke-linecap:round; stroke-linejoin:round;fill-rule:evenodd;"
d="M 58399,47089
58417,47095
58435,47104
58450,47117
58463,47132
58472,47149
58478,47168
58480,47190
58480,47486
58478,47508
58472,47527
58463,47544
58450,47559
58435,47572
58417,47581
58399,47587
58377,47589
58052,47589
58030,47587
58011,47581
57993,47572
57978,47559
57966,47544
57956,47527
57950,47508
57948,47486
57948,47190
57950,47168
57956,47149
57966,47132
57978,47117
57993,47104
58011,47095
58030,47089
58052,47087
58377,47087
58399,47089
Z" /> 
<path style="fill:#000000; fill-opacity:1.0; 
stroke:#000000; stroke-width:0; stroke-opacity:1; 
stroke-linecap:round; stroke-linejoin:round;fill-rule:evenodd;"
d="M 64881,46039
64984,46082
64984,46082
65078,46145
65157,46224
65217,46313
65220,46318
65263,46422
65285,46532
65285,46644
65263,46755
65220,46858
65220,46858
65157,46952
65078,47032
64984,47094
64984,47094
64984,47094
64881,47137
64770,47159
64658,47159
64548,47137
64444,47094
64444,47094
64444,47094
64350,47032
64271,46952
64208,46858
64208,46858
64165,46755
64143,46644
64143,46532
64165,46422
64208,46318
64211,46313
64271,46224
64350,46145
64444,46082
64444,46082
64548,46039
64658,46017
64770,46017
64881,46039
Z" /> 
<path style="fill:#000000; fill-opacity:1.0; 
stroke:#000000; stroke-width:0; stroke-opacity:1; 
stroke-linecap:round; stroke-linejoin:round;fill-rule:evenodd;"
d="M 54661,46391
54681,46397
54700,46407
54717,46421
54731,46438
54741,46457
54747,46477
54750,46501
54750,46876
54747,46900
54741,46921
54731,46940
54717,46956
54700,46970
54681,46980
54661,46987
54637,46989
54291,46989
54267,46987
54247,46980
54228,46970
54211,46956
54197,46940
54187,46921
54181,46900
54179,46876
54179,46501
54181,46477
54187,46457
54197,46438
54211,46421
54228,46407
54247,46397
54267,46391
54291,46388
54637,46388
54661,46391
Z" /> 
<path style="fill:#000000; fill-opacity:1.0; 
stroke:#000000; stroke-width:0; stroke-opacity:1; 
stroke-linecap:round; stroke-linejoin:round;fill-rule:evenodd;"
d="M 59149,46469
59167,46475
59185,46484
59200,46497
59213,46512
59222,46529
59228,46548
59230,46570
59230,46865
59228,46888
59222,46906
59213,46924
59200,46939
59185,46952
59167,46961
59149,46967
59127,46969
58802,46969
58780,46967
58761,46961
58743,46952
58728,46939
58716,46924
58706,46906
58700,46888
58698,46865
58698,46570
58700,46548
58706,46529
58716,46512
58728,46497
58743,46484
58761,46475
58780,46469
58802,46467
59127,46467
59149,46469
Z" /> 
<path style="fill:#000000; fill-opacity:1.0; 
stroke:#000000; stroke-width:0; stroke-opacity:1; 
stroke-linecap:round; stroke-linejoin:round;fill-rule:evenodd;"
d="M 58399,46469
58417,46475
58435,46484
58450,46497
58463,46512
58472,46529
58478,46548
58480,46570
58480,46865
58478,46888
58472,46906
58463,46924
58450,46939
58435,46952
58417,46961
58399,46967
58377,46969
58052,46969
58030,46967
58011,46961
57993,46952
57978,46939
57966,46924
57956,46906
57950,46888
57948,46865
57948,46570
57950,46548
57956,46529
57966,46512
57978,46497
57993,46484
58011,46475
58030,46469
58052,46467
58377,46467
58399,46469
Z" /> 
<path style="fill:#000000; fill-opacity:1.0; 
stroke:#000000; stroke-width:0; stroke-opacity:1; 
stroke-linecap:round; stroke-linejoin:round;fill-rule:evenodd;"
d="M 51744,44373
51795,44394
51799,44397
51840,44424
51878,44462
51878,44462
51879,44464
51887,44470
51895,44474
51904,44477
51914,44478
51924,44477
51933,44474
51941,44470
51949,44464
51950,44462
51950,44462
51988,44424
52029,44397
52034,44394
52084,44373
52137,44362
52191,44362
52244,44373
52295,44394
52299,44397
52340,44424
52378,44462
52389,44478
52408,44508
52429,44558
52440,44611
52440,44665
52429,44718
52408,44769
52408,44769
52378,44814
52340,44852
52340,44852
52339,44853
52332,44861
52328,44869
52325,44878
52324,44888
52325,44898
52328,44907
52332,44915
52339,44923
52340,44924
52340,44924
52378,44962
52389,44978
52408,45008
52429,45058
52440,45111
52440,45165
52429,45218
52408,45269
52408,45269
52378,45314
52340,45352
52340,45352
52339,45353
52332,45361
52328,45369
52325,45378
52324,45388
52325,45398
52328,45407
52332,45415
52339,45423
52340,45424
52340,45424
52378,45462
52389,45478
52408,45508
52429,45558
52440,45611
52440,45665
52429,45718
52408,45769
52408,45769
52378,45814
52340,45852
52340,45852
52339,45853
52332,45861
52328,45869
52325,45878
52324,45888
52325,45898
52328,45907
52332,45915
52339,45923
52340,45924
52340,45924
52378,45962
52389,45978
52408,46008
52429,46058
52440,46111
52440,46165
52429,46218
52408,46269
52397,46286
52392,46294
52389,46304
52388,46313
52389,46323
52392,46332
52397,46341
52403,46348
52410,46354
52419,46359
52428,46362
52438,46362
52440,46362
52440,46914
51888,46914
51888,46912
51888,46902
51885,46893
51880,46884
51874,46877
51867,46871
51858,46866
51849,46863
51839,46862
51830,46863
51820,46866
51812,46871
51795,46882
51744,46903
51691,46914
51637,46914
51584,46903
51534,46882
51498,46858
51488,46852
51450,46814
51420,46769
51420,46769
51399,46718
51388,46665
51388,46611
51399,46558
51420,46508
51446,46469
51450,46462
51488,46424
51488,46424
51490,46423
51496,46415
51500,46407
51503,46398
51504,46388
51503,46378
51500,46369
51496,46361
51490,46353
51488,46352
51488,46352
51450,46314
51420,46269
51420,46269
51399,46218
51388,46165
51388,46111
51399,46058
51420,46008
51440,45978
51450,45962
51488,45924
51488,45924
51490,45923
51496,45915
51500,45907
51503,45898
51504,45888
51824,45888
51825,45898
51828,45907
51832,45915
51839,45923
51840,45924
51840,45924
51878,45962
51878,45962
51879,45964
51887,45970
51895,45974
51904,45977
51914,45978
51924,45977
51933,45974
51941,45970
51949,45964
51950,45962
51950,45962
51988,45924
51988,45924
51990,45923
51996,45915
52000,45907
52003,45898
52004,45888
52003,45878
52000,45869
51996,45861
51990,45853
51988,45852
51988,45852
51950,45814
51950,45814
51949,45813
51941,45807
51933,45802
51924,45799
51914,45798
51904,45799
51895,45802
51887,45807
51879,45813
51878,45814
51878,45814
51840,45852
51840,45852
51839,45853
51832,45861
51828,45869
51825,45878
51824,45888
51504,45888
51503,45878
51500,45869
51496,45861
51490,45853
51488,45852
51488,45852
51450,45814
51420,45769
51420,45769
51399,45718
51388,45665
51388,45611
51399,45558
51420,45508
51440,45478
51450,45462
51488,45424
51488,45424
51490,45423
51496,45415
51500,45407
51503,45398
51504,45388
51824,45388
51825,45398
51828,45407
51832,45415
51839,45423
51840,45424
51840,45424
51878,45462
51878,45462
51879,45464
51887,45470
51895,45474
51904,45477
51914,45478
51924,45477
51933,45474
51941,45470
51949,45464
51950,45462
51950,45462
51988,45424
51988,45424
51990,45423
51996,45415
52000,45407
52003,45398
52004,45388
52003,45378
52000,45369
51996,45361
51990,45353
51988,45352
51988,45352
51950,45314
51950,45314
51949,45313
51941,45307
51933,45302
51924,45299
51914,45298
51904,45299
51895,45302
51887,45307
51879,45313
51878,45314
51878,45314
51840,45352
51840,45352
51839,45353
51832,45361
51828,45369
51825,45378
51824,45388
51504,45388
51503,45378
51500,45369
51496,45361
51490,45353
51488,45352
51488,45352
51450,45314
51420,45269
51420,45269
51399,45218
51388,45165
51388,45111
51399,45058
51420,45008
51440,44978
51450,44962
51488,44924
51488,44924
51490,44923
51496,44915
51500,44907
51503,44898
51504,44888
51824,44888
51825,44898
51828,44907
51832,44915
51839,44923
51840,44924
51840,44924
51878,44962
51878,44962
51879,44964
51887,44970
51895,44974
51904,44977
51914,44978
51924,44977
51933,44974
51941,44970
51949,44964
51950,44962
51950,44962
51988,44924
51988,44924
51990,44923
51996,44915
52000,44907
52003,44898
52004,44888
52003,44878
52000,44869
51996,44861
51990,44853
51988,44852
51988,44852
51950,44814
51950,44814
51949,44813
51941,44807
51933,44802
51924,44799
51914,44798
51904,44799
51895,44802
51887,44807
51879,44813
51878,44814
51878,44814
51840,44852
51840,44852
51839,44853
51832,44861
51828,44869
51825,44878
51824,44888
51504,44888
51503,44878
51500,44869
51496,44861
51490,44853
51488,44852
51488,44852
51450,44814
51420,44769
51420,44769
51399,44718
51388,44665
51388,44611
51399,44558
51420,44508
51440,44478
51450,44462
51488,44424
51529,44397
51534,44394
51584,44373
51637,44362
51691,44362
51744,44373
Z" /> 
<path style="fill:#000000; fill-opacity:1.0; 
stroke:#000000; stroke-width:0; stroke-opacity:1; 
stroke-linecap:round; stroke-linejoin:round;fill-rule:evenodd;"
d="M 63076,46305
63097,46311
63116,46321
63132,46335
63146,46352
63156,46371
63163,46391
63165,46415
63165,46761
63163,46785
63156,46805
63146,46824
63132,46841
63116,46855
63097,46865
63076,46871
63052,46874
62677,46874
62653,46871
62633,46865
62614,46855
62597,46841
62583,46824
62573,46805
62567,46785
62564,46761
62564,46415
62567,46391
62573,46371
62583,46352
62597,46335
62614,46321
62633,46311
62653,46305
62677,46303
63052,46303
63076,46305
Z" /> 
<path style="fill:#000000; fill-opacity:1.0; 
stroke:#000000; stroke-width:0; stroke-opacity:1; 
stroke-linecap:round; stroke-linejoin:round;fill-rule:evenodd;"
d="M 63775,46305
63796,46311
63815,46321
63831,46335
63845,46352
63855,46371
63861,46391
63864,46415
63864,46761
63861,46785
63855,46805
63845,46824
63831,46841
63815,46855
63796,46865
63775,46871
63751,46874
63376,46874
63352,46871
63331,46865
63312,46855
63296,46841
63282,46824
63272,46805
63266,46785
63263,46761
63263,46415
63266,46391
63272,46371
63282,46352
63296,46335
63312,46321
63331,46311
63352,46305
63376,46303
63751,46303
63775,46305
Z" /> 
<path style="fill:#000000; fill-opacity:1.0; 
stroke:#000000; stroke-width:0; stroke-opacity:1; 
stroke-linecap:round; stroke-linejoin:round;fill-rule:evenodd;"
d="M 57018,45979
55510,45979
55510,45487
57018,45487
57018,45979
Z" /> 
<path style="fill:#000000; fill-opacity:1.0; 
stroke:#000000; stroke-width:0; stroke-opacity:1; 
stroke-linecap:round; stroke-linejoin:round;fill-rule:evenodd;"
d="M 60949,43899
60967,43905
60985,43914
61000,43927
61013,43942
61022,43960
61028,43978
61030,44000
61030,44296
61028,44318
61022,44337
61013,44354
61000,44369
60985,44382
60967,44391
60949,44397
60927,44399
60602,44399
60580,44397
60561,44391
60543,44382
60528,44369
60516,44354
60506,44337
60500,44318
60498,44296
60498,44000
60500,43978
60506,43960
60516,43942
60528,43927
60543,43914
60561,43905
60580,43899
60602,43897
60927,43897
60949,43899
Z" /> 
<path style="fill:#000000; fill-opacity:1.0; 
stroke:#000000; stroke-width:0; stroke-opacity:1; 
stroke-linecap:round; stroke-linejoin:round;fill-rule:evenodd;"
d="M 59026,43956
55502,43956
55502,43208
59026,43208
59026,43956
Z" /> 
<path style="fill:#000000; fill-opacity:1.0; 
stroke:#000000; stroke-width:0; stroke-opacity:1; 
stroke-linecap:round; stroke-linejoin:round;fill-rule:evenodd;"
d="M 60949,43279
60967,43285
60985,43294
61000,43307
61013,43322
61022,43339
61028,43358
61030,43380
61030,43676
61028,43698
61022,43717
61013,43734
61000,43749
60985,43762
60967,43771
60949,43777
60927,43779
60602,43779
60580,43777
60561,43771
60543,43762
60528,43749
60516,43734
60506,43717
60500,43698
60498,43676
60498,43380
60500,43358
60506,43339
60516,43322
60528,43307
60543,43294
60561,43285
60580,43279
60602,43277
60927,43277
60949,43279
Z" /> 
<path style="fill:#000000; fill-opacity:1.0; 
stroke:#000000; stroke-width:0; stroke-opacity:1; 
stroke-linecap:round; stroke-linejoin:round;fill-rule:evenodd;"
d="M 59882,43100
59134,43100
59134,39576
59882,39576
59882,43100
Z" /> 
<path style="fill:#000000; fill-opacity:1.0; 
stroke:#000000; stroke-width:0; stroke-opacity:1; 
stroke-linecap:round; stroke-linejoin:round;fill-rule:evenodd;"
d="M 55394,43100
54646,43100
54646,39576
55394,39576
55394,43100
Z" /> 
<path style="fill:#000000; fill-opacity:1.0; 
stroke:#000000; stroke-width:0; stroke-opacity:1; 
stroke-linecap:round; stroke-linejoin:round;fill-rule:evenodd;"
d="M 60961,42290
60981,42296
61000,42306
61017,42320
61031,42336
61041,42355
61047,42376
61050,42400
61050,42775
61047,42799
61041,42820
61031,42839
61017,42855
61000,42869
60981,42879
60961,42885
60937,42888
60591,42888
60567,42885
60547,42879
60528,42869
60511,42855
60497,42839
60487,42820
60481,42799
60479,42775
60479,42400
60481,42376
60487,42355
60497,42336
60511,42320
60528,42306
60547,42296
60567,42290
60591,42287
60937,42287
60961,42290
Z" /> 
<path style="fill:#000000; fill-opacity:1.0; 
stroke:#000000; stroke-width:0; stroke-opacity:1; 
stroke-linecap:round; stroke-linejoin:round;fill-rule:evenodd;"
d="M 52515,41928
52545,41931
52622,41954
52623,41954
52695,41993
52758,42044
52809,42107
52848,42179
52848,42179
52871,42257
52879,42338
52871,42419
52848,42497
52848,42497
52809,42569
52758,42632
52695,42683
52623,42722
52623,42722
52545,42745
52515,42748
52484,42751
52444,42751
52413,42748
52383,42745
52305,42722
52305,42722
52233,42683
52170,42632
52119,42569
52080,42497
52080,42497
52057,42419
52049,42338
52057,42257
52080,42179
52080,42179
52119,42107
52170,42044
52233,41993
52305,41954
52307,41954
52383,41931
52413,41928
52444,41925
52484,41925
52515,41928
Z" /> 
<path style="fill:#000000; fill-opacity:1.0; 
stroke:#000000; stroke-width:0; stroke-opacity:1; 
stroke-linecap:round; stroke-linejoin:round;fill-rule:evenodd;"
d="M 65836,40141
65836,40141
65836,40141
65903,40161
65903,40161
65903,40161
65964,40194
66018,40238
66062,40292
66095,40354
66117,40425
66121,40434
66126,40442
66133,40449
66141,40454
66150,40458
66159,40460
66169,40460
66178,40458
66187,40454
66195,40449
66202,40442
66207,40434
66211,40425
66233,40354
66266,40292
66310,40238
66364,40194
66425,40161
66425,40161
66425,40161
66492,40141
66492,40141
66492,40141
66544,40136
67170,40136
67222,40141
67222,40141
67222,40141
67289,40161
67289,40161
67289,40161
67350,40194
67404,40238
67448,40292
67481,40354
67501,40421
67508,40490
67501,40560
67501,40560
67501,40560
67493,40589
67481,40626
67448,40688
67404,40742
67350,40786
67285,40821
67277,40826
67271,40833
67265,40841
67261,40850
67260,40859
67260,40869
67261,40878
67265,40887
67271,40895
67277,40902
67285,40907
67350,40942
67404,40986
67448,41040
67481,41102
67481,41102
67481,41102
67496,41151
67501,41169
67508,41238
67501,41308
67501,41308
67501,41308
67492,41338
67481,41374
67448,41436
67404,41490
67350,41534
67285,41569
67277,41574
67271,41581
67265,41589
67261,41598
67260,41607
67260,41617
67261,41626
67265,41635
67271,41643
67277,41650
67285,41655
67350,41690
67404,41734
67448,41788
67481,41850
67501,41917
67508,41986
67501,42056
67501,42056
67501,42056
67482,42121
67481,42122
67448,42184
67404,42238
67350,42282
67289,42315
67289,42315
67289,42315
67222,42335
67222,42335
67222,42335
67170,42340
66544,42340
66492,42335
66492,42335
66492,42335
66425,42315
66425,42315
66425,42315
66364,42282
66310,42238
66266,42184
66233,42122
66211,42051
66207,42042
66202,42034
66195,42027
66187,42022
66178,42018
66169,42016
66159,42016
66150,42018
66141,42022
66133,42027
66126,42034
66121,42042
66117,42051
66095,42122
66062,42184
66018,42238
65964,42282
65903,42315
65903,42315
65903,42315
65836,42335
65836,42335
65836,42335
65784,42340
65158,42340
65106,42335
65106,42335
65106,42335
65040,42315
65040,42315
65040,42315
64978,42282
64924,42238
64880,42184
64847,42122
64846,42121
64827,42056
64827,42056
64827,42056
64820,41986
64827,41917
64847,41850
64880,41788
64924,41734
64978,41690
65043,41655
65051,41650
65058,41643
65063,41635
65067,41626
65069,41617
65069,41607
65874,41607
65874,41617
65876,41626
65879,41635
65885,41643
65892,41650
65900,41655
65964,41690
66018,41734
66062,41788
66095,41850
66117,41921
66121,41930
66126,41938
66133,41945
66141,41950
66150,41954
66159,41956
66169,41956
66178,41954
66187,41950
66195,41945
66202,41938
66207,41930
66211,41921
66233,41850
66266,41788
66310,41734
66364,41690
66429,41655
66437,41650
66443,41643
66449,41635
66452,41626
66454,41617
66454,41607
66452,41598
66449,41589
66443,41581
66437,41574
66429,41569
66364,41534
66310,41490
66266,41436
66233,41374
66211,41303
66207,41294
66202,41286
66195,41279
66187,41274
66178,41270
66169,41268
66159,41268
66150,41270
66141,41274
66133,41279
66126,41286
66121,41294
66117,41303
66095,41374
66062,41436
66018,41490
65964,41534
65900,41569
65892,41574
65885,41581
65879,41589
65876,41598
65874,41607
65069,41607
65067,41598
65063,41589
65058,41581
65051,41574
65043,41569
64978,41534
64924,41490
64880,41436
64847,41374
64836,41338
64827,41308
64827,41308
64827,41308
64820,41238
64827,41169
64832,41151
64847,41102
64847,41102
64847,41102
64880,41040
64924,40986
64978,40942
65043,40907
65051,40902
65058,40895
65063,40887
65067,40878
65069,40869
65069,40859
65874,40859
65874,40869
65876,40878
65879,40887
65885,40895
65892,40902
65900,40907
65964,40942
66018,40986
66062,41040
66095,41102
66117,41173
66121,41182
66126,41190
66133,41197
66141,41202
66150,41206
66159,41208
66169,41208
66178,41206
66187,41202
66195,41197
66202,41190
66207,41182
66211,41173
66233,41102
66266,41040
66310,40986
66364,40942
66429,40907
66437,40902
66443,40895
66449,40887
66452,40878
66454,40869
66454,40859
66452,40850
66449,40841
66443,40833
66437,40826
66429,40821
66364,40786
66310,40742
66266,40688
66233,40626
66211,40555
66207,40546
66202,40538
66195,40531
66187,40526
66178,40522
66169,40520
66159,40520
66150,40522
66141,40526
66133,40531
66126,40538
66121,40546
66117,40555
66095,40626
66062,40688
66018,40742
65964,40786
65900,40821
65892,40826
65885,40833
65879,40841
65876,40850
65874,40859
65069,40859
65067,40850
65063,40841
65058,40833
65051,40826
65043,40821
64978,40786
64924,40742
64880,40688
64847,40626
64836,40589
64827,40560
64827,40560
64827,40560
64820,40490
64827,40421
64847,40354
64880,40292
64924,40238
64978,40194
65040,40161
65040,40161
65040,40161
65106,40141
65106,40141
65106,40141
65158,40136
65784,40136
65836,40141
Z" /> 
<path style="fill:#000000; fill-opacity:1.0; 
stroke:#000000; stroke-width:0; stroke-opacity:1; 
stroke-linecap:round; stroke-linejoin:round;fill-rule:evenodd;"
d="M 63827,42285
62843,42285
62843,40592
63827,40592
63827,42285
Z" /> 
<path style="fill:#000000; fill-opacity:1.0; 
stroke:#000000; stroke-width:0; stroke-opacity:1; 
stroke-linecap:round; stroke-linejoin:round;fill-rule:evenodd;"
d="M 62685,42285
61701,42285
61701,40592
62685,40592
62685,42285
Z" /> 
<path style="fill:#000000; fill-opacity:1.0; 
stroke:#000000; stroke-width:0; stroke-opacity:1; 
stroke-linecap:round; stroke-linejoin:round;fill-rule:evenodd;"
d="M 60961,41591
60981,41597
61000,41607
61017,41621
61031,41638
61041,41657
61047,41677
61050,41701
61050,42076
61047,42100
61041,42121
61031,42140
61017,42156
61000,42170
60981,42180
60961,42187
60937,42189
60591,42189
60567,42187
60547,42180
60528,42170
60511,42156
60497,42140
60487,42121
60481,42100
60479,42076
60479,41701
60481,41677
60487,41657
60497,41638
60511,41621
60528,41607
60547,41597
60567,41591
60591,41588
60937,41588
60961,41591
Z" /> 
<path style="fill:#000000; fill-opacity:1.0; 
stroke:#000000; stroke-width:0; stroke-opacity:1; 
stroke-linecap:round; stroke-linejoin:round;fill-rule:evenodd;"
d="M 52515,40928
52545,40931
52623,40954
52623,40954
52695,40993
52758,41044
52809,41107
52848,41179
52848,41179
52871,41257
52879,41338
52871,41419
52863,41448
52848,41497
52809,41569
52758,41632
52695,41683
52623,41722
52623,41722
52545,41745
52515,41748
52484,41751
52444,41751
52413,41748
52383,41745
52305,41722
52305,41722
52233,41683
52170,41632
52119,41569
52080,41497
52065,41448
52057,41419
52049,41338
52057,41257
52080,41179
52080,41179
52119,41107
52170,41044
52233,40993
52305,40954
52305,40954
52383,40931
52413,40928
52444,40925
52484,40925
52515,40928
Z" /> 
<path style="fill:#000000; fill-opacity:1.0; 
stroke:#000000; stroke-width:0; stroke-opacity:1; 
stroke-linecap:round; stroke-linejoin:round;fill-rule:evenodd;"
d="M 60961,40690
60981,40696
61000,40706
61017,40720
61031,40736
61041,40755
61047,40776
61050,40800
61050,41175
61047,41199
61041,41220
61031,41239
61017,41255
61000,41269
60981,41279
60961,41285
60937,41288
60591,41288
60567,41285
60547,41279
60528,41269
60511,41255
60497,41239
60487,41220
60481,41199
60479,41175
60479,40800
60481,40776
60487,40755
60497,40736
60511,40720
60528,40706
60547,40696
60567,40690
60591,40687
60937,40687
60961,40690
Z" /> 
<path style="fill:#000000; fill-opacity:1.0; 
stroke:#000000; stroke-width:0; stroke-opacity:1; 
stroke-linecap:round; stroke-linejoin:round;fill-rule:evenodd;"
d="M 52877,40751
52051,40751
52051,39925
52877,39925
52877,40751
Z" /> 
<path style="fill:#000000; fill-opacity:1.0; 
stroke:#000000; stroke-width:0; stroke-opacity:1; 
stroke-linecap:round; stroke-linejoin:round;fill-rule:evenodd;"
d="M 60961,39991
60981,39997
61000,40007
61017,40021
61031,40038
61041,40057
61047,40077
61050,40101
61050,40476
61047,40500
61041,40521
61031,40540
61017,40556
61000,40570
60981,40580
60961,40587
60937,40589
60591,40589
60567,40587
60547,40580
60528,40570
60511,40556
60497,40540
60487,40521
60481,40500
60479,40476
60479,40101
60481,40077
60487,40057
60497,40038
60511,40021
60528,40007
60547,39997
60567,39991
60591,39988
60937,39988
60961,39991
Z" /> 
<path style="fill:#000000; fill-opacity:1.0; 
stroke:#000000; stroke-width:0; stroke-opacity:1; 
stroke-linecap:round; stroke-linejoin:round;fill-rule:evenodd;"
d="M 59026,39468
55502,39468
55502,38720
59026,38720
59026,39468
Z" /> 
<path style="fill:#000000; fill-opacity:1.0; 
stroke:#000000; stroke-width:0; stroke-opacity:1; 
stroke-linecap:round; stroke-linejoin:round;fill-rule:evenodd;"
d="M 58061,37690
58081,37696
58100,37706
58117,37720
58131,37736
58141,37755
58147,37776
58150,37800
58150,38175
58147,38199
58141,38220
58131,38239
58117,38255
58100,38269
58081,38279
58061,38285
58037,38288
57691,38288
57667,38285
57647,38279
57628,38269
57611,38255
57597,38239
57587,38220
57581,38199
57579,38175
57579,37800
57581,37776
57587,37755
57597,37736
57611,37720
57628,37706
57647,37696
57667,37690
57691,37687
58037,37687
58061,37690
Z" /> 
<path style="fill:#000000; fill-opacity:1.0; 
stroke:#000000; stroke-width:0; stroke-opacity:1; 
stroke-linecap:round; stroke-linejoin:round;fill-rule:evenodd;"
d="M 59049,37699
59067,37705
59085,37714
59100,37727
59113,37742
59122,37760
59128,37778
59130,37800
59130,38096
59128,38118
59122,38137
59113,38154
59100,38169
59085,38182
59067,38191
59049,38197
59027,38199
58702,38199
58680,38197
58661,38191
58643,38182
58628,38169
58616,38154
58606,38137
58600,38118
58598,38096
58598,37800
58600,37778
58606,37760
58616,37742
58628,37727
58643,37714
58661,37705
58680,37699
58702,37697
59027,37697
59049,37699
Z" /> 
<path style="fill:#000000; fill-opacity:1.0; 
stroke:#000000; stroke-width:0; stroke-opacity:1; 
stroke-linecap:round; stroke-linejoin:round;fill-rule:evenodd;"
d="M 58061,36991
58081,36997
58100,37007
58117,37021
58131,37038
58141,37057
58147,37077
58150,37101
58150,37476
58147,37500
58141,37521
58131,37540
58117,37556
58100,37570
58081,37580
58061,37587
58037,37589
57691,37589
57667,37587
57647,37580
57628,37570
57611,37556
57597,37540
57587,37521
57581,37500
57579,37476
57579,37101
57581,37077
57587,37057
57597,37038
57611,37021
57628,37007
57647,36997
57667,36991
57691,36988
58037,36988
58061,36991
Z" /> 
<path style="fill:#000000; fill-opacity:1.0; 
stroke:#000000; stroke-width:0; stroke-opacity:1; 
stroke-linecap:round; stroke-linejoin:round;fill-rule:evenodd;"
d="M 59049,37079
59067,37085
59085,37094
59100,37107
59113,37122
59122,37139
59128,37158
59130,37180
59130,37476
59128,37498
59122,37517
59113,37534
59100,37549
59085,37562
59067,37571
59049,37577
59027,37579
58702,37579
58680,37577
58661,37571
58643,37562
58628,37549
58616,37534
58606,37517
58600,37498
58598,37476
58598,37180
58600,37158
58606,37139
58616,37122
58628,37107
58643,37094
58661,37085
58680,37079
58702,37077
59027,37077
59049,37079
Z" /> 
<path style="fill:#000000; fill-opacity:1.0; 
stroke:#000000; stroke-width:0; stroke-opacity:1; 
stroke-linecap:round; stroke-linejoin:round;fill-rule:evenodd;"
d="M 52936,35341
52936,35341
52936,35341
53003,35361
53003,35361
53003,35361
53064,35394
53118,35438
53162,35492
53195,35554
53217,35625
53221,35634
53226,35642
53233,35649
53241,35654
53250,35658
53259,35660
53269,35660
53278,35658
53287,35654
53295,35649
53302,35642
53307,35634
53311,35625
53333,35554
53366,35492
53410,35438
53464,35394
53525,35361
53525,35361
53525,35361
53592,35341
53592,35341
53592,35341
53644,35336
54270,35336
54322,35341
54322,35341
54322,35341
54389,35361
54389,35361
54389,35361
54450,35394
54504,35438
54548,35492
54581,35554
54581,35554
54581,35554
54601,35621
54601,35621
54608,35690
54601,35760
54601,35760
54601,35760
54585,35815
54581,35826
54548,35888
54504,35942
54450,35986
54385,36021
54377,36026
54371,36033
54365,36041
54361,36050
54360,36059
54360,36069
54361,36078
54365,36087
54371,36095
54377,36102
54385,36107
54450,36142
54504,36186
54548,36240
54581,36302
54601,36369
54608,36438
54601,36508
54581,36574
54548,36636
54504,36690
54450,36734
54385,36769
54377,36774
54371,36781
54365,36789
54361,36798
54360,36807
54360,36817
54361,36826
54365,36835
54371,36843
54377,36850
54385,36855
54450,36890
54504,36934
54548,36988
54581,37050
54581,37050
54581,37050
54601,37114
54601,37117
54608,37186
54601,37256
54581,37322
54548,37384
54504,37438
54450,37482
54389,37515
54389,37515
54389,37515
54322,37535
54322,37535
54322,37535
54270,37540
53644,37540
53592,37535
53592,37535
53592,37535
53525,37515
53525,37515
53525,37515
53464,37482
53410,37438
53366,37384
53333,37322
53311,37251
53307,37242
53302,37234
53295,37227
53287,37222
53278,37218
53269,37216
53259,37216
53250,37218
53241,37222
53233,37227
53226,37234
53221,37242
53217,37251
53195,37322
53162,37384
53118,37438
53064,37482
53003,37515
53003,37515
53003,37515
52936,37535
52936,37535
52936,37535
52884,37540
52258,37540
52206,37535
52206,37535
52206,37535
52140,37515
52140,37515
52140,37515
52078,37482
52024,37438
51980,37384
51947,37322
51927,37256
51920,37186
51927,37117
51928,37114
51947,37050
51947,37050
51947,37050
51980,36988
52024,36934
52078,36890
52143,36855
52151,36850
52158,36843
52163,36835
52167,36826
52169,36817
52169,36807
52974,36807
52974,36817
52976,36826
52979,36835
52985,36843
52992,36850
53000,36855
53064,36890
53118,36934
53162,36988
53195,37050
53217,37121
53221,37130
53226,37138
53233,37145
53241,37150
53250,37154
53259,37156
53269,37156
53278,37154
53287,37150
53295,37145
53302,37138
53307,37130
53311,37121
53333,37050
53366,36988
53410,36934
53464,36890
53529,36855
53537,36850
53543,36843
53549,36835
53552,36826
53554,36817
53554,36807
53552,36798
53549,36789
53543,36781
53537,36774
53529,36769
53464,36734
53410,36690
53366,36636
53333,36574
53311,36503
53307,36494
53302,36486
53295,36479
53287,36474
53278,36470
53269,36468
53259,36468
53250,36470
53241,36474
53233,36479
53226,36486
53221,36494
53217,36503
53195,36574
53162,36636
53118,36690
53064,36734
53000,36769
52992,36774
52985,36781
52979,36789
52976,36798
52974,36807
52169,36807
52167,36798
52163,36789
52158,36781
52151,36774
52143,36769
52078,36734
52024,36690
51980,36636
51947,36574
51927,36508
51920,36438
51927,36369
51947,36302
51980,36240
52024,36186
52078,36142
52143,36107
52151,36102
52158,36095
52163,36087
52167,36078
52169,36069
52169,36059
52974,36059
52974,36069
52976,36078
52979,36087
52985,36095
52992,36102
53000,36107
53064,36142
53118,36186
53162,36240
53195,36302
53217,36373
53221,36382
53226,36390
53233,36397
53241,36402
53250,36406
53259,36408
53269,36408
53278,36406
53287,36402
53295,36397
53302,36390
53307,36382
53311,36373
53333,36302
53366,36240
53410,36186
53464,36142
53529,36107
53537,36102
53543,36095
53549,36087
53552,36078
53554,36069
53554,36059
53552,36050
53549,36041
53543,36033
53537,36026
53529,36021
53464,35986
53410,35942
53366,35888
53333,35826
53311,35755
53307,35746
53302,35738
53295,35731
53287,35726
53278,35722
53269,35720
53259,35720
53250,35722
53241,35726
53233,35731
53226,35738
53221,35746
53217,35755
53195,35826
53162,35888
53118,35942
53064,35986
53000,36021
52992,36026
52985,36033
52979,36041
52976,36050
52974,36059
52169,36059
52167,36050
52163,36041
52158,36033
52151,36026
52143,36021
52078,35986
52024,35942
51980,35888
51947,35826
51944,35815
51927,35760
51927,35760
51927,35760
51920,35690
51927,35621
51927,35621
51947,35554
51947,35554
51947,35554
51980,35492
52024,35438
52078,35394
52140,35361
52140,35361
52140,35361
52206,35341
52206,35341
52206,35341
52258,35336
52884,35336
52936,35341
Z" /> 
<path style="fill:#000000; fill-opacity:1.0; 
stroke:#000000; stroke-width:0; stroke-opacity:1; 
stroke-linecap:round; stroke-linejoin:round;fill-rule:evenodd;"
d="M 61136,33641
61136,33641
61136,33641
61203,33661
61203,33661
61203,33661
61264,33694
61318,33738
61362,33792
61395,33854
61417,33925
61421,33934
61426,33942
61433,33949
61441,33954
61450,33958
61459,33960
61469,33960
61478,33958
61487,33954
61495,33949
61502,33942
61507,33934
61511,33925
61533,33854
61566,33792
61610,33738
61664,33694
61725,33661
61725,33661
61725,33661
61792,33641
61792,33641
61792,33641
61844,33636
62470,33636
62522,33641
62522,33641
62522,33641
62589,33661
62589,33661
62589,33661
62650,33694
62704,33738
62748,33792
62781,33854
62801,33921
62808,33990
62801,34060
62781,34126
62748,34188
62704,34242
62650,34286
62585,34321
62577,34326
62571,34333
62565,34341
62561,34350
62560,34359
62560,34369
62561,34378
62565,34387
62571,34395
62577,34402
62585,34407
62650,34442
62704,34486
62748,34540
62781,34602
62801,34669
62808,34738
62801,34808
62781,34874
62748,34936
62704,34990
62650,35034
62585,35069
62577,35074
62571,35081
62565,35089
62561,35098
62560,35107
62560,35117
62561,35126
62565,35135
62571,35143
62577,35150
62585,35155
62650,35190
62704,35234
62748,35288
62781,35350
62781,35350
62781,35350
62795,35394
62801,35417
62808,35486
62801,35556
62801,35556
62801,35556
62782,35621
62781,35622
62748,35684
62704,35738
62650,35782
62589,35815
62589,35815
62589,35815
62522,35835
62522,35835
62522,35835
62470,35840
61844,35840
61792,35835
61792,35835
61792,35835
61725,35815
61725,35815
61725,35815
61664,35782
61610,35738
61566,35684
61533,35622
61511,35551
61507,35542
61502,35534
61495,35527
61487,35522
61478,35518
61469,35516
61459,35516
61450,35518
61441,35522
61433,35527
61426,35534
61421,35542
61417,35551
61395,35622
61362,35684
61318,35738
61264,35782
61203,35815
61203,35815
61203,35815
61136,35835
61136,35835
61136,35835
61084,35840
60458,35840
60406,35835
60406,35835
60406,35835
60340,35815
60340,35815
60340,35815
60278,35782
60224,35738
60180,35684
60147,35622
60146,35621
60127,35556
60127,35556
60127,35556
60120,35486
60127,35417
60134,35394
60147,35350
60147,35350
60147,35350
60180,35288
60224,35234
60278,35190
60343,35155
60351,35150
60358,35143
60363,35135
60367,35126
60369,35117
60369,35107
61174,35107
61174,35117
61176,35126
61179,35135
61185,35143
61192,35150
61200,35155
61264,35190
61318,35234
61362,35288
61395,35350
61417,35421
61421,35430
61426,35438
61433,35445
61441,35450
61450,35454
61459,35456
61469,35456
61478,35454
61487,35450
61495,35445
61502,35438
61507,35430
61511,35421
61533,35350
61566,35288
61610,35234
61664,35190
61729,35155
61737,35150
61743,35143
61749,35135
61752,35126
61754,35117
61754,35107
61752,35098
61749,35089
61743,35081
61737,35074
61729,35069
61664,35034
61610,34990
61566,34936
61533,34874
61511,34803
61507,34794
61502,34786
61495,34779
61487,34774
61478,34770
61469,34768
61459,34768
61450,34770
61441,34774
61433,34779
61426,34786
61421,34794
61417,34803
61395,34874
61362,34936
61318,34990
61264,35034
61200,35069
61192,35074
61185,35081
61179,35089
61176,35098
61174,35107
60369,35107
60367,35098
60363,35089
60358,35081
60351,35074
60343,35069
60278,35034
60224,34990
60180,34936
60147,34874
60127,34808
60120,34738
60127,34669
60147,34602
60180,34540
60224,34486
60278,34442
60343,34407
60351,34402
60358,34395
60363,34387
60367,34378
60369,34369
60369,34359
61174,34359
61174,34369
61176,34378
61179,34387
61185,34395
61192,34402
61200,34407
61264,34442
61318,34486
61362,34540
61395,34602
61417,34673
61421,34682
61426,34690
61433,34697
61441,34702
61450,34706
61459,34708
61469,34708
61478,34706
61487,34702
61495,34697
61502,34690
61507,34682
61511,34673
61533,34602
61566,34540
61610,34486
61664,34442
61729,34407
61737,34402
61743,34395
61749,34387
61752,34378
61754,34369
61754,34359
61752,34350
61749,34341
61743,34333
61737,34326
61729,34321
61664,34286
61610,34242
61566,34188
61533,34126
61511,34055
61507,34046
61502,34038
61495,34031
61487,34026
61478,34022
61469,34020
61459,34020
61450,34022
61441,34026
61433,34031
61426,34038
61421,34046
61417,34055
61395,34126
61362,34188
61318,34242
61264,34286
61200,34321
61192,34326
61185,34333
61179,34341
61176,34350
61174,34359
60369,34359
60367,34350
60363,34341
60358,34333
60351,34326
60343,34321
60278,34286
60224,34242
60180,34188
60147,34126
60127,34060
60120,33990
60127,33921
60147,33854
60180,33792
60224,33738
60278,33694
60340,33661
60340,33661
60340,33661
60406,33641
60406,33641
60406,33641
60458,33636
61084,33636
61136,33641
Z" /> 
</g> 
</svg>
