  0
SECTION
  2
HEADER
  9
$ANGBASE
  50
0.0
  9
$ANGDIR
  70
  1
  9
$MEASUREMENT
  70
0
  0
ENDSEC
  0
SECTION
  2
TABLES
  0
TABLE
  2
LTYPE
  70
4
  0
LTYPE
  5
40F
  2
CONTINUOUS
  70
0
  3
Solid line
  72
65
  73
0
  40
0.0
  0
LTYPE
  5
410
  2
DASHDOT
 70
0
  3
Dash Dot ____ _ ____ _
 72
65
 73
4
 40
2.0
 49
1.25
 49
-0.25
 49
0.25
 49
-0.25
  0
LTYPE
  5
411
  2
DASHED
 70
0
  3
Dashed __ __ __ __ __
 72
65
 73
2
 40
0.75
 49
0.5
 49
-0.25
  0
LTYPE
  5
43B
  2
DOTTED
 70
0
  3
Dotted .  .  .  .
 72
65
 73
2
 40
0.2
 49
0.0
 49
-0.2
  0
ENDTAB
  0
TABLE
  2
STYLE
  70
4
  0
STYLE
  2
KICAD
  70
0
  40
0
  41
1
  42
1
  50
0
  71
0
  3
isocp.shx
  0
STYLE
  2
KICADB
  70
0
  40
0
  41
1
  42
1
  50
0
  71
0
  3
isocp.shx
  0
STYLE
  2
KICADI
  70
0
  40
0
  41
1
  42
1
  50
15
  71
0
  3
isocp.shx
  0
STYLE
  2
KICADBI
  70
0
  40
0
  41
1
  42
1
  50
15
  71
0
  3
isocp.shx
  0
ENDTAB
  0
TABLE
  2
LAYER
  70
30
  0
LAYER
  2
BLACK
  70
0
  62
7
  6
CONTINUOUS
  0
LAYER
  2
GRAY1
  70
0
  62
251
  6
CONTINUOUS
  0
LAYER
  2
GRAY2
  70
0
  62
8
  6
CONTINUOUS
  0
LAYER
  2
GRAY3
  70
0
  62
9
  6
CONTINUOUS
  0
LAYER
  2
WHITE
  70
0
  62
7
  6
CONTINUOUS
  0
LAYER
  2
LYELLOW
  70
0
  62
51
  6
CONTINUOUS
  0
LAYER
  2
BLUE1
  70
0
  62
178
  6
CONTINUOUS
  0
LAYER
  2
GREEN1
  70
0
  62
98
  6
CONTINUOUS
  0
LAYER
  2
CYAN1
  70
0
  62
138
  6
CONTINUOUS
  0
LAYER
  2
RED1
  70
0
  62
18
  6
CONTINUOUS
  0
LAYER
  2
MAGENTA1
  70
0
  62
228
  6
CONTINUOUS
  0
LAYER
  2
BROWN1
  70
0
  62
58
  6
CONTINUOUS
  0
LAYER
  2
BLUE2
  70
0
  62
5
  6
CONTINUOUS
  0
LAYER
  2
GREEN2
  70
0
  62
3
  6
CONTINUOUS
  0
LAYER
  2
CYAN2
  70
0
  62
4
  6
CONTINUOUS
  0
LAYER
  2
RED2
  70
0
  62
1
  6
CONTINUOUS
  0
LAYER
  2
MAGENTA2
  70
0
  62
6
  6
CONTINUOUS
  0
LAYER
  2
BROWN2
  70
0
  62
54
  6
CONTINUOUS
  0
LAYER
  2
BLUE3
  70
0
  62
171
  6
CONTINUOUS
  0
LAYER
  2
GREEN3
  70
0
  62
91
  6
CONTINUOUS
  0
LAYER
  2
CYAN3
  70
0
  62
131
  6
CONTINUOUS
  0
LAYER
  2
RED3
  70
0
  62
11
  6
CONTINUOUS
  0
LAYER
  2
MAGENTA3
  70
0
  62
221
  6
CONTINUOUS
  0
LAYER
  2
YELLOW3
  70
0
  62
2
  6
CONTINUOUS
  0
LAYER
  2
BLUE4
  70
0
  62
5
  6
CONTINUOUS
  0
LAYER
  2
GREEN4
  70
0
  62
3
  6
CONTINUOUS
  0
LAYER
  2
CYAN4
  70
0
  62
4
  6
CONTINUOUS
  0
LAYER
  2
RED4
  70
0
  62
1
  6
CONTINUOUS
  0
LAYER
  2
MAGENTA4
  70
0
  62
6
  6
CONTINUOUS
  0
LAYER
  2
YELLOW4
  70
0
  62
2
  6
CONTINUOUS
  0
ENDTAB
  0
ENDSEC
  0
SECTION
  2
ENTITIES
0
LINE
8
BLACK
6
CONTINUOUS
10
143.707
20
-127.062
11
143.858
21
-127.107
0
LINE
8
BLACK
6
CONTINUOUS
10
143.858
20
-127.107
11
143.858
21
-127.107
0
LINE
8
BLACK
6
CONTINUOUS
10
143.858
20
-127.107
11
143.997
21
-127.182
0
LINE
8
BLACK
6
CONTINUOUS
10
143.997
20
-127.182
11
143.997
21
-127.182
0
LINE
8
BLACK
6
CONTINUOUS
10
143.997
20
-127.182
11
143.997
21
-127.182
0
LINE
8
BLACK
6
CONTINUOUS
10
143.997
20
-127.182
11
144.118
21
-127.282
0
LINE
8
BLACK
6
CONTINUOUS
10
144.118
20
-127.282
11
144.2
21
-127.382
0
LINE
8
BLACK
6
CONTINUOUS
10
144.2
20
-127.382
11
144.218
21
-127.403
0
LINE
8
BLACK
6
CONTINUOUS
10
144.218
20
-127.403
11
144.293
21
-127.542
0
LINE
8
BLACK
6
CONTINUOUS
10
144.293
20
-127.542
11
144.293
21
-127.542
0
LINE
8
BLACK
6
CONTINUOUS
10
144.293
20
-127.542
11
144.338
21
-127.693
0
LINE
8
BLACK
6
CONTINUOUS
10
144.338
20
-127.693
11
144.35
21
-127.811
0
LINE
8
BLACK
6
CONTINUOUS
10
144.35
20
-127.811
11
144.35
21
-129.089
0
LINE
8
BLACK
6
CONTINUOUS
10
144.35
20
-129.089
11
144.338
21
-129.207
0
LINE
8
BLACK
6
CONTINUOUS
10
144.338
20
-129.207
11
144.293
21
-129.358
0
LINE
8
BLACK
6
CONTINUOUS
10
144.293
20
-129.358
11
144.293
21
-129.358
0
LINE
8
BLACK
6
CONTINUOUS
10
144.293
20
-129.358
11
144.218
21
-129.497
0
LINE
8
BLACK
6
CONTINUOUS
10
144.218
20
-129.497
11
144.118
21
-129.618
0
LINE
8
BLACK
6
CONTINUOUS
10
144.118
20
-129.618
11
143.997
21
-129.718
0
LINE
8
BLACK
6
CONTINUOUS
10
143.997
20
-129.718
11
143.858
21
-129.793
0
LINE
8
BLACK
6
CONTINUOUS
10
143.858
20
-129.793
11
143.858
21
-129.793
0
LINE
8
BLACK
6
CONTINUOUS
10
143.858
20
-129.793
11
143.707
21
-129.838
0
LINE
8
BLACK
6
CONTINUOUS
10
143.707
20
-129.838
11
143.55
21
-129.854
0
LINE
8
BLACK
6
CONTINUOUS
10
143.55
20
-129.854
11
143.393
21
-129.838
0
LINE
8
BLACK
6
CONTINUOUS
10
143.393
20
-129.838
11
143.242
21
-129.793
0
LINE
8
BLACK
6
CONTINUOUS
10
143.242
20
-129.793
11
143.242
21
-129.793
0
LINE
8
BLACK
6
CONTINUOUS
10
143.242
20
-129.793
11
143.103
21
-129.718
0
LINE
8
BLACK
6
CONTINUOUS
10
143.103
20
-129.718
11
142.982
21
-129.618
0
LINE
8
BLACK
6
CONTINUOUS
10
142.982
20
-129.618
11
142.882
21
-129.497
0
LINE
8
BLACK
6
CONTINUOUS
10
142.882
20
-129.497
11
142.807
21
-129.358
0
LINE
8
BLACK
6
CONTINUOUS
10
142.807
20
-129.358
11
142.807
21
-129.358
0
LINE
8
BLACK
6
CONTINUOUS
10
142.807
20
-129.358
11
142.762
21
-129.207
0
LINE
8
BLACK
6
CONTINUOUS
10
142.762
20
-129.207
11
142.75
21
-129.089
0
LINE
8
BLACK
6
CONTINUOUS
10
142.75
20
-129.089
11
142.75
21
-127.811
0
LINE
8
BLACK
6
CONTINUOUS
10
142.75
20
-127.811
11
142.762
21
-127.693
0
LINE
8
BLACK
6
CONTINUOUS
10
142.762
20
-127.693
11
142.807
21
-127.542
0
LINE
8
BLACK
6
CONTINUOUS
10
142.807
20
-127.542
11
142.882
21
-127.403
0
LINE
8
BLACK
6
CONTINUOUS
10
142.882
20
-127.403
11
142.982
21
-127.282
0
LINE
8
BLACK
6
CONTINUOUS
10
142.982
20
-127.282
11
143.103
21
-127.182
0
LINE
8
BLACK
6
CONTINUOUS
10
143.103
20
-127.182
11
143.103
21
-127.182
0
LINE
8
BLACK
6
CONTINUOUS
10
143.103
20
-127.182
11
143.103
21
-127.182
0
LINE
8
BLACK
6
CONTINUOUS
10
143.103
20
-127.182
11
143.242
21
-127.107
0
LINE
8
BLACK
6
CONTINUOUS
10
143.242
20
-127.107
11
143.242
21
-127.107
0
LINE
8
BLACK
6
CONTINUOUS
10
143.242
20
-127.107
11
143.393
21
-127.062
0
LINE
8
BLACK
6
CONTINUOUS
10
143.393
20
-127.062
11
143.55
21
-127.046
0
LINE
8
BLACK
6
CONTINUOUS
10
143.55
20
-127.046
11
143.707
21
-127.062
0
LINE
8
BLACK
6
CONTINUOUS
10
153.607
20
-127.062
11
153.758
21
-127.107
0
LINE
8
BLACK
6
CONTINUOUS
10
153.758
20
-127.107
11
153.758
21
-127.107
0
LINE
8
BLACK
6
CONTINUOUS
10
153.758
20
-127.107
11
153.897
21
-127.182
0
LINE
8
BLACK
6
CONTINUOUS
10
153.897
20
-127.182
11
153.897
21
-127.182
0
LINE
8
BLACK
6
CONTINUOUS
10
153.897
20
-127.182
11
153.897
21
-127.182
0
LINE
8
BLACK
6
CONTINUOUS
10
153.897
20
-127.182
11
154.018
21
-127.282
0
LINE
8
BLACK
6
CONTINUOUS
10
154.018
20
-127.282
11
154.1
21
-127.382
0
LINE
8
BLACK
6
CONTINUOUS
10
154.1
20
-127.382
11
154.118
21
-127.403
0
LINE
8
BLACK
6
CONTINUOUS
10
154.118
20
-127.403
11
154.193
21
-127.542
0
LINE
8
BLACK
6
CONTINUOUS
10
154.193
20
-127.542
11
154.193
21
-127.542
0
LINE
8
BLACK
6
CONTINUOUS
10
154.193
20
-127.542
11
154.238
21
-127.693
0
LINE
8
BLACK
6
CONTINUOUS
10
154.238
20
-127.693
11
154.25
21
-127.811
0
LINE
8
BLACK
6
CONTINUOUS
10
154.25
20
-127.811
11
154.25
21
-129.089
0
LINE
8
BLACK
6
CONTINUOUS
10
154.25
20
-129.089
11
154.238
21
-129.207
0
LINE
8
BLACK
6
CONTINUOUS
10
154.238
20
-129.207
11
154.193
21
-129.358
0
LINE
8
BLACK
6
CONTINUOUS
10
154.193
20
-129.358
11
154.193
21
-129.358
0
LINE
8
BLACK
6
CONTINUOUS
10
154.193
20
-129.358
11
154.118
21
-129.497
0
LINE
8
BLACK
6
CONTINUOUS
10
154.118
20
-129.497
11
154.018
21
-129.618
0
LINE
8
BLACK
6
CONTINUOUS
10
154.018
20
-129.618
11
153.897
21
-129.718
0
LINE
8
BLACK
6
CONTINUOUS
10
153.897
20
-129.718
11
153.758
21
-129.793
0
LINE
8
BLACK
6
CONTINUOUS
10
153.758
20
-129.793
11
153.758
21
-129.793
0
LINE
8
BLACK
6
CONTINUOUS
10
153.758
20
-129.793
11
153.607
21
-129.838
0
LINE
8
BLACK
6
CONTINUOUS
10
153.607
20
-129.838
11
153.45
21
-129.854
0
LINE
8
BLACK
6
CONTINUOUS
10
153.45
20
-129.854
11
153.293
21
-129.838
0
LINE
8
BLACK
6
CONTINUOUS
10
153.293
20
-129.838
11
153.142
21
-129.793
0
LINE
8
BLACK
6
CONTINUOUS
10
153.142
20
-129.793
11
153.142
21
-129.793
0
LINE
8
BLACK
6
CONTINUOUS
10
153.142
20
-129.793
11
153.003
21
-129.718
0
LINE
8
BLACK
6
CONTINUOUS
10
153.003
20
-129.718
11
152.882
21
-129.618
0
LINE
8
BLACK
6
CONTINUOUS
10
152.882
20
-129.618
11
152.782
21
-129.497
0
LINE
8
BLACK
6
CONTINUOUS
10
152.782
20
-129.497
11
152.707
21
-129.358
0
LINE
8
BLACK
6
CONTINUOUS
10
152.707
20
-129.358
11
152.707
21
-129.358
0
LINE
8
BLACK
6
CONTINUOUS
10
152.707
20
-129.358
11
152.662
21
-129.207
0
LINE
8
BLACK
6
CONTINUOUS
10
152.662
20
-129.207
11
152.65
21
-129.089
0
LINE
8
BLACK
6
CONTINUOUS
10
152.65
20
-129.089
11
152.65
21
-127.811
0
LINE
8
BLACK
6
CONTINUOUS
10
152.65
20
-127.811
11
152.662
21
-127.693
0
LINE
8
BLACK
6
CONTINUOUS
10
152.662
20
-127.693
11
152.707
21
-127.542
0
LINE
8
BLACK
6
CONTINUOUS
10
152.707
20
-127.542
11
152.782
21
-127.403
0
LINE
8
BLACK
6
CONTINUOUS
10
152.782
20
-127.403
11
152.882
21
-127.282
0
LINE
8
BLACK
6
CONTINUOUS
10
152.882
20
-127.282
11
153.003
21
-127.182
0
LINE
8
BLACK
6
CONTINUOUS
10
153.003
20
-127.182
11
153.003
21
-127.182
0
LINE
8
BLACK
6
CONTINUOUS
10
153.003
20
-127.182
11
153.003
21
-127.182
0
LINE
8
BLACK
6
CONTINUOUS
10
153.003
20
-127.182
11
153.142
21
-127.107
0
LINE
8
BLACK
6
CONTINUOUS
10
153.142
20
-127.107
11
153.142
21
-127.107
0
LINE
8
BLACK
6
CONTINUOUS
10
153.142
20
-127.107
11
153.293
21
-127.062
0
LINE
8
BLACK
6
CONTINUOUS
10
153.293
20
-127.062
11
153.45
21
-127.046
0
LINE
8
BLACK
6
CONTINUOUS
10
153.45
20
-127.046
11
153.607
21
-127.062
0
LINE
8
BLACK
6
CONTINUOUS
10
153.607
20
-123.212
11
153.758
21
-123.257
0
LINE
8
BLACK
6
CONTINUOUS
10
153.758
20
-123.257
11
153.758
21
-123.257
0
LINE
8
BLACK
6
CONTINUOUS
10
153.758
20
-123.257
11
153.897
21
-123.332
0
LINE
8
BLACK
6
CONTINUOUS
10
153.897
20
-123.332
11
153.897
21
-123.332
0
LINE
8
BLACK
6
CONTINUOUS
10
153.897
20
-123.332
11
153.897
21
-123.332
0
LINE
8
BLACK
6
CONTINUOUS
10
153.897
20
-123.332
11
154.018
21
-123.432
0
LINE
8
BLACK
6
CONTINUOUS
10
154.018
20
-123.432
11
154.1
21
-123.532
0
LINE
8
BLACK
6
CONTINUOUS
10
154.1
20
-123.532
11
154.118
21
-123.553
0
LINE
8
BLACK
6
CONTINUOUS
10
154.118
20
-123.553
11
154.193
21
-123.692
0
LINE
8
BLACK
6
CONTINUOUS
10
154.193
20
-123.692
11
154.193
21
-123.692
0
LINE
8
BLACK
6
CONTINUOUS
10
154.193
20
-123.692
11
154.238
21
-123.843
0
LINE
8
BLACK
6
CONTINUOUS
10
154.238
20
-123.843
11
154.25
21
-123.961
0
LINE
8
BLACK
6
CONTINUOUS
10
154.25
20
-123.961
11
154.25
21
-124.939
0
LINE
8
BLACK
6
CONTINUOUS
10
154.25
20
-124.939
11
154.238
21
-125.057
0
LINE
8
BLACK
6
CONTINUOUS
10
154.238
20
-125.057
11
154.193
21
-125.208
0
LINE
8
BLACK
6
CONTINUOUS
10
154.193
20
-125.208
11
154.193
21
-125.208
0
LINE
8
BLACK
6
CONTINUOUS
10
154.193
20
-125.208
11
154.118
21
-125.347
0
LINE
8
BLACK
6
CONTINUOUS
10
154.118
20
-125.347
11
154.018
21
-125.468
0
LINE
8
BLACK
6
CONTINUOUS
10
154.018
20
-125.468
11
153.897
21
-125.568
0
LINE
8
BLACK
6
CONTINUOUS
10
153.897
20
-125.568
11
153.758
21
-125.643
0
LINE
8
BLACK
6
CONTINUOUS
10
153.758
20
-125.643
11
153.758
21
-125.643
0
LINE
8
BLACK
6
CONTINUOUS
10
153.758
20
-125.643
11
153.607
21
-125.688
0
LINE
8
BLACK
6
CONTINUOUS
10
153.607
20
-125.688
11
153.45
21
-125.704
0
LINE
8
BLACK
6
CONTINUOUS
10
153.45
20
-125.704
11
153.293
21
-125.688
0
LINE
8
BLACK
6
CONTINUOUS
10
153.293
20
-125.688
11
153.142
21
-125.643
0
LINE
8
BLACK
6
CONTINUOUS
10
153.142
20
-125.643
11
153.142
21
-125.643
0
LINE
8
BLACK
6
CONTINUOUS
10
153.142
20
-125.643
11
153.003
21
-125.568
0
LINE
8
BLACK
6
CONTINUOUS
10
153.003
20
-125.568
11
152.882
21
-125.468
0
LINE
8
BLACK
6
CONTINUOUS
10
152.882
20
-125.468
11
152.782
21
-125.347
0
LINE
8
BLACK
6
CONTINUOUS
10
152.782
20
-125.347
11
152.707
21
-125.208
0
LINE
8
BLACK
6
CONTINUOUS
10
152.707
20
-125.208
11
152.707
21
-125.208
0
LINE
8
BLACK
6
CONTINUOUS
10
152.707
20
-125.208
11
152.662
21
-125.057
0
LINE
8
BLACK
6
CONTINUOUS
10
152.662
20
-125.057
11
152.65
21
-124.939
0
LINE
8
BLACK
6
CONTINUOUS
10
152.65
20
-124.939
11
152.65
21
-123.961
0
LINE
8
BLACK
6
CONTINUOUS
10
152.65
20
-123.961
11
152.662
21
-123.843
0
LINE
8
BLACK
6
CONTINUOUS
10
152.662
20
-123.843
11
152.707
21
-123.692
0
LINE
8
BLACK
6
CONTINUOUS
10
152.707
20
-123.692
11
152.782
21
-123.553
0
LINE
8
BLACK
6
CONTINUOUS
10
152.782
20
-123.553
11
152.882
21
-123.432
0
LINE
8
BLACK
6
CONTINUOUS
10
152.882
20
-123.432
11
153.003
21
-123.332
0
LINE
8
BLACK
6
CONTINUOUS
10
153.003
20
-123.332
11
153.003
21
-123.332
0
LINE
8
BLACK
6
CONTINUOUS
10
153.003
20
-123.332
11
153.003
21
-123.332
0
LINE
8
BLACK
6
CONTINUOUS
10
153.003
20
-123.332
11
153.142
21
-123.257
0
LINE
8
BLACK
6
CONTINUOUS
10
153.142
20
-123.257
11
153.142
21
-123.257
0
LINE
8
BLACK
6
CONTINUOUS
10
153.142
20
-123.257
11
153.293
21
-123.212
0
LINE
8
BLACK
6
CONTINUOUS
10
153.293
20
-123.212
11
153.45
21
-123.196
0
LINE
8
BLACK
6
CONTINUOUS
10
153.45
20
-123.196
11
153.607
21
-123.212
0
LINE
8
BLACK
6
CONTINUOUS
10
143.707
20
-123.212
11
143.858
21
-123.257
0
LINE
8
BLACK
6
CONTINUOUS
10
143.858
20
-123.257
11
143.858
21
-123.257
0
LINE
8
BLACK
6
CONTINUOUS
10
143.858
20
-123.257
11
143.997
21
-123.332
0
LINE
8
BLACK
6
CONTINUOUS
10
143.997
20
-123.332
11
143.997
21
-123.332
0
LINE
8
BLACK
6
CONTINUOUS
10
143.997
20
-123.332
11
143.997
21
-123.332
0
LINE
8
BLACK
6
CONTINUOUS
10
143.997
20
-123.332
11
144.118
21
-123.432
0
LINE
8
BLACK
6
CONTINUOUS
10
144.118
20
-123.432
11
144.2
21
-123.532
0
LINE
8
BLACK
6
CONTINUOUS
10
144.2
20
-123.532
11
144.218
21
-123.553
0
LINE
8
BLACK
6
CONTINUOUS
10
144.218
20
-123.553
11
144.293
21
-123.692
0
LINE
8
BLACK
6
CONTINUOUS
10
144.293
20
-123.692
11
144.293
21
-123.692
0
LINE
8
BLACK
6
CONTINUOUS
10
144.293
20
-123.692
11
144.338
21
-123.843
0
LINE
8
BLACK
6
CONTINUOUS
10
144.338
20
-123.843
11
144.35
21
-123.961
0
LINE
8
BLACK
6
CONTINUOUS
10
144.35
20
-123.961
11
144.35
21
-124.939
0
LINE
8
BLACK
6
CONTINUOUS
10
144.35
20
-124.939
11
144.338
21
-125.057
0
LINE
8
BLACK
6
CONTINUOUS
10
144.338
20
-125.057
11
144.293
21
-125.208
0
LINE
8
BLACK
6
CONTINUOUS
10
144.293
20
-125.208
11
144.293
21
-125.208
0
LINE
8
BLACK
6
CONTINUOUS
10
144.293
20
-125.208
11
144.218
21
-125.347
0
LINE
8
BLACK
6
CONTINUOUS
10
144.218
20
-125.347
11
144.118
21
-125.468
0
LINE
8
BLACK
6
CONTINUOUS
10
144.118
20
-125.468
11
143.997
21
-125.568
0
LINE
8
BLACK
6
CONTINUOUS
10
143.997
20
-125.568
11
143.858
21
-125.643
0
LINE
8
BLACK
6
CONTINUOUS
10
143.858
20
-125.643
11
143.858
21
-125.643
0
LINE
8
BLACK
6
CONTINUOUS
10
143.858
20
-125.643
11
143.707
21
-125.688
0
LINE
8
BLACK
6
CONTINUOUS
10
143.707
20
-125.688
11
143.55
21
-125.704
0
LINE
8
BLACK
6
CONTINUOUS
10
143.55
20
-125.704
11
143.393
21
-125.688
0
LINE
8
BLACK
6
CONTINUOUS
10
143.393
20
-125.688
11
143.242
21
-125.643
0
LINE
8
BLACK
6
CONTINUOUS
10
143.242
20
-125.643
11
143.242
21
-125.643
0
LINE
8
BLACK
6
CONTINUOUS
10
143.242
20
-125.643
11
143.103
21
-125.568
0
LINE
8
BLACK
6
CONTINUOUS
10
143.103
20
-125.568
11
142.982
21
-125.468
0
LINE
8
BLACK
6
CONTINUOUS
10
142.982
20
-125.468
11
142.882
21
-125.347
0
LINE
8
BLACK
6
CONTINUOUS
10
142.882
20
-125.347
11
142.807
21
-125.208
0
LINE
8
BLACK
6
CONTINUOUS
10
142.807
20
-125.208
11
142.807
21
-125.208
0
LINE
8
BLACK
6
CONTINUOUS
10
142.807
20
-125.208
11
142.762
21
-125.057
0
LINE
8
BLACK
6
CONTINUOUS
10
142.762
20
-125.057
11
142.75
21
-124.939
0
LINE
8
BLACK
6
CONTINUOUS
10
142.75
20
-124.939
11
142.75
21
-123.961
0
LINE
8
BLACK
6
CONTINUOUS
10
142.75
20
-123.961
11
142.762
21
-123.843
0
LINE
8
BLACK
6
CONTINUOUS
10
142.762
20
-123.843
11
142.807
21
-123.692
0
LINE
8
BLACK
6
CONTINUOUS
10
142.807
20
-123.692
11
142.882
21
-123.553
0
LINE
8
BLACK
6
CONTINUOUS
10
142.882
20
-123.553
11
142.982
21
-123.432
0
LINE
8
BLACK
6
CONTINUOUS
10
142.982
20
-123.432
11
143.103
21
-123.332
0
LINE
8
BLACK
6
CONTINUOUS
10
143.103
20
-123.332
11
143.103
21
-123.332
0
LINE
8
BLACK
6
CONTINUOUS
10
143.103
20
-123.332
11
143.103
21
-123.332
0
LINE
8
BLACK
6
CONTINUOUS
10
143.103
20
-123.332
11
143.242
21
-123.257
0
LINE
8
BLACK
6
CONTINUOUS
10
143.242
20
-123.257
11
143.242
21
-123.257
0
LINE
8
BLACK
6
CONTINUOUS
10
143.242
20
-123.257
11
143.393
21
-123.212
0
LINE
8
BLACK
6
CONTINUOUS
10
143.393
20
-123.212
11
143.55
21
-123.196
0
LINE
8
BLACK
6
CONTINUOUS
10
143.55
20
-123.196
11
143.707
21
-123.212
0
LINE
8
BLACK
6
CONTINUOUS
10
150.225
20
-123.58
11
146.775
21
-123.58
0
LINE
8
BLACK
6
CONTINUOUS
10
146.775
20
-123.58
11
146.775
21
-122.08
0
LINE
8
BLACK
6
CONTINUOUS
10
146.775
20
-122.08
11
150.225
21
-122.08
0
LINE
8
BLACK
6
CONTINUOUS
10
150.225
20
-122.08
11
150.225
21
-123.58
0
LINE
8
BLACK
6
CONTINUOUS
10
159.574
20
-120.206
11
159.622
21
-120.22
0
LINE
8
BLACK
6
CONTINUOUS
10
159.622
20
-120.22
11
159.666
21
-120.244
0
LINE
8
BLACK
6
CONTINUOUS
10
159.666
20
-120.244
11
159.705
21
-120.275
0
LINE
8
BLACK
6
CONTINUOUS
10
159.705
20
-120.275
11
159.736
21
-120.314
0
LINE
8
BLACK
6
CONTINUOUS
10
159.736
20
-120.314
11
159.76
21
-120.358
0
LINE
8
BLACK
6
CONTINUOUS
10
159.76
20
-120.358
11
159.774
21
-120.406
0
LINE
8
BLACK
6
CONTINUOUS
10
159.774
20
-120.406
11
159.78
21
-120.462
0
LINE
8
BLACK
6
CONTINUOUS
10
159.78
20
-120.462
11
159.78
21
-121.288
0
LINE
8
BLACK
6
CONTINUOUS
10
159.78
20
-121.288
11
159.774
21
-121.344
0
LINE
8
BLACK
6
CONTINUOUS
10
159.774
20
-121.344
11
159.76
21
-121.392
0
LINE
8
BLACK
6
CONTINUOUS
10
159.76
20
-121.392
11
159.736
21
-121.436
0
LINE
8
BLACK
6
CONTINUOUS
10
159.736
20
-121.436
11
159.705
21
-121.475
0
LINE
8
BLACK
6
CONTINUOUS
10
159.705
20
-121.475
11
159.666
21
-121.506
0
LINE
8
BLACK
6
CONTINUOUS
10
159.666
20
-121.506
11
159.622
21
-121.53
0
LINE
8
BLACK
6
CONTINUOUS
10
159.622
20
-121.53
11
159.574
21
-121.544
0
LINE
8
BLACK
6
CONTINUOUS
10
159.574
20
-121.544
11
159.518
21
-121.55
0
LINE
8
BLACK
6
CONTINUOUS
10
159.518
20
-121.55
11
158.767
21
-121.55
0
LINE
8
BLACK
6
CONTINUOUS
10
158.767
20
-121.55
11
158.711
21
-121.544
0
LINE
8
BLACK
6
CONTINUOUS
10
158.711
20
-121.544
11
158.663
21
-121.53
0
LINE
8
BLACK
6
CONTINUOUS
10
158.663
20
-121.53
11
158.619
21
-121.506
0
LINE
8
BLACK
6
CONTINUOUS
10
158.619
20
-121.506
11
158.58
21
-121.475
0
LINE
8
BLACK
6
CONTINUOUS
10
158.58
20
-121.475
11
158.549
21
-121.436
0
LINE
8
BLACK
6
CONTINUOUS
10
158.549
20
-121.436
11
158.525
21
-121.392
0
LINE
8
BLACK
6
CONTINUOUS
10
158.525
20
-121.392
11
158.511
21
-121.344
0
LINE
8
BLACK
6
CONTINUOUS
10
158.511
20
-121.344
11
158.505
21
-121.288
0
LINE
8
BLACK
6
CONTINUOUS
10
158.505
20
-121.288
11
158.505
21
-120.462
0
LINE
8
BLACK
6
CONTINUOUS
10
158.505
20
-120.462
11
158.511
21
-120.406
0
LINE
8
BLACK
6
CONTINUOUS
10
158.511
20
-120.406
11
158.525
21
-120.358
0
LINE
8
BLACK
6
CONTINUOUS
10
158.525
20
-120.358
11
158.549
21
-120.314
0
LINE
8
BLACK
6
CONTINUOUS
10
158.549
20
-120.314
11
158.58
21
-120.275
0
LINE
8
BLACK
6
CONTINUOUS
10
158.58
20
-120.275
11
158.619
21
-120.244
0
LINE
8
BLACK
6
CONTINUOUS
10
158.619
20
-120.244
11
158.663
21
-120.22
0
LINE
8
BLACK
6
CONTINUOUS
10
158.663
20
-120.22
11
158.711
21
-120.206
0
LINE
8
BLACK
6
CONTINUOUS
10
158.711
20
-120.206
11
158.767
21
-120.2
0
LINE
8
BLACK
6
CONTINUOUS
10
158.767
20
-120.2
11
159.518
21
-120.2
0
LINE
8
BLACK
6
CONTINUOUS
10
159.518
20
-120.2
11
159.574
21
-120.206
0
LINE
8
BLACK
6
CONTINUOUS
10
161.149
20
-120.206
11
161.197
21
-120.22
0
LINE
8
BLACK
6
CONTINUOUS
10
161.197
20
-120.22
11
161.241
21
-120.244
0
LINE
8
BLACK
6
CONTINUOUS
10
161.241
20
-120.244
11
161.28
21
-120.275
0
LINE
8
BLACK
6
CONTINUOUS
10
161.28
20
-120.275
11
161.311
21
-120.314
0
LINE
8
BLACK
6
CONTINUOUS
10
161.311
20
-120.314
11
161.335
21
-120.358
0
LINE
8
BLACK
6
CONTINUOUS
10
161.335
20
-120.358
11
161.349
21
-120.406
0
LINE
8
BLACK
6
CONTINUOUS
10
161.349
20
-120.406
11
161.355
21
-120.462
0
LINE
8
BLACK
6
CONTINUOUS
10
161.355
20
-120.462
11
161.355
21
-121.288
0
LINE
8
BLACK
6
CONTINUOUS
10
161.355
20
-121.288
11
161.349
21
-121.344
0
LINE
8
BLACK
6
CONTINUOUS
10
161.349
20
-121.344
11
161.335
21
-121.392
0
LINE
8
BLACK
6
CONTINUOUS
10
161.335
20
-121.392
11
161.311
21
-121.436
0
LINE
8
BLACK
6
CONTINUOUS
10
161.311
20
-121.436
11
161.28
21
-121.475
0
LINE
8
BLACK
6
CONTINUOUS
10
161.28
20
-121.475
11
161.241
21
-121.506
0
LINE
8
BLACK
6
CONTINUOUS
10
161.241
20
-121.506
11
161.197
21
-121.53
0
LINE
8
BLACK
6
CONTINUOUS
10
161.197
20
-121.53
11
161.149
21
-121.544
0
LINE
8
BLACK
6
CONTINUOUS
10
161.149
20
-121.544
11
161.093
21
-121.55
0
LINE
8
BLACK
6
CONTINUOUS
10
161.093
20
-121.55
11
160.342
21
-121.55
0
LINE
8
BLACK
6
CONTINUOUS
10
160.342
20
-121.55
11
160.286
21
-121.544
0
LINE
8
BLACK
6
CONTINUOUS
10
160.286
20
-121.544
11
160.238
21
-121.53
0
LINE
8
BLACK
6
CONTINUOUS
10
160.238
20
-121.53
11
160.194
21
-121.506
0
LINE
8
BLACK
6
CONTINUOUS
10
160.194
20
-121.506
11
160.155
21
-121.475
0
LINE
8
BLACK
6
CONTINUOUS
10
160.155
20
-121.475
11
160.124
21
-121.436
0
LINE
8
BLACK
6
CONTINUOUS
10
160.124
20
-121.436
11
160.1
21
-121.392
0
LINE
8
BLACK
6
CONTINUOUS
10
160.1
20
-121.392
11
160.086
21
-121.344
0
LINE
8
BLACK
6
CONTINUOUS
10
160.086
20
-121.344
11
160.08
21
-121.288
0
LINE
8
BLACK
6
CONTINUOUS
10
160.08
20
-121.288
11
160.08
21
-120.462
0
LINE
8
BLACK
6
CONTINUOUS
10
160.08
20
-120.462
11
160.086
21
-120.406
0
LINE
8
BLACK
6
CONTINUOUS
10
160.086
20
-120.406
11
160.1
21
-120.358
0
LINE
8
BLACK
6
CONTINUOUS
10
160.1
20
-120.358
11
160.124
21
-120.314
0
LINE
8
BLACK
6
CONTINUOUS
10
160.124
20
-120.314
11
160.155
21
-120.275
0
LINE
8
BLACK
6
CONTINUOUS
10
160.155
20
-120.275
11
160.194
21
-120.244
0
LINE
8
BLACK
6
CONTINUOUS
10
160.194
20
-120.244
11
160.238
21
-120.22
0
LINE
8
BLACK
6
CONTINUOUS
10
160.238
20
-120.22
11
160.286
21
-120.206
0
LINE
8
BLACK
6
CONTINUOUS
10
160.286
20
-120.206
11
160.342
21
-120.2
0
LINE
8
BLACK
6
CONTINUOUS
10
160.342
20
-120.2
11
161.093
21
-120.2
0
LINE
8
BLACK
6
CONTINUOUS
10
161.093
20
-120.2
11
161.149
21
-120.206
0
LINE
8
BLACK
6
CONTINUOUS
10
144.827
20
-121.387
11
140.997
21
-121.387
0
LINE
8
BLACK
6
CONTINUOUS
10
140.997
20
-121.387
11
140.997
21
-120.137
0
LINE
8
BLACK
6
CONTINUOUS
10
140.997
20
-120.137
11
144.827
21
-120.137
0
LINE
8
BLACK
6
CONTINUOUS
10
144.827
20
-120.137
11
144.827
21
-121.387
0
LINE
8
BLACK
6
CONTINUOUS
10
138.84
20
-119.609
11
138.892
21
-119.625
0
LINE
8
BLACK
6
CONTINUOUS
10
138.892
20
-119.625
11
138.94
21
-119.651
0
LINE
8
BLACK
6
CONTINUOUS
10
138.94
20
-119.651
11
138.983
21
-119.685
0
LINE
8
BLACK
6
CONTINUOUS
10
138.983
20
-119.685
11
139.017
21
-119.728
0
LINE
8
BLACK
6
CONTINUOUS
10
139.017
20
-119.728
11
139.043
21
-119.776
0
LINE
8
BLACK
6
CONTINUOUS
10
139.043
20
-119.776
11
139.059
21
-119.828
0
LINE
8
BLACK
6
CONTINUOUS
10
139.059
20
-119.828
11
139.065
21
-119.889
0
LINE
8
BLACK
6
CONTINUOUS
10
139.065
20
-119.889
11
139.065
21
-120.842
0
LINE
8
BLACK
6
CONTINUOUS
10
139.065
20
-120.842
11
139.059
21
-120.903
0
LINE
8
BLACK
6
CONTINUOUS
10
139.059
20
-120.903
11
139.043
21
-120.955
0
LINE
8
BLACK
6
CONTINUOUS
10
139.043
20
-120.955
11
139.017
21
-121.003
0
LINE
8
BLACK
6
CONTINUOUS
10
139.017
20
-121.003
11
138.983
21
-121.046
0
LINE
8
BLACK
6
CONTINUOUS
10
138.983
20
-121.046
11
138.94
21
-121.08
0
LINE
8
BLACK
6
CONTINUOUS
10
138.94
20
-121.08
11
138.892
21
-121.106
0
LINE
8
BLACK
6
CONTINUOUS
10
138.892
20
-121.106
11
138.84
21
-121.122
0
LINE
8
BLACK
6
CONTINUOUS
10
138.84
20
-121.122
11
138.779
21
-121.128
0
LINE
8
BLACK
6
CONTINUOUS
10
138.779
20
-121.128
11
137.901
21
-121.128
0
LINE
8
BLACK
6
CONTINUOUS
10
137.901
20
-121.128
11
137.84
21
-121.122
0
LINE
8
BLACK
6
CONTINUOUS
10
137.84
20
-121.122
11
137.788
21
-121.106
0
LINE
8
BLACK
6
CONTINUOUS
10
137.788
20
-121.106
11
137.74
21
-121.08
0
LINE
8
BLACK
6
CONTINUOUS
10
137.74
20
-121.08
11
137.697
21
-121.046
0
LINE
8
BLACK
6
CONTINUOUS
10
137.697
20
-121.046
11
137.663
21
-121.003
0
LINE
8
BLACK
6
CONTINUOUS
10
137.663
20
-121.003
11
137.637
21
-120.955
0
LINE
8
BLACK
6
CONTINUOUS
10
137.637
20
-120.955
11
137.621
21
-120.903
0
LINE
8
BLACK
6
CONTINUOUS
10
137.621
20
-120.903
11
137.615
21
-120.842
0
LINE
8
BLACK
6
CONTINUOUS
10
137.615
20
-120.842
11
137.615
21
-119.889
0
LINE
8
BLACK
6
CONTINUOUS
10
137.615
20
-119.889
11
137.621
21
-119.828
0
LINE
8
BLACK
6
CONTINUOUS
10
137.621
20
-119.828
11
137.637
21
-119.776
0
LINE
8
BLACK
6
CONTINUOUS
10
137.637
20
-119.776
11
137.663
21
-119.728
0
LINE
8
BLACK
6
CONTINUOUS
10
137.663
20
-119.728
11
137.697
21
-119.685
0
LINE
8
BLACK
6
CONTINUOUS
10
137.697
20
-119.685
11
137.74
21
-119.651
0
LINE
8
BLACK
6
CONTINUOUS
10
137.74
20
-119.651
11
137.788
21
-119.625
0
LINE
8
BLACK
6
CONTINUOUS
10
137.788
20
-119.625
11
137.84
21
-119.609
0
LINE
8
BLACK
6
CONTINUOUS
10
137.84
20
-119.609
11
137.901
21
-119.603
0
LINE
8
BLACK
6
CONTINUOUS
10
137.901
20
-119.603
11
138.779
21
-119.603
0
LINE
8
BLACK
6
CONTINUOUS
10
138.779
20
-119.603
11
138.84
21
-119.609
0
LINE
8
BLACK
6
CONTINUOUS
10
150.239
20
-119.608
11
150.287
21
-119.622
0
LINE
8
BLACK
6
CONTINUOUS
10
150.287
20
-119.622
11
150.331
21
-119.646
0
LINE
8
BLACK
6
CONTINUOUS
10
150.331
20
-119.646
11
150.37
21
-119.677
0
LINE
8
BLACK
6
CONTINUOUS
10
150.37
20
-119.677
11
150.401
21
-119.716
0
LINE
8
BLACK
6
CONTINUOUS
10
150.401
20
-119.716
11
150.425
21
-119.76
0
LINE
8
BLACK
6
CONTINUOUS
10
150.425
20
-119.76
11
150.439
21
-119.808
0
LINE
8
BLACK
6
CONTINUOUS
10
150.439
20
-119.808
11
150.445
21
-119.864
0
LINE
8
BLACK
6
CONTINUOUS
10
150.445
20
-119.864
11
150.445
21
-120.615
0
LINE
8
BLACK
6
CONTINUOUS
10
150.445
20
-120.615
11
150.439
21
-120.671
0
LINE
8
BLACK
6
CONTINUOUS
10
150.439
20
-120.671
11
150.425
21
-120.719
0
LINE
8
BLACK
6
CONTINUOUS
10
150.425
20
-120.719
11
150.401
21
-120.763
0
LINE
8
BLACK
6
CONTINUOUS
10
150.401
20
-120.763
11
150.37
21
-120.802
0
LINE
8
BLACK
6
CONTINUOUS
10
150.37
20
-120.802
11
150.331
21
-120.833
0
LINE
8
BLACK
6
CONTINUOUS
10
150.331
20
-120.833
11
150.287
21
-120.857
0
LINE
8
BLACK
6
CONTINUOUS
10
150.287
20
-120.857
11
150.239
21
-120.871
0
LINE
8
BLACK
6
CONTINUOUS
10
150.239
20
-120.871
11
150.183
21
-120.877
0
LINE
8
BLACK
6
CONTINUOUS
10
150.183
20
-120.877
11
149.357
21
-120.877
0
LINE
8
BLACK
6
CONTINUOUS
10
149.357
20
-120.877
11
149.301
21
-120.871
0
LINE
8
BLACK
6
CONTINUOUS
10
149.301
20
-120.871
11
149.253
21
-120.857
0
LINE
8
BLACK
6
CONTINUOUS
10
149.253
20
-120.857
11
149.209
21
-120.833
0
LINE
8
BLACK
6
CONTINUOUS
10
149.209
20
-120.833
11
149.17
21
-120.802
0
LINE
8
BLACK
6
CONTINUOUS
10
149.17
20
-120.802
11
149.139
21
-120.763
0
LINE
8
BLACK
6
CONTINUOUS
10
149.139
20
-120.763
11
149.115
21
-120.719
0
LINE
8
BLACK
6
CONTINUOUS
10
149.115
20
-120.719
11
149.101
21
-120.671
0
LINE
8
BLACK
6
CONTINUOUS
10
149.101
20
-120.671
11
149.095
21
-120.615
0
LINE
8
BLACK
6
CONTINUOUS
10
149.095
20
-120.615
11
149.095
21
-119.864
0
LINE
8
BLACK
6
CONTINUOUS
10
149.095
20
-119.864
11
149.101
21
-119.808
0
LINE
8
BLACK
6
CONTINUOUS
10
149.101
20
-119.808
11
149.115
21
-119.76
0
LINE
8
BLACK
6
CONTINUOUS
10
149.115
20
-119.76
11
149.139
21
-119.716
0
LINE
8
BLACK
6
CONTINUOUS
10
149.139
20
-119.716
11
149.17
21
-119.677
0
LINE
8
BLACK
6
CONTINUOUS
10
149.17
20
-119.677
11
149.209
21
-119.646
0
LINE
8
BLACK
6
CONTINUOUS
10
149.209
20
-119.646
11
149.253
21
-119.622
0
LINE
8
BLACK
6
CONTINUOUS
10
149.253
20
-119.622
11
149.301
21
-119.608
0
LINE
8
BLACK
6
CONTINUOUS
10
149.301
20
-119.608
11
149.357
21
-119.602
0
LINE
8
BLACK
6
CONTINUOUS
10
149.357
20
-119.602
11
150.183
21
-119.602
0
LINE
8
BLACK
6
CONTINUOUS
10
150.183
20
-119.602
11
150.239
21
-119.608
0
LINE
8
BLACK
6
CONTINUOUS
10
148.334
20
-119.608
11
148.382
21
-119.622
0
LINE
8
BLACK
6
CONTINUOUS
10
148.382
20
-119.622
11
148.426
21
-119.646
0
LINE
8
BLACK
6
CONTINUOUS
10
148.426
20
-119.646
11
148.465
21
-119.677
0
LINE
8
BLACK
6
CONTINUOUS
10
148.465
20
-119.677
11
148.496
21
-119.716
0
LINE
8
BLACK
6
CONTINUOUS
10
148.496
20
-119.716
11
148.52
21
-119.76
0
LINE
8
BLACK
6
CONTINUOUS
10
148.52
20
-119.76
11
148.534
21
-119.808
0
LINE
8
BLACK
6
CONTINUOUS
10
148.534
20
-119.808
11
148.54
21
-119.864
0
LINE
8
BLACK
6
CONTINUOUS
10
148.54
20
-119.864
11
148.54
21
-120.615
0
LINE
8
BLACK
6
CONTINUOUS
10
148.54
20
-120.615
11
148.534
21
-120.671
0
LINE
8
BLACK
6
CONTINUOUS
10
148.534
20
-120.671
11
148.52
21
-120.719
0
LINE
8
BLACK
6
CONTINUOUS
10
148.52
20
-120.719
11
148.496
21
-120.763
0
LINE
8
BLACK
6
CONTINUOUS
10
148.496
20
-120.763
11
148.465
21
-120.802
0
LINE
8
BLACK
6
CONTINUOUS
10
148.465
20
-120.802
11
148.426
21
-120.833
0
LINE
8
BLACK
6
CONTINUOUS
10
148.426
20
-120.833
11
148.382
21
-120.857
0
LINE
8
BLACK
6
CONTINUOUS
10
148.382
20
-120.857
11
148.334
21
-120.871
0
LINE
8
BLACK
6
CONTINUOUS
10
148.334
20
-120.871
11
148.278
21
-120.877
0
LINE
8
BLACK
6
CONTINUOUS
10
148.278
20
-120.877
11
147.452
21
-120.877
0
LINE
8
BLACK
6
CONTINUOUS
10
147.452
20
-120.877
11
147.396
21
-120.871
0
LINE
8
BLACK
6
CONTINUOUS
10
147.396
20
-120.871
11
147.348
21
-120.857
0
LINE
8
BLACK
6
CONTINUOUS
10
147.348
20
-120.857
11
147.304
21
-120.833
0
LINE
8
BLACK
6
CONTINUOUS
10
147.304
20
-120.833
11
147.265
21
-120.802
0
LINE
8
BLACK
6
CONTINUOUS
10
147.265
20
-120.802
11
147.234
21
-120.763
0
LINE
8
BLACK
6
CONTINUOUS
10
147.234
20
-120.763
11
147.21
21
-120.719
0
LINE
8
BLACK
6
CONTINUOUS
10
147.21
20
-120.719
11
147.196
21
-120.671
0
LINE
8
BLACK
6
CONTINUOUS
10
147.196
20
-120.671
11
147.19
21
-120.615
0
LINE
8
BLACK
6
CONTINUOUS
10
147.19
20
-120.615
11
147.19
21
-119.864
0
LINE
8
BLACK
6
CONTINUOUS
10
147.19
20
-119.864
11
147.196
21
-119.808
0
LINE
8
BLACK
6
CONTINUOUS
10
147.196
20
-119.808
11
147.21
21
-119.76
0
LINE
8
BLACK
6
CONTINUOUS
10
147.21
20
-119.76
11
147.234
21
-119.716
0
LINE
8
BLACK
6
CONTINUOUS
10
147.234
20
-119.716
11
147.265
21
-119.677
0
LINE
8
BLACK
6
CONTINUOUS
10
147.265
20
-119.677
11
147.304
21
-119.646
0
LINE
8
BLACK
6
CONTINUOUS
10
147.304
20
-119.646
11
147.348
21
-119.622
0
LINE
8
BLACK
6
CONTINUOUS
10
147.348
20
-119.622
11
147.396
21
-119.608
0
LINE
8
BLACK
6
CONTINUOUS
10
147.396
20
-119.608
11
147.452
21
-119.602
0
LINE
8
BLACK
6
CONTINUOUS
10
147.452
20
-119.602
11
148.278
21
-119.602
0
LINE
8
BLACK
6
CONTINUOUS
10
148.278
20
-119.602
11
148.334
21
-119.608
0
LINE
8
BLACK
6
CONTINUOUS
10
164.798
20
-116.941
11
165.062
21
-117.05
0
LINE
8
BLACK
6
CONTINUOUS
10
165.062
20
-117.05
11
165.062
21
-117.05
0
LINE
8
BLACK
6
CONTINUOUS
10
165.062
20
-117.05
11
165.299
21
-117.209
0
LINE
8
BLACK
6
CONTINUOUS
10
165.299
20
-117.209
11
165.501
21
-117.411
0
LINE
8
BLACK
6
CONTINUOUS
10
165.501
20
-117.411
11
165.652
21
-117.636
0
LINE
8
BLACK
6
CONTINUOUS
10
165.652
20
-117.636
11
165.66
21
-117.648
0
LINE
8
BLACK
6
CONTINUOUS
10
165.66
20
-117.648
11
165.769
21
-117.912
0
LINE
8
BLACK
6
CONTINUOUS
10
165.769
20
-117.912
11
165.825
21
-118.192
0
LINE
8
BLACK
6
CONTINUOUS
10
165.825
20
-118.192
11
165.825
21
-118.478
0
LINE
8
BLACK
6
CONTINUOUS
10
165.825
20
-118.478
11
165.769
21
-118.758
0
LINE
8
BLACK
6
CONTINUOUS
10
165.769
20
-118.758
11
165.66
21
-119.022
0
LINE
8
BLACK
6
CONTINUOUS
10
165.66
20
-119.022
11
165.66
21
-119.022
0
LINE
8
BLACK
6
CONTINUOUS
10
165.66
20
-119.022
11
165.501
21
-119.259
0
LINE
8
BLACK
6
CONTINUOUS
10
165.501
20
-119.259
11
165.299
21
-119.461
0
LINE
8
BLACK
6
CONTINUOUS
10
165.299
20
-119.461
11
165.062
21
-119.62
0
LINE
8
BLACK
6
CONTINUOUS
10
165.062
20
-119.62
11
165.062
21
-119.62
0
LINE
8
BLACK
6
CONTINUOUS
10
165.062
20
-119.62
11
165.062
21
-119.62
0
LINE
8
BLACK
6
CONTINUOUS
10
165.062
20
-119.62
11
164.798
21
-119.729
0
LINE
8
BLACK
6
CONTINUOUS
10
164.798
20
-119.729
11
164.518
21
-119.785
0
LINE
8
BLACK
6
CONTINUOUS
10
164.518
20
-119.785
11
164.232
21
-119.785
0
LINE
8
BLACK
6
CONTINUOUS
10
164.232
20
-119.785
11
163.952
21
-119.729
0
LINE
8
BLACK
6
CONTINUOUS
10
163.952
20
-119.729
11
163.688
21
-119.62
0
LINE
8
BLACK
6
CONTINUOUS
10
163.688
20
-119.62
11
163.688
21
-119.62
0
LINE
8
BLACK
6
CONTINUOUS
10
163.688
20
-119.62
11
163.688
21
-119.62
0
LINE
8
BLACK
6
CONTINUOUS
10
163.688
20
-119.62
11
163.451
21
-119.461
0
LINE
8
BLACK
6
CONTINUOUS
10
163.451
20
-119.461
11
163.249
21
-119.259
0
LINE
8
BLACK
6
CONTINUOUS
10
163.249
20
-119.259
11
163.09
21
-119.022
0
LINE
8
BLACK
6
CONTINUOUS
10
163.09
20
-119.022
11
163.09
21
-119.022
0
LINE
8
BLACK
6
CONTINUOUS
10
163.09
20
-119.022
11
162.981
21
-118.758
0
LINE
8
BLACK
6
CONTINUOUS
10
162.981
20
-118.758
11
162.925
21
-118.478
0
LINE
8
BLACK
6
CONTINUOUS
10
162.925
20
-118.478
11
162.925
21
-118.192
0
LINE
8
BLACK
6
CONTINUOUS
10
162.925
20
-118.192
11
162.981
21
-117.912
0
LINE
8
BLACK
6
CONTINUOUS
10
162.981
20
-117.912
11
163.09
21
-117.648
0
LINE
8
BLACK
6
CONTINUOUS
10
163.09
20
-117.648
11
163.098
21
-117.636
0
LINE
8
BLACK
6
CONTINUOUS
10
163.098
20
-117.636
11
163.249
21
-117.411
0
LINE
8
BLACK
6
CONTINUOUS
10
163.249
20
-117.411
11
163.451
21
-117.209
0
LINE
8
BLACK
6
CONTINUOUS
10
163.451
20
-117.209
11
163.688
21
-117.05
0
LINE
8
BLACK
6
CONTINUOUS
10
163.688
20
-117.05
11
163.688
21
-117.05
0
LINE
8
BLACK
6
CONTINUOUS
10
163.688
20
-117.05
11
163.952
21
-116.941
0
LINE
8
BLACK
6
CONTINUOUS
10
163.952
20
-116.941
11
164.232
21
-116.885
0
LINE
8
BLACK
6
CONTINUOUS
10
164.232
20
-116.885
11
164.518
21
-116.885
0
LINE
8
BLACK
6
CONTINUOUS
10
164.518
20
-116.885
11
164.798
21
-116.941
0
LINE
8
BLACK
6
CONTINUOUS
10
138.84
20
-117.834
11
138.892
21
-117.85
0
LINE
8
BLACK
6
CONTINUOUS
10
138.892
20
-117.85
11
138.94
21
-117.876
0
LINE
8
BLACK
6
CONTINUOUS
10
138.94
20
-117.876
11
138.983
21
-117.91
0
LINE
8
BLACK
6
CONTINUOUS
10
138.983
20
-117.91
11
139.017
21
-117.953
0
LINE
8
BLACK
6
CONTINUOUS
10
139.017
20
-117.953
11
139.043
21
-118.001
0
LINE
8
BLACK
6
CONTINUOUS
10
139.043
20
-118.001
11
139.059
21
-118.053
0
LINE
8
BLACK
6
CONTINUOUS
10
139.059
20
-118.053
11
139.065
21
-118.114
0
LINE
8
BLACK
6
CONTINUOUS
10
139.065
20
-118.114
11
139.065
21
-119.067
0
LINE
8
BLACK
6
CONTINUOUS
10
139.065
20
-119.067
11
139.059
21
-119.128
0
LINE
8
BLACK
6
CONTINUOUS
10
139.059
20
-119.128
11
139.043
21
-119.18
0
LINE
8
BLACK
6
CONTINUOUS
10
139.043
20
-119.18
11
139.017
21
-119.228
0
LINE
8
BLACK
6
CONTINUOUS
10
139.017
20
-119.228
11
138.983
21
-119.271
0
LINE
8
BLACK
6
CONTINUOUS
10
138.983
20
-119.271
11
138.94
21
-119.305
0
LINE
8
BLACK
6
CONTINUOUS
10
138.94
20
-119.305
11
138.892
21
-119.331
0
LINE
8
BLACK
6
CONTINUOUS
10
138.892
20
-119.331
11
138.84
21
-119.347
0
LINE
8
BLACK
6
CONTINUOUS
10
138.84
20
-119.347
11
138.779
21
-119.353
0
LINE
8
BLACK
6
CONTINUOUS
10
138.779
20
-119.353
11
137.901
21
-119.353
0
LINE
8
BLACK
6
CONTINUOUS
10
137.901
20
-119.353
11
137.84
21
-119.347
0
LINE
8
BLACK
6
CONTINUOUS
10
137.84
20
-119.347
11
137.788
21
-119.331
0
LINE
8
BLACK
6
CONTINUOUS
10
137.788
20
-119.331
11
137.74
21
-119.305
0
LINE
8
BLACK
6
CONTINUOUS
10
137.74
20
-119.305
11
137.697
21
-119.271
0
LINE
8
BLACK
6
CONTINUOUS
10
137.697
20
-119.271
11
137.663
21
-119.228
0
LINE
8
BLACK
6
CONTINUOUS
10
137.663
20
-119.228
11
137.637
21
-119.18
0
LINE
8
BLACK
6
CONTINUOUS
10
137.637
20
-119.18
11
137.621
21
-119.128
0
LINE
8
BLACK
6
CONTINUOUS
10
137.621
20
-119.128
11
137.615
21
-119.067
0
LINE
8
BLACK
6
CONTINUOUS
10
137.615
20
-119.067
11
137.615
21
-118.114
0
LINE
8
BLACK
6
CONTINUOUS
10
137.615
20
-118.114
11
137.621
21
-118.053
0
LINE
8
BLACK
6
CONTINUOUS
10
137.621
20
-118.053
11
137.637
21
-118.001
0
LINE
8
BLACK
6
CONTINUOUS
10
137.637
20
-118.001
11
137.663
21
-117.953
0
LINE
8
BLACK
6
CONTINUOUS
10
137.663
20
-117.953
11
137.697
21
-117.91
0
LINE
8
BLACK
6
CONTINUOUS
10
137.697
20
-117.91
11
137.74
21
-117.876
0
LINE
8
BLACK
6
CONTINUOUS
10
137.74
20
-117.876
11
137.788
21
-117.85
0
LINE
8
BLACK
6
CONTINUOUS
10
137.788
20
-117.85
11
137.84
21
-117.834
0
LINE
8
BLACK
6
CONTINUOUS
10
137.84
20
-117.834
11
137.901
21
-117.828
0
LINE
8
BLACK
6
CONTINUOUS
10
137.901
20
-117.828
11
138.779
21
-117.828
0
LINE
8
BLACK
6
CONTINUOUS
10
138.779
20
-117.828
11
138.84
21
-117.834
0
LINE
8
BLACK
6
CONTINUOUS
10
150.239
20
-118.033
11
150.287
21
-118.047
0
LINE
8
BLACK
6
CONTINUOUS
10
150.287
20
-118.047
11
150.331
21
-118.071
0
LINE
8
BLACK
6
CONTINUOUS
10
150.331
20
-118.071
11
150.37
21
-118.102
0
LINE
8
BLACK
6
CONTINUOUS
10
150.37
20
-118.102
11
150.401
21
-118.141
0
LINE
8
BLACK
6
CONTINUOUS
10
150.401
20
-118.141
11
150.425
21
-118.185
0
LINE
8
BLACK
6
CONTINUOUS
10
150.425
20
-118.185
11
150.439
21
-118.233
0
LINE
8
BLACK
6
CONTINUOUS
10
150.439
20
-118.233
11
150.445
21
-118.289
0
LINE
8
BLACK
6
CONTINUOUS
10
150.445
20
-118.289
11
150.445
21
-119.04
0
LINE
8
BLACK
6
CONTINUOUS
10
150.445
20
-119.04
11
150.439
21
-119.096
0
LINE
8
BLACK
6
CONTINUOUS
10
150.439
20
-119.096
11
150.425
21
-119.144
0
LINE
8
BLACK
6
CONTINUOUS
10
150.425
20
-119.144
11
150.401
21
-119.188
0
LINE
8
BLACK
6
CONTINUOUS
10
150.401
20
-119.188
11
150.37
21
-119.227
0
LINE
8
BLACK
6
CONTINUOUS
10
150.37
20
-119.227
11
150.331
21
-119.258
0
LINE
8
BLACK
6
CONTINUOUS
10
150.331
20
-119.258
11
150.287
21
-119.282
0
LINE
8
BLACK
6
CONTINUOUS
10
150.287
20
-119.282
11
150.239
21
-119.296
0
LINE
8
BLACK
6
CONTINUOUS
10
150.239
20
-119.296
11
150.183
21
-119.302
0
LINE
8
BLACK
6
CONTINUOUS
10
150.183
20
-119.302
11
149.357
21
-119.302
0
LINE
8
BLACK
6
CONTINUOUS
10
149.357
20
-119.302
11
149.301
21
-119.296
0
LINE
8
BLACK
6
CONTINUOUS
10
149.301
20
-119.296
11
149.253
21
-119.282
0
LINE
8
BLACK
6
CONTINUOUS
10
149.253
20
-119.282
11
149.209
21
-119.258
0
LINE
8
BLACK
6
CONTINUOUS
10
149.209
20
-119.258
11
149.17
21
-119.227
0
LINE
8
BLACK
6
CONTINUOUS
10
149.17
20
-119.227
11
149.139
21
-119.188
0
LINE
8
BLACK
6
CONTINUOUS
10
149.139
20
-119.188
11
149.115
21
-119.144
0
LINE
8
BLACK
6
CONTINUOUS
10
149.115
20
-119.144
11
149.101
21
-119.096
0
LINE
8
BLACK
6
CONTINUOUS
10
149.101
20
-119.096
11
149.095
21
-119.04
0
LINE
8
BLACK
6
CONTINUOUS
10
149.095
20
-119.04
11
149.095
21
-118.289
0
LINE
8
BLACK
6
CONTINUOUS
10
149.095
20
-118.289
11
149.101
21
-118.233
0
LINE
8
BLACK
6
CONTINUOUS
10
149.101
20
-118.233
11
149.115
21
-118.185
0
LINE
8
BLACK
6
CONTINUOUS
10
149.115
20
-118.185
11
149.139
21
-118.141
0
LINE
8
BLACK
6
CONTINUOUS
10
149.139
20
-118.141
11
149.17
21
-118.102
0
LINE
8
BLACK
6
CONTINUOUS
10
149.17
20
-118.102
11
149.209
21
-118.071
0
LINE
8
BLACK
6
CONTINUOUS
10
149.209
20
-118.071
11
149.253
21
-118.047
0
LINE
8
BLACK
6
CONTINUOUS
10
149.253
20
-118.047
11
149.301
21
-118.033
0
LINE
8
BLACK
6
CONTINUOUS
10
149.301
20
-118.033
11
149.357
21
-118.027
0
LINE
8
BLACK
6
CONTINUOUS
10
149.357
20
-118.027
11
150.183
21
-118.027
0
LINE
8
BLACK
6
CONTINUOUS
10
150.183
20
-118.027
11
150.239
21
-118.033
0
LINE
8
BLACK
6
CONTINUOUS
10
148.334
20
-118.033
11
148.382
21
-118.047
0
LINE
8
BLACK
6
CONTINUOUS
10
148.382
20
-118.047
11
148.426
21
-118.071
0
LINE
8
BLACK
6
CONTINUOUS
10
148.426
20
-118.071
11
148.465
21
-118.102
0
LINE
8
BLACK
6
CONTINUOUS
10
148.465
20
-118.102
11
148.496
21
-118.141
0
LINE
8
BLACK
6
CONTINUOUS
10
148.496
20
-118.141
11
148.52
21
-118.185
0
LINE
8
BLACK
6
CONTINUOUS
10
148.52
20
-118.185
11
148.534
21
-118.233
0
LINE
8
BLACK
6
CONTINUOUS
10
148.534
20
-118.233
11
148.54
21
-118.289
0
LINE
8
BLACK
6
CONTINUOUS
10
148.54
20
-118.289
11
148.54
21
-119.04
0
LINE
8
BLACK
6
CONTINUOUS
10
148.54
20
-119.04
11
148.534
21
-119.096
0
LINE
8
BLACK
6
CONTINUOUS
10
148.534
20
-119.096
11
148.52
21
-119.144
0
LINE
8
BLACK
6
CONTINUOUS
10
148.52
20
-119.144
11
148.496
21
-119.188
0
LINE
8
BLACK
6
CONTINUOUS
10
148.496
20
-119.188
11
148.465
21
-119.227
0
LINE
8
BLACK
6
CONTINUOUS
10
148.465
20
-119.227
11
148.426
21
-119.258
0
LINE
8
BLACK
6
CONTINUOUS
10
148.426
20
-119.258
11
148.382
21
-119.282
0
LINE
8
BLACK
6
CONTINUOUS
10
148.382
20
-119.282
11
148.334
21
-119.296
0
LINE
8
BLACK
6
CONTINUOUS
10
148.334
20
-119.296
11
148.278
21
-119.302
0
LINE
8
BLACK
6
CONTINUOUS
10
148.278
20
-119.302
11
147.452
21
-119.302
0
LINE
8
BLACK
6
CONTINUOUS
10
147.452
20
-119.302
11
147.396
21
-119.296
0
LINE
8
BLACK
6
CONTINUOUS
10
147.396
20
-119.296
11
147.348
21
-119.282
0
LINE
8
BLACK
6
CONTINUOUS
10
147.348
20
-119.282
11
147.304
21
-119.258
0
LINE
8
BLACK
6
CONTINUOUS
10
147.304
20
-119.258
11
147.265
21
-119.227
0
LINE
8
BLACK
6
CONTINUOUS
10
147.265
20
-119.227
11
147.234
21
-119.188
0
LINE
8
BLACK
6
CONTINUOUS
10
147.234
20
-119.188
11
147.21
21
-119.144
0
LINE
8
BLACK
6
CONTINUOUS
10
147.21
20
-119.144
11
147.196
21
-119.096
0
LINE
8
BLACK
6
CONTINUOUS
10
147.196
20
-119.096
11
147.19
21
-119.04
0
LINE
8
BLACK
6
CONTINUOUS
10
147.19
20
-119.04
11
147.19
21
-118.289
0
LINE
8
BLACK
6
CONTINUOUS
10
147.19
20
-118.289
11
147.196
21
-118.233
0
LINE
8
BLACK
6
CONTINUOUS
10
147.196
20
-118.233
11
147.21
21
-118.185
0
LINE
8
BLACK
6
CONTINUOUS
10
147.21
20
-118.185
11
147.234
21
-118.141
0
LINE
8
BLACK
6
CONTINUOUS
10
147.234
20
-118.141
11
147.265
21
-118.102
0
LINE
8
BLACK
6
CONTINUOUS
10
147.265
20
-118.102
11
147.304
21
-118.071
0
LINE
8
BLACK
6
CONTINUOUS
10
147.304
20
-118.071
11
147.348
21
-118.047
0
LINE
8
BLACK
6
CONTINUOUS
10
147.348
20
-118.047
11
147.396
21
-118.033
0
LINE
8
BLACK
6
CONTINUOUS
10
147.396
20
-118.033
11
147.452
21
-118.027
0
LINE
8
BLACK
6
CONTINUOUS
10
147.452
20
-118.027
11
148.278
21
-118.027
0
LINE
8
BLACK
6
CONTINUOUS
10
148.278
20
-118.027
11
148.334
21
-118.033
0
LINE
8
BLACK
6
CONTINUOUS
10
131.432
20
-112.709
11
131.56
21
-112.762
0
LINE
8
BLACK
6
CONTINUOUS
10
131.56
20
-112.762
11
131.571
21
-112.769
0
LINE
8
BLACK
6
CONTINUOUS
10
131.571
20
-112.769
11
131.674
21
-112.838
0
LINE
8
BLACK
6
CONTINUOUS
10
131.674
20
-112.838
11
131.772
21
-112.936
0
LINE
8
BLACK
6
CONTINUOUS
10
131.772
20
-112.936
11
131.772
21
-112.936
0
LINE
8
BLACK
6
CONTINUOUS
10
131.772
20
-112.936
11
131.775
21
-112.939
0
LINE
8
BLACK
6
CONTINUOUS
10
131.775
20
-112.939
11
131.794
21
-112.954
0
LINE
8
BLACK
6
CONTINUOUS
10
131.794
20
-112.954
11
131.815
21
-112.966
0
LINE
8
BLACK
6
CONTINUOUS
10
131.815
20
-112.966
11
131.839
21
-112.973
0
LINE
8
BLACK
6
CONTINUOUS
10
131.839
20
-112.973
11
131.863
21
-112.975
0
LINE
8
BLACK
6
CONTINUOUS
10
131.863
20
-112.975
11
131.887
21
-112.973
0
LINE
8
BLACK
6
CONTINUOUS
10
131.887
20
-112.973
11
131.911
21
-112.966
0
LINE
8
BLACK
6
CONTINUOUS
10
131.911
20
-112.966
11
131.932
21
-112.954
0
LINE
8
BLACK
6
CONTINUOUS
10
131.932
20
-112.954
11
131.951
21
-112.939
0
LINE
8
BLACK
6
CONTINUOUS
10
131.951
20
-112.939
11
131.954
21
-112.936
0
LINE
8
BLACK
6
CONTINUOUS
10
131.954
20
-112.936
11
131.954
21
-112.936
0
LINE
8
BLACK
6
CONTINUOUS
10
131.954
20
-112.936
11
132.052
21
-112.838
0
LINE
8
BLACK
6
CONTINUOUS
10
132.052
20
-112.838
11
132.155
21
-112.769
0
LINE
8
BLACK
6
CONTINUOUS
10
132.155
20
-112.769
11
132.166
21
-112.762
0
LINE
8
BLACK
6
CONTINUOUS
10
132.166
20
-112.762
11
132.294
21
-112.709
0
LINE
8
BLACK
6
CONTINUOUS
10
132.294
20
-112.709
11
132.429
21
-112.682
0
LINE
8
BLACK
6
CONTINUOUS
10
132.429
20
-112.682
11
132.567
21
-112.682
0
LINE
8
BLACK
6
CONTINUOUS
10
132.567
20
-112.682
11
132.702
21
-112.709
0
LINE
8
BLACK
6
CONTINUOUS
10
132.702
20
-112.709
11
132.83
21
-112.762
0
LINE
8
BLACK
6
CONTINUOUS
10
132.83
20
-112.762
11
132.841
21
-112.769
0
LINE
8
BLACK
6
CONTINUOUS
10
132.841
20
-112.769
11
132.944
21
-112.838
0
LINE
8
BLACK
6
CONTINUOUS
10
132.944
20
-112.838
11
133.042
21
-112.936
0
LINE
8
BLACK
6
CONTINUOUS
10
133.042
20
-112.936
11
133.068
21
-112.975
0
LINE
8
BLACK
6
CONTINUOUS
10
133.068
20
-112.975
11
133.118
21
-113.05
0
LINE
8
BLACK
6
CONTINUOUS
10
133.118
20
-113.05
11
133.171
21
-113.178
0
LINE
8
BLACK
6
CONTINUOUS
10
133.171
20
-113.178
11
133.198
21
-113.313
0
LINE
8
BLACK
6
CONTINUOUS
10
133.198
20
-113.313
11
133.198
21
-113.451
0
LINE
8
BLACK
6
CONTINUOUS
10
133.198
20
-113.451
11
133.171
21
-113.586
0
LINE
8
BLACK
6
CONTINUOUS
10
133.171
20
-113.586
11
133.118
21
-113.714
0
LINE
8
BLACK
6
CONTINUOUS
10
133.118
20
-113.714
11
133.118
21
-113.714
0
LINE
8
BLACK
6
CONTINUOUS
10
133.118
20
-113.714
11
133.042
21
-113.828
0
LINE
8
BLACK
6
CONTINUOUS
10
133.042
20
-113.828
11
132.944
21
-113.926
0
LINE
8
BLACK
6
CONTINUOUS
10
132.944
20
-113.926
11
132.944
21
-113.926
0
LINE
8
BLACK
6
CONTINUOUS
10
132.944
20
-113.926
11
132.941
21
-113.929
0
LINE
8
BLACK
6
CONTINUOUS
10
132.941
20
-113.929
11
132.926
21
-113.948
0
LINE
8
BLACK
6
CONTINUOUS
10
132.926
20
-113.948
11
132.914
21
-113.969
0
LINE
8
BLACK
6
CONTINUOUS
10
132.914
20
-113.969
11
132.907
21
-113.993
0
LINE
8
BLACK
6
CONTINUOUS
10
132.907
20
-113.993
11
132.905
21
-114.017
0
LINE
8
BLACK
6
CONTINUOUS
10
132.905
20
-114.017
11
132.907
21
-114.041
0
LINE
8
BLACK
6
CONTINUOUS
10
132.907
20
-114.041
11
132.914
21
-114.065
0
LINE
8
BLACK
6
CONTINUOUS
10
132.914
20
-114.065
11
132.926
21
-114.086
0
LINE
8
BLACK
6
CONTINUOUS
10
132.926
20
-114.086
11
132.941
21
-114.105
0
LINE
8
BLACK
6
CONTINUOUS
10
132.941
20
-114.105
11
132.944
21
-114.108
0
LINE
8
BLACK
6
CONTINUOUS
10
132.944
20
-114.108
11
132.944
21
-114.108
0
LINE
8
BLACK
6
CONTINUOUS
10
132.944
20
-114.108
11
133.042
21
-114.206
0
LINE
8
BLACK
6
CONTINUOUS
10
133.042
20
-114.206
11
133.068
21
-114.245
0
LINE
8
BLACK
6
CONTINUOUS
10
133.068
20
-114.245
11
133.118
21
-114.32
0
LINE
8
BLACK
6
CONTINUOUS
10
133.118
20
-114.32
11
133.171
21
-114.448
0
LINE
8
BLACK
6
CONTINUOUS
10
133.171
20
-114.448
11
133.198
21
-114.583
0
LINE
8
BLACK
6
CONTINUOUS
10
133.198
20
-114.583
11
133.198
21
-114.721
0
LINE
8
BLACK
6
CONTINUOUS
10
133.198
20
-114.721
11
133.171
21
-114.856
0
LINE
8
BLACK
6
CONTINUOUS
10
133.171
20
-114.856
11
133.118
21
-114.984
0
LINE
8
BLACK
6
CONTINUOUS
10
133.118
20
-114.984
11
133.118
21
-114.984
0
LINE
8
BLACK
6
CONTINUOUS
10
133.118
20
-114.984
11
133.042
21
-115.098
0
LINE
8
BLACK
6
CONTINUOUS
10
133.042
20
-115.098
11
132.944
21
-115.196
0
LINE
8
BLACK
6
CONTINUOUS
10
132.944
20
-115.196
11
132.944
21
-115.196
0
LINE
8
BLACK
6
CONTINUOUS
10
132.944
20
-115.196
11
132.941
21
-115.199
0
LINE
8
BLACK
6
CONTINUOUS
10
132.941
20
-115.199
11
132.926
21
-115.218
0
LINE
8
BLACK
6
CONTINUOUS
10
132.926
20
-115.218
11
132.914
21
-115.239
0
LINE
8
BLACK
6
CONTINUOUS
10
132.914
20
-115.239
11
132.907
21
-115.263
0
LINE
8
BLACK
6
CONTINUOUS
10
132.907
20
-115.263
11
132.905
21
-115.287
0
LINE
8
BLACK
6
CONTINUOUS
10
132.905
20
-115.287
11
132.907
21
-115.311
0
LINE
8
BLACK
6
CONTINUOUS
10
132.907
20
-115.311
11
132.914
21
-115.335
0
LINE
8
BLACK
6
CONTINUOUS
10
132.914
20
-115.335
11
132.926
21
-115.356
0
LINE
8
BLACK
6
CONTINUOUS
10
132.926
20
-115.356
11
132.941
21
-115.375
0
LINE
8
BLACK
6
CONTINUOUS
10
132.941
20
-115.375
11
132.944
21
-115.378
0
LINE
8
BLACK
6
CONTINUOUS
10
132.944
20
-115.378
11
132.944
21
-115.378
0
LINE
8
BLACK
6
CONTINUOUS
10
132.944
20
-115.378
11
133.042
21
-115.476
0
LINE
8
BLACK
6
CONTINUOUS
10
133.042
20
-115.476
11
133.068
21
-115.515
0
LINE
8
BLACK
6
CONTINUOUS
10
133.068
20
-115.515
11
133.118
21
-115.59
0
LINE
8
BLACK
6
CONTINUOUS
10
133.118
20
-115.59
11
133.171
21
-115.718
0
LINE
8
BLACK
6
CONTINUOUS
10
133.171
20
-115.718
11
133.198
21
-115.853
0
LINE
8
BLACK
6
CONTINUOUS
10
133.198
20
-115.853
11
133.198
21
-115.991
0
LINE
8
BLACK
6
CONTINUOUS
10
133.198
20
-115.991
11
133.171
21
-116.126
0
LINE
8
BLACK
6
CONTINUOUS
10
133.171
20
-116.126
11
133.118
21
-116.254
0
LINE
8
BLACK
6
CONTINUOUS
10
133.118
20
-116.254
11
133.118
21
-116.254
0
LINE
8
BLACK
6
CONTINUOUS
10
133.118
20
-116.254
11
133.042
21
-116.368
0
LINE
8
BLACK
6
CONTINUOUS
10
133.042
20
-116.368
11
132.944
21
-116.466
0
LINE
8
BLACK
6
CONTINUOUS
10
132.944
20
-116.466
11
132.944
21
-116.466
0
LINE
8
BLACK
6
CONTINUOUS
10
132.944
20
-116.466
11
132.941
21
-116.469
0
LINE
8
BLACK
6
CONTINUOUS
10
132.941
20
-116.469
11
132.926
21
-116.488
0
LINE
8
BLACK
6
CONTINUOUS
10
132.926
20
-116.488
11
132.914
21
-116.509
0
LINE
8
BLACK
6
CONTINUOUS
10
132.914
20
-116.509
11
132.907
21
-116.533
0
LINE
8
BLACK
6
CONTINUOUS
10
132.907
20
-116.533
11
132.905
21
-116.557
0
LINE
8
BLACK
6
CONTINUOUS
10
132.905
20
-116.557
11
132.907
21
-116.581
0
LINE
8
BLACK
6
CONTINUOUS
10
132.907
20
-116.581
11
132.914
21
-116.605
0
LINE
8
BLACK
6
CONTINUOUS
10
132.914
20
-116.605
11
132.926
21
-116.626
0
LINE
8
BLACK
6
CONTINUOUS
10
132.926
20
-116.626
11
132.941
21
-116.645
0
LINE
8
BLACK
6
CONTINUOUS
10
132.941
20
-116.645
11
132.944
21
-116.648
0
LINE
8
BLACK
6
CONTINUOUS
10
132.944
20
-116.648
11
132.944
21
-116.648
0
LINE
8
BLACK
6
CONTINUOUS
10
132.944
20
-116.648
11
133.042
21
-116.746
0
LINE
8
BLACK
6
CONTINUOUS
10
133.042
20
-116.746
11
133.068
21
-116.785
0
LINE
8
BLACK
6
CONTINUOUS
10
133.068
20
-116.785
11
133.118
21
-116.86
0
LINE
8
BLACK
6
CONTINUOUS
10
133.118
20
-116.86
11
133.171
21
-116.988
0
LINE
8
BLACK
6
CONTINUOUS
10
133.171
20
-116.988
11
133.198
21
-117.123
0
LINE
8
BLACK
6
CONTINUOUS
10
133.198
20
-117.123
11
133.198
21
-117.261
0
LINE
8
BLACK
6
CONTINUOUS
10
133.198
20
-117.261
11
133.171
21
-117.396
0
LINE
8
BLACK
6
CONTINUOUS
10
133.171
20
-117.396
11
133.118
21
-117.524
0
LINE
8
BLACK
6
CONTINUOUS
10
133.118
20
-117.524
11
133.089
21
-117.568
0
LINE
8
BLACK
6
CONTINUOUS
10
133.089
20
-117.568
11
133.077
21
-117.589
0
LINE
8
BLACK
6
CONTINUOUS
10
133.077
20
-117.589
11
133.07
21
-117.613
0
LINE
8
BLACK
6
CONTINUOUS
10
133.07
20
-117.613
11
133.068
21
-117.637
0
LINE
8
BLACK
6
CONTINUOUS
10
133.068
20
-117.637
11
133.07
21
-117.661
0
LINE
8
BLACK
6
CONTINUOUS
10
133.07
20
-117.661
11
133.077
21
-117.685
0
LINE
8
BLACK
6
CONTINUOUS
10
133.077
20
-117.685
11
133.089
21
-117.706
0
LINE
8
BLACK
6
CONTINUOUS
10
133.089
20
-117.706
11
133.104
21
-117.725
0
LINE
8
BLACK
6
CONTINUOUS
10
133.104
20
-117.725
11
133.123
21
-117.741
0
LINE
8
BLACK
6
CONTINUOUS
10
133.123
20
-117.741
11
133.145
21
-117.752
0
LINE
8
BLACK
6
CONTINUOUS
10
133.145
20
-117.752
11
133.168
21
-117.76
0
LINE
8
BLACK
6
CONTINUOUS
10
133.168
20
-117.76
11
133.193
21
-117.762
0
LINE
8
BLACK
6
CONTINUOUS
10
133.193
20
-117.762
11
133.198
21
-117.762
0
LINE
8
BLACK
6
CONTINUOUS
10
133.198
20
-117.762
11
133.198
21
-119.162
0
LINE
8
BLACK
6
CONTINUOUS
10
133.198
20
-119.162
11
131.798
21
-119.162
0
LINE
8
BLACK
6
CONTINUOUS
10
131.798
20
-119.162
11
131.798
21
-119.157
0
LINE
8
BLACK
6
CONTINUOUS
10
131.798
20
-119.157
11
131.796
21
-119.132
0
LINE
8
BLACK
6
CONTINUOUS
10
131.796
20
-119.132
11
131.788
21
-119.109
0
LINE
8
BLACK
6
CONTINUOUS
10
131.788
20
-119.109
11
131.777
21
-119.087
0
LINE
8
BLACK
6
CONTINUOUS
10
131.777
20
-119.087
11
131.761
21
-119.068
0
LINE
8
BLACK
6
CONTINUOUS
10
131.761
20
-119.068
11
131.742
21
-119.053
0
LINE
8
BLACK
6
CONTINUOUS
10
131.742
20
-119.053
11
131.721
21
-119.041
0
LINE
8
BLACK
6
CONTINUOUS
10
131.721
20
-119.041
11
131.697
21
-119.034
0
LINE
8
BLACK
6
CONTINUOUS
10
131.697
20
-119.034
11
131.673
21
-119.032
0
LINE
8
BLACK
6
CONTINUOUS
10
131.673
20
-119.032
11
131.649
21
-119.034
0
LINE
8
BLACK
6
CONTINUOUS
10
131.649
20
-119.034
11
131.625
21
-119.041
0
LINE
8
BLACK
6
CONTINUOUS
10
131.625
20
-119.041
11
131.604
21
-119.053
0
LINE
8
BLACK
6
CONTINUOUS
10
131.604
20
-119.053
11
131.56
21
-119.082
0
LINE
8
BLACK
6
CONTINUOUS
10
131.56
20
-119.082
11
131.432
21
-119.135
0
LINE
8
BLACK
6
CONTINUOUS
10
131.432
20
-119.135
11
131.297
21
-119.162
0
LINE
8
BLACK
6
CONTINUOUS
10
131.297
20
-119.162
11
131.159
21
-119.162
0
LINE
8
BLACK
6
CONTINUOUS
10
131.159
20
-119.162
11
131.024
21
-119.135
0
LINE
8
BLACK
6
CONTINUOUS
10
131.024
20
-119.135
11
130.896
21
-119.082
0
LINE
8
BLACK
6
CONTINUOUS
10
130.896
20
-119.082
11
130.806
21
-119.022
0
LINE
8
BLACK
6
CONTINUOUS
10
130.806
20
-119.022
11
130.782
21
-119.006
0
LINE
8
BLACK
6
CONTINUOUS
10
130.782
20
-119.006
11
130.684
21
-118.908
0
LINE
8
BLACK
6
CONTINUOUS
10
130.684
20
-118.908
11
130.608
21
-118.794
0
LINE
8
BLACK
6
CONTINUOUS
10
130.608
20
-118.794
11
130.608
21
-118.794
0
LINE
8
BLACK
6
CONTINUOUS
10
130.608
20
-118.794
11
130.555
21
-118.666
0
LINE
8
BLACK
6
CONTINUOUS
10
130.555
20
-118.666
11
130.528
21
-118.531
0
LINE
8
BLACK
6
CONTINUOUS
10
130.528
20
-118.531
11
130.528
21
-118.393
0
LINE
8
BLACK
6
CONTINUOUS
10
130.528
20
-118.393
11
130.555
21
-118.258
0
LINE
8
BLACK
6
CONTINUOUS
10
130.555
20
-118.258
11
130.608
21
-118.13
0
LINE
8
BLACK
6
CONTINUOUS
10
130.608
20
-118.13
11
130.673
21
-118.033
0
LINE
8
BLACK
6
CONTINUOUS
10
130.673
20
-118.033
11
130.684
21
-118.016
0
LINE
8
BLACK
6
CONTINUOUS
10
130.684
20
-118.016
11
130.782
21
-117.918
0
LINE
8
BLACK
6
CONTINUOUS
10
130.782
20
-117.918
11
130.782
21
-117.918
0
LINE
8
BLACK
6
CONTINUOUS
10
130.782
20
-117.918
11
130.785
21
-117.915
0
LINE
8
BLACK
6
CONTINUOUS
10
130.785
20
-117.915
11
130.8
21
-117.896
0
LINE
8
BLACK
6
CONTINUOUS
10
130.8
20
-117.896
11
130.812
21
-117.875
0
LINE
8
BLACK
6
CONTINUOUS
10
130.812
20
-117.875
11
130.819
21
-117.851
0
LINE
8
BLACK
6
CONTINUOUS
10
130.819
20
-117.851
11
130.821
21
-117.827
0
LINE
8
BLACK
6
CONTINUOUS
10
130.821
20
-117.827
11
130.819
21
-117.803
0
LINE
8
BLACK
6
CONTINUOUS
10
130.819
20
-117.803
11
130.812
21
-117.779
0
LINE
8
BLACK
6
CONTINUOUS
10
130.812
20
-117.779
11
130.8
21
-117.758
0
LINE
8
BLACK
6
CONTINUOUS
10
130.8
20
-117.758
11
130.785
21
-117.739
0
LINE
8
BLACK
6
CONTINUOUS
10
130.785
20
-117.739
11
130.782
21
-117.736
0
LINE
8
BLACK
6
CONTINUOUS
10
130.782
20
-117.736
11
130.782
21
-117.736
0
LINE
8
BLACK
6
CONTINUOUS
10
130.782
20
-117.736
11
130.684
21
-117.638
0
LINE
8
BLACK
6
CONTINUOUS
10
130.684
20
-117.638
11
130.608
21
-117.524
0
LINE
8
BLACK
6
CONTINUOUS
10
130.608
20
-117.524
11
130.608
21
-117.524
0
LINE
8
BLACK
6
CONTINUOUS
10
130.608
20
-117.524
11
130.555
21
-117.396
0
LINE
8
BLACK
6
CONTINUOUS
10
130.555
20
-117.396
11
130.528
21
-117.261
0
LINE
8
BLACK
6
CONTINUOUS
10
130.528
20
-117.261
11
130.528
21
-117.123
0
LINE
8
BLACK
6
CONTINUOUS
10
130.528
20
-117.123
11
130.555
21
-116.988
0
LINE
8
BLACK
6
CONTINUOUS
10
130.555
20
-116.988
11
130.608
21
-116.86
0
LINE
8
BLACK
6
CONTINUOUS
10
130.608
20
-116.86
11
130.658
21
-116.785
0
LINE
8
BLACK
6
CONTINUOUS
10
130.658
20
-116.785
11
130.684
21
-116.746
0
LINE
8
BLACK
6
CONTINUOUS
10
130.684
20
-116.746
11
130.782
21
-116.648
0
LINE
8
BLACK
6
CONTINUOUS
10
130.782
20
-116.648
11
130.782
21
-116.648
0
LINE
8
BLACK
6
CONTINUOUS
10
130.782
20
-116.648
11
130.785
21
-116.645
0
LINE
8
BLACK
6
CONTINUOUS
10
130.785
20
-116.645
11
130.8
21
-116.626
0
LINE
8
BLACK
6
CONTINUOUS
10
130.8
20
-116.626
11
130.812
21
-116.605
0
LINE
8
BLACK
6
CONTINUOUS
10
130.812
20
-116.605
11
130.819
21
-116.581
0
LINE
8
BLACK
6
CONTINUOUS
10
130.819
20
-116.581
11
130.821
21
-116.557
0
LINE
8
BLACK
6
CONTINUOUS
10
130.821
20
-116.557
11
131.635
21
-116.557
0
LINE
8
BLACK
6
CONTINUOUS
10
131.635
20
-116.557
11
131.637
21
-116.581
0
LINE
8
BLACK
6
CONTINUOUS
10
131.637
20
-116.581
11
131.644
21
-116.605
0
LINE
8
BLACK
6
CONTINUOUS
10
131.644
20
-116.605
11
131.656
21
-116.626
0
LINE
8
BLACK
6
CONTINUOUS
10
131.656
20
-116.626
11
131.671
21
-116.645
0
LINE
8
BLACK
6
CONTINUOUS
10
131.671
20
-116.645
11
131.674
21
-116.648
0
LINE
8
BLACK
6
CONTINUOUS
10
131.674
20
-116.648
11
131.674
21
-116.648
0
LINE
8
BLACK
6
CONTINUOUS
10
131.674
20
-116.648
11
131.772
21
-116.746
0
LINE
8
BLACK
6
CONTINUOUS
10
131.772
20
-116.746
11
131.772
21
-116.746
0
LINE
8
BLACK
6
CONTINUOUS
10
131.772
20
-116.746
11
131.775
21
-116.749
0
LINE
8
BLACK
6
CONTINUOUS
10
131.775
20
-116.749
11
131.794
21
-116.764
0
LINE
8
BLACK
6
CONTINUOUS
10
131.794
20
-116.764
11
131.815
21
-116.776
0
LINE
8
BLACK
6
CONTINUOUS
10
131.815
20
-116.776
11
131.839
21
-116.783
0
LINE
8
BLACK
6
CONTINUOUS
10
131.839
20
-116.783
11
131.863
21
-116.785
0
LINE
8
BLACK
6
CONTINUOUS
10
131.863
20
-116.785
11
131.887
21
-116.783
0
LINE
8
BLACK
6
CONTINUOUS
10
131.887
20
-116.783
11
131.911
21
-116.776
0
LINE
8
BLACK
6
CONTINUOUS
10
131.911
20
-116.776
11
131.932
21
-116.764
0
LINE
8
BLACK
6
CONTINUOUS
10
131.932
20
-116.764
11
131.951
21
-116.749
0
LINE
8
BLACK
6
CONTINUOUS
10
131.951
20
-116.749
11
131.954
21
-116.746
0
LINE
8
BLACK
6
CONTINUOUS
10
131.954
20
-116.746
11
131.954
21
-116.746
0
LINE
8
BLACK
6
CONTINUOUS
10
131.954
20
-116.746
11
132.052
21
-116.648
0
LINE
8
BLACK
6
CONTINUOUS
10
132.052
20
-116.648
11
132.052
21
-116.648
0
LINE
8
BLACK
6
CONTINUOUS
10
132.052
20
-116.648
11
132.055
21
-116.645
0
LINE
8
BLACK
6
CONTINUOUS
10
132.055
20
-116.645
11
132.07
21
-116.626
0
LINE
8
BLACK
6
CONTINUOUS
10
132.07
20
-116.626
11
132.082
21
-116.605
0
LINE
8
BLACK
6
CONTINUOUS
10
132.082
20
-116.605
11
132.089
21
-116.581
0
LINE
8
BLACK
6
CONTINUOUS
10
132.089
20
-116.581
11
132.091
21
-116.557
0
LINE
8
BLACK
6
CONTINUOUS
10
132.091
20
-116.557
11
132.089
21
-116.533
0
LINE
8
BLACK
6
CONTINUOUS
10
132.089
20
-116.533
11
132.082
21
-116.509
0
LINE
8
BLACK
6
CONTINUOUS
10
132.082
20
-116.509
11
132.07
21
-116.488
0
LINE
8
BLACK
6
CONTINUOUS
10
132.07
20
-116.488
11
132.055
21
-116.469
0
LINE
8
BLACK
6
CONTINUOUS
10
132.055
20
-116.469
11
132.052
21
-116.466
0
LINE
8
BLACK
6
CONTINUOUS
10
132.052
20
-116.466
11
132.052
21
-116.466
0
LINE
8
BLACK
6
CONTINUOUS
10
132.052
20
-116.466
11
131.954
21
-116.368
0
LINE
8
BLACK
6
CONTINUOUS
10
131.954
20
-116.368
11
131.954
21
-116.368
0
LINE
8
BLACK
6
CONTINUOUS
10
131.954
20
-116.368
11
131.951
21
-116.365
0
LINE
8
BLACK
6
CONTINUOUS
10
131.951
20
-116.365
11
131.932
21
-116.35
0
LINE
8
BLACK
6
CONTINUOUS
10
131.932
20
-116.35
11
131.911
21
-116.338
0
LINE
8
BLACK
6
CONTINUOUS
10
131.911
20
-116.338
11
131.887
21
-116.331
0
LINE
8
BLACK
6
CONTINUOUS
10
131.887
20
-116.331
11
131.863
21
-116.329
0
LINE
8
BLACK
6
CONTINUOUS
10
131.863
20
-116.329
11
131.839
21
-116.331
0
LINE
8
BLACK
6
CONTINUOUS
10
131.839
20
-116.331
11
131.815
21
-116.338
0
LINE
8
BLACK
6
CONTINUOUS
10
131.815
20
-116.338
11
131.794
21
-116.35
0
LINE
8
BLACK
6
CONTINUOUS
10
131.794
20
-116.35
11
131.775
21
-116.365
0
LINE
8
BLACK
6
CONTINUOUS
10
131.775
20
-116.365
11
131.772
21
-116.368
0
LINE
8
BLACK
6
CONTINUOUS
10
131.772
20
-116.368
11
131.772
21
-116.368
0
LINE
8
BLACK
6
CONTINUOUS
10
131.772
20
-116.368
11
131.674
21
-116.466
0
LINE
8
BLACK
6
CONTINUOUS
10
131.674
20
-116.466
11
131.674
21
-116.466
0
LINE
8
BLACK
6
CONTINUOUS
10
131.674
20
-116.466
11
131.671
21
-116.469
0
LINE
8
BLACK
6
CONTINUOUS
10
131.671
20
-116.469
11
131.656
21
-116.488
0
LINE
8
BLACK
6
CONTINUOUS
10
131.656
20
-116.488
11
131.644
21
-116.509
0
LINE
8
BLACK
6
CONTINUOUS
10
131.644
20
-116.509
11
131.637
21
-116.533
0
LINE
8
BLACK
6
CONTINUOUS
10
131.637
20
-116.533
11
131.635
21
-116.557
0
LINE
8
BLACK
6
CONTINUOUS
10
131.635
20
-116.557
11
130.821
21
-116.557
0
LINE
8
BLACK
6
CONTINUOUS
10
130.821
20
-116.557
11
130.819
21
-116.533
0
LINE
8
BLACK
6
CONTINUOUS
10
130.819
20
-116.533
11
130.812
21
-116.509
0
LINE
8
BLACK
6
CONTINUOUS
10
130.812
20
-116.509
11
130.8
21
-116.488
0
LINE
8
BLACK
6
CONTINUOUS
10
130.8
20
-116.488
11
130.785
21
-116.469
0
LINE
8
BLACK
6
CONTINUOUS
10
130.785
20
-116.469
11
130.782
21
-116.466
0
LINE
8
BLACK
6
CONTINUOUS
10
130.782
20
-116.466
11
130.782
21
-116.466
0
LINE
8
BLACK
6
CONTINUOUS
10
130.782
20
-116.466
11
130.684
21
-116.368
0
LINE
8
BLACK
6
CONTINUOUS
10
130.684
20
-116.368
11
130.608
21
-116.254
0
LINE
8
BLACK
6
CONTINUOUS
10
130.608
20
-116.254
11
130.608
21
-116.254
0
LINE
8
BLACK
6
CONTINUOUS
10
130.608
20
-116.254
11
130.555
21
-116.126
0
LINE
8
BLACK
6
CONTINUOUS
10
130.555
20
-116.126
11
130.528
21
-115.991
0
LINE
8
BLACK
6
CONTINUOUS
10
130.528
20
-115.991
11
130.528
21
-115.853
0
LINE
8
BLACK
6
CONTINUOUS
10
130.528
20
-115.853
11
130.555
21
-115.718
0
LINE
8
BLACK
6
CONTINUOUS
10
130.555
20
-115.718
11
130.608
21
-115.59
0
LINE
8
BLACK
6
CONTINUOUS
10
130.608
20
-115.59
11
130.658
21
-115.515
0
LINE
8
BLACK
6
CONTINUOUS
10
130.658
20
-115.515
11
130.684
21
-115.476
0
LINE
8
BLACK
6
CONTINUOUS
10
130.684
20
-115.476
11
130.782
21
-115.378
0
LINE
8
BLACK
6
CONTINUOUS
10
130.782
20
-115.378
11
130.782
21
-115.378
0
LINE
8
BLACK
6
CONTINUOUS
10
130.782
20
-115.378
11
130.785
21
-115.375
0
LINE
8
BLACK
6
CONTINUOUS
10
130.785
20
-115.375
11
130.8
21
-115.356
0
LINE
8
BLACK
6
CONTINUOUS
10
130.8
20
-115.356
11
130.812
21
-115.335
0
LINE
8
BLACK
6
CONTINUOUS
10
130.812
20
-115.335
11
130.819
21
-115.311
0
LINE
8
BLACK
6
CONTINUOUS
10
130.819
20
-115.311
11
130.821
21
-115.287
0
LINE
8
BLACK
6
CONTINUOUS
10
130.821
20
-115.287
11
131.635
21
-115.287
0
LINE
8
BLACK
6
CONTINUOUS
10
131.635
20
-115.287
11
131.637
21
-115.311
0
LINE
8
BLACK
6
CONTINUOUS
10
131.637
20
-115.311
11
131.644
21
-115.335
0
LINE
8
BLACK
6
CONTINUOUS
10
131.644
20
-115.335
11
131.656
21
-115.356
0
LINE
8
BLACK
6
CONTINUOUS
10
131.656
20
-115.356
11
131.671
21
-115.375
0
LINE
8
BLACK
6
CONTINUOUS
10
131.671
20
-115.375
11
131.674
21
-115.378
0
LINE
8
BLACK
6
CONTINUOUS
10
131.674
20
-115.378
11
131.674
21
-115.378
0
LINE
8
BLACK
6
CONTINUOUS
10
131.674
20
-115.378
11
131.772
21
-115.476
0
LINE
8
BLACK
6
CONTINUOUS
10
131.772
20
-115.476
11
131.772
21
-115.476
0
LINE
8
BLACK
6
CONTINUOUS
10
131.772
20
-115.476
11
131.775
21
-115.479
0
LINE
8
BLACK
6
CONTINUOUS
10
131.775
20
-115.479
11
131.794
21
-115.494
0
LINE
8
BLACK
6
CONTINUOUS
10
131.794
20
-115.494
11
131.815
21
-115.506
0
LINE
8
BLACK
6
CONTINUOUS
10
131.815
20
-115.506
11
131.839
21
-115.513
0
LINE
8
BLACK
6
CONTINUOUS
10
131.839
20
-115.513
11
131.863
21
-115.515
0
LINE
8
BLACK
6
CONTINUOUS
10
131.863
20
-115.515
11
131.887
21
-115.513
0
LINE
8
BLACK
6
CONTINUOUS
10
131.887
20
-115.513
11
131.911
21
-115.506
0
LINE
8
BLACK
6
CONTINUOUS
10
131.911
20
-115.506
11
131.932
21
-115.494
0
LINE
8
BLACK
6
CONTINUOUS
10
131.932
20
-115.494
11
131.951
21
-115.479
0
LINE
8
BLACK
6
CONTINUOUS
10
131.951
20
-115.479
11
131.954
21
-115.476
0
LINE
8
BLACK
6
CONTINUOUS
10
131.954
20
-115.476
11
131.954
21
-115.476
0
LINE
8
BLACK
6
CONTINUOUS
10
131.954
20
-115.476
11
132.052
21
-115.378
0
LINE
8
BLACK
6
CONTINUOUS
10
132.052
20
-115.378
11
132.052
21
-115.378
0
LINE
8
BLACK
6
CONTINUOUS
10
132.052
20
-115.378
11
132.055
21
-115.375
0
LINE
8
BLACK
6
CONTINUOUS
10
132.055
20
-115.375
11
132.07
21
-115.356
0
LINE
8
BLACK
6
CONTINUOUS
10
132.07
20
-115.356
11
132.082
21
-115.335
0
LINE
8
BLACK
6
CONTINUOUS
10
132.082
20
-115.335
11
132.089
21
-115.311
0
LINE
8
BLACK
6
CONTINUOUS
10
132.089
20
-115.311
11
132.091
21
-115.287
0
LINE
8
BLACK
6
CONTINUOUS
10
132.091
20
-115.287
11
132.089
21
-115.263
0
LINE
8
BLACK
6
CONTINUOUS
10
132.089
20
-115.263
11
132.082
21
-115.239
0
LINE
8
BLACK
6
CONTINUOUS
10
132.082
20
-115.239
11
132.07
21
-115.218
0
LINE
8
BLACK
6
CONTINUOUS
10
132.07
20
-115.218
11
132.055
21
-115.199
0
LINE
8
BLACK
6
CONTINUOUS
10
132.055
20
-115.199
11
132.052
21
-115.196
0
LINE
8
BLACK
6
CONTINUOUS
10
132.052
20
-115.196
11
132.052
21
-115.196
0
LINE
8
BLACK
6
CONTINUOUS
10
132.052
20
-115.196
11
131.954
21
-115.098
0
LINE
8
BLACK
6
CONTINUOUS
10
131.954
20
-115.098
11
131.954
21
-115.098
0
LINE
8
BLACK
6
CONTINUOUS
10
131.954
20
-115.098
11
131.951
21
-115.095
0
LINE
8
BLACK
6
CONTINUOUS
10
131.951
20
-115.095
11
131.932
21
-115.08
0
LINE
8
BLACK
6
CONTINUOUS
10
131.932
20
-115.08
11
131.911
21
-115.068
0
LINE
8
BLACK
6
CONTINUOUS
10
131.911
20
-115.068
11
131.887
21
-115.061
0
LINE
8
BLACK
6
CONTINUOUS
10
131.887
20
-115.061
11
131.863
21
-115.059
0
LINE
8
BLACK
6
CONTINUOUS
10
131.863
20
-115.059
11
131.839
21
-115.061
0
LINE
8
BLACK
6
CONTINUOUS
10
131.839
20
-115.061
11
131.815
21
-115.068
0
LINE
8
BLACK
6
CONTINUOUS
10
131.815
20
-115.068
11
131.794
21
-115.08
0
LINE
8
BLACK
6
CONTINUOUS
10
131.794
20
-115.08
11
131.775
21
-115.095
0
LINE
8
BLACK
6
CONTINUOUS
10
131.775
20
-115.095
11
131.772
21
-115.098
0
LINE
8
BLACK
6
CONTINUOUS
10
131.772
20
-115.098
11
131.772
21
-115.098
0
LINE
8
BLACK
6
CONTINUOUS
10
131.772
20
-115.098
11
131.674
21
-115.196
0
LINE
8
BLACK
6
CONTINUOUS
10
131.674
20
-115.196
11
131.674
21
-115.196
0
LINE
8
BLACK
6
CONTINUOUS
10
131.674
20
-115.196
11
131.671
21
-115.199
0
LINE
8
BLACK
6
CONTINUOUS
10
131.671
20
-115.199
11
131.656
21
-115.218
0
LINE
8
BLACK
6
CONTINUOUS
10
131.656
20
-115.218
11
131.644
21
-115.239
0
LINE
8
BLACK
6
CONTINUOUS
10
131.644
20
-115.239
11
131.637
21
-115.263
0
LINE
8
BLACK
6
CONTINUOUS
10
131.637
20
-115.263
11
131.635
21
-115.287
0
LINE
8
BLACK
6
CONTINUOUS
10
131.635
20
-115.287
11
130.821
21
-115.287
0
LINE
8
BLACK
6
CONTINUOUS
10
130.821
20
-115.287
11
130.819
21
-115.263
0
LINE
8
BLACK
6
CONTINUOUS
10
130.819
20
-115.263
11
130.812
21
-115.239
0
LINE
8
BLACK
6
CONTINUOUS
10
130.812
20
-115.239
11
130.8
21
-115.218
0
LINE
8
BLACK
6
CONTINUOUS
10
130.8
20
-115.218
11
130.785
21
-115.199
0
LINE
8
BLACK
6
CONTINUOUS
10
130.785
20
-115.199
11
130.782
21
-115.196
0
LINE
8
BLACK
6
CONTINUOUS
10
130.782
20
-115.196
11
130.782
21
-115.196
0
LINE
8
BLACK
6
CONTINUOUS
10
130.782
20
-115.196
11
130.684
21
-115.098
0
LINE
8
BLACK
6
CONTINUOUS
10
130.684
20
-115.098
11
130.608
21
-114.984
0
LINE
8
BLACK
6
CONTINUOUS
10
130.608
20
-114.984
11
130.608
21
-114.984
0
LINE
8
BLACK
6
CONTINUOUS
10
130.608
20
-114.984
11
130.555
21
-114.856
0
LINE
8
BLACK
6
CONTINUOUS
10
130.555
20
-114.856
11
130.528
21
-114.721
0
LINE
8
BLACK
6
CONTINUOUS
10
130.528
20
-114.721
11
130.528
21
-114.583
0
LINE
8
BLACK
6
CONTINUOUS
10
130.528
20
-114.583
11
130.555
21
-114.448
0
LINE
8
BLACK
6
CONTINUOUS
10
130.555
20
-114.448
11
130.608
21
-114.32
0
LINE
8
BLACK
6
CONTINUOUS
10
130.608
20
-114.32
11
130.658
21
-114.245
0
LINE
8
BLACK
6
CONTINUOUS
10
130.658
20
-114.245
11
130.684
21
-114.206
0
LINE
8
BLACK
6
CONTINUOUS
10
130.684
20
-114.206
11
130.782
21
-114.108
0
LINE
8
BLACK
6
CONTINUOUS
10
130.782
20
-114.108
11
130.782
21
-114.108
0
LINE
8
BLACK
6
CONTINUOUS
10
130.782
20
-114.108
11
130.785
21
-114.105
0
LINE
8
BLACK
6
CONTINUOUS
10
130.785
20
-114.105
11
130.8
21
-114.086
0
LINE
8
BLACK
6
CONTINUOUS
10
130.8
20
-114.086
11
130.812
21
-114.065
0
LINE
8
BLACK
6
CONTINUOUS
10
130.812
20
-114.065
11
130.819
21
-114.041
0
LINE
8
BLACK
6
CONTINUOUS
10
130.819
20
-114.041
11
130.821
21
-114.017
0
LINE
8
BLACK
6
CONTINUOUS
10
130.821
20
-114.017
11
131.635
21
-114.017
0
LINE
8
BLACK
6
CONTINUOUS
10
131.635
20
-114.017
11
131.637
21
-114.041
0
LINE
8
BLACK
6
CONTINUOUS
10
131.637
20
-114.041
11
131.644
21
-114.065
0
LINE
8
BLACK
6
CONTINUOUS
10
131.644
20
-114.065
11
131.656
21
-114.086
0
LINE
8
BLACK
6
CONTINUOUS
10
131.656
20
-114.086
11
131.671
21
-114.105
0
LINE
8
BLACK
6
CONTINUOUS
10
131.671
20
-114.105
11
131.674
21
-114.108
0
LINE
8
BLACK
6
CONTINUOUS
10
131.674
20
-114.108
11
131.674
21
-114.108
0
LINE
8
BLACK
6
CONTINUOUS
10
131.674
20
-114.108
11
131.772
21
-114.206
0
LINE
8
BLACK
6
CONTINUOUS
10
131.772
20
-114.206
11
131.772
21
-114.206
0
LINE
8
BLACK
6
CONTINUOUS
10
131.772
20
-114.206
11
131.775
21
-114.209
0
LINE
8
BLACK
6
CONTINUOUS
10
131.775
20
-114.209
11
131.794
21
-114.224
0
LINE
8
BLACK
6
CONTINUOUS
10
131.794
20
-114.224
11
131.815
21
-114.236
0
LINE
8
BLACK
6
CONTINUOUS
10
131.815
20
-114.236
11
131.839
21
-114.243
0
LINE
8
BLACK
6
CONTINUOUS
10
131.839
20
-114.243
11
131.863
21
-114.245
0
LINE
8
BLACK
6
CONTINUOUS
10
131.863
20
-114.245
11
131.887
21
-114.243
0
LINE
8
BLACK
6
CONTINUOUS
10
131.887
20
-114.243
11
131.911
21
-114.236
0
LINE
8
BLACK
6
CONTINUOUS
10
131.911
20
-114.236
11
131.932
21
-114.224
0
LINE
8
BLACK
6
CONTINUOUS
10
131.932
20
-114.224
11
131.951
21
-114.209
0
LINE
8
BLACK
6
CONTINUOUS
10
131.951
20
-114.209
11
131.954
21
-114.206
0
LINE
8
BLACK
6
CONTINUOUS
10
131.954
20
-114.206
11
131.954
21
-114.206
0
LINE
8
BLACK
6
CONTINUOUS
10
131.954
20
-114.206
11
132.052
21
-114.108
0
LINE
8
BLACK
6
CONTINUOUS
10
132.052
20
-114.108
11
132.052
21
-114.108
0
LINE
8
BLACK
6
CONTINUOUS
10
132.052
20
-114.108
11
132.055
21
-114.105
0
LINE
8
BLACK
6
CONTINUOUS
10
132.055
20
-114.105
11
132.07
21
-114.086
0
LINE
8
BLACK
6
CONTINUOUS
10
132.07
20
-114.086
11
132.082
21
-114.065
0
LINE
8
BLACK
6
CONTINUOUS
10
132.082
20
-114.065
11
132.089
21
-114.041
0
LINE
8
BLACK
6
CONTINUOUS
10
132.089
20
-114.041
11
132.091
21
-114.017
0
LINE
8
BLACK
6
CONTINUOUS
10
132.091
20
-114.017
11
132.089
21
-113.993
0
LINE
8
BLACK
6
CONTINUOUS
10
132.089
20
-113.993
11
132.082
21
-113.969
0
LINE
8
BLACK
6
CONTINUOUS
10
132.082
20
-113.969
11
132.07
21
-113.948
0
LINE
8
BLACK
6
CONTINUOUS
10
132.07
20
-113.948
11
132.055
21
-113.929
0
LINE
8
BLACK
6
CONTINUOUS
10
132.055
20
-113.929
11
132.052
21
-113.926
0
LINE
8
BLACK
6
CONTINUOUS
10
132.052
20
-113.926
11
132.052
21
-113.926
0
LINE
8
BLACK
6
CONTINUOUS
10
132.052
20
-113.926
11
131.954
21
-113.828
0
LINE
8
BLACK
6
CONTINUOUS
10
131.954
20
-113.828
11
131.954
21
-113.828
0
LINE
8
BLACK
6
CONTINUOUS
10
131.954
20
-113.828
11
131.951
21
-113.825
0
LINE
8
BLACK
6
CONTINUOUS
10
131.951
20
-113.825
11
131.932
21
-113.81
0
LINE
8
BLACK
6
CONTINUOUS
10
131.932
20
-113.81
11
131.911
21
-113.798
0
LINE
8
BLACK
6
CONTINUOUS
10
131.911
20
-113.798
11
131.887
21
-113.791
0
LINE
8
BLACK
6
CONTINUOUS
10
131.887
20
-113.791
11
131.863
21
-113.789
0
LINE
8
BLACK
6
CONTINUOUS
10
131.863
20
-113.789
11
131.839
21
-113.791
0
LINE
8
BLACK
6
CONTINUOUS
10
131.839
20
-113.791
11
131.815
21
-113.798
0
LINE
8
BLACK
6
CONTINUOUS
10
131.815
20
-113.798
11
131.794
21
-113.81
0
LINE
8
BLACK
6
CONTINUOUS
10
131.794
20
-113.81
11
131.775
21
-113.825
0
LINE
8
BLACK
6
CONTINUOUS
10
131.775
20
-113.825
11
131.772
21
-113.828
0
LINE
8
BLACK
6
CONTINUOUS
10
131.772
20
-113.828
11
131.772
21
-113.828
0
LINE
8
BLACK
6
CONTINUOUS
10
131.772
20
-113.828
11
131.674
21
-113.926
0
LINE
8
BLACK
6
CONTINUOUS
10
131.674
20
-113.926
11
131.674
21
-113.926
0
LINE
8
BLACK
6
CONTINUOUS
10
131.674
20
-113.926
11
131.671
21
-113.929
0
LINE
8
BLACK
6
CONTINUOUS
10
131.671
20
-113.929
11
131.656
21
-113.948
0
LINE
8
BLACK
6
CONTINUOUS
10
131.656
20
-113.948
11
131.644
21
-113.969
0
LINE
8
BLACK
6
CONTINUOUS
10
131.644
20
-113.969
11
131.637
21
-113.993
0
LINE
8
BLACK
6
CONTINUOUS
10
131.637
20
-113.993
11
131.635
21
-114.017
0
LINE
8
BLACK
6
CONTINUOUS
10
131.635
20
-114.017
11
130.821
21
-114.017
0
LINE
8
BLACK
6
CONTINUOUS
10
130.821
20
-114.017
11
130.819
21
-113.993
0
LINE
8
BLACK
6
CONTINUOUS
10
130.819
20
-113.993
11
130.812
21
-113.969
0
LINE
8
BLACK
6
CONTINUOUS
10
130.812
20
-113.969
11
130.8
21
-113.948
0
LINE
8
BLACK
6
CONTINUOUS
10
130.8
20
-113.948
11
130.785
21
-113.929
0
LINE
8
BLACK
6
CONTINUOUS
10
130.785
20
-113.929
11
130.782
21
-113.926
0
LINE
8
BLACK
6
CONTINUOUS
10
130.782
20
-113.926
11
130.782
21
-113.926
0
LINE
8
BLACK
6
CONTINUOUS
10
130.782
20
-113.926
11
130.684
21
-113.828
0
LINE
8
BLACK
6
CONTINUOUS
10
130.684
20
-113.828
11
130.608
21
-113.714
0
LINE
8
BLACK
6
CONTINUOUS
10
130.608
20
-113.714
11
130.608
21
-113.714
0
LINE
8
BLACK
6
CONTINUOUS
10
130.608
20
-113.714
11
130.555
21
-113.586
0
LINE
8
BLACK
6
CONTINUOUS
10
130.555
20
-113.586
11
130.528
21
-113.451
0
LINE
8
BLACK
6
CONTINUOUS
10
130.528
20
-113.451
11
130.528
21
-113.313
0
LINE
8
BLACK
6
CONTINUOUS
10
130.528
20
-113.313
11
130.555
21
-113.178
0
LINE
8
BLACK
6
CONTINUOUS
10
130.555
20
-113.178
11
130.608
21
-113.05
0
LINE
8
BLACK
6
CONTINUOUS
10
130.608
20
-113.05
11
130.658
21
-112.975
0
LINE
8
BLACK
6
CONTINUOUS
10
130.658
20
-112.975
11
130.684
21
-112.936
0
LINE
8
BLACK
6
CONTINUOUS
10
130.684
20
-112.936
11
130.782
21
-112.838
0
LINE
8
BLACK
6
CONTINUOUS
10
130.782
20
-112.838
11
130.885
21
-112.769
0
LINE
8
BLACK
6
CONTINUOUS
10
130.885
20
-112.769
11
130.896
21
-112.762
0
LINE
8
BLACK
6
CONTINUOUS
10
130.896
20
-112.762
11
131.024
21
-112.709
0
LINE
8
BLACK
6
CONTINUOUS
10
131.024
20
-112.709
11
131.159
21
-112.682
0
LINE
8
BLACK
6
CONTINUOUS
10
131.159
20
-112.682
11
131.297
21
-112.682
0
LINE
8
BLACK
6
CONTINUOUS
10
131.297
20
-112.682
11
131.432
21
-112.709
0
LINE
8
BLACK
6
CONTINUOUS
10
160.215
20
-117.616
11
160.267
21
-117.632
0
LINE
8
BLACK
6
CONTINUOUS
10
160.267
20
-117.632
11
160.315
21
-117.658
0
LINE
8
BLACK
6
CONTINUOUS
10
160.315
20
-117.658
11
160.358
21
-117.692
0
LINE
8
BLACK
6
CONTINUOUS
10
160.358
20
-117.692
11
160.392
21
-117.735
0
LINE
8
BLACK
6
CONTINUOUS
10
160.392
20
-117.735
11
160.418
21
-117.783
0
LINE
8
BLACK
6
CONTINUOUS
10
160.418
20
-117.783
11
160.434
21
-117.835
0
LINE
8
BLACK
6
CONTINUOUS
10
160.434
20
-117.835
11
160.44
21
-117.896
0
LINE
8
BLACK
6
CONTINUOUS
10
160.44
20
-117.896
11
160.44
21
-118.774
0
LINE
8
BLACK
6
CONTINUOUS
10
160.44
20
-118.774
11
160.434
21
-118.835
0
LINE
8
BLACK
6
CONTINUOUS
10
160.434
20
-118.835
11
160.418
21
-118.887
0
LINE
8
BLACK
6
CONTINUOUS
10
160.418
20
-118.887
11
160.392
21
-118.935
0
LINE
8
BLACK
6
CONTINUOUS
10
160.392
20
-118.935
11
160.358
21
-118.978
0
LINE
8
BLACK
6
CONTINUOUS
10
160.358
20
-118.978
11
160.315
21
-119.012
0
LINE
8
BLACK
6
CONTINUOUS
10
160.315
20
-119.012
11
160.267
21
-119.038
0
LINE
8
BLACK
6
CONTINUOUS
10
160.267
20
-119.038
11
160.215
21
-119.054
0
LINE
8
BLACK
6
CONTINUOUS
10
160.215
20
-119.054
11
160.154
21
-119.06
0
LINE
8
BLACK
6
CONTINUOUS
10
160.154
20
-119.06
11
159.201
21
-119.06
0
LINE
8
BLACK
6
CONTINUOUS
10
159.201
20
-119.06
11
159.14
21
-119.054
0
LINE
8
BLACK
6
CONTINUOUS
10
159.14
20
-119.054
11
159.088
21
-119.038
0
LINE
8
BLACK
6
CONTINUOUS
10
159.088
20
-119.038
11
159.04
21
-119.012
0
LINE
8
BLACK
6
CONTINUOUS
10
159.04
20
-119.012
11
158.997
21
-118.978
0
LINE
8
BLACK
6
CONTINUOUS
10
158.997
20
-118.978
11
158.963
21
-118.935
0
LINE
8
BLACK
6
CONTINUOUS
10
158.963
20
-118.935
11
158.937
21
-118.887
0
LINE
8
BLACK
6
CONTINUOUS
10
158.937
20
-118.887
11
158.921
21
-118.835
0
LINE
8
BLACK
6
CONTINUOUS
10
158.921
20
-118.835
11
158.915
21
-118.774
0
LINE
8
BLACK
6
CONTINUOUS
10
158.915
20
-118.774
11
158.915
21
-117.896
0
LINE
8
BLACK
6
CONTINUOUS
10
158.915
20
-117.896
11
158.921
21
-117.835
0
LINE
8
BLACK
6
CONTINUOUS
10
158.921
20
-117.835
11
158.937
21
-117.783
0
LINE
8
BLACK
6
CONTINUOUS
10
158.937
20
-117.783
11
158.963
21
-117.735
0
LINE
8
BLACK
6
CONTINUOUS
10
158.963
20
-117.735
11
158.997
21
-117.692
0
LINE
8
BLACK
6
CONTINUOUS
10
158.997
20
-117.692
11
159.04
21
-117.658
0
LINE
8
BLACK
6
CONTINUOUS
10
159.04
20
-117.658
11
159.088
21
-117.632
0
LINE
8
BLACK
6
CONTINUOUS
10
159.088
20
-117.632
11
159.14
21
-117.616
0
LINE
8
BLACK
6
CONTINUOUS
10
159.14
20
-117.616
11
159.201
21
-117.61
0
LINE
8
BLACK
6
CONTINUOUS
10
159.201
20
-117.61
11
160.154
21
-117.61
0
LINE
8
BLACK
6
CONTINUOUS
10
160.154
20
-117.61
11
160.215
21
-117.616
0
LINE
8
BLACK
6
CONTINUOUS
10
161.99
20
-117.616
11
162.042
21
-117.632
0
LINE
8
BLACK
6
CONTINUOUS
10
162.042
20
-117.632
11
162.09
21
-117.658
0
LINE
8
BLACK
6
CONTINUOUS
10
162.09
20
-117.658
11
162.133
21
-117.692
0
LINE
8
BLACK
6
CONTINUOUS
10
162.133
20
-117.692
11
162.167
21
-117.735
0
LINE
8
BLACK
6
CONTINUOUS
10
162.167
20
-117.735
11
162.193
21
-117.783
0
LINE
8
BLACK
6
CONTINUOUS
10
162.193
20
-117.783
11
162.209
21
-117.835
0
LINE
8
BLACK
6
CONTINUOUS
10
162.209
20
-117.835
11
162.215
21
-117.896
0
LINE
8
BLACK
6
CONTINUOUS
10
162.215
20
-117.896
11
162.215
21
-118.774
0
LINE
8
BLACK
6
CONTINUOUS
10
162.215
20
-118.774
11
162.209
21
-118.835
0
LINE
8
BLACK
6
CONTINUOUS
10
162.209
20
-118.835
11
162.193
21
-118.887
0
LINE
8
BLACK
6
CONTINUOUS
10
162.193
20
-118.887
11
162.167
21
-118.935
0
LINE
8
BLACK
6
CONTINUOUS
10
162.167
20
-118.935
11
162.133
21
-118.978
0
LINE
8
BLACK
6
CONTINUOUS
10
162.133
20
-118.978
11
162.09
21
-119.012
0
LINE
8
BLACK
6
CONTINUOUS
10
162.09
20
-119.012
11
162.042
21
-119.038
0
LINE
8
BLACK
6
CONTINUOUS
10
162.042
20
-119.038
11
161.99
21
-119.054
0
LINE
8
BLACK
6
CONTINUOUS
10
161.99
20
-119.054
11
161.929
21
-119.06
0
LINE
8
BLACK
6
CONTINUOUS
10
161.929
20
-119.06
11
160.976
21
-119.06
0
LINE
8
BLACK
6
CONTINUOUS
10
160.976
20
-119.06
11
160.915
21
-119.054
0
LINE
8
BLACK
6
CONTINUOUS
10
160.915
20
-119.054
11
160.863
21
-119.038
0
LINE
8
BLACK
6
CONTINUOUS
10
160.863
20
-119.038
11
160.815
21
-119.012
0
LINE
8
BLACK
6
CONTINUOUS
10
160.815
20
-119.012
11
160.772
21
-118.978
0
LINE
8
BLACK
6
CONTINUOUS
10
160.772
20
-118.978
11
160.738
21
-118.935
0
LINE
8
BLACK
6
CONTINUOUS
10
160.738
20
-118.935
11
160.712
21
-118.887
0
LINE
8
BLACK
6
CONTINUOUS
10
160.712
20
-118.887
11
160.696
21
-118.835
0
LINE
8
BLACK
6
CONTINUOUS
10
160.696
20
-118.835
11
160.69
21
-118.774
0
LINE
8
BLACK
6
CONTINUOUS
10
160.69
20
-118.774
11
160.69
21
-117.896
0
LINE
8
BLACK
6
CONTINUOUS
10
160.69
20
-117.896
11
160.696
21
-117.835
0
LINE
8
BLACK
6
CONTINUOUS
10
160.696
20
-117.835
11
160.712
21
-117.783
0
LINE
8
BLACK
6
CONTINUOUS
10
160.712
20
-117.783
11
160.738
21
-117.735
0
LINE
8
BLACK
6
CONTINUOUS
10
160.738
20
-117.735
11
160.772
21
-117.692
0
LINE
8
BLACK
6
CONTINUOUS
10
160.772
20
-117.692
11
160.815
21
-117.658
0
LINE
8
BLACK
6
CONTINUOUS
10
160.815
20
-117.658
11
160.863
21
-117.632
0
LINE
8
BLACK
6
CONTINUOUS
10
160.863
20
-117.632
11
160.915
21
-117.616
0
LINE
8
BLACK
6
CONTINUOUS
10
160.915
20
-117.616
11
160.976
21
-117.61
0
LINE
8
BLACK
6
CONTINUOUS
10
160.976
20
-117.61
11
161.929
21
-117.61
0
LINE
8
BLACK
6
CONTINUOUS
10
161.929
20
-117.61
11
161.99
21
-117.616
0
LINE
8
BLACK
6
CONTINUOUS
10
144.827
20
-116.787
11
140.997
21
-116.787
0
LINE
8
BLACK
6
CONTINUOUS
10
140.997
20
-116.787
11
140.997
21
-115.537
0
LINE
8
BLACK
6
CONTINUOUS
10
140.997
20
-115.537
11
144.827
21
-115.537
0
LINE
8
BLACK
6
CONTINUOUS
10
144.827
20
-115.537
11
144.827
21
-116.787
0
LINE
8
BLACK
6
CONTINUOUS
10
154.811
20
-111.506
11
154.859
21
-111.52
0
LINE
8
BLACK
6
CONTINUOUS
10
154.859
20
-111.52
11
154.903
21
-111.544
0
LINE
8
BLACK
6
CONTINUOUS
10
154.903
20
-111.544
11
154.942
21
-111.575
0
LINE
8
BLACK
6
CONTINUOUS
10
154.942
20
-111.575
11
154.973
21
-111.614
0
LINE
8
BLACK
6
CONTINUOUS
10
154.973
20
-111.614
11
154.997
21
-111.658
0
LINE
8
BLACK
6
CONTINUOUS
10
154.997
20
-111.658
11
155.011
21
-111.706
0
LINE
8
BLACK
6
CONTINUOUS
10
155.011
20
-111.706
11
155.017
21
-111.762
0
LINE
8
BLACK
6
CONTINUOUS
10
155.017
20
-111.762
11
155.017
21
-112.513
0
LINE
8
BLACK
6
CONTINUOUS
10
155.017
20
-112.513
11
155.011
21
-112.569
0
LINE
8
BLACK
6
CONTINUOUS
10
155.011
20
-112.569
11
154.997
21
-112.617
0
LINE
8
BLACK
6
CONTINUOUS
10
154.997
20
-112.617
11
154.973
21
-112.661
0
LINE
8
BLACK
6
CONTINUOUS
10
154.973
20
-112.661
11
154.942
21
-112.7
0
LINE
8
BLACK
6
CONTINUOUS
10
154.942
20
-112.7
11
154.903
21
-112.731
0
LINE
8
BLACK
6
CONTINUOUS
10
154.903
20
-112.731
11
154.859
21
-112.755
0
LINE
8
BLACK
6
CONTINUOUS
10
154.859
20
-112.755
11
154.811
21
-112.769
0
LINE
8
BLACK
6
CONTINUOUS
10
154.811
20
-112.769
11
154.755
21
-112.775
0
LINE
8
BLACK
6
CONTINUOUS
10
154.755
20
-112.775
11
153.929
21
-112.775
0
LINE
8
BLACK
6
CONTINUOUS
10
153.929
20
-112.775
11
153.873
21
-112.769
0
LINE
8
BLACK
6
CONTINUOUS
10
153.873
20
-112.769
11
153.825
21
-112.755
0
LINE
8
BLACK
6
CONTINUOUS
10
153.825
20
-112.755
11
153.781
21
-112.731
0
LINE
8
BLACK
6
CONTINUOUS
10
153.781
20
-112.731
11
153.742
21
-112.7
0
LINE
8
BLACK
6
CONTINUOUS
10
153.742
20
-112.7
11
153.711
21
-112.661
0
LINE
8
BLACK
6
CONTINUOUS
10
153.711
20
-112.661
11
153.687
21
-112.617
0
LINE
8
BLACK
6
CONTINUOUS
10
153.687
20
-112.617
11
153.673
21
-112.569
0
LINE
8
BLACK
6
CONTINUOUS
10
153.673
20
-112.569
11
153.667
21
-112.513
0
LINE
8
BLACK
6
CONTINUOUS
10
153.667
20
-112.513
11
153.667
21
-111.762
0
LINE
8
BLACK
6
CONTINUOUS
10
153.667
20
-111.762
11
153.673
21
-111.706
0
LINE
8
BLACK
6
CONTINUOUS
10
153.673
20
-111.706
11
153.687
21
-111.658
0
LINE
8
BLACK
6
CONTINUOUS
10
153.687
20
-111.658
11
153.711
21
-111.614
0
LINE
8
BLACK
6
CONTINUOUS
10
153.711
20
-111.614
11
153.742
21
-111.575
0
LINE
8
BLACK
6
CONTINUOUS
10
153.742
20
-111.575
11
153.781
21
-111.544
0
LINE
8
BLACK
6
CONTINUOUS
10
153.781
20
-111.544
11
153.825
21
-111.52
0
LINE
8
BLACK
6
CONTINUOUS
10
153.825
20
-111.52
11
153.873
21
-111.506
0
LINE
8
BLACK
6
CONTINUOUS
10
153.873
20
-111.506
11
153.929
21
-111.5
0
LINE
8
BLACK
6
CONTINUOUS
10
153.929
20
-111.5
11
154.755
21
-111.5
0
LINE
8
BLACK
6
CONTINUOUS
10
154.755
20
-111.5
11
154.811
21
-111.506
0
LINE
8
BLACK
6
CONTINUOUS
10
149.927
20
-111.65
11
140.977
21
-111.65
0
LINE
8
BLACK
6
CONTINUOUS
10
140.977
20
-111.65
11
140.977
21
-109.75
0
LINE
8
BLACK
6
CONTINUOUS
10
140.977
20
-109.75
11
149.927
21
-109.75
0
LINE
8
BLACK
6
CONTINUOUS
10
149.927
20
-109.75
11
149.927
21
-111.65
0
LINE
8
BLACK
6
CONTINUOUS
10
154.811
20
-109.931
11
154.859
21
-109.945
0
LINE
8
BLACK
6
CONTINUOUS
10
154.859
20
-109.945
11
154.903
21
-109.969
0
LINE
8
BLACK
6
CONTINUOUS
10
154.903
20
-109.969
11
154.942
21
-110
0
LINE
8
BLACK
6
CONTINUOUS
10
154.942
20
-110
11
154.973
21
-110.039
0
LINE
8
BLACK
6
CONTINUOUS
10
154.973
20
-110.039
11
154.997
21
-110.083
0
LINE
8
BLACK
6
CONTINUOUS
10
154.997
20
-110.083
11
155.011
21
-110.131
0
LINE
8
BLACK
6
CONTINUOUS
10
155.011
20
-110.131
11
155.017
21
-110.187
0
LINE
8
BLACK
6
CONTINUOUS
10
155.017
20
-110.187
11
155.017
21
-110.938
0
LINE
8
BLACK
6
CONTINUOUS
10
155.017
20
-110.938
11
155.011
21
-110.994
0
LINE
8
BLACK
6
CONTINUOUS
10
155.011
20
-110.994
11
154.997
21
-111.042
0
LINE
8
BLACK
6
CONTINUOUS
10
154.997
20
-111.042
11
154.973
21
-111.086
0
LINE
8
BLACK
6
CONTINUOUS
10
154.973
20
-111.086
11
154.942
21
-111.125
0
LINE
8
BLACK
6
CONTINUOUS
10
154.942
20
-111.125
11
154.903
21
-111.156
0
LINE
8
BLACK
6
CONTINUOUS
10
154.903
20
-111.156
11
154.859
21
-111.18
0
LINE
8
BLACK
6
CONTINUOUS
10
154.859
20
-111.18
11
154.811
21
-111.194
0
LINE
8
BLACK
6
CONTINUOUS
10
154.811
20
-111.194
11
154.755
21
-111.2
0
LINE
8
BLACK
6
CONTINUOUS
10
154.755
20
-111.2
11
153.929
21
-111.2
0
LINE
8
BLACK
6
CONTINUOUS
10
153.929
20
-111.2
11
153.873
21
-111.194
0
LINE
8
BLACK
6
CONTINUOUS
10
153.873
20
-111.194
11
153.825
21
-111.18
0
LINE
8
BLACK
6
CONTINUOUS
10
153.825
20
-111.18
11
153.781
21
-111.156
0
LINE
8
BLACK
6
CONTINUOUS
10
153.781
20
-111.156
11
153.742
21
-111.125
0
LINE
8
BLACK
6
CONTINUOUS
10
153.742
20
-111.125
11
153.711
21
-111.086
0
LINE
8
BLACK
6
CONTINUOUS
10
153.711
20
-111.086
11
153.687
21
-111.042
0
LINE
8
BLACK
6
CONTINUOUS
10
153.687
20
-111.042
11
153.673
21
-110.994
0
LINE
8
BLACK
6
CONTINUOUS
10
153.673
20
-110.994
11
153.667
21
-110.938
0
LINE
8
BLACK
6
CONTINUOUS
10
153.667
20
-110.938
11
153.667
21
-110.187
0
LINE
8
BLACK
6
CONTINUOUS
10
153.667
20
-110.187
11
153.673
21
-110.131
0
LINE
8
BLACK
6
CONTINUOUS
10
153.673
20
-110.131
11
153.687
21
-110.083
0
LINE
8
BLACK
6
CONTINUOUS
10
153.687
20
-110.083
11
153.711
21
-110.039
0
LINE
8
BLACK
6
CONTINUOUS
10
153.711
20
-110.039
11
153.742
21
-110
0
LINE
8
BLACK
6
CONTINUOUS
10
153.742
20
-110
11
153.781
21
-109.969
0
LINE
8
BLACK
6
CONTINUOUS
10
153.781
20
-109.969
11
153.825
21
-109.945
0
LINE
8
BLACK
6
CONTINUOUS
10
153.825
20
-109.945
11
153.873
21
-109.931
0
LINE
8
BLACK
6
CONTINUOUS
10
153.873
20
-109.931
11
153.929
21
-109.925
0
LINE
8
BLACK
6
CONTINUOUS
10
153.929
20
-109.925
11
154.755
21
-109.925
0
LINE
8
BLACK
6
CONTINUOUS
10
154.755
20
-109.925
11
154.811
21
-109.931
0
LINE
8
BLACK
6
CONTINUOUS
10
152.102
20
-109.475
11
150.202
21
-109.475
0
LINE
8
BLACK
6
CONTINUOUS
10
150.202
20
-109.475
11
150.202
21
-100.525
0
LINE
8
BLACK
6
CONTINUOUS
10
150.202
20
-100.525
11
152.102
21
-100.525
0
LINE
8
BLACK
6
CONTINUOUS
10
152.102
20
-100.525
11
152.102
21
-109.475
0
LINE
8
BLACK
6
CONTINUOUS
10
140.702
20
-109.475
11
138.802
21
-109.475
0
LINE
8
BLACK
6
CONTINUOUS
10
138.802
20
-109.475
11
138.802
21
-100.525
0
LINE
8
BLACK
6
CONTINUOUS
10
138.802
20
-100.525
11
140.702
21
-100.525
0
LINE
8
BLACK
6
CONTINUOUS
10
140.702
20
-100.525
11
140.702
21
-109.475
0
LINE
8
BLACK
6
CONTINUOUS
10
154.842
20
-107.417
11
154.894
21
-107.433
0
LINE
8
BLACK
6
CONTINUOUS
10
154.894
20
-107.433
11
154.942
21
-107.459
0
LINE
8
BLACK
6
CONTINUOUS
10
154.942
20
-107.459
11
154.985
21
-107.493
0
LINE
8
BLACK
6
CONTINUOUS
10
154.985
20
-107.493
11
155.019
21
-107.536
0
LINE
8
BLACK
6
CONTINUOUS
10
155.019
20
-107.536
11
155.045
21
-107.584
0
LINE
8
BLACK
6
CONTINUOUS
10
155.045
20
-107.584
11
155.061
21
-107.636
0
LINE
8
BLACK
6
CONTINUOUS
10
155.061
20
-107.636
11
155.067
21
-107.697
0
LINE
8
BLACK
6
CONTINUOUS
10
155.067
20
-107.697
11
155.067
21
-108.65
0
LINE
8
BLACK
6
CONTINUOUS
10
155.067
20
-108.65
11
155.061
21
-108.711
0
LINE
8
BLACK
6
CONTINUOUS
10
155.061
20
-108.711
11
155.045
21
-108.763
0
LINE
8
BLACK
6
CONTINUOUS
10
155.045
20
-108.763
11
155.019
21
-108.811
0
LINE
8
BLACK
6
CONTINUOUS
10
155.019
20
-108.811
11
154.985
21
-108.854
0
LINE
8
BLACK
6
CONTINUOUS
10
154.985
20
-108.854
11
154.942
21
-108.888
0
LINE
8
BLACK
6
CONTINUOUS
10
154.942
20
-108.888
11
154.894
21
-108.914
0
LINE
8
BLACK
6
CONTINUOUS
10
154.894
20
-108.914
11
154.842
21
-108.93
0
LINE
8
BLACK
6
CONTINUOUS
10
154.842
20
-108.93
11
154.781
21
-108.936
0
LINE
8
BLACK
6
CONTINUOUS
10
154.781
20
-108.936
11
153.903
21
-108.936
0
LINE
8
BLACK
6
CONTINUOUS
10
153.903
20
-108.936
11
153.842
21
-108.93
0
LINE
8
BLACK
6
CONTINUOUS
10
153.842
20
-108.93
11
153.79
21
-108.914
0
LINE
8
BLACK
6
CONTINUOUS
10
153.79
20
-108.914
11
153.742
21
-108.888
0
LINE
8
BLACK
6
CONTINUOUS
10
153.742
20
-108.888
11
153.699
21
-108.854
0
LINE
8
BLACK
6
CONTINUOUS
10
153.699
20
-108.854
11
153.665
21
-108.811
0
LINE
8
BLACK
6
CONTINUOUS
10
153.665
20
-108.811
11
153.639
21
-108.763
0
LINE
8
BLACK
6
CONTINUOUS
10
153.639
20
-108.763
11
153.623
21
-108.711
0
LINE
8
BLACK
6
CONTINUOUS
10
153.623
20
-108.711
11
153.617
21
-108.65
0
LINE
8
BLACK
6
CONTINUOUS
10
153.617
20
-108.65
11
153.617
21
-107.697
0
LINE
8
BLACK
6
CONTINUOUS
10
153.617
20
-107.697
11
153.623
21
-107.636
0
LINE
8
BLACK
6
CONTINUOUS
10
153.623
20
-107.636
11
153.639
21
-107.584
0
LINE
8
BLACK
6
CONTINUOUS
10
153.639
20
-107.584
11
153.665
21
-107.536
0
LINE
8
BLACK
6
CONTINUOUS
10
153.665
20
-107.536
11
153.699
21
-107.493
0
LINE
8
BLACK
6
CONTINUOUS
10
153.699
20
-107.493
11
153.742
21
-107.459
0
LINE
8
BLACK
6
CONTINUOUS
10
153.742
20
-107.459
11
153.79
21
-107.433
0
LINE
8
BLACK
6
CONTINUOUS
10
153.79
20
-107.433
11
153.842
21
-107.417
0
LINE
8
BLACK
6
CONTINUOUS
10
153.842
20
-107.417
11
153.903
21
-107.411
0
LINE
8
BLACK
6
CONTINUOUS
10
153.903
20
-107.411
11
154.781
21
-107.411
0
LINE
8
BLACK
6
CONTINUOUS
10
154.781
20
-107.411
11
154.842
21
-107.417
0
LINE
8
BLACK
6
CONTINUOUS
10
133.389
20
-106.498
11
133.466
21
-106.505
0
LINE
8
BLACK
6
CONTINUOUS
10
133.466
20
-106.505
11
133.66
21
-106.564
0
LINE
8
BLACK
6
CONTINUOUS
10
133.66
20
-106.564
11
133.664
21
-106.565
0
LINE
8
BLACK
6
CONTINUOUS
10
133.664
20
-106.565
11
133.846
21
-106.663
0
LINE
8
BLACK
6
CONTINUOUS
10
133.846
20
-106.663
11
134.006
21
-106.794
0
LINE
8
BLACK
6
CONTINUOUS
10
134.006
20
-106.794
11
134.137
21
-106.954
0
LINE
8
BLACK
6
CONTINUOUS
10
134.137
20
-106.954
11
134.235
21
-107.136
0
LINE
8
BLACK
6
CONTINUOUS
10
134.235
20
-107.136
11
134.235
21
-107.136
0
LINE
8
BLACK
6
CONTINUOUS
10
134.235
20
-107.136
11
134.295
21
-107.334
0
LINE
8
BLACK
6
CONTINUOUS
10
134.295
20
-107.334
11
134.315
21
-107.54
0
LINE
8
BLACK
6
CONTINUOUS
10
134.315
20
-107.54
11
134.295
21
-107.746
0
LINE
8
BLACK
6
CONTINUOUS
10
134.295
20
-107.746
11
134.235
21
-107.944
0
LINE
8
BLACK
6
CONTINUOUS
10
134.235
20
-107.944
11
134.235
21
-107.944
0
LINE
8
BLACK
6
CONTINUOUS
10
134.235
20
-107.944
11
134.137
21
-108.126
0
LINE
8
BLACK
6
CONTINUOUS
10
134.137
20
-108.126
11
134.006
21
-108.286
0
LINE
8
BLACK
6
CONTINUOUS
10
134.006
20
-108.286
11
133.846
21
-108.417
0
LINE
8
BLACK
6
CONTINUOUS
10
133.846
20
-108.417
11
133.664
21
-108.515
0
LINE
8
BLACK
6
CONTINUOUS
10
133.664
20
-108.515
11
133.664
21
-108.515
0
LINE
8
BLACK
6
CONTINUOUS
10
133.664
20
-108.515
11
133.466
21
-108.575
0
LINE
8
BLACK
6
CONTINUOUS
10
133.466
20
-108.575
11
133.389
21
-108.582
0
LINE
8
BLACK
6
CONTINUOUS
10
133.389
20
-108.582
11
133.312
21
-108.59
0
LINE
8
BLACK
6
CONTINUOUS
10
133.312
20
-108.59
11
133.208
21
-108.59
0
LINE
8
BLACK
6
CONTINUOUS
10
133.208
20
-108.59
11
133.131
21
-108.582
0
LINE
8
BLACK
6
CONTINUOUS
10
133.131
20
-108.582
11
133.054
21
-108.575
0
LINE
8
BLACK
6
CONTINUOUS
10
133.054
20
-108.575
11
132.856
21
-108.515
0
LINE
8
BLACK
6
CONTINUOUS
10
132.856
20
-108.515
11
132.856
21
-108.515
0
LINE
8
BLACK
6
CONTINUOUS
10
132.856
20
-108.515
11
132.674
21
-108.417
0
LINE
8
BLACK
6
CONTINUOUS
10
132.674
20
-108.417
11
132.514
21
-108.286
0
LINE
8
BLACK
6
CONTINUOUS
10
132.514
20
-108.286
11
132.383
21
-108.126
0
LINE
8
BLACK
6
CONTINUOUS
10
132.383
20
-108.126
11
132.285
21
-107.944
0
LINE
8
BLACK
6
CONTINUOUS
10
132.285
20
-107.944
11
132.285
21
-107.944
0
LINE
8
BLACK
6
CONTINUOUS
10
132.285
20
-107.944
11
132.225
21
-107.746
0
LINE
8
BLACK
6
CONTINUOUS
10
132.225
20
-107.746
11
132.205
21
-107.54
0
LINE
8
BLACK
6
CONTINUOUS
10
132.205
20
-107.54
11
132.225
21
-107.334
0
LINE
8
BLACK
6
CONTINUOUS
10
132.225
20
-107.334
11
132.285
21
-107.136
0
LINE
8
BLACK
6
CONTINUOUS
10
132.285
20
-107.136
11
132.285
21
-107.136
0
LINE
8
BLACK
6
CONTINUOUS
10
132.285
20
-107.136
11
132.383
21
-106.954
0
LINE
8
BLACK
6
CONTINUOUS
10
132.383
20
-106.954
11
132.514
21
-106.794
0
LINE
8
BLACK
6
CONTINUOUS
10
132.514
20
-106.794
11
132.674
21
-106.663
0
LINE
8
BLACK
6
CONTINUOUS
10
132.674
20
-106.663
11
132.856
21
-106.565
0
LINE
8
BLACK
6
CONTINUOUS
10
132.856
20
-106.565
11
132.86
21
-106.564
0
LINE
8
BLACK
6
CONTINUOUS
10
132.86
20
-106.564
11
133.054
21
-106.505
0
LINE
8
BLACK
6
CONTINUOUS
10
133.054
20
-106.505
11
133.131
21
-106.498
0
LINE
8
BLACK
6
CONTINUOUS
10
133.131
20
-106.498
11
133.208
21
-106.49
0
LINE
8
BLACK
6
CONTINUOUS
10
133.208
20
-106.49
11
133.312
21
-106.49
0
LINE
8
BLACK
6
CONTINUOUS
10
133.312
20
-106.49
11
133.389
21
-106.498
0
LINE
8
BLACK
6
CONTINUOUS
10
167.224
20
-101.959
11
167.224
21
-101.959
0
LINE
8
BLACK
6
CONTINUOUS
10
167.224
20
-101.959
11
167.224
21
-101.959
0
LINE
8
BLACK
6
CONTINUOUS
10
167.224
20
-101.959
11
167.394
21
-102.01
0
LINE
8
BLACK
6
CONTINUOUS
10
167.394
20
-102.01
11
167.394
21
-102.01
0
LINE
8
BLACK
6
CONTINUOUS
10
167.394
20
-102.01
11
167.394
21
-102.01
0
LINE
8
BLACK
6
CONTINUOUS
10
167.394
20
-102.01
11
167.55
21
-102.094
0
LINE
8
BLACK
6
CONTINUOUS
10
167.55
20
-102.094
11
167.687
21
-102.207
0
LINE
8
BLACK
6
CONTINUOUS
10
167.687
20
-102.207
11
167.8
21
-102.344
0
LINE
8
BLACK
6
CONTINUOUS
10
167.8
20
-102.344
11
167.884
21
-102.5
0
LINE
8
BLACK
6
CONTINUOUS
10
167.884
20
-102.5
11
167.938
21
-102.681
0
LINE
8
BLACK
6
CONTINUOUS
10
167.938
20
-102.681
11
167.948
21
-102.703
0
LINE
8
BLACK
6
CONTINUOUS
10
167.948
20
-102.703
11
167.961
21
-102.724
0
LINE
8
BLACK
6
CONTINUOUS
10
167.961
20
-102.724
11
167.979
21
-102.741
0
LINE
8
BLACK
6
CONTINUOUS
10
167.979
20
-102.741
11
167.999
21
-102.755
0
LINE
8
BLACK
6
CONTINUOUS
10
167.999
20
-102.755
11
168.022
21
-102.764
0
LINE
8
BLACK
6
CONTINUOUS
10
168.022
20
-102.764
11
168.046
21
-102.769
0
LINE
8
BLACK
6
CONTINUOUS
10
168.046
20
-102.769
11
168.07
21
-102.769
0
LINE
8
BLACK
6
CONTINUOUS
10
168.07
20
-102.769
11
168.094
21
-102.764
0
LINE
8
BLACK
6
CONTINUOUS
10
168.094
20
-102.764
11
168.117
21
-102.755
0
LINE
8
BLACK
6
CONTINUOUS
10
168.117
20
-102.755
11
168.137
21
-102.741
0
LINE
8
BLACK
6
CONTINUOUS
10
168.137
20
-102.741
11
168.155
21
-102.724
0
LINE
8
BLACK
6
CONTINUOUS
10
168.155
20
-102.724
11
168.168
21
-102.703
0
LINE
8
BLACK
6
CONTINUOUS
10
168.168
20
-102.703
11
168.178
21
-102.681
0
LINE
8
BLACK
6
CONTINUOUS
10
168.178
20
-102.681
11
168.232
21
-102.5
0
LINE
8
BLACK
6
CONTINUOUS
10
168.232
20
-102.5
11
168.316
21
-102.344
0
LINE
8
BLACK
6
CONTINUOUS
10
168.316
20
-102.344
11
168.429
21
-102.207
0
LINE
8
BLACK
6
CONTINUOUS
10
168.429
20
-102.207
11
168.566
21
-102.094
0
LINE
8
BLACK
6
CONTINUOUS
10
168.566
20
-102.094
11
168.722
21
-102.01
0
LINE
8
BLACK
6
CONTINUOUS
10
168.722
20
-102.01
11
168.722
21
-102.01
0
LINE
8
BLACK
6
CONTINUOUS
10
168.722
20
-102.01
11
168.722
21
-102.01
0
LINE
8
BLACK
6
CONTINUOUS
10
168.722
20
-102.01
11
168.892
21
-101.959
0
LINE
8
BLACK
6
CONTINUOUS
10
168.892
20
-101.959
11
168.892
21
-101.959
0
LINE
8
BLACK
6
CONTINUOUS
10
168.892
20
-101.959
11
168.892
21
-101.959
0
LINE
8
BLACK
6
CONTINUOUS
10
168.892
20
-101.959
11
169.024
21
-101.946
0
LINE
8
BLACK
6
CONTINUOUS
10
169.024
20
-101.946
11
170.612
21
-101.946
0
LINE
8
BLACK
6
CONTINUOUS
10
170.612
20
-101.946
11
170.744
21
-101.959
0
LINE
8
BLACK
6
CONTINUOUS
10
170.744
20
-101.959
11
170.744
21
-101.959
0
LINE
8
BLACK
6
CONTINUOUS
10
170.744
20
-101.959
11
170.744
21
-101.959
0
LINE
8
BLACK
6
CONTINUOUS
10
170.744
20
-101.959
11
170.914
21
-102.01
0
LINE
8
BLACK
6
CONTINUOUS
10
170.914
20
-102.01
11
170.914
21
-102.01
0
LINE
8
BLACK
6
CONTINUOUS
10
170.914
20
-102.01
11
170.914
21
-102.01
0
LINE
8
BLACK
6
CONTINUOUS
10
170.914
20
-102.01
11
171.07
21
-102.094
0
LINE
8
BLACK
6
CONTINUOUS
10
171.07
20
-102.094
11
171.207
21
-102.207
0
LINE
8
BLACK
6
CONTINUOUS
10
171.207
20
-102.207
11
171.32
21
-102.344
0
LINE
8
BLACK
6
CONTINUOUS
10
171.32
20
-102.344
11
171.404
21
-102.5
0
LINE
8
BLACK
6
CONTINUOUS
10
171.404
20
-102.5
11
171.455
21
-102.67
0
LINE
8
BLACK
6
CONTINUOUS
10
171.455
20
-102.67
11
171.472
21
-102.846
0
LINE
8
BLACK
6
CONTINUOUS
10
171.472
20
-102.846
11
171.455
21
-103.022
0
LINE
8
BLACK
6
CONTINUOUS
10
171.455
20
-103.022
11
171.455
21
-103.022
0
LINE
8
BLACK
6
CONTINUOUS
10
171.455
20
-103.022
11
171.455
21
-103.022
0
LINE
8
BLACK
6
CONTINUOUS
10
171.455
20
-103.022
11
171.432
21
-103.097
0
LINE
8
BLACK
6
CONTINUOUS
10
171.432
20
-103.097
11
171.404
21
-103.192
0
LINE
8
BLACK
6
CONTINUOUS
10
171.404
20
-103.192
11
171.32
21
-103.348
0
LINE
8
BLACK
6
CONTINUOUS
10
171.32
20
-103.348
11
171.207
21
-103.485
0
LINE
8
BLACK
6
CONTINUOUS
10
171.207
20
-103.485
11
171.07
21
-103.598
0
LINE
8
BLACK
6
CONTINUOUS
10
171.07
20
-103.598
11
170.906
21
-103.686
0
LINE
8
BLACK
6
CONTINUOUS
10
170.906
20
-103.686
11
170.886
21
-103.699
0
LINE
8
BLACK
6
CONTINUOUS
10
170.886
20
-103.699
11
170.868
21
-103.717
0
LINE
8
BLACK
6
CONTINUOUS
10
170.868
20
-103.717
11
170.855
21
-103.737
0
LINE
8
BLACK
6
CONTINUOUS
10
170.855
20
-103.737
11
170.845
21
-103.76
0
LINE
8
BLACK
6
CONTINUOUS
10
170.845
20
-103.76
11
170.841
21
-103.784
0
LINE
8
BLACK
6
CONTINUOUS
10
170.841
20
-103.784
11
170.841
21
-103.808
0
LINE
8
BLACK
6
CONTINUOUS
10
170.841
20
-103.808
11
170.845
21
-103.832
0
LINE
8
BLACK
6
CONTINUOUS
10
170.845
20
-103.832
11
170.855
21
-103.855
0
LINE
8
BLACK
6
CONTINUOUS
10
170.855
20
-103.855
11
170.868
21
-103.875
0
LINE
8
BLACK
6
CONTINUOUS
10
170.868
20
-103.875
11
170.886
21
-103.893
0
LINE
8
BLACK
6
CONTINUOUS
10
170.886
20
-103.893
11
170.906
21
-103.906
0
LINE
8
BLACK
6
CONTINUOUS
10
170.906
20
-103.906
11
171.07
21
-103.994
0
LINE
8
BLACK
6
CONTINUOUS
10
171.07
20
-103.994
11
171.207
21
-104.107
0
LINE
8
BLACK
6
CONTINUOUS
10
171.207
20
-104.107
11
171.32
21
-104.244
0
LINE
8
BLACK
6
CONTINUOUS
10
171.32
20
-104.244
11
171.404
21
-104.4
0
LINE
8
BLACK
6
CONTINUOUS
10
171.404
20
-104.4
11
171.404
21
-104.4
0
LINE
8
BLACK
6
CONTINUOUS
10
171.404
20
-104.4
11
171.404
21
-104.4
0
LINE
8
BLACK
6
CONTINUOUS
10
171.404
20
-104.4
11
171.441
21
-104.525
0
LINE
8
BLACK
6
CONTINUOUS
10
171.441
20
-104.525
11
171.455
21
-104.57
0
LINE
8
BLACK
6
CONTINUOUS
10
171.455
20
-104.57
11
171.472
21
-104.746
0
LINE
8
BLACK
6
CONTINUOUS
10
171.472
20
-104.746
11
171.455
21
-104.922
0
LINE
8
BLACK
6
CONTINUOUS
10
171.455
20
-104.922
11
171.455
21
-104.922
0
LINE
8
BLACK
6
CONTINUOUS
10
171.455
20
-104.922
11
171.455
21
-104.922
0
LINE
8
BLACK
6
CONTINUOUS
10
171.455
20
-104.922
11
171.431
21
-105
0
LINE
8
BLACK
6
CONTINUOUS
10
171.431
20
-105
11
171.404
21
-105.092
0
LINE
8
BLACK
6
CONTINUOUS
10
171.404
20
-105.092
11
171.32
21
-105.248
0
LINE
8
BLACK
6
CONTINUOUS
10
171.32
20
-105.248
11
171.207
21
-105.385
0
LINE
8
BLACK
6
CONTINUOUS
10
171.207
20
-105.385
11
171.07
21
-105.498
0
LINE
8
BLACK
6
CONTINUOUS
10
171.07
20
-105.498
11
170.906
21
-105.586
0
LINE
8
BLACK
6
CONTINUOUS
10
170.906
20
-105.586
11
170.886
21
-105.599
0
LINE
8
BLACK
6
CONTINUOUS
10
170.886
20
-105.599
11
170.868
21
-105.617
0
LINE
8
BLACK
6
CONTINUOUS
10
170.868
20
-105.617
11
170.855
21
-105.637
0
LINE
8
BLACK
6
CONTINUOUS
10
170.855
20
-105.637
11
170.845
21
-105.66
0
LINE
8
BLACK
6
CONTINUOUS
10
170.845
20
-105.66
11
170.841
21
-105.684
0
LINE
8
BLACK
6
CONTINUOUS
10
170.841
20
-105.684
11
170.841
21
-105.708
0
LINE
8
BLACK
6
CONTINUOUS
10
170.841
20
-105.708
11
170.845
21
-105.732
0
LINE
8
BLACK
6
CONTINUOUS
10
170.845
20
-105.732
11
170.855
21
-105.755
0
LINE
8
BLACK
6
CONTINUOUS
10
170.855
20
-105.755
11
170.868
21
-105.775
0
LINE
8
BLACK
6
CONTINUOUS
10
170.868
20
-105.775
11
170.886
21
-105.793
0
LINE
8
BLACK
6
CONTINUOUS
10
170.886
20
-105.793
11
170.906
21
-105.806
0
LINE
8
BLACK
6
CONTINUOUS
10
170.906
20
-105.806
11
171.07
21
-105.894
0
LINE
8
BLACK
6
CONTINUOUS
10
171.07
20
-105.894
11
171.207
21
-106.007
0
LINE
8
BLACK
6
CONTINUOUS
10
171.207
20
-106.007
11
171.32
21
-106.144
0
LINE
8
BLACK
6
CONTINUOUS
10
171.32
20
-106.144
11
171.404
21
-106.3
0
LINE
8
BLACK
6
CONTINUOUS
10
171.404
20
-106.3
11
171.455
21
-106.47
0
LINE
8
BLACK
6
CONTINUOUS
10
171.455
20
-106.47
11
171.472
21
-106.646
0
LINE
8
BLACK
6
CONTINUOUS
10
171.472
20
-106.646
11
171.455
21
-106.822
0
LINE
8
BLACK
6
CONTINUOUS
10
171.455
20
-106.822
11
171.455
21
-106.822
0
LINE
8
BLACK
6
CONTINUOUS
10
171.455
20
-106.822
11
171.455
21
-106.822
0
LINE
8
BLACK
6
CONTINUOUS
10
171.455
20
-106.822
11
171.405
21
-106.988
0
LINE
8
BLACK
6
CONTINUOUS
10
171.405
20
-106.988
11
171.404
21
-106.992
0
LINE
8
BLACK
6
CONTINUOUS
10
171.404
20
-106.992
11
171.32
21
-107.148
0
LINE
8
BLACK
6
CONTINUOUS
10
171.32
20
-107.148
11
171.207
21
-107.285
0
LINE
8
BLACK
6
CONTINUOUS
10
171.207
20
-107.285
11
171.07
21
-107.398
0
LINE
8
BLACK
6
CONTINUOUS
10
171.07
20
-107.398
11
170.914
21
-107.482
0
LINE
8
BLACK
6
CONTINUOUS
10
170.914
20
-107.482
11
170.914
21
-107.482
0
LINE
8
BLACK
6
CONTINUOUS
10
170.914
20
-107.482
11
170.914
21
-107.482
0
LINE
8
BLACK
6
CONTINUOUS
10
170.914
20
-107.482
11
170.744
21
-107.533
0
LINE
8
BLACK
6
CONTINUOUS
10
170.744
20
-107.533
11
170.744
21
-107.533
0
LINE
8
BLACK
6
CONTINUOUS
10
170.744
20
-107.533
11
170.744
21
-107.533
0
LINE
8
BLACK
6
CONTINUOUS
10
170.744
20
-107.533
11
170.612
21
-107.546
0
LINE
8
BLACK
6
CONTINUOUS
10
170.612
20
-107.546
11
169.024
21
-107.546
0
LINE
8
BLACK
6
CONTINUOUS
10
169.024
20
-107.546
11
168.892
21
-107.533
0
LINE
8
BLACK
6
CONTINUOUS
10
168.892
20
-107.533
11
168.892
21
-107.533
0
LINE
8
BLACK
6
CONTINUOUS
10
168.892
20
-107.533
11
168.892
21
-107.533
0
LINE
8
BLACK
6
CONTINUOUS
10
168.892
20
-107.533
11
168.722
21
-107.482
0
LINE
8
BLACK
6
CONTINUOUS
10
168.722
20
-107.482
11
168.722
21
-107.482
0
LINE
8
BLACK
6
CONTINUOUS
10
168.722
20
-107.482
11
168.722
21
-107.482
0
LINE
8
BLACK
6
CONTINUOUS
10
168.722
20
-107.482
11
168.566
21
-107.398
0
LINE
8
BLACK
6
CONTINUOUS
10
168.566
20
-107.398
11
168.429
21
-107.285
0
LINE
8
BLACK
6
CONTINUOUS
10
168.429
20
-107.285
11
168.316
21
-107.148
0
LINE
8
BLACK
6
CONTINUOUS
10
168.316
20
-107.148
11
168.232
21
-106.992
0
LINE
8
BLACK
6
CONTINUOUS
10
168.232
20
-106.992
11
168.178
21
-106.811
0
LINE
8
BLACK
6
CONTINUOUS
10
168.178
20
-106.811
11
168.168
21
-106.789
0
LINE
8
BLACK
6
CONTINUOUS
10
168.168
20
-106.789
11
168.155
21
-106.768
0
LINE
8
BLACK
6
CONTINUOUS
10
168.155
20
-106.768
11
168.137
21
-106.751
0
LINE
8
BLACK
6
CONTINUOUS
10
168.137
20
-106.751
11
168.117
21
-106.737
0
LINE
8
BLACK
6
CONTINUOUS
10
168.117
20
-106.737
11
168.094
21
-106.728
0
LINE
8
BLACK
6
CONTINUOUS
10
168.094
20
-106.728
11
168.07
21
-106.723
0
LINE
8
BLACK
6
CONTINUOUS
10
168.07
20
-106.723
11
168.046
21
-106.723
0
LINE
8
BLACK
6
CONTINUOUS
10
168.046
20
-106.723
11
168.022
21
-106.728
0
LINE
8
BLACK
6
CONTINUOUS
10
168.022
20
-106.728
11
167.999
21
-106.737
0
LINE
8
BLACK
6
CONTINUOUS
10
167.999
20
-106.737
11
167.979
21
-106.751
0
LINE
8
BLACK
6
CONTINUOUS
10
167.979
20
-106.751
11
167.961
21
-106.768
0
LINE
8
BLACK
6
CONTINUOUS
10
167.961
20
-106.768
11
167.948
21
-106.789
0
LINE
8
BLACK
6
CONTINUOUS
10
167.948
20
-106.789
11
167.938
21
-106.811
0
LINE
8
BLACK
6
CONTINUOUS
10
167.938
20
-106.811
11
167.884
21
-106.992
0
LINE
8
BLACK
6
CONTINUOUS
10
167.884
20
-106.992
11
167.8
21
-107.148
0
LINE
8
BLACK
6
CONTINUOUS
10
167.8
20
-107.148
11
167.687
21
-107.285
0
LINE
8
BLACK
6
CONTINUOUS
10
167.687
20
-107.285
11
167.55
21
-107.398
0
LINE
8
BLACK
6
CONTINUOUS
10
167.55
20
-107.398
11
167.394
21
-107.482
0
LINE
8
BLACK
6
CONTINUOUS
10
167.394
20
-107.482
11
167.394
21
-107.482
0
LINE
8
BLACK
6
CONTINUOUS
10
167.394
20
-107.482
11
167.394
21
-107.482
0
LINE
8
BLACK
6
CONTINUOUS
10
167.394
20
-107.482
11
167.224
21
-107.533
0
LINE
8
BLACK
6
CONTINUOUS
10
167.224
20
-107.533
11
167.224
21
-107.533
0
LINE
8
BLACK
6
CONTINUOUS
10
167.224
20
-107.533
11
167.224
21
-107.533
0
LINE
8
BLACK
6
CONTINUOUS
10
167.224
20
-107.533
11
167.092
21
-107.546
0
LINE
8
BLACK
6
CONTINUOUS
10
167.092
20
-107.546
11
165.504
21
-107.546
0
LINE
8
BLACK
6
CONTINUOUS
10
165.504
20
-107.546
11
165.372
21
-107.533
0
LINE
8
BLACK
6
CONTINUOUS
10
165.372
20
-107.533
11
165.372
21
-107.533
0
LINE
8
BLACK
6
CONTINUOUS
10
165.372
20
-107.533
11
165.372
21
-107.533
0
LINE
8
BLACK
6
CONTINUOUS
10
165.372
20
-107.533
11
165.202
21
-107.482
0
LINE
8
BLACK
6
CONTINUOUS
10
165.202
20
-107.482
11
165.202
21
-107.482
0
LINE
8
BLACK
6
CONTINUOUS
10
165.202
20
-107.482
11
165.202
21
-107.482
0
LINE
8
BLACK
6
CONTINUOUS
10
165.202
20
-107.482
11
165.046
21
-107.398
0
LINE
8
BLACK
6
CONTINUOUS
10
165.046
20
-107.398
11
164.909
21
-107.285
0
LINE
8
BLACK
6
CONTINUOUS
10
164.909
20
-107.285
11
164.796
21
-107.148
0
LINE
8
BLACK
6
CONTINUOUS
10
164.796
20
-107.148
11
164.712
21
-106.992
0
LINE
8
BLACK
6
CONTINUOUS
10
164.712
20
-106.992
11
164.711
21
-106.988
0
LINE
8
BLACK
6
CONTINUOUS
10
164.711
20
-106.988
11
164.661
21
-106.822
0
LINE
8
BLACK
6
CONTINUOUS
10
164.661
20
-106.822
11
164.661
21
-106.822
0
LINE
8
BLACK
6
CONTINUOUS
10
164.661
20
-106.822
11
164.661
21
-106.822
0
LINE
8
BLACK
6
CONTINUOUS
10
164.661
20
-106.822
11
164.644
21
-106.646
0
LINE
8
BLACK
6
CONTINUOUS
10
164.644
20
-106.646
11
164.661
21
-106.47
0
LINE
8
BLACK
6
CONTINUOUS
10
164.661
20
-106.47
11
164.712
21
-106.3
0
LINE
8
BLACK
6
CONTINUOUS
10
164.712
20
-106.3
11
164.796
21
-106.144
0
LINE
8
BLACK
6
CONTINUOUS
10
164.796
20
-106.144
11
164.909
21
-106.007
0
LINE
8
BLACK
6
CONTINUOUS
10
164.909
20
-106.007
11
165.046
21
-105.894
0
LINE
8
BLACK
6
CONTINUOUS
10
165.046
20
-105.894
11
165.21
21
-105.806
0
LINE
8
BLACK
6
CONTINUOUS
10
165.21
20
-105.806
11
165.23
21
-105.793
0
LINE
8
BLACK
6
CONTINUOUS
10
165.23
20
-105.793
11
165.248
21
-105.775
0
LINE
8
BLACK
6
CONTINUOUS
10
165.248
20
-105.775
11
165.261
21
-105.755
0
LINE
8
BLACK
6
CONTINUOUS
10
165.261
20
-105.755
11
165.271
21
-105.732
0
LINE
8
BLACK
6
CONTINUOUS
10
165.271
20
-105.732
11
165.275
21
-105.708
0
LINE
8
BLACK
6
CONTINUOUS
10
165.275
20
-105.708
11
165.275
21
-105.684
0
LINE
8
BLACK
6
CONTINUOUS
10
165.275
20
-105.684
11
167.321
21
-105.684
0
LINE
8
BLACK
6
CONTINUOUS
10
167.321
20
-105.684
11
167.321
21
-105.708
0
LINE
8
BLACK
6
CONTINUOUS
10
167.321
20
-105.708
11
167.325
21
-105.732
0
LINE
8
BLACK
6
CONTINUOUS
10
167.325
20
-105.732
11
167.335
21
-105.755
0
LINE
8
BLACK
6
CONTINUOUS
10
167.335
20
-105.755
11
167.348
21
-105.775
0
LINE
8
BLACK
6
CONTINUOUS
10
167.348
20
-105.775
11
167.366
21
-105.793
0
LINE
8
BLACK
6
CONTINUOUS
10
167.366
20
-105.793
11
167.386
21
-105.806
0
LINE
8
BLACK
6
CONTINUOUS
10
167.386
20
-105.806
11
167.55
21
-105.894
0
LINE
8
BLACK
6
CONTINUOUS
10
167.55
20
-105.894
11
167.687
21
-106.007
0
LINE
8
BLACK
6
CONTINUOUS
10
167.687
20
-106.007
11
167.8
21
-106.144
0
LINE
8
BLACK
6
CONTINUOUS
10
167.8
20
-106.144
11
167.884
21
-106.3
0
LINE
8
BLACK
6
CONTINUOUS
10
167.884
20
-106.3
11
167.938
21
-106.481
0
LINE
8
BLACK
6
CONTINUOUS
10
167.938
20
-106.481
11
167.948
21
-106.503
0
LINE
8
BLACK
6
CONTINUOUS
10
167.948
20
-106.503
11
167.961
21
-106.524
0
LINE
8
BLACK
6
CONTINUOUS
10
167.961
20
-106.524
11
167.979
21
-106.541
0
LINE
8
BLACK
6
CONTINUOUS
10
167.979
20
-106.541
11
167.999
21
-106.555
0
LINE
8
BLACK
6
CONTINUOUS
10
167.999
20
-106.555
11
168.022
21
-106.564
0
LINE
8
BLACK
6
CONTINUOUS
10
168.022
20
-106.564
11
168.046
21
-106.569
0
LINE
8
BLACK
6
CONTINUOUS
10
168.046
20
-106.569
11
168.07
21
-106.569
0
LINE
8
BLACK
6
CONTINUOUS
10
168.07
20
-106.569
11
168.094
21
-106.564
0
LINE
8
BLACK
6
CONTINUOUS
10
168.094
20
-106.564
11
168.117
21
-106.555
0
LINE
8
BLACK
6
CONTINUOUS
10
168.117
20
-106.555
11
168.137
21
-106.541
0
LINE
8
BLACK
6
CONTINUOUS
10
168.137
20
-106.541
11
168.155
21
-106.524
0
LINE
8
BLACK
6
CONTINUOUS
10
168.155
20
-106.524
11
168.168
21
-106.503
0
LINE
8
BLACK
6
CONTINUOUS
10
168.168
20
-106.503
11
168.178
21
-106.481
0
LINE
8
BLACK
6
CONTINUOUS
10
168.178
20
-106.481
11
168.232
21
-106.3
0
LINE
8
BLACK
6
CONTINUOUS
10
168.232
20
-106.3
11
168.316
21
-106.144
0
LINE
8
BLACK
6
CONTINUOUS
10
168.316
20
-106.144
11
168.429
21
-106.007
0
LINE
8
BLACK
6
CONTINUOUS
10
168.429
20
-106.007
11
168.566
21
-105.894
0
LINE
8
BLACK
6
CONTINUOUS
10
168.566
20
-105.894
11
168.73
21
-105.806
0
LINE
8
BLACK
6
CONTINUOUS
10
168.73
20
-105.806
11
168.75
21
-105.793
0
LINE
8
BLACK
6
CONTINUOUS
10
168.75
20
-105.793
11
168.768
21
-105.775
0
LINE
8
BLACK
6
CONTINUOUS
10
168.768
20
-105.775
11
168.781
21
-105.755
0
LINE
8
BLACK
6
CONTINUOUS
10
168.781
20
-105.755
11
168.791
21
-105.732
0
LINE
8
BLACK
6
CONTINUOUS
10
168.791
20
-105.732
11
168.795
21
-105.708
0
LINE
8
BLACK
6
CONTINUOUS
10
168.795
20
-105.708
11
168.795
21
-105.684
0
LINE
8
BLACK
6
CONTINUOUS
10
168.795
20
-105.684
11
168.791
21
-105.66
0
LINE
8
BLACK
6
CONTINUOUS
10
168.791
20
-105.66
11
168.781
21
-105.637
0
LINE
8
BLACK
6
CONTINUOUS
10
168.781
20
-105.637
11
168.768
21
-105.617
0
LINE
8
BLACK
6
CONTINUOUS
10
168.768
20
-105.617
11
168.75
21
-105.599
0
LINE
8
BLACK
6
CONTINUOUS
10
168.75
20
-105.599
11
168.73
21
-105.586
0
LINE
8
BLACK
6
CONTINUOUS
10
168.73
20
-105.586
11
168.566
21
-105.498
0
LINE
8
BLACK
6
CONTINUOUS
10
168.566
20
-105.498
11
168.429
21
-105.385
0
LINE
8
BLACK
6
CONTINUOUS
10
168.429
20
-105.385
11
168.316
21
-105.248
0
LINE
8
BLACK
6
CONTINUOUS
10
168.316
20
-105.248
11
168.232
21
-105.092
0
LINE
8
BLACK
6
CONTINUOUS
10
168.232
20
-105.092
11
168.178
21
-104.911
0
LINE
8
BLACK
6
CONTINUOUS
10
168.178
20
-104.911
11
168.168
21
-104.889
0
LINE
8
BLACK
6
CONTINUOUS
10
168.168
20
-104.889
11
168.155
21
-104.868
0
LINE
8
BLACK
6
CONTINUOUS
10
168.155
20
-104.868
11
168.137
21
-104.851
0
LINE
8
BLACK
6
CONTINUOUS
10
168.137
20
-104.851
11
168.117
21
-104.837
0
LINE
8
BLACK
6
CONTINUOUS
10
168.117
20
-104.837
11
168.094
21
-104.828
0
LINE
8
BLACK
6
CONTINUOUS
10
168.094
20
-104.828
11
168.07
21
-104.823
0
LINE
8
BLACK
6
CONTINUOUS
10
168.07
20
-104.823
11
168.046
21
-104.823
0
LINE
8
BLACK
6
CONTINUOUS
10
168.046
20
-104.823
11
168.022
21
-104.828
0
LINE
8
BLACK
6
CONTINUOUS
10
168.022
20
-104.828
11
167.999
21
-104.837
0
LINE
8
BLACK
6
CONTINUOUS
10
167.999
20
-104.837
11
167.979
21
-104.851
0
LINE
8
BLACK
6
CONTINUOUS
10
167.979
20
-104.851
11
167.961
21
-104.868
0
LINE
8
BLACK
6
CONTINUOUS
10
167.961
20
-104.868
11
167.948
21
-104.889
0
LINE
8
BLACK
6
CONTINUOUS
10
167.948
20
-104.889
11
167.938
21
-104.911
0
LINE
8
BLACK
6
CONTINUOUS
10
167.938
20
-104.911
11
167.884
21
-105.092
0
LINE
8
BLACK
6
CONTINUOUS
10
167.884
20
-105.092
11
167.8
21
-105.248
0
LINE
8
BLACK
6
CONTINUOUS
10
167.8
20
-105.248
11
167.687
21
-105.385
0
LINE
8
BLACK
6
CONTINUOUS
10
167.687
20
-105.385
11
167.55
21
-105.498
0
LINE
8
BLACK
6
CONTINUOUS
10
167.55
20
-105.498
11
167.386
21
-105.586
0
LINE
8
BLACK
6
CONTINUOUS
10
167.386
20
-105.586
11
167.366
21
-105.599
0
LINE
8
BLACK
6
CONTINUOUS
10
167.366
20
-105.599
11
167.348
21
-105.617
0
LINE
8
BLACK
6
CONTINUOUS
10
167.348
20
-105.617
11
167.335
21
-105.637
0
LINE
8
BLACK
6
CONTINUOUS
10
167.335
20
-105.637
11
167.325
21
-105.66
0
LINE
8
BLACK
6
CONTINUOUS
10
167.325
20
-105.66
11
167.321
21
-105.684
0
LINE
8
BLACK
6
CONTINUOUS
10
167.321
20
-105.684
11
165.275
21
-105.684
0
LINE
8
BLACK
6
CONTINUOUS
10
165.275
20
-105.684
11
165.271
21
-105.66
0
LINE
8
BLACK
6
CONTINUOUS
10
165.271
20
-105.66
11
165.261
21
-105.637
0
LINE
8
BLACK
6
CONTINUOUS
10
165.261
20
-105.637
11
165.248
21
-105.617
0
LINE
8
BLACK
6
CONTINUOUS
10
165.248
20
-105.617
11
165.23
21
-105.599
0
LINE
8
BLACK
6
CONTINUOUS
10
165.23
20
-105.599
11
165.21
21
-105.586
0
LINE
8
BLACK
6
CONTINUOUS
10
165.21
20
-105.586
11
165.046
21
-105.498
0
LINE
8
BLACK
6
CONTINUOUS
10
165.046
20
-105.498
11
164.909
21
-105.385
0
LINE
8
BLACK
6
CONTINUOUS
10
164.909
20
-105.385
11
164.796
21
-105.248
0
LINE
8
BLACK
6
CONTINUOUS
10
164.796
20
-105.248
11
164.712
21
-105.092
0
LINE
8
BLACK
6
CONTINUOUS
10
164.712
20
-105.092
11
164.685
21
-105
0
LINE
8
BLACK
6
CONTINUOUS
10
164.685
20
-105
11
164.661
21
-104.922
0
LINE
8
BLACK
6
CONTINUOUS
10
164.661
20
-104.922
11
164.661
21
-104.922
0
LINE
8
BLACK
6
CONTINUOUS
10
164.661
20
-104.922
11
164.661
21
-104.922
0
LINE
8
BLACK
6
CONTINUOUS
10
164.661
20
-104.922
11
164.644
21
-104.746
0
LINE
8
BLACK
6
CONTINUOUS
10
164.644
20
-104.746
11
164.661
21
-104.57
0
LINE
8
BLACK
6
CONTINUOUS
10
164.661
20
-104.57
11
164.675
21
-104.525
0
LINE
8
BLACK
6
CONTINUOUS
10
164.675
20
-104.525
11
164.712
21
-104.4
0
LINE
8
BLACK
6
CONTINUOUS
10
164.712
20
-104.4
11
164.712
21
-104.4
0
LINE
8
BLACK
6
CONTINUOUS
10
164.712
20
-104.4
11
164.712
21
-104.4
0
LINE
8
BLACK
6
CONTINUOUS
10
164.712
20
-104.4
11
164.796
21
-104.244
0
LINE
8
BLACK
6
CONTINUOUS
10
164.796
20
-104.244
11
164.909
21
-104.107
0
LINE
8
BLACK
6
CONTINUOUS
10
164.909
20
-104.107
11
165.046
21
-103.994
0
LINE
8
BLACK
6
CONTINUOUS
10
165.046
20
-103.994
11
165.21
21
-103.906
0
LINE
8
BLACK
6
CONTINUOUS
10
165.21
20
-103.906
11
165.23
21
-103.893
0
LINE
8
BLACK
6
CONTINUOUS
10
165.23
20
-103.893
11
165.248
21
-103.875
0
LINE
8
BLACK
6
CONTINUOUS
10
165.248
20
-103.875
11
165.261
21
-103.855
0
LINE
8
BLACK
6
CONTINUOUS
10
165.261
20
-103.855
11
165.271
21
-103.832
0
LINE
8
BLACK
6
CONTINUOUS
10
165.271
20
-103.832
11
165.275
21
-103.808
0
LINE
8
BLACK
6
CONTINUOUS
10
165.275
20
-103.808
11
165.275
21
-103.784
0
LINE
8
BLACK
6
CONTINUOUS
10
165.275
20
-103.784
11
167.321
21
-103.784
0
LINE
8
BLACK
6
CONTINUOUS
10
167.321
20
-103.784
11
167.321
21
-103.808
0
LINE
8
BLACK
6
CONTINUOUS
10
167.321
20
-103.808
11
167.325
21
-103.832
0
LINE
8
BLACK
6
CONTINUOUS
10
167.325
20
-103.832
11
167.335
21
-103.855
0
LINE
8
BLACK
6
CONTINUOUS
10
167.335
20
-103.855
11
167.348
21
-103.875
0
LINE
8
BLACK
6
CONTINUOUS
10
167.348
20
-103.875
11
167.366
21
-103.893
0
LINE
8
BLACK
6
CONTINUOUS
10
167.366
20
-103.893
11
167.386
21
-103.906
0
LINE
8
BLACK
6
CONTINUOUS
10
167.386
20
-103.906
11
167.55
21
-103.994
0
LINE
8
BLACK
6
CONTINUOUS
10
167.55
20
-103.994
11
167.687
21
-104.107
0
LINE
8
BLACK
6
CONTINUOUS
10
167.687
20
-104.107
11
167.8
21
-104.244
0
LINE
8
BLACK
6
CONTINUOUS
10
167.8
20
-104.244
11
167.884
21
-104.4
0
LINE
8
BLACK
6
CONTINUOUS
10
167.884
20
-104.4
11
167.938
21
-104.581
0
LINE
8
BLACK
6
CONTINUOUS
10
167.938
20
-104.581
11
167.948
21
-104.603
0
LINE
8
BLACK
6
CONTINUOUS
10
167.948
20
-104.603
11
167.961
21
-104.624
0
LINE
8
BLACK
6
CONTINUOUS
10
167.961
20
-104.624
11
167.979
21
-104.641
0
LINE
8
BLACK
6
CONTINUOUS
10
167.979
20
-104.641
11
167.999
21
-104.655
0
LINE
8
BLACK
6
CONTINUOUS
10
167.999
20
-104.655
11
168.022
21
-104.664
0
LINE
8
BLACK
6
CONTINUOUS
10
168.022
20
-104.664
11
168.046
21
-104.669
0
LINE
8
BLACK
6
CONTINUOUS
10
168.046
20
-104.669
11
168.07
21
-104.669
0
LINE
8
BLACK
6
CONTINUOUS
10
168.07
20
-104.669
11
168.094
21
-104.664
0
LINE
8
BLACK
6
CONTINUOUS
10
168.094
20
-104.664
11
168.117
21
-104.655
0
LINE
8
BLACK
6
CONTINUOUS
10
168.117
20
-104.655
11
168.137
21
-104.641
0
LINE
8
BLACK
6
CONTINUOUS
10
168.137
20
-104.641
11
168.155
21
-104.624
0
LINE
8
BLACK
6
CONTINUOUS
10
168.155
20
-104.624
11
168.168
21
-104.603
0
LINE
8
BLACK
6
CONTINUOUS
10
168.168
20
-104.603
11
168.178
21
-104.581
0
LINE
8
BLACK
6
CONTINUOUS
10
168.178
20
-104.581
11
168.232
21
-104.4
0
LINE
8
BLACK
6
CONTINUOUS
10
168.232
20
-104.4
11
168.316
21
-104.244
0
LINE
8
BLACK
6
CONTINUOUS
10
168.316
20
-104.244
11
168.429
21
-104.107
0
LINE
8
BLACK
6
CONTINUOUS
10
168.429
20
-104.107
11
168.566
21
-103.994
0
LINE
8
BLACK
6
CONTINUOUS
10
168.566
20
-103.994
11
168.73
21
-103.906
0
LINE
8
BLACK
6
CONTINUOUS
10
168.73
20
-103.906
11
168.75
21
-103.893
0
LINE
8
BLACK
6
CONTINUOUS
10
168.75
20
-103.893
11
168.768
21
-103.875
0
LINE
8
BLACK
6
CONTINUOUS
10
168.768
20
-103.875
11
168.781
21
-103.855
0
LINE
8
BLACK
6
CONTINUOUS
10
168.781
20
-103.855
11
168.791
21
-103.832
0
LINE
8
BLACK
6
CONTINUOUS
10
168.791
20
-103.832
11
168.795
21
-103.808
0
LINE
8
BLACK
6
CONTINUOUS
10
168.795
20
-103.808
11
168.795
21
-103.784
0
LINE
8
BLACK
6
CONTINUOUS
10
168.795
20
-103.784
11
168.791
21
-103.76
0
LINE
8
BLACK
6
CONTINUOUS
10
168.791
20
-103.76
11
168.781
21
-103.737
0
LINE
8
BLACK
6
CONTINUOUS
10
168.781
20
-103.737
11
168.768
21
-103.717
0
LINE
8
BLACK
6
CONTINUOUS
10
168.768
20
-103.717
11
168.75
21
-103.699
0
LINE
8
BLACK
6
CONTINUOUS
10
168.75
20
-103.699
11
168.73
21
-103.686
0
LINE
8
BLACK
6
CONTINUOUS
10
168.73
20
-103.686
11
168.566
21
-103.598
0
LINE
8
BLACK
6
CONTINUOUS
10
168.566
20
-103.598
11
168.429
21
-103.485
0
LINE
8
BLACK
6
CONTINUOUS
10
168.429
20
-103.485
11
168.316
21
-103.348
0
LINE
8
BLACK
6
CONTINUOUS
10
168.316
20
-103.348
11
168.232
21
-103.192
0
LINE
8
BLACK
6
CONTINUOUS
10
168.232
20
-103.192
11
168.178
21
-103.011
0
LINE
8
BLACK
6
CONTINUOUS
10
168.178
20
-103.011
11
168.168
21
-102.989
0
LINE
8
BLACK
6
CONTINUOUS
10
168.168
20
-102.989
11
168.155
21
-102.968
0
LINE
8
BLACK
6
CONTINUOUS
10
168.155
20
-102.968
11
168.137
21
-102.951
0
LINE
8
BLACK
6
CONTINUOUS
10
168.137
20
-102.951
11
168.117
21
-102.937
0
LINE
8
BLACK
6
CONTINUOUS
10
168.117
20
-102.937
11
168.094
21
-102.928
0
LINE
8
BLACK
6
CONTINUOUS
10
168.094
20
-102.928
11
168.07
21
-102.923
0
LINE
8
BLACK
6
CONTINUOUS
10
168.07
20
-102.923
11
168.046
21
-102.923
0
LINE
8
BLACK
6
CONTINUOUS
10
168.046
20
-102.923
11
168.022
21
-102.928
0
LINE
8
BLACK
6
CONTINUOUS
10
168.022
20
-102.928
11
167.999
21
-102.937
0
LINE
8
BLACK
6
CONTINUOUS
10
167.999
20
-102.937
11
167.979
21
-102.951
0
LINE
8
BLACK
6
CONTINUOUS
10
167.979
20
-102.951
11
167.961
21
-102.968
0
LINE
8
BLACK
6
CONTINUOUS
10
167.961
20
-102.968
11
167.948
21
-102.989
0
LINE
8
BLACK
6
CONTINUOUS
10
167.948
20
-102.989
11
167.938
21
-103.011
0
LINE
8
BLACK
6
CONTINUOUS
10
167.938
20
-103.011
11
167.884
21
-103.192
0
LINE
8
BLACK
6
CONTINUOUS
10
167.884
20
-103.192
11
167.8
21
-103.348
0
LINE
8
BLACK
6
CONTINUOUS
10
167.8
20
-103.348
11
167.687
21
-103.485
0
LINE
8
BLACK
6
CONTINUOUS
10
167.687
20
-103.485
11
167.55
21
-103.598
0
LINE
8
BLACK
6
CONTINUOUS
10
167.55
20
-103.598
11
167.386
21
-103.686
0
LINE
8
BLACK
6
CONTINUOUS
10
167.386
20
-103.686
11
167.366
21
-103.699
0
LINE
8
BLACK
6
CONTINUOUS
10
167.366
20
-103.699
11
167.348
21
-103.717
0
LINE
8
BLACK
6
CONTINUOUS
10
167.348
20
-103.717
11
167.335
21
-103.737
0
LINE
8
BLACK
6
CONTINUOUS
10
167.335
20
-103.737
11
167.325
21
-103.76
0
LINE
8
BLACK
6
CONTINUOUS
10
167.325
20
-103.76
11
167.321
21
-103.784
0
LINE
8
BLACK
6
CONTINUOUS
10
167.321
20
-103.784
11
165.275
21
-103.784
0
LINE
8
BLACK
6
CONTINUOUS
10
165.275
20
-103.784
11
165.271
21
-103.76
0
LINE
8
BLACK
6
CONTINUOUS
10
165.271
20
-103.76
11
165.261
21
-103.737
0
LINE
8
BLACK
6
CONTINUOUS
10
165.261
20
-103.737
11
165.248
21
-103.717
0
LINE
8
BLACK
6
CONTINUOUS
10
165.248
20
-103.717
11
165.23
21
-103.699
0
LINE
8
BLACK
6
CONTINUOUS
10
165.23
20
-103.699
11
165.21
21
-103.686
0
LINE
8
BLACK
6
CONTINUOUS
10
165.21
20
-103.686
11
165.046
21
-103.598
0
LINE
8
BLACK
6
CONTINUOUS
10
165.046
20
-103.598
11
164.909
21
-103.485
0
LINE
8
BLACK
6
CONTINUOUS
10
164.909
20
-103.485
11
164.796
21
-103.348
0
LINE
8
BLACK
6
CONTINUOUS
10
164.796
20
-103.348
11
164.712
21
-103.192
0
LINE
8
BLACK
6
CONTINUOUS
10
164.712
20
-103.192
11
164.684
21
-103.097
0
LINE
8
BLACK
6
CONTINUOUS
10
164.684
20
-103.097
11
164.661
21
-103.022
0
LINE
8
BLACK
6
CONTINUOUS
10
164.661
20
-103.022
11
164.661
21
-103.022
0
LINE
8
BLACK
6
CONTINUOUS
10
164.661
20
-103.022
11
164.661
21
-103.022
0
LINE
8
BLACK
6
CONTINUOUS
10
164.661
20
-103.022
11
164.644
21
-102.846
0
LINE
8
BLACK
6
CONTINUOUS
10
164.644
20
-102.846
11
164.661
21
-102.67
0
LINE
8
BLACK
6
CONTINUOUS
10
164.661
20
-102.67
11
164.712
21
-102.5
0
LINE
8
BLACK
6
CONTINUOUS
10
164.712
20
-102.5
11
164.796
21
-102.344
0
LINE
8
BLACK
6
CONTINUOUS
10
164.796
20
-102.344
11
164.909
21
-102.207
0
LINE
8
BLACK
6
CONTINUOUS
10
164.909
20
-102.207
11
165.046
21
-102.094
0
LINE
8
BLACK
6
CONTINUOUS
10
165.046
20
-102.094
11
165.202
21
-102.01
0
LINE
8
BLACK
6
CONTINUOUS
10
165.202
20
-102.01
11
165.202
21
-102.01
0
LINE
8
BLACK
6
CONTINUOUS
10
165.202
20
-102.01
11
165.202
21
-102.01
0
LINE
8
BLACK
6
CONTINUOUS
10
165.202
20
-102.01
11
165.372
21
-101.959
0
LINE
8
BLACK
6
CONTINUOUS
10
165.372
20
-101.959
11
165.372
21
-101.959
0
LINE
8
BLACK
6
CONTINUOUS
10
165.372
20
-101.959
11
165.372
21
-101.959
0
LINE
8
BLACK
6
CONTINUOUS
10
165.372
20
-101.959
11
165.504
21
-101.946
0
LINE
8
BLACK
6
CONTINUOUS
10
165.504
20
-101.946
11
167.092
21
-101.946
0
LINE
8
BLACK
6
CONTINUOUS
10
167.092
20
-101.946
11
167.224
21
-101.959
0
LINE
8
BLACK
6
CONTINUOUS
10
162.122
20
-107.404
11
159.622
21
-107.404
0
LINE
8
BLACK
6
CONTINUOUS
10
159.622
20
-107.404
11
159.622
21
-103.104
0
LINE
8
BLACK
6
CONTINUOUS
10
159.622
20
-103.104
11
162.122
21
-103.104
0
LINE
8
BLACK
6
CONTINUOUS
10
162.122
20
-103.104
11
162.122
21
-107.404
0
LINE
8
BLACK
6
CONTINUOUS
10
159.222
20
-107.404
11
156.722
21
-107.404
0
LINE
8
BLACK
6
CONTINUOUS
10
156.722
20
-107.404
11
156.722
21
-103.104
0
LINE
8
BLACK
6
CONTINUOUS
10
156.722
20
-103.104
11
159.222
21
-103.104
0
LINE
8
BLACK
6
CONTINUOUS
10
159.222
20
-103.104
11
159.222
21
-107.404
0
LINE
8
BLACK
6
CONTINUOUS
10
154.842
20
-105.642
11
154.894
21
-105.658
0
LINE
8
BLACK
6
CONTINUOUS
10
154.894
20
-105.658
11
154.942
21
-105.684
0
LINE
8
BLACK
6
CONTINUOUS
10
154.942
20
-105.684
11
154.985
21
-105.718
0
LINE
8
BLACK
6
CONTINUOUS
10
154.985
20
-105.718
11
155.019
21
-105.761
0
LINE
8
BLACK
6
CONTINUOUS
10
155.019
20
-105.761
11
155.045
21
-105.809
0
LINE
8
BLACK
6
CONTINUOUS
10
155.045
20
-105.809
11
155.061
21
-105.861
0
LINE
8
BLACK
6
CONTINUOUS
10
155.061
20
-105.861
11
155.067
21
-105.922
0
LINE
8
BLACK
6
CONTINUOUS
10
155.067
20
-105.922
11
155.067
21
-106.875
0
LINE
8
BLACK
6
CONTINUOUS
10
155.067
20
-106.875
11
155.061
21
-106.936
0
LINE
8
BLACK
6
CONTINUOUS
10
155.061
20
-106.936
11
155.045
21
-106.988
0
LINE
8
BLACK
6
CONTINUOUS
10
155.045
20
-106.988
11
155.019
21
-107.036
0
LINE
8
BLACK
6
CONTINUOUS
10
155.019
20
-107.036
11
154.985
21
-107.079
0
LINE
8
BLACK
6
CONTINUOUS
10
154.985
20
-107.079
11
154.942
21
-107.113
0
LINE
8
BLACK
6
CONTINUOUS
10
154.942
20
-107.113
11
154.894
21
-107.139
0
LINE
8
BLACK
6
CONTINUOUS
10
154.894
20
-107.139
11
154.842
21
-107.155
0
LINE
8
BLACK
6
CONTINUOUS
10
154.842
20
-107.155
11
154.781
21
-107.161
0
LINE
8
BLACK
6
CONTINUOUS
10
154.781
20
-107.161
11
153.903
21
-107.161
0
LINE
8
BLACK
6
CONTINUOUS
10
153.903
20
-107.161
11
153.842
21
-107.155
0
LINE
8
BLACK
6
CONTINUOUS
10
153.842
20
-107.155
11
153.79
21
-107.139
0
LINE
8
BLACK
6
CONTINUOUS
10
153.79
20
-107.139
11
153.742
21
-107.113
0
LINE
8
BLACK
6
CONTINUOUS
10
153.742
20
-107.113
11
153.699
21
-107.079
0
LINE
8
BLACK
6
CONTINUOUS
10
153.699
20
-107.079
11
153.665
21
-107.036
0
LINE
8
BLACK
6
CONTINUOUS
10
153.665
20
-107.036
11
153.639
21
-106.988
0
LINE
8
BLACK
6
CONTINUOUS
10
153.639
20
-106.988
11
153.623
21
-106.936
0
LINE
8
BLACK
6
CONTINUOUS
10
153.623
20
-106.936
11
153.617
21
-106.875
0
LINE
8
BLACK
6
CONTINUOUS
10
153.617
20
-106.875
11
153.617
21
-105.922
0
LINE
8
BLACK
6
CONTINUOUS
10
153.617
20
-105.922
11
153.623
21
-105.861
0
LINE
8
BLACK
6
CONTINUOUS
10
153.623
20
-105.861
11
153.639
21
-105.809
0
LINE
8
BLACK
6
CONTINUOUS
10
153.639
20
-105.809
11
153.665
21
-105.761
0
LINE
8
BLACK
6
CONTINUOUS
10
153.665
20
-105.761
11
153.699
21
-105.718
0
LINE
8
BLACK
6
CONTINUOUS
10
153.699
20
-105.718
11
153.742
21
-105.684
0
LINE
8
BLACK
6
CONTINUOUS
10
153.742
20
-105.684
11
153.79
21
-105.658
0
LINE
8
BLACK
6
CONTINUOUS
10
153.79
20
-105.658
11
153.842
21
-105.642
0
LINE
8
BLACK
6
CONTINUOUS
10
153.842
20
-105.642
11
153.903
21
-105.636
0
LINE
8
BLACK
6
CONTINUOUS
10
153.903
20
-105.636
11
154.781
21
-105.636
0
LINE
8
BLACK
6
CONTINUOUS
10
154.781
20
-105.636
11
154.842
21
-105.642
0
LINE
8
BLACK
6
CONTINUOUS
10
133.389
20
-103.958
11
133.466
21
-103.965
0
LINE
8
BLACK
6
CONTINUOUS
10
133.466
20
-103.965
11
133.664
21
-104.025
0
LINE
8
BLACK
6
CONTINUOUS
10
133.664
20
-104.025
11
133.664
21
-104.025
0
LINE
8
BLACK
6
CONTINUOUS
10
133.664
20
-104.025
11
133.846
21
-104.123
0
LINE
8
BLACK
6
CONTINUOUS
10
133.846
20
-104.123
11
134.006
21
-104.254
0
LINE
8
BLACK
6
CONTINUOUS
10
134.006
20
-104.254
11
134.137
21
-104.414
0
LINE
8
BLACK
6
CONTINUOUS
10
134.137
20
-104.414
11
134.235
21
-104.596
0
LINE
8
BLACK
6
CONTINUOUS
10
134.235
20
-104.596
11
134.235
21
-104.596
0
LINE
8
BLACK
6
CONTINUOUS
10
134.235
20
-104.596
11
134.295
21
-104.794
0
LINE
8
BLACK
6
CONTINUOUS
10
134.295
20
-104.794
11
134.315
21
-105
0
LINE
8
BLACK
6
CONTINUOUS
10
134.315
20
-105
11
134.295
21
-105.206
0
LINE
8
BLACK
6
CONTINUOUS
10
134.295
20
-105.206
11
134.273
21
-105.279
0
LINE
8
BLACK
6
CONTINUOUS
10
134.273
20
-105.279
11
134.235
21
-105.404
0
LINE
8
BLACK
6
CONTINUOUS
10
134.235
20
-105.404
11
134.137
21
-105.586
0
LINE
8
BLACK
6
CONTINUOUS
10
134.137
20
-105.586
11
134.006
21
-105.746
0
LINE
8
BLACK
6
CONTINUOUS
10
134.006
20
-105.746
11
133.846
21
-105.877
0
LINE
8
BLACK
6
CONTINUOUS
10
133.846
20
-105.877
11
133.664
21
-105.975
0
LINE
8
BLACK
6
CONTINUOUS
10
133.664
20
-105.975
11
133.664
21
-105.975
0
LINE
8
BLACK
6
CONTINUOUS
10
133.664
20
-105.975
11
133.466
21
-106.035
0
LINE
8
BLACK
6
CONTINUOUS
10
133.466
20
-106.035
11
133.389
21
-106.042
0
LINE
8
BLACK
6
CONTINUOUS
10
133.389
20
-106.042
11
133.312
21
-106.05
0
LINE
8
BLACK
6
CONTINUOUS
10
133.312
20
-106.05
11
133.208
21
-106.05
0
LINE
8
BLACK
6
CONTINUOUS
10
133.208
20
-106.05
11
133.131
21
-106.042
0
LINE
8
BLACK
6
CONTINUOUS
10
133.131
20
-106.042
11
133.054
21
-106.035
0
LINE
8
BLACK
6
CONTINUOUS
10
133.054
20
-106.035
11
132.856
21
-105.975
0
LINE
8
BLACK
6
CONTINUOUS
10
132.856
20
-105.975
11
132.856
21
-105.975
0
LINE
8
BLACK
6
CONTINUOUS
10
132.856
20
-105.975
11
132.674
21
-105.877
0
LINE
8
BLACK
6
CONTINUOUS
10
132.674
20
-105.877
11
132.514
21
-105.746
0
LINE
8
BLACK
6
CONTINUOUS
10
132.514
20
-105.746
11
132.383
21
-105.586
0
LINE
8
BLACK
6
CONTINUOUS
10
132.383
20
-105.586
11
132.285
21
-105.404
0
LINE
8
BLACK
6
CONTINUOUS
10
132.285
20
-105.404
11
132.247
21
-105.279
0
LINE
8
BLACK
6
CONTINUOUS
10
132.247
20
-105.279
11
132.225
21
-105.206
0
LINE
8
BLACK
6
CONTINUOUS
10
132.225
20
-105.206
11
132.205
21
-105
0
LINE
8
BLACK
6
CONTINUOUS
10
132.205
20
-105
11
132.225
21
-104.794
0
LINE
8
BLACK
6
CONTINUOUS
10
132.225
20
-104.794
11
132.285
21
-104.596
0
LINE
8
BLACK
6
CONTINUOUS
10
132.285
20
-104.596
11
132.285
21
-104.596
0
LINE
8
BLACK
6
CONTINUOUS
10
132.285
20
-104.596
11
132.383
21
-104.414
0
LINE
8
BLACK
6
CONTINUOUS
10
132.383
20
-104.414
11
132.514
21
-104.254
0
LINE
8
BLACK
6
CONTINUOUS
10
132.514
20
-104.254
11
132.674
21
-104.123
0
LINE
8
BLACK
6
CONTINUOUS
10
132.674
20
-104.123
11
132.856
21
-104.025
0
LINE
8
BLACK
6
CONTINUOUS
10
132.856
20
-104.025
11
132.856
21
-104.025
0
LINE
8
BLACK
6
CONTINUOUS
10
132.856
20
-104.025
11
133.054
21
-103.965
0
LINE
8
BLACK
6
CONTINUOUS
10
133.054
20
-103.965
11
133.131
21
-103.958
0
LINE
8
BLACK
6
CONTINUOUS
10
133.131
20
-103.958
11
133.208
21
-103.95
0
LINE
8
BLACK
6
CONTINUOUS
10
133.208
20
-103.95
11
133.312
21
-103.95
0
LINE
8
BLACK
6
CONTINUOUS
10
133.312
20
-103.95
11
133.389
21
-103.958
0
LINE
8
BLACK
6
CONTINUOUS
10
154.842
20
-103.353
11
154.894
21
-103.369
0
LINE
8
BLACK
6
CONTINUOUS
10
154.894
20
-103.369
11
154.942
21
-103.395
0
LINE
8
BLACK
6
CONTINUOUS
10
154.942
20
-103.395
11
154.985
21
-103.429
0
LINE
8
BLACK
6
CONTINUOUS
10
154.985
20
-103.429
11
155.019
21
-103.472
0
LINE
8
BLACK
6
CONTINUOUS
10
155.019
20
-103.472
11
155.045
21
-103.52
0
LINE
8
BLACK
6
CONTINUOUS
10
155.045
20
-103.52
11
155.061
21
-103.572
0
LINE
8
BLACK
6
CONTINUOUS
10
155.061
20
-103.572
11
155.067
21
-103.633
0
LINE
8
BLACK
6
CONTINUOUS
10
155.067
20
-103.633
11
155.067
21
-104.586
0
LINE
8
BLACK
6
CONTINUOUS
10
155.067
20
-104.586
11
155.061
21
-104.647
0
LINE
8
BLACK
6
CONTINUOUS
10
155.061
20
-104.647
11
155.045
21
-104.699
0
LINE
8
BLACK
6
CONTINUOUS
10
155.045
20
-104.699
11
155.019
21
-104.747
0
LINE
8
BLACK
6
CONTINUOUS
10
155.019
20
-104.747
11
154.985
21
-104.79
0
LINE
8
BLACK
6
CONTINUOUS
10
154.985
20
-104.79
11
154.942
21
-104.824
0
LINE
8
BLACK
6
CONTINUOUS
10
154.942
20
-104.824
11
154.894
21
-104.85
0
LINE
8
BLACK
6
CONTINUOUS
10
154.894
20
-104.85
11
154.842
21
-104.866
0
LINE
8
BLACK
6
CONTINUOUS
10
154.842
20
-104.866
11
154.781
21
-104.872
0
LINE
8
BLACK
6
CONTINUOUS
10
154.781
20
-104.872
11
153.903
21
-104.872
0
LINE
8
BLACK
6
CONTINUOUS
10
153.903
20
-104.872
11
153.842
21
-104.866
0
LINE
8
BLACK
6
CONTINUOUS
10
153.842
20
-104.866
11
153.79
21
-104.85
0
LINE
8
BLACK
6
CONTINUOUS
10
153.79
20
-104.85
11
153.742
21
-104.824
0
LINE
8
BLACK
6
CONTINUOUS
10
153.742
20
-104.824
11
153.699
21
-104.79
0
LINE
8
BLACK
6
CONTINUOUS
10
153.699
20
-104.79
11
153.665
21
-104.747
0
LINE
8
BLACK
6
CONTINUOUS
10
153.665
20
-104.747
11
153.639
21
-104.699
0
LINE
8
BLACK
6
CONTINUOUS
10
153.639
20
-104.699
11
153.623
21
-104.647
0
LINE
8
BLACK
6
CONTINUOUS
10
153.623
20
-104.647
11
153.617
21
-104.586
0
LINE
8
BLACK
6
CONTINUOUS
10
153.617
20
-104.586
11
153.617
21
-103.633
0
LINE
8
BLACK
6
CONTINUOUS
10
153.617
20
-103.633
11
153.623
21
-103.572
0
LINE
8
BLACK
6
CONTINUOUS
10
153.623
20
-103.572
11
153.639
21
-103.52
0
LINE
8
BLACK
6
CONTINUOUS
10
153.639
20
-103.52
11
153.665
21
-103.472
0
LINE
8
BLACK
6
CONTINUOUS
10
153.665
20
-103.472
11
153.699
21
-103.429
0
LINE
8
BLACK
6
CONTINUOUS
10
153.699
20
-103.429
11
153.742
21
-103.395
0
LINE
8
BLACK
6
CONTINUOUS
10
153.742
20
-103.395
11
153.79
21
-103.369
0
LINE
8
BLACK
6
CONTINUOUS
10
153.79
20
-103.369
11
153.842
21
-103.353
0
LINE
8
BLACK
6
CONTINUOUS
10
153.842
20
-103.353
11
153.903
21
-103.347
0
LINE
8
BLACK
6
CONTINUOUS
10
153.903
20
-103.347
11
154.781
21
-103.347
0
LINE
8
BLACK
6
CONTINUOUS
10
154.781
20
-103.347
11
154.842
21
-103.353
0
LINE
8
BLACK
6
CONTINUOUS
10
134.31
20
-103.51
11
132.21
21
-103.51
0
LINE
8
BLACK
6
CONTINUOUS
10
132.21
20
-103.51
11
132.21
21
-101.41
0
LINE
8
BLACK
6
CONTINUOUS
10
132.21
20
-101.41
11
134.31
21
-101.41
0
LINE
8
BLACK
6
CONTINUOUS
10
134.31
20
-101.41
11
134.31
21
-103.51
0
LINE
8
BLACK
6
CONTINUOUS
10
154.842
20
-101.578
11
154.894
21
-101.594
0
LINE
8
BLACK
6
CONTINUOUS
10
154.894
20
-101.594
11
154.942
21
-101.62
0
LINE
8
BLACK
6
CONTINUOUS
10
154.942
20
-101.62
11
154.985
21
-101.654
0
LINE
8
BLACK
6
CONTINUOUS
10
154.985
20
-101.654
11
155.019
21
-101.697
0
LINE
8
BLACK
6
CONTINUOUS
10
155.019
20
-101.697
11
155.045
21
-101.745
0
LINE
8
BLACK
6
CONTINUOUS
10
155.045
20
-101.745
11
155.061
21
-101.797
0
LINE
8
BLACK
6
CONTINUOUS
10
155.061
20
-101.797
11
155.067
21
-101.858
0
LINE
8
BLACK
6
CONTINUOUS
10
155.067
20
-101.858
11
155.067
21
-102.811
0
LINE
8
BLACK
6
CONTINUOUS
10
155.067
20
-102.811
11
155.061
21
-102.872
0
LINE
8
BLACK
6
CONTINUOUS
10
155.061
20
-102.872
11
155.045
21
-102.924
0
LINE
8
BLACK
6
CONTINUOUS
10
155.045
20
-102.924
11
155.019
21
-102.972
0
LINE
8
BLACK
6
CONTINUOUS
10
155.019
20
-102.972
11
154.985
21
-103.015
0
LINE
8
BLACK
6
CONTINUOUS
10
154.985
20
-103.015
11
154.942
21
-103.049
0
LINE
8
BLACK
6
CONTINUOUS
10
154.942
20
-103.049
11
154.894
21
-103.075
0
LINE
8
BLACK
6
CONTINUOUS
10
154.894
20
-103.075
11
154.842
21
-103.091
0
LINE
8
BLACK
6
CONTINUOUS
10
154.842
20
-103.091
11
154.781
21
-103.097
0
LINE
8
BLACK
6
CONTINUOUS
10
154.781
20
-103.097
11
153.903
21
-103.097
0
LINE
8
BLACK
6
CONTINUOUS
10
153.903
20
-103.097
11
153.842
21
-103.091
0
LINE
8
BLACK
6
CONTINUOUS
10
153.842
20
-103.091
11
153.79
21
-103.075
0
LINE
8
BLACK
6
CONTINUOUS
10
153.79
20
-103.075
11
153.742
21
-103.049
0
LINE
8
BLACK
6
CONTINUOUS
10
153.742
20
-103.049
11
153.699
21
-103.015
0
LINE
8
BLACK
6
CONTINUOUS
10
153.699
20
-103.015
11
153.665
21
-102.972
0
LINE
8
BLACK
6
CONTINUOUS
10
153.665
20
-102.972
11
153.639
21
-102.924
0
LINE
8
BLACK
6
CONTINUOUS
10
153.639
20
-102.924
11
153.623
21
-102.872
0
LINE
8
BLACK
6
CONTINUOUS
10
153.623
20
-102.872
11
153.617
21
-102.811
0
LINE
8
BLACK
6
CONTINUOUS
10
153.617
20
-102.811
11
153.617
21
-101.858
0
LINE
8
BLACK
6
CONTINUOUS
10
153.617
20
-101.858
11
153.623
21
-101.797
0
LINE
8
BLACK
6
CONTINUOUS
10
153.623
20
-101.797
11
153.639
21
-101.745
0
LINE
8
BLACK
6
CONTINUOUS
10
153.639
20
-101.745
11
153.665
21
-101.697
0
LINE
8
BLACK
6
CONTINUOUS
10
153.665
20
-101.697
11
153.699
21
-101.654
0
LINE
8
BLACK
6
CONTINUOUS
10
153.699
20
-101.654
11
153.742
21
-101.62
0
LINE
8
BLACK
6
CONTINUOUS
10
153.742
20
-101.62
11
153.79
21
-101.594
0
LINE
8
BLACK
6
CONTINUOUS
10
153.79
20
-101.594
11
153.842
21
-101.578
0
LINE
8
BLACK
6
CONTINUOUS
10
153.842
20
-101.578
11
153.903
21
-101.572
0
LINE
8
BLACK
6
CONTINUOUS
10
153.903
20
-101.572
11
154.781
21
-101.572
0
LINE
8
BLACK
6
CONTINUOUS
10
154.781
20
-101.572
11
154.842
21
-101.578
0
LINE
8
BLACK
6
CONTINUOUS
10
149.927
20
-100.25
11
140.977
21
-100.25
0
LINE
8
BLACK
6
CONTINUOUS
10
140.977
20
-100.25
11
140.977
21
-98.35
0
LINE
8
BLACK
6
CONTINUOUS
10
140.977
20
-98.35
11
149.927
21
-98.35
0
LINE
8
BLACK
6
CONTINUOUS
10
149.927
20
-98.35
11
149.927
21
-100.25
0
LINE
8
BLACK
6
CONTINUOUS
10
147.476
20
-95.733
11
147.528
21
-95.7489
0
LINE
8
BLACK
6
CONTINUOUS
10
147.528
20
-95.7489
11
147.576
21
-95.7747
0
LINE
8
BLACK
6
CONTINUOUS
10
147.576
20
-95.7747
11
147.619
21
-95.8094
0
LINE
8
BLACK
6
CONTINUOUS
10
147.619
20
-95.8094
11
147.653
21
-95.8517
0
LINE
8
BLACK
6
CONTINUOUS
10
147.653
20
-95.8517
11
147.679
21
-95.8999
0
LINE
8
BLACK
6
CONTINUOUS
10
147.679
20
-95.8999
11
147.695
21
-95.9523
0
LINE
8
BLACK
6
CONTINUOUS
10
147.695
20
-95.9523
11
147.701
21
-96.0129
0
LINE
8
BLACK
6
CONTINUOUS
10
147.701
20
-96.0129
11
147.701
21
-96.9661
0
LINE
8
BLACK
6
CONTINUOUS
10
147.701
20
-96.9661
11
147.695
21
-97.0267
0
LINE
8
BLACK
6
CONTINUOUS
10
147.695
20
-97.0267
11
147.679
21
-97.0791
0
LINE
8
BLACK
6
CONTINUOUS
10
147.679
20
-97.0791
11
147.653
21
-97.1273
0
LINE
8
BLACK
6
CONTINUOUS
10
147.653
20
-97.1273
11
147.619
21
-97.1696
0
LINE
8
BLACK
6
CONTINUOUS
10
147.619
20
-97.1696
11
147.576
21
-97.2043
0
LINE
8
BLACK
6
CONTINUOUS
10
147.576
20
-97.2043
11
147.528
21
-97.2301
0
LINE
8
BLACK
6
CONTINUOUS
10
147.528
20
-97.2301
11
147.476
21
-97.246
0
LINE
8
BLACK
6
CONTINUOUS
10
147.476
20
-97.246
11
147.415
21
-97.252
0
LINE
8
BLACK
6
CONTINUOUS
10
147.415
20
-97.252
11
146.537
21
-97.252
0
LINE
8
BLACK
6
CONTINUOUS
10
146.537
20
-97.252
11
146.476
21
-97.246
0
LINE
8
BLACK
6
CONTINUOUS
10
146.476
20
-97.246
11
146.424
21
-97.2301
0
LINE
8
BLACK
6
CONTINUOUS
10
146.424
20
-97.2301
11
146.376
21
-97.2043
0
LINE
8
BLACK
6
CONTINUOUS
10
146.376
20
-97.2043
11
146.333
21
-97.1696
0
LINE
8
BLACK
6
CONTINUOUS
10
146.333
20
-97.1696
11
146.299
21
-97.1273
0
LINE
8
BLACK
6
CONTINUOUS
10
146.299
20
-97.1273
11
146.273
21
-97.0791
0
LINE
8
BLACK
6
CONTINUOUS
10
146.273
20
-97.0791
11
146.257
21
-97.0267
0
LINE
8
BLACK
6
CONTINUOUS
10
146.257
20
-97.0267
11
146.251
21
-96.9661
0
LINE
8
BLACK
6
CONTINUOUS
10
146.251
20
-96.9661
11
146.251
21
-96.0129
0
LINE
8
BLACK
6
CONTINUOUS
10
146.251
20
-96.0129
11
146.257
21
-95.9523
0
LINE
8
BLACK
6
CONTINUOUS
10
146.257
20
-95.9523
11
146.273
21
-95.8999
0
LINE
8
BLACK
6
CONTINUOUS
10
146.273
20
-95.8999
11
146.299
21
-95.8517
0
LINE
8
BLACK
6
CONTINUOUS
10
146.299
20
-95.8517
11
146.333
21
-95.8094
0
LINE
8
BLACK
6
CONTINUOUS
10
146.333
20
-95.8094
11
146.376
21
-95.7747
0
LINE
8
BLACK
6
CONTINUOUS
10
146.376
20
-95.7747
11
146.424
21
-95.7489
0
LINE
8
BLACK
6
CONTINUOUS
10
146.424
20
-95.7489
11
146.476
21
-95.733
0
LINE
8
BLACK
6
CONTINUOUS
10
146.476
20
-95.733
11
146.537
21
-95.727
0
LINE
8
BLACK
6
CONTINUOUS
10
146.537
20
-95.727
11
147.415
21
-95.727
0
LINE
8
BLACK
6
CONTINUOUS
10
147.415
20
-95.727
11
147.476
21
-95.733
0
LINE
8
BLACK
6
CONTINUOUS
10
149.985
20
-95.7575
11
150.033
21
-95.7721
0
LINE
8
BLACK
6
CONTINUOUS
10
150.033
20
-95.7721
11
150.077
21
-95.7957
0
LINE
8
BLACK
6
CONTINUOUS
10
150.077
20
-95.7957
11
150.116
21
-95.8275
0
LINE
8
BLACK
6
CONTINUOUS
10
150.116
20
-95.8275
11
150.147
21
-95.8662
0
LINE
8
BLACK
6
CONTINUOUS
10
150.147
20
-95.8662
11
150.171
21
-95.9104
0
LINE
8
BLACK
6
CONTINUOUS
10
150.171
20
-95.9104
11
150.185
21
-95.9584
0
LINE
8
BLACK
6
CONTINUOUS
10
150.185
20
-95.9584
11
150.191
21
-96.0144
0
LINE
8
BLACK
6
CONTINUOUS
10
150.191
20
-96.0144
11
150.191
21
-96.7646
0
LINE
8
BLACK
6
CONTINUOUS
10
150.191
20
-96.7646
11
150.185
21
-96.8206
0
LINE
8
BLACK
6
CONTINUOUS
10
150.185
20
-96.8206
11
150.171
21
-96.8686
0
LINE
8
BLACK
6
CONTINUOUS
10
150.171
20
-96.8686
11
150.147
21
-96.9128
0
LINE
8
BLACK
6
CONTINUOUS
10
150.147
20
-96.9128
11
150.116
21
-96.9515
0
LINE
8
BLACK
6
CONTINUOUS
10
150.116
20
-96.9515
11
150.077
21
-96.9833
0
LINE
8
BLACK
6
CONTINUOUS
10
150.077
20
-96.9833
11
150.033
21
-97.0069
0
LINE
8
BLACK
6
CONTINUOUS
10
150.033
20
-97.0069
11
149.985
21
-97.0215
0
LINE
8
BLACK
6
CONTINUOUS
10
149.985
20
-97.0215
11
149.929
21
-97.027
0
LINE
8
BLACK
6
CONTINUOUS
10
149.929
20
-97.027
11
149.103
21
-97.027
0
LINE
8
BLACK
6
CONTINUOUS
10
149.103
20
-97.027
11
149.047
21
-97.0215
0
LINE
8
BLACK
6
CONTINUOUS
10
149.047
20
-97.0215
11
148.999
21
-97.0069
0
LINE
8
BLACK
6
CONTINUOUS
10
148.999
20
-97.0069
11
148.955
21
-96.9833
0
LINE
8
BLACK
6
CONTINUOUS
10
148.955
20
-96.9833
11
148.916
21
-96.9515
0
LINE
8
BLACK
6
CONTINUOUS
10
148.916
20
-96.9515
11
148.885
21
-96.9128
0
LINE
8
BLACK
6
CONTINUOUS
10
148.885
20
-96.9128
11
148.861
21
-96.8686
0
LINE
8
BLACK
6
CONTINUOUS
10
148.861
20
-96.8686
11
148.847
21
-96.8206
0
LINE
8
BLACK
6
CONTINUOUS
10
148.847
20
-96.8206
11
148.841
21
-96.7646
0
LINE
8
BLACK
6
CONTINUOUS
10
148.841
20
-96.7646
11
148.841
21
-96.0144
0
LINE
8
BLACK
6
CONTINUOUS
10
148.841
20
-96.0144
11
148.847
21
-95.9584
0
LINE
8
BLACK
6
CONTINUOUS
10
148.847
20
-95.9584
11
148.861
21
-95.9104
0
LINE
8
BLACK
6
CONTINUOUS
10
148.861
20
-95.9104
11
148.885
21
-95.8662
0
LINE
8
BLACK
6
CONTINUOUS
10
148.885
20
-95.8662
11
148.916
21
-95.8275
0
LINE
8
BLACK
6
CONTINUOUS
10
148.916
20
-95.8275
11
148.955
21
-95.7957
0
LINE
8
BLACK
6
CONTINUOUS
10
148.955
20
-95.7957
11
148.999
21
-95.7721
0
LINE
8
BLACK
6
CONTINUOUS
10
148.999
20
-95.7721
11
149.047
21
-95.7575
0
LINE
8
BLACK
6
CONTINUOUS
10
149.047
20
-95.7575
11
149.103
21
-95.752
0
LINE
8
BLACK
6
CONTINUOUS
10
149.103
20
-95.752
11
149.929
21
-95.752
0
LINE
8
BLACK
6
CONTINUOUS
10
149.929
20
-95.752
11
149.985
21
-95.7575
0
LINE
8
BLACK
6
CONTINUOUS
10
147.476
20
-93.958
11
147.528
21
-93.9739
0
LINE
8
BLACK
6
CONTINUOUS
10
147.528
20
-93.9739
11
147.576
21
-93.9997
0
LINE
8
BLACK
6
CONTINUOUS
10
147.576
20
-93.9997
11
147.619
21
-94.0344
0
LINE
8
BLACK
6
CONTINUOUS
10
147.619
20
-94.0344
11
147.653
21
-94.0767
0
LINE
8
BLACK
6
CONTINUOUS
10
147.653
20
-94.0767
11
147.679
21
-94.1249
0
LINE
8
BLACK
6
CONTINUOUS
10
147.679
20
-94.1249
11
147.695
21
-94.1773
0
LINE
8
BLACK
6
CONTINUOUS
10
147.695
20
-94.1773
11
147.701
21
-94.2379
0
LINE
8
BLACK
6
CONTINUOUS
10
147.701
20
-94.2379
11
147.701
21
-95.1911
0
LINE
8
BLACK
6
CONTINUOUS
10
147.701
20
-95.1911
11
147.695
21
-95.2517
0
LINE
8
BLACK
6
CONTINUOUS
10
147.695
20
-95.2517
11
147.679
21
-95.3041
0
LINE
8
BLACK
6
CONTINUOUS
10
147.679
20
-95.3041
11
147.653
21
-95.3523
0
LINE
8
BLACK
6
CONTINUOUS
10
147.653
20
-95.3523
11
147.619
21
-95.3946
0
LINE
8
BLACK
6
CONTINUOUS
10
147.619
20
-95.3946
11
147.576
21
-95.4293
0
LINE
8
BLACK
6
CONTINUOUS
10
147.576
20
-95.4293
11
147.528
21
-95.4551
0
LINE
8
BLACK
6
CONTINUOUS
10
147.528
20
-95.4551
11
147.476
21
-95.471
0
LINE
8
BLACK
6
CONTINUOUS
10
147.476
20
-95.471
11
147.415
21
-95.477
0
LINE
8
BLACK
6
CONTINUOUS
10
147.415
20
-95.477
11
146.537
21
-95.477
0
LINE
8
BLACK
6
CONTINUOUS
10
146.537
20
-95.477
11
146.476
21
-95.471
0
LINE
8
BLACK
6
CONTINUOUS
10
146.476
20
-95.471
11
146.424
21
-95.4551
0
LINE
8
BLACK
6
CONTINUOUS
10
146.424
20
-95.4551
11
146.376
21
-95.4293
0
LINE
8
BLACK
6
CONTINUOUS
10
146.376
20
-95.4293
11
146.333
21
-95.3946
0
LINE
8
BLACK
6
CONTINUOUS
10
146.333
20
-95.3946
11
146.299
21
-95.3523
0
LINE
8
BLACK
6
CONTINUOUS
10
146.299
20
-95.3523
11
146.273
21
-95.3041
0
LINE
8
BLACK
6
CONTINUOUS
10
146.273
20
-95.3041
11
146.257
21
-95.2517
0
LINE
8
BLACK
6
CONTINUOUS
10
146.257
20
-95.2517
11
146.251
21
-95.1911
0
LINE
8
BLACK
6
CONTINUOUS
10
146.251
20
-95.1911
11
146.251
21
-94.2379
0
LINE
8
BLACK
6
CONTINUOUS
10
146.251
20
-94.2379
11
146.257
21
-94.1773
0
LINE
8
BLACK
6
CONTINUOUS
10
146.257
20
-94.1773
11
146.273
21
-94.1249
0
LINE
8
BLACK
6
CONTINUOUS
10
146.273
20
-94.1249
11
146.299
21
-94.0767
0
LINE
8
BLACK
6
CONTINUOUS
10
146.299
20
-94.0767
11
146.333
21
-94.0344
0
LINE
8
BLACK
6
CONTINUOUS
10
146.333
20
-94.0344
11
146.376
21
-93.9997
0
LINE
8
BLACK
6
CONTINUOUS
10
146.376
20
-93.9997
11
146.424
21
-93.9739
0
LINE
8
BLACK
6
CONTINUOUS
10
146.424
20
-93.9739
11
146.476
21
-93.958
0
LINE
8
BLACK
6
CONTINUOUS
10
146.476
20
-93.958
11
146.537
21
-93.952
0
LINE
8
BLACK
6
CONTINUOUS
10
146.537
20
-93.952
11
147.415
21
-93.952
0
LINE
8
BLACK
6
CONTINUOUS
10
147.415
20
-93.952
11
147.476
21
-93.958
0
LINE
8
BLACK
6
CONTINUOUS
10
149.985
20
-94.1825
11
150.033
21
-94.1971
0
LINE
8
BLACK
6
CONTINUOUS
10
150.033
20
-94.1971
11
150.077
21
-94.2207
0
LINE
8
BLACK
6
CONTINUOUS
10
150.077
20
-94.2207
11
150.116
21
-94.2525
0
LINE
8
BLACK
6
CONTINUOUS
10
150.116
20
-94.2525
11
150.147
21
-94.2912
0
LINE
8
BLACK
6
CONTINUOUS
10
150.147
20
-94.2912
11
150.171
21
-94.3354
0
LINE
8
BLACK
6
CONTINUOUS
10
150.171
20
-94.3354
11
150.185
21
-94.3834
0
LINE
8
BLACK
6
CONTINUOUS
10
150.185
20
-94.3834
11
150.191
21
-94.4394
0
LINE
8
BLACK
6
CONTINUOUS
10
150.191
20
-94.4394
11
150.191
21
-95.1896
0
LINE
8
BLACK
6
CONTINUOUS
10
150.191
20
-95.1896
11
150.185
21
-95.2456
0
LINE
8
BLACK
6
CONTINUOUS
10
150.185
20
-95.2456
11
150.171
21
-95.2936
0
LINE
8
BLACK
6
CONTINUOUS
10
150.171
20
-95.2936
11
150.147
21
-95.3378
0
LINE
8
BLACK
6
CONTINUOUS
10
150.147
20
-95.3378
11
150.116
21
-95.3765
0
LINE
8
BLACK
6
CONTINUOUS
10
150.116
20
-95.3765
11
150.077
21
-95.4083
0
LINE
8
BLACK
6
CONTINUOUS
10
150.077
20
-95.4083
11
150.033
21
-95.4319
0
LINE
8
BLACK
6
CONTINUOUS
10
150.033
20
-95.4319
11
149.985
21
-95.4465
0
LINE
8
BLACK
6
CONTINUOUS
10
149.985
20
-95.4465
11
149.929
21
-95.452
0
LINE
8
BLACK
6
CONTINUOUS
10
149.929
20
-95.452
11
149.103
21
-95.452
0
LINE
8
BLACK
6
CONTINUOUS
10
149.103
20
-95.452
11
149.047
21
-95.4465
0
LINE
8
BLACK
6
CONTINUOUS
10
149.047
20
-95.4465
11
148.999
21
-95.4319
0
LINE
8
BLACK
6
CONTINUOUS
10
148.999
20
-95.4319
11
148.955
21
-95.4083
0
LINE
8
BLACK
6
CONTINUOUS
10
148.955
20
-95.4083
11
148.916
21
-95.3765
0
LINE
8
BLACK
6
CONTINUOUS
10
148.916
20
-95.3765
11
148.885
21
-95.3378
0
LINE
8
BLACK
6
CONTINUOUS
10
148.885
20
-95.3378
11
148.861
21
-95.2936
0
LINE
8
BLACK
6
CONTINUOUS
10
148.861
20
-95.2936
11
148.847
21
-95.2456
0
LINE
8
BLACK
6
CONTINUOUS
10
148.847
20
-95.2456
11
148.841
21
-95.1896
0
LINE
8
BLACK
6
CONTINUOUS
10
148.841
20
-95.1896
11
148.841
21
-94.4394
0
LINE
8
BLACK
6
CONTINUOUS
10
148.841
20
-94.4394
11
148.847
21
-94.3834
0
LINE
8
BLACK
6
CONTINUOUS
10
148.847
20
-94.3834
11
148.861
21
-94.3354
0
LINE
8
BLACK
6
CONTINUOUS
10
148.861
20
-94.3354
11
148.885
21
-94.2912
0
LINE
8
BLACK
6
CONTINUOUS
10
148.885
20
-94.2912
11
148.916
21
-94.2525
0
LINE
8
BLACK
6
CONTINUOUS
10
148.916
20
-94.2525
11
148.955
21
-94.2207
0
LINE
8
BLACK
6
CONTINUOUS
10
148.955
20
-94.2207
11
148.999
21
-94.1971
0
LINE
8
BLACK
6
CONTINUOUS
10
148.999
20
-94.1971
11
149.047
21
-94.1825
0
LINE
8
BLACK
6
CONTINUOUS
10
149.047
20
-94.1825
11
149.103
21
-94.177
0
LINE
8
BLACK
6
CONTINUOUS
10
149.103
20
-94.177
11
149.929
21
-94.177
0
LINE
8
BLACK
6
CONTINUOUS
10
149.929
20
-94.177
11
149.985
21
-94.1825
0
LINE
8
BLACK
6
CONTINUOUS
10
134.458
20
-89.767
11
134.458
21
-89.767
0
LINE
8
BLACK
6
CONTINUOUS
10
134.458
20
-89.767
11
134.458
21
-89.767
0
LINE
8
BLACK
6
CONTINUOUS
10
134.458
20
-89.767
11
134.628
21
-89.8185
0
LINE
8
BLACK
6
CONTINUOUS
10
134.628
20
-89.8185
11
134.628
21
-89.8185
0
LINE
8
BLACK
6
CONTINUOUS
10
134.628
20
-89.8185
11
134.628
21
-89.8185
0
LINE
8
BLACK
6
CONTINUOUS
10
134.628
20
-89.8185
11
134.784
21
-89.9021
0
LINE
8
BLACK
6
CONTINUOUS
10
134.784
20
-89.9021
11
134.921
21
-90.0145
0
LINE
8
BLACK
6
CONTINUOUS
10
134.921
20
-90.0145
11
135.034
21
-90.1516
0
LINE
8
BLACK
6
CONTINUOUS
10
135.034
20
-90.1516
11
135.118
21
-90.3079
0
LINE
8
BLACK
6
CONTINUOUS
10
135.118
20
-90.3079
11
135.172
21
-90.4888
0
LINE
8
BLACK
6
CONTINUOUS
10
135.172
20
-90.4888
11
135.182
21
-90.5114
0
LINE
8
BLACK
6
CONTINUOUS
10
135.182
20
-90.5114
11
135.195
21
-90.5318
0
LINE
8
BLACK
6
CONTINUOUS
10
135.195
20
-90.5318
11
135.213
21
-90.5491
0
LINE
8
BLACK
6
CONTINUOUS
10
135.213
20
-90.5491
11
135.233
21
-90.5627
0
LINE
8
BLACK
6
CONTINUOUS
10
135.233
20
-90.5627
11
135.256
21
-90.5721
0
LINE
8
BLACK
6
CONTINUOUS
10
135.256
20
-90.5721
11
135.28
21
-90.5769
0
LINE
8
BLACK
6
CONTINUOUS
10
135.28
20
-90.5769
11
135.304
21
-90.5769
0
LINE
8
BLACK
6
CONTINUOUS
10
135.304
20
-90.5769
11
135.328
21
-90.5721
0
LINE
8
BLACK
6
CONTINUOUS
10
135.328
20
-90.5721
11
135.351
21
-90.5627
0
LINE
8
BLACK
6
CONTINUOUS
10
135.351
20
-90.5627
11
135.371
21
-90.5491
0
LINE
8
BLACK
6
CONTINUOUS
10
135.371
20
-90.5491
11
135.389
21
-90.5318
0
LINE
8
BLACK
6
CONTINUOUS
10
135.389
20
-90.5318
11
135.402
21
-90.5114
0
LINE
8
BLACK
6
CONTINUOUS
10
135.402
20
-90.5114
11
135.412
21
-90.4888
0
LINE
8
BLACK
6
CONTINUOUS
10
135.412
20
-90.4888
11
135.466
21
-90.3079
0
LINE
8
BLACK
6
CONTINUOUS
10
135.466
20
-90.3079
11
135.55
21
-90.1516
0
LINE
8
BLACK
6
CONTINUOUS
10
135.55
20
-90.1516
11
135.663
21
-90.0145
0
LINE
8
BLACK
6
CONTINUOUS
10
135.663
20
-90.0145
11
135.8
21
-89.9021
0
LINE
8
BLACK
6
CONTINUOUS
10
135.8
20
-89.9021
11
135.956
21
-89.8185
0
LINE
8
BLACK
6
CONTINUOUS
10
135.956
20
-89.8185
11
135.956
21
-89.8185
0
LINE
8
BLACK
6
CONTINUOUS
10
135.956
20
-89.8185
11
135.956
21
-89.8185
0
LINE
8
BLACK
6
CONTINUOUS
10
135.956
20
-89.8185
11
136.126
21
-89.767
0
LINE
8
BLACK
6
CONTINUOUS
10
136.126
20
-89.767
11
136.126
21
-89.767
0
LINE
8
BLACK
6
CONTINUOUS
10
136.126
20
-89.767
11
136.126
21
-89.767
0
LINE
8
BLACK
6
CONTINUOUS
10
136.126
20
-89.767
11
136.258
21
-89.754
0
LINE
8
BLACK
6
CONTINUOUS
10
136.258
20
-89.754
11
137.846
21
-89.754
0
LINE
8
BLACK
6
CONTINUOUS
10
137.846
20
-89.754
11
137.978
21
-89.767
0
LINE
8
BLACK
6
CONTINUOUS
10
137.978
20
-89.767
11
137.978
21
-89.767
0
LINE
8
BLACK
6
CONTINUOUS
10
137.978
20
-89.767
11
137.978
21
-89.767
0
LINE
8
BLACK
6
CONTINUOUS
10
137.978
20
-89.767
11
138.148
21
-89.8185
0
LINE
8
BLACK
6
CONTINUOUS
10
138.148
20
-89.8185
11
138.148
21
-89.8185
0
LINE
8
BLACK
6
CONTINUOUS
10
138.148
20
-89.8185
11
138.148
21
-89.8185
0
LINE
8
BLACK
6
CONTINUOUS
10
138.148
20
-89.8185
11
138.304
21
-89.9021
0
LINE
8
BLACK
6
CONTINUOUS
10
138.304
20
-89.9021
11
138.441
21
-90.0145
0
LINE
8
BLACK
6
CONTINUOUS
10
138.441
20
-90.0145
11
138.554
21
-90.1516
0
LINE
8
BLACK
6
CONTINUOUS
10
138.554
20
-90.1516
11
138.638
21
-90.3079
0
LINE
8
BLACK
6
CONTINUOUS
10
138.638
20
-90.3079
11
138.638
21
-90.3079
0
LINE
8
BLACK
6
CONTINUOUS
10
138.638
20
-90.3079
11
138.638
21
-90.3079
0
LINE
8
BLACK
6
CONTINUOUS
10
138.638
20
-90.3079
11
138.689
21
-90.4776
0
LINE
8
BLACK
6
CONTINUOUS
10
138.689
20
-90.4776
11
138.689
21
-90.4776
0
LINE
8
BLACK
6
CONTINUOUS
10
138.689
20
-90.4776
11
138.706
21
-90.654
0
LINE
8
BLACK
6
CONTINUOUS
10
138.706
20
-90.654
11
138.689
21
-90.8304
0
LINE
8
BLACK
6
CONTINUOUS
10
138.689
20
-90.8304
11
138.689
21
-90.8304
0
LINE
8
BLACK
6
CONTINUOUS
10
138.689
20
-90.8304
11
138.689
21
-90.8304
0
LINE
8
BLACK
6
CONTINUOUS
10
138.689
20
-90.8304
11
138.646
21
-90.9715
0
LINE
8
BLACK
6
CONTINUOUS
10
138.646
20
-90.9715
11
138.638
21
-91.0001
0
LINE
8
BLACK
6
CONTINUOUS
10
138.638
20
-91.0001
11
138.554
21
-91.1564
0
LINE
8
BLACK
6
CONTINUOUS
10
138.554
20
-91.1564
11
138.441
21
-91.2935
0
LINE
8
BLACK
6
CONTINUOUS
10
138.441
20
-91.2935
11
138.304
21
-91.4059
0
LINE
8
BLACK
6
CONTINUOUS
10
138.304
20
-91.4059
11
138.14
21
-91.4938
0
LINE
8
BLACK
6
CONTINUOUS
10
138.14
20
-91.4938
11
138.12
21
-91.5074
0
LINE
8
BLACK
6
CONTINUOUS
10
138.12
20
-91.5074
11
138.102
21
-91.5247
0
LINE
8
BLACK
6
CONTINUOUS
10
138.102
20
-91.5247
11
138.089
21
-91.5451
0
LINE
8
BLACK
6
CONTINUOUS
10
138.089
20
-91.5451
11
138.079
21
-91.5677
0
LINE
8
BLACK
6
CONTINUOUS
10
138.079
20
-91.5677
11
138.075
21
-91.5917
0
LINE
8
BLACK
6
CONTINUOUS
10
138.075
20
-91.5917
11
138.075
21
-91.6163
0
LINE
8
BLACK
6
CONTINUOUS
10
138.075
20
-91.6163
11
138.079
21
-91.6403
0
LINE
8
BLACK
6
CONTINUOUS
10
138.079
20
-91.6403
11
138.089
21
-91.6629
0
LINE
8
BLACK
6
CONTINUOUS
10
138.089
20
-91.6629
11
138.102
21
-91.6833
0
LINE
8
BLACK
6
CONTINUOUS
10
138.102
20
-91.6833
11
138.12
21
-91.7006
0
LINE
8
BLACK
6
CONTINUOUS
10
138.12
20
-91.7006
11
138.14
21
-91.7142
0
LINE
8
BLACK
6
CONTINUOUS
10
138.14
20
-91.7142
11
138.304
21
-91.8021
0
LINE
8
BLACK
6
CONTINUOUS
10
138.304
20
-91.8021
11
138.441
21
-91.9145
0
LINE
8
BLACK
6
CONTINUOUS
10
138.441
20
-91.9145
11
138.554
21
-92.0516
0
LINE
8
BLACK
6
CONTINUOUS
10
138.554
20
-92.0516
11
138.638
21
-92.2079
0
LINE
8
BLACK
6
CONTINUOUS
10
138.638
20
-92.2079
11
138.689
21
-92.3776
0
LINE
8
BLACK
6
CONTINUOUS
10
138.689
20
-92.3776
11
138.706
21
-92.554
0
LINE
8
BLACK
6
CONTINUOUS
10
138.706
20
-92.554
11
138.689
21
-92.7304
0
LINE
8
BLACK
6
CONTINUOUS
10
138.689
20
-92.7304
11
138.638
21
-92.9001
0
LINE
8
BLACK
6
CONTINUOUS
10
138.638
20
-92.9001
11
138.554
21
-93.0564
0
LINE
8
BLACK
6
CONTINUOUS
10
138.554
20
-93.0564
11
138.441
21
-93.1935
0
LINE
8
BLACK
6
CONTINUOUS
10
138.441
20
-93.1935
11
138.304
21
-93.3059
0
LINE
8
BLACK
6
CONTINUOUS
10
138.304
20
-93.3059
11
138.14
21
-93.3938
0
LINE
8
BLACK
6
CONTINUOUS
10
138.14
20
-93.3938
11
138.12
21
-93.4074
0
LINE
8
BLACK
6
CONTINUOUS
10
138.12
20
-93.4074
11
138.102
21
-93.4247
0
LINE
8
BLACK
6
CONTINUOUS
10
138.102
20
-93.4247
11
138.089
21
-93.4451
0
LINE
8
BLACK
6
CONTINUOUS
10
138.089
20
-93.4451
11
138.079
21
-93.4677
0
LINE
8
BLACK
6
CONTINUOUS
10
138.079
20
-93.4677
11
138.075
21
-93.4917
0
LINE
8
BLACK
6
CONTINUOUS
10
138.075
20
-93.4917
11
138.075
21
-93.5163
0
LINE
8
BLACK
6
CONTINUOUS
10
138.075
20
-93.5163
11
138.079
21
-93.5403
0
LINE
8
BLACK
6
CONTINUOUS
10
138.079
20
-93.5403
11
138.089
21
-93.5629
0
LINE
8
BLACK
6
CONTINUOUS
10
138.089
20
-93.5629
11
138.102
21
-93.5833
0
LINE
8
BLACK
6
CONTINUOUS
10
138.102
20
-93.5833
11
138.12
21
-93.6006
0
LINE
8
BLACK
6
CONTINUOUS
10
138.12
20
-93.6006
11
138.14
21
-93.6142
0
LINE
8
BLACK
6
CONTINUOUS
10
138.14
20
-93.6142
11
138.304
21
-93.7021
0
LINE
8
BLACK
6
CONTINUOUS
10
138.304
20
-93.7021
11
138.441
21
-93.8145
0
LINE
8
BLACK
6
CONTINUOUS
10
138.441
20
-93.8145
11
138.554
21
-93.9516
0
LINE
8
BLACK
6
CONTINUOUS
10
138.554
20
-93.9516
11
138.638
21
-94.1079
0
LINE
8
BLACK
6
CONTINUOUS
10
138.638
20
-94.1079
11
138.638
21
-94.1079
0
LINE
8
BLACK
6
CONTINUOUS
10
138.638
20
-94.1079
11
138.638
21
-94.1079
0
LINE
8
BLACK
6
CONTINUOUS
10
138.638
20
-94.1079
11
138.687
21
-94.2704
0
LINE
8
BLACK
6
CONTINUOUS
10
138.687
20
-94.2704
11
138.689
21
-94.2776
0
LINE
8
BLACK
6
CONTINUOUS
10
138.689
20
-94.2776
11
138.706
21
-94.454
0
LINE
8
BLACK
6
CONTINUOUS
10
138.706
20
-94.454
11
138.689
21
-94.6304
0
LINE
8
BLACK
6
CONTINUOUS
10
138.689
20
-94.6304
11
138.638
21
-94.8001
0
LINE
8
BLACK
6
CONTINUOUS
10
138.638
20
-94.8001
11
138.554
21
-94.9564
0
LINE
8
BLACK
6
CONTINUOUS
10
138.554
20
-94.9564
11
138.441
21
-95.0935
0
LINE
8
BLACK
6
CONTINUOUS
10
138.441
20
-95.0935
11
138.304
21
-95.2059
0
LINE
8
BLACK
6
CONTINUOUS
10
138.304
20
-95.2059
11
138.148
21
-95.2895
0
LINE
8
BLACK
6
CONTINUOUS
10
138.148
20
-95.2895
11
138.148
21
-95.2895
0
LINE
8
BLACK
6
CONTINUOUS
10
138.148
20
-95.2895
11
138.148
21
-95.2895
0
LINE
8
BLACK
6
CONTINUOUS
10
138.148
20
-95.2895
11
137.978
21
-95.341
0
LINE
8
BLACK
6
CONTINUOUS
10
137.978
20
-95.341
11
137.978
21
-95.341
0
LINE
8
BLACK
6
CONTINUOUS
10
137.978
20
-95.341
11
137.978
21
-95.341
0
LINE
8
BLACK
6
CONTINUOUS
10
137.978
20
-95.341
11
137.846
21
-95.354
0
LINE
8
BLACK
6
CONTINUOUS
10
137.846
20
-95.354
11
136.258
21
-95.354
0
LINE
8
BLACK
6
CONTINUOUS
10
136.258
20
-95.354
11
136.126
21
-95.341
0
LINE
8
BLACK
6
CONTINUOUS
10
136.126
20
-95.341
11
136.126
21
-95.341
0
LINE
8
BLACK
6
CONTINUOUS
10
136.126
20
-95.341
11
136.126
21
-95.341
0
LINE
8
BLACK
6
CONTINUOUS
10
136.126
20
-95.341
11
135.956
21
-95.2895
0
LINE
8
BLACK
6
CONTINUOUS
10
135.956
20
-95.2895
11
135.956
21
-95.2895
0
LINE
8
BLACK
6
CONTINUOUS
10
135.956
20
-95.2895
11
135.956
21
-95.2895
0
LINE
8
BLACK
6
CONTINUOUS
10
135.956
20
-95.2895
11
135.8
21
-95.2059
0
LINE
8
BLACK
6
CONTINUOUS
10
135.8
20
-95.2059
11
135.663
21
-95.0935
0
LINE
8
BLACK
6
CONTINUOUS
10
135.663
20
-95.0935
11
135.55
21
-94.9564
0
LINE
8
BLACK
6
CONTINUOUS
10
135.55
20
-94.9564
11
135.466
21
-94.8001
0
LINE
8
BLACK
6
CONTINUOUS
10
135.466
20
-94.8001
11
135.412
21
-94.6192
0
LINE
8
BLACK
6
CONTINUOUS
10
135.412
20
-94.6192
11
135.402
21
-94.5966
0
LINE
8
BLACK
6
CONTINUOUS
10
135.402
20
-94.5966
11
135.389
21
-94.5762
0
LINE
8
BLACK
6
CONTINUOUS
10
135.389
20
-94.5762
11
135.371
21
-94.5589
0
LINE
8
BLACK
6
CONTINUOUS
10
135.371
20
-94.5589
11
135.351
21
-94.5452
0
LINE
8
BLACK
6
CONTINUOUS
10
135.351
20
-94.5452
11
135.328
21
-94.5359
0
LINE
8
BLACK
6
CONTINUOUS
10
135.328
20
-94.5359
11
135.304
21
-94.5311
0
LINE
8
BLACK
6
CONTINUOUS
10
135.304
20
-94.5311
11
135.28
21
-94.5311
0
LINE
8
BLACK
6
CONTINUOUS
10
135.28
20
-94.5311
11
135.256
21
-94.5359
0
LINE
8
BLACK
6
CONTINUOUS
10
135.256
20
-94.5359
11
135.233
21
-94.5452
0
LINE
8
BLACK
6
CONTINUOUS
10
135.233
20
-94.5452
11
135.213
21
-94.5589
0
LINE
8
BLACK
6
CONTINUOUS
10
135.213
20
-94.5589
11
135.195
21
-94.5762
0
LINE
8
BLACK
6
CONTINUOUS
10
135.195
20
-94.5762
11
135.182
21
-94.5966
0
LINE
8
BLACK
6
CONTINUOUS
10
135.182
20
-94.5966
11
135.172
21
-94.6192
0
LINE
8
BLACK
6
CONTINUOUS
10
135.172
20
-94.6192
11
135.118
21
-94.8001
0
LINE
8
BLACK
6
CONTINUOUS
10
135.118
20
-94.8001
11
135.034
21
-94.9564
0
LINE
8
BLACK
6
CONTINUOUS
10
135.034
20
-94.9564
11
134.921
21
-95.0935
0
LINE
8
BLACK
6
CONTINUOUS
10
134.921
20
-95.0935
11
134.784
21
-95.2059
0
LINE
8
BLACK
6
CONTINUOUS
10
134.784
20
-95.2059
11
134.628
21
-95.2895
0
LINE
8
BLACK
6
CONTINUOUS
10
134.628
20
-95.2895
11
134.628
21
-95.2895
0
LINE
8
BLACK
6
CONTINUOUS
10
134.628
20
-95.2895
11
134.628
21
-95.2895
0
LINE
8
BLACK
6
CONTINUOUS
10
134.628
20
-95.2895
11
134.458
21
-95.341
0
LINE
8
BLACK
6
CONTINUOUS
10
134.458
20
-95.341
11
134.458
21
-95.341
0
LINE
8
BLACK
6
CONTINUOUS
10
134.458
20
-95.341
11
134.458
21
-95.341
0
LINE
8
BLACK
6
CONTINUOUS
10
134.458
20
-95.341
11
134.326
21
-95.354
0
LINE
8
BLACK
6
CONTINUOUS
10
134.326
20
-95.354
11
132.738
21
-95.354
0
LINE
8
BLACK
6
CONTINUOUS
10
132.738
20
-95.354
11
132.606
21
-95.341
0
LINE
8
BLACK
6
CONTINUOUS
10
132.606
20
-95.341
11
132.606
21
-95.341
0
LINE
8
BLACK
6
CONTINUOUS
10
132.606
20
-95.341
11
132.606
21
-95.341
0
LINE
8
BLACK
6
CONTINUOUS
10
132.606
20
-95.341
11
132.436
21
-95.2895
0
LINE
8
BLACK
6
CONTINUOUS
10
132.436
20
-95.2895
11
132.436
21
-95.2895
0
LINE
8
BLACK
6
CONTINUOUS
10
132.436
20
-95.2895
11
132.436
21
-95.2895
0
LINE
8
BLACK
6
CONTINUOUS
10
132.436
20
-95.2895
11
132.28
21
-95.2059
0
LINE
8
BLACK
6
CONTINUOUS
10
132.28
20
-95.2059
11
132.143
21
-95.0935
0
LINE
8
BLACK
6
CONTINUOUS
10
132.143
20
-95.0935
11
132.03
21
-94.9564
0
LINE
8
BLACK
6
CONTINUOUS
10
132.03
20
-94.9564
11
131.946
21
-94.8001
0
LINE
8
BLACK
6
CONTINUOUS
10
131.946
20
-94.8001
11
131.895
21
-94.6304
0
LINE
8
BLACK
6
CONTINUOUS
10
131.895
20
-94.6304
11
131.878
21
-94.454
0
LINE
8
BLACK
6
CONTINUOUS
10
131.878
20
-94.454
11
131.895
21
-94.2776
0
LINE
8
BLACK
6
CONTINUOUS
10
131.895
20
-94.2776
11
131.897
21
-94.2704
0
LINE
8
BLACK
6
CONTINUOUS
10
131.897
20
-94.2704
11
131.946
21
-94.1079
0
LINE
8
BLACK
6
CONTINUOUS
10
131.946
20
-94.1079
11
131.946
21
-94.1079
0
LINE
8
BLACK
6
CONTINUOUS
10
131.946
20
-94.1079
11
131.946
21
-94.1079
0
LINE
8
BLACK
6
CONTINUOUS
10
131.946
20
-94.1079
11
132.03
21
-93.9516
0
LINE
8
BLACK
6
CONTINUOUS
10
132.03
20
-93.9516
11
132.143
21
-93.8145
0
LINE
8
BLACK
6
CONTINUOUS
10
132.143
20
-93.8145
11
132.28
21
-93.7021
0
LINE
8
BLACK
6
CONTINUOUS
10
132.28
20
-93.7021
11
132.444
21
-93.6142
0
LINE
8
BLACK
6
CONTINUOUS
10
132.444
20
-93.6142
11
132.464
21
-93.6006
0
LINE
8
BLACK
6
CONTINUOUS
10
132.464
20
-93.6006
11
132.482
21
-93.5833
0
LINE
8
BLACK
6
CONTINUOUS
10
132.482
20
-93.5833
11
132.495
21
-93.5629
0
LINE
8
BLACK
6
CONTINUOUS
10
132.495
20
-93.5629
11
132.505
21
-93.5403
0
LINE
8
BLACK
6
CONTINUOUS
10
132.505
20
-93.5403
11
132.509
21
-93.5163
0
LINE
8
BLACK
6
CONTINUOUS
10
132.509
20
-93.5163
11
132.509
21
-93.4917
0
LINE
8
BLACK
6
CONTINUOUS
10
132.509
20
-93.4917
11
134.555
21
-93.4917
0
LINE
8
BLACK
6
CONTINUOUS
10
134.555
20
-93.4917
11
134.555
21
-93.5163
0
LINE
8
BLACK
6
CONTINUOUS
10
134.555
20
-93.5163
11
134.559
21
-93.5403
0
LINE
8
BLACK
6
CONTINUOUS
10
134.559
20
-93.5403
11
134.569
21
-93.5629
0
LINE
8
BLACK
6
CONTINUOUS
10
134.569
20
-93.5629
11
134.582
21
-93.5833
0
LINE
8
BLACK
6
CONTINUOUS
10
134.582
20
-93.5833
11
134.6
21
-93.6006
0
LINE
8
BLACK
6
CONTINUOUS
10
134.6
20
-93.6006
11
134.62
21
-93.6142
0
LINE
8
BLACK
6
CONTINUOUS
10
134.62
20
-93.6142
11
134.784
21
-93.7021
0
LINE
8
BLACK
6
CONTINUOUS
10
134.784
20
-93.7021
11
134.921
21
-93.8145
0
LINE
8
BLACK
6
CONTINUOUS
10
134.921
20
-93.8145
11
135.034
21
-93.9516
0
LINE
8
BLACK
6
CONTINUOUS
10
135.034
20
-93.9516
11
135.118
21
-94.1079
0
LINE
8
BLACK
6
CONTINUOUS
10
135.118
20
-94.1079
11
135.172
21
-94.2888
0
LINE
8
BLACK
6
CONTINUOUS
10
135.172
20
-94.2888
11
135.182
21
-94.3114
0
LINE
8
BLACK
6
CONTINUOUS
10
135.182
20
-94.3114
11
135.195
21
-94.3318
0
LINE
8
BLACK
6
CONTINUOUS
10
135.195
20
-94.3318
11
135.213
21
-94.3491
0
LINE
8
BLACK
6
CONTINUOUS
10
135.213
20
-94.3491
11
135.233
21
-94.3627
0
LINE
8
BLACK
6
CONTINUOUS
10
135.233
20
-94.3627
11
135.256
21
-94.3721
0
LINE
8
BLACK
6
CONTINUOUS
10
135.256
20
-94.3721
11
135.28
21
-94.3769
0
LINE
8
BLACK
6
CONTINUOUS
10
135.28
20
-94.3769
11
135.304
21
-94.3769
0
LINE
8
BLACK
6
CONTINUOUS
10
135.304
20
-94.3769
11
135.328
21
-94.3721
0
LINE
8
BLACK
6
CONTINUOUS
10
135.328
20
-94.3721
11
135.351
21
-94.3627
0
LINE
8
BLACK
6
CONTINUOUS
10
135.351
20
-94.3627
11
135.371
21
-94.3491
0
LINE
8
BLACK
6
CONTINUOUS
10
135.371
20
-94.3491
11
135.389
21
-94.3318
0
LINE
8
BLACK
6
CONTINUOUS
10
135.389
20
-94.3318
11
135.402
21
-94.3114
0
LINE
8
BLACK
6
CONTINUOUS
10
135.402
20
-94.3114
11
135.412
21
-94.2888
0
LINE
8
BLACK
6
CONTINUOUS
10
135.412
20
-94.2888
11
135.466
21
-94.1079
0
LINE
8
BLACK
6
CONTINUOUS
10
135.466
20
-94.1079
11
135.55
21
-93.9516
0
LINE
8
BLACK
6
CONTINUOUS
10
135.55
20
-93.9516
11
135.663
21
-93.8145
0
LINE
8
BLACK
6
CONTINUOUS
10
135.663
20
-93.8145
11
135.8
21
-93.7021
0
LINE
8
BLACK
6
CONTINUOUS
10
135.8
20
-93.7021
11
135.964
21
-93.6142
0
LINE
8
BLACK
6
CONTINUOUS
10
135.964
20
-93.6142
11
135.984
21
-93.6006
0
LINE
8
BLACK
6
CONTINUOUS
10
135.984
20
-93.6006
11
136.002
21
-93.5833
0
LINE
8
BLACK
6
CONTINUOUS
10
136.002
20
-93.5833
11
136.015
21
-93.5629
0
LINE
8
BLACK
6
CONTINUOUS
10
136.015
20
-93.5629
11
136.025
21
-93.5403
0
LINE
8
BLACK
6
CONTINUOUS
10
136.025
20
-93.5403
11
136.029
21
-93.5163
0
LINE
8
BLACK
6
CONTINUOUS
10
136.029
20
-93.5163
11
136.029
21
-93.4917
0
LINE
8
BLACK
6
CONTINUOUS
10
136.029
20
-93.4917
11
136.025
21
-93.4677
0
LINE
8
BLACK
6
CONTINUOUS
10
136.025
20
-93.4677
11
136.015
21
-93.4451
0
LINE
8
BLACK
6
CONTINUOUS
10
136.015
20
-93.4451
11
136.002
21
-93.4247
0
LINE
8
BLACK
6
CONTINUOUS
10
136.002
20
-93.4247
11
135.984
21
-93.4074
0
LINE
8
BLACK
6
CONTINUOUS
10
135.984
20
-93.4074
11
135.964
21
-93.3938
0
LINE
8
BLACK
6
CONTINUOUS
10
135.964
20
-93.3938
11
135.8
21
-93.3059
0
LINE
8
BLACK
6
CONTINUOUS
10
135.8
20
-93.3059
11
135.663
21
-93.1935
0
LINE
8
BLACK
6
CONTINUOUS
10
135.663
20
-93.1935
11
135.55
21
-93.0564
0
LINE
8
BLACK
6
CONTINUOUS
10
135.55
20
-93.0564
11
135.466
21
-92.9001
0
LINE
8
BLACK
6
CONTINUOUS
10
135.466
20
-92.9001
11
135.412
21
-92.7192
0
LINE
8
BLACK
6
CONTINUOUS
10
135.412
20
-92.7192
11
135.402
21
-92.6966
0
LINE
8
BLACK
6
CONTINUOUS
10
135.402
20
-92.6966
11
135.389
21
-92.6762
0
LINE
8
BLACK
6
CONTINUOUS
10
135.389
20
-92.6762
11
135.371
21
-92.6589
0
LINE
8
BLACK
6
CONTINUOUS
10
135.371
20
-92.6589
11
135.351
21
-92.6452
0
LINE
8
BLACK
6
CONTINUOUS
10
135.351
20
-92.6452
11
135.328
21
-92.6359
0
LINE
8
BLACK
6
CONTINUOUS
10
135.328
20
-92.6359
11
135.304
21
-92.6311
0
LINE
8
BLACK
6
CONTINUOUS
10
135.304
20
-92.6311
11
135.28
21
-92.6311
0
LINE
8
BLACK
6
CONTINUOUS
10
135.28
20
-92.6311
11
135.256
21
-92.6359
0
LINE
8
BLACK
6
CONTINUOUS
10
135.256
20
-92.6359
11
135.233
21
-92.6452
0
LINE
8
BLACK
6
CONTINUOUS
10
135.233
20
-92.6452
11
135.213
21
-92.6589
0
LINE
8
BLACK
6
CONTINUOUS
10
135.213
20
-92.6589
11
135.195
21
-92.6762
0
LINE
8
BLACK
6
CONTINUOUS
10
135.195
20
-92.6762
11
135.182
21
-92.6966
0
LINE
8
BLACK
6
CONTINUOUS
10
135.182
20
-92.6966
11
135.172
21
-92.7192
0
LINE
8
BLACK
6
CONTINUOUS
10
135.172
20
-92.7192
11
135.118
21
-92.9001
0
LINE
8
BLACK
6
CONTINUOUS
10
135.118
20
-92.9001
11
135.034
21
-93.0564
0
LINE
8
BLACK
6
CONTINUOUS
10
135.034
20
-93.0564
11
134.921
21
-93.1935
0
LINE
8
BLACK
6
CONTINUOUS
10
134.921
20
-93.1935
11
134.784
21
-93.3059
0
LINE
8
BLACK
6
CONTINUOUS
10
134.784
20
-93.3059
11
134.62
21
-93.3938
0
LINE
8
BLACK
6
CONTINUOUS
10
134.62
20
-93.3938
11
134.6
21
-93.4074
0
LINE
8
BLACK
6
CONTINUOUS
10
134.6
20
-93.4074
11
134.582
21
-93.4247
0
LINE
8
BLACK
6
CONTINUOUS
10
134.582
20
-93.4247
11
134.569
21
-93.4451
0
LINE
8
BLACK
6
CONTINUOUS
10
134.569
20
-93.4451
11
134.559
21
-93.4677
0
LINE
8
BLACK
6
CONTINUOUS
10
134.559
20
-93.4677
11
134.555
21
-93.4917
0
LINE
8
BLACK
6
CONTINUOUS
10
134.555
20
-93.4917
11
132.509
21
-93.4917
0
LINE
8
BLACK
6
CONTINUOUS
10
132.509
20
-93.4917
11
132.505
21
-93.4677
0
LINE
8
BLACK
6
CONTINUOUS
10
132.505
20
-93.4677
11
132.495
21
-93.4451
0
LINE
8
BLACK
6
CONTINUOUS
10
132.495
20
-93.4451
11
132.482
21
-93.4247
0
LINE
8
BLACK
6
CONTINUOUS
10
132.482
20
-93.4247
11
132.464
21
-93.4074
0
LINE
8
BLACK
6
CONTINUOUS
10
132.464
20
-93.4074
11
132.444
21
-93.3938
0
LINE
8
BLACK
6
CONTINUOUS
10
132.444
20
-93.3938
11
132.28
21
-93.3059
0
LINE
8
BLACK
6
CONTINUOUS
10
132.28
20
-93.3059
11
132.143
21
-93.1935
0
LINE
8
BLACK
6
CONTINUOUS
10
132.143
20
-93.1935
11
132.03
21
-93.0564
0
LINE
8
BLACK
6
CONTINUOUS
10
132.03
20
-93.0564
11
131.946
21
-92.9001
0
LINE
8
BLACK
6
CONTINUOUS
10
131.946
20
-92.9001
11
131.895
21
-92.7304
0
LINE
8
BLACK
6
CONTINUOUS
10
131.895
20
-92.7304
11
131.878
21
-92.554
0
LINE
8
BLACK
6
CONTINUOUS
10
131.878
20
-92.554
11
131.895
21
-92.3776
0
LINE
8
BLACK
6
CONTINUOUS
10
131.895
20
-92.3776
11
131.946
21
-92.2079
0
LINE
8
BLACK
6
CONTINUOUS
10
131.946
20
-92.2079
11
132.03
21
-92.0516
0
LINE
8
BLACK
6
CONTINUOUS
10
132.03
20
-92.0516
11
132.143
21
-91.9145
0
LINE
8
BLACK
6
CONTINUOUS
10
132.143
20
-91.9145
11
132.28
21
-91.8021
0
LINE
8
BLACK
6
CONTINUOUS
10
132.28
20
-91.8021
11
132.444
21
-91.7142
0
LINE
8
BLACK
6
CONTINUOUS
10
132.444
20
-91.7142
11
132.464
21
-91.7006
0
LINE
8
BLACK
6
CONTINUOUS
10
132.464
20
-91.7006
11
132.482
21
-91.6833
0
LINE
8
BLACK
6
CONTINUOUS
10
132.482
20
-91.6833
11
132.495
21
-91.6629
0
LINE
8
BLACK
6
CONTINUOUS
10
132.495
20
-91.6629
11
132.505
21
-91.6403
0
LINE
8
BLACK
6
CONTINUOUS
10
132.505
20
-91.6403
11
132.509
21
-91.6163
0
LINE
8
BLACK
6
CONTINUOUS
10
132.509
20
-91.6163
11
132.509
21
-91.5917
0
LINE
8
BLACK
6
CONTINUOUS
10
132.509
20
-91.5917
11
134.555
21
-91.5917
0
LINE
8
BLACK
6
CONTINUOUS
10
134.555
20
-91.5917
11
134.555
21
-91.6163
0
LINE
8
BLACK
6
CONTINUOUS
10
134.555
20
-91.6163
11
134.559
21
-91.6403
0
LINE
8
BLACK
6
CONTINUOUS
10
134.559
20
-91.6403
11
134.569
21
-91.6629
0
LINE
8
BLACK
6
CONTINUOUS
10
134.569
20
-91.6629
11
134.582
21
-91.6833
0
LINE
8
BLACK
6
CONTINUOUS
10
134.582
20
-91.6833
11
134.6
21
-91.7006
0
LINE
8
BLACK
6
CONTINUOUS
10
134.6
20
-91.7006
11
134.62
21
-91.7142
0
LINE
8
BLACK
6
CONTINUOUS
10
134.62
20
-91.7142
11
134.784
21
-91.8021
0
LINE
8
BLACK
6
CONTINUOUS
10
134.784
20
-91.8021
11
134.921
21
-91.9145
0
LINE
8
BLACK
6
CONTINUOUS
10
134.921
20
-91.9145
11
135.034
21
-92.0516
0
LINE
8
BLACK
6
CONTINUOUS
10
135.034
20
-92.0516
11
135.118
21
-92.2079
0
LINE
8
BLACK
6
CONTINUOUS
10
135.118
20
-92.2079
11
135.172
21
-92.3888
0
LINE
8
BLACK
6
CONTINUOUS
10
135.172
20
-92.3888
11
135.182
21
-92.4114
0
LINE
8
BLACK
6
CONTINUOUS
10
135.182
20
-92.4114
11
135.195
21
-92.4318
0
LINE
8
BLACK
6
CONTINUOUS
10
135.195
20
-92.4318
11
135.213
21
-92.4491
0
LINE
8
BLACK
6
CONTINUOUS
10
135.213
20
-92.4491
11
135.233
21
-92.4627
0
LINE
8
BLACK
6
CONTINUOUS
10
135.233
20
-92.4627
11
135.256
21
-92.4721
0
LINE
8
BLACK
6
CONTINUOUS
10
135.256
20
-92.4721
11
135.28
21
-92.4769
0
LINE
8
BLACK
6
CONTINUOUS
10
135.28
20
-92.4769
11
135.304
21
-92.4769
0
LINE
8
BLACK
6
CONTINUOUS
10
135.304
20
-92.4769
11
135.328
21
-92.4721
0
LINE
8
BLACK
6
CONTINUOUS
10
135.328
20
-92.4721
11
135.351
21
-92.4627
0
LINE
8
BLACK
6
CONTINUOUS
10
135.351
20
-92.4627
11
135.371
21
-92.4491
0
LINE
8
BLACK
6
CONTINUOUS
10
135.371
20
-92.4491
11
135.389
21
-92.4318
0
LINE
8
BLACK
6
CONTINUOUS
10
135.389
20
-92.4318
11
135.402
21
-92.4114
0
LINE
8
BLACK
6
CONTINUOUS
10
135.402
20
-92.4114
11
135.412
21
-92.3888
0
LINE
8
BLACK
6
CONTINUOUS
10
135.412
20
-92.3888
11
135.466
21
-92.2079
0
LINE
8
BLACK
6
CONTINUOUS
10
135.466
20
-92.2079
11
135.55
21
-92.0516
0
LINE
8
BLACK
6
CONTINUOUS
10
135.55
20
-92.0516
11
135.663
21
-91.9145
0
LINE
8
BLACK
6
CONTINUOUS
10
135.663
20
-91.9145
11
135.8
21
-91.8021
0
LINE
8
BLACK
6
CONTINUOUS
10
135.8
20
-91.8021
11
135.964
21
-91.7142
0
LINE
8
BLACK
6
CONTINUOUS
10
135.964
20
-91.7142
11
135.984
21
-91.7006
0
LINE
8
BLACK
6
CONTINUOUS
10
135.984
20
-91.7006
11
136.002
21
-91.6833
0
LINE
8
BLACK
6
CONTINUOUS
10
136.002
20
-91.6833
11
136.015
21
-91.6629
0
LINE
8
BLACK
6
CONTINUOUS
10
136.015
20
-91.6629
11
136.025
21
-91.6403
0
LINE
8
BLACK
6
CONTINUOUS
10
136.025
20
-91.6403
11
136.029
21
-91.6163
0
LINE
8
BLACK
6
CONTINUOUS
10
136.029
20
-91.6163
11
136.029
21
-91.5917
0
LINE
8
BLACK
6
CONTINUOUS
10
136.029
20
-91.5917
11
136.025
21
-91.5677
0
LINE
8
BLACK
6
CONTINUOUS
10
136.025
20
-91.5677
11
136.015
21
-91.5451
0
LINE
8
BLACK
6
CONTINUOUS
10
136.015
20
-91.5451
11
136.002
21
-91.5247
0
LINE
8
BLACK
6
CONTINUOUS
10
136.002
20
-91.5247
11
135.984
21
-91.5074
0
LINE
8
BLACK
6
CONTINUOUS
10
135.984
20
-91.5074
11
135.964
21
-91.4938
0
LINE
8
BLACK
6
CONTINUOUS
10
135.964
20
-91.4938
11
135.8
21
-91.4059
0
LINE
8
BLACK
6
CONTINUOUS
10
135.8
20
-91.4059
11
135.663
21
-91.2935
0
LINE
8
BLACK
6
CONTINUOUS
10
135.663
20
-91.2935
11
135.55
21
-91.1564
0
LINE
8
BLACK
6
CONTINUOUS
10
135.55
20
-91.1564
11
135.466
21
-91.0001
0
LINE
8
BLACK
6
CONTINUOUS
10
135.466
20
-91.0001
11
135.412
21
-90.8192
0
LINE
8
BLACK
6
CONTINUOUS
10
135.412
20
-90.8192
11
135.402
21
-90.7966
0
LINE
8
BLACK
6
CONTINUOUS
10
135.402
20
-90.7966
11
135.389
21
-90.7762
0
LINE
8
BLACK
6
CONTINUOUS
10
135.389
20
-90.7762
11
135.371
21
-90.7589
0
LINE
8
BLACK
6
CONTINUOUS
10
135.371
20
-90.7589
11
135.351
21
-90.7452
0
LINE
8
BLACK
6
CONTINUOUS
10
135.351
20
-90.7452
11
135.328
21
-90.7359
0
LINE
8
BLACK
6
CONTINUOUS
10
135.328
20
-90.7359
11
135.304
21
-90.7311
0
LINE
8
BLACK
6
CONTINUOUS
10
135.304
20
-90.7311
11
135.28
21
-90.7311
0
LINE
8
BLACK
6
CONTINUOUS
10
135.28
20
-90.7311
11
135.256
21
-90.7359
0
LINE
8
BLACK
6
CONTINUOUS
10
135.256
20
-90.7359
11
135.233
21
-90.7452
0
LINE
8
BLACK
6
CONTINUOUS
10
135.233
20
-90.7452
11
135.213
21
-90.7589
0
LINE
8
BLACK
6
CONTINUOUS
10
135.213
20
-90.7589
11
135.195
21
-90.7762
0
LINE
8
BLACK
6
CONTINUOUS
10
135.195
20
-90.7762
11
135.182
21
-90.7966
0
LINE
8
BLACK
6
CONTINUOUS
10
135.182
20
-90.7966
11
135.172
21
-90.8192
0
LINE
8
BLACK
6
CONTINUOUS
10
135.172
20
-90.8192
11
135.118
21
-91.0001
0
LINE
8
BLACK
6
CONTINUOUS
10
135.118
20
-91.0001
11
135.034
21
-91.1564
0
LINE
8
BLACK
6
CONTINUOUS
10
135.034
20
-91.1564
11
134.921
21
-91.2935
0
LINE
8
BLACK
6
CONTINUOUS
10
134.921
20
-91.2935
11
134.784
21
-91.4059
0
LINE
8
BLACK
6
CONTINUOUS
10
134.784
20
-91.4059
11
134.62
21
-91.4938
0
LINE
8
BLACK
6
CONTINUOUS
10
134.62
20
-91.4938
11
134.6
21
-91.5074
0
LINE
8
BLACK
6
CONTINUOUS
10
134.6
20
-91.5074
11
134.582
21
-91.5247
0
LINE
8
BLACK
6
CONTINUOUS
10
134.582
20
-91.5247
11
134.569
21
-91.5451
0
LINE
8
BLACK
6
CONTINUOUS
10
134.569
20
-91.5451
11
134.559
21
-91.5677
0
LINE
8
BLACK
6
CONTINUOUS
10
134.559
20
-91.5677
11
134.555
21
-91.5917
0
LINE
8
BLACK
6
CONTINUOUS
10
134.555
20
-91.5917
11
132.509
21
-91.5917
0
LINE
8
BLACK
6
CONTINUOUS
10
132.509
20
-91.5917
11
132.505
21
-91.5677
0
LINE
8
BLACK
6
CONTINUOUS
10
132.505
20
-91.5677
11
132.495
21
-91.5451
0
LINE
8
BLACK
6
CONTINUOUS
10
132.495
20
-91.5451
11
132.482
21
-91.5247
0
LINE
8
BLACK
6
CONTINUOUS
10
132.482
20
-91.5247
11
132.464
21
-91.5074
0
LINE
8
BLACK
6
CONTINUOUS
10
132.464
20
-91.5074
11
132.444
21
-91.4938
0
LINE
8
BLACK
6
CONTINUOUS
10
132.444
20
-91.4938
11
132.28
21
-91.4059
0
LINE
8
BLACK
6
CONTINUOUS
10
132.28
20
-91.4059
11
132.143
21
-91.2935
0
LINE
8
BLACK
6
CONTINUOUS
10
132.143
20
-91.2935
11
132.03
21
-91.1564
0
LINE
8
BLACK
6
CONTINUOUS
10
132.03
20
-91.1564
11
131.946
21
-91.0001
0
LINE
8
BLACK
6
CONTINUOUS
10
131.946
20
-91.0001
11
131.938
21
-90.9715
0
LINE
8
BLACK
6
CONTINUOUS
10
131.938
20
-90.9715
11
131.895
21
-90.8304
0
LINE
8
BLACK
6
CONTINUOUS
10
131.895
20
-90.8304
11
131.895
21
-90.8304
0
LINE
8
BLACK
6
CONTINUOUS
10
131.895
20
-90.8304
11
131.895
21
-90.8304
0
LINE
8
BLACK
6
CONTINUOUS
10
131.895
20
-90.8304
11
131.878
21
-90.654
0
LINE
8
BLACK
6
CONTINUOUS
10
131.878
20
-90.654
11
131.895
21
-90.4776
0
LINE
8
BLACK
6
CONTINUOUS
10
131.895
20
-90.4776
11
131.895
21
-90.4776
0
LINE
8
BLACK
6
CONTINUOUS
10
131.895
20
-90.4776
11
131.946
21
-90.3079
0
LINE
8
BLACK
6
CONTINUOUS
10
131.946
20
-90.3079
11
131.946
21
-90.3079
0
LINE
8
BLACK
6
CONTINUOUS
10
131.946
20
-90.3079
11
131.946
21
-90.3079
0
LINE
8
BLACK
6
CONTINUOUS
10
131.946
20
-90.3079
11
132.03
21
-90.1516
0
LINE
8
BLACK
6
CONTINUOUS
10
132.03
20
-90.1516
11
132.143
21
-90.0145
0
LINE
8
BLACK
6
CONTINUOUS
10
132.143
20
-90.0145
11
132.28
21
-89.9021
0
LINE
8
BLACK
6
CONTINUOUS
10
132.28
20
-89.9021
11
132.436
21
-89.8185
0
LINE
8
BLACK
6
CONTINUOUS
10
132.436
20
-89.8185
11
132.436
21
-89.8185
0
LINE
8
BLACK
6
CONTINUOUS
10
132.436
20
-89.8185
11
132.436
21
-89.8185
0
LINE
8
BLACK
6
CONTINUOUS
10
132.436
20
-89.8185
11
132.606
21
-89.767
0
LINE
8
BLACK
6
CONTINUOUS
10
132.606
20
-89.767
11
132.606
21
-89.767
0
LINE
8
BLACK
6
CONTINUOUS
10
132.606
20
-89.767
11
132.606
21
-89.767
0
LINE
8
BLACK
6
CONTINUOUS
10
132.606
20
-89.767
11
132.738
21
-89.754
0
LINE
8
BLACK
6
CONTINUOUS
10
132.738
20
-89.754
11
134.326
21
-89.754
0
LINE
8
BLACK
6
CONTINUOUS
10
134.326
20
-89.754
11
134.458
21
-89.767
0
LINE
8
BLACK
6
CONTINUOUS
10
155.286
20
-85.449
11
155.286
21
-85.449
0
LINE
8
BLACK
6
CONTINUOUS
10
155.286
20
-85.449
11
155.286
21
-85.449
0
LINE
8
BLACK
6
CONTINUOUS
10
155.286
20
-85.449
11
155.456
21
-85.5005
0
LINE
8
BLACK
6
CONTINUOUS
10
155.456
20
-85.5005
11
155.456
21
-85.5005
0
LINE
8
BLACK
6
CONTINUOUS
10
155.456
20
-85.5005
11
155.456
21
-85.5005
0
LINE
8
BLACK
6
CONTINUOUS
10
155.456
20
-85.5005
11
155.612
21
-85.5841
0
LINE
8
BLACK
6
CONTINUOUS
10
155.612
20
-85.5841
11
155.749
21
-85.6965
0
LINE
8
BLACK
6
CONTINUOUS
10
155.749
20
-85.6965
11
155.862
21
-85.8336
0
LINE
8
BLACK
6
CONTINUOUS
10
155.862
20
-85.8336
11
155.946
21
-85.9899
0
LINE
8
BLACK
6
CONTINUOUS
10
155.946
20
-85.9899
11
156
21
-86.1708
0
LINE
8
BLACK
6
CONTINUOUS
10
156
20
-86.1708
11
156.01
21
-86.1934
0
LINE
8
BLACK
6
CONTINUOUS
10
156.01
20
-86.1934
11
156.023
21
-86.2138
0
LINE
8
BLACK
6
CONTINUOUS
10
156.023
20
-86.2138
11
156.041
21
-86.2311
0
LINE
8
BLACK
6
CONTINUOUS
10
156.041
20
-86.2311
11
156.061
21
-86.2447
0
LINE
8
BLACK
6
CONTINUOUS
10
156.061
20
-86.2447
11
156.084
21
-86.2541
0
LINE
8
BLACK
6
CONTINUOUS
10
156.084
20
-86.2541
11
156.108
21
-86.2589
0
LINE
8
BLACK
6
CONTINUOUS
10
156.108
20
-86.2589
11
156.132
21
-86.2589
0
LINE
8
BLACK
6
CONTINUOUS
10
156.132
20
-86.2589
11
156.156
21
-86.2541
0
LINE
8
BLACK
6
CONTINUOUS
10
156.156
20
-86.2541
11
156.179
21
-86.2447
0
LINE
8
BLACK
6
CONTINUOUS
10
156.179
20
-86.2447
11
156.199
21
-86.2311
0
LINE
8
BLACK
6
CONTINUOUS
10
156.199
20
-86.2311
11
156.217
21
-86.2138
0
LINE
8
BLACK
6
CONTINUOUS
10
156.217
20
-86.2138
11
156.23
21
-86.1934
0
LINE
8
BLACK
6
CONTINUOUS
10
156.23
20
-86.1934
11
156.24
21
-86.1708
0
LINE
8
BLACK
6
CONTINUOUS
10
156.24
20
-86.1708
11
156.294
21
-85.9899
0
LINE
8
BLACK
6
CONTINUOUS
10
156.294
20
-85.9899
11
156.378
21
-85.8336
0
LINE
8
BLACK
6
CONTINUOUS
10
156.378
20
-85.8336
11
156.491
21
-85.6965
0
LINE
8
BLACK
6
CONTINUOUS
10
156.491
20
-85.6965
11
156.628
21
-85.5841
0
LINE
8
BLACK
6
CONTINUOUS
10
156.628
20
-85.5841
11
156.784
21
-85.5005
0
LINE
8
BLACK
6
CONTINUOUS
10
156.784
20
-85.5005
11
156.784
21
-85.5005
0
LINE
8
BLACK
6
CONTINUOUS
10
156.784
20
-85.5005
11
156.784
21
-85.5005
0
LINE
8
BLACK
6
CONTINUOUS
10
156.784
20
-85.5005
11
156.954
21
-85.449
0
LINE
8
BLACK
6
CONTINUOUS
10
156.954
20
-85.449
11
156.954
21
-85.449
0
LINE
8
BLACK
6
CONTINUOUS
10
156.954
20
-85.449
11
156.954
21
-85.449
0
LINE
8
BLACK
6
CONTINUOUS
10
156.954
20
-85.449
11
157.086
21
-85.436
0
LINE
8
BLACK
6
CONTINUOUS
10
157.086
20
-85.436
11
158.674
21
-85.436
0
LINE
8
BLACK
6
CONTINUOUS
10
158.674
20
-85.436
11
158.806
21
-85.449
0
LINE
8
BLACK
6
CONTINUOUS
10
158.806
20
-85.449
11
158.806
21
-85.449
0
LINE
8
BLACK
6
CONTINUOUS
10
158.806
20
-85.449
11
158.806
21
-85.449
0
LINE
8
BLACK
6
CONTINUOUS
10
158.806
20
-85.449
11
158.976
21
-85.5005
0
LINE
8
BLACK
6
CONTINUOUS
10
158.976
20
-85.5005
11
158.976
21
-85.5005
0
LINE
8
BLACK
6
CONTINUOUS
10
158.976
20
-85.5005
11
158.976
21
-85.5005
0
LINE
8
BLACK
6
CONTINUOUS
10
158.976
20
-85.5005
11
159.132
21
-85.5841
0
LINE
8
BLACK
6
CONTINUOUS
10
159.132
20
-85.5841
11
159.269
21
-85.6965
0
LINE
8
BLACK
6
CONTINUOUS
10
159.269
20
-85.6965
11
159.382
21
-85.8336
0
LINE
8
BLACK
6
CONTINUOUS
10
159.382
20
-85.8336
11
159.466
21
-85.9899
0
LINE
8
BLACK
6
CONTINUOUS
10
159.466
20
-85.9899
11
159.517
21
-86.1596
0
LINE
8
BLACK
6
CONTINUOUS
10
159.517
20
-86.1596
11
159.534
21
-86.336
0
LINE
8
BLACK
6
CONTINUOUS
10
159.534
20
-86.336
11
159.517
21
-86.5124
0
LINE
8
BLACK
6
CONTINUOUS
10
159.517
20
-86.5124
11
159.466
21
-86.6821
0
LINE
8
BLACK
6
CONTINUOUS
10
159.466
20
-86.6821
11
159.382
21
-86.8384
0
LINE
8
BLACK
6
CONTINUOUS
10
159.382
20
-86.8384
11
159.269
21
-86.9755
0
LINE
8
BLACK
6
CONTINUOUS
10
159.269
20
-86.9755
11
159.132
21
-87.0879
0
LINE
8
BLACK
6
CONTINUOUS
10
159.132
20
-87.0879
11
158.968
21
-87.1758
0
LINE
8
BLACK
6
CONTINUOUS
10
158.968
20
-87.1758
11
158.948
21
-87.1894
0
LINE
8
BLACK
6
CONTINUOUS
10
158.948
20
-87.1894
11
158.93
21
-87.2067
0
LINE
8
BLACK
6
CONTINUOUS
10
158.93
20
-87.2067
11
158.917
21
-87.2271
0
LINE
8
BLACK
6
CONTINUOUS
10
158.917
20
-87.2271
11
158.907
21
-87.2497
0
LINE
8
BLACK
6
CONTINUOUS
10
158.907
20
-87.2497
11
158.903
21
-87.2737
0
LINE
8
BLACK
6
CONTINUOUS
10
158.903
20
-87.2737
11
158.903
21
-87.2983
0
LINE
8
BLACK
6
CONTINUOUS
10
158.903
20
-87.2983
11
158.907
21
-87.3223
0
LINE
8
BLACK
6
CONTINUOUS
10
158.907
20
-87.3223
11
158.917
21
-87.3449
0
LINE
8
BLACK
6
CONTINUOUS
10
158.917
20
-87.3449
11
158.93
21
-87.3653
0
LINE
8
BLACK
6
CONTINUOUS
10
158.93
20
-87.3653
11
158.948
21
-87.3826
0
LINE
8
BLACK
6
CONTINUOUS
10
158.948
20
-87.3826
11
158.968
21
-87.3962
0
LINE
8
BLACK
6
CONTINUOUS
10
158.968
20
-87.3962
11
159.132
21
-87.4841
0
LINE
8
BLACK
6
CONTINUOUS
10
159.132
20
-87.4841
11
159.269
21
-87.5965
0
LINE
8
BLACK
6
CONTINUOUS
10
159.269
20
-87.5965
11
159.382
21
-87.7336
0
LINE
8
BLACK
6
CONTINUOUS
10
159.382
20
-87.7336
11
159.466
21
-87.8899
0
LINE
8
BLACK
6
CONTINUOUS
10
159.466
20
-87.8899
11
159.517
21
-88.0596
0
LINE
8
BLACK
6
CONTINUOUS
10
159.517
20
-88.0596
11
159.534
21
-88.236
0
LINE
8
BLACK
6
CONTINUOUS
10
159.534
20
-88.236
11
159.517
21
-88.4124
0
LINE
8
BLACK
6
CONTINUOUS
10
159.517
20
-88.4124
11
159.466
21
-88.5821
0
LINE
8
BLACK
6
CONTINUOUS
10
159.466
20
-88.5821
11
159.382
21
-88.7384
0
LINE
8
BLACK
6
CONTINUOUS
10
159.382
20
-88.7384
11
159.269
21
-88.8755
0
LINE
8
BLACK
6
CONTINUOUS
10
159.269
20
-88.8755
11
159.132
21
-88.9879
0
LINE
8
BLACK
6
CONTINUOUS
10
159.132
20
-88.9879
11
158.968
21
-89.0758
0
LINE
8
BLACK
6
CONTINUOUS
10
158.968
20
-89.0758
11
158.948
21
-89.0894
0
LINE
8
BLACK
6
CONTINUOUS
10
158.948
20
-89.0894
11
158.93
21
-89.1067
0
LINE
8
BLACK
6
CONTINUOUS
10
158.93
20
-89.1067
11
158.917
21
-89.1271
0
LINE
8
BLACK
6
CONTINUOUS
10
158.917
20
-89.1271
11
158.907
21
-89.1497
0
LINE
8
BLACK
6
CONTINUOUS
10
158.907
20
-89.1497
11
158.903
21
-89.1737
0
LINE
8
BLACK
6
CONTINUOUS
10
158.903
20
-89.1737
11
158.903
21
-89.1983
0
LINE
8
BLACK
6
CONTINUOUS
10
158.903
20
-89.1983
11
158.907
21
-89.2223
0
LINE
8
BLACK
6
CONTINUOUS
10
158.907
20
-89.2223
11
158.917
21
-89.2449
0
LINE
8
BLACK
6
CONTINUOUS
10
158.917
20
-89.2449
11
158.93
21
-89.2653
0
LINE
8
BLACK
6
CONTINUOUS
10
158.93
20
-89.2653
11
158.948
21
-89.2826
0
LINE
8
BLACK
6
CONTINUOUS
10
158.948
20
-89.2826
11
158.968
21
-89.2962
0
LINE
8
BLACK
6
CONTINUOUS
10
158.968
20
-89.2962
11
159.132
21
-89.3841
0
LINE
8
BLACK
6
CONTINUOUS
10
159.132
20
-89.3841
11
159.269
21
-89.4965
0
LINE
8
BLACK
6
CONTINUOUS
10
159.269
20
-89.4965
11
159.382
21
-89.6336
0
LINE
8
BLACK
6
CONTINUOUS
10
159.382
20
-89.6336
11
159.466
21
-89.7899
0
LINE
8
BLACK
6
CONTINUOUS
10
159.466
20
-89.7899
11
159.466
21
-89.7899
0
LINE
8
BLACK
6
CONTINUOUS
10
159.466
20
-89.7899
11
159.466
21
-89.7899
0
LINE
8
BLACK
6
CONTINUOUS
10
159.466
20
-89.7899
11
159.5
21
-89.9021
0
LINE
8
BLACK
6
CONTINUOUS
10
159.5
20
-89.9021
11
159.517
21
-89.9596
0
LINE
8
BLACK
6
CONTINUOUS
10
159.517
20
-89.9596
11
159.534
21
-90.136
0
LINE
8
BLACK
6
CONTINUOUS
10
159.534
20
-90.136
11
159.517
21
-90.3124
0
LINE
8
BLACK
6
CONTINUOUS
10
159.517
20
-90.3124
11
159.517
21
-90.3124
0
LINE
8
BLACK
6
CONTINUOUS
10
159.517
20
-90.3124
11
159.517
21
-90.3124
0
LINE
8
BLACK
6
CONTINUOUS
10
159.517
20
-90.3124
11
159.467
21
-90.4776
0
LINE
8
BLACK
6
CONTINUOUS
10
159.467
20
-90.4776
11
159.466
21
-90.4821
0
LINE
8
BLACK
6
CONTINUOUS
10
159.466
20
-90.4821
11
159.382
21
-90.6384
0
LINE
8
BLACK
6
CONTINUOUS
10
159.382
20
-90.6384
11
159.269
21
-90.7755
0
LINE
8
BLACK
6
CONTINUOUS
10
159.269
20
-90.7755
11
159.132
21
-90.8879
0
LINE
8
BLACK
6
CONTINUOUS
10
159.132
20
-90.8879
11
158.976
21
-90.9715
0
LINE
8
BLACK
6
CONTINUOUS
10
158.976
20
-90.9715
11
158.976
21
-90.9715
0
LINE
8
BLACK
6
CONTINUOUS
10
158.976
20
-90.9715
11
158.976
21
-90.9715
0
LINE
8
BLACK
6
CONTINUOUS
10
158.976
20
-90.9715
11
158.806
21
-91.023
0
LINE
8
BLACK
6
CONTINUOUS
10
158.806
20
-91.023
11
158.806
21
-91.023
0
LINE
8
BLACK
6
CONTINUOUS
10
158.806
20
-91.023
11
158.806
21
-91.023
0
LINE
8
BLACK
6
CONTINUOUS
10
158.806
20
-91.023
11
158.674
21
-91.036
0
LINE
8
BLACK
6
CONTINUOUS
10
158.674
20
-91.036
11
157.086
21
-91.036
0
LINE
8
BLACK
6
CONTINUOUS
10
157.086
20
-91.036
11
156.954
21
-91.023
0
LINE
8
BLACK
6
CONTINUOUS
10
156.954
20
-91.023
11
156.954
21
-91.023
0
LINE
8
BLACK
6
CONTINUOUS
10
156.954
20
-91.023
11
156.954
21
-91.023
0
LINE
8
BLACK
6
CONTINUOUS
10
156.954
20
-91.023
11
156.784
21
-90.9715
0
LINE
8
BLACK
6
CONTINUOUS
10
156.784
20
-90.9715
11
156.784
21
-90.9715
0
LINE
8
BLACK
6
CONTINUOUS
10
156.784
20
-90.9715
11
156.784
21
-90.9715
0
LINE
8
BLACK
6
CONTINUOUS
10
156.784
20
-90.9715
11
156.628
21
-90.8879
0
LINE
8
BLACK
6
CONTINUOUS
10
156.628
20
-90.8879
11
156.491
21
-90.7755
0
LINE
8
BLACK
6
CONTINUOUS
10
156.491
20
-90.7755
11
156.378
21
-90.6384
0
LINE
8
BLACK
6
CONTINUOUS
10
156.378
20
-90.6384
11
156.294
21
-90.4821
0
LINE
8
BLACK
6
CONTINUOUS
10
156.294
20
-90.4821
11
156.24
21
-90.3012
0
LINE
8
BLACK
6
CONTINUOUS
10
156.24
20
-90.3012
11
156.23
21
-90.2786
0
LINE
8
BLACK
6
CONTINUOUS
10
156.23
20
-90.2786
11
156.217
21
-90.2582
0
LINE
8
BLACK
6
CONTINUOUS
10
156.217
20
-90.2582
11
156.199
21
-90.2409
0
LINE
8
BLACK
6
CONTINUOUS
10
156.199
20
-90.2409
11
156.179
21
-90.2272
0
LINE
8
BLACK
6
CONTINUOUS
10
156.179
20
-90.2272
11
156.156
21
-90.2179
0
LINE
8
BLACK
6
CONTINUOUS
10
156.156
20
-90.2179
11
156.132
21
-90.2131
0
LINE
8
BLACK
6
CONTINUOUS
10
156.132
20
-90.2131
11
156.108
21
-90.2131
0
LINE
8
BLACK
6
CONTINUOUS
10
156.108
20
-90.2131
11
156.084
21
-90.2179
0
LINE
8
BLACK
6
CONTINUOUS
10
156.084
20
-90.2179
11
156.061
21
-90.2272
0
LINE
8
BLACK
6
CONTINUOUS
10
156.061
20
-90.2272
11
156.041
21
-90.2409
0
LINE
8
BLACK
6
CONTINUOUS
10
156.041
20
-90.2409
11
156.023
21
-90.2582
0
LINE
8
BLACK
6
CONTINUOUS
10
156.023
20
-90.2582
11
156.01
21
-90.2786
0
LINE
8
BLACK
6
CONTINUOUS
10
156.01
20
-90.2786
11
156
21
-90.3012
0
LINE
8
BLACK
6
CONTINUOUS
10
156
20
-90.3012
11
155.946
21
-90.4821
0
LINE
8
BLACK
6
CONTINUOUS
10
155.946
20
-90.4821
11
155.862
21
-90.6384
0
LINE
8
BLACK
6
CONTINUOUS
10
155.862
20
-90.6384
11
155.749
21
-90.7755
0
LINE
8
BLACK
6
CONTINUOUS
10
155.749
20
-90.7755
11
155.612
21
-90.8879
0
LINE
8
BLACK
6
CONTINUOUS
10
155.612
20
-90.8879
11
155.456
21
-90.9715
0
LINE
8
BLACK
6
CONTINUOUS
10
155.456
20
-90.9715
11
155.456
21
-90.9715
0
LINE
8
BLACK
6
CONTINUOUS
10
155.456
20
-90.9715
11
155.456
21
-90.9715
0
LINE
8
BLACK
6
CONTINUOUS
10
155.456
20
-90.9715
11
155.286
21
-91.023
0
LINE
8
BLACK
6
CONTINUOUS
10
155.286
20
-91.023
11
155.286
21
-91.023
0
LINE
8
BLACK
6
CONTINUOUS
10
155.286
20
-91.023
11
155.286
21
-91.023
0
LINE
8
BLACK
6
CONTINUOUS
10
155.286
20
-91.023
11
155.154
21
-91.036
0
LINE
8
BLACK
6
CONTINUOUS
10
155.154
20
-91.036
11
153.566
21
-91.036
0
LINE
8
BLACK
6
CONTINUOUS
10
153.566
20
-91.036
11
153.434
21
-91.023
0
LINE
8
BLACK
6
CONTINUOUS
10
153.434
20
-91.023
11
153.434
21
-91.023
0
LINE
8
BLACK
6
CONTINUOUS
10
153.434
20
-91.023
11
153.434
21
-91.023
0
LINE
8
BLACK
6
CONTINUOUS
10
153.434
20
-91.023
11
153.264
21
-90.9715
0
LINE
8
BLACK
6
CONTINUOUS
10
153.264
20
-90.9715
11
153.264
21
-90.9715
0
LINE
8
BLACK
6
CONTINUOUS
10
153.264
20
-90.9715
11
153.264
21
-90.9715
0
LINE
8
BLACK
6
CONTINUOUS
10
153.264
20
-90.9715
11
153.108
21
-90.8879
0
LINE
8
BLACK
6
CONTINUOUS
10
153.108
20
-90.8879
11
152.971
21
-90.7755
0
LINE
8
BLACK
6
CONTINUOUS
10
152.971
20
-90.7755
11
152.858
21
-90.6384
0
LINE
8
BLACK
6
CONTINUOUS
10
152.858
20
-90.6384
11
152.774
21
-90.4821
0
LINE
8
BLACK
6
CONTINUOUS
10
152.774
20
-90.4821
11
152.773
21
-90.4776
0
LINE
8
BLACK
6
CONTINUOUS
10
152.773
20
-90.4776
11
152.723
21
-90.3124
0
LINE
8
BLACK
6
CONTINUOUS
10
152.723
20
-90.3124
11
152.723
21
-90.3124
0
LINE
8
BLACK
6
CONTINUOUS
10
152.723
20
-90.3124
11
152.723
21
-90.3124
0
LINE
8
BLACK
6
CONTINUOUS
10
152.723
20
-90.3124
11
152.706
21
-90.136
0
LINE
8
BLACK
6
CONTINUOUS
10
152.706
20
-90.136
11
152.723
21
-89.9596
0
LINE
8
BLACK
6
CONTINUOUS
10
152.723
20
-89.9596
11
152.74
21
-89.9021
0
LINE
8
BLACK
6
CONTINUOUS
10
152.74
20
-89.9021
11
152.774
21
-89.7899
0
LINE
8
BLACK
6
CONTINUOUS
10
152.774
20
-89.7899
11
152.774
21
-89.7899
0
LINE
8
BLACK
6
CONTINUOUS
10
152.774
20
-89.7899
11
152.774
21
-89.7899
0
LINE
8
BLACK
6
CONTINUOUS
10
152.774
20
-89.7899
11
152.858
21
-89.6336
0
LINE
8
BLACK
6
CONTINUOUS
10
152.858
20
-89.6336
11
152.971
21
-89.4965
0
LINE
8
BLACK
6
CONTINUOUS
10
152.971
20
-89.4965
11
153.108
21
-89.3841
0
LINE
8
BLACK
6
CONTINUOUS
10
153.108
20
-89.3841
11
153.272
21
-89.2962
0
LINE
8
BLACK
6
CONTINUOUS
10
153.272
20
-89.2962
11
153.292
21
-89.2826
0
LINE
8
BLACK
6
CONTINUOUS
10
153.292
20
-89.2826
11
153.31
21
-89.2653
0
LINE
8
BLACK
6
CONTINUOUS
10
153.31
20
-89.2653
11
153.323
21
-89.2449
0
LINE
8
BLACK
6
CONTINUOUS
10
153.323
20
-89.2449
11
153.333
21
-89.2223
0
LINE
8
BLACK
6
CONTINUOUS
10
153.333
20
-89.2223
11
153.337
21
-89.1983
0
LINE
8
BLACK
6
CONTINUOUS
10
153.337
20
-89.1983
11
153.337
21
-89.1737
0
LINE
8
BLACK
6
CONTINUOUS
10
153.337
20
-89.1737
11
155.383
21
-89.1737
0
LINE
8
BLACK
6
CONTINUOUS
10
155.383
20
-89.1737
11
155.383
21
-89.1983
0
LINE
8
BLACK
6
CONTINUOUS
10
155.383
20
-89.1983
11
155.387
21
-89.2223
0
LINE
8
BLACK
6
CONTINUOUS
10
155.387
20
-89.2223
11
155.397
21
-89.2449
0
LINE
8
BLACK
6
CONTINUOUS
10
155.397
20
-89.2449
11
155.41
21
-89.2653
0
LINE
8
BLACK
6
CONTINUOUS
10
155.41
20
-89.2653
11
155.428
21
-89.2826
0
LINE
8
BLACK
6
CONTINUOUS
10
155.428
20
-89.2826
11
155.448
21
-89.2962
0
LINE
8
BLACK
6
CONTINUOUS
10
155.448
20
-89.2962
11
155.612
21
-89.3841
0
LINE
8
BLACK
6
CONTINUOUS
10
155.612
20
-89.3841
11
155.749
21
-89.4965
0
LINE
8
BLACK
6
CONTINUOUS
10
155.749
20
-89.4965
11
155.862
21
-89.6336
0
LINE
8
BLACK
6
CONTINUOUS
10
155.862
20
-89.6336
11
155.946
21
-89.7899
0
LINE
8
BLACK
6
CONTINUOUS
10
155.946
20
-89.7899
11
156
21
-89.9708
0
LINE
8
BLACK
6
CONTINUOUS
10
156
20
-89.9708
11
156.01
21
-89.9934
0
LINE
8
BLACK
6
CONTINUOUS
10
156.01
20
-89.9934
11
156.023
21
-90.0138
0
LINE
8
BLACK
6
CONTINUOUS
10
156.023
20
-90.0138
11
156.041
21
-90.0311
0
LINE
8
BLACK
6
CONTINUOUS
10
156.041
20
-90.0311
11
156.061
21
-90.0447
0
LINE
8
BLACK
6
CONTINUOUS
10
156.061
20
-90.0447
11
156.084
21
-90.0541
0
LINE
8
BLACK
6
CONTINUOUS
10
156.084
20
-90.0541
11
156.108
21
-90.0589
0
LINE
8
BLACK
6
CONTINUOUS
10
156.108
20
-90.0589
11
156.132
21
-90.0589
0
LINE
8
BLACK
6
CONTINUOUS
10
156.132
20
-90.0589
11
156.156
21
-90.0541
0
LINE
8
BLACK
6
CONTINUOUS
10
156.156
20
-90.0541
11
156.179
21
-90.0447
0
LINE
8
BLACK
6
CONTINUOUS
10
156.179
20
-90.0447
11
156.199
21
-90.0311
0
LINE
8
BLACK
6
CONTINUOUS
10
156.199
20
-90.0311
11
156.217
21
-90.0138
0
LINE
8
BLACK
6
CONTINUOUS
10
156.217
20
-90.0138
11
156.23
21
-89.9934
0
LINE
8
BLACK
6
CONTINUOUS
10
156.23
20
-89.9934
11
156.24
21
-89.9708
0
LINE
8
BLACK
6
CONTINUOUS
10
156.24
20
-89.9708
11
156.294
21
-89.7899
0
LINE
8
BLACK
6
CONTINUOUS
10
156.294
20
-89.7899
11
156.378
21
-89.6336
0
LINE
8
BLACK
6
CONTINUOUS
10
156.378
20
-89.6336
11
156.491
21
-89.4965
0
LINE
8
BLACK
6
CONTINUOUS
10
156.491
20
-89.4965
11
156.628
21
-89.3841
0
LINE
8
BLACK
6
CONTINUOUS
10
156.628
20
-89.3841
11
156.792
21
-89.2962
0
LINE
8
BLACK
6
CONTINUOUS
10
156.792
20
-89.2962
11
156.812
21
-89.2826
0
LINE
8
BLACK
6
CONTINUOUS
10
156.812
20
-89.2826
11
156.83
21
-89.2653
0
LINE
8
BLACK
6
CONTINUOUS
10
156.83
20
-89.2653
11
156.843
21
-89.2449
0
LINE
8
BLACK
6
CONTINUOUS
10
156.843
20
-89.2449
11
156.853
21
-89.2223
0
LINE
8
BLACK
6
CONTINUOUS
10
156.853
20
-89.2223
11
156.857
21
-89.1983
0
LINE
8
BLACK
6
CONTINUOUS
10
156.857
20
-89.1983
11
156.857
21
-89.1737
0
LINE
8
BLACK
6
CONTINUOUS
10
156.857
20
-89.1737
11
156.853
21
-89.1497
0
LINE
8
BLACK
6
CONTINUOUS
10
156.853
20
-89.1497
11
156.843
21
-89.1271
0
LINE
8
BLACK
6
CONTINUOUS
10
156.843
20
-89.1271
11
156.83
21
-89.1067
0
LINE
8
BLACK
6
CONTINUOUS
10
156.83
20
-89.1067
11
156.812
21
-89.0894
0
LINE
8
BLACK
6
CONTINUOUS
10
156.812
20
-89.0894
11
156.792
21
-89.0758
0
LINE
8
BLACK
6
CONTINUOUS
10
156.792
20
-89.0758
11
156.628
21
-88.9879
0
LINE
8
BLACK
6
CONTINUOUS
10
156.628
20
-88.9879
11
156.491
21
-88.8755
0
LINE
8
BLACK
6
CONTINUOUS
10
156.491
20
-88.8755
11
156.378
21
-88.7384
0
LINE
8
BLACK
6
CONTINUOUS
10
156.378
20
-88.7384
11
156.294
21
-88.5821
0
LINE
8
BLACK
6
CONTINUOUS
10
156.294
20
-88.5821
11
156.24
21
-88.4012
0
LINE
8
BLACK
6
CONTINUOUS
10
156.24
20
-88.4012
11
156.23
21
-88.3786
0
LINE
8
BLACK
6
CONTINUOUS
10
156.23
20
-88.3786
11
156.217
21
-88.3582
0
LINE
8
BLACK
6
CONTINUOUS
10
156.217
20
-88.3582
11
156.199
21
-88.3409
0
LINE
8
BLACK
6
CONTINUOUS
10
156.199
20
-88.3409
11
156.179
21
-88.3272
0
LINE
8
BLACK
6
CONTINUOUS
10
156.179
20
-88.3272
11
156.156
21
-88.3179
0
LINE
8
BLACK
6
CONTINUOUS
10
156.156
20
-88.3179
11
156.132
21
-88.3131
0
LINE
8
BLACK
6
CONTINUOUS
10
156.132
20
-88.3131
11
156.108
21
-88.3131
0
LINE
8
BLACK
6
CONTINUOUS
10
156.108
20
-88.3131
11
156.084
21
-88.3179
0
LINE
8
BLACK
6
CONTINUOUS
10
156.084
20
-88.3179
11
156.061
21
-88.3272
0
LINE
8
BLACK
6
CONTINUOUS
10
156.061
20
-88.3272
11
156.041
21
-88.3409
0
LINE
8
BLACK
6
CONTINUOUS
10
156.041
20
-88.3409
11
156.023
21
-88.3582
0
LINE
8
BLACK
6
CONTINUOUS
10
156.023
20
-88.3582
11
156.01
21
-88.3786
0
LINE
8
BLACK
6
CONTINUOUS
10
156.01
20
-88.3786
11
156
21
-88.4012
0
LINE
8
BLACK
6
CONTINUOUS
10
156
20
-88.4012
11
155.946
21
-88.5821
0
LINE
8
BLACK
6
CONTINUOUS
10
155.946
20
-88.5821
11
155.862
21
-88.7384
0
LINE
8
BLACK
6
CONTINUOUS
10
155.862
20
-88.7384
11
155.749
21
-88.8755
0
LINE
8
BLACK
6
CONTINUOUS
10
155.749
20
-88.8755
11
155.612
21
-88.9879
0
LINE
8
BLACK
6
CONTINUOUS
10
155.612
20
-88.9879
11
155.448
21
-89.0758
0
LINE
8
BLACK
6
CONTINUOUS
10
155.448
20
-89.0758
11
155.428
21
-89.0894
0
LINE
8
BLACK
6
CONTINUOUS
10
155.428
20
-89.0894
11
155.41
21
-89.1067
0
LINE
8
BLACK
6
CONTINUOUS
10
155.41
20
-89.1067
11
155.397
21
-89.1271
0
LINE
8
BLACK
6
CONTINUOUS
10
155.397
20
-89.1271
11
155.387
21
-89.1497
0
LINE
8
BLACK
6
CONTINUOUS
10
155.387
20
-89.1497
11
155.383
21
-89.1737
0
LINE
8
BLACK
6
CONTINUOUS
10
155.383
20
-89.1737
11
153.337
21
-89.1737
0
LINE
8
BLACK
6
CONTINUOUS
10
153.337
20
-89.1737
11
153.333
21
-89.1497
0
LINE
8
BLACK
6
CONTINUOUS
10
153.333
20
-89.1497
11
153.323
21
-89.1271
0
LINE
8
BLACK
6
CONTINUOUS
10
153.323
20
-89.1271
11
153.31
21
-89.1067
0
LINE
8
BLACK
6
CONTINUOUS
10
153.31
20
-89.1067
11
153.292
21
-89.0894
0
LINE
8
BLACK
6
CONTINUOUS
10
153.292
20
-89.0894
11
153.272
21
-89.0758
0
LINE
8
BLACK
6
CONTINUOUS
10
153.272
20
-89.0758
11
153.108
21
-88.9879
0
LINE
8
BLACK
6
CONTINUOUS
10
153.108
20
-88.9879
11
152.971
21
-88.8755
0
LINE
8
BLACK
6
CONTINUOUS
10
152.971
20
-88.8755
11
152.858
21
-88.7384
0
LINE
8
BLACK
6
CONTINUOUS
10
152.858
20
-88.7384
11
152.774
21
-88.5821
0
LINE
8
BLACK
6
CONTINUOUS
10
152.774
20
-88.5821
11
152.723
21
-88.4124
0
LINE
8
BLACK
6
CONTINUOUS
10
152.723
20
-88.4124
11
152.706
21
-88.236
0
LINE
8
BLACK
6
CONTINUOUS
10
152.706
20
-88.236
11
152.723
21
-88.0596
0
LINE
8
BLACK
6
CONTINUOUS
10
152.723
20
-88.0596
11
152.774
21
-87.8899
0
LINE
8
BLACK
6
CONTINUOUS
10
152.774
20
-87.8899
11
152.858
21
-87.7336
0
LINE
8
BLACK
6
CONTINUOUS
10
152.858
20
-87.7336
11
152.971
21
-87.5965
0
LINE
8
BLACK
6
CONTINUOUS
10
152.971
20
-87.5965
11
153.108
21
-87.4841
0
LINE
8
BLACK
6
CONTINUOUS
10
153.108
20
-87.4841
11
153.272
21
-87.3962
0
LINE
8
BLACK
6
CONTINUOUS
10
153.272
20
-87.3962
11
153.292
21
-87.3826
0
LINE
8
BLACK
6
CONTINUOUS
10
153.292
20
-87.3826
11
153.31
21
-87.3653
0
LINE
8
BLACK
6
CONTINUOUS
10
153.31
20
-87.3653
11
153.323
21
-87.3449
0
LINE
8
BLACK
6
CONTINUOUS
10
153.323
20
-87.3449
11
153.333
21
-87.3223
0
LINE
8
BLACK
6
CONTINUOUS
10
153.333
20
-87.3223
11
153.337
21
-87.2983
0
LINE
8
BLACK
6
CONTINUOUS
10
153.337
20
-87.2983
11
153.337
21
-87.2737
0
LINE
8
BLACK
6
CONTINUOUS
10
153.337
20
-87.2737
11
155.383
21
-87.2737
0
LINE
8
BLACK
6
CONTINUOUS
10
155.383
20
-87.2737
11
155.383
21
-87.2983
0
LINE
8
BLACK
6
CONTINUOUS
10
155.383
20
-87.2983
11
155.387
21
-87.3223
0
LINE
8
BLACK
6
CONTINUOUS
10
155.387
20
-87.3223
11
155.397
21
-87.3449
0
LINE
8
BLACK
6
CONTINUOUS
10
155.397
20
-87.3449
11
155.41
21
-87.3653
0
LINE
8
BLACK
6
CONTINUOUS
10
155.41
20
-87.3653
11
155.428
21
-87.3826
0
LINE
8
BLACK
6
CONTINUOUS
10
155.428
20
-87.3826
11
155.448
21
-87.3962
0
LINE
8
BLACK
6
CONTINUOUS
10
155.448
20
-87.3962
11
155.612
21
-87.4841
0
LINE
8
BLACK
6
CONTINUOUS
10
155.612
20
-87.4841
11
155.749
21
-87.5965
0
LINE
8
BLACK
6
CONTINUOUS
10
155.749
20
-87.5965
11
155.862
21
-87.7336
0
LINE
8
BLACK
6
CONTINUOUS
10
155.862
20
-87.7336
11
155.946
21
-87.8899
0
LINE
8
BLACK
6
CONTINUOUS
10
155.946
20
-87.8899
11
156
21
-88.0708
0
LINE
8
BLACK
6
CONTINUOUS
10
156
20
-88.0708
11
156.01
21
-88.0934
0
LINE
8
BLACK
6
CONTINUOUS
10
156.01
20
-88.0934
11
156.023
21
-88.1138
0
LINE
8
BLACK
6
CONTINUOUS
10
156.023
20
-88.1138
11
156.041
21
-88.1311
0
LINE
8
BLACK
6
CONTINUOUS
10
156.041
20
-88.1311
11
156.061
21
-88.1448
0
LINE
8
BLACK
6
CONTINUOUS
10
156.061
20
-88.1448
11
156.084
21
-88.1541
0
LINE
8
BLACK
6
CONTINUOUS
10
156.084
20
-88.1541
11
156.108
21
-88.1589
0
LINE
8
BLACK
6
CONTINUOUS
10
156.108
20
-88.1589
11
156.132
21
-88.1589
0
LINE
8
BLACK
6
CONTINUOUS
10
156.132
20
-88.1589
11
156.156
21
-88.1541
0
LINE
8
BLACK
6
CONTINUOUS
10
156.156
20
-88.1541
11
156.179
21
-88.1448
0
LINE
8
BLACK
6
CONTINUOUS
10
156.179
20
-88.1448
11
156.199
21
-88.1311
0
LINE
8
BLACK
6
CONTINUOUS
10
156.199
20
-88.1311
11
156.217
21
-88.1138
0
LINE
8
BLACK
6
CONTINUOUS
10
156.217
20
-88.1138
11
156.23
21
-88.0934
0
LINE
8
BLACK
6
CONTINUOUS
10
156.23
20
-88.0934
11
156.24
21
-88.0708
0
LINE
8
BLACK
6
CONTINUOUS
10
156.24
20
-88.0708
11
156.294
21
-87.8899
0
LINE
8
BLACK
6
CONTINUOUS
10
156.294
20
-87.8899
11
156.378
21
-87.7336
0
LINE
8
BLACK
6
CONTINUOUS
10
156.378
20
-87.7336
11
156.491
21
-87.5965
0
LINE
8
BLACK
6
CONTINUOUS
10
156.491
20
-87.5965
11
156.628
21
-87.4841
0
LINE
8
BLACK
6
CONTINUOUS
10
156.628
20
-87.4841
11
156.792
21
-87.3962
0
LINE
8
BLACK
6
CONTINUOUS
10
156.792
20
-87.3962
11
156.812
21
-87.3826
0
LINE
8
BLACK
6
CONTINUOUS
10
156.812
20
-87.3826
11
156.83
21
-87.3653
0
LINE
8
BLACK
6
CONTINUOUS
10
156.83
20
-87.3653
11
156.843
21
-87.3449
0
LINE
8
BLACK
6
CONTINUOUS
10
156.843
20
-87.3449
11
156.853
21
-87.3223
0
LINE
8
BLACK
6
CONTINUOUS
10
156.853
20
-87.3223
11
156.857
21
-87.2983
0
LINE
8
BLACK
6
CONTINUOUS
10
156.857
20
-87.2983
11
156.857
21
-87.2737
0
LINE
8
BLACK
6
CONTINUOUS
10
156.857
20
-87.2737
11
156.853
21
-87.2497
0
LINE
8
BLACK
6
CONTINUOUS
10
156.853
20
-87.2497
11
156.843
21
-87.2271
0
LINE
8
BLACK
6
CONTINUOUS
10
156.843
20
-87.2271
11
156.83
21
-87.2067
0
LINE
8
BLACK
6
CONTINUOUS
10
156.83
20
-87.2067
11
156.812
21
-87.1894
0
LINE
8
BLACK
6
CONTINUOUS
10
156.812
20
-87.1894
11
156.792
21
-87.1758
0
LINE
8
BLACK
6
CONTINUOUS
10
156.792
20
-87.1758
11
156.628
21
-87.0879
0
LINE
8
BLACK
6
CONTINUOUS
10
156.628
20
-87.0879
11
156.491
21
-86.9755
0
LINE
8
BLACK
6
CONTINUOUS
10
156.491
20
-86.9755
11
156.378
21
-86.8384
0
LINE
8
BLACK
6
CONTINUOUS
10
156.378
20
-86.8384
11
156.294
21
-86.6821
0
LINE
8
BLACK
6
CONTINUOUS
10
156.294
20
-86.6821
11
156.24
21
-86.5012
0
LINE
8
BLACK
6
CONTINUOUS
10
156.24
20
-86.5012
11
156.23
21
-86.4786
0
LINE
8
BLACK
6
CONTINUOUS
10
156.23
20
-86.4786
11
156.217
21
-86.4582
0
LINE
8
BLACK
6
CONTINUOUS
10
156.217
20
-86.4582
11
156.199
21
-86.4409
0
LINE
8
BLACK
6
CONTINUOUS
10
156.199
20
-86.4409
11
156.179
21
-86.4273
0
LINE
8
BLACK
6
CONTINUOUS
10
156.179
20
-86.4273
11
156.156
21
-86.4179
0
LINE
8
BLACK
6
CONTINUOUS
10
156.156
20
-86.4179
11
156.132
21
-86.4131
0
LINE
8
BLACK
6
CONTINUOUS
10
156.132
20
-86.4131
11
156.108
21
-86.4131
0
LINE
8
BLACK
6
CONTINUOUS
10
156.108
20
-86.4131
11
156.084
21
-86.4179
0
LINE
8
BLACK
6
CONTINUOUS
10
156.084
20
-86.4179
11
156.061
21
-86.4273
0
LINE
8
BLACK
6
CONTINUOUS
10
156.061
20
-86.4273
11
156.041
21
-86.4409
0
LINE
8
BLACK
6
CONTINUOUS
10
156.041
20
-86.4409
11
156.023
21
-86.4582
0
LINE
8
BLACK
6
CONTINUOUS
10
156.023
20
-86.4582
11
156.01
21
-86.4786
0
LINE
8
BLACK
6
CONTINUOUS
10
156.01
20
-86.4786
11
156
21
-86.5012
0
LINE
8
BLACK
6
CONTINUOUS
10
156
20
-86.5012
11
155.946
21
-86.6821
0
LINE
8
BLACK
6
CONTINUOUS
10
155.946
20
-86.6821
11
155.862
21
-86.8384
0
LINE
8
BLACK
6
CONTINUOUS
10
155.862
20
-86.8384
11
155.749
21
-86.9755
0
LINE
8
BLACK
6
CONTINUOUS
10
155.749
20
-86.9755
11
155.612
21
-87.0879
0
LINE
8
BLACK
6
CONTINUOUS
10
155.612
20
-87.0879
11
155.448
21
-87.1758
0
LINE
8
BLACK
6
CONTINUOUS
10
155.448
20
-87.1758
11
155.428
21
-87.1894
0
LINE
8
BLACK
6
CONTINUOUS
10
155.428
20
-87.1894
11
155.41
21
-87.2067
0
LINE
8
BLACK
6
CONTINUOUS
10
155.41
20
-87.2067
11
155.397
21
-87.2271
0
LINE
8
BLACK
6
CONTINUOUS
10
155.397
20
-87.2271
11
155.387
21
-87.2497
0
LINE
8
BLACK
6
CONTINUOUS
10
155.387
20
-87.2497
11
155.383
21
-87.2737
0
LINE
8
BLACK
6
CONTINUOUS
10
155.383
20
-87.2737
11
153.337
21
-87.2737
0
LINE
8
BLACK
6
CONTINUOUS
10
153.337
20
-87.2737
11
153.333
21
-87.2497
0
LINE
8
BLACK
6
CONTINUOUS
10
153.333
20
-87.2497
11
153.323
21
-87.2271
0
LINE
8
BLACK
6
CONTINUOUS
10
153.323
20
-87.2271
11
153.31
21
-87.2067
0
LINE
8
BLACK
6
CONTINUOUS
10
153.31
20
-87.2067
11
153.292
21
-87.1894
0
LINE
8
BLACK
6
CONTINUOUS
10
153.292
20
-87.1894
11
153.272
21
-87.1758
0
LINE
8
BLACK
6
CONTINUOUS
10
153.272
20
-87.1758
11
153.108
21
-87.0879
0
LINE
8
BLACK
6
CONTINUOUS
10
153.108
20
-87.0879
11
152.971
21
-86.9755
0
LINE
8
BLACK
6
CONTINUOUS
10
152.971
20
-86.9755
11
152.858
21
-86.8384
0
LINE
8
BLACK
6
CONTINUOUS
10
152.858
20
-86.8384
11
152.774
21
-86.6821
0
LINE
8
BLACK
6
CONTINUOUS
10
152.774
20
-86.6821
11
152.723
21
-86.5124
0
LINE
8
BLACK
6
CONTINUOUS
10
152.723
20
-86.5124
11
152.706
21
-86.336
0
LINE
8
BLACK
6
CONTINUOUS
10
152.706
20
-86.336
11
152.723
21
-86.1596
0
LINE
8
BLACK
6
CONTINUOUS
10
152.723
20
-86.1596
11
152.774
21
-85.9899
0
LINE
8
BLACK
6
CONTINUOUS
10
152.774
20
-85.9899
11
152.858
21
-85.8336
0
LINE
8
BLACK
6
CONTINUOUS
10
152.858
20
-85.8336
11
152.971
21
-85.6965
0
LINE
8
BLACK
6
CONTINUOUS
10
152.971
20
-85.6965
11
153.108
21
-85.5841
0
LINE
8
BLACK
6
CONTINUOUS
10
153.108
20
-85.5841
11
153.264
21
-85.5005
0
LINE
8
BLACK
6
CONTINUOUS
10
153.264
20
-85.5005
11
153.264
21
-85.5005
0
LINE
8
BLACK
6
CONTINUOUS
10
153.264
20
-85.5005
11
153.264
21
-85.5005
0
LINE
8
BLACK
6
CONTINUOUS
10
153.264
20
-85.5005
11
153.434
21
-85.449
0
LINE
8
BLACK
6
CONTINUOUS
10
153.434
20
-85.449
11
153.434
21
-85.449
0
LINE
8
BLACK
6
CONTINUOUS
10
153.434
20
-85.449
11
153.434
21
-85.449
0
LINE
8
BLACK
6
CONTINUOUS
10
153.434
20
-85.449
11
153.566
21
-85.436
0
LINE
8
BLACK
6
CONTINUOUS
10
153.566
20
-85.436
11
155.154
21
-85.436
0
LINE
8
BLACK
6
CONTINUOUS
10
155.154
20
-85.436
11
155.286
21
-85.449
  0
ENDSEC
  0
EOF
