<?xml version="1.0" standalone="no"?>
 <!DOCTYPE svg PUBLIC "-//W3C//DTD SVG 1.1//EN" 
 "http://www.w3.org/Graphics/SVG/1.1/DTD/svg11.dtd"> 
<svg xmlns="http://www.w3.org/2000/svg" version="1.1" 
    width="29.7002cm" height="21.0007cm" viewBox="0 0 116930 82680 ">
<title>SVG Picture created as FrogINT_PCBProto_V1811062154-B_SilkS.svg date 2019/04/02 16:53:05 </title>
  <desc>Picture generated by PCBNEW </desc>
<g style="fill:#000000; fill-opacity:1;stroke:#000000; stroke-opacity:1;
stroke-linecap:round; stroke-linejoin:round; "
 transform="translate(0 0) scale(1 1)">
</g>
<g style="fill:#000000; fill-opacity:0.0; 
stroke:#000000; stroke-width:-0.000393701; stroke-opacity:1; 
stroke-linecap:round; stroke-linejoin:round;">
</g>
<g style="fill:#000000; fill-opacity:1.0; 
stroke:#000000; stroke-width:3.93701; stroke-opacity:1; 
stroke-linecap:round; stroke-linejoin:round;">
<path style="fill:#000000; fill-opacity:1.0; 
stroke:#000000; stroke-width:3.93701; stroke-opacity:1; 
stroke-linecap:round; stroke-linejoin:round;fill-rule:evenodd;"
d="M 63264,46138
62997,46138
62997,47338
63264,47338
63264,46138
Z" /> 
<path style="fill:#000000; fill-opacity:1.0; 
stroke:#000000; stroke-width:3.93701; stroke-opacity:1; 
stroke-linecap:round; stroke-linejoin:round;fill-rule:evenodd;"
d="M 60364,46138
60097,46138
60097,47871
60364,47871
60364,46138
Z" /> 
<path style="fill:#000000; fill-opacity:1.0; 
stroke:#000000; stroke-width:3.93701; stroke-opacity:1; 
stroke-linecap:round; stroke-linejoin:round;fill-rule:evenodd;"
d="M 59393,47784
59443,47762
59474,47706
59487,47671
59509,47606
59549,47488
59603,47329
59667,47141
59737,46935
59762,46862
59830,46659
59891,46479
59941,46329
59977,46220
59995,46161
59997,46154
59968,46144
59894,46138
59867,46138
59736,46138
59656,46380
59575,46621
59018,46621
58935,46380
58851,46138
58724,46138
58643,46142
58600,46151
58597,46154
58607,46191
58634,46274
58672,46388
58681,46412
58720,46527
58775,46687
58826,46838
59079,46838
59291,46838
59405,46839
59466,46847
59487,46866
59482,46903
59479,46913
59444,47026
59402,47152
59361,47273
59325,47375
59300,47439
59293,47453
59279,47429
59249,47354
59209,47241
59180,47152
59079,46838
58826,46838
58840,46878
58910,47082
58957,47221
59151,47788
59299,47788
59393,47784
Z" /> 
<path style="fill:#000000; fill-opacity:1.0; 
stroke:#000000; stroke-width:3.93701; stroke-opacity:1; 
stroke-linecap:round; stroke-linejoin:round;fill-rule:evenodd;"
d="M 56464,46138
56197,46138
56197,47871
56464,47871
56464,46138
Z" /> 
<path style="fill:#000000; fill-opacity:1.0; 
stroke:#000000; stroke-width:3.93701; stroke-opacity:1; 
stroke-linecap:round; stroke-linejoin:round;fill-rule:evenodd;"
d="M 54097,47230
54176,47282
54326,47346
54484,47356
54632,47313
54754,47222
54797,47165
54824,47112
54843,47051
54855,46969
54861,46853
54864,46689
54864,46596
54864,46138
54631,46138
54631,46506
54624,46741
54601,46915
54559,47035
54496,47106
54408,47133
54299,47122
54222,47095
54166,47047
54130,46968
54108,46849
54099,46679
54097,46539
54097,46138
53831,46138
53831,47871
54097,47871
54097,47230
Z" /> 
<path style="fill:#000000; fill-opacity:1.0; 
stroke:#000000; stroke-width:3.93701; stroke-opacity:1; 
stroke-linecap:round; stroke-linejoin:round;fill-rule:evenodd;"
d="M 53797,47671
53297,47671
53297,46138
53031,46138
53031,47671
52564,47671
52564,47871
53797,47871
53797,47671
Z" /> 
<path style="fill:#000000; fill-opacity:1.0; 
stroke:#000000; stroke-width:3.93701; stroke-opacity:1; 
stroke-linecap:round; stroke-linejoin:round;fill-rule:evenodd;"
d="M 64061,47336
64153,47310
64230,47267
64286,47206
64324,47116
64349,46988
64361,46814
64364,46591
64364,46138
64264,46138
64185,46153
64164,46188
64154,46214
64115,46204
64056,46171
63917,46117
63765,46106
63627,46138
63557,46180
63455,46297
63412,46424
63417,46483
63673,46483
63697,46411
63713,46386
63764,46325
63827,46309
63884,46316
63979,46344
64051,46387
64052,46388
64089,46453
64117,46553
64123,46595
64140,46747
64015,46724
63863,46688
63765,46642
63705,46582
63692,46557
63673,46483
63417,46483
63423,46552
63481,46672
63583,46776
63722,46854
63894,46898
63998,46905
64078,46909
64109,46930
64107,46982
64105,46989
64057,47092
63965,47152
63839,47164
63688,47127
63675,47121
63593,47088
63552,47085
63533,47120
63519,47176
63514,47240
63547,47280
63604,47308
63740,47342
63903,47351
64061,47336
Z" /> 
<path style="fill:#000000; fill-opacity:1.0; 
stroke:#000000; stroke-width:3.93701; stroke-opacity:1; 
stroke-linecap:round; stroke-linejoin:round;fill-rule:evenodd;"
d="M 58390,47337
58469,47289
58492,47241
58487,47156
58439,47120
58346,47132
58319,47141
58226,47166
58157,47158
58114,47138
58045,47080
58041,47015
58102,46942
58228,46860
58247,46849
58415,46739
58521,46621
58563,46496
58564,46478
58535,46351
58461,46233
58365,46155
58255,46121
58112,46107
57967,46113
57850,46140
57831,46149
57766,46207
57759,46257
57781,46326
57827,46355
57911,46348
57973,46333
58117,46311
58222,46330
58282,46388
58291,46463
58272,46524
58221,46575
58123,46631
58104,46641
57952,46724
57856,46804
57805,46896
57789,47013
57792,47092
57830,47187
57916,47272
58033,47333
58107,47350
58266,47358
58390,47337
Z" /> 
<path style="fill:#000000; fill-opacity:1.0; 
stroke:#000000; stroke-width:3.93701; stroke-opacity:1; 
stroke-linecap:round; stroke-linejoin:round;fill-rule:evenodd;"
d="M 57352,47328
57500,47252
57602,47128
57656,46959
57664,46846
57664,46671
57264,46671
57095,46671
56982,46668
56913,46660
56878,46646
56865,46624
56864,46605
56885,46540
56939,46457
56961,46431
57022,46369
57079,46337
57156,46327
57253,46328
57371,46334
57471,46340
57514,46345
57567,46335
57590,46275
57591,46267
57586,46202
57542,46161
57494,46142
57318,46106
57129,46110
56956,46150
56876,46188
56743,46304
56654,46456
56610,46631
56610,46815
56634,46910
56874,46910
56884,46888
56926,46877
57010,46872
57145,46871
57295,46875
57393,46887
57430,46905
57431,46907
57410,46980
57359,47065
57300,47129
57204,47165
57094,47151
56990,47096
56909,47009
56881,46946
56874,46910
56634,46910
56656,46995
56747,47155
56841,47251
56929,47313
57011,47343
57120,47353
57160,47354
57352,47328
Z" /> 
<path style="fill:#000000; fill-opacity:1.0; 
stroke:#000000; stroke-width:3.93701; stroke-opacity:1; 
stroke-linecap:round; stroke-linejoin:round;fill-rule:evenodd;"
d="M 55650,47346
55735,47326
55798,47286
55811,47274
55868,47212
55909,47141
55937,47049
55955,46924
55966,46753
55971,46580
55981,46138
55874,46138
55778,46158
55733,46196
55706,46228
55698,46218
55667,46173
55585,46135
55471,46111
55377,46105
55264,46115
55182,46155
55128,46202
55065,46279
55037,46360
55031,46461
55033,46485
55265,46485
55286,46395
55316,46357
55408,46310
55521,46320
55575,46344
55674,46421
55722,46527
55730,46613
55727,46688
55708,46725
55658,46732
55563,46713
55511,46701
55384,46648
55300,46572
55265,46485
55033,46485
55041,46573
55066,46667
55080,46693
55162,46769
55288,46836
55432,46884
55572,46905
55580,46905
55685,46914
55728,46947
55711,47006
55649,47083
55555,47152
55442,47168
55300,47131
55275,47121
55191,47088
55150,47085
55129,47120
55114,47175
55108,47237
55140,47277
55203,47308
55298,47333
55426,47349
55522,47352
55650,47346
Z" /> 
<path style="fill:#000000; fill-opacity:1.0; 
stroke:#000000; stroke-width:3.93701; stroke-opacity:1; 
stroke-linecap:round; stroke-linejoin:round;fill-rule:evenodd;"
d="M 63713,49088
63882,48983
63992,48867
64044,48737
64036,48590
63969,48424
63842,48236
63656,48023
63593,47959
63480,47842
63387,47740
63324,47662
63298,47620
63297,47618
63269,47567
63200,47524
63119,47505
63116,47505
63063,47487
62976,47440
62871,47374
62867,47371
62670,47236
62725,47129
62751,47057
62770,46951
62783,46801
62792,46596
62792,46580
62804,46138
62537,46138
62526,46570
62517,46771
62504,46921
62487,47014
62475,47041
62436,47056
62374,47038
62275,46984
62174,46926
62090,46881
62056,46864
62029,46845
62012,46805
62002,46733
61998,46616
61997,46489
61997,46138
61731,46138
61731,46661
61412,46497
61284,46429
61183,46371
61122,46331
61108,46316
61147,46313
61230,46321
61302,46333
61402,46350
61469,46359
61486,46360
61498,46328
61514,46265
61522,46206
61498,46172
61425,46145
61409,46141
61264,46114
61108,46106
60969,46118
60888,46141
60841,46154
60784,46149
60702,46122
60580,46069
60511,46037
60192,45887
59912,45757
59674,45650
59482,45566
59340,45508
59251,45476
59226,45471
59198,45495
59197,45499
59225,45525
59299,45569
59403,45619
59406,45621
59506,45667
59651,45735
59827,45818
60018,45908
60158,45975
60701,46235
60625,46339
60572,46452
60539,46605
60538,46630
60764,46630
60781,46571
60823,46493
60873,46421
60918,46376
60930,46371
60973,46386
61059,46426
61172,46483
61223,46510
61340,46573
61432,46624
61487,46655
61495,46660
61469,46664
61390,46668
61269,46671
61136,46671
60963,46669
60848,46662
60784,46649
60764,46630
60764,46630
60538,46630
60530,46772
60540,46871
60762,46871
61361,46871
61326,46972
61255,47088
61148,47157
61062,47171
60966,47140
60871,47055
60800,46946
60762,46871
60540,46871
60545,46929
60581,47042
60689,47190
60833,47296
60998,47354
61170,47360
61335,47311
61384,47283
61463,47202
61532,47080
61581,46943
61597,46827
61600,46749
61617,46724
61656,46741
61664,46746
61698,46775
61718,46821
61728,46900
61730,47008
62066,47008
62072,46997
62115,47016
62186,47064
62214,47085
62250,47122
62241,47137
62192,47117
62122,47066
62108,47053
62066,47008
61730,47008
61731,47027
61731,47063
61731,47338
61847,47338
61928,47331
61960,47302
61964,47270
61967,47229
61987,47225
62040,47259
62067,47279
62138,47322
62219,47344
62333,47351
62392,47350
62514,47350
62601,47363
62681,47398
62781,47463
62806,47480
62919,47567
62980,47636
62997,47692
63025,47765
63089,47818
63164,47831
63179,47827
63221,47842
63294,47897
63386,47982
63484,48084
63579,48192
63658,48294
63697,48355
63749,48478
63776,48607
63777,48627
63759,48753
63693,48858
63573,48947
63434,49013
63371,49037
63311,49055
63242,49068
63155,49077
63040,49083
62888,49086
62688,49087
62447,49087
62187,49085
61975,49082
61793,49076
61627,49065
61460,49048
61277,49024
61062,48990
60799,48947
60764,48941
60671,48924
60528,48896
60350,48860
60151,48819
59947,48776
59753,48735
59583,48699
59464,48672
59371,48651
59241,48622
59114,48593
58966,48558
58817,48520
58716,48491
58605,48462
58539,48457
58525,48474
58534,48486
58577,48504
58676,48534
58823,48573
59009,48620
59224,48672
59461,48728
59711,48785
59964,48842
60211,48896
60445,48945
60656,48987
60831,49020
61123,49071
61365,49110
61576,49139
61769,49160
61963,49173
62174,49181
62417,49185
62681,49187
63514,49188
63713,49088
Z" /> 
<path style="fill:#000000; fill-opacity:1.0; 
stroke:#000000; stroke-width:3.93701; stroke-opacity:1; 
stroke-linecap:round; stroke-linejoin:round;fill-rule:evenodd;"
d="M 56824,45377
56831,45338
56846,45290
56904,45272
56933,45271
56999,45267
57025,45239
57026,45169
57024,45146
57014,45021
56789,45014
56670,45011
56603,45016
56572,45034
56564,45069
56564,45089
56547,45155
56664,45155
56671,45110
56677,45105
56698,45130
56898,45130
56903,45081
56923,45093
56931,45105
56959,45161
56964,45180
56939,45204
56931,45205
56905,45177
56898,45130
56698,45130
56699,45131
56709,45155
56710,45198
56696,45205
56668,45178
56664,45155
56547,45155
56547,45155
56514,45171
56474,45142
56464,45088
56460,45043
56439,45018
56385,45007
56283,45005
56247,45005
56031,45005
56028,45088
56231,45088
56247,45071
56264,45088
56247,45105
56231,45088
56028,45088
56027,45113
56023,45221
56001,45121
55980,45021
55589,45014
55431,45014
55305,45018
55223,45027
55197,45037
55203,45088
55531,45088
55547,45071
55564,45088
55547,45105
55531,45088
55203,45088
55207,45129
55231,45232
55263,45325
55296,45389
55317,45405
55354,45390
55361,45340
55341,45242
55333,45213
55317,45139
55330,45109
55363,45105
55419,45135
55429,45155
55764,45155
55771,45110
55777,45105
55799,45131
55809,45155
55810,45198
55796,45205
55768,45178
55764,45155
55429,45155
55444,45185
55456,45222
55479,45246
55525,45259
55609,45265
55742,45266
55795,45266
55947,45265
56044,45261
56100,45250
56128,45231
56140,45200
56141,45194
56152,45143
56157,45157
56160,45196
56166,45233
56188,45255
56239,45267
56333,45271
56444,45271
56581,45273
56667,45280
56713,45295
56735,45321
56740,45338
56770,45392
56794,45405
56824,45377
Z" /> 
<path style="fill:#000000; fill-opacity:1.0; 
stroke:#000000; stroke-width:3.93701; stroke-opacity:1; 
stroke-linecap:round; stroke-linejoin:round;fill-rule:evenodd;"
d="M 53745,45392
53762,45364
53764,45340
53783,45285
53812,45271
53859,45244
53874,45213
53887,45172
53892,45196
53894,45213
53919,45258
53996,45271
53997,45271
54071,45261
54099,45221
54101,45196
54106,45147
54113,45162
54119,45188
54138,45278
54149,45330
54177,45391
54210,45400
54230,45355
54231,45338
54243,45299
54285,45275
54369,45266
54506,45268
54558,45271
54629,45271
54658,45248
54661,45184
54658,45149
54647,45021
54202,45014
53757,45006
53769,45088
53964,45088
53981,45071
53997,45088
54297,45088
54314,45071
54331,45088
54531,45088
54547,45071
54564,45088
54547,45105
54531,45088
54331,45088
54314,45105
54297,45088
53997,45088
53981,45105
53964,45088
53769,45088
53771,45106
53773,45169
53756,45176
53735,45130
53726,45091
53694,45030
53667,45011
53640,45014
53632,45057
53642,45150
53649,45256
53637,45299
53612,45280
53579,45198
53568,45155
53529,45048
53484,45005
53477,45005
53441,45020
53441,45076
53445,45096
53468,45187
53485,45246
53479,45295
53447,45305
53407,45324
53406,45346
53445,45373
53534,45393
53592,45398
53693,45401
53745,45392
Z" /> 
<path style="fill:#000000; fill-opacity:1.0; 
stroke:#000000; stroke-width:3.93701; stroke-opacity:1; 
stroke-linecap:round; stroke-linejoin:round;fill-rule:evenodd;"
d="M 53216,45295
53248,45255
53248,45172
53242,45127
53223,45046
53187,45012
53114,45005
53110,45005
53031,45013
53000,45045
52997,45069
53000,45088
53097,45088
53114,45071
53131,45088
53114,45105
53097,45088
53000,45088
53016,45189
53067,45272
53142,45305
53145,45305
53216,45295
Z" /> 
<path style="fill:#000000; fill-opacity:1.0; 
stroke:#000000; stroke-width:3.93701; stroke-opacity:1; 
stroke-linecap:round; stroke-linejoin:round;fill-rule:evenodd;"
d="M 55129,45387
55114,45333
55053,45239
54989,45155
54900,45052
54828,44988
54780,44969
54764,44996
54784,45037
54836,45109
54905,45198
54979,45286
55046,45359
55091,45401
55100,45405
55129,45387
Z" /> 
<path style="fill:#000000; fill-opacity:1.0; 
stroke:#000000; stroke-width:3.93701; stroke-opacity:1; 
stroke-linecap:round; stroke-linejoin:round;fill-rule:evenodd;"
d="M 59031,45294
59031,45291
59020,45255
58991,45176
58959,45091
58906,44973
58857,44914
58828,44905
58787,44919
58776,44973
58779,45013
58782,45069
58776,45071
58774,45063
58737,45014
58708,45005
58673,45021
58671,45078
58676,45105
58685,45183
58673,45200
58646,45157
58625,45102
58599,45042
58564,45012
58498,45004
58418,45006
58267,45010
58171,45007
58119,44994
58099,44969
58097,44955
58071,44911
58047,44905
58003,44931
57997,44955
57979,44999
57964,45005
57941,45034
57931,45088
58364,45088
58381,45071
58397,45088
58381,45105
58364,45088
57931,45088
57928,45105
57928,45113
57927,45136
58131,45136
58156,45106
58164,45105
58193,45132
58197,45157
58181,45191
58164,45188
58132,45145
58131,45136
57927,45136
57925,45221
57893,45113
57864,45040
57833,45005
57830,45005
57807,45034
57794,45105
57794,45113
57791,45221
57757,45117
57723,45012
57452,45017
57181,45021
57185,45123
57264,45123
57276,45095
57323,45106
57346,45116
57381,45136
57497,45136
57523,45106
57531,45105
57560,45132
57564,45157
57548,45191
57531,45188
57499,45145
57497,45136
57381,45136
57399,45146
57394,45166
57371,45176
57298,45184
57265,45140
57264,45123
57185,45123
57186,45132
57195,45214
57212,45263
57213,45265
57262,45281
57353,45290
57463,45291
57566,45285
57639,45272
57656,45264
57692,45248
57697,45265
57728,45286
57808,45298
57862,45300
57963,45295
58016,45277
58038,45240
58041,45227
58052,45176
58057,45191
58060,45230
58078,45286
58137,45304
58157,45305
58239,45293
58287,45269
58327,45250
58346,45269
58399,45302
58470,45294
58527,45249
58528,45246
58555,45206
58562,45224
58563,45247
58576,45283
58623,45299
58714,45300
58813,45289
58858,45264
58865,45241
58871,45208
58897,45229
58910,45246
58958,45288
59006,45307
59031,45294
Z" /> 
<path style="fill:#000000; fill-opacity:1.0; 
stroke:#000000; stroke-width:3.93701; stroke-opacity:1; 
stroke-linecap:round; stroke-linejoin:round;fill-rule:evenodd;"
d="M 64190,45615
64285,45549
64328,45446
64331,45411
64300,45300
64207,45213
64055,45152
63969,45134
63863,45112
63789,45090
63764,45075
63781,45034
63816,44979
63893,44921
64001,44904
64115,44931
64133,44939
64180,44956
64196,44924
64197,44888
64174,44811
64112,44771
63983,44743
63849,44746
63747,44778
63659,44848
63613,44943
63598,45080
63598,45081
63622,45274
63639,45313
63817,45313
63823,45283
63875,45271
63954,45280
64042,45308
64046,45310
64115,45362
64131,45417
64097,45459
64036,45471
63929,45441
63839,45348
63817,45313
63639,45313
63691,45435
63798,45554
63938,45623
64050,45638
64190,45615
Z" /> 
<path style="fill:#000000; fill-opacity:1.0; 
stroke:#000000; stroke-width:3.93701; stroke-opacity:1; 
stroke-linecap:round; stroke-linejoin:round;fill-rule:evenodd;"
d="M 63519,45630
63577,45603
63586,45551
63577,45524
63535,45486
63439,45472
63413,45471
63309,45462
63236,45423
63184,45369
63095,45231
63072,45106
63103,45007
63144,44953
63201,44928
63299,44923
63305,44923
63405,44919
63457,44898
63476,44863
63461,44809
63399,44768
63305,44743
63197,44739
63094,44758
63047,44778
62964,44843
62918,44929
62900,45055
62899,45105
62925,45297
63002,45453
63125,45565
63287,45627
63404,45638
63519,45630
Z" /> 
<path style="fill:#000000; fill-opacity:1.0; 
stroke:#000000; stroke-width:3.93701; stroke-opacity:1; 
stroke-linecap:round; stroke-linejoin:round;fill-rule:evenodd;"
d="M 62789,45500
62776,45398
62757,45257
62735,45102
62729,45063
62707,44923
62688,44837
62666,44792
62638,44774
62608,44771
62545,44791
62531,44824
62522,44853
62488,44840
62443,44807
62325,44749
62201,44744
62093,44794
62070,44815
62009,44925
61993,45064
62164,45064
62187,44966
62247,44915
62328,44916
62415,44974
62421,44980
62504,45090
62554,45212
62580,45330
62592,45418
62583,45459
62544,45471
62507,45471
62407,45442
62308,45364
62225,45257
62174,45136
62164,45064
61993,45064
61993,45064
62017,45216
62079,45363
62174,45489
62218,45527
62301,45581
62390,45612
62511,45629
62572,45633
62805,45646
62789,45500
Z" /> 
<path style="fill:#000000; fill-opacity:1.0; 
stroke:#000000; stroke-width:3.93701; stroke-opacity:1; 
stroke-linecap:round; stroke-linejoin:round;fill-rule:evenodd;"
d="M 60951,45955
61027,45908
61047,45834
61043,45813
61011,45749
60971,45745
60947,45771
60894,45802
60808,45805
60714,45782
60638,45738
60632,45732
60584,45674
60565,45640
60595,45584
60673,45512
60773,45442
60882,45362
60941,45274
60963,45154
60964,45096
60944,44967
60877,44867
60753,44782
60741,44776
60637,44747
60505,44743
60381,44763
60339,44779
60275,44830
60274,44895
60292,44931
60331,44957
60402,44943
60411,44939
60506,44913
60577,44905
60655,44930
60733,44992
60787,45067
60797,45109
60774,45166
60718,45234
60653,45288
60610,45305
60567,45327
60503,45382
60487,45398
60411,45517
60393,45640
60427,45758
60507,45860
60626,45934
60778,45970
60822,45971
60951,45955
Z" /> 
<path style="fill:#000000; fill-opacity:1.0; 
stroke:#000000; stroke-width:3.93701; stroke-opacity:1; 
stroke-linecap:round; stroke-linejoin:round;fill-rule:evenodd;"
d="M 61755,45615
61831,45571
61878,45483
61899,45355
61891,45209
61857,45066
61830,45004
61729,44874
61589,44784
61428,44743
61360,44744
61231,44756
61210,44597
61194,44501
61171,44454
61128,44439
61093,44438
61025,44443
60997,44456
61003,44493
61020,44583
61045,44712
61075,44867
61078,44881
61097,44980
61284,44980
61289,44925
61291,44922
61344,44906
61428,44909
61512,44930
61533,44939
61595,44998
61658,45096
61708,45207
61730,45304
61731,45313
61707,45410
61647,45462
61566,45467
61477,45423
61421,45363
61376,45283
61334,45179
61301,45071
61284,44980
61097,44980
61112,45056
61144,45224
61170,45366
61186,45455
61208,45557
61237,45610
61283,45631
61294,45633
61366,45625
61401,45600
61433,45573
61469,45597
61544,45632
61649,45637
61755,45615
Z" /> 
<path style="fill:#000000; fill-opacity:1.0; 
stroke:#000000; stroke-width:3.93701; stroke-opacity:1; 
stroke-linecap:round; stroke-linejoin:round;fill-rule:evenodd;"
d="M 60286,34210
60282,34190
60264,34188
60237,34200
60242,34210
60281,34214
60286,34210
Z" /> 
<path style="fill:#000000; fill-opacity:1.0; 
stroke:#000000; stroke-width:3.93701; stroke-opacity:1; 
stroke-linecap:round; stroke-linejoin:round;fill-rule:evenodd;"
d="M 58486,33910
58482,33890
58464,33888
58437,33900
58442,33910
58481,33914
58486,33910
Z" /> 
<path style="fill:#000000; fill-opacity:1.0; 
stroke:#000000; stroke-width:3.93701; stroke-opacity:1; 
stroke-linecap:round; stroke-linejoin:round;fill-rule:evenodd;"
d="M 56551,35755
56593,35735
56679,35696
56742,35674
56752,35672
56834,35650
56907,35602
56950,35544
56952,35514
56961,35443
56988,35402
57070,35364
57183,35373
57315,35426
57452,35518
57471,35534
57554,35609
57612,35667
57631,35695
57660,35718
57733,35737
57825,35748
57912,35747
57947,35741
58019,35709
58101,35653
58178,35588
58231,35527
58246,35486
58245,35484
58202,35468
58125,35472
58120,35472
58017,35476
57931,35459
57905,35443
57926,35433
57999,35427
58132,35424
58158,35424
58305,35423
58404,35429
58472,35444
58530,35475
58595,35524
58612,35538
58706,35608
58787,35642
58887,35652
58934,35651
59030,35648
59065,35640
59045,35626
59031,35621
58977,35603
58983,35595
59049,35591
59140,35576
59212,35543
59251,35502
59242,35464
59236,35460
59217,35434
59259,35413
59270,35410
59385,35390
59475,35393
59526,35419
59531,35436
59553,35497
59581,35534
59610,35583
59598,35605
59565,35651
59564,35662
59584,35671
59625,35643
59682,35601
59713,35588
59758,35561
59803,35497
59829,35426
59830,35413
59846,35364
59863,35355
59953,35348
60092,35330
60266,35303
60458,35270
60654,35233
60839,35196
60996,35161
61022,35154
61373,35052
61660,34940
61882,34817
62039,34683
62133,34538
62164,34381
62141,34250
62068,34123
61942,33996
61759,33867
61514,33730
61492,33719
61352,33653
61191,33585
61021,33519
60853,33459
60700,33409
60574,33372
60485,33354
60445,33358
60445,33359
60434,33379
60438,33397
60466,33417
60527,33443
60632,33481
60789,33535
60799,33539
61089,33647
61357,33764
61592,33884
61782,34001
61914,34107
62000,34196
62045,34265
62062,34339
62064,34391
62055,34490
62017,34566
61946,34641
61791,34756
61577,34866
61312,34968
61004,35060
60660,35140
60293,35203
60105,35231
59973,35248
59886,35248
59833,35228
59803,35181
59785,35103
59769,34990
59766,34963
59741,34813
59713,34673
59687,34568
59681,34547
59657,34466
59661,34425
59696,34405
59701,34404
59766,34399
59870,34407
59952,34420
60080,34441
60160,34450
60188,34446
60157,34430
60131,34422
60122,34412
60171,34408
60268,34410
60328,34414
60470,34421
60553,34418
60586,34406
60584,34393
60589,34362
60634,34355
60691,34350
60687,34337
60630,34318
60525,34297
60460,34286
60299,34258
60198,34236
60149,34215
60145,34196
60147,34194
60129,34177
60060,34152
59955,34124
59829,34095
59697,34069
59573,34050
59487,34041
59327,34032
59346,34176
59362,34275
59378,34349
59382,34363
59393,34409
59409,34504
59430,34632
59452,34779
59474,34930
59493,35070
59508,35185
59515,35259
59516,35280
59481,35285
59397,35290
59280,35295
59261,35295
59032,35280
58848,35219
58701,35110
58685,35092
58642,35041
58646,35017
58685,35001
58921,34895
59115,34754
59142,34727
59216,34643
59249,34581
59248,34520
59245,34508
59210,34435
59143,34340
59059,34240
58970,34149
58890,34082
58833,34055
58831,34055
58770,34030
58752,34005
58712,33961
58690,33955
58670,33965
58697,33988
58731,34014
58706,34020
58697,34020
58626,34003
58597,33988
58566,33962
58593,33955
58595,33955
58626,33944
58622,33935
58572,33927
58491,33952
58399,33999
58315,34059
58282,34093
58245,34144
58775,34144
58780,34124
58797,34121
58825,34134
58820,34144
58780,34148
58775,34144
58245,34144
58214,34187
58206,34226
58973,34226
58997,34242
59002,34246
59028,34290
59024,34306
59000,34296
58983,34265
58973,34226
58206,34226
58201,34248
58246,34280
58339,34288
58463,34305
58664,34305
58681,34288
58697,34305
58681,34321
58664,34305
58463,34305
58479,34307
58622,34356
58753,34426
58857,34508
58920,34594
58931,34643
58901,34679
58821,34718
58711,34754
58586,34781
58464,34794
58442,34795
58376,34818
58294,34876
58264,34904
58159,35013
58208,35110
58514,35110
58524,35104
58580,35137
58684,35209
58711,35228
58781,35282
58817,35315
58817,35321
58754,35301
58668,35252
58585,35189
58547,35152
58514,35110
58208,35110
58228,35149
58270,35234
58294,35292
58297,35303
58266,35311
58183,35317
58062,35321
57979,35321
57830,35320
57731,35315
57667,35301
57622,35275
57578,35233
57575,35230
57454,35062
57388,34877
57382,34696
57402,34561
57423,34479
57450,34437
57492,34423
57522,34421
57624,34445
57749,34506
57873,34591
57975,34689
57981,34696
58026,34746
58041,34751
58035,34734
57976,34654
57882,34562
57776,34478
57681,34422
57672,34418
57617,34390
57605,34370
57653,34365
57735,34399
57837,34465
57944,34554
57972,34580
58067,34666
58129,34704
58166,34699
58167,34698
58190,34634
58153,34546
58056,34431
58010,34388
57934,34313
57884,34257
57874,34234
57906,34244
57978,34283
58064,34338
58146,34390
58193,34412
58195,34401
58194,34400
58112,34324
57998,34250
57878,34189
57775,34157
57749,34154
57685,34149
57682,34133
57697,34121
57715,34100
57675,34090
57626,34089
57511,34109
57406,34180
57401,34185
57338,34237
57302,34257
57297,34253
57321,34212
57331,34205
57362,34163
57358,34121
57324,34106
57315,34109
57263,34152
57203,34231
57154,34318
57131,34388
57131,34392
57139,34419
57166,34388
57191,34360
57191,34391
57189,34405
57161,34454
57133,34462
57113,34471
57102,34516
57098,34606
57102,34751
57103,34789
57112,34933
57124,35051
57139,35128
57149,35148
57179,35198
57186,35231
57179,35268
57139,35278
57069,35268
56941,35231
56875,35176
56864,35134
56843,35092
56827,35088
56804,35112
56808,35135
56798,35175
56740,35198
56650,35204
56542,35194
56433,35172
56338,35137
56273,35091
56264,35080
56201,34999
56139,34934
56085,34876
56065,34837
56081,34830
56103,34842
56127,34844
56116,34802
56085,34718
56073,34680
56037,34630
56010,34621
55971,34594
55965,34563
55971,34526
55993,34549
56007,34547
56010,34489
56005,34424
56001,34329
56007,34267
56015,34255
56056,34270
56137,34309
56243,34366
56257,34373
56369,34431
56448,34465
56487,34475
56479,34458
56420,34416
56374,34387
56301,34336
56283,34303
56292,34296
56348,34304
56422,34343
56427,34347
56503,34396
56604,34455
56712,34512
56808,34558
56874,34585
56888,34587
56886,34573
56855,34552
56815,34512
56814,34488
56798,34456
56737,34401
56646,34332
56633,34323
56531,34250
56450,34186
56408,34144
56407,34143
56329,34070
56212,34035
56075,34037
55935,34075
55808,34150
55801,34155
55733,34221
55698,34285
55685,34377
55683,34421
55931,34421
55943,34394
55953,34399
55957,34439
55953,34444
55933,34439
55931,34421
55683,34421
55682,34430
55685,34561
55701,34689
55725,34798
55729,34808
55767,34808
55773,34764
55784,34764
55792,34808
55787,34828
55772,34840
55767,34808
55729,34808
55755,34871
55781,34893
55814,34918
55845,34975
55858,35028
55853,35043
55818,35039
55736,35018
55622,34984
55582,34971
55273,34857
55020,34737
54826,34612
54692,34484
54620,34355
54613,34225
54614,34221
54669,34110
54784,33993
54950,33874
55162,33758
55413,33649
55579,33589
55702,33543
55798,33499
55852,33464
55858,33456
55843,33430
55773,33432
55654,33460
55492,33513
55336,33573
55110,33670
54935,33760
54798,33851
54685,33952
54653,33986
54579,34077
54543,34155
54531,34252
54531,34289
54535,34385
54555,34456
54603,34524
54683,34609
54833,34730
55035,34850
55275,34963
55539,35060
55636,35089
55775,35134
55863,35175
55913,35219
55927,35243
55966,35312
55978,35330
56439,35330
56455,35297
56514,35288
56579,35301
56589,35330
56548,35365
56514,35371
56456,35352
56439,35330
55978,35330
56030,35410
56098,35505
56164,35600
56209,35674
56223,35710
56242,35710
56246,35690
56264,35688
56292,35700
56286,35710
56247,35714
56242,35710
56223,35710
56223,35711
56223,35711
56246,35733
56314,35759
56343,35766
56453,35780
56551,35755
Z" /> 
<path style="fill:#000000; fill-opacity:1.0; 
stroke:#000000; stroke-width:3.93701; stroke-opacity:1; 
stroke-linecap:round; stroke-linejoin:round;fill-rule:evenodd;"
d="M 60307,33559
60301,33487
60297,33469
60272,33380
60249,33333
60235,33333
60238,33387
60243,33417
60257,33502
60264,33556
60264,33559
60289,33588
60294,33588
60307,33559
Z" /> 
<path style="fill:#000000; fill-opacity:1.0; 
stroke:#000000; stroke-width:3.93701; stroke-opacity:1; 
stroke-linecap:round; stroke-linejoin:round;fill-rule:evenodd;"
d="M 60253,33244
60248,33224
60231,33221
60203,33234
60209,33244
60248,33248
60253,33244
Z" /> 
<path style="fill:#000000; fill-opacity:1.0; 
stroke:#000000; stroke-width:3.93701; stroke-opacity:1; 
stroke-linecap:round; stroke-linejoin:round;fill-rule:evenodd;"
d="M 59953,33443
59940,33433
59915,33389
59920,33319
59925,33251
59910,33221
59910,33221
59889,33251
59874,33323
59872,33338
59874,33418
59898,33450
59922,33452
59953,33443
Z" /> 
<path style="fill:#000000; fill-opacity:1.0; 
stroke:#000000; stroke-width:3.93701; stroke-opacity:1; 
stroke-linecap:round; stroke-linejoin:round;fill-rule:evenodd;"
d="M 59727,33441
59758,33404
59771,33336
59771,33252
59745,33222
59738,33221
59709,33240
59710,33303
59715,33325
59724,33397
59707,33417
59693,33414
59643,33375
59611,33327
59567,33252
59541,33229
59536,33260
59542,33288
59558,33366
59564,33408
59593,33435
59661,33447
59727,33441
Z" /> 
<path style="fill:#000000; fill-opacity:1.0; 
stroke:#000000; stroke-width:3.93701; stroke-opacity:1; 
stroke-linecap:round; stroke-linejoin:round;fill-rule:evenodd;"
d="M 59454,33438
59477,33402
59478,33320
59430,33252
59352,33222
59346,33221
59283,33236
59264,33291
59264,33298
59271,33326
59303,33326
59306,33269
59346,33259
59353,33260
59405,33299
59425,33350
59422,33407
59382,33417
59375,33416
59323,33377
59303,33326
59271,33326
59285,33379
59336,33435
59398,33458
59454,33438
Z" /> 
<path style="fill:#000000; fill-opacity:1.0; 
stroke:#000000; stroke-width:3.93701; stroke-opacity:1; 
stroke-linecap:round; stroke-linejoin:round;fill-rule:evenodd;"
d="M 59169,33424
59180,33366
59177,33297
59161,33243
59156,33235
59135,33242
59126,33283
59120,33359
59117,33394
59137,33438
59147,33444
59169,33424
Z" /> 
<path style="fill:#000000; fill-opacity:1.0; 
stroke:#000000; stroke-width:3.93701; stroke-opacity:1; 
stroke-linecap:round; stroke-linejoin:round;fill-rule:evenodd;"
d="M 59097,33238
59081,33221
59064,33238
59081,33255
59097,33238
Z" /> 
<path style="fill:#000000; fill-opacity:1.0; 
stroke:#000000; stroke-width:3.93701; stroke-opacity:1; 
stroke-linecap:round; stroke-linejoin:round;fill-rule:evenodd;"
d="M 59008,33447
59027,33409
59025,33346
59007,33269
58963,33235
58922,33228
58841,33236
58811,33267
58811,33326
58870,33326
58873,33269
58913,33259
58920,33260
58972,33299
58992,33350
58989,33407
58949,33417
58942,33416
58889,33377
58870,33326
58811,33326
58811,33347
58858,33417
58935,33454
58951,33455
59008,33447
Z" /> 
<path style="fill:#000000; fill-opacity:1.0; 
stroke:#000000; stroke-width:3.93701; stroke-opacity:1; 
stroke-linecap:round; stroke-linejoin:round;fill-rule:evenodd;"
d="M 58310,33432
58302,33331
58309,33277
58337,33254
58370,33245
58408,33235
58385,33229
58339,33226
58262,33231
58234,33262
58233,33280
58246,33347
58273,33444
58282,33471
58328,33605
58310,33432
Z" /> 
<path style="fill:#000000; fill-opacity:1.0; 
stroke:#000000; stroke-width:3.93701; stroke-opacity:1; 
stroke-linecap:round; stroke-linejoin:round;fill-rule:evenodd;"
d="M 58186,33610
58173,33589
58133,33572
58074,33530
58074,33470
58116,33420
58161,33351
58149,33285
58088,33240
58047,33233
57993,33232
58005,33240
58022,33243
58079,33281
58099,33342
58074,33397
58064,33405
58032,33457
58043,33526
58091,33584
58100,33590
58160,33612
58186,33610
Z" /> 
<path style="fill:#000000; fill-opacity:1.0; 
stroke:#000000; stroke-width:3.93701; stroke-opacity:1; 
stroke-linecap:round; stroke-linejoin:round;fill-rule:evenodd;"
d="M 57928,33610
57939,33596
57890,33576
57874,33572
57757,33522
57686,33443
57670,33349
57687,33297
57733,33277
57805,33275
57880,33271
57912,33256
57911,33250
57869,33232
57788,33222
57763,33221
57675,33228
57631,33256
57611,33305
57617,33406
57671,33502
57758,33577
57860,33614
57928,33610
Z" /> 
<path style="fill:#000000; fill-opacity:1.0; 
stroke:#000000; stroke-width:3.93701; stroke-opacity:1; 
stroke-linecap:round; stroke-linejoin:round;fill-rule:evenodd;"
d="M 57567,33611
57535,33590
57470,33565
57365,33511
57296,33441
57263,33370
57270,33308
57319,33269
57412,33265
57415,33265
57490,33271
57515,33257
57513,33253
57469,33232
57390,33222
57309,33225
57255,33242
57253,33244
57234,33298
57233,33383
57250,33467
57251,33470
57303,33531
57393,33584
57493,33616
57537,33619
57567,33611
Z" /> 
<path style="fill:#000000; fill-opacity:1.0; 
stroke:#000000; stroke-width:3.93701; stroke-opacity:1; 
stroke-linecap:round; stroke-linejoin:round;fill-rule:evenodd;"
d="M 57023,33446
57009,33438
56981,33430
56904,33392
56868,33335
56877,33281
56935,33246
56939,33245
56984,33234
56968,33229
56924,33226
56850,33234
56813,33256
56812,33313
56851,33379
56912,33432
56973,33451
57023,33446
Z" /> 
<path style="fill:#000000; fill-opacity:1.0; 
stroke:#000000; stroke-width:3.93701; stroke-opacity:1; 
stroke-linecap:round; stroke-linejoin:round;fill-rule:evenodd;"
d="M 56747,33254
56712,33227
56673,33222
56664,33235
56690,33256
56716,33267
56750,33270
56747,33254
Z" /> 
<path style="fill:#000000; fill-opacity:1.0; 
stroke:#000000; stroke-width:3.93701; stroke-opacity:1; 
stroke-linecap:round; stroke-linejoin:round;fill-rule:evenodd;"
d="M 56753,33444
56763,33397
56730,33348
56671,33322
56662,33321
56610,33307
56609,33271
56612,33228
56600,33221
56564,33248
56552,33271
56546,33347
56552,33372
56568,33388
56614,33388
56624,33362
56662,33355
56717,33368
56731,33388
56704,33418
56683,33421
56626,33401
56614,33388
56568,33388
56593,33414
56663,33445
56729,33453
56753,33444
Z" /> 
<path style="fill:#000000; fill-opacity:1.0; 
stroke:#000000; stroke-width:3.93701; stroke-opacity:1; 
stroke-linecap:round; stroke-linejoin:round;fill-rule:evenodd;"
d="M 56349,33434
56368,33388
56401,33305
56465,33388
56509,33436
56530,33441
56530,33438
56511,33392
56464,33322
56453,33308
56401,33248
56372,33238
56353,33269
56335,33351
56333,33399
56337,33445
56349,33434
Z" /> 
<path style="fill:#000000; fill-opacity:1.0; 
stroke:#000000; stroke-width:3.93701; stroke-opacity:1; 
stroke-linecap:round; stroke-linejoin:round;fill-rule:evenodd;"
d="M 56204,33568
56228,33487
56246,33376
56256,33276
56247,33235
56233,33236
56200,33286
56197,33307
56175,33348
56121,33351
56058,33319
56020,33280
55982,33235
55966,33234
55980,33276
56020,33357
56066,33441
56111,33441
56114,33396
56144,33388
56190,33412
56197,33436
56177,33493
56164,33505
56133,33514
56131,33509
56120,33468
56111,33441
56066,33441
56069,33446
56130,33545
56173,33587
56204,33568
Z" /> 
<path style="fill:#000000; fill-opacity:1.0; 
stroke:#000000; stroke-width:3.93701; stroke-opacity:1; 
stroke-linecap:round; stroke-linejoin:round;fill-rule:evenodd;"
d="M 58549,33230
58543,33205
58511,33161
58495,33155
58480,33179
58485,33205
58517,33249
58533,33255
58549,33230
Z" /> 
<g >
</g>
</g> 
</svg>
