<?xml version="1.0" standalone="no"?>
 <!DOCTYPE svg PUBLIC "-//W3C//DTD SVG 1.1//EN" 
 "http://www.w3.org/Graphics/SVG/1.1/DTD/svg11.dtd"> 
<svg xmlns="http://www.w3.org/2000/svg" version="1.1" 
    width="29.7002cm" height="21.0007cm" viewBox="0 0 116930 82680 ">
<title>SVG Picture created as FrogINT_PCBProto_V1811062154-F_Paste.svg date 2019/04/02 16:53:05 </title>
  <desc>Picture generated by PCBNEW </desc>
<g style="fill:#000000; fill-opacity:1;stroke:#000000; stroke-opacity:1;
stroke-linecap:round; stroke-linejoin:round; "
 transform="translate(0 0) scale(1 1)">
</g>
<g style="fill:#000000; fill-opacity:0.0; 
stroke:#000000; stroke-width:-0.000393701; stroke-opacity:1; 
stroke-linecap:round; stroke-linejoin:round;">
<g >
</g>
<g >
</g>
<g >
</g>
<g style="fill:#000000; fill-opacity:0.0; 
stroke:#000000; stroke-width:551.181; stroke-opacity:1; 
stroke-linecap:round; stroke-linejoin:round;">
<path d="M65176 41238
L65766 41238
" />
<path d="M65176 41986
L65766 41986
" />
<path d="M66562 41986
L67152 41986
" />
<path d="M66562 41238
L67152 41238
" />
<path d="M66562 40490
L67152 40490
" />
<path d="M65176 40490
L65766 40490
" />
</g>
<g >
<path d="M60476 34738
L61066 34738
" />
<path d="M60476 35486
L61066 35486
" />
<path d="M61862 35486
L62452 35486
" />
<path d="M61862 34738
L62452 34738
" />
<path d="M61862 33990
L62452 33990
" />
<path d="M60476 33990
L61066 33990
" />
</g>
<g >
<path d="M52276 36438
L52866 36438
" />
<path d="M52276 37186
L52866 37186
" />
<path d="M53662 37186
L54252 37186
" />
<path d="M53662 36438
L54252 36438
" />
<path d="M53662 35690
L54252 35690
" />
<path d="M52276 35690
L52866 35690
" />
</g>
<g >
</g>
<g style="fill:#000000; fill-opacity:0.0; 
stroke:#000000; stroke-width:0; stroke-opacity:1; 
stroke-linecap:round; stroke-linejoin:round;">
</g>
<g style="fill:#000000; fill-opacity:1.0; 
stroke:#000000; stroke-width:0; stroke-opacity:1; 
stroke-linecap:round; stroke-linejoin:round;">
<path style="fill:#000000; fill-opacity:1.0; 
stroke:#000000; stroke-width:0; stroke-opacity:1; 
stroke-linecap:round; stroke-linejoin:round;fill-rule:evenodd;"
d="M 55589,47376
56939,47376
56939,47711
55589,47711
55589,47376
Z" /> 
<path style="fill:#000000; fill-opacity:1.0; 
stroke:#000000; stroke-width:0; stroke-opacity:1; 
stroke-linecap:round; stroke-linejoin:round;fill-rule:evenodd;"
d="M 55589,45565
56939,45565
56939,45900
55589,45900
55589,45565
Z" /> 
</g>
<g >
<path style="fill:#000000; fill-opacity:1.0; 
stroke:#000000; stroke-width:0; stroke-opacity:1; 
stroke-linecap:round; stroke-linejoin:round;fill-rule:evenodd;"
d="M 58887,48574
58887,48141
59064,48141
59064,48574
58887,48574
Z" /> 
<path style="fill:#000000; fill-opacity:1.0; 
stroke:#000000; stroke-width:0; stroke-opacity:1; 
stroke-linecap:round; stroke-linejoin:round;fill-rule:evenodd;"
d="M 58631,48574
58631,48141
58809,48141
58809,48574
58631,48574
Z" /> 
<path style="fill:#000000; fill-opacity:1.0; 
stroke:#000000; stroke-width:0; stroke-opacity:1; 
stroke-linecap:round; stroke-linejoin:round;fill-rule:evenodd;"
d="M 58375,48574
58375,48141
58553,48141
58553,48574
58375,48574
Z" /> 
<path style="fill:#000000; fill-opacity:1.0; 
stroke:#000000; stroke-width:0; stroke-opacity:1; 
stroke-linecap:round; stroke-linejoin:round;fill-rule:evenodd;"
d="M 58120,48574
58120,48141
58297,48141
58297,48574
58120,48574
Z" /> 
<path style="fill:#000000; fill-opacity:1.0; 
stroke:#000000; stroke-width:0; stroke-opacity:1; 
stroke-linecap:round; stroke-linejoin:round;fill-rule:evenodd;"
d="M 57864,48574
57864,48141
58041,48141
58041,48574
57864,48574
Z" /> 
</g>
<g >
<path style="fill:#000000; fill-opacity:1.0; 
stroke:#000000; stroke-width:0; stroke-opacity:1; 
stroke-linecap:round; stroke-linejoin:round;fill-rule:evenodd;"
d="M 61780,41350
61780,40670
62607,40670
62607,41350
61780,41350
Z" /> 
<path style="fill:#000000; fill-opacity:1.0; 
stroke:#000000; stroke-width:0; stroke-opacity:1; 
stroke-linecap:round; stroke-linejoin:round;fill-rule:evenodd;"
d="M 62922,41350
62922,40670
63748,40670
63748,41350
62922,41350
Z" /> 
<path style="fill:#000000; fill-opacity:1.0; 
stroke:#000000; stroke-width:0; stroke-opacity:1; 
stroke-linecap:round; stroke-linejoin:round;fill-rule:evenodd;"
d="M 62922,42206
62922,41527
63748,41527
63748,42206
62922,42206
Z" /> 
<path style="fill:#000000; fill-opacity:1.0; 
stroke:#000000; stroke-width:0; stroke-opacity:1; 
stroke-linecap:round; stroke-linejoin:round;fill-rule:evenodd;"
d="M 61780,42206
61780,41527
62607,41527
62607,42206
61780,42206
Z" /> 
</g>
<g >
<path style="fill:#000000; fill-opacity:1.0; 
stroke:#000000; stroke-width:0; stroke-opacity:1; 
stroke-linecap:round; stroke-linejoin:round;fill-rule:evenodd;"
d="M 54582,46468
54592,46469
54601,46471
54610,46475
54619,46479
54627,46484
54635,46490
54642,46496
54648,46503
54654,46511
54659,46519
54663,46528
54667,46537
54669,46546
54670,46556
54671,46566
54671,46812
54670,46821
54669,46831
54667,46840
54663,46849
54659,46858
54654,46866
54648,46874
54642,46881
54635,46888
54627,46894
54619,46899
54610,46903
54601,46906
54592,46908
54582,46910
54572,46910
54356,46910
54346,46910
54337,46908
54327,46906
54318,46903
54309,46899
54301,46894
54293,46888
54286,46881
54280,46874
54274,46866
54269,46858
54265,46849
54262,46840
54259,46831
54258,46821
54257,46812
54257,46566
54258,46556
54259,46546
54262,46537
54265,46528
54269,46519
54274,46511
54280,46503
54286,46496
54293,46490
54301,46484
54309,46479
54318,46475
54327,46471
54337,46469
54346,46468
54356,46467
54572,46467
54582,46468
Z" /> 
<path style="fill:#000000; fill-opacity:1.0; 
stroke:#000000; stroke-width:0; stroke-opacity:1; 
stroke-linecap:round; stroke-linejoin:round;fill-rule:evenodd;"
d="M 54582,47167
54592,47168
54601,47170
54610,47174
54619,47178
54627,47183
54635,47188
54642,47195
54648,47202
54654,47210
54659,47218
54663,47227
54667,47236
54669,47245
54670,47255
54671,47264
54671,47511
54670,47520
54669,47530
54667,47539
54663,47548
54659,47557
54654,47565
54648,47573
54642,47580
54635,47587
54627,47592
54619,47597
54610,47601
54601,47605
54592,47607
54582,47608
54572,47609
54356,47609
54346,47608
54337,47607
54327,47605
54318,47601
54309,47597
54301,47592
54293,47587
54286,47580
54280,47573
54274,47565
54269,47557
54265,47548
54262,47539
54259,47530
54258,47520
54257,47511
54257,47264
54258,47255
54259,47245
54262,47236
54265,47227
54269,47218
54274,47210
54280,47202
54286,47195
54293,47188
54301,47183
54309,47178
54318,47174
54327,47170
54337,47168
54346,47167
54356,47166
54572,47166
54582,47167
Z" /> 
</g>
<g >
<path style="fill:#000000; fill-opacity:1.0; 
stroke:#000000; stroke-width:0; stroke-opacity:1; 
stroke-linecap:round; stroke-linejoin:round;fill-rule:evenodd;"
d="M 57982,37767
57992,37768
58001,37770
58010,37774
58019,37778
58027,37783
58035,37788
58042,37795
58048,37802
58054,37810
58059,37818
58063,37827
58067,37836
58069,37845
58070,37855
58071,37864
58071,38111
58070,38120
58069,38130
58067,38139
58063,38148
58059,38157
58054,38165
58048,38173
58042,38180
58035,38187
58027,38192
58019,38197
58010,38201
58001,38205
57992,38207
57982,38208
57972,38209
57756,38209
57746,38208
57737,38207
57727,38205
57718,38201
57709,38197
57701,38192
57693,38187
57686,38180
57680,38173
57674,38165
57669,38157
57665,38148
57662,38139
57659,38130
57658,38120
57657,38111
57657,37864
57658,37855
57659,37845
57662,37836
57665,37827
57669,37818
57674,37810
57680,37802
57686,37795
57693,37788
57701,37783
57709,37778
57718,37774
57727,37770
57737,37768
57746,37767
57756,37766
57972,37766
57982,37767
Z" /> 
<path style="fill:#000000; fill-opacity:1.0; 
stroke:#000000; stroke-width:0; stroke-opacity:1; 
stroke-linecap:round; stroke-linejoin:round;fill-rule:evenodd;"
d="M 57982,37068
57992,37069
58001,37071
58010,37075
58019,37079
58027,37084
58035,37090
58042,37096
58048,37103
58054,37111
58059,37119
58063,37128
58067,37137
58069,37146
58070,37156
58071,37166
58071,37412
58070,37421
58069,37431
58067,37440
58063,37449
58059,37458
58054,37466
58048,37474
58042,37481
58035,37488
58027,37494
58019,37499
58010,37503
58001,37506
57992,37508
57982,37510
57972,37510
57756,37510
57746,37510
57737,37508
57727,37506
57718,37503
57709,37499
57701,37494
57693,37488
57686,37481
57680,37474
57674,37466
57669,37458
57665,37449
57662,37440
57659,37431
57658,37421
57657,37412
57657,37166
57658,37156
57659,37146
57662,37137
57665,37128
57669,37119
57674,37111
57680,37103
57686,37096
57693,37090
57701,37084
57709,37079
57718,37075
57727,37071
57737,37069
57746,37068
57756,37067
57972,37067
57982,37068
Z" /> 
</g>
<g >
<path style="fill:#000000; fill-opacity:1.0; 
stroke:#000000; stroke-width:0; stroke-opacity:1; 
stroke-linecap:round; stroke-linejoin:round;fill-rule:evenodd;"
d="M 60882,40068
60892,40069
60901,40071
60910,40075
60919,40079
60927,40084
60935,40090
60942,40096
60948,40103
60954,40111
60959,40119
60963,40128
60967,40137
60969,40146
60970,40156
60971,40166
60971,40412
60970,40421
60969,40431
60967,40440
60963,40449
60959,40458
60954,40466
60948,40474
60942,40481
60935,40488
60927,40494
60919,40499
60910,40503
60901,40506
60892,40508
60882,40510
60872,40510
60656,40510
60646,40510
60637,40508
60627,40506
60618,40503
60609,40499
60601,40494
60593,40488
60586,40481
60580,40474
60574,40466
60569,40458
60565,40449
60562,40440
60559,40431
60558,40421
60557,40412
60557,40166
60558,40156
60559,40146
60562,40137
60565,40128
60569,40119
60574,40111
60580,40103
60586,40096
60593,40090
60601,40084
60609,40079
60618,40075
60627,40071
60637,40069
60646,40068
60656,40067
60872,40067
60882,40068
Z" /> 
<path style="fill:#000000; fill-opacity:1.0; 
stroke:#000000; stroke-width:0; stroke-opacity:1; 
stroke-linecap:round; stroke-linejoin:round;fill-rule:evenodd;"
d="M 60882,40767
60892,40768
60901,40770
60910,40774
60919,40778
60927,40783
60935,40788
60942,40795
60948,40802
60954,40810
60959,40818
60963,40827
60967,40836
60969,40845
60970,40855
60971,40864
60971,41111
60970,41120
60969,41130
60967,41139
60963,41148
60959,41157
60954,41165
60948,41173
60942,41180
60935,41187
60927,41192
60919,41197
60910,41201
60901,41205
60892,41207
60882,41208
60872,41209
60656,41209
60646,41208
60637,41207
60627,41205
60618,41201
60609,41197
60601,41192
60593,41187
60586,41180
60580,41173
60574,41165
60569,41157
60565,41148
60562,41139
60559,41130
60558,41120
60557,41111
60557,40864
60558,40855
60559,40845
60562,40836
60565,40827
60569,40818
60574,40810
60580,40802
60586,40795
60593,40788
60601,40783
60609,40778
60618,40774
60627,40770
60637,40768
60646,40767
60656,40766
60872,40766
60882,40767
Z" /> 
</g>
<g >
<path style="fill:#000000; fill-opacity:1.0; 
stroke:#000000; stroke-width:0; stroke-opacity:1; 
stroke-linecap:round; stroke-linejoin:round;fill-rule:evenodd;"
d="M 60882,42367
60892,42368
60901,42370
60910,42374
60919,42378
60927,42383
60935,42388
60942,42395
60948,42402
60954,42410
60959,42418
60963,42427
60967,42436
60969,42445
60970,42455
60971,42464
60971,42711
60970,42720
60969,42730
60967,42739
60963,42748
60959,42757
60954,42765
60948,42773
60942,42780
60935,42787
60927,42792
60919,42797
60910,42801
60901,42805
60892,42807
60882,42808
60872,42809
60656,42809
60646,42808
60637,42807
60627,42805
60618,42801
60609,42797
60601,42792
60593,42787
60586,42780
60580,42773
60574,42765
60569,42757
60565,42748
60562,42739
60559,42730
60558,42720
60557,42711
60557,42464
60558,42455
60559,42445
60562,42436
60565,42427
60569,42418
60574,42410
60580,42402
60586,42395
60593,42388
60601,42383
60609,42378
60618,42374
60627,42370
60637,42368
60646,42367
60656,42366
60872,42366
60882,42367
Z" /> 
<path style="fill:#000000; fill-opacity:1.0; 
stroke:#000000; stroke-width:0; stroke-opacity:1; 
stroke-linecap:round; stroke-linejoin:round;fill-rule:evenodd;"
d="M 60882,41668
60892,41669
60901,41671
60910,41675
60919,41679
60927,41684
60935,41690
60942,41696
60948,41703
60954,41711
60959,41719
60963,41728
60967,41737
60969,41746
60970,41756
60971,41766
60971,42012
60970,42021
60969,42031
60967,42040
60963,42049
60959,42058
60954,42066
60948,42074
60942,42081
60935,42088
60927,42094
60919,42099
60910,42103
60901,42106
60892,42108
60882,42110
60872,42110
60656,42110
60646,42110
60637,42108
60627,42106
60618,42103
60609,42099
60601,42094
60593,42088
60586,42081
60580,42074
60574,42066
60569,42058
60565,42049
60562,42040
60559,42031
60558,42021
60557,42012
60557,41766
60558,41756
60559,41746
60562,41737
60565,41728
60569,41719
60574,41711
60580,41703
60586,41696
60593,41690
60601,41684
60609,41679
60618,41675
60627,41671
60637,41669
60646,41668
60656,41667
60872,41667
60882,41668
Z" /> 
</g>
<g >
<path style="fill:#000000; fill-opacity:1.0; 
stroke:#000000; stroke-width:0; stroke-opacity:1; 
stroke-linecap:round; stroke-linejoin:round;fill-rule:evenodd;"
d="M 63696,46382
63706,46383
63715,46386
63724,46389
63733,46393
63741,46398
63749,46404
63756,46410
63763,46417
63768,46425
63773,46433
63777,46442
63781,46451
63783,46461
63784,46470
63785,46480
63785,46696
63784,46706
63783,46716
63781,46725
63777,46734
63773,46743
63768,46751
63763,46759
63756,46766
63749,46772
63741,46778
63733,46783
63724,46787
63715,46791
63706,46793
63696,46794
63687,46795
63440,46795
63431,46794
63421,46793
63412,46791
63403,46787
63394,46783
63386,46778
63378,46772
63371,46766
63364,46759
63359,46751
63354,46743
63350,46734
63346,46725
63344,46716
63342,46706
63342,46696
63342,46480
63342,46470
63344,46461
63346,46451
63350,46442
63354,46433
63359,46425
63364,46417
63371,46410
63378,46404
63386,46398
63394,46393
63403,46389
63412,46386
63421,46383
63431,46382
63440,46381
63687,46381
63696,46382
Z" /> 
<path style="fill:#000000; fill-opacity:1.0; 
stroke:#000000; stroke-width:0; stroke-opacity:1; 
stroke-linecap:round; stroke-linejoin:round;fill-rule:evenodd;"
d="M 62997,46382
63007,46383
63016,46386
63025,46389
63034,46393
63042,46398
63050,46404
63057,46410
63064,46417
63070,46425
63074,46433
63079,46442
63082,46451
63084,46461
63086,46470
63086,46480
63086,46696
63086,46706
63084,46716
63082,46725
63079,46734
63074,46743
63070,46751
63064,46759
63057,46766
63050,46772
63042,46778
63034,46783
63025,46787
63016,46791
63007,46793
62997,46794
62988,46795
62742,46795
62732,46794
62722,46793
62713,46791
62704,46787
62695,46783
62687,46778
62679,46772
62672,46766
62666,46759
62660,46751
62655,46743
62651,46734
62647,46725
62645,46716
62644,46706
62643,46696
62643,46480
62644,46470
62645,46461
62647,46451
62651,46442
62655,46433
62660,46425
62666,46417
62672,46410
62679,46404
62687,46398
62695,46393
62704,46389
62713,46386
62722,46383
62732,46382
62742,46381
62988,46381
62997,46382
Z" /> 
</g>
<g >
</g>
<g >
</g>
<g >
</g>
<g >
<path style="fill:#000000; fill-opacity:1.0; 
stroke:#000000; stroke-width:0; stroke-opacity:1; 
stroke-linecap:round; stroke-linejoin:round;fill-rule:evenodd;"
d="M 62749,47401
62757,47403
62765,47405
62773,47408
62781,47411
62788,47416
62795,47421
62801,47426
62807,47433
62812,47439
62816,47447
62820,47454
62823,47462
62825,47470
62826,47479
62826,47487
62826,47689
62826,47697
62825,47706
62823,47714
62820,47722
62816,47730
62812,47737
62807,47744
62801,47750
62795,47756
62788,47761
62781,47765
62773,47769
62765,47771
62757,47773
62749,47775
62740,47775
62568,47775
62559,47775
62551,47773
62543,47771
62535,47769
62527,47765
62520,47761
62513,47756
62507,47750
62501,47744
62496,47737
62492,47730
62488,47722
62485,47714
62483,47706
62482,47697
62482,47689
62482,47487
62482,47479
62483,47470
62485,47462
62488,47454
62492,47447
62496,47439
62501,47433
62507,47426
62513,47421
62520,47416
62527,47411
62535,47408
62543,47405
62551,47403
62559,47401
62568,47401
62740,47401
62749,47401
Z" /> 
<path style="fill:#000000; fill-opacity:1.0; 
stroke:#000000; stroke-width:0; stroke-opacity:1; 
stroke-linecap:round; stroke-linejoin:round;fill-rule:evenodd;"
d="M 63369,47401
63377,47403
63385,47405
63393,47408
63401,47411
63408,47416
63415,47421
63421,47426
63427,47433
63432,47439
63436,47447
63440,47454
63443,47462
63445,47470
63446,47479
63446,47487
63446,47689
63446,47697
63445,47706
63443,47714
63440,47722
63436,47730
63432,47737
63427,47744
63421,47750
63415,47756
63408,47761
63401,47765
63393,47769
63385,47771
63377,47773
63369,47775
63360,47775
63188,47775
63180,47775
63171,47773
63163,47771
63155,47769
63147,47765
63140,47761
63133,47756
63127,47750
63121,47744
63116,47737
63112,47730
63108,47722
63106,47714
63104,47706
63102,47697
63102,47689
63102,47487
63102,47479
63104,47470
63106,47462
63108,47454
63112,47447
63116,47439
63121,47433
63127,47426
63133,47421
63140,47416
63147,47411
63155,47408
63163,47405
63171,47403
63180,47401
63188,47401
63360,47401
63369,47401
Z" /> 
</g>
<g >
<path style="fill:#000000; fill-opacity:1.0; 
stroke:#000000; stroke-width:0; stroke-opacity:1; 
stroke-linecap:round; stroke-linejoin:round;fill-rule:evenodd;"
d="M 59073,47166
59082,47167
59090,47169
59098,47172
59106,47176
59113,47180
59120,47185
59126,47191
59132,47197
59137,47204
59141,47211
59145,47219
59147,47227
59149,47235
59151,47243
59151,47252
59151,47424
59151,47432
59149,47441
59147,47449
59145,47457
59141,47465
59137,47472
59132,47479
59126,47485
59120,47491
59113,47496
59106,47500
59098,47504
59090,47506
59082,47508
59073,47510
59065,47510
58863,47510
58855,47510
58846,47508
58838,47506
58830,47504
58823,47500
58815,47496
58809,47491
58802,47485
58797,47479
58792,47472
58787,47465
58784,47457
58781,47449
58779,47441
58777,47432
58777,47424
58777,47252
58777,47243
58779,47235
58781,47227
58784,47219
58787,47211
58792,47204
58797,47197
58802,47191
58809,47185
58815,47180
58823,47176
58830,47172
58838,47169
58846,47167
58855,47166
58863,47166
59065,47166
59073,47166
Z" /> 
<path style="fill:#000000; fill-opacity:1.0; 
stroke:#000000; stroke-width:0; stroke-opacity:1; 
stroke-linecap:round; stroke-linejoin:round;fill-rule:evenodd;"
d="M 59073,46546
59082,46547
59090,46549
59098,46552
59106,46556
59113,46560
59120,46565
59126,46571
59132,46577
59137,46584
59141,46591
59145,46599
59147,46607
59149,46615
59151,46623
59151,46632
59151,46804
59151,46812
59149,46821
59147,46829
59145,46837
59141,46845
59137,46852
59132,46859
59126,46865
59120,46871
59113,46876
59106,46880
59098,46883
59090,46886
59082,46888
59073,46890
59065,46890
58863,46890
58855,46890
58846,46888
58838,46886
58830,46883
58823,46880
58815,46876
58809,46871
58802,46865
58797,46859
58792,46852
58787,46845
58784,46837
58781,46829
58779,46821
58777,46812
58777,46804
58777,46632
58777,46623
58779,46615
58781,46607
58784,46599
58787,46591
58792,46584
58797,46577
58802,46571
58809,46565
58815,46560
58823,46556
58830,46552
58838,46549
58846,46547
58855,46546
58863,46546
59065,46546
59073,46546
Z" /> 
</g>
<g >
<path style="fill:#000000; fill-opacity:1.0; 
stroke:#000000; stroke-width:0; stroke-opacity:1; 
stroke-linecap:round; stroke-linejoin:round;fill-rule:evenodd;"
d="M 58323,47166
58332,47167
58340,47169
58348,47172
58356,47176
58363,47180
58370,47185
58376,47191
58382,47197
58387,47204
58391,47211
58395,47219
58397,47227
58399,47235
58401,47243
58401,47252
58401,47424
58401,47432
58399,47441
58397,47449
58395,47457
58391,47465
58387,47472
58382,47479
58376,47485
58370,47491
58363,47496
58356,47500
58348,47504
58340,47506
58332,47508
58323,47510
58315,47510
58113,47510
58105,47510
58096,47508
58088,47506
58080,47504
58073,47500
58065,47496
58059,47491
58052,47485
58047,47479
58042,47472
58037,47465
58034,47457
58031,47449
58029,47441
58027,47432
58027,47424
58027,47252
58027,47243
58029,47235
58031,47227
58034,47219
58037,47211
58042,47204
58047,47197
58052,47191
58059,47185
58065,47180
58073,47176
58080,47172
58088,47169
58096,47167
58105,47166
58113,47166
58315,47166
58323,47166
Z" /> 
<path style="fill:#000000; fill-opacity:1.0; 
stroke:#000000; stroke-width:0; stroke-opacity:1; 
stroke-linecap:round; stroke-linejoin:round;fill-rule:evenodd;"
d="M 58323,46546
58332,46547
58340,46549
58348,46552
58356,46556
58363,46560
58370,46565
58376,46571
58382,46577
58387,46584
58391,46591
58395,46599
58397,46607
58399,46615
58401,46623
58401,46632
58401,46804
58401,46812
58399,46821
58397,46829
58395,46837
58391,46845
58387,46852
58382,46859
58376,46865
58370,46871
58363,46876
58356,46880
58348,46883
58340,46886
58332,46888
58323,46890
58315,46890
58113,46890
58105,46890
58096,46888
58088,46886
58080,46883
58073,46880
58065,46876
58059,46871
58052,46865
58047,46859
58042,46852
58037,46845
58034,46837
58031,46829
58029,46821
58027,46812
58027,46804
58027,46632
58027,46623
58029,46615
58031,46607
58034,46599
58037,46591
58042,46584
58047,46577
58052,46571
58059,46565
58065,46560
58073,46556
58080,46552
58088,46549
58096,46547
58105,46546
58113,46546
58315,46546
58323,46546
Z" /> 
</g>
<g >
<path style="fill:#000000; fill-opacity:1.0; 
stroke:#000000; stroke-width:0; stroke-opacity:1; 
stroke-linecap:round; stroke-linejoin:round;fill-rule:evenodd;"
d="M 58973,37156
58982,37157
58990,37160
58998,37162
59006,37166
59013,37170
59020,37175
59026,37181
59032,37187
59037,37194
59041,37201
59045,37209
59047,37217
59049,37225
59051,37233
59051,37242
59051,37414
59051,37423
59049,37431
59047,37439
59045,37447
59041,37455
59037,37462
59032,37469
59026,37475
59020,37481
59013,37486
59006,37490
58998,37494
58990,37497
58982,37499
58973,37500
58965,37500
58763,37500
58755,37500
58746,37499
58738,37497
58730,37494
58723,37490
58715,37486
58709,37481
58702,37475
58697,37469
58692,37462
58687,37455
58684,37447
58681,37439
58679,37431
58677,37423
58677,37414
58677,37242
58677,37233
58679,37225
58681,37217
58684,37209
58687,37201
58692,37194
58697,37187
58702,37181
58709,37175
58715,37170
58723,37166
58730,37162
58738,37160
58746,37157
58755,37156
58763,37156
58965,37156
58973,37156
Z" /> 
<path style="fill:#000000; fill-opacity:1.0; 
stroke:#000000; stroke-width:0; stroke-opacity:1; 
stroke-linecap:round; stroke-linejoin:round;fill-rule:evenodd;"
d="M 58973,37776
58982,37778
58990,37780
58998,37782
59006,37786
59013,37790
59020,37795
59026,37801
59032,37807
59037,37814
59041,37821
59045,37829
59047,37837
59049,37845
59051,37854
59051,37862
59051,38034
59051,38043
59049,38051
59047,38059
59045,38067
59041,38075
59037,38082
59032,38089
59026,38095
59020,38101
59013,38106
59006,38110
58998,38114
58990,38117
58982,38119
58973,38120
58965,38120
58763,38120
58755,38120
58746,38119
58738,38117
58730,38114
58723,38110
58715,38106
58709,38101
58702,38095
58697,38089
58692,38082
58687,38075
58684,38067
58681,38059
58679,38051
58677,38043
58677,38034
58677,37862
58677,37854
58679,37845
58681,37837
58684,37829
58687,37821
58692,37814
58697,37807
58702,37801
58709,37795
58715,37790
58723,37786
58730,37782
58738,37780
58746,37778
58755,37776
58763,37776
58965,37776
58973,37776
Z" /> 
</g>
<g >
<path style="fill:#000000; fill-opacity:1.0; 
stroke:#000000; stroke-width:0; stroke-opacity:1; 
stroke-linecap:round; stroke-linejoin:round;fill-rule:evenodd;"
d="M 60873,43976
60882,43978
60890,43980
60898,43982
60906,43986
60913,43990
60920,43995
60926,44001
60932,44007
60937,44014
60941,44021
60945,44029
60947,44037
60949,44045
60951,44054
60951,44062
60951,44234
60951,44243
60949,44251
60947,44259
60945,44267
60941,44275
60937,44282
60932,44289
60926,44295
60920,44301
60913,44306
60906,44310
60898,44314
60890,44317
60882,44319
60873,44320
60865,44320
60663,44320
60655,44320
60646,44319
60638,44317
60630,44314
60623,44310
60615,44306
60609,44301
60602,44295
60597,44289
60592,44282
60587,44275
60584,44267
60581,44259
60579,44251
60577,44243
60577,44234
60577,44062
60577,44054
60579,44045
60581,44037
60584,44029
60587,44021
60592,44014
60597,44007
60602,44001
60609,43995
60615,43990
60623,43986
60630,43982
60638,43980
60646,43978
60655,43976
60663,43976
60865,43976
60873,43976
Z" /> 
<path style="fill:#000000; fill-opacity:1.0; 
stroke:#000000; stroke-width:0; stroke-opacity:1; 
stroke-linecap:round; stroke-linejoin:round;fill-rule:evenodd;"
d="M 60873,43356
60882,43357
60890,43360
60898,43362
60906,43366
60913,43370
60920,43375
60926,43381
60932,43387
60937,43394
60941,43401
60945,43409
60947,43417
60949,43425
60951,43433
60951,43442
60951,43614
60951,43623
60949,43631
60947,43639
60945,43647
60941,43655
60937,43662
60932,43669
60926,43675
60920,43681
60913,43686
60906,43690
60898,43694
60890,43697
60882,43699
60873,43700
60865,43700
60663,43700
60655,43700
60646,43699
60638,43697
60630,43694
60623,43690
60615,43686
60609,43681
60602,43675
60597,43669
60592,43662
60587,43655
60584,43647
60581,43639
60579,43631
60577,43623
60577,43614
60577,43442
60577,43433
60579,43425
60581,43417
60584,43409
60587,43401
60592,43394
60597,43387
60602,43381
60609,43375
60615,43370
60623,43366
60630,43362
60638,43360
60646,43357
60655,43356
60663,43356
60865,43356
60873,43356
Z" /> 
</g>
<g >
<path style="fill:#000000; fill-opacity:1.0; 
stroke:#000000; stroke-width:0; stroke-opacity:1; 
stroke-linecap:round; stroke-linejoin:round;fill-rule:evenodd;"
d="M 55315,42805
55315,43021
54725,43021
54725,42805
55315,42805
Z" /> 
<path style="fill:#000000; fill-opacity:1.0; 
stroke:#000000; stroke-width:0; stroke-opacity:1; 
stroke-linecap:round; stroke-linejoin:round;fill-rule:evenodd;"
d="M 55315,42490
55315,42706
54725,42706
54725,42490
55315,42490
Z" /> 
<path style="fill:#000000; fill-opacity:1.0; 
stroke:#000000; stroke-width:0; stroke-opacity:1; 
stroke-linecap:round; stroke-linejoin:round;fill-rule:evenodd;"
d="M 55315,42175
55315,42391
54725,42391
54725,42175
55315,42175
Z" /> 
<path style="fill:#000000; fill-opacity:1.0; 
stroke:#000000; stroke-width:0; stroke-opacity:1; 
stroke-linecap:round; stroke-linejoin:round;fill-rule:evenodd;"
d="M 55315,41860
55315,42076
54725,42076
54725,41860
55315,41860
Z" /> 
<path style="fill:#000000; fill-opacity:1.0; 
stroke:#000000; stroke-width:0; stroke-opacity:1; 
stroke-linecap:round; stroke-linejoin:round;fill-rule:evenodd;"
d="M 55315,41545
55315,41761
54725,41761
54725,41545
55315,41545
Z" /> 
<path style="fill:#000000; fill-opacity:1.0; 
stroke:#000000; stroke-width:0; stroke-opacity:1; 
stroke-linecap:round; stroke-linejoin:round;fill-rule:evenodd;"
d="M 55315,41230
55315,41446
54725,41446
54725,41230
55315,41230
Z" /> 
<path style="fill:#000000; fill-opacity:1.0; 
stroke:#000000; stroke-width:0; stroke-opacity:1; 
stroke-linecap:round; stroke-linejoin:round;fill-rule:evenodd;"
d="M 55315,40915
55315,41131
54725,41131
54725,40915
55315,40915
Z" /> 
<path style="fill:#000000; fill-opacity:1.0; 
stroke:#000000; stroke-width:0; stroke-opacity:1; 
stroke-linecap:round; stroke-linejoin:round;fill-rule:evenodd;"
d="M 55315,40600
55315,40816
54725,40816
54725,40600
55315,40600
Z" /> 
<path style="fill:#000000; fill-opacity:1.0; 
stroke:#000000; stroke-width:0; stroke-opacity:1; 
stroke-linecap:round; stroke-linejoin:round;fill-rule:evenodd;"
d="M 55315,40285
55315,40501
54725,40501
54725,40285
55315,40285
Z" /> 
<path style="fill:#000000; fill-opacity:1.0; 
stroke:#000000; stroke-width:0; stroke-opacity:1; 
stroke-linecap:round; stroke-linejoin:round;fill-rule:evenodd;"
d="M 55315,39970
55315,40187
54725,40187
54725,39970
55315,39970
Z" /> 
<path style="fill:#000000; fill-opacity:1.0; 
stroke:#000000; stroke-width:0; stroke-opacity:1; 
stroke-linecap:round; stroke-linejoin:round;fill-rule:evenodd;"
d="M 55315,39655
55315,39872
54725,39872
54725,39655
55315,39655
Z" /> 
<path style="fill:#000000; fill-opacity:1.0; 
stroke:#000000; stroke-width:0; stroke-opacity:1; 
stroke-linecap:round; stroke-linejoin:round;fill-rule:evenodd;"
d="M 55798,39389
55581,39389
55581,38799
55798,38799
55798,39389
Z" /> 
<path style="fill:#000000; fill-opacity:1.0; 
stroke:#000000; stroke-width:0; stroke-opacity:1; 
stroke-linecap:round; stroke-linejoin:round;fill-rule:evenodd;"
d="M 56112,39389
55896,39389
55896,38799
56112,38799
56112,39389
Z" /> 
<path style="fill:#000000; fill-opacity:1.0; 
stroke:#000000; stroke-width:0; stroke-opacity:1; 
stroke-linecap:round; stroke-linejoin:round;fill-rule:evenodd;"
d="M 56427,39389
56211,39389
56211,38799
56427,38799
56427,39389
Z" /> 
<path style="fill:#000000; fill-opacity:1.0; 
stroke:#000000; stroke-width:0; stroke-opacity:1; 
stroke-linecap:round; stroke-linejoin:round;fill-rule:evenodd;"
d="M 56742,39389
56526,39389
56526,38799
56742,38799
56742,39389
Z" /> 
<path style="fill:#000000; fill-opacity:1.0; 
stroke:#000000; stroke-width:0; stroke-opacity:1; 
stroke-linecap:round; stroke-linejoin:round;fill-rule:evenodd;"
d="M 57057,39389
56841,39389
56841,38799
57057,38799
57057,39389
Z" /> 
<path style="fill:#000000; fill-opacity:1.0; 
stroke:#000000; stroke-width:0; stroke-opacity:1; 
stroke-linecap:round; stroke-linejoin:round;fill-rule:evenodd;"
d="M 57372,39389
57156,39389
57156,38799
57372,38799
57372,39389
Z" /> 
<path style="fill:#000000; fill-opacity:1.0; 
stroke:#000000; stroke-width:0; stroke-opacity:1; 
stroke-linecap:round; stroke-linejoin:round;fill-rule:evenodd;"
d="M 57687,39389
57471,39389
57471,38799
57687,38799
57687,39389
Z" /> 
<path style="fill:#000000; fill-opacity:1.0; 
stroke:#000000; stroke-width:0; stroke-opacity:1; 
stroke-linecap:round; stroke-linejoin:round;fill-rule:evenodd;"
d="M 58002,39389
57786,39389
57786,38799
58002,38799
58002,39389
Z" /> 
<path style="fill:#000000; fill-opacity:1.0; 
stroke:#000000; stroke-width:0; stroke-opacity:1; 
stroke-linecap:round; stroke-linejoin:round;fill-rule:evenodd;"
d="M 58317,39389
58101,39389
58101,38799
58317,38799
58317,39389
Z" /> 
<path style="fill:#000000; fill-opacity:1.0; 
stroke:#000000; stroke-width:0; stroke-opacity:1; 
stroke-linecap:round; stroke-linejoin:round;fill-rule:evenodd;"
d="M 58632,39389
58416,39389
58416,38799
58632,38799
58632,39389
Z" /> 
<path style="fill:#000000; fill-opacity:1.0; 
stroke:#000000; stroke-width:0; stroke-opacity:1; 
stroke-linecap:round; stroke-linejoin:round;fill-rule:evenodd;"
d="M 58947,39389
58731,39389
58731,38799
58947,38799
58947,39389
Z" /> 
<path style="fill:#000000; fill-opacity:1.0; 
stroke:#000000; stroke-width:0; stroke-opacity:1; 
stroke-linecap:round; stroke-linejoin:round;fill-rule:evenodd;"
d="M 59803,39655
59803,39872
59213,39872
59213,39655
59803,39655
Z" /> 
<path style="fill:#000000; fill-opacity:1.0; 
stroke:#000000; stroke-width:0; stroke-opacity:1; 
stroke-linecap:round; stroke-linejoin:round;fill-rule:evenodd;"
d="M 59803,39970
59803,40187
59213,40187
59213,39970
59803,39970
Z" /> 
<path style="fill:#000000; fill-opacity:1.0; 
stroke:#000000; stroke-width:0; stroke-opacity:1; 
stroke-linecap:round; stroke-linejoin:round;fill-rule:evenodd;"
d="M 59803,40285
59803,40501
59213,40501
59213,40285
59803,40285
Z" /> 
<path style="fill:#000000; fill-opacity:1.0; 
stroke:#000000; stroke-width:0; stroke-opacity:1; 
stroke-linecap:round; stroke-linejoin:round;fill-rule:evenodd;"
d="M 59803,40600
59803,40816
59213,40816
59213,40600
59803,40600
Z" /> 
<path style="fill:#000000; fill-opacity:1.0; 
stroke:#000000; stroke-width:0; stroke-opacity:1; 
stroke-linecap:round; stroke-linejoin:round;fill-rule:evenodd;"
d="M 59803,40915
59803,41131
59213,41131
59213,40915
59803,40915
Z" /> 
<path style="fill:#000000; fill-opacity:1.0; 
stroke:#000000; stroke-width:0; stroke-opacity:1; 
stroke-linecap:round; stroke-linejoin:round;fill-rule:evenodd;"
d="M 59803,41230
59803,41446
59213,41446
59213,41230
59803,41230
Z" /> 
<path style="fill:#000000; fill-opacity:1.0; 
stroke:#000000; stroke-width:0; stroke-opacity:1; 
stroke-linecap:round; stroke-linejoin:round;fill-rule:evenodd;"
d="M 59803,41545
59803,41761
59213,41761
59213,41545
59803,41545
Z" /> 
<path style="fill:#000000; fill-opacity:1.0; 
stroke:#000000; stroke-width:0; stroke-opacity:1; 
stroke-linecap:round; stroke-linejoin:round;fill-rule:evenodd;"
d="M 59803,41860
59803,42076
59213,42076
59213,41860
59803,41860
Z" /> 
<path style="fill:#000000; fill-opacity:1.0; 
stroke:#000000; stroke-width:0; stroke-opacity:1; 
stroke-linecap:round; stroke-linejoin:round;fill-rule:evenodd;"
d="M 59803,42175
59803,42391
59213,42391
59213,42175
59803,42175
Z" /> 
<path style="fill:#000000; fill-opacity:1.0; 
stroke:#000000; stroke-width:0; stroke-opacity:1; 
stroke-linecap:round; stroke-linejoin:round;fill-rule:evenodd;"
d="M 59803,42490
59803,42706
59213,42706
59213,42490
59803,42490
Z" /> 
<path style="fill:#000000; fill-opacity:1.0; 
stroke:#000000; stroke-width:0; stroke-opacity:1; 
stroke-linecap:round; stroke-linejoin:round;fill-rule:evenodd;"
d="M 59803,42805
59803,43021
59213,43021
59213,42805
59803,42805
Z" /> 
<path style="fill:#000000; fill-opacity:1.0; 
stroke:#000000; stroke-width:0; stroke-opacity:1; 
stroke-linecap:round; stroke-linejoin:round;fill-rule:evenodd;"
d="M 58947,43877
58731,43877
58731,43287
58947,43287
58947,43877
Z" /> 
<path style="fill:#000000; fill-opacity:1.0; 
stroke:#000000; stroke-width:0; stroke-opacity:1; 
stroke-linecap:round; stroke-linejoin:round;fill-rule:evenodd;"
d="M 58632,43877
58416,43877
58416,43287
58632,43287
58632,43877
Z" /> 
<path style="fill:#000000; fill-opacity:1.0; 
stroke:#000000; stroke-width:0; stroke-opacity:1; 
stroke-linecap:round; stroke-linejoin:round;fill-rule:evenodd;"
d="M 58317,43877
58101,43877
58101,43287
58317,43287
58317,43877
Z" /> 
<path style="fill:#000000; fill-opacity:1.0; 
stroke:#000000; stroke-width:0; stroke-opacity:1; 
stroke-linecap:round; stroke-linejoin:round;fill-rule:evenodd;"
d="M 58002,43877
57786,43877
57786,43287
58002,43287
58002,43877
Z" /> 
<path style="fill:#000000; fill-opacity:1.0; 
stroke:#000000; stroke-width:0; stroke-opacity:1; 
stroke-linecap:round; stroke-linejoin:round;fill-rule:evenodd;"
d="M 57687,43877
57471,43877
57471,43287
57687,43287
57687,43877
Z" /> 
<path style="fill:#000000; fill-opacity:1.0; 
stroke:#000000; stroke-width:0; stroke-opacity:1; 
stroke-linecap:round; stroke-linejoin:round;fill-rule:evenodd;"
d="M 57372,43877
57156,43877
57156,43287
57372,43287
57372,43877
Z" /> 
<path style="fill:#000000; fill-opacity:1.0; 
stroke:#000000; stroke-width:0; stroke-opacity:1; 
stroke-linecap:round; stroke-linejoin:round;fill-rule:evenodd;"
d="M 57057,43877
56841,43877
56841,43287
57057,43287
57057,43877
Z" /> 
<path style="fill:#000000; fill-opacity:1.0; 
stroke:#000000; stroke-width:0; stroke-opacity:1; 
stroke-linecap:round; stroke-linejoin:round;fill-rule:evenodd;"
d="M 56742,43877
56526,43877
56526,43287
56742,43287
56742,43877
Z" /> 
<path style="fill:#000000; fill-opacity:1.0; 
stroke:#000000; stroke-width:0; stroke-opacity:1; 
stroke-linecap:round; stroke-linejoin:round;fill-rule:evenodd;"
d="M 56427,43877
56211,43877
56211,43287
56427,43287
56427,43877
Z" /> 
<path style="fill:#000000; fill-opacity:1.0; 
stroke:#000000; stroke-width:0; stroke-opacity:1; 
stroke-linecap:round; stroke-linejoin:round;fill-rule:evenodd;"
d="M 56112,43877
55896,43877
55896,43287
56112,43287
56112,43877
Z" /> 
<path style="fill:#000000; fill-opacity:1.0; 
stroke:#000000; stroke-width:0; stroke-opacity:1; 
stroke-linecap:round; stroke-linejoin:round;fill-rule:evenodd;"
d="M 55798,43877
55581,43877
55581,43287
55798,43287
55798,43877
Z" /> 
</g>
<g >
</g>
<g >
</g>
<g >
</g>
</g> 
</svg>
