M48
; DRILL file {KiCad (5.1.0)-1} date 02/04/2019 16:53:17
; FORMAT={-:-/ absolute / inch / decimal}
; #@! TF.CreationDate,2019-04-02T16:53:17+02:00
; #@! TF.GenerationSoftware,Kicad,Pcbnew,(5.1.0)-1
; #@! TF.FileFunction,Plated,1,2,PTH
FMAT,2
INCH
T1C0.0157
T2C0.0236
T3C0.0394
T4C0.0472
%
G90
G05
T1
X5.3267Y-3.6813
X5.3371Y-4.2902
X5.8331Y-4.2876
X5.8957Y-4.199
T2
X5.1665Y-4.4639
X5.1665Y-4.5139
X5.1665Y-4.5639
X5.1665Y-4.6139
X5.1665Y-4.6639
X5.2165Y-4.4639
X5.2165Y-4.5139
X5.2165Y-4.5639
X5.2165Y-4.6139
X5.2165Y-4.6639
T3
X5.2465Y-4.0339
X5.2465Y-4.1339
X5.2465Y-4.2339
T4
X6.4715Y-4.6589
T2
G00X5.6516Y-4.8819
M15
G01X5.6516Y-4.9173
M16
G05
G00X5.6516Y-5.0394
M15
G01X5.6516Y-5.0748
M16
G05
G00X6.0413Y-4.8819
M15
G01X6.0413Y-4.9173
M16
G05
G00X6.0413Y-5.0394
M15
G01X6.0413Y-5.0748
M16
G05
T0
M30
